G04 (created by PCBNEW (2013-07-07 BZR 4022)-stable) date 11/16/2016 1:12:14 AM*
%MOIN*%
G04 Gerber Fmt 3.4, Leading zero omitted, Abs format*
%FSLAX34Y34*%
G01*
G70*
G90*
G04 APERTURE LIST*
%ADD10C,0.00590551*%
%ADD11R,0.102063X0.102063*%
%ADD12C,0.0867087*%
%ADD13R,0.311512X0.0689921*%
%ADD14C,0.230409*%
%ADD15R,0.0410394X0.0365118*%
%ADD16R,0.040252X0.115843*%
%ADD17R,0.0374961X0.0374961*%
%ADD18R,0.0532441X0.0414331*%
%ADD19R,0.0414331X0.0532441*%
%ADD20R,0.0729291X0.0378898*%
%ADD21R,0.0473386X0.0378898*%
%ADD22R,0.0453701X0.0670236*%
%ADD23R,0.0245039X0.0453701*%
%ADD24R,0.0192913X0.0448819*%
%ADD25R,0.0448819X0.0192913*%
%ADD26R,0.0905512X0.0905512*%
%ADD27R,0.0630866X0.0237165*%
%ADD28R,0.029622X0.0670236*%
%ADD29R,0.0304094X0.0540315*%
%ADD30R,0.0335591X0.029622*%
%ADD31R,0.029622X0.0374961*%
%ADD32R,0.0374961X0.029622*%
%ADD33R,0.0314961X0.0295276*%
%ADD34R,0.0453701X0.0453701*%
%ADD35R,0.0197795X0.0453701*%
%ADD36R,0.0650551X0.100488*%
%ADD37C,0.025685*%
%ADD38R,0.0571811X0.0670236*%
%ADD39R,0.0295276X0.0314961*%
%ADD40R,0.061X0.061*%
%ADD41C,0.061*%
%ADD42C,0.0787402*%
%ADD43R,0.0374961X0.0170236*%
%ADD44R,0.0170236X0.0374961*%
%ADD45R,0.0886772X0.0886772*%
%ADD46R,0.021748X0.0591496*%
%ADD47R,0.0886772X0.0689921*%
%ADD48R,0.0768661X0.0808031*%
%ADD49R,0.0808031X0.0808031*%
%ADD50R,0.0335591X0.0847402*%
%ADD51R,0.0847402X0.0335591*%
%ADD52R,0.0160236X0.0384646*%
%ADD53R,0.0384646X0.0160236*%
%ADD54R,0.172323X0.172323*%
%ADD55C,0.0737165*%
%ADD56R,0.0394646X0.0306063*%
%ADD57R,0.0611181X0.0532441*%
G04 APERTURE END LIST*
G54D10*
G54D11*
X84252Y-41702D03*
X86347Y-41702D03*
X86347Y-43797D03*
G54D12*
X85300Y-42750D03*
G54D13*
X85300Y-43962D03*
X85300Y-41537D03*
G54D11*
X84252Y-43797D03*
G54D14*
X85000Y-46000D03*
X64200Y-58200D03*
X61450Y-41000D03*
X85000Y-55000D03*
G54D10*
G36*
X65184Y-45495D02*
X64903Y-45279D01*
X64903Y-44120D01*
X65184Y-43904D01*
X65184Y-45495D01*
X65184Y-45495D01*
G37*
G36*
X66415Y-43904D02*
X66696Y-44120D01*
X66696Y-45279D01*
X66415Y-45495D01*
X66415Y-43904D01*
X66415Y-43904D01*
G37*
G54D15*
X65329Y-44086D03*
X65329Y-45313D03*
X66270Y-45313D03*
X66270Y-44086D03*
G54D10*
G36*
X64943Y-44184D02*
X65217Y-43910D01*
X65546Y-44239D01*
X65272Y-44513D01*
X64943Y-44184D01*
X64943Y-44184D01*
G37*
G54D16*
X65105Y-44700D03*
G54D10*
G36*
X65217Y-45489D02*
X64943Y-45215D01*
X65272Y-44886D01*
X65546Y-45160D01*
X65217Y-45489D01*
X65217Y-45489D01*
G37*
G36*
X66327Y-44513D02*
X66053Y-44239D01*
X66382Y-43910D01*
X66656Y-44184D01*
X66327Y-44513D01*
X66327Y-44513D01*
G37*
G36*
X66053Y-45160D02*
X66327Y-44886D01*
X66656Y-45215D01*
X66382Y-45489D01*
X66053Y-45160D01*
X66053Y-45160D01*
G37*
G54D16*
X66494Y-44700D03*
G54D17*
X58704Y-59100D03*
X59295Y-59100D03*
X58704Y-58550D03*
X59295Y-58550D03*
G54D18*
X64250Y-41575D03*
X64250Y-42324D03*
G54D19*
X66475Y-41400D03*
X67224Y-41400D03*
G54D20*
X76195Y-44070D03*
G54D21*
X76323Y-43600D03*
X76323Y-43129D03*
X75476Y-43129D03*
X75476Y-43600D03*
X75476Y-44070D03*
G54D22*
X75711Y-55750D03*
X74688Y-55750D03*
G54D23*
X63544Y-43704D03*
X63800Y-43704D03*
X64055Y-43704D03*
X64055Y-42995D03*
X63800Y-42995D03*
X63544Y-42995D03*
G54D24*
X78316Y-44298D03*
X78572Y-44298D03*
X78827Y-44298D03*
X79083Y-44298D03*
X79083Y-42801D03*
X78827Y-42801D03*
X78572Y-42801D03*
X78316Y-42801D03*
G54D25*
X79448Y-43933D03*
X79448Y-43677D03*
X79448Y-43422D03*
X79448Y-43166D03*
X77951Y-43166D03*
X77951Y-43422D03*
X77951Y-43677D03*
X77951Y-43933D03*
G54D26*
X78700Y-43550D03*
G54D27*
X76688Y-47266D03*
X76688Y-47522D03*
X76688Y-47777D03*
X76688Y-48033D03*
X79011Y-48033D03*
X79011Y-47777D03*
X79011Y-47522D03*
X79011Y-47266D03*
G54D28*
X82150Y-48787D03*
X81650Y-48787D03*
X81150Y-48787D03*
X80650Y-48787D03*
X80650Y-50912D03*
X81150Y-50912D03*
X81650Y-50912D03*
X82150Y-50912D03*
G54D29*
X64424Y-48534D03*
X64050Y-48534D03*
X63675Y-48534D03*
X63675Y-49565D03*
X64050Y-49565D03*
X64424Y-49565D03*
X64925Y-42665D03*
X65300Y-42665D03*
X65674Y-42665D03*
X65674Y-41634D03*
X65300Y-41634D03*
X64925Y-41634D03*
G54D30*
X59543Y-48674D03*
X59543Y-47925D03*
X58756Y-48300D03*
G54D31*
X77050Y-44094D03*
X77050Y-44601D03*
X82950Y-43755D03*
X82950Y-43248D03*
X81500Y-43755D03*
X81500Y-43248D03*
G54D32*
X77405Y-43600D03*
X76898Y-43600D03*
G54D31*
X83400Y-42744D03*
X83400Y-43251D03*
G54D32*
X82455Y-43800D03*
X81948Y-43800D03*
G54D33*
X60032Y-48700D03*
X60367Y-48700D03*
G54D34*
X78935Y-51900D03*
X79564Y-51900D03*
G54D35*
X73544Y-52254D03*
X73800Y-52254D03*
X74055Y-52254D03*
X74055Y-51545D03*
X73800Y-51545D03*
X73544Y-51545D03*
G54D32*
X63794Y-47750D03*
X64301Y-47750D03*
G54D31*
X82150Y-51594D03*
X82150Y-52101D03*
G54D36*
X63298Y-45750D03*
X64401Y-45750D03*
G54D34*
X83000Y-56735D03*
X83000Y-57364D03*
X85000Y-56735D03*
X85000Y-57364D03*
X82000Y-56735D03*
X82000Y-57364D03*
X81000Y-56735D03*
X81000Y-57364D03*
X80000Y-56735D03*
X80000Y-57364D03*
X78550Y-55635D03*
X78550Y-56264D03*
X84000Y-56735D03*
X84000Y-57364D03*
X77650Y-45564D03*
X77650Y-44935D03*
X79650Y-45564D03*
X79650Y-44935D03*
X74950Y-54235D03*
X74950Y-54864D03*
X79235Y-50800D03*
X79864Y-50800D03*
X75950Y-49564D03*
X75950Y-48935D03*
X67264Y-42050D03*
X66635Y-42050D03*
X61050Y-57235D03*
X61050Y-57864D03*
G54D37*
X71856Y-59900D03*
X71462Y-59900D03*
X72250Y-59900D03*
X72643Y-59900D03*
X73037Y-59900D03*
X72643Y-39100D03*
X73037Y-39100D03*
X72250Y-39100D03*
X71856Y-39100D03*
X71462Y-39100D03*
X57600Y-49106D03*
X57600Y-48712D03*
X57600Y-49500D03*
X57600Y-49893D03*
X57600Y-50287D03*
X86900Y-49893D03*
X86900Y-50287D03*
X86900Y-49500D03*
X86900Y-49106D03*
X86900Y-48712D03*
G54D38*
X57914Y-42614D03*
X57914Y-39485D03*
X59685Y-42614D03*
X59685Y-39485D03*
G54D32*
X80505Y-42750D03*
X79998Y-42750D03*
X81055Y-43800D03*
X80548Y-43800D03*
G54D31*
X79000Y-46805D03*
X79000Y-46298D03*
G54D32*
X66005Y-52800D03*
X65498Y-52800D03*
G54D31*
X64900Y-49605D03*
X64900Y-49098D03*
X78200Y-45405D03*
X78200Y-44898D03*
G54D32*
X71744Y-54800D03*
X72251Y-54800D03*
G54D31*
X74150Y-55905D03*
X74150Y-55398D03*
X76250Y-55905D03*
X76250Y-55398D03*
G54D32*
X73044Y-50450D03*
X73551Y-50450D03*
X73855Y-48650D03*
X73348Y-48650D03*
X73205Y-53450D03*
X72698Y-53450D03*
G54D31*
X73700Y-53344D03*
X73700Y-53851D03*
G54D32*
X73205Y-53900D03*
X72698Y-53900D03*
G54D31*
X75500Y-54194D03*
X75500Y-54701D03*
G54D32*
X78894Y-51350D03*
X79401Y-51350D03*
G54D31*
X76500Y-49605D03*
X76500Y-49098D03*
G54D32*
X73205Y-54350D03*
X72698Y-54350D03*
X69944Y-42300D03*
X70451Y-42300D03*
G54D31*
X68550Y-44294D03*
X68550Y-44801D03*
X79100Y-45405D03*
X79100Y-44898D03*
X63650Y-41294D03*
X63650Y-41801D03*
G54D32*
X79605Y-42250D03*
X79098Y-42250D03*
G54D31*
X76450Y-54244D03*
X76450Y-54751D03*
G54D39*
X84500Y-57017D03*
X84500Y-56682D03*
X83500Y-57017D03*
X83500Y-56682D03*
X82500Y-57017D03*
X82500Y-56682D03*
X80500Y-57017D03*
X80500Y-56682D03*
X79500Y-57017D03*
X79500Y-56682D03*
X78000Y-57167D03*
X78000Y-56832D03*
X78450Y-56832D03*
X78450Y-57167D03*
X81150Y-48117D03*
X81150Y-47782D03*
X78650Y-44882D03*
X78650Y-45217D03*
G54D33*
X60167Y-59100D03*
X59832Y-59100D03*
G54D39*
X63200Y-41617D03*
X63200Y-41282D03*
G54D33*
X60167Y-58550D03*
X59832Y-58550D03*
X72167Y-55250D03*
X71832Y-55250D03*
X63682Y-50150D03*
X64017Y-50150D03*
X73017Y-53000D03*
X72682Y-53000D03*
X64017Y-50600D03*
X63682Y-50600D03*
G54D31*
X81000Y-43305D03*
X81000Y-42798D03*
G54D32*
X73694Y-54350D03*
X74201Y-54350D03*
G54D36*
X63298Y-46950D03*
X64401Y-46950D03*
X66501Y-46150D03*
X65398Y-46150D03*
G54D40*
X80000Y-59000D03*
G54D41*
X81000Y-59000D03*
X82000Y-59000D03*
X83000Y-59000D03*
X84000Y-59000D03*
X85000Y-59000D03*
G54D40*
X85000Y-40000D03*
G54D41*
X84000Y-40000D03*
X83000Y-40000D03*
X82000Y-40000D03*
X81000Y-40000D03*
X80000Y-40000D03*
X79000Y-40000D03*
X78000Y-40000D03*
G54D40*
X76400Y-40000D03*
G54D41*
X75400Y-40000D03*
X74400Y-40000D03*
X73400Y-40000D03*
X72400Y-40000D03*
X71400Y-40000D03*
X70400Y-40000D03*
X69400Y-40000D03*
X68400Y-40000D03*
X67400Y-40000D03*
G54D40*
X71000Y-59000D03*
G54D41*
X72000Y-59000D03*
X73000Y-59000D03*
X74000Y-59000D03*
X75000Y-59000D03*
X76000Y-59000D03*
X77000Y-59000D03*
X78000Y-59000D03*
G54D42*
X86550Y-39450D03*
X86550Y-59550D03*
X57950Y-59550D03*
G54D39*
X78000Y-56267D03*
X78000Y-55932D03*
G54D43*
X69408Y-43433D03*
X69408Y-43177D03*
X69408Y-42922D03*
X69408Y-42666D03*
G54D44*
X69083Y-42341D03*
X68827Y-42341D03*
X68572Y-42341D03*
X68316Y-42341D03*
G54D43*
X67991Y-42666D03*
X67991Y-42922D03*
X67991Y-43177D03*
X67991Y-43433D03*
G54D44*
X68316Y-43758D03*
X68572Y-43758D03*
X68827Y-43758D03*
X69083Y-43758D03*
G54D45*
X68700Y-43050D03*
G54D46*
X65361Y-40653D03*
X65105Y-40653D03*
X64850Y-40653D03*
X64594Y-40653D03*
X64338Y-40653D03*
G54D47*
X66070Y-40603D03*
G54D48*
X66346Y-39600D03*
G54D49*
X65322Y-39600D03*
X64377Y-39600D03*
G54D48*
X63353Y-39600D03*
G54D47*
X63629Y-40603D03*
G54D50*
X57801Y-56400D03*
X58234Y-56400D03*
X58667Y-56400D03*
X59100Y-56400D03*
X59533Y-56400D03*
X59966Y-56400D03*
X60400Y-56400D03*
X60833Y-56400D03*
X61266Y-56400D03*
X61699Y-56400D03*
X62132Y-56400D03*
G54D51*
X62840Y-55782D03*
X62840Y-55349D03*
X62840Y-54916D03*
X62840Y-54483D03*
X62840Y-54050D03*
X62840Y-53617D03*
G54D50*
X62132Y-52999D03*
X61699Y-52999D03*
X61266Y-52999D03*
X60833Y-52999D03*
X60400Y-52999D03*
X59966Y-52999D03*
X59533Y-52999D03*
X59100Y-52999D03*
X58667Y-52999D03*
X58234Y-52999D03*
X57801Y-52999D03*
G54D39*
X65350Y-48582D03*
X65350Y-48917D03*
G54D52*
X76501Y-53661D03*
X76304Y-53661D03*
X76107Y-53661D03*
X75911Y-53661D03*
X75714Y-53661D03*
X75517Y-53661D03*
X75320Y-53661D03*
X75123Y-53661D03*
X76698Y-53661D03*
X76895Y-53661D03*
X77092Y-53661D03*
X77288Y-53661D03*
X77485Y-53661D03*
X77682Y-53661D03*
X77879Y-53661D03*
X78076Y-53661D03*
G54D53*
X78361Y-53376D03*
X78361Y-53179D03*
X78361Y-52982D03*
X78361Y-52785D03*
X78361Y-52588D03*
X78361Y-52392D03*
X78361Y-52195D03*
X78361Y-51998D03*
X78361Y-51801D03*
X78361Y-51604D03*
X78361Y-51407D03*
X78361Y-51211D03*
X78361Y-51014D03*
X78361Y-50817D03*
X78361Y-50620D03*
X78361Y-50423D03*
X74838Y-53376D03*
X74838Y-53179D03*
X74838Y-52982D03*
X74838Y-52785D03*
X74838Y-52588D03*
X74838Y-52392D03*
X74838Y-52195D03*
X74838Y-51998D03*
X74838Y-51801D03*
X74838Y-51604D03*
X74838Y-51407D03*
X74838Y-51211D03*
X74838Y-51014D03*
X74838Y-50817D03*
X74838Y-50620D03*
X74838Y-50423D03*
G54D52*
X75123Y-50138D03*
X75320Y-50138D03*
X75517Y-50138D03*
X75714Y-50138D03*
X75911Y-50138D03*
X76107Y-50138D03*
X76304Y-50138D03*
X76501Y-50138D03*
X76698Y-50138D03*
X76895Y-50138D03*
X77092Y-50138D03*
X77288Y-50138D03*
X77485Y-50138D03*
X77682Y-50138D03*
X77879Y-50138D03*
X78076Y-50138D03*
G54D54*
X76600Y-51900D03*
G54D55*
X58750Y-46000D03*
X58750Y-47000D03*
X58750Y-44850D03*
X58750Y-43850D03*
G54D56*
X80050Y-44385D03*
X80050Y-43814D03*
G54D57*
X73016Y-49215D03*
X73016Y-49884D03*
X73883Y-49884D03*
X73883Y-49215D03*
G54D33*
X62467Y-44100D03*
X62132Y-44100D03*
G54D29*
X60775Y-44415D03*
X61150Y-44415D03*
X61524Y-44415D03*
X61524Y-43384D03*
X61150Y-43384D03*
X60775Y-43384D03*
G54D30*
X62393Y-46374D03*
X62393Y-45625D03*
X61606Y-46000D03*
X62106Y-42775D03*
X62106Y-43524D03*
X62893Y-43150D03*
G54D32*
X59294Y-57250D03*
X59801Y-57250D03*
M02*
