M48
;DRILL file {Pcbnew (2013-07-07 BZR 4022)-stable} date 11/20/2016 10:50:55 PM
;FORMAT={-:-/ absolute / inch / decimal}
FMAT,2
INCH,TZ
T1C0.013
T2C0.032
T3C0.040
T4C0.130
%
G90
G05
M72
T1
X-0.005Y0.255
X0.025Y0.815
X0.025Y0.775
X0.025Y0.72
X0.03Y0.255
X0.035Y0.1
X0.045Y1.69
X0.065Y0.855
X0.065Y0.815
X0.07Y0.755
X0.105Y0.855
X0.12Y1.165
X0.145Y0.855
X0.17Y1.955
X0.175Y1.745
X0.185Y0.855
X0.225Y0.855
X0.24Y1.055
X0.245Y0.595
X0.245Y0.375
X0.265Y0.73
X0.265Y0.1
X0.265Y0.045
X0.28Y1.465
X0.285Y1.565
X0.305Y0.855
X0.32Y1.465
X0.33Y0.765
X0.335Y0.375
X0.345Y0.855
X0.35Y0.17
X0.36Y1.565
X0.36Y0.23
X0.365Y1.315
X0.365Y0.775
X0.375Y0.595
X0.375Y0.375
X0.385Y0.175
X0.385Y0.135
X0.385Y0.075
X0.385Y0.015
X0.405Y1.455
X0.405Y1.415
X0.405Y1.335
X0.405Y1.295
X0.405Y1.255
X0.405Y1.215
X0.405Y1.175
X0.405Y1.135
X0.405Y0.775
X0.415Y1.64
X0.425Y1.495
X0.425Y0.59
X0.425Y0.55
X0.425Y0.51
X0.445Y1.355
X0.445Y1.135
X0.445Y0.775
X0.455Y1.64
X0.455Y0.655
X0.465Y1.755
X0.465Y0.315
X0.48Y2.015
X0.48Y1.96
X0.485Y1.135
X0.485Y1.095
X0.485Y1.055
X0.485Y1.015
X0.485Y0.975
X0.485Y0.935
X0.485Y0.855
X0.485Y0.775
X0.495Y1.795
X0.495Y1.755
X0.505Y1.91
X0.505Y1.86
X0.505Y1.495
X0.525Y0.855
X0.525Y0.775
X0.545Y1.535
X0.545Y1.495
X0.555Y0.375
X0.56Y0.55
X0.565Y0.855
X0.565Y0.775
X0.57Y1.74
X0.585Y1.62
X0.585Y1.535
X0.605Y0.855
X0.605Y0.75
X0.605Y0.695
X0.605Y0.535
X0.605Y0.495
X0.605Y0.455
X0.61Y1.145
X0.615Y0.64
X0.63Y1.76
X0.63Y0.36
X0.645Y1.615
X0.645Y0.855
X0.65Y1.655
X0.66Y0.695
X0.66Y0.56
X0.675Y1.485
X0.675Y1.18
X0.68Y1.935
X0.68Y0.51
X0.68Y0.43
X0.68Y0.395
X0.685Y1.615
X0.695Y1.835
X0.695Y1.34
X0.695Y1.26
X0.695Y1.08
X0.71Y0.475
X0.715Y0.51
X0.725Y1.935
X0.725Y1.615
X0.725Y0.855
X0.735Y1.225
X0.75Y1.145
X0.75Y0.94
X0.75Y0.825
X0.75Y0.63
X0.755Y0.71
X0.765Y1.615
X0.775Y1.835
X0.8Y0.63
X0.805Y1.69
X0.805Y1.615
X0.815Y0.32
X0.83Y1.255
X0.83Y1.22
X0.83Y0.875
X0.835Y0.74
X0.845Y1.615
X0.845Y0.675
X0.87Y1.71
X0.885Y1.615
X0.895Y2.015
X0.91Y0.25
X0.925Y1.615
X0.925Y1.575
X0.925Y1.535
X0.925Y1.495
X0.925Y1.455
X0.925Y1.415
X0.925Y1.375
X0.925Y1.335
X0.925Y1.295
X0.925Y1.255
X0.925Y1.215
X0.925Y1.175
X0.925Y1.135
X0.925Y1.095
X0.925Y1.055
X0.925Y0.925
X0.93Y1.71
X0.945Y0.225
X0.965Y1.815
X0.97Y1.635
X1.005Y1.58
X1.025Y1.53
X1.06Y1.76
X1.1Y1.525
X1.105Y0.655
X1.105Y0.59
X1.14Y1.58
X1.145Y1.72
X1.155Y0.825
X1.18Y1.61
X1.25Y1.6925
X1.255Y1.195
X1.255Y1.035
X1.26Y1.555
X1.26Y1.355
X1.305Y1.875
X1.345Y1.855
X1.345Y1.815
X1.345Y1.775
X1.345Y1.735
X1.345Y1.695
X1.345Y1.655
X1.345Y1.615
X1.345Y1.575
X1.345Y1.535
X1.345Y1.495
X1.345Y1.455
X1.345Y1.415
X1.345Y1.375
X1.355Y0.575
X1.355Y0.475
X1.385Y1.355
X1.395Y1.955
X1.405Y1.315
X1.405Y1.275
X1.405Y1.235
X1.405Y1.195
X1.405Y1.155
X1.405Y1.115
X1.405Y1.075
X1.405Y1.035
X1.405Y0.995
X1.405Y0.955
X1.405Y0.915
X1.405Y0.875
X1.405Y0.835
X1.405Y0.795
X1.405Y0.755
X1.425Y0.395
X1.43Y0.7
X1.43Y0.52
X1.435Y0.61
X1.455Y0.475
X1.475Y0.695
X1.495Y1.955
X1.515Y0.695
X1.525Y0.76
X1.565Y1.175
X1.565Y1.135
X1.585Y0.84
X1.585Y0.365
X1.595Y0.92
X1.605Y1.135
X1.61Y0.58
X1.62Y0.45
X1.645Y1.115
X1.645Y1.075
X1.645Y1.035
X1.645Y0.635
X1.655Y0.555
X1.66Y0.52
X1.66Y0.45
X1.67Y0.59
X1.69Y1.305
X1.69Y1.27
X1.69Y1.235
X1.69Y1.2
X1.71Y1.64
X1.71Y1.595
X1.71Y1.545
X1.725Y1.675
X1.73Y0.895
X1.73Y0.625
X1.735Y0.37
X1.755Y0.445
X1.76Y1.04
X1.76Y0.985
X1.76Y0.8
X1.76Y0.765
X1.76Y0.73
X1.76Y0.665
X1.765Y1.695
X1.765Y0.875
X1.765Y0.63
X1.785Y1.1
X1.785Y0.905
X1.795Y1.595
X1.8Y0.63
X1.805Y1.695
X1.805Y0.49
X1.81Y0.88
X1.815Y0.66
X1.815Y0.545
X1.825Y1.51
X1.83Y1.105
X1.835Y0.905
X1.84Y1.335
X1.84Y1.26
X1.845Y1.695
X1.845Y0.63
X1.85Y0.87
X1.86Y1.085
X1.86Y0.44
X1.865Y1.475
X1.88Y1.64
X1.885Y1.695
X1.885Y0.89
X1.91Y1.46
X1.92Y1.24
X1.92Y1.205
X1.92Y1.155
X1.92Y0.88
X1.925Y1.765
X1.925Y1.735
X1.925Y1.695
X1.925Y1.415
X1.96Y1.64
X1.965Y1.765
X1.965Y1.505
X1.975Y1.36
X1.975Y0.9
X1.995Y0.705
X2.Y1.665
X2.Y1.535
X2.Y0.855
X2.Y0.82
X2.Y0.785
X2.Y0.745
X2.005Y1.765
X2.005Y1.725
X2.005Y0.665
X2.005Y0.63
X2.005Y0.55
X2.005Y0.405
X2.015Y1.275
X2.015Y1.07
X2.015Y1.035
X2.015Y0.98
X2.025Y1.375
X2.04Y1.725
X2.04Y1.3
X2.04Y0.585
X2.0425Y0.94
X2.045Y1.765
X2.05Y1.035
X2.05Y0.205
X2.065Y1.275
X2.07Y1.4
X2.075Y1.725
X2.08Y0.94
X2.08Y0.87
X2.08Y0.68
X2.08Y0.615
X2.085Y1.765
X2.1Y0.38
X2.1Y0.33
X2.1Y0.28
X2.1Y0.23
X2.1Y0.18
X2.1Y0.13
X2.1Y0.08
X2.1Y0.03
X2.105Y1.005
X2.11Y1.12
X2.115Y1.375
X2.125Y1.765
X2.125Y0.535
X2.13Y0.92
X2.14Y1.275
X2.155Y1.175
X2.165Y1.765
X2.165Y1.355
X2.165Y1.315
X2.175Y0.535
X2.185Y1.275
X2.185Y0.82
X2.195Y1.63
X2.2Y0.765
X2.205Y1.765
X2.205Y1.355
X2.205Y0.33
X2.205Y0.18
X2.21Y1.225
X2.215Y1.46
X2.225Y0.535
X2.23Y0.865
X2.245Y1.765
X2.245Y1.475
X2.245Y1.435
X2.245Y1.395
X2.245Y1.355
X2.27Y1.13
X2.27Y0.805
X2.275Y0.535
X2.285Y1.765
X2.285Y1.475
X2.305Y0.805
X2.305Y0.33
X2.305Y0.18
X2.32Y1.215
X2.325Y1.765
X2.325Y1.475
X2.325Y0.535
X2.355Y1.665
X2.365Y1.765
X2.365Y1.475
X2.369Y1.145
X2.37Y0.99
X2.375Y0.535
X2.405Y1.765
X2.405Y1.475
X2.405Y0.33
X2.405Y0.18
X2.42Y0.71
X2.425Y0.535
X2.445Y1.765
X2.445Y1.475
X2.45Y0.795
X2.455Y1.075
X2.475Y0.535
X2.485Y1.765
X2.485Y1.475
X2.5Y1.67
X2.505Y0.33
X2.505Y0.18
X2.525Y1.765
X2.525Y1.475
X2.525Y0.535
X2.56Y1.785
X2.565Y1.475
X2.575Y0.635
X2.575Y0.585
X2.575Y0.535
X2.585Y0.33
X2.605Y1.475
X2.605Y0.18
X2.625Y1.51
X2.625Y0.635
X2.67Y0.635
X2.705Y0.18
X2.735Y1.75
X2.735Y1.61
X2.74Y0.635
X2.745Y1.16
X2.745Y0.71
X2.775Y0.94
X2.785Y1.855
X2.79Y0.635
X2.825Y1.855
X2.825Y1.715
X2.825Y1.645
X2.83Y1.51
X2.84Y0.635
X2.855Y0.555
X2.855Y0.365
X2.86Y0.19
X2.87Y0.635
T2
X0.945Y1.955
X1.045Y1.955
X1.145Y1.955
X1.245Y1.955
X1.305Y0.055
X1.345Y1.955
X1.405Y0.055
X1.445Y1.955
X1.505Y0.055
X1.545Y1.955
X1.605Y0.055
X1.645Y1.955
X1.705Y0.055
X1.745Y1.955
X1.805Y0.055
X1.845Y1.955
X1.905Y0.055
X2.005Y1.955
X2.005Y0.055
X2.105Y1.955
X2.205Y1.955
X2.205Y0.055
X2.305Y1.955
X2.305Y0.055
X2.405Y1.955
X2.405Y0.055
X2.505Y1.955
X2.505Y0.055
X2.605Y1.955
X2.605Y0.055
X2.705Y1.955
X2.705Y0.055
T3
X0.08Y1.57
X0.08Y1.47
X0.08Y1.355
X0.08Y1.255
T4
X0.35Y1.855
X0.625Y0.135
X2.705Y1.355
X2.705Y0.455
T0
M30
