G04 (created by PCBNEW (2013-07-07 BZR 4022)-stable) date 11/19/2016 2:14:59 AM*
%MOIN*%
G04 Gerber Fmt 3.4, Leading zero omitted, Abs format*
%FSLAX34Y34*%
G01*
G70*
G90*
G04 APERTURE LIST*
%ADD10C,0.00590551*%
G04 APERTURE END LIST*
G54D10*
G36*
X58344Y-59512D02*
X58342Y-59598D01*
X58325Y-59676D01*
X58294Y-59744D01*
X58248Y-59809D01*
X58194Y-59860D01*
X58127Y-59903D01*
X58057Y-59930D01*
X57978Y-59944D01*
X57904Y-59943D01*
X57826Y-59925D01*
X57758Y-59896D01*
X57692Y-59850D01*
X57640Y-59797D01*
X57597Y-59729D01*
X57570Y-59660D01*
X57555Y-59581D01*
X57556Y-59507D01*
X57573Y-59428D01*
X57602Y-59360D01*
X57647Y-59294D01*
X57700Y-59242D01*
X57768Y-59198D01*
X57836Y-59170D01*
X57915Y-59155D01*
X57989Y-59156D01*
X58068Y-59172D01*
X58136Y-59200D01*
X58203Y-59246D01*
X58255Y-59298D01*
X58300Y-59365D01*
X58328Y-59433D01*
X58344Y-59512D01*
X58344Y-59512D01*
G37*
G36*
X59000Y-40926D02*
X58999Y-40980D01*
X58988Y-41030D01*
X58969Y-41072D01*
X58939Y-41115D01*
X58905Y-41147D01*
X58861Y-41175D01*
X58819Y-41191D01*
X58767Y-41200D01*
X58721Y-41199D01*
X58670Y-41188D01*
X58628Y-41170D01*
X58585Y-41140D01*
X58554Y-41107D01*
X58525Y-41063D01*
X58508Y-41020D01*
X58499Y-40969D01*
X58500Y-40923D01*
X58510Y-40872D01*
X58528Y-40830D01*
X58558Y-40787D01*
X58591Y-40755D01*
X58635Y-40726D01*
X58677Y-40709D01*
X58729Y-40699D01*
X58774Y-40699D01*
X58826Y-40710D01*
X58867Y-40727D01*
X58911Y-40757D01*
X58943Y-40789D01*
X58972Y-40833D01*
X58990Y-40875D01*
X59000Y-40926D01*
X59000Y-40926D01*
G37*
G36*
X59128Y-43814D02*
X59127Y-43896D01*
X59110Y-43971D01*
X59081Y-44036D01*
X59037Y-44099D01*
X58985Y-44148D01*
X58920Y-44190D01*
X58853Y-44216D01*
X58777Y-44229D01*
X58706Y-44228D01*
X58630Y-44211D01*
X58565Y-44182D01*
X58502Y-44138D01*
X58452Y-44087D01*
X58410Y-44022D01*
X58384Y-43956D01*
X58370Y-43880D01*
X58371Y-43809D01*
X58387Y-43733D01*
X58415Y-43668D01*
X58459Y-43604D01*
X58510Y-43554D01*
X58575Y-43511D01*
X58640Y-43485D01*
X58717Y-43470D01*
X58787Y-43471D01*
X58864Y-43486D01*
X58929Y-43514D01*
X58994Y-43557D01*
X59043Y-43607D01*
X59086Y-43673D01*
X59113Y-43738D01*
X59128Y-43814D01*
X59128Y-43814D01*
G37*
G36*
X59128Y-44814D02*
X59127Y-44896D01*
X59110Y-44971D01*
X59081Y-45036D01*
X59037Y-45099D01*
X58985Y-45148D01*
X58920Y-45190D01*
X58853Y-45216D01*
X58777Y-45229D01*
X58706Y-45228D01*
X58630Y-45211D01*
X58565Y-45182D01*
X58502Y-45138D01*
X58452Y-45087D01*
X58410Y-45022D01*
X58384Y-44956D01*
X58370Y-44880D01*
X58371Y-44809D01*
X58387Y-44733D01*
X58415Y-44668D01*
X58459Y-44604D01*
X58510Y-44554D01*
X58575Y-44511D01*
X58640Y-44485D01*
X58717Y-44470D01*
X58787Y-44471D01*
X58864Y-44486D01*
X58929Y-44514D01*
X58994Y-44557D01*
X59043Y-44607D01*
X59086Y-44673D01*
X59113Y-44738D01*
X59128Y-44814D01*
X59128Y-44814D01*
G37*
G36*
X59128Y-45964D02*
X59127Y-46046D01*
X59110Y-46121D01*
X59081Y-46186D01*
X59037Y-46249D01*
X58985Y-46298D01*
X58920Y-46340D01*
X58853Y-46366D01*
X58777Y-46379D01*
X58706Y-46378D01*
X58630Y-46361D01*
X58565Y-46332D01*
X58502Y-46288D01*
X58452Y-46237D01*
X58410Y-46172D01*
X58384Y-46106D01*
X58370Y-46030D01*
X58371Y-45959D01*
X58387Y-45883D01*
X58415Y-45818D01*
X58459Y-45754D01*
X58510Y-45704D01*
X58575Y-45661D01*
X58640Y-45635D01*
X58717Y-45620D01*
X58787Y-45621D01*
X58864Y-45636D01*
X58929Y-45664D01*
X58994Y-45707D01*
X59043Y-45757D01*
X59086Y-45823D01*
X59113Y-45888D01*
X59128Y-45964D01*
X59128Y-45964D01*
G37*
G36*
X59128Y-46964D02*
X59127Y-47046D01*
X59110Y-47121D01*
X59081Y-47186D01*
X59037Y-47249D01*
X58985Y-47298D01*
X58920Y-47340D01*
X58853Y-47366D01*
X58777Y-47379D01*
X58706Y-47378D01*
X58630Y-47361D01*
X58565Y-47332D01*
X58502Y-47288D01*
X58452Y-47237D01*
X58410Y-47172D01*
X58384Y-47106D01*
X58370Y-47030D01*
X58371Y-46959D01*
X58387Y-46883D01*
X58415Y-46818D01*
X58459Y-46754D01*
X58510Y-46704D01*
X58575Y-46661D01*
X58640Y-46635D01*
X58717Y-46620D01*
X58787Y-46621D01*
X58864Y-46636D01*
X58929Y-46664D01*
X58994Y-46707D01*
X59043Y-46757D01*
X59086Y-46823D01*
X59113Y-46888D01*
X59128Y-46964D01*
X59128Y-46964D01*
G37*
G36*
X60000Y-43826D02*
X59999Y-43880D01*
X59988Y-43930D01*
X59969Y-43972D01*
X59939Y-44015D01*
X59905Y-44047D01*
X59861Y-44075D01*
X59819Y-44091D01*
X59767Y-44100D01*
X59721Y-44099D01*
X59670Y-44088D01*
X59628Y-44070D01*
X59585Y-44040D01*
X59554Y-44007D01*
X59525Y-43963D01*
X59508Y-43920D01*
X59499Y-43869D01*
X59500Y-43823D01*
X59510Y-43772D01*
X59528Y-43730D01*
X59558Y-43687D01*
X59591Y-43655D01*
X59635Y-43626D01*
X59677Y-43609D01*
X59729Y-43599D01*
X59774Y-43599D01*
X59826Y-43610D01*
X59867Y-43627D01*
X59911Y-43657D01*
X59943Y-43689D01*
X59972Y-43733D01*
X59990Y-43775D01*
X60000Y-43826D01*
X60000Y-43826D01*
G37*
G36*
X60000Y-45976D02*
X59999Y-46030D01*
X59988Y-46080D01*
X59969Y-46122D01*
X59939Y-46165D01*
X59905Y-46197D01*
X59861Y-46225D01*
X59819Y-46241D01*
X59767Y-46250D01*
X59721Y-46249D01*
X59670Y-46238D01*
X59628Y-46220D01*
X59585Y-46190D01*
X59554Y-46157D01*
X59525Y-46113D01*
X59508Y-46070D01*
X59499Y-46019D01*
X59500Y-45973D01*
X59510Y-45922D01*
X59528Y-45880D01*
X59558Y-45837D01*
X59591Y-45805D01*
X59635Y-45776D01*
X59677Y-45759D01*
X59729Y-45749D01*
X59774Y-45749D01*
X59826Y-45760D01*
X59867Y-45777D01*
X59911Y-45807D01*
X59943Y-45839D01*
X59972Y-45883D01*
X59990Y-45925D01*
X60000Y-45976D01*
X60000Y-45976D01*
G37*
G36*
X60000Y-46976D02*
X59999Y-47030D01*
X59988Y-47080D01*
X59969Y-47122D01*
X59939Y-47165D01*
X59905Y-47197D01*
X59861Y-47225D01*
X59819Y-47241D01*
X59767Y-47250D01*
X59721Y-47249D01*
X59670Y-47238D01*
X59628Y-47220D01*
X59585Y-47190D01*
X59554Y-47157D01*
X59525Y-47113D01*
X59508Y-47070D01*
X59499Y-47019D01*
X59500Y-46973D01*
X59510Y-46922D01*
X59528Y-46880D01*
X59558Y-46837D01*
X59591Y-46805D01*
X59635Y-46776D01*
X59677Y-46759D01*
X59729Y-46749D01*
X59774Y-46749D01*
X59826Y-46760D01*
X59867Y-46777D01*
X59911Y-46807D01*
X59943Y-46839D01*
X59972Y-46883D01*
X59990Y-46925D01*
X60000Y-46976D01*
X60000Y-46976D01*
G37*
G36*
X62400Y-56376D02*
X62399Y-56430D01*
X62388Y-56480D01*
X62369Y-56522D01*
X62339Y-56565D01*
X62305Y-56597D01*
X62261Y-56625D01*
X62219Y-56641D01*
X62167Y-56650D01*
X62121Y-56649D01*
X62070Y-56638D01*
X62028Y-56620D01*
X61985Y-56590D01*
X61954Y-56557D01*
X61925Y-56513D01*
X61908Y-56470D01*
X61899Y-56419D01*
X61900Y-56373D01*
X61910Y-56322D01*
X61928Y-56280D01*
X61958Y-56237D01*
X61991Y-56205D01*
X62035Y-56176D01*
X62077Y-56159D01*
X62129Y-56149D01*
X62174Y-56149D01*
X62226Y-56160D01*
X62267Y-56177D01*
X62311Y-56207D01*
X62343Y-56239D01*
X62372Y-56283D01*
X62390Y-56325D01*
X62400Y-56376D01*
X62400Y-56376D01*
G37*
G36*
X62612Y-40887D02*
X62608Y-41144D01*
X62557Y-41369D01*
X62466Y-41575D01*
X62333Y-41764D01*
X62170Y-41919D01*
X61975Y-42043D01*
X61765Y-42124D01*
X61538Y-42164D01*
X61313Y-42159D01*
X61087Y-42110D01*
X60881Y-42020D01*
X60691Y-41888D01*
X60535Y-41726D01*
X60410Y-41532D01*
X60327Y-41323D01*
X60286Y-41096D01*
X60289Y-40871D01*
X60337Y-40645D01*
X60425Y-40438D01*
X60556Y-40247D01*
X60716Y-40090D01*
X60910Y-39964D01*
X61118Y-39880D01*
X61345Y-39836D01*
X61570Y-39838D01*
X61797Y-39884D01*
X62003Y-39971D01*
X62195Y-40101D01*
X62353Y-40260D01*
X62482Y-40453D01*
X62567Y-40660D01*
X62612Y-40887D01*
X62612Y-40887D01*
G37*
G36*
X63250Y-52976D02*
X63249Y-53030D01*
X63238Y-53080D01*
X63219Y-53122D01*
X63189Y-53165D01*
X63155Y-53197D01*
X63111Y-53225D01*
X63069Y-53241D01*
X63017Y-53250D01*
X62971Y-53249D01*
X62920Y-53238D01*
X62878Y-53220D01*
X62835Y-53190D01*
X62804Y-53157D01*
X62775Y-53113D01*
X62758Y-53070D01*
X62749Y-53019D01*
X62750Y-52973D01*
X62760Y-52922D01*
X62778Y-52880D01*
X62808Y-52837D01*
X62841Y-52805D01*
X62885Y-52776D01*
X62927Y-52759D01*
X62979Y-52749D01*
X63024Y-52749D01*
X63076Y-52760D01*
X63117Y-52777D01*
X63161Y-52807D01*
X63193Y-52839D01*
X63222Y-52883D01*
X63240Y-52925D01*
X63250Y-52976D01*
X63250Y-52976D01*
G37*
G36*
X65362Y-58087D02*
X65358Y-58344D01*
X65307Y-58569D01*
X65216Y-58775D01*
X65083Y-58964D01*
X64920Y-59119D01*
X64725Y-59243D01*
X64515Y-59324D01*
X64288Y-59364D01*
X64063Y-59359D01*
X63837Y-59310D01*
X63631Y-59220D01*
X63441Y-59088D01*
X63285Y-58926D01*
X63160Y-58732D01*
X63077Y-58523D01*
X63036Y-58296D01*
X63039Y-58071D01*
X63087Y-57845D01*
X63175Y-57638D01*
X63306Y-57447D01*
X63466Y-57290D01*
X63660Y-57164D01*
X63868Y-57080D01*
X64095Y-57036D01*
X64320Y-57038D01*
X64547Y-57084D01*
X64753Y-57171D01*
X64945Y-57301D01*
X65103Y-57460D01*
X65232Y-57653D01*
X65317Y-57860D01*
X65362Y-58087D01*
X65362Y-58087D01*
G37*
G36*
X66500Y-48076D02*
X66499Y-48130D01*
X66488Y-48180D01*
X66469Y-48222D01*
X66439Y-48265D01*
X66405Y-48297D01*
X66361Y-48325D01*
X66319Y-48341D01*
X66267Y-48350D01*
X66221Y-48349D01*
X66170Y-48338D01*
X66128Y-48320D01*
X66085Y-48290D01*
X66054Y-48257D01*
X66025Y-48213D01*
X66008Y-48170D01*
X65999Y-48119D01*
X66000Y-48073D01*
X66010Y-48022D01*
X66028Y-47980D01*
X66058Y-47937D01*
X66091Y-47905D01*
X66135Y-47876D01*
X66177Y-47859D01*
X66229Y-47849D01*
X66274Y-47849D01*
X66326Y-47860D01*
X66367Y-47877D01*
X66411Y-47907D01*
X66443Y-47939D01*
X66472Y-47983D01*
X66490Y-48025D01*
X66500Y-48076D01*
X66500Y-48076D01*
G37*
G36*
X67715Y-39970D02*
X67714Y-40038D01*
X67700Y-40101D01*
X67676Y-40155D01*
X67638Y-40208D01*
X67596Y-40248D01*
X67541Y-40283D01*
X67486Y-40304D01*
X67422Y-40315D01*
X67364Y-40314D01*
X67300Y-40300D01*
X67246Y-40277D01*
X67193Y-40240D01*
X67152Y-40197D01*
X67117Y-40143D01*
X67096Y-40088D01*
X67084Y-40024D01*
X67085Y-39966D01*
X67098Y-39902D01*
X67121Y-39848D01*
X67158Y-39795D01*
X67200Y-39754D01*
X67254Y-39718D01*
X67308Y-39696D01*
X67373Y-39684D01*
X67431Y-39684D01*
X67495Y-39698D01*
X67548Y-39720D01*
X67603Y-39757D01*
X67644Y-39798D01*
X67680Y-39853D01*
X67702Y-39906D01*
X67715Y-39970D01*
X67715Y-39970D01*
G37*
G36*
X68500Y-41426D02*
X68499Y-41480D01*
X68488Y-41530D01*
X68469Y-41572D01*
X68439Y-41615D01*
X68405Y-41647D01*
X68361Y-41675D01*
X68319Y-41691D01*
X68267Y-41700D01*
X68221Y-41699D01*
X68170Y-41688D01*
X68128Y-41670D01*
X68085Y-41640D01*
X68054Y-41607D01*
X68025Y-41563D01*
X68008Y-41520D01*
X67999Y-41469D01*
X68000Y-41423D01*
X68010Y-41372D01*
X68028Y-41330D01*
X68058Y-41287D01*
X68091Y-41255D01*
X68135Y-41226D01*
X68177Y-41209D01*
X68229Y-41199D01*
X68274Y-41199D01*
X68326Y-41210D01*
X68367Y-41227D01*
X68411Y-41257D01*
X68443Y-41289D01*
X68472Y-41333D01*
X68490Y-41375D01*
X68500Y-41426D01*
X68500Y-41426D01*
G37*
G36*
X68640Y-50090D02*
X66559Y-50090D01*
X66559Y-49509D01*
X68640Y-49509D01*
X68640Y-50090D01*
X68640Y-50090D01*
G37*
G36*
X68640Y-51090D02*
X66559Y-51090D01*
X66559Y-50509D01*
X68640Y-50509D01*
X68640Y-51090D01*
X68640Y-51090D01*
G37*
G36*
X68640Y-52090D02*
X66559Y-52090D01*
X66559Y-51509D01*
X68640Y-51509D01*
X68640Y-52090D01*
X68640Y-52090D01*
G37*
G36*
X68640Y-53090D02*
X66559Y-53090D01*
X66559Y-52509D01*
X68640Y-52509D01*
X68640Y-53090D01*
X68640Y-53090D01*
G37*
G36*
X68640Y-54090D02*
X66559Y-54090D01*
X66559Y-53509D01*
X68640Y-53509D01*
X68640Y-54090D01*
X68640Y-54090D01*
G37*
G36*
X68640Y-55090D02*
X66559Y-55090D01*
X66559Y-54509D01*
X68640Y-54509D01*
X68640Y-55090D01*
X68640Y-55090D01*
G37*
G36*
X68640Y-56090D02*
X66559Y-56090D01*
X66559Y-55509D01*
X68640Y-55509D01*
X68640Y-56090D01*
X68640Y-56090D01*
G37*
G36*
X68715Y-39970D02*
X68714Y-40038D01*
X68700Y-40101D01*
X68676Y-40155D01*
X68638Y-40208D01*
X68596Y-40248D01*
X68541Y-40283D01*
X68486Y-40304D01*
X68422Y-40315D01*
X68364Y-40314D01*
X68300Y-40300D01*
X68246Y-40277D01*
X68193Y-40240D01*
X68152Y-40197D01*
X68117Y-40143D01*
X68096Y-40088D01*
X68084Y-40024D01*
X68085Y-39966D01*
X68098Y-39902D01*
X68121Y-39848D01*
X68158Y-39795D01*
X68200Y-39754D01*
X68254Y-39718D01*
X68308Y-39696D01*
X68373Y-39684D01*
X68431Y-39684D01*
X68495Y-39698D01*
X68548Y-39720D01*
X68603Y-39757D01*
X68644Y-39798D01*
X68680Y-39853D01*
X68702Y-39906D01*
X68715Y-39970D01*
X68715Y-39970D01*
G37*
G36*
X69715Y-39970D02*
X69714Y-40038D01*
X69700Y-40101D01*
X69676Y-40155D01*
X69638Y-40208D01*
X69596Y-40248D01*
X69541Y-40283D01*
X69486Y-40304D01*
X69422Y-40315D01*
X69364Y-40314D01*
X69300Y-40300D01*
X69246Y-40277D01*
X69193Y-40240D01*
X69152Y-40197D01*
X69117Y-40143D01*
X69096Y-40088D01*
X69084Y-40024D01*
X69085Y-39966D01*
X69098Y-39902D01*
X69121Y-39848D01*
X69158Y-39795D01*
X69200Y-39754D01*
X69254Y-39718D01*
X69308Y-39696D01*
X69373Y-39684D01*
X69431Y-39684D01*
X69495Y-39698D01*
X69548Y-39720D01*
X69603Y-39757D01*
X69644Y-39798D01*
X69680Y-39853D01*
X69702Y-39906D01*
X69715Y-39970D01*
X69715Y-39970D01*
G37*
G36*
X70715Y-39970D02*
X70714Y-40038D01*
X70700Y-40101D01*
X70676Y-40155D01*
X70638Y-40208D01*
X70596Y-40248D01*
X70541Y-40283D01*
X70486Y-40304D01*
X70422Y-40315D01*
X70364Y-40314D01*
X70300Y-40300D01*
X70246Y-40277D01*
X70193Y-40240D01*
X70152Y-40197D01*
X70117Y-40143D01*
X70096Y-40088D01*
X70084Y-40024D01*
X70085Y-39966D01*
X70098Y-39902D01*
X70121Y-39848D01*
X70158Y-39795D01*
X70200Y-39754D01*
X70254Y-39718D01*
X70308Y-39696D01*
X70373Y-39684D01*
X70431Y-39684D01*
X70495Y-39698D01*
X70548Y-39720D01*
X70603Y-39757D01*
X70644Y-39798D01*
X70680Y-39853D01*
X70702Y-39906D01*
X70715Y-39970D01*
X70715Y-39970D01*
G37*
G36*
X71315Y-59315D02*
X70684Y-59315D01*
X70684Y-58684D01*
X71315Y-58684D01*
X71315Y-59315D01*
X71315Y-59315D01*
G37*
G36*
X71340Y-50090D02*
X69259Y-50090D01*
X69259Y-49509D01*
X71340Y-49509D01*
X71340Y-50090D01*
X71340Y-50090D01*
G37*
G36*
X71340Y-51090D02*
X69259Y-51090D01*
X69259Y-50509D01*
X71340Y-50509D01*
X71340Y-51090D01*
X71340Y-51090D01*
G37*
G36*
X71340Y-52090D02*
X69259Y-52090D01*
X69259Y-51509D01*
X71340Y-51509D01*
X71340Y-52090D01*
X71340Y-52090D01*
G37*
G36*
X71340Y-53090D02*
X69259Y-53090D01*
X69259Y-52509D01*
X71340Y-52509D01*
X71340Y-53090D01*
X71340Y-53090D01*
G37*
G36*
X71340Y-54090D02*
X69259Y-54090D01*
X69259Y-53509D01*
X71340Y-53509D01*
X71340Y-54090D01*
X71340Y-54090D01*
G37*
G36*
X71340Y-55090D02*
X69259Y-55090D01*
X69259Y-54509D01*
X71340Y-54509D01*
X71340Y-55090D01*
X71340Y-55090D01*
G37*
G36*
X71340Y-56090D02*
X69259Y-56090D01*
X69259Y-55509D01*
X71340Y-55509D01*
X71340Y-56090D01*
X71340Y-56090D01*
G37*
G36*
X71715Y-39970D02*
X71714Y-40038D01*
X71700Y-40101D01*
X71676Y-40155D01*
X71638Y-40208D01*
X71596Y-40248D01*
X71541Y-40283D01*
X71486Y-40304D01*
X71422Y-40315D01*
X71364Y-40314D01*
X71300Y-40300D01*
X71246Y-40277D01*
X71193Y-40240D01*
X71152Y-40197D01*
X71117Y-40143D01*
X71096Y-40088D01*
X71084Y-40024D01*
X71085Y-39966D01*
X71098Y-39902D01*
X71121Y-39848D01*
X71158Y-39795D01*
X71200Y-39754D01*
X71254Y-39718D01*
X71308Y-39696D01*
X71373Y-39684D01*
X71431Y-39684D01*
X71495Y-39698D01*
X71548Y-39720D01*
X71603Y-39757D01*
X71644Y-39798D01*
X71680Y-39853D01*
X71702Y-39906D01*
X71715Y-39970D01*
X71715Y-39970D01*
G37*
G36*
X72315Y-58970D02*
X72314Y-59038D01*
X72300Y-59101D01*
X72276Y-59155D01*
X72238Y-59208D01*
X72196Y-59248D01*
X72141Y-59283D01*
X72086Y-59304D01*
X72022Y-59315D01*
X71964Y-59314D01*
X71900Y-59300D01*
X71846Y-59277D01*
X71793Y-59240D01*
X71752Y-59197D01*
X71717Y-59143D01*
X71696Y-59088D01*
X71684Y-59024D01*
X71685Y-58966D01*
X71698Y-58902D01*
X71721Y-58848D01*
X71758Y-58795D01*
X71800Y-58754D01*
X71854Y-58718D01*
X71908Y-58696D01*
X71973Y-58684D01*
X72031Y-58684D01*
X72095Y-58698D01*
X72148Y-58720D01*
X72203Y-58757D01*
X72244Y-58798D01*
X72280Y-58853D01*
X72302Y-58906D01*
X72315Y-58970D01*
X72315Y-58970D01*
G37*
G36*
X72715Y-39970D02*
X72714Y-40038D01*
X72700Y-40101D01*
X72676Y-40155D01*
X72638Y-40208D01*
X72596Y-40248D01*
X72541Y-40283D01*
X72486Y-40304D01*
X72422Y-40315D01*
X72364Y-40314D01*
X72300Y-40300D01*
X72246Y-40277D01*
X72193Y-40240D01*
X72152Y-40197D01*
X72117Y-40143D01*
X72096Y-40088D01*
X72084Y-40024D01*
X72085Y-39966D01*
X72098Y-39902D01*
X72121Y-39848D01*
X72158Y-39795D01*
X72200Y-39754D01*
X72254Y-39718D01*
X72308Y-39696D01*
X72373Y-39684D01*
X72431Y-39684D01*
X72495Y-39698D01*
X72548Y-39720D01*
X72603Y-39757D01*
X72644Y-39798D01*
X72680Y-39853D01*
X72702Y-39906D01*
X72715Y-39970D01*
X72715Y-39970D01*
G37*
G36*
X73315Y-58970D02*
X73314Y-59038D01*
X73300Y-59101D01*
X73276Y-59155D01*
X73238Y-59208D01*
X73196Y-59248D01*
X73141Y-59283D01*
X73086Y-59304D01*
X73022Y-59315D01*
X72964Y-59314D01*
X72900Y-59300D01*
X72846Y-59277D01*
X72793Y-59240D01*
X72752Y-59197D01*
X72717Y-59143D01*
X72696Y-59088D01*
X72684Y-59024D01*
X72685Y-58966D01*
X72698Y-58902D01*
X72721Y-58848D01*
X72758Y-58795D01*
X72800Y-58754D01*
X72854Y-58718D01*
X72908Y-58696D01*
X72973Y-58684D01*
X73031Y-58684D01*
X73095Y-58698D01*
X73148Y-58720D01*
X73203Y-58757D01*
X73244Y-58798D01*
X73280Y-58853D01*
X73302Y-58906D01*
X73315Y-58970D01*
X73315Y-58970D01*
G37*
G36*
X73715Y-39970D02*
X73714Y-40038D01*
X73700Y-40101D01*
X73676Y-40155D01*
X73638Y-40208D01*
X73596Y-40248D01*
X73541Y-40283D01*
X73486Y-40304D01*
X73422Y-40315D01*
X73364Y-40314D01*
X73300Y-40300D01*
X73246Y-40277D01*
X73193Y-40240D01*
X73152Y-40197D01*
X73117Y-40143D01*
X73096Y-40088D01*
X73084Y-40024D01*
X73085Y-39966D01*
X73098Y-39902D01*
X73121Y-39848D01*
X73158Y-39795D01*
X73200Y-39754D01*
X73254Y-39718D01*
X73308Y-39696D01*
X73373Y-39684D01*
X73431Y-39684D01*
X73495Y-39698D01*
X73548Y-39720D01*
X73603Y-39757D01*
X73644Y-39798D01*
X73680Y-39853D01*
X73702Y-39906D01*
X73715Y-39970D01*
X73715Y-39970D01*
G37*
G36*
X74315Y-58970D02*
X74314Y-59038D01*
X74300Y-59101D01*
X74276Y-59155D01*
X74238Y-59208D01*
X74196Y-59248D01*
X74141Y-59283D01*
X74086Y-59304D01*
X74022Y-59315D01*
X73964Y-59314D01*
X73900Y-59300D01*
X73846Y-59277D01*
X73793Y-59240D01*
X73752Y-59197D01*
X73717Y-59143D01*
X73696Y-59088D01*
X73684Y-59024D01*
X73685Y-58966D01*
X73698Y-58902D01*
X73721Y-58848D01*
X73758Y-58795D01*
X73800Y-58754D01*
X73854Y-58718D01*
X73908Y-58696D01*
X73973Y-58684D01*
X74031Y-58684D01*
X74095Y-58698D01*
X74148Y-58720D01*
X74203Y-58757D01*
X74244Y-58798D01*
X74280Y-58853D01*
X74302Y-58906D01*
X74315Y-58970D01*
X74315Y-58970D01*
G37*
G36*
X74715Y-39970D02*
X74714Y-40038D01*
X74700Y-40101D01*
X74676Y-40155D01*
X74638Y-40208D01*
X74596Y-40248D01*
X74541Y-40283D01*
X74486Y-40304D01*
X74422Y-40315D01*
X74364Y-40314D01*
X74300Y-40300D01*
X74246Y-40277D01*
X74193Y-40240D01*
X74152Y-40197D01*
X74117Y-40143D01*
X74096Y-40088D01*
X74084Y-40024D01*
X74085Y-39966D01*
X74098Y-39902D01*
X74121Y-39848D01*
X74158Y-39795D01*
X74200Y-39754D01*
X74254Y-39718D01*
X74308Y-39696D01*
X74373Y-39684D01*
X74431Y-39684D01*
X74495Y-39698D01*
X74548Y-39720D01*
X74603Y-39757D01*
X74644Y-39798D01*
X74680Y-39853D01*
X74702Y-39906D01*
X74715Y-39970D01*
X74715Y-39970D01*
G37*
G36*
X75315Y-58970D02*
X75314Y-59038D01*
X75300Y-59101D01*
X75276Y-59155D01*
X75238Y-59208D01*
X75196Y-59248D01*
X75141Y-59283D01*
X75086Y-59304D01*
X75022Y-59315D01*
X74964Y-59314D01*
X74900Y-59300D01*
X74846Y-59277D01*
X74793Y-59240D01*
X74752Y-59197D01*
X74717Y-59143D01*
X74696Y-59088D01*
X74684Y-59024D01*
X74685Y-58966D01*
X74698Y-58902D01*
X74721Y-58848D01*
X74758Y-58795D01*
X74800Y-58754D01*
X74854Y-58718D01*
X74908Y-58696D01*
X74973Y-58684D01*
X75031Y-58684D01*
X75095Y-58698D01*
X75148Y-58720D01*
X75203Y-58757D01*
X75244Y-58798D01*
X75280Y-58853D01*
X75302Y-58906D01*
X75315Y-58970D01*
X75315Y-58970D01*
G37*
G36*
X75715Y-39970D02*
X75714Y-40038D01*
X75700Y-40101D01*
X75676Y-40155D01*
X75638Y-40208D01*
X75596Y-40248D01*
X75541Y-40283D01*
X75486Y-40304D01*
X75422Y-40315D01*
X75364Y-40314D01*
X75300Y-40300D01*
X75246Y-40277D01*
X75193Y-40240D01*
X75152Y-40197D01*
X75117Y-40143D01*
X75096Y-40088D01*
X75084Y-40024D01*
X75085Y-39966D01*
X75098Y-39902D01*
X75121Y-39848D01*
X75158Y-39795D01*
X75200Y-39754D01*
X75254Y-39718D01*
X75308Y-39696D01*
X75373Y-39684D01*
X75431Y-39684D01*
X75495Y-39698D01*
X75548Y-39720D01*
X75603Y-39757D01*
X75644Y-39798D01*
X75680Y-39853D01*
X75702Y-39906D01*
X75715Y-39970D01*
X75715Y-39970D01*
G37*
G36*
X76315Y-58970D02*
X76314Y-59038D01*
X76300Y-59101D01*
X76276Y-59155D01*
X76238Y-59208D01*
X76196Y-59248D01*
X76141Y-59283D01*
X76086Y-59304D01*
X76022Y-59315D01*
X75964Y-59314D01*
X75900Y-59300D01*
X75846Y-59277D01*
X75793Y-59240D01*
X75752Y-59197D01*
X75717Y-59143D01*
X75696Y-59088D01*
X75684Y-59024D01*
X75685Y-58966D01*
X75698Y-58902D01*
X75721Y-58848D01*
X75758Y-58795D01*
X75800Y-58754D01*
X75854Y-58718D01*
X75908Y-58696D01*
X75973Y-58684D01*
X76031Y-58684D01*
X76095Y-58698D01*
X76148Y-58720D01*
X76203Y-58757D01*
X76244Y-58798D01*
X76280Y-58853D01*
X76302Y-58906D01*
X76315Y-58970D01*
X76315Y-58970D01*
G37*
G36*
X76650Y-40976D02*
X76649Y-41030D01*
X76638Y-41080D01*
X76619Y-41122D01*
X76589Y-41165D01*
X76555Y-41197D01*
X76511Y-41225D01*
X76469Y-41241D01*
X76417Y-41250D01*
X76371Y-41249D01*
X76320Y-41238D01*
X76278Y-41220D01*
X76235Y-41190D01*
X76204Y-41157D01*
X76175Y-41113D01*
X76158Y-41070D01*
X76149Y-41019D01*
X76150Y-40973D01*
X76160Y-40922D01*
X76178Y-40880D01*
X76208Y-40837D01*
X76241Y-40805D01*
X76285Y-40776D01*
X76327Y-40759D01*
X76379Y-40749D01*
X76424Y-40749D01*
X76476Y-40760D01*
X76517Y-40777D01*
X76561Y-40807D01*
X76593Y-40839D01*
X76622Y-40883D01*
X76640Y-40925D01*
X76650Y-40976D01*
X76650Y-40976D01*
G37*
G36*
X76715Y-40315D02*
X76084Y-40315D01*
X76084Y-39684D01*
X76715Y-39684D01*
X76715Y-40315D01*
X76715Y-40315D01*
G37*
G36*
X77315Y-58970D02*
X77314Y-59038D01*
X77300Y-59101D01*
X77276Y-59155D01*
X77238Y-59208D01*
X77196Y-59248D01*
X77141Y-59283D01*
X77086Y-59304D01*
X77022Y-59315D01*
X76964Y-59314D01*
X76900Y-59300D01*
X76846Y-59277D01*
X76793Y-59240D01*
X76752Y-59197D01*
X76717Y-59143D01*
X76696Y-59088D01*
X76684Y-59024D01*
X76685Y-58966D01*
X76698Y-58902D01*
X76721Y-58848D01*
X76758Y-58795D01*
X76800Y-58754D01*
X76854Y-58718D01*
X76908Y-58696D01*
X76973Y-58684D01*
X77031Y-58684D01*
X77095Y-58698D01*
X77148Y-58720D01*
X77203Y-58757D01*
X77244Y-58798D01*
X77280Y-58853D01*
X77302Y-58906D01*
X77315Y-58970D01*
X77315Y-58970D01*
G37*
G36*
X78250Y-40976D02*
X78249Y-41030D01*
X78238Y-41080D01*
X78219Y-41122D01*
X78189Y-41165D01*
X78155Y-41197D01*
X78111Y-41225D01*
X78069Y-41241D01*
X78017Y-41250D01*
X77971Y-41249D01*
X77920Y-41238D01*
X77878Y-41220D01*
X77835Y-41190D01*
X77804Y-41157D01*
X77775Y-41113D01*
X77758Y-41070D01*
X77749Y-41019D01*
X77750Y-40973D01*
X77760Y-40922D01*
X77778Y-40880D01*
X77808Y-40837D01*
X77841Y-40805D01*
X77885Y-40776D01*
X77927Y-40759D01*
X77979Y-40749D01*
X78024Y-40749D01*
X78076Y-40760D01*
X78117Y-40777D01*
X78161Y-40807D01*
X78193Y-40839D01*
X78222Y-40883D01*
X78240Y-40925D01*
X78250Y-40976D01*
X78250Y-40976D01*
G37*
G36*
X78315Y-39970D02*
X78314Y-40038D01*
X78300Y-40101D01*
X78276Y-40155D01*
X78238Y-40208D01*
X78196Y-40248D01*
X78141Y-40283D01*
X78086Y-40304D01*
X78022Y-40315D01*
X77964Y-40314D01*
X77900Y-40300D01*
X77846Y-40277D01*
X77793Y-40240D01*
X77752Y-40197D01*
X77717Y-40143D01*
X77696Y-40088D01*
X77684Y-40024D01*
X77685Y-39966D01*
X77698Y-39902D01*
X77721Y-39848D01*
X77758Y-39795D01*
X77800Y-39754D01*
X77854Y-39718D01*
X77908Y-39696D01*
X77973Y-39684D01*
X78031Y-39684D01*
X78095Y-39698D01*
X78148Y-39720D01*
X78203Y-39757D01*
X78244Y-39798D01*
X78280Y-39853D01*
X78302Y-39906D01*
X78315Y-39970D01*
X78315Y-39970D01*
G37*
G36*
X78315Y-58970D02*
X78314Y-59038D01*
X78300Y-59101D01*
X78276Y-59155D01*
X78238Y-59208D01*
X78196Y-59248D01*
X78141Y-59283D01*
X78086Y-59304D01*
X78022Y-59315D01*
X77964Y-59314D01*
X77900Y-59300D01*
X77846Y-59277D01*
X77793Y-59240D01*
X77752Y-59197D01*
X77717Y-59143D01*
X77696Y-59088D01*
X77684Y-59024D01*
X77685Y-58966D01*
X77698Y-58902D01*
X77721Y-58848D01*
X77758Y-58795D01*
X77800Y-58754D01*
X77854Y-58718D01*
X77908Y-58696D01*
X77973Y-58684D01*
X78031Y-58684D01*
X78095Y-58698D01*
X78148Y-58720D01*
X78203Y-58757D01*
X78244Y-58798D01*
X78280Y-58853D01*
X78302Y-58906D01*
X78315Y-58970D01*
X78315Y-58970D01*
G37*
G36*
X79250Y-40976D02*
X79249Y-41030D01*
X79238Y-41080D01*
X79219Y-41122D01*
X79189Y-41165D01*
X79155Y-41197D01*
X79111Y-41225D01*
X79069Y-41241D01*
X79017Y-41250D01*
X78971Y-41249D01*
X78920Y-41238D01*
X78878Y-41220D01*
X78835Y-41190D01*
X78804Y-41157D01*
X78775Y-41113D01*
X78758Y-41070D01*
X78749Y-41019D01*
X78750Y-40973D01*
X78760Y-40922D01*
X78778Y-40880D01*
X78808Y-40837D01*
X78841Y-40805D01*
X78885Y-40776D01*
X78927Y-40759D01*
X78979Y-40749D01*
X79024Y-40749D01*
X79076Y-40760D01*
X79117Y-40777D01*
X79161Y-40807D01*
X79193Y-40839D01*
X79222Y-40883D01*
X79240Y-40925D01*
X79250Y-40976D01*
X79250Y-40976D01*
G37*
G36*
X79315Y-39970D02*
X79314Y-40038D01*
X79300Y-40101D01*
X79276Y-40155D01*
X79238Y-40208D01*
X79196Y-40248D01*
X79141Y-40283D01*
X79086Y-40304D01*
X79022Y-40315D01*
X78964Y-40314D01*
X78900Y-40300D01*
X78846Y-40277D01*
X78793Y-40240D01*
X78752Y-40197D01*
X78717Y-40143D01*
X78696Y-40088D01*
X78684Y-40024D01*
X78685Y-39966D01*
X78698Y-39902D01*
X78721Y-39848D01*
X78758Y-39795D01*
X78800Y-39754D01*
X78854Y-39718D01*
X78908Y-39696D01*
X78973Y-39684D01*
X79031Y-39684D01*
X79095Y-39698D01*
X79148Y-39720D01*
X79203Y-39757D01*
X79244Y-39798D01*
X79280Y-39853D01*
X79302Y-39906D01*
X79315Y-39970D01*
X79315Y-39970D01*
G37*
G36*
X80250Y-40976D02*
X80249Y-41030D01*
X80238Y-41080D01*
X80219Y-41122D01*
X80189Y-41165D01*
X80155Y-41197D01*
X80111Y-41225D01*
X80069Y-41241D01*
X80017Y-41250D01*
X79971Y-41249D01*
X79920Y-41238D01*
X79878Y-41220D01*
X79835Y-41190D01*
X79804Y-41157D01*
X79775Y-41113D01*
X79758Y-41070D01*
X79749Y-41019D01*
X79750Y-40973D01*
X79760Y-40922D01*
X79778Y-40880D01*
X79808Y-40837D01*
X79841Y-40805D01*
X79885Y-40776D01*
X79927Y-40759D01*
X79979Y-40749D01*
X80024Y-40749D01*
X80076Y-40760D01*
X80117Y-40777D01*
X80161Y-40807D01*
X80193Y-40839D01*
X80222Y-40883D01*
X80240Y-40925D01*
X80250Y-40976D01*
X80250Y-40976D01*
G37*
G36*
X80250Y-58176D02*
X80249Y-58230D01*
X80238Y-58280D01*
X80219Y-58322D01*
X80189Y-58365D01*
X80155Y-58397D01*
X80111Y-58425D01*
X80069Y-58441D01*
X80017Y-58450D01*
X79971Y-58449D01*
X79920Y-58438D01*
X79878Y-58420D01*
X79835Y-58390D01*
X79804Y-58357D01*
X79775Y-58313D01*
X79758Y-58270D01*
X79749Y-58219D01*
X79750Y-58173D01*
X79760Y-58122D01*
X79778Y-58080D01*
X79808Y-58037D01*
X79841Y-58005D01*
X79885Y-57976D01*
X79927Y-57959D01*
X79979Y-57949D01*
X80024Y-57949D01*
X80076Y-57960D01*
X80117Y-57977D01*
X80161Y-58007D01*
X80193Y-58039D01*
X80222Y-58083D01*
X80240Y-58125D01*
X80250Y-58176D01*
X80250Y-58176D01*
G37*
G36*
X80315Y-39970D02*
X80314Y-40038D01*
X80300Y-40101D01*
X80276Y-40155D01*
X80238Y-40208D01*
X80196Y-40248D01*
X80141Y-40283D01*
X80086Y-40304D01*
X80022Y-40315D01*
X79964Y-40314D01*
X79900Y-40300D01*
X79846Y-40277D01*
X79793Y-40240D01*
X79752Y-40197D01*
X79717Y-40143D01*
X79696Y-40088D01*
X79684Y-40024D01*
X79685Y-39966D01*
X79698Y-39902D01*
X79721Y-39848D01*
X79758Y-39795D01*
X79800Y-39754D01*
X79854Y-39718D01*
X79908Y-39696D01*
X79973Y-39684D01*
X80031Y-39684D01*
X80095Y-39698D01*
X80148Y-39720D01*
X80203Y-39757D01*
X80244Y-39798D01*
X80280Y-39853D01*
X80302Y-39906D01*
X80315Y-39970D01*
X80315Y-39970D01*
G37*
G36*
X80315Y-59315D02*
X79684Y-59315D01*
X79684Y-58684D01*
X80315Y-58684D01*
X80315Y-59315D01*
X80315Y-59315D01*
G37*
G36*
X81250Y-40976D02*
X81249Y-41030D01*
X81238Y-41080D01*
X81219Y-41122D01*
X81189Y-41165D01*
X81155Y-41197D01*
X81111Y-41225D01*
X81069Y-41241D01*
X81017Y-41250D01*
X80971Y-41249D01*
X80920Y-41238D01*
X80878Y-41220D01*
X80835Y-41190D01*
X80804Y-41157D01*
X80775Y-41113D01*
X80758Y-41070D01*
X80749Y-41019D01*
X80750Y-40973D01*
X80760Y-40922D01*
X80778Y-40880D01*
X80808Y-40837D01*
X80841Y-40805D01*
X80885Y-40776D01*
X80927Y-40759D01*
X80979Y-40749D01*
X81024Y-40749D01*
X81076Y-40760D01*
X81117Y-40777D01*
X81161Y-40807D01*
X81193Y-40839D01*
X81222Y-40883D01*
X81240Y-40925D01*
X81250Y-40976D01*
X81250Y-40976D01*
G37*
G36*
X81250Y-58176D02*
X81249Y-58230D01*
X81238Y-58280D01*
X81219Y-58322D01*
X81189Y-58365D01*
X81155Y-58397D01*
X81111Y-58425D01*
X81069Y-58441D01*
X81017Y-58450D01*
X80971Y-58449D01*
X80920Y-58438D01*
X80878Y-58420D01*
X80835Y-58390D01*
X80804Y-58357D01*
X80775Y-58313D01*
X80758Y-58270D01*
X80749Y-58219D01*
X80750Y-58173D01*
X80760Y-58122D01*
X80778Y-58080D01*
X80808Y-58037D01*
X80841Y-58005D01*
X80885Y-57976D01*
X80927Y-57959D01*
X80979Y-57949D01*
X81024Y-57949D01*
X81076Y-57960D01*
X81117Y-57977D01*
X81161Y-58007D01*
X81193Y-58039D01*
X81222Y-58083D01*
X81240Y-58125D01*
X81250Y-58176D01*
X81250Y-58176D01*
G37*
G36*
X81315Y-39970D02*
X81314Y-40038D01*
X81300Y-40101D01*
X81276Y-40155D01*
X81238Y-40208D01*
X81196Y-40248D01*
X81141Y-40283D01*
X81086Y-40304D01*
X81022Y-40315D01*
X80964Y-40314D01*
X80900Y-40300D01*
X80846Y-40277D01*
X80793Y-40240D01*
X80752Y-40197D01*
X80717Y-40143D01*
X80696Y-40088D01*
X80684Y-40024D01*
X80685Y-39966D01*
X80698Y-39902D01*
X80721Y-39848D01*
X80758Y-39795D01*
X80800Y-39754D01*
X80854Y-39718D01*
X80908Y-39696D01*
X80973Y-39684D01*
X81031Y-39684D01*
X81095Y-39698D01*
X81148Y-39720D01*
X81203Y-39757D01*
X81244Y-39798D01*
X81280Y-39853D01*
X81302Y-39906D01*
X81315Y-39970D01*
X81315Y-39970D01*
G37*
G36*
X81315Y-58970D02*
X81314Y-59038D01*
X81300Y-59101D01*
X81276Y-59155D01*
X81238Y-59208D01*
X81196Y-59248D01*
X81141Y-59283D01*
X81086Y-59304D01*
X81022Y-59315D01*
X80964Y-59314D01*
X80900Y-59300D01*
X80846Y-59277D01*
X80793Y-59240D01*
X80752Y-59197D01*
X80717Y-59143D01*
X80696Y-59088D01*
X80684Y-59024D01*
X80685Y-58966D01*
X80698Y-58902D01*
X80721Y-58848D01*
X80758Y-58795D01*
X80800Y-58754D01*
X80854Y-58718D01*
X80908Y-58696D01*
X80973Y-58684D01*
X81031Y-58684D01*
X81095Y-58698D01*
X81148Y-58720D01*
X81203Y-58757D01*
X81244Y-58798D01*
X81280Y-58853D01*
X81302Y-58906D01*
X81315Y-58970D01*
X81315Y-58970D01*
G37*
G36*
X82250Y-40976D02*
X82249Y-41030D01*
X82238Y-41080D01*
X82219Y-41122D01*
X82189Y-41165D01*
X82155Y-41197D01*
X82111Y-41225D01*
X82069Y-41241D01*
X82017Y-41250D01*
X81971Y-41249D01*
X81920Y-41238D01*
X81878Y-41220D01*
X81835Y-41190D01*
X81804Y-41157D01*
X81775Y-41113D01*
X81758Y-41070D01*
X81749Y-41019D01*
X81750Y-40973D01*
X81760Y-40922D01*
X81778Y-40880D01*
X81808Y-40837D01*
X81841Y-40805D01*
X81885Y-40776D01*
X81927Y-40759D01*
X81979Y-40749D01*
X82024Y-40749D01*
X82076Y-40760D01*
X82117Y-40777D01*
X82161Y-40807D01*
X82193Y-40839D01*
X82222Y-40883D01*
X82240Y-40925D01*
X82250Y-40976D01*
X82250Y-40976D01*
G37*
G36*
X82250Y-58176D02*
X82249Y-58230D01*
X82238Y-58280D01*
X82219Y-58322D01*
X82189Y-58365D01*
X82155Y-58397D01*
X82111Y-58425D01*
X82069Y-58441D01*
X82017Y-58450D01*
X81971Y-58449D01*
X81920Y-58438D01*
X81878Y-58420D01*
X81835Y-58390D01*
X81804Y-58357D01*
X81775Y-58313D01*
X81758Y-58270D01*
X81749Y-58219D01*
X81750Y-58173D01*
X81760Y-58122D01*
X81778Y-58080D01*
X81808Y-58037D01*
X81841Y-58005D01*
X81885Y-57976D01*
X81927Y-57959D01*
X81979Y-57949D01*
X82024Y-57949D01*
X82076Y-57960D01*
X82117Y-57977D01*
X82161Y-58007D01*
X82193Y-58039D01*
X82222Y-58083D01*
X82240Y-58125D01*
X82250Y-58176D01*
X82250Y-58176D01*
G37*
G36*
X82315Y-39970D02*
X82314Y-40038D01*
X82300Y-40101D01*
X82276Y-40155D01*
X82238Y-40208D01*
X82196Y-40248D01*
X82141Y-40283D01*
X82086Y-40304D01*
X82022Y-40315D01*
X81964Y-40314D01*
X81900Y-40300D01*
X81846Y-40277D01*
X81793Y-40240D01*
X81752Y-40197D01*
X81717Y-40143D01*
X81696Y-40088D01*
X81684Y-40024D01*
X81685Y-39966D01*
X81698Y-39902D01*
X81721Y-39848D01*
X81758Y-39795D01*
X81800Y-39754D01*
X81854Y-39718D01*
X81908Y-39696D01*
X81973Y-39684D01*
X82031Y-39684D01*
X82095Y-39698D01*
X82148Y-39720D01*
X82203Y-39757D01*
X82244Y-39798D01*
X82280Y-39853D01*
X82302Y-39906D01*
X82315Y-39970D01*
X82315Y-39970D01*
G37*
G36*
X82315Y-58970D02*
X82314Y-59038D01*
X82300Y-59101D01*
X82276Y-59155D01*
X82238Y-59208D01*
X82196Y-59248D01*
X82141Y-59283D01*
X82086Y-59304D01*
X82022Y-59315D01*
X81964Y-59314D01*
X81900Y-59300D01*
X81846Y-59277D01*
X81793Y-59240D01*
X81752Y-59197D01*
X81717Y-59143D01*
X81696Y-59088D01*
X81684Y-59024D01*
X81685Y-58966D01*
X81698Y-58902D01*
X81721Y-58848D01*
X81758Y-58795D01*
X81800Y-58754D01*
X81854Y-58718D01*
X81908Y-58696D01*
X81973Y-58684D01*
X82031Y-58684D01*
X82095Y-58698D01*
X82148Y-58720D01*
X82203Y-58757D01*
X82244Y-58798D01*
X82280Y-58853D01*
X82302Y-58906D01*
X82315Y-58970D01*
X82315Y-58970D01*
G37*
G36*
X83250Y-40976D02*
X83249Y-41030D01*
X83238Y-41080D01*
X83219Y-41122D01*
X83189Y-41165D01*
X83155Y-41197D01*
X83111Y-41225D01*
X83069Y-41241D01*
X83017Y-41250D01*
X82971Y-41249D01*
X82920Y-41238D01*
X82878Y-41220D01*
X82835Y-41190D01*
X82804Y-41157D01*
X82775Y-41113D01*
X82758Y-41070D01*
X82749Y-41019D01*
X82750Y-40973D01*
X82760Y-40922D01*
X82778Y-40880D01*
X82808Y-40837D01*
X82841Y-40805D01*
X82885Y-40776D01*
X82927Y-40759D01*
X82979Y-40749D01*
X83024Y-40749D01*
X83076Y-40760D01*
X83117Y-40777D01*
X83161Y-40807D01*
X83193Y-40839D01*
X83222Y-40883D01*
X83240Y-40925D01*
X83250Y-40976D01*
X83250Y-40976D01*
G37*
G36*
X83250Y-58176D02*
X83249Y-58230D01*
X83238Y-58280D01*
X83219Y-58322D01*
X83189Y-58365D01*
X83155Y-58397D01*
X83111Y-58425D01*
X83069Y-58441D01*
X83017Y-58450D01*
X82971Y-58449D01*
X82920Y-58438D01*
X82878Y-58420D01*
X82835Y-58390D01*
X82804Y-58357D01*
X82775Y-58313D01*
X82758Y-58270D01*
X82749Y-58219D01*
X82750Y-58173D01*
X82760Y-58122D01*
X82778Y-58080D01*
X82808Y-58037D01*
X82841Y-58005D01*
X82885Y-57976D01*
X82927Y-57959D01*
X82979Y-57949D01*
X83024Y-57949D01*
X83076Y-57960D01*
X83117Y-57977D01*
X83161Y-58007D01*
X83193Y-58039D01*
X83222Y-58083D01*
X83240Y-58125D01*
X83250Y-58176D01*
X83250Y-58176D01*
G37*
G36*
X83315Y-39970D02*
X83314Y-40038D01*
X83300Y-40101D01*
X83276Y-40155D01*
X83238Y-40208D01*
X83196Y-40248D01*
X83141Y-40283D01*
X83086Y-40304D01*
X83022Y-40315D01*
X82964Y-40314D01*
X82900Y-40300D01*
X82846Y-40277D01*
X82793Y-40240D01*
X82752Y-40197D01*
X82717Y-40143D01*
X82696Y-40088D01*
X82684Y-40024D01*
X82685Y-39966D01*
X82698Y-39902D01*
X82721Y-39848D01*
X82758Y-39795D01*
X82800Y-39754D01*
X82854Y-39718D01*
X82908Y-39696D01*
X82973Y-39684D01*
X83031Y-39684D01*
X83095Y-39698D01*
X83148Y-39720D01*
X83203Y-39757D01*
X83244Y-39798D01*
X83280Y-39853D01*
X83302Y-39906D01*
X83315Y-39970D01*
X83315Y-39970D01*
G37*
G36*
X83315Y-58970D02*
X83314Y-59038D01*
X83300Y-59101D01*
X83276Y-59155D01*
X83238Y-59208D01*
X83196Y-59248D01*
X83141Y-59283D01*
X83086Y-59304D01*
X83022Y-59315D01*
X82964Y-59314D01*
X82900Y-59300D01*
X82846Y-59277D01*
X82793Y-59240D01*
X82752Y-59197D01*
X82717Y-59143D01*
X82696Y-59088D01*
X82684Y-59024D01*
X82685Y-58966D01*
X82698Y-58902D01*
X82721Y-58848D01*
X82758Y-58795D01*
X82800Y-58754D01*
X82854Y-58718D01*
X82908Y-58696D01*
X82973Y-58684D01*
X83031Y-58684D01*
X83095Y-58698D01*
X83148Y-58720D01*
X83203Y-58757D01*
X83244Y-58798D01*
X83280Y-58853D01*
X83302Y-58906D01*
X83315Y-58970D01*
X83315Y-58970D01*
G37*
G36*
X84250Y-40976D02*
X84249Y-41030D01*
X84238Y-41080D01*
X84219Y-41122D01*
X84189Y-41165D01*
X84155Y-41197D01*
X84111Y-41225D01*
X84069Y-41241D01*
X84017Y-41250D01*
X83971Y-41249D01*
X83920Y-41238D01*
X83878Y-41220D01*
X83835Y-41190D01*
X83804Y-41157D01*
X83775Y-41113D01*
X83758Y-41070D01*
X83749Y-41019D01*
X83750Y-40973D01*
X83760Y-40922D01*
X83778Y-40880D01*
X83808Y-40837D01*
X83841Y-40805D01*
X83885Y-40776D01*
X83927Y-40759D01*
X83979Y-40749D01*
X84024Y-40749D01*
X84076Y-40760D01*
X84117Y-40777D01*
X84161Y-40807D01*
X84193Y-40839D01*
X84222Y-40883D01*
X84240Y-40925D01*
X84250Y-40976D01*
X84250Y-40976D01*
G37*
G36*
X84250Y-58176D02*
X84249Y-58230D01*
X84238Y-58280D01*
X84219Y-58322D01*
X84189Y-58365D01*
X84155Y-58397D01*
X84111Y-58425D01*
X84069Y-58441D01*
X84017Y-58450D01*
X83971Y-58449D01*
X83920Y-58438D01*
X83878Y-58420D01*
X83835Y-58390D01*
X83804Y-58357D01*
X83775Y-58313D01*
X83758Y-58270D01*
X83749Y-58219D01*
X83750Y-58173D01*
X83760Y-58122D01*
X83778Y-58080D01*
X83808Y-58037D01*
X83841Y-58005D01*
X83885Y-57976D01*
X83927Y-57959D01*
X83979Y-57949D01*
X84024Y-57949D01*
X84076Y-57960D01*
X84117Y-57977D01*
X84161Y-58007D01*
X84193Y-58039D01*
X84222Y-58083D01*
X84240Y-58125D01*
X84250Y-58176D01*
X84250Y-58176D01*
G37*
G36*
X84315Y-39970D02*
X84314Y-40038D01*
X84300Y-40101D01*
X84276Y-40155D01*
X84238Y-40208D01*
X84196Y-40248D01*
X84141Y-40283D01*
X84086Y-40304D01*
X84022Y-40315D01*
X83964Y-40314D01*
X83900Y-40300D01*
X83846Y-40277D01*
X83793Y-40240D01*
X83752Y-40197D01*
X83717Y-40143D01*
X83696Y-40088D01*
X83684Y-40024D01*
X83685Y-39966D01*
X83698Y-39902D01*
X83721Y-39848D01*
X83758Y-39795D01*
X83800Y-39754D01*
X83854Y-39718D01*
X83908Y-39696D01*
X83973Y-39684D01*
X84031Y-39684D01*
X84095Y-39698D01*
X84148Y-39720D01*
X84203Y-39757D01*
X84244Y-39798D01*
X84280Y-39853D01*
X84302Y-39906D01*
X84315Y-39970D01*
X84315Y-39970D01*
G37*
G36*
X84315Y-58970D02*
X84314Y-59038D01*
X84300Y-59101D01*
X84276Y-59155D01*
X84238Y-59208D01*
X84196Y-59248D01*
X84141Y-59283D01*
X84086Y-59304D01*
X84022Y-59315D01*
X83964Y-59314D01*
X83900Y-59300D01*
X83846Y-59277D01*
X83793Y-59240D01*
X83752Y-59197D01*
X83717Y-59143D01*
X83696Y-59088D01*
X83684Y-59024D01*
X83685Y-58966D01*
X83698Y-58902D01*
X83721Y-58848D01*
X83758Y-58795D01*
X83800Y-58754D01*
X83854Y-58718D01*
X83908Y-58696D01*
X83973Y-58684D01*
X84031Y-58684D01*
X84095Y-58698D01*
X84148Y-58720D01*
X84203Y-58757D01*
X84244Y-58798D01*
X84280Y-58853D01*
X84302Y-58906D01*
X84315Y-58970D01*
X84315Y-58970D01*
G37*
G36*
X85250Y-40976D02*
X85249Y-41030D01*
X85238Y-41080D01*
X85219Y-41122D01*
X85189Y-41165D01*
X85155Y-41197D01*
X85111Y-41225D01*
X85069Y-41241D01*
X85017Y-41250D01*
X84971Y-41249D01*
X84920Y-41238D01*
X84878Y-41220D01*
X84835Y-41190D01*
X84804Y-41157D01*
X84775Y-41113D01*
X84758Y-41070D01*
X84749Y-41019D01*
X84750Y-40973D01*
X84760Y-40922D01*
X84778Y-40880D01*
X84808Y-40837D01*
X84841Y-40805D01*
X84885Y-40776D01*
X84927Y-40759D01*
X84979Y-40749D01*
X85024Y-40749D01*
X85076Y-40760D01*
X85117Y-40777D01*
X85161Y-40807D01*
X85193Y-40839D01*
X85222Y-40883D01*
X85240Y-40925D01*
X85250Y-40976D01*
X85250Y-40976D01*
G37*
G36*
X85250Y-58176D02*
X85249Y-58230D01*
X85238Y-58280D01*
X85219Y-58322D01*
X85189Y-58365D01*
X85155Y-58397D01*
X85111Y-58425D01*
X85069Y-58441D01*
X85017Y-58450D01*
X84971Y-58449D01*
X84920Y-58438D01*
X84878Y-58420D01*
X84835Y-58390D01*
X84804Y-58357D01*
X84775Y-58313D01*
X84758Y-58270D01*
X84749Y-58219D01*
X84750Y-58173D01*
X84760Y-58122D01*
X84778Y-58080D01*
X84808Y-58037D01*
X84841Y-58005D01*
X84885Y-57976D01*
X84927Y-57959D01*
X84979Y-57949D01*
X85024Y-57949D01*
X85076Y-57960D01*
X85117Y-57977D01*
X85161Y-58007D01*
X85193Y-58039D01*
X85222Y-58083D01*
X85240Y-58125D01*
X85250Y-58176D01*
X85250Y-58176D01*
G37*
G36*
X85315Y-58970D02*
X85314Y-59038D01*
X85300Y-59101D01*
X85276Y-59155D01*
X85238Y-59208D01*
X85196Y-59248D01*
X85141Y-59283D01*
X85086Y-59304D01*
X85022Y-59315D01*
X84964Y-59314D01*
X84900Y-59300D01*
X84846Y-59277D01*
X84793Y-59240D01*
X84752Y-59197D01*
X84717Y-59143D01*
X84696Y-59088D01*
X84684Y-59024D01*
X84685Y-58966D01*
X84698Y-58902D01*
X84721Y-58848D01*
X84758Y-58795D01*
X84800Y-58754D01*
X84854Y-58718D01*
X84908Y-58696D01*
X84973Y-58684D01*
X85031Y-58684D01*
X85095Y-58698D01*
X85148Y-58720D01*
X85203Y-58757D01*
X85244Y-58798D01*
X85280Y-58853D01*
X85302Y-58906D01*
X85315Y-58970D01*
X85315Y-58970D01*
G37*
G36*
X85315Y-40315D02*
X84684Y-40315D01*
X84684Y-39684D01*
X85315Y-39684D01*
X85315Y-40315D01*
X85315Y-40315D01*
G37*
G36*
X86162Y-45887D02*
X86158Y-46144D01*
X86107Y-46369D01*
X86016Y-46575D01*
X85883Y-46764D01*
X85720Y-46919D01*
X85525Y-47043D01*
X85315Y-47124D01*
X85088Y-47164D01*
X84863Y-47159D01*
X84637Y-47110D01*
X84431Y-47020D01*
X84241Y-46888D01*
X84085Y-46726D01*
X83960Y-46532D01*
X83877Y-46323D01*
X83836Y-46096D01*
X83839Y-45871D01*
X83887Y-45645D01*
X83975Y-45438D01*
X84106Y-45247D01*
X84266Y-45090D01*
X84460Y-44964D01*
X84668Y-44880D01*
X84895Y-44836D01*
X85120Y-44838D01*
X85347Y-44884D01*
X85553Y-44971D01*
X85745Y-45101D01*
X85903Y-45260D01*
X86032Y-45453D01*
X86117Y-45660D01*
X86162Y-45887D01*
X86162Y-45887D01*
G37*
G36*
X86162Y-54887D02*
X86158Y-55144D01*
X86107Y-55369D01*
X86016Y-55575D01*
X85883Y-55764D01*
X85720Y-55919D01*
X85525Y-56043D01*
X85315Y-56124D01*
X85088Y-56164D01*
X84863Y-56159D01*
X84637Y-56110D01*
X84431Y-56020D01*
X84241Y-55888D01*
X84085Y-55726D01*
X83960Y-55532D01*
X83877Y-55323D01*
X83836Y-55096D01*
X83839Y-54871D01*
X83887Y-54645D01*
X83975Y-54438D01*
X84106Y-54247D01*
X84266Y-54090D01*
X84460Y-53964D01*
X84668Y-53880D01*
X84895Y-53836D01*
X85120Y-53838D01*
X85347Y-53884D01*
X85553Y-53971D01*
X85745Y-54101D01*
X85903Y-54260D01*
X86032Y-54453D01*
X86117Y-54660D01*
X86162Y-54887D01*
X86162Y-54887D01*
G37*
G36*
X86744Y-39412D02*
X86742Y-39498D01*
X86725Y-39576D01*
X86694Y-39644D01*
X86648Y-39709D01*
X86594Y-39760D01*
X86527Y-39803D01*
X86457Y-39830D01*
X86378Y-39844D01*
X86304Y-39843D01*
X86226Y-39825D01*
X86158Y-39796D01*
X86092Y-39750D01*
X86040Y-39697D01*
X85997Y-39629D01*
X85970Y-39560D01*
X85955Y-39481D01*
X85956Y-39407D01*
X85973Y-39328D01*
X86002Y-39260D01*
X86047Y-39194D01*
X86100Y-39142D01*
X86168Y-39098D01*
X86236Y-39070D01*
X86315Y-39055D01*
X86389Y-39056D01*
X86468Y-39072D01*
X86536Y-39100D01*
X86603Y-39146D01*
X86655Y-39198D01*
X86700Y-39265D01*
X86728Y-39333D01*
X86744Y-39412D01*
X86744Y-39412D01*
G37*
G36*
X86744Y-59512D02*
X86742Y-59598D01*
X86725Y-59676D01*
X86694Y-59744D01*
X86648Y-59809D01*
X86594Y-59860D01*
X86527Y-59903D01*
X86457Y-59930D01*
X86378Y-59944D01*
X86304Y-59943D01*
X86226Y-59925D01*
X86158Y-59896D01*
X86092Y-59850D01*
X86040Y-59797D01*
X85997Y-59729D01*
X85970Y-59660D01*
X85955Y-59581D01*
X85956Y-59507D01*
X85973Y-59428D01*
X86002Y-59360D01*
X86047Y-59294D01*
X86100Y-59242D01*
X86168Y-59198D01*
X86236Y-59170D01*
X86315Y-59155D01*
X86389Y-59156D01*
X86468Y-59172D01*
X86536Y-59200D01*
X86603Y-59246D01*
X86655Y-59298D01*
X86700Y-59365D01*
X86728Y-59433D01*
X86744Y-59512D01*
X86744Y-59512D01*
G37*
M02*
