M48
;DRILL file {Pcbnew (2013-07-07 BZR 4022)-stable} date 11/17/2016 2:58:07 AM
;FORMAT={-:-/ absolute / inch / decimal}
FMAT,2
INCH,TZ
T1C0.013
T2C0.032
T3C0.040
T4C0.130
%
G90
G05
M72
T1
X5.79Y-5.7
X5.82Y-5.14
X5.82Y-5.18
X5.82Y-5.235
X5.825Y-5.7
X5.83Y-5.855
X5.84Y-4.265
X5.86Y-5.1
X5.86Y-5.14
X5.865Y-5.2
X5.9Y-5.1
X5.915Y-4.79
X5.94Y-5.1
X5.965Y-4.
X5.97Y-4.21
X5.98Y-5.1
X6.02Y-5.1
X6.035Y-4.9
X6.04Y-5.36
X6.04Y-5.58
X6.06Y-5.225
X6.06Y-5.855
X6.06Y-5.91
X6.075Y-4.49
X6.08Y-4.39
X6.1Y-5.1
X6.115Y-4.49
X6.125Y-5.19
X6.13Y-5.58
X6.14Y-5.1
X6.145Y-5.785
X6.155Y-4.39
X6.155Y-5.725
X6.16Y-4.64
X6.16Y-5.18
X6.17Y-5.36
X6.17Y-5.58
X6.18Y-5.78
X6.18Y-5.82
X6.18Y-5.88
X6.18Y-5.94
X6.2Y-4.5
X6.2Y-4.54
X6.2Y-4.62
X6.2Y-4.66
X6.2Y-4.7
X6.2Y-4.74
X6.2Y-4.78
X6.2Y-4.82
X6.2Y-5.18
X6.21Y-4.315
X6.22Y-4.46
X6.22Y-5.365
X6.22Y-5.405
X6.22Y-5.445
X6.24Y-4.6
X6.24Y-4.82
X6.24Y-5.18
X6.25Y-4.315
X6.25Y-5.3
X6.26Y-4.2
X6.26Y-5.64
X6.275Y-3.94
X6.275Y-3.995
X6.28Y-4.82
X6.28Y-4.86
X6.28Y-4.9
X6.28Y-4.94
X6.28Y-4.98
X6.28Y-5.02
X6.28Y-5.1
X6.28Y-5.18
X6.29Y-4.16
X6.29Y-4.2
X6.3Y-4.045
X6.3Y-4.095
X6.3Y-4.46
X6.32Y-5.1
X6.32Y-5.18
X6.34Y-4.42
X6.34Y-4.46
X6.35Y-5.58
X6.355Y-5.405
X6.36Y-5.1
X6.36Y-5.18
X6.365Y-4.215
X6.38Y-4.335
X6.38Y-4.42
X6.4Y-5.1
X6.4Y-5.205
X6.4Y-5.26
X6.4Y-5.42
X6.4Y-5.46
X6.4Y-5.5
X6.405Y-4.81
X6.41Y-5.315
X6.425Y-4.195
X6.425Y-5.595
X6.44Y-4.34
X6.44Y-5.1
X6.445Y-4.3
X6.455Y-5.26
X6.455Y-5.395
X6.47Y-4.47
X6.47Y-4.775
X6.475Y-4.02
X6.475Y-5.445
X6.475Y-5.525
X6.475Y-5.56
X6.48Y-4.34
X6.49Y-4.12
X6.49Y-4.615
X6.49Y-4.695
X6.49Y-4.875
X6.505Y-5.48
X6.51Y-5.445
X6.52Y-4.02
X6.52Y-4.34
X6.52Y-5.1
X6.53Y-4.73
X6.545Y-4.81
X6.545Y-5.015
X6.545Y-5.13
X6.545Y-5.325
X6.55Y-5.245
X6.56Y-4.34
X6.57Y-4.12
X6.595Y-5.325
X6.6Y-4.265
X6.6Y-4.34
X6.61Y-5.635
X6.625Y-4.7
X6.625Y-4.735
X6.625Y-5.08
X6.63Y-5.215
X6.64Y-4.34
X6.64Y-5.28
X6.665Y-4.245
X6.68Y-4.34
X6.69Y-3.94
X6.705Y-5.705
X6.72Y-4.34
X6.72Y-4.38
X6.72Y-4.42
X6.72Y-4.46
X6.72Y-4.5
X6.72Y-4.54
X6.72Y-4.58
X6.72Y-4.62
X6.72Y-4.66
X6.72Y-4.7
X6.72Y-4.74
X6.72Y-4.78
X6.72Y-4.82
X6.72Y-4.86
X6.72Y-4.9
X6.72Y-5.03
X6.725Y-4.245
X6.74Y-5.73
X6.76Y-4.14
X6.765Y-4.32
X6.8Y-4.375
X6.82Y-4.425
X6.855Y-4.195
X6.895Y-4.43
X6.9Y-5.3
X6.9Y-5.365
X6.935Y-4.375
X6.94Y-4.235
X6.95Y-5.13
X6.975Y-4.345
X7.045Y-4.2625
X7.05Y-4.76
X7.05Y-4.92
X7.055Y-4.4
X7.055Y-4.6
X7.1Y-4.08
X7.14Y-4.1
X7.14Y-4.14
X7.14Y-4.18
X7.14Y-4.22
X7.14Y-4.26
X7.14Y-4.3
X7.14Y-4.34
X7.14Y-4.38
X7.14Y-4.42
X7.14Y-4.46
X7.14Y-4.5
X7.14Y-4.54
X7.14Y-4.58
X7.15Y-5.38
X7.15Y-5.48
X7.18Y-4.6
X7.19Y-4.
X7.2Y-4.64
X7.2Y-4.68
X7.2Y-4.72
X7.2Y-4.76
X7.2Y-4.8
X7.2Y-4.84
X7.2Y-4.88
X7.2Y-4.92
X7.2Y-4.96
X7.2Y-5.
X7.2Y-5.04
X7.2Y-5.08
X7.2Y-5.12
X7.2Y-5.16
X7.2Y-5.2
X7.22Y-5.56
X7.225Y-5.255
X7.225Y-5.435
X7.23Y-5.345
X7.25Y-5.48
X7.27Y-5.26
X7.29Y-4.
X7.31Y-5.26
X7.32Y-5.195
X7.36Y-4.78
X7.36Y-4.82
X7.38Y-5.115
X7.38Y-5.59
X7.39Y-5.035
X7.4Y-4.82
X7.405Y-5.375
X7.415Y-5.505
X7.44Y-4.84
X7.44Y-4.88
X7.44Y-4.92
X7.44Y-5.32
X7.45Y-5.4
X7.455Y-5.435
X7.455Y-5.505
X7.465Y-5.365
X7.485Y-4.65
X7.485Y-4.685
X7.485Y-4.72
X7.485Y-4.755
X7.505Y-4.315
X7.505Y-4.36
X7.505Y-4.41
X7.52Y-4.28
X7.525Y-5.06
X7.525Y-5.33
X7.53Y-5.585
X7.55Y-5.51
X7.555Y-4.915
X7.555Y-4.97
X7.555Y-5.155
X7.555Y-5.19
X7.555Y-5.225
X7.555Y-5.29
X7.56Y-4.26
X7.56Y-5.08
X7.56Y-5.325
X7.58Y-4.855
X7.58Y-5.05
X7.59Y-4.36
X7.595Y-5.325
X7.6Y-4.26
X7.6Y-5.465
X7.605Y-5.075
X7.61Y-5.295
X7.61Y-5.41
X7.62Y-4.445
X7.625Y-4.85
X7.63Y-5.05
X7.635Y-4.62
X7.635Y-4.695
X7.64Y-4.26
X7.64Y-5.325
X7.645Y-5.085
X7.655Y-4.87
X7.655Y-5.515
X7.66Y-4.48
X7.675Y-4.315
X7.68Y-4.26
X7.68Y-5.065
X7.705Y-4.495
X7.715Y-4.715
X7.715Y-4.75
X7.715Y-4.8
X7.715Y-5.075
X7.72Y-4.19
X7.72Y-4.22
X7.72Y-4.26
X7.72Y-4.54
X7.755Y-4.315
X7.76Y-4.19
X7.76Y-4.45
X7.77Y-4.595
X7.77Y-5.055
X7.79Y-5.25
X7.795Y-4.29
X7.795Y-4.42
X7.795Y-5.1
X7.795Y-5.135
X7.795Y-5.17
X7.795Y-5.21
X7.8Y-4.19
X7.8Y-4.23
X7.8Y-5.29
X7.8Y-5.325
X7.8Y-5.405
X7.8Y-5.55
X7.81Y-4.68
X7.81Y-4.885
X7.81Y-4.92
X7.81Y-4.975
X7.82Y-4.58
X7.835Y-4.23
X7.835Y-4.655
X7.835Y-5.37
X7.8375Y-5.015
X7.84Y-4.19
X7.845Y-4.92
X7.845Y-5.75
X7.86Y-4.68
X7.865Y-4.555
X7.87Y-4.23
X7.875Y-5.015
X7.875Y-5.085
X7.875Y-5.275
X7.875Y-5.34
X7.88Y-4.19
X7.895Y-5.575
X7.895Y-5.625
X7.895Y-5.675
X7.895Y-5.725
X7.895Y-5.775
X7.895Y-5.825
X7.895Y-5.875
X7.895Y-5.925
X7.9Y-4.95
X7.905Y-4.835
X7.91Y-4.58
X7.92Y-4.19
X7.92Y-5.42
X7.925Y-5.035
X7.935Y-4.68
X7.95Y-4.78
X7.96Y-4.19
X7.96Y-4.6
X7.96Y-4.64
X7.97Y-5.42
X7.98Y-4.68
X7.98Y-5.135
X7.99Y-4.325
X7.995Y-5.19
X8.Y-4.19
X8.Y-4.6
X8.Y-5.625
X8.Y-5.775
X8.005Y-4.73
X8.01Y-4.495
X8.02Y-5.42
X8.025Y-5.09
X8.04Y-4.19
X8.04Y-4.48
X8.04Y-4.52
X8.04Y-4.56
X8.04Y-4.6
X8.065Y-4.825
X8.065Y-5.15
X8.07Y-5.42
X8.08Y-4.19
X8.08Y-4.48
X8.1Y-5.15
X8.1Y-5.625
X8.1Y-5.775
X8.115Y-4.74
X8.12Y-4.19
X8.12Y-4.48
X8.12Y-5.42
X8.15Y-4.29
X8.16Y-4.19
X8.16Y-4.48
X8.164Y-4.81
X8.165Y-4.965
X8.17Y-5.42
X8.2Y-4.19
X8.2Y-4.48
X8.2Y-5.625
X8.2Y-5.775
X8.215Y-5.245
X8.22Y-5.42
X8.24Y-4.19
X8.24Y-4.48
X8.245Y-5.16
X8.25Y-4.88
X8.27Y-5.42
X8.28Y-4.19
X8.28Y-4.48
X8.295Y-4.285
X8.3Y-5.625
X8.3Y-5.775
X8.32Y-4.19
X8.32Y-4.48
X8.32Y-5.42
X8.355Y-4.17
X8.36Y-4.48
X8.37Y-5.32
X8.37Y-5.37
X8.37Y-5.42
X8.38Y-5.625
X8.4Y-4.48
X8.4Y-5.775
X8.42Y-4.445
X8.42Y-5.32
X8.465Y-5.32
X8.5Y-5.775
X8.53Y-4.205
X8.53Y-4.345
X8.535Y-5.32
X8.54Y-4.795
X8.54Y-5.245
X8.57Y-5.015
X8.58Y-4.1
X8.585Y-5.32
X8.62Y-4.1
X8.62Y-4.24
X8.62Y-4.31
X8.625Y-4.445
X8.635Y-5.32
X8.65Y-5.4
X8.65Y-5.59
X8.655Y-5.765
X8.665Y-5.32
T2
X6.74Y-4.
X6.84Y-4.
X6.94Y-4.
X7.04Y-4.
X7.1Y-5.9
X7.14Y-4.
X7.2Y-5.9
X7.24Y-4.
X7.3Y-5.9
X7.34Y-4.
X7.4Y-5.9
X7.44Y-4.
X7.5Y-5.9
X7.54Y-4.
X7.6Y-5.9
X7.64Y-4.
X7.7Y-5.9
X7.8Y-4.
X7.8Y-5.9
X7.9Y-4.
X8.Y-4.
X8.Y-5.9
X8.1Y-4.
X8.1Y-5.9
X8.2Y-4.
X8.2Y-5.9
X8.3Y-4.
X8.3Y-5.9
X8.4Y-4.
X8.4Y-5.9
X8.5Y-4.
X8.5Y-5.9
T3
X5.875Y-4.385
X5.875Y-4.485
X5.875Y-4.6
X5.875Y-4.7
T4
X6.145Y-4.1
X6.42Y-5.82
X8.5Y-4.6
X8.5Y-5.5
T0
M30
