G04 (created by PCBNEW (2013-07-07 BZR 4022)-stable) date 11/17/2016 10:01:00 AM*
%MOIN*%
G04 Gerber Fmt 3.4, Leading zero omitted, Abs format*
%FSLAX34Y34*%
G01*
G70*
G90*
G04 APERTURE LIST*
%ADD10C,0.00590551*%
%ADD11C,0.011811*%
%ADD12C,0.00738189*%
%ADD13C,0.00787402*%
%ADD14C,0.005*%
%ADD15C,0.0025*%
G04 APERTURE END LIST*
G54D10*
G54D11*
X57289Y-46269D02*
X57007Y-46466D01*
X57289Y-46607D02*
X56698Y-46607D01*
X56698Y-46382D01*
X56726Y-46326D01*
X56754Y-46298D01*
X56810Y-46269D01*
X56895Y-46269D01*
X56951Y-46298D01*
X56979Y-46326D01*
X57007Y-46382D01*
X57007Y-46607D01*
X56698Y-45904D02*
X56698Y-45791D01*
X56726Y-45735D01*
X56782Y-45679D01*
X56895Y-45651D01*
X57092Y-45651D01*
X57204Y-45679D01*
X57260Y-45735D01*
X57289Y-45791D01*
X57289Y-45904D01*
X57260Y-45960D01*
X57204Y-46016D01*
X57092Y-46044D01*
X56895Y-46044D01*
X56782Y-46016D01*
X56726Y-45960D01*
X56698Y-45904D01*
X56698Y-45398D02*
X57176Y-45398D01*
X57232Y-45370D01*
X57260Y-45341D01*
X57289Y-45285D01*
X57289Y-45173D01*
X57260Y-45116D01*
X57232Y-45088D01*
X57176Y-45060D01*
X56698Y-45060D01*
X56698Y-44863D02*
X56698Y-44526D01*
X57289Y-44695D02*
X56698Y-44695D01*
X57289Y-44329D02*
X56698Y-44329D01*
X57289Y-44048D02*
X56698Y-44048D01*
X57289Y-43710D01*
X56698Y-43710D01*
X56726Y-43120D02*
X56698Y-43176D01*
X56698Y-43260D01*
X56726Y-43345D01*
X56782Y-43401D01*
X56839Y-43429D01*
X56951Y-43457D01*
X57035Y-43457D01*
X57148Y-43429D01*
X57204Y-43401D01*
X57260Y-43345D01*
X57289Y-43260D01*
X57289Y-43204D01*
X57260Y-43120D01*
X57232Y-43092D01*
X57035Y-43092D01*
X57035Y-43204D01*
X57289Y-42389D02*
X56698Y-42389D01*
X56979Y-42389D02*
X56979Y-42051D01*
X57289Y-42051D02*
X56698Y-42051D01*
X56979Y-41770D02*
X56979Y-41573D01*
X57289Y-41489D02*
X57289Y-41770D01*
X56698Y-41770D01*
X56698Y-41489D01*
X57289Y-40898D02*
X57007Y-41095D01*
X57289Y-41236D02*
X56698Y-41236D01*
X56698Y-41011D01*
X56726Y-40955D01*
X56754Y-40926D01*
X56810Y-40898D01*
X56895Y-40898D01*
X56951Y-40926D01*
X56979Y-40955D01*
X57007Y-41011D01*
X57007Y-41236D01*
X56979Y-40645D02*
X56979Y-40448D01*
X57289Y-40364D02*
X57289Y-40645D01*
X56698Y-40645D01*
X56698Y-40364D01*
G54D12*
X100537Y-52219D02*
X100368Y-52219D01*
X100453Y-52219D02*
X100453Y-51924D01*
X100425Y-51966D01*
X100397Y-51994D01*
X100368Y-52008D01*
X100636Y-51924D02*
X100818Y-51924D01*
X100720Y-52036D01*
X100762Y-52036D01*
X100790Y-52050D01*
X100804Y-52064D01*
X100818Y-52092D01*
X100818Y-52163D01*
X100804Y-52191D01*
X100790Y-52205D01*
X100762Y-52219D01*
X100678Y-52219D01*
X100650Y-52205D01*
X100636Y-52191D01*
X101170Y-52219D02*
X101170Y-52022D01*
X101170Y-52050D02*
X101184Y-52036D01*
X101212Y-52022D01*
X101254Y-52022D01*
X101282Y-52036D01*
X101296Y-52064D01*
X101296Y-52219D01*
X101296Y-52064D02*
X101311Y-52036D01*
X101339Y-52022D01*
X101381Y-52022D01*
X101409Y-52036D01*
X101423Y-52064D01*
X101423Y-52219D01*
X101564Y-52219D02*
X101564Y-52022D01*
X101564Y-51924D02*
X101550Y-51938D01*
X101564Y-51952D01*
X101578Y-51938D01*
X101564Y-51924D01*
X101564Y-51952D01*
X101746Y-52219D02*
X101718Y-52205D01*
X101704Y-52177D01*
X101704Y-51924D01*
X102084Y-52022D02*
X102084Y-52317D01*
X102084Y-52036D02*
X102112Y-52022D01*
X102168Y-52022D01*
X102196Y-52036D01*
X102210Y-52050D01*
X102224Y-52078D01*
X102224Y-52163D01*
X102210Y-52191D01*
X102196Y-52205D01*
X102168Y-52219D01*
X102112Y-52219D01*
X102084Y-52205D01*
X102351Y-52219D02*
X102351Y-52022D01*
X102351Y-52078D02*
X102365Y-52050D01*
X102379Y-52036D01*
X102407Y-52022D01*
X102435Y-52022D01*
X102646Y-52205D02*
X102618Y-52219D01*
X102562Y-52219D01*
X102534Y-52205D01*
X102520Y-52177D01*
X102520Y-52064D01*
X102534Y-52036D01*
X102562Y-52022D01*
X102618Y-52022D01*
X102646Y-52036D01*
X102660Y-52064D01*
X102660Y-52092D01*
X102520Y-52121D01*
X102787Y-52022D02*
X102787Y-52317D01*
X102787Y-52036D02*
X102815Y-52022D01*
X102871Y-52022D01*
X102899Y-52036D01*
X102913Y-52050D01*
X102928Y-52078D01*
X102928Y-52163D01*
X102913Y-52191D01*
X102899Y-52205D01*
X102871Y-52219D01*
X102815Y-52219D01*
X102787Y-52205D01*
X103054Y-52219D02*
X103054Y-52022D01*
X103054Y-52078D02*
X103068Y-52050D01*
X103082Y-52036D01*
X103110Y-52022D01*
X103138Y-52022D01*
X103349Y-52205D02*
X103321Y-52219D01*
X103265Y-52219D01*
X103237Y-52205D01*
X103223Y-52177D01*
X103223Y-52064D01*
X103237Y-52036D01*
X103265Y-52022D01*
X103321Y-52022D01*
X103349Y-52036D01*
X103363Y-52064D01*
X103363Y-52092D01*
X103223Y-52121D01*
X103616Y-52022D02*
X103616Y-52261D01*
X103602Y-52289D01*
X103588Y-52303D01*
X103560Y-52317D01*
X103518Y-52317D01*
X103490Y-52303D01*
X103616Y-52205D02*
X103588Y-52219D01*
X103532Y-52219D01*
X103504Y-52205D01*
X103490Y-52191D01*
X103476Y-52163D01*
X103476Y-52078D01*
X103490Y-52050D01*
X103504Y-52036D01*
X103532Y-52022D01*
X103588Y-52022D01*
X103616Y-52036D01*
G54D11*
X62030Y-38739D02*
X61833Y-38457D01*
X61692Y-38739D02*
X61692Y-38148D01*
X61917Y-38148D01*
X61973Y-38176D01*
X62001Y-38204D01*
X62030Y-38260D01*
X62030Y-38345D01*
X62001Y-38401D01*
X61973Y-38429D01*
X61917Y-38457D01*
X61692Y-38457D01*
X62395Y-38148D02*
X62508Y-38148D01*
X62564Y-38176D01*
X62620Y-38232D01*
X62648Y-38345D01*
X62648Y-38542D01*
X62620Y-38654D01*
X62564Y-38710D01*
X62508Y-38739D01*
X62395Y-38739D01*
X62339Y-38710D01*
X62283Y-38654D01*
X62255Y-38542D01*
X62255Y-38345D01*
X62283Y-38232D01*
X62339Y-38176D01*
X62395Y-38148D01*
X62901Y-38148D02*
X62901Y-38626D01*
X62929Y-38682D01*
X62958Y-38710D01*
X63014Y-38739D01*
X63126Y-38739D01*
X63183Y-38710D01*
X63211Y-38682D01*
X63239Y-38626D01*
X63239Y-38148D01*
X63436Y-38148D02*
X63773Y-38148D01*
X63604Y-38739D02*
X63604Y-38148D01*
X63970Y-38739D02*
X63970Y-38148D01*
X64251Y-38739D02*
X64251Y-38148D01*
X64589Y-38739D01*
X64589Y-38148D01*
X65179Y-38176D02*
X65123Y-38148D01*
X65039Y-38148D01*
X64954Y-38176D01*
X64898Y-38232D01*
X64870Y-38289D01*
X64842Y-38401D01*
X64842Y-38485D01*
X64870Y-38598D01*
X64898Y-38654D01*
X64954Y-38710D01*
X65039Y-38739D01*
X65095Y-38739D01*
X65179Y-38710D01*
X65207Y-38682D01*
X65207Y-38485D01*
X65095Y-38485D01*
X65910Y-38739D02*
X65910Y-38148D01*
X65910Y-38429D02*
X66248Y-38429D01*
X66248Y-38739D02*
X66248Y-38148D01*
X66529Y-38429D02*
X66726Y-38429D01*
X66810Y-38739D02*
X66529Y-38739D01*
X66529Y-38148D01*
X66810Y-38148D01*
X67401Y-38739D02*
X67204Y-38457D01*
X67063Y-38739D02*
X67063Y-38148D01*
X67288Y-38148D01*
X67344Y-38176D01*
X67373Y-38204D01*
X67401Y-38260D01*
X67401Y-38345D01*
X67373Y-38401D01*
X67344Y-38429D01*
X67288Y-38457D01*
X67063Y-38457D01*
X67654Y-38429D02*
X67851Y-38429D01*
X67935Y-38739D02*
X67654Y-38739D01*
X67654Y-38148D01*
X67935Y-38148D01*
X76330Y-38739D02*
X76133Y-38457D01*
X75992Y-38739D02*
X75992Y-38148D01*
X76217Y-38148D01*
X76273Y-38176D01*
X76301Y-38204D01*
X76330Y-38260D01*
X76330Y-38345D01*
X76301Y-38401D01*
X76273Y-38429D01*
X76217Y-38457D01*
X75992Y-38457D01*
X76695Y-38148D02*
X76808Y-38148D01*
X76864Y-38176D01*
X76920Y-38232D01*
X76948Y-38345D01*
X76948Y-38542D01*
X76920Y-38654D01*
X76864Y-38710D01*
X76808Y-38739D01*
X76695Y-38739D01*
X76639Y-38710D01*
X76583Y-38654D01*
X76555Y-38542D01*
X76555Y-38345D01*
X76583Y-38232D01*
X76639Y-38176D01*
X76695Y-38148D01*
X77201Y-38148D02*
X77201Y-38626D01*
X77229Y-38682D01*
X77258Y-38710D01*
X77314Y-38739D01*
X77426Y-38739D01*
X77483Y-38710D01*
X77511Y-38682D01*
X77539Y-38626D01*
X77539Y-38148D01*
X77736Y-38148D02*
X78073Y-38148D01*
X77904Y-38739D02*
X77904Y-38148D01*
X78270Y-38739D02*
X78270Y-38148D01*
X78551Y-38739D02*
X78551Y-38148D01*
X78889Y-38739D01*
X78889Y-38148D01*
X79479Y-38176D02*
X79423Y-38148D01*
X79339Y-38148D01*
X79254Y-38176D01*
X79198Y-38232D01*
X79170Y-38289D01*
X79142Y-38401D01*
X79142Y-38485D01*
X79170Y-38598D01*
X79198Y-38654D01*
X79254Y-38710D01*
X79339Y-38739D01*
X79395Y-38739D01*
X79479Y-38710D01*
X79507Y-38682D01*
X79507Y-38485D01*
X79395Y-38485D01*
X80210Y-38739D02*
X80210Y-38148D01*
X80210Y-38429D02*
X80548Y-38429D01*
X80548Y-38739D02*
X80548Y-38148D01*
X80829Y-38429D02*
X81026Y-38429D01*
X81110Y-38739D02*
X80829Y-38739D01*
X80829Y-38148D01*
X81110Y-38148D01*
X81701Y-38739D02*
X81504Y-38457D01*
X81363Y-38739D02*
X81363Y-38148D01*
X81588Y-38148D01*
X81644Y-38176D01*
X81673Y-38204D01*
X81701Y-38260D01*
X81701Y-38345D01*
X81673Y-38401D01*
X81644Y-38429D01*
X81588Y-38457D01*
X81363Y-38457D01*
X81954Y-38429D02*
X82151Y-38429D01*
X82235Y-38739D02*
X81954Y-38739D01*
X81954Y-38148D01*
X82235Y-38148D01*
X87739Y-46269D02*
X87457Y-46466D01*
X87739Y-46607D02*
X87148Y-46607D01*
X87148Y-46382D01*
X87176Y-46326D01*
X87204Y-46298D01*
X87260Y-46269D01*
X87345Y-46269D01*
X87401Y-46298D01*
X87429Y-46326D01*
X87457Y-46382D01*
X87457Y-46607D01*
X87148Y-45904D02*
X87148Y-45791D01*
X87176Y-45735D01*
X87232Y-45679D01*
X87345Y-45651D01*
X87542Y-45651D01*
X87654Y-45679D01*
X87710Y-45735D01*
X87739Y-45791D01*
X87739Y-45904D01*
X87710Y-45960D01*
X87654Y-46016D01*
X87542Y-46044D01*
X87345Y-46044D01*
X87232Y-46016D01*
X87176Y-45960D01*
X87148Y-45904D01*
X87148Y-45398D02*
X87626Y-45398D01*
X87682Y-45370D01*
X87710Y-45341D01*
X87739Y-45285D01*
X87739Y-45173D01*
X87710Y-45116D01*
X87682Y-45088D01*
X87626Y-45060D01*
X87148Y-45060D01*
X87148Y-44863D02*
X87148Y-44526D01*
X87739Y-44695D02*
X87148Y-44695D01*
X87739Y-44329D02*
X87148Y-44329D01*
X87739Y-44048D02*
X87148Y-44048D01*
X87739Y-43710D01*
X87148Y-43710D01*
X87176Y-43120D02*
X87148Y-43176D01*
X87148Y-43260D01*
X87176Y-43345D01*
X87232Y-43401D01*
X87289Y-43429D01*
X87401Y-43457D01*
X87485Y-43457D01*
X87598Y-43429D01*
X87654Y-43401D01*
X87710Y-43345D01*
X87739Y-43260D01*
X87739Y-43204D01*
X87710Y-43120D01*
X87682Y-43092D01*
X87485Y-43092D01*
X87485Y-43204D01*
X87739Y-42389D02*
X87148Y-42389D01*
X87429Y-42389D02*
X87429Y-42051D01*
X87739Y-42051D02*
X87148Y-42051D01*
X87429Y-41770D02*
X87429Y-41573D01*
X87739Y-41489D02*
X87739Y-41770D01*
X87148Y-41770D01*
X87148Y-41489D01*
X87739Y-40898D02*
X87457Y-41095D01*
X87739Y-41236D02*
X87148Y-41236D01*
X87148Y-41011D01*
X87176Y-40955D01*
X87204Y-40926D01*
X87260Y-40898D01*
X87345Y-40898D01*
X87401Y-40926D01*
X87429Y-40955D01*
X87457Y-41011D01*
X87457Y-41236D01*
X87429Y-40645D02*
X87429Y-40448D01*
X87739Y-40364D02*
X87739Y-40645D01*
X87148Y-40645D01*
X87148Y-40364D01*
X87739Y-58669D02*
X87457Y-58866D01*
X87739Y-59007D02*
X87148Y-59007D01*
X87148Y-58782D01*
X87176Y-58726D01*
X87204Y-58698D01*
X87260Y-58669D01*
X87345Y-58669D01*
X87401Y-58698D01*
X87429Y-58726D01*
X87457Y-58782D01*
X87457Y-59007D01*
X87148Y-58304D02*
X87148Y-58191D01*
X87176Y-58135D01*
X87232Y-58079D01*
X87345Y-58051D01*
X87542Y-58051D01*
X87654Y-58079D01*
X87710Y-58135D01*
X87739Y-58191D01*
X87739Y-58304D01*
X87710Y-58360D01*
X87654Y-58416D01*
X87542Y-58444D01*
X87345Y-58444D01*
X87232Y-58416D01*
X87176Y-58360D01*
X87148Y-58304D01*
X87148Y-57798D02*
X87626Y-57798D01*
X87682Y-57770D01*
X87710Y-57741D01*
X87739Y-57685D01*
X87739Y-57573D01*
X87710Y-57516D01*
X87682Y-57488D01*
X87626Y-57460D01*
X87148Y-57460D01*
X87148Y-57263D02*
X87148Y-56926D01*
X87739Y-57095D02*
X87148Y-57095D01*
X87739Y-56729D02*
X87148Y-56729D01*
X87739Y-56448D02*
X87148Y-56448D01*
X87739Y-56110D01*
X87148Y-56110D01*
X87176Y-55520D02*
X87148Y-55576D01*
X87148Y-55660D01*
X87176Y-55745D01*
X87232Y-55801D01*
X87289Y-55829D01*
X87401Y-55857D01*
X87485Y-55857D01*
X87598Y-55829D01*
X87654Y-55801D01*
X87710Y-55745D01*
X87739Y-55660D01*
X87739Y-55604D01*
X87710Y-55520D01*
X87682Y-55492D01*
X87485Y-55492D01*
X87485Y-55604D01*
X87739Y-54789D02*
X87148Y-54789D01*
X87429Y-54789D02*
X87429Y-54451D01*
X87739Y-54451D02*
X87148Y-54451D01*
X87429Y-54170D02*
X87429Y-53973D01*
X87739Y-53889D02*
X87739Y-54170D01*
X87148Y-54170D01*
X87148Y-53889D01*
X87739Y-53298D02*
X87457Y-53495D01*
X87739Y-53636D02*
X87148Y-53636D01*
X87148Y-53411D01*
X87176Y-53355D01*
X87204Y-53326D01*
X87260Y-53298D01*
X87345Y-53298D01*
X87401Y-53326D01*
X87429Y-53355D01*
X87457Y-53411D01*
X87457Y-53636D01*
X87429Y-53045D02*
X87429Y-52848D01*
X87739Y-52764D02*
X87739Y-53045D01*
X87148Y-53045D01*
X87148Y-52764D01*
X76330Y-60739D02*
X76133Y-60457D01*
X75992Y-60739D02*
X75992Y-60148D01*
X76217Y-60148D01*
X76273Y-60176D01*
X76301Y-60204D01*
X76330Y-60260D01*
X76330Y-60345D01*
X76301Y-60401D01*
X76273Y-60429D01*
X76217Y-60457D01*
X75992Y-60457D01*
X76695Y-60148D02*
X76808Y-60148D01*
X76864Y-60176D01*
X76920Y-60232D01*
X76948Y-60345D01*
X76948Y-60542D01*
X76920Y-60654D01*
X76864Y-60710D01*
X76808Y-60739D01*
X76695Y-60739D01*
X76639Y-60710D01*
X76583Y-60654D01*
X76555Y-60542D01*
X76555Y-60345D01*
X76583Y-60232D01*
X76639Y-60176D01*
X76695Y-60148D01*
X77201Y-60148D02*
X77201Y-60626D01*
X77229Y-60682D01*
X77258Y-60710D01*
X77314Y-60739D01*
X77426Y-60739D01*
X77483Y-60710D01*
X77511Y-60682D01*
X77539Y-60626D01*
X77539Y-60148D01*
X77736Y-60148D02*
X78073Y-60148D01*
X77904Y-60739D02*
X77904Y-60148D01*
X78270Y-60739D02*
X78270Y-60148D01*
X78551Y-60739D02*
X78551Y-60148D01*
X78889Y-60739D01*
X78889Y-60148D01*
X79479Y-60176D02*
X79423Y-60148D01*
X79339Y-60148D01*
X79254Y-60176D01*
X79198Y-60232D01*
X79170Y-60289D01*
X79142Y-60401D01*
X79142Y-60485D01*
X79170Y-60598D01*
X79198Y-60654D01*
X79254Y-60710D01*
X79339Y-60739D01*
X79395Y-60739D01*
X79479Y-60710D01*
X79507Y-60682D01*
X79507Y-60485D01*
X79395Y-60485D01*
X80210Y-60739D02*
X80210Y-60148D01*
X80210Y-60429D02*
X80548Y-60429D01*
X80548Y-60739D02*
X80548Y-60148D01*
X80829Y-60429D02*
X81026Y-60429D01*
X81110Y-60739D02*
X80829Y-60739D01*
X80829Y-60148D01*
X81110Y-60148D01*
X81701Y-60739D02*
X81504Y-60457D01*
X81363Y-60739D02*
X81363Y-60148D01*
X81588Y-60148D01*
X81644Y-60176D01*
X81673Y-60204D01*
X81701Y-60260D01*
X81701Y-60345D01*
X81673Y-60401D01*
X81644Y-60429D01*
X81588Y-60457D01*
X81363Y-60457D01*
X81954Y-60429D02*
X82151Y-60429D01*
X82235Y-60739D02*
X81954Y-60739D01*
X81954Y-60148D01*
X82235Y-60148D01*
X62030Y-60739D02*
X61833Y-60457D01*
X61692Y-60739D02*
X61692Y-60148D01*
X61917Y-60148D01*
X61973Y-60176D01*
X62001Y-60204D01*
X62030Y-60260D01*
X62030Y-60345D01*
X62001Y-60401D01*
X61973Y-60429D01*
X61917Y-60457D01*
X61692Y-60457D01*
X62395Y-60148D02*
X62508Y-60148D01*
X62564Y-60176D01*
X62620Y-60232D01*
X62648Y-60345D01*
X62648Y-60542D01*
X62620Y-60654D01*
X62564Y-60710D01*
X62508Y-60739D01*
X62395Y-60739D01*
X62339Y-60710D01*
X62283Y-60654D01*
X62255Y-60542D01*
X62255Y-60345D01*
X62283Y-60232D01*
X62339Y-60176D01*
X62395Y-60148D01*
X62901Y-60148D02*
X62901Y-60626D01*
X62929Y-60682D01*
X62958Y-60710D01*
X63014Y-60739D01*
X63126Y-60739D01*
X63183Y-60710D01*
X63211Y-60682D01*
X63239Y-60626D01*
X63239Y-60148D01*
X63436Y-60148D02*
X63773Y-60148D01*
X63604Y-60739D02*
X63604Y-60148D01*
X63970Y-60739D02*
X63970Y-60148D01*
X64251Y-60739D02*
X64251Y-60148D01*
X64589Y-60739D01*
X64589Y-60148D01*
X65179Y-60176D02*
X65123Y-60148D01*
X65039Y-60148D01*
X64954Y-60176D01*
X64898Y-60232D01*
X64870Y-60289D01*
X64842Y-60401D01*
X64842Y-60485D01*
X64870Y-60598D01*
X64898Y-60654D01*
X64954Y-60710D01*
X65039Y-60739D01*
X65095Y-60739D01*
X65179Y-60710D01*
X65207Y-60682D01*
X65207Y-60485D01*
X65095Y-60485D01*
X65910Y-60739D02*
X65910Y-60148D01*
X65910Y-60429D02*
X66248Y-60429D01*
X66248Y-60739D02*
X66248Y-60148D01*
X66529Y-60429D02*
X66726Y-60429D01*
X66810Y-60739D02*
X66529Y-60739D01*
X66529Y-60148D01*
X66810Y-60148D01*
X67401Y-60739D02*
X67204Y-60457D01*
X67063Y-60739D02*
X67063Y-60148D01*
X67288Y-60148D01*
X67344Y-60176D01*
X67373Y-60204D01*
X67401Y-60260D01*
X67401Y-60345D01*
X67373Y-60401D01*
X67344Y-60429D01*
X67288Y-60457D01*
X67063Y-60457D01*
X67654Y-60429D02*
X67851Y-60429D01*
X67935Y-60739D02*
X67654Y-60739D01*
X67654Y-60148D01*
X67935Y-60148D01*
X57289Y-58669D02*
X57007Y-58866D01*
X57289Y-59007D02*
X56698Y-59007D01*
X56698Y-58782D01*
X56726Y-58726D01*
X56754Y-58698D01*
X56810Y-58669D01*
X56895Y-58669D01*
X56951Y-58698D01*
X56979Y-58726D01*
X57007Y-58782D01*
X57007Y-59007D01*
X56698Y-58304D02*
X56698Y-58191D01*
X56726Y-58135D01*
X56782Y-58079D01*
X56895Y-58051D01*
X57092Y-58051D01*
X57204Y-58079D01*
X57260Y-58135D01*
X57289Y-58191D01*
X57289Y-58304D01*
X57260Y-58360D01*
X57204Y-58416D01*
X57092Y-58444D01*
X56895Y-58444D01*
X56782Y-58416D01*
X56726Y-58360D01*
X56698Y-58304D01*
X56698Y-57798D02*
X57176Y-57798D01*
X57232Y-57770D01*
X57260Y-57741D01*
X57289Y-57685D01*
X57289Y-57573D01*
X57260Y-57516D01*
X57232Y-57488D01*
X57176Y-57460D01*
X56698Y-57460D01*
X56698Y-57263D02*
X56698Y-56926D01*
X57289Y-57095D02*
X56698Y-57095D01*
X57289Y-56729D02*
X56698Y-56729D01*
X57289Y-56448D02*
X56698Y-56448D01*
X57289Y-56110D01*
X56698Y-56110D01*
X56726Y-55520D02*
X56698Y-55576D01*
X56698Y-55660D01*
X56726Y-55745D01*
X56782Y-55801D01*
X56839Y-55829D01*
X56951Y-55857D01*
X57035Y-55857D01*
X57148Y-55829D01*
X57204Y-55801D01*
X57260Y-55745D01*
X57289Y-55660D01*
X57289Y-55604D01*
X57260Y-55520D01*
X57232Y-55492D01*
X57035Y-55492D01*
X57035Y-55604D01*
X57289Y-54789D02*
X56698Y-54789D01*
X56979Y-54789D02*
X56979Y-54451D01*
X57289Y-54451D02*
X56698Y-54451D01*
X56979Y-54170D02*
X56979Y-53973D01*
X57289Y-53889D02*
X57289Y-54170D01*
X56698Y-54170D01*
X56698Y-53889D01*
X57289Y-53298D02*
X57007Y-53495D01*
X57289Y-53636D02*
X56698Y-53636D01*
X56698Y-53411D01*
X56726Y-53355D01*
X56754Y-53326D01*
X56810Y-53298D01*
X56895Y-53298D01*
X56951Y-53326D01*
X56979Y-53355D01*
X57007Y-53411D01*
X57007Y-53636D01*
X56979Y-53045D02*
X56979Y-52848D01*
X57289Y-52764D02*
X57289Y-53045D01*
X56698Y-53045D01*
X56698Y-52764D01*
X98580Y-55039D02*
X98580Y-54448D01*
X98805Y-54448D01*
X98861Y-54476D01*
X98889Y-54504D01*
X98917Y-54560D01*
X98917Y-54645D01*
X98889Y-54701D01*
X98861Y-54729D01*
X98805Y-54757D01*
X98580Y-54757D01*
X99508Y-54982D02*
X99480Y-55010D01*
X99395Y-55039D01*
X99339Y-55039D01*
X99255Y-55010D01*
X99198Y-54954D01*
X99170Y-54898D01*
X99142Y-54785D01*
X99142Y-54701D01*
X99170Y-54589D01*
X99198Y-54532D01*
X99255Y-54476D01*
X99339Y-54448D01*
X99395Y-54448D01*
X99480Y-54476D01*
X99508Y-54504D01*
X99958Y-54729D02*
X100042Y-54757D01*
X100070Y-54785D01*
X100098Y-54842D01*
X100098Y-54926D01*
X100070Y-54982D01*
X100042Y-55010D01*
X99986Y-55039D01*
X99761Y-55039D01*
X99761Y-54448D01*
X99958Y-54448D01*
X100014Y-54476D01*
X100042Y-54504D01*
X100070Y-54560D01*
X100070Y-54617D01*
X100042Y-54673D01*
X100014Y-54701D01*
X99958Y-54729D01*
X99761Y-54729D01*
X100351Y-54982D02*
X100379Y-55010D01*
X100351Y-55039D01*
X100323Y-55010D01*
X100351Y-54982D01*
X100351Y-55039D01*
X100351Y-54673D02*
X100379Y-54701D01*
X100351Y-54729D01*
X100323Y-54701D01*
X100351Y-54673D01*
X100351Y-54729D01*
X100633Y-55039D02*
X100633Y-54448D01*
X100970Y-55039D01*
X100970Y-54448D01*
X101561Y-54476D02*
X101504Y-54448D01*
X101420Y-54448D01*
X101336Y-54476D01*
X101279Y-54532D01*
X101251Y-54589D01*
X101223Y-54701D01*
X101223Y-54785D01*
X101251Y-54898D01*
X101279Y-54954D01*
X101336Y-55010D01*
X101420Y-55039D01*
X101476Y-55039D01*
X101561Y-55010D01*
X101589Y-54982D01*
X101589Y-54785D01*
X101476Y-54785D01*
X102264Y-55010D02*
X102348Y-55039D01*
X102489Y-55039D01*
X102545Y-55010D01*
X102573Y-54982D01*
X102601Y-54926D01*
X102601Y-54870D01*
X102573Y-54814D01*
X102545Y-54785D01*
X102489Y-54757D01*
X102376Y-54729D01*
X102320Y-54701D01*
X102292Y-54673D01*
X102264Y-54617D01*
X102264Y-54560D01*
X102292Y-54504D01*
X102320Y-54476D01*
X102376Y-54448D01*
X102517Y-54448D01*
X102601Y-54476D01*
X102770Y-54448D02*
X103107Y-54448D01*
X102938Y-55039D02*
X102938Y-54448D01*
X103276Y-54870D02*
X103557Y-54870D01*
X103220Y-55039D02*
X103417Y-54448D01*
X103613Y-55039D01*
X104148Y-54982D02*
X104120Y-55010D01*
X104035Y-55039D01*
X103979Y-55039D01*
X103895Y-55010D01*
X103838Y-54954D01*
X103810Y-54898D01*
X103782Y-54785D01*
X103782Y-54701D01*
X103810Y-54589D01*
X103838Y-54532D01*
X103895Y-54476D01*
X103979Y-54448D01*
X104035Y-54448D01*
X104120Y-54476D01*
X104148Y-54504D01*
X104401Y-55039D02*
X104401Y-54448D01*
X104738Y-55039D02*
X104485Y-54701D01*
X104738Y-54448D02*
X104401Y-54785D01*
X104991Y-54448D02*
X104991Y-54926D01*
X105019Y-54982D01*
X105048Y-55010D01*
X105104Y-55039D01*
X105216Y-55039D01*
X105273Y-55010D01*
X105301Y-54982D01*
X105329Y-54926D01*
X105329Y-54448D01*
X105610Y-55039D02*
X105610Y-54448D01*
X105835Y-54448D01*
X105891Y-54476D01*
X105919Y-54504D01*
X105947Y-54560D01*
X105947Y-54645D01*
X105919Y-54701D01*
X105891Y-54729D01*
X105835Y-54757D01*
X105610Y-54757D01*
G54D13*
X60000Y-60000D02*
X60000Y-39000D01*
G54D11*
X112592Y-49948D02*
X112648Y-49948D01*
X112705Y-49976D01*
X112733Y-50004D01*
X112761Y-50060D01*
X112789Y-50173D01*
X112789Y-50314D01*
X112761Y-50426D01*
X112733Y-50482D01*
X112705Y-50510D01*
X112648Y-50539D01*
X112592Y-50539D01*
X112536Y-50510D01*
X112508Y-50482D01*
X112480Y-50426D01*
X112452Y-50314D01*
X112452Y-50173D01*
X112480Y-50060D01*
X112508Y-50004D01*
X112536Y-49976D01*
X112592Y-49948D01*
X113042Y-50482D02*
X113070Y-50510D01*
X113042Y-50539D01*
X113014Y-50510D01*
X113042Y-50482D01*
X113042Y-50539D01*
X113436Y-49948D02*
X113492Y-49948D01*
X113548Y-49976D01*
X113576Y-50004D01*
X113605Y-50060D01*
X113633Y-50173D01*
X113633Y-50314D01*
X113605Y-50426D01*
X113576Y-50482D01*
X113548Y-50510D01*
X113492Y-50539D01*
X113436Y-50539D01*
X113380Y-50510D01*
X113351Y-50482D01*
X113323Y-50426D01*
X113295Y-50314D01*
X113295Y-50173D01*
X113323Y-50060D01*
X113351Y-50004D01*
X113380Y-49976D01*
X113436Y-49948D01*
X114139Y-49948D02*
X114026Y-49948D01*
X113970Y-49976D01*
X113942Y-50004D01*
X113886Y-50089D01*
X113858Y-50201D01*
X113858Y-50426D01*
X113886Y-50482D01*
X113914Y-50510D01*
X113970Y-50539D01*
X114083Y-50539D01*
X114139Y-50510D01*
X114167Y-50482D01*
X114195Y-50426D01*
X114195Y-50285D01*
X114167Y-50229D01*
X114139Y-50201D01*
X114083Y-50173D01*
X113970Y-50173D01*
X113914Y-50201D01*
X113886Y-50229D01*
X113858Y-50285D01*
X114392Y-49948D02*
X114758Y-49948D01*
X114561Y-50173D01*
X114645Y-50173D01*
X114701Y-50201D01*
X114729Y-50229D01*
X114758Y-50285D01*
X114758Y-50426D01*
X114729Y-50482D01*
X114701Y-50510D01*
X114645Y-50539D01*
X114476Y-50539D01*
X114420Y-50510D01*
X114392Y-50482D01*
X115461Y-50539D02*
X115461Y-50145D01*
X115461Y-50201D02*
X115489Y-50173D01*
X115545Y-50145D01*
X115629Y-50145D01*
X115686Y-50173D01*
X115714Y-50229D01*
X115714Y-50539D01*
X115714Y-50229D02*
X115742Y-50173D01*
X115798Y-50145D01*
X115882Y-50145D01*
X115939Y-50173D01*
X115967Y-50229D01*
X115967Y-50539D01*
X116248Y-50539D02*
X116248Y-50145D01*
X116248Y-49948D02*
X116220Y-49976D01*
X116248Y-50004D01*
X116276Y-49976D01*
X116248Y-49948D01*
X116248Y-50004D01*
X116614Y-50539D02*
X116557Y-50510D01*
X116529Y-50454D01*
X116529Y-49948D01*
X117288Y-50314D02*
X117738Y-50314D01*
X117513Y-50539D02*
X117513Y-50089D01*
X118020Y-50314D02*
X118470Y-50314D01*
X119510Y-50539D02*
X119173Y-50539D01*
X119341Y-50539D02*
X119341Y-49948D01*
X119285Y-50032D01*
X119229Y-50089D01*
X119173Y-50117D01*
X119876Y-49948D02*
X119932Y-49948D01*
X119988Y-49976D01*
X120016Y-50004D01*
X120044Y-50060D01*
X120073Y-50173D01*
X120073Y-50314D01*
X120044Y-50426D01*
X120016Y-50482D01*
X119988Y-50510D01*
X119932Y-50539D01*
X119876Y-50539D01*
X119819Y-50510D01*
X119791Y-50482D01*
X119763Y-50426D01*
X119735Y-50314D01*
X119735Y-50173D01*
X119763Y-50060D01*
X119791Y-50004D01*
X119819Y-49976D01*
X119876Y-49948D01*
X120297Y-50539D02*
X120747Y-49948D01*
X120382Y-49948D02*
X120438Y-49976D01*
X120466Y-50032D01*
X120438Y-50089D01*
X120382Y-50117D01*
X120326Y-50089D01*
X120297Y-50032D01*
X120326Y-49976D01*
X120382Y-49948D01*
X120719Y-50510D02*
X120747Y-50454D01*
X120719Y-50398D01*
X120663Y-50370D01*
X120607Y-50398D01*
X120579Y-50454D01*
X120607Y-50510D01*
X120663Y-50539D01*
X120719Y-50510D01*
G54D13*
X111023Y-53149D02*
X112598Y-53149D01*
X111023Y-47244D02*
X112598Y-47244D01*
X111811Y-47244D02*
X111811Y-53149D01*
G54D12*
X100427Y-50152D02*
X100441Y-50138D01*
X100469Y-50124D01*
X100539Y-50124D01*
X100568Y-50138D01*
X100582Y-50152D01*
X100596Y-50180D01*
X100596Y-50208D01*
X100582Y-50250D01*
X100413Y-50419D01*
X100596Y-50419D01*
X100764Y-50250D02*
X100736Y-50236D01*
X100722Y-50222D01*
X100708Y-50194D01*
X100708Y-50180D01*
X100722Y-50152D01*
X100736Y-50138D01*
X100764Y-50124D01*
X100821Y-50124D01*
X100849Y-50138D01*
X100863Y-50152D01*
X100877Y-50180D01*
X100877Y-50194D01*
X100863Y-50222D01*
X100849Y-50236D01*
X100821Y-50250D01*
X100764Y-50250D01*
X100736Y-50264D01*
X100722Y-50278D01*
X100708Y-50307D01*
X100708Y-50363D01*
X100722Y-50391D01*
X100736Y-50405D01*
X100764Y-50419D01*
X100821Y-50419D01*
X100849Y-50405D01*
X100863Y-50391D01*
X100877Y-50363D01*
X100877Y-50307D01*
X100863Y-50278D01*
X100849Y-50264D01*
X100821Y-50250D01*
X101228Y-50419D02*
X101228Y-50222D01*
X101228Y-50250D02*
X101243Y-50236D01*
X101271Y-50222D01*
X101313Y-50222D01*
X101341Y-50236D01*
X101355Y-50264D01*
X101355Y-50419D01*
X101355Y-50264D02*
X101369Y-50236D01*
X101397Y-50222D01*
X101439Y-50222D01*
X101467Y-50236D01*
X101482Y-50264D01*
X101482Y-50419D01*
X101622Y-50419D02*
X101622Y-50222D01*
X101622Y-50124D02*
X101608Y-50138D01*
X101622Y-50152D01*
X101636Y-50138D01*
X101622Y-50124D01*
X101622Y-50152D01*
X101805Y-50419D02*
X101777Y-50405D01*
X101763Y-50377D01*
X101763Y-50124D01*
X102269Y-50405D02*
X102241Y-50419D01*
X102185Y-50419D01*
X102156Y-50405D01*
X102142Y-50391D01*
X102128Y-50363D01*
X102128Y-50278D01*
X102142Y-50250D01*
X102156Y-50236D01*
X102185Y-50222D01*
X102241Y-50222D01*
X102269Y-50236D01*
X102438Y-50419D02*
X102410Y-50405D01*
X102396Y-50391D01*
X102381Y-50363D01*
X102381Y-50278D01*
X102396Y-50250D01*
X102410Y-50236D01*
X102438Y-50222D01*
X102480Y-50222D01*
X102508Y-50236D01*
X102522Y-50250D01*
X102536Y-50278D01*
X102536Y-50363D01*
X102522Y-50391D01*
X102508Y-50405D01*
X102480Y-50419D01*
X102438Y-50419D01*
X102663Y-50419D02*
X102663Y-50222D01*
X102663Y-50278D02*
X102677Y-50250D01*
X102691Y-50236D01*
X102719Y-50222D01*
X102747Y-50222D01*
X102958Y-50405D02*
X102930Y-50419D01*
X102874Y-50419D01*
X102845Y-50405D01*
X102831Y-50377D01*
X102831Y-50264D01*
X102845Y-50236D01*
X102874Y-50222D01*
X102930Y-50222D01*
X102958Y-50236D01*
X102972Y-50264D01*
X102972Y-50292D01*
X102831Y-50321D01*
X100506Y-48544D02*
X100337Y-48544D01*
X100421Y-48544D02*
X100421Y-48249D01*
X100393Y-48291D01*
X100365Y-48319D01*
X100337Y-48333D01*
X100604Y-48249D02*
X100787Y-48249D01*
X100688Y-48361D01*
X100731Y-48361D01*
X100759Y-48375D01*
X100773Y-48390D01*
X100787Y-48418D01*
X100787Y-48488D01*
X100773Y-48516D01*
X100759Y-48530D01*
X100731Y-48544D01*
X100646Y-48544D01*
X100618Y-48530D01*
X100604Y-48516D01*
X101138Y-48544D02*
X101138Y-48347D01*
X101138Y-48375D02*
X101152Y-48361D01*
X101181Y-48347D01*
X101223Y-48347D01*
X101251Y-48361D01*
X101265Y-48390D01*
X101265Y-48544D01*
X101265Y-48390D02*
X101279Y-48361D01*
X101307Y-48347D01*
X101349Y-48347D01*
X101377Y-48361D01*
X101392Y-48390D01*
X101392Y-48544D01*
X101532Y-48544D02*
X101532Y-48347D01*
X101532Y-48249D02*
X101518Y-48263D01*
X101532Y-48277D01*
X101546Y-48263D01*
X101532Y-48249D01*
X101532Y-48277D01*
X101715Y-48544D02*
X101687Y-48530D01*
X101673Y-48502D01*
X101673Y-48249D01*
X102052Y-48347D02*
X102052Y-48643D01*
X102052Y-48361D02*
X102080Y-48347D01*
X102137Y-48347D01*
X102165Y-48361D01*
X102179Y-48375D01*
X102193Y-48404D01*
X102193Y-48488D01*
X102179Y-48516D01*
X102165Y-48530D01*
X102137Y-48544D01*
X102080Y-48544D01*
X102052Y-48530D01*
X102320Y-48544D02*
X102320Y-48347D01*
X102320Y-48404D02*
X102334Y-48375D01*
X102348Y-48361D01*
X102376Y-48347D01*
X102404Y-48347D01*
X102615Y-48530D02*
X102587Y-48544D01*
X102530Y-48544D01*
X102502Y-48530D01*
X102488Y-48502D01*
X102488Y-48390D01*
X102502Y-48361D01*
X102530Y-48347D01*
X102587Y-48347D01*
X102615Y-48361D01*
X102629Y-48390D01*
X102629Y-48418D01*
X102488Y-48446D01*
X102755Y-48347D02*
X102755Y-48643D01*
X102755Y-48361D02*
X102784Y-48347D01*
X102840Y-48347D01*
X102868Y-48361D01*
X102882Y-48375D01*
X102896Y-48404D01*
X102896Y-48488D01*
X102882Y-48516D01*
X102868Y-48530D01*
X102840Y-48544D01*
X102784Y-48544D01*
X102755Y-48530D01*
X103023Y-48544D02*
X103023Y-48347D01*
X103023Y-48404D02*
X103037Y-48375D01*
X103051Y-48361D01*
X103079Y-48347D01*
X103107Y-48347D01*
X103318Y-48530D02*
X103290Y-48544D01*
X103233Y-48544D01*
X103205Y-48530D01*
X103191Y-48502D01*
X103191Y-48390D01*
X103205Y-48361D01*
X103233Y-48347D01*
X103290Y-48347D01*
X103318Y-48361D01*
X103332Y-48390D01*
X103332Y-48418D01*
X103191Y-48446D01*
X103585Y-48347D02*
X103585Y-48586D01*
X103571Y-48615D01*
X103557Y-48629D01*
X103529Y-48643D01*
X103487Y-48643D01*
X103458Y-48629D01*
X103585Y-48530D02*
X103557Y-48544D01*
X103501Y-48544D01*
X103473Y-48530D01*
X103458Y-48516D01*
X103444Y-48488D01*
X103444Y-48404D01*
X103458Y-48375D01*
X103473Y-48361D01*
X103501Y-48347D01*
X103557Y-48347D01*
X103585Y-48361D01*
G54D11*
X106943Y-50648D02*
X107000Y-50648D01*
X107056Y-50676D01*
X107084Y-50704D01*
X107112Y-50760D01*
X107140Y-50873D01*
X107140Y-51014D01*
X107112Y-51126D01*
X107084Y-51182D01*
X107056Y-51210D01*
X107000Y-51239D01*
X106943Y-51239D01*
X106887Y-51210D01*
X106859Y-51182D01*
X106831Y-51126D01*
X106803Y-51014D01*
X106803Y-50873D01*
X106831Y-50760D01*
X106859Y-50704D01*
X106887Y-50676D01*
X106943Y-50648D01*
X107393Y-51182D02*
X107421Y-51210D01*
X107393Y-51239D01*
X107365Y-51210D01*
X107393Y-51182D01*
X107393Y-51239D01*
X107956Y-50648D02*
X107675Y-50648D01*
X107646Y-50929D01*
X107675Y-50901D01*
X107731Y-50873D01*
X107871Y-50873D01*
X107928Y-50901D01*
X107956Y-50929D01*
X107984Y-50985D01*
X107984Y-51126D01*
X107956Y-51182D01*
X107928Y-51210D01*
X107871Y-51239D01*
X107731Y-51239D01*
X107675Y-51210D01*
X107646Y-51182D01*
X108321Y-51239D02*
X108265Y-51210D01*
X108237Y-51182D01*
X108209Y-51126D01*
X108209Y-50957D01*
X108237Y-50901D01*
X108265Y-50873D01*
X108321Y-50845D01*
X108406Y-50845D01*
X108462Y-50873D01*
X108490Y-50901D01*
X108518Y-50957D01*
X108518Y-51126D01*
X108490Y-51182D01*
X108462Y-51210D01*
X108406Y-51239D01*
X108321Y-51239D01*
X108715Y-50845D02*
X109024Y-50845D01*
X108715Y-51239D01*
X109024Y-51239D01*
X106943Y-48748D02*
X107000Y-48748D01*
X107056Y-48776D01*
X107084Y-48804D01*
X107112Y-48860D01*
X107140Y-48973D01*
X107140Y-49114D01*
X107112Y-49226D01*
X107084Y-49282D01*
X107056Y-49310D01*
X107000Y-49339D01*
X106943Y-49339D01*
X106887Y-49310D01*
X106859Y-49282D01*
X106831Y-49226D01*
X106803Y-49114D01*
X106803Y-48973D01*
X106831Y-48860D01*
X106859Y-48804D01*
X106887Y-48776D01*
X106943Y-48748D01*
X107393Y-49282D02*
X107421Y-49310D01*
X107393Y-49339D01*
X107365Y-49310D01*
X107393Y-49282D01*
X107393Y-49339D01*
X107956Y-48748D02*
X107675Y-48748D01*
X107646Y-49029D01*
X107675Y-49001D01*
X107731Y-48973D01*
X107871Y-48973D01*
X107928Y-49001D01*
X107956Y-49029D01*
X107984Y-49085D01*
X107984Y-49226D01*
X107956Y-49282D01*
X107928Y-49310D01*
X107871Y-49339D01*
X107731Y-49339D01*
X107675Y-49310D01*
X107646Y-49282D01*
X108321Y-49339D02*
X108265Y-49310D01*
X108237Y-49282D01*
X108209Y-49226D01*
X108209Y-49057D01*
X108237Y-49001D01*
X108265Y-48973D01*
X108321Y-48945D01*
X108406Y-48945D01*
X108462Y-48973D01*
X108490Y-49001D01*
X108518Y-49057D01*
X108518Y-49226D01*
X108490Y-49282D01*
X108462Y-49310D01*
X108406Y-49339D01*
X108321Y-49339D01*
X108715Y-48945D02*
X109024Y-48945D01*
X108715Y-49339D01*
X109024Y-49339D01*
X107562Y-53139D02*
X107225Y-53139D01*
X107393Y-53139D02*
X107393Y-52548D01*
X107337Y-52632D01*
X107281Y-52689D01*
X107225Y-52717D01*
X107900Y-53139D02*
X107843Y-53110D01*
X107815Y-53082D01*
X107787Y-53026D01*
X107787Y-52857D01*
X107815Y-52801D01*
X107843Y-52773D01*
X107900Y-52745D01*
X107984Y-52745D01*
X108040Y-52773D01*
X108068Y-52801D01*
X108096Y-52857D01*
X108096Y-53026D01*
X108068Y-53082D01*
X108040Y-53110D01*
X107984Y-53139D01*
X107900Y-53139D01*
X108293Y-52745D02*
X108603Y-52745D01*
X108293Y-53139D01*
X108603Y-53139D01*
X107536Y-47483D02*
X107199Y-47483D01*
X107367Y-47483D02*
X107367Y-46892D01*
X107311Y-46976D01*
X107255Y-47033D01*
X107199Y-47061D01*
X107874Y-47483D02*
X107817Y-47455D01*
X107789Y-47426D01*
X107761Y-47370D01*
X107761Y-47201D01*
X107789Y-47145D01*
X107817Y-47117D01*
X107874Y-47089D01*
X107958Y-47089D01*
X108014Y-47117D01*
X108042Y-47145D01*
X108070Y-47201D01*
X108070Y-47370D01*
X108042Y-47426D01*
X108014Y-47455D01*
X107958Y-47483D01*
X107874Y-47483D01*
X108267Y-47089D02*
X108577Y-47089D01*
X108267Y-47483D01*
X108577Y-47483D01*
X93584Y-52917D02*
X93669Y-52945D01*
X93697Y-52973D01*
X93725Y-53029D01*
X93725Y-53113D01*
X93697Y-53170D01*
X93669Y-53198D01*
X93612Y-53226D01*
X93387Y-53226D01*
X93387Y-52635D01*
X93584Y-52635D01*
X93640Y-52664D01*
X93669Y-52692D01*
X93697Y-52748D01*
X93697Y-52804D01*
X93669Y-52860D01*
X93640Y-52888D01*
X93584Y-52917D01*
X93387Y-52917D01*
X94062Y-53226D02*
X94006Y-53198D01*
X93978Y-53170D01*
X93950Y-53113D01*
X93950Y-52945D01*
X93978Y-52888D01*
X94006Y-52860D01*
X94062Y-52832D01*
X94147Y-52832D01*
X94203Y-52860D01*
X94231Y-52888D01*
X94259Y-52945D01*
X94259Y-53113D01*
X94231Y-53170D01*
X94203Y-53198D01*
X94147Y-53226D01*
X94062Y-53226D01*
X94428Y-52832D02*
X94653Y-52832D01*
X94512Y-52635D02*
X94512Y-53142D01*
X94540Y-53198D01*
X94597Y-53226D01*
X94653Y-53226D01*
X94765Y-52832D02*
X94990Y-52832D01*
X94850Y-52635D02*
X94850Y-53142D01*
X94878Y-53198D01*
X94934Y-53226D01*
X94990Y-53226D01*
X95271Y-53226D02*
X95215Y-53198D01*
X95187Y-53170D01*
X95159Y-53113D01*
X95159Y-52945D01*
X95187Y-52888D01*
X95215Y-52860D01*
X95271Y-52832D01*
X95356Y-52832D01*
X95412Y-52860D01*
X95440Y-52888D01*
X95468Y-52945D01*
X95468Y-53113D01*
X95440Y-53170D01*
X95412Y-53198D01*
X95356Y-53226D01*
X95271Y-53226D01*
X95721Y-53226D02*
X95721Y-52832D01*
X95721Y-52888D02*
X95750Y-52860D01*
X95806Y-52832D01*
X95890Y-52832D01*
X95946Y-52860D01*
X95975Y-52917D01*
X95975Y-53226D01*
X95975Y-52917D02*
X96003Y-52860D01*
X96059Y-52832D01*
X96143Y-52832D01*
X96200Y-52860D01*
X96228Y-52917D01*
X96228Y-53226D01*
X97240Y-53226D02*
X96959Y-53226D01*
X96959Y-52635D01*
X97690Y-53226D02*
X97690Y-52917D01*
X97662Y-52860D01*
X97606Y-52832D01*
X97493Y-52832D01*
X97437Y-52860D01*
X97690Y-53198D02*
X97634Y-53226D01*
X97493Y-53226D01*
X97437Y-53198D01*
X97409Y-53142D01*
X97409Y-53085D01*
X97437Y-53029D01*
X97493Y-53001D01*
X97634Y-53001D01*
X97690Y-52973D01*
X97915Y-52832D02*
X98056Y-53226D01*
X98196Y-52832D02*
X98056Y-53226D01*
X97999Y-53367D01*
X97971Y-53395D01*
X97915Y-53423D01*
X98646Y-53198D02*
X98590Y-53226D01*
X98477Y-53226D01*
X98421Y-53198D01*
X98393Y-53142D01*
X98393Y-52917D01*
X98421Y-52860D01*
X98477Y-52832D01*
X98590Y-52832D01*
X98646Y-52860D01*
X98674Y-52917D01*
X98674Y-52973D01*
X98393Y-53029D01*
X98927Y-53226D02*
X98927Y-52832D01*
X98927Y-52945D02*
X98955Y-52888D01*
X98984Y-52860D01*
X99040Y-52832D01*
X99096Y-52832D01*
X96109Y-51432D02*
X96109Y-50842D01*
X96390Y-51039D02*
X96390Y-51432D01*
X96390Y-51095D02*
X96418Y-51067D01*
X96475Y-51039D01*
X96559Y-51039D01*
X96615Y-51067D01*
X96643Y-51123D01*
X96643Y-51432D01*
X96925Y-51039D02*
X96925Y-51432D01*
X96925Y-51095D02*
X96953Y-51067D01*
X97009Y-51039D01*
X97093Y-51039D01*
X97150Y-51067D01*
X97178Y-51123D01*
X97178Y-51432D01*
X97684Y-51404D02*
X97628Y-51432D01*
X97515Y-51432D01*
X97459Y-51404D01*
X97431Y-51348D01*
X97431Y-51123D01*
X97459Y-51067D01*
X97515Y-51039D01*
X97628Y-51039D01*
X97684Y-51067D01*
X97712Y-51123D01*
X97712Y-51179D01*
X97431Y-51235D01*
X97965Y-51432D02*
X97965Y-51039D01*
X97965Y-51151D02*
X97993Y-51095D01*
X98021Y-51067D01*
X98078Y-51039D01*
X98134Y-51039D01*
X98977Y-51123D02*
X99062Y-51151D01*
X99090Y-51179D01*
X99118Y-51235D01*
X99118Y-51320D01*
X99090Y-51376D01*
X99062Y-51404D01*
X99006Y-51432D01*
X98781Y-51432D01*
X98781Y-50842D01*
X98977Y-50842D01*
X99034Y-50870D01*
X99062Y-50898D01*
X99090Y-50954D01*
X99090Y-51010D01*
X99062Y-51067D01*
X99034Y-51095D01*
X98977Y-51123D01*
X98781Y-51123D01*
X96151Y-49539D02*
X96151Y-48948D01*
X96432Y-49145D02*
X96432Y-49539D01*
X96432Y-49201D02*
X96461Y-49173D01*
X96517Y-49145D01*
X96601Y-49145D01*
X96657Y-49173D01*
X96686Y-49229D01*
X96686Y-49539D01*
X96967Y-49145D02*
X96967Y-49539D01*
X96967Y-49201D02*
X96995Y-49173D01*
X97051Y-49145D01*
X97135Y-49145D01*
X97192Y-49173D01*
X97220Y-49229D01*
X97220Y-49539D01*
X97726Y-49510D02*
X97670Y-49539D01*
X97557Y-49539D01*
X97501Y-49510D01*
X97473Y-49454D01*
X97473Y-49229D01*
X97501Y-49173D01*
X97557Y-49145D01*
X97670Y-49145D01*
X97726Y-49173D01*
X97754Y-49229D01*
X97754Y-49285D01*
X97473Y-49342D01*
X98007Y-49539D02*
X98007Y-49145D01*
X98007Y-49257D02*
X98035Y-49201D01*
X98064Y-49173D01*
X98120Y-49145D01*
X98176Y-49145D01*
X98795Y-49370D02*
X99076Y-49370D01*
X98738Y-49539D02*
X98935Y-48948D01*
X99132Y-49539D01*
X94904Y-46954D02*
X95242Y-46954D01*
X95073Y-47545D02*
X95073Y-46954D01*
X95523Y-47545D02*
X95467Y-47517D01*
X95439Y-47489D01*
X95411Y-47432D01*
X95411Y-47264D01*
X95439Y-47207D01*
X95467Y-47179D01*
X95523Y-47151D01*
X95607Y-47151D01*
X95664Y-47179D01*
X95692Y-47207D01*
X95720Y-47264D01*
X95720Y-47432D01*
X95692Y-47489D01*
X95664Y-47517D01*
X95607Y-47545D01*
X95523Y-47545D01*
X95973Y-47151D02*
X95973Y-47742D01*
X95973Y-47179D02*
X96029Y-47151D01*
X96142Y-47151D01*
X96198Y-47179D01*
X96226Y-47207D01*
X96254Y-47264D01*
X96254Y-47432D01*
X96226Y-47489D01*
X96198Y-47517D01*
X96142Y-47545D01*
X96029Y-47545D01*
X95973Y-47517D01*
X97239Y-47545D02*
X96957Y-47545D01*
X96957Y-46954D01*
X97688Y-47545D02*
X97688Y-47235D01*
X97660Y-47179D01*
X97604Y-47151D01*
X97492Y-47151D01*
X97435Y-47179D01*
X97688Y-47517D02*
X97632Y-47545D01*
X97492Y-47545D01*
X97435Y-47517D01*
X97407Y-47460D01*
X97407Y-47404D01*
X97435Y-47348D01*
X97492Y-47320D01*
X97632Y-47320D01*
X97688Y-47292D01*
X97913Y-47151D02*
X98054Y-47545D01*
X98195Y-47151D02*
X98054Y-47545D01*
X97998Y-47685D01*
X97970Y-47714D01*
X97913Y-47742D01*
X98645Y-47517D02*
X98588Y-47545D01*
X98476Y-47545D01*
X98420Y-47517D01*
X98392Y-47460D01*
X98392Y-47235D01*
X98420Y-47179D01*
X98476Y-47151D01*
X98588Y-47151D01*
X98645Y-47179D01*
X98673Y-47235D01*
X98673Y-47292D01*
X98392Y-47348D01*
X98926Y-47545D02*
X98926Y-47151D01*
X98926Y-47264D02*
X98954Y-47207D01*
X98982Y-47179D01*
X99038Y-47151D01*
X99095Y-47151D01*
G54D13*
X99300Y-51193D02*
X104400Y-51193D01*
G54D11*
X104796Y-51176D02*
X104825Y-51204D01*
X104796Y-51232D01*
X104768Y-51204D01*
X104796Y-51176D01*
X104796Y-51232D01*
X105331Y-50839D02*
X105331Y-51317D01*
X105303Y-51373D01*
X105275Y-51401D01*
X105218Y-51429D01*
X105134Y-51429D01*
X105078Y-51401D01*
X105331Y-51204D02*
X105275Y-51232D01*
X105162Y-51232D01*
X105106Y-51204D01*
X105078Y-51176D01*
X105050Y-51120D01*
X105050Y-50951D01*
X105078Y-50895D01*
X105106Y-50867D01*
X105162Y-50839D01*
X105275Y-50839D01*
X105331Y-50867D01*
X105556Y-50642D02*
X105921Y-50642D01*
X105724Y-50867D01*
X105809Y-50867D01*
X105865Y-50895D01*
X105893Y-50923D01*
X105921Y-50979D01*
X105921Y-51120D01*
X105893Y-51176D01*
X105865Y-51204D01*
X105809Y-51232D01*
X105640Y-51232D01*
X105584Y-51204D01*
X105556Y-51176D01*
X106259Y-51232D02*
X106203Y-51204D01*
X106174Y-51148D01*
X106174Y-50642D01*
X104911Y-53070D02*
X104939Y-53098D01*
X104911Y-53126D01*
X104882Y-53098D01*
X104911Y-53070D01*
X104911Y-53126D01*
X105445Y-52732D02*
X105445Y-53210D01*
X105417Y-53267D01*
X105389Y-53295D01*
X105332Y-53323D01*
X105248Y-53323D01*
X105192Y-53295D01*
X105445Y-53098D02*
X105389Y-53126D01*
X105276Y-53126D01*
X105220Y-53098D01*
X105192Y-53070D01*
X105164Y-53013D01*
X105164Y-52845D01*
X105192Y-52788D01*
X105220Y-52760D01*
X105276Y-52732D01*
X105389Y-52732D01*
X105445Y-52760D01*
X105726Y-53126D02*
X105726Y-52535D01*
X105726Y-52760D02*
X105782Y-52732D01*
X105895Y-52732D01*
X105951Y-52760D01*
X105979Y-52788D01*
X106007Y-52845D01*
X106007Y-53013D01*
X105979Y-53070D01*
X105951Y-53098D01*
X105895Y-53126D01*
X105782Y-53126D01*
X105726Y-53098D01*
X106345Y-53126D02*
X106288Y-53098D01*
X106260Y-53042D01*
X106260Y-52535D01*
G54D13*
X99300Y-53087D02*
X104400Y-53087D01*
X99300Y-49300D02*
X104400Y-49300D01*
G54D11*
X104896Y-49282D02*
X104925Y-49310D01*
X104896Y-49339D01*
X104868Y-49310D01*
X104896Y-49282D01*
X104896Y-49339D01*
X105431Y-48945D02*
X105431Y-49423D01*
X105403Y-49479D01*
X105375Y-49507D01*
X105318Y-49535D01*
X105234Y-49535D01*
X105178Y-49507D01*
X105431Y-49310D02*
X105375Y-49339D01*
X105262Y-49339D01*
X105206Y-49310D01*
X105178Y-49282D01*
X105150Y-49226D01*
X105150Y-49057D01*
X105178Y-49001D01*
X105206Y-48973D01*
X105262Y-48945D01*
X105375Y-48945D01*
X105431Y-48973D01*
X105684Y-48804D02*
X105712Y-48776D01*
X105768Y-48748D01*
X105909Y-48748D01*
X105965Y-48776D01*
X105993Y-48804D01*
X106021Y-48860D01*
X106021Y-48917D01*
X105993Y-49001D01*
X105656Y-49339D01*
X106021Y-49339D01*
X106359Y-49339D02*
X106303Y-49310D01*
X106274Y-49254D01*
X106274Y-48748D01*
X104909Y-47489D02*
X104937Y-47517D01*
X104909Y-47545D01*
X104881Y-47517D01*
X104909Y-47489D01*
X104909Y-47545D01*
X105443Y-47151D02*
X105443Y-47629D01*
X105415Y-47685D01*
X105387Y-47714D01*
X105331Y-47742D01*
X105246Y-47742D01*
X105190Y-47714D01*
X105443Y-47517D02*
X105387Y-47545D01*
X105275Y-47545D01*
X105218Y-47517D01*
X105190Y-47489D01*
X105162Y-47432D01*
X105162Y-47264D01*
X105190Y-47207D01*
X105218Y-47179D01*
X105275Y-47151D01*
X105387Y-47151D01*
X105443Y-47179D01*
X105640Y-47151D02*
X105865Y-47151D01*
X105724Y-46954D02*
X105724Y-47460D01*
X105753Y-47517D01*
X105809Y-47545D01*
X105865Y-47545D01*
X106146Y-47545D02*
X106090Y-47517D01*
X106062Y-47460D01*
X106062Y-46954D01*
G54D13*
X99300Y-47406D02*
X104400Y-47406D01*
G54D14*
X84000Y-44049D02*
X86599Y-44049D01*
X84000Y-41450D02*
X86599Y-41450D01*
X86599Y-44049D02*
X86599Y-41450D01*
X84000Y-44049D02*
X84000Y-41450D01*
G54D15*
X71068Y-59506D02*
X73431Y-59506D01*
X73824Y-59506D02*
X73824Y-59112D01*
X73824Y-59112D02*
X70675Y-59112D01*
X70675Y-59506D02*
X70675Y-59112D01*
X73431Y-59900D02*
X73431Y-59506D01*
X71068Y-59900D02*
X71068Y-59506D01*
G54D14*
X73400Y-60000D02*
G75*
G03X73400Y-61000I500J-500D01*
G74*
G01*
X71100Y-61000D02*
G75*
G03X71100Y-60000I-500J500D01*
G74*
G01*
X71068Y-59998D02*
X68312Y-59998D01*
X73431Y-59998D02*
X76187Y-59998D01*
X73400Y-61000D02*
X76187Y-61000D01*
X71100Y-61000D02*
X68312Y-61000D01*
G54D15*
X73431Y-39493D02*
X71068Y-39493D01*
X70675Y-39493D02*
X70675Y-39887D01*
X70675Y-39887D02*
X73824Y-39887D01*
X73824Y-39493D02*
X73824Y-39887D01*
X71068Y-39100D02*
X71068Y-39493D01*
X73431Y-39100D02*
X73431Y-39493D01*
G54D14*
X71100Y-39000D02*
G75*
G03X71100Y-38000I-500J500D01*
G74*
G01*
X73400Y-38000D02*
G75*
G03X73400Y-39000I500J-500D01*
G74*
G01*
X73431Y-39001D02*
X76187Y-39001D01*
X71068Y-39001D02*
X68312Y-39001D01*
X71100Y-38000D02*
X68312Y-38000D01*
X73400Y-38000D02*
X76187Y-38000D01*
G54D15*
X57993Y-48318D02*
X57993Y-50681D01*
X57993Y-51074D02*
X58387Y-51074D01*
X58387Y-51074D02*
X58387Y-47925D01*
X57993Y-47925D02*
X58387Y-47925D01*
X57600Y-50681D02*
X57993Y-50681D01*
X57600Y-48318D02*
X57993Y-48318D01*
G54D14*
X57500Y-50650D02*
G75*
G03X56500Y-50650I-500J-500D01*
G74*
G01*
X56500Y-48350D02*
G75*
G03X57500Y-48350I500J500D01*
G74*
G01*
X57501Y-48318D02*
X57501Y-45562D01*
X57501Y-50681D02*
X57501Y-53437D01*
X56500Y-50650D02*
X56500Y-53437D01*
X56500Y-48350D02*
X56500Y-45562D01*
G54D15*
X86506Y-50681D02*
X86506Y-48318D01*
X86506Y-47925D02*
X86112Y-47925D01*
X86112Y-47925D02*
X86112Y-51074D01*
X86506Y-51074D02*
X86112Y-51074D01*
X86900Y-48318D02*
X86506Y-48318D01*
X86900Y-50681D02*
X86506Y-50681D01*
G54D14*
X87000Y-48350D02*
G75*
G03X88000Y-48350I500J500D01*
G74*
G01*
X88000Y-50650D02*
G75*
G03X87000Y-50650I-500J-500D01*
G74*
G01*
X86998Y-50681D02*
X86998Y-53437D01*
X86998Y-48318D02*
X86998Y-45562D01*
X88000Y-48350D02*
X88000Y-45562D01*
X88000Y-50650D02*
X88000Y-53437D01*
X63393Y-40741D02*
X63393Y-38733D01*
X66346Y-40741D02*
X66346Y-38733D01*
X66346Y-40741D02*
X63393Y-40741D01*
X66346Y-38733D02*
X63393Y-38733D01*
X66700Y-39029D02*
X62999Y-39029D01*
X57565Y-55881D02*
X59482Y-55881D01*
X57565Y-53518D02*
X59482Y-53518D01*
X59482Y-55881D02*
X59482Y-53518D01*
X57565Y-55881D02*
X57565Y-53518D01*
X59537Y-45535D02*
X59537Y-47464D01*
X57962Y-45314D02*
X57962Y-43385D01*
M02*
