G04 (created by PCBNEW (2013-07-07 BZR 4022)-stable) date 8/10/2016 12:18:07 AM*
%MOIN*%
G04 Gerber Fmt 3.4, Leading zero omitted, Abs format*
%FSLAX34Y34*%
G01*
G70*
G90*
G04 APERTURE LIST*
%ADD10C,0.00590551*%
%ADD11C,0.005*%
%ADD12C,0.00738189*%
%ADD13C,0.0001*%
%ADD14R,0.102063X0.102063*%
%ADD15C,0.0867087*%
%ADD16R,0.311512X0.0689921*%
%ADD17C,0.230409*%
%ADD18R,0.0410394X0.0365118*%
%ADD19R,0.040252X0.115843*%
%ADD20R,0.0374961X0.029622*%
%ADD21R,0.0374961X0.0374961*%
%ADD22R,0.0532441X0.0414331*%
%ADD23R,0.0414331X0.0532441*%
%ADD24R,0.0729291X0.0378898*%
%ADD25R,0.0473386X0.0378898*%
%ADD26R,0.0611181X0.0532441*%
%ADD27R,0.0453701X0.0670236*%
%ADD28R,0.0245039X0.0453701*%
%ADD29R,0.0192913X0.0448819*%
%ADD30R,0.0448819X0.0192913*%
%ADD31R,0.0905512X0.0905512*%
%ADD32R,0.0630866X0.0237165*%
%ADD33R,0.0276535X0.0374961*%
%ADD34R,0.029622X0.0670236*%
%ADD35R,0.0304094X0.0540315*%
%ADD36R,0.029622X0.0335591*%
%ADD37R,0.0335591X0.029622*%
%ADD38R,0.029622X0.0374961*%
%ADD39R,0.0314961X0.0295276*%
%ADD40R,0.0453701X0.0453701*%
%ADD41R,0.100488X0.0650551*%
%ADD42R,0.0197795X0.0453701*%
%ADD43R,0.0650551X0.100488*%
%ADD44C,0.025685*%
%ADD45R,0.0571811X0.0670236*%
%ADD46R,0.0295276X0.0314961*%
%ADD47R,0.061X0.061*%
%ADD48C,0.061*%
%ADD49C,0.0787402*%
%ADD50R,0.0374961X0.0170236*%
%ADD51R,0.0170236X0.0374961*%
%ADD52R,0.0886772X0.0886772*%
%ADD53R,0.021748X0.0591496*%
%ADD54R,0.0886772X0.0689921*%
%ADD55R,0.0768661X0.0808031*%
%ADD56R,0.0808031X0.0808031*%
%ADD57R,0.0335591X0.0847402*%
%ADD58R,0.0847402X0.0335591*%
%ADD59R,0.0160236X0.0384646*%
%ADD60R,0.0384646X0.0160236*%
%ADD61R,0.172323X0.172323*%
%ADD62C,0.0737165*%
G04 APERTURE END LIST*
G54D10*
G54D11*
X76252Y-40830D02*
X76252Y-40630D01*
X76300Y-40630D01*
X76328Y-40640D01*
X76347Y-40659D01*
X76357Y-40678D01*
X76366Y-40716D01*
X76366Y-40745D01*
X76357Y-40783D01*
X76347Y-40802D01*
X76328Y-40821D01*
X76300Y-40830D01*
X76252Y-40830D01*
X76480Y-40716D02*
X76461Y-40707D01*
X76452Y-40697D01*
X76442Y-40678D01*
X76442Y-40669D01*
X76452Y-40650D01*
X76461Y-40640D01*
X76480Y-40630D01*
X76519Y-40630D01*
X76538Y-40640D01*
X76547Y-40650D01*
X76557Y-40669D01*
X76557Y-40678D01*
X76547Y-40697D01*
X76538Y-40707D01*
X76519Y-40716D01*
X76480Y-40716D01*
X76461Y-40726D01*
X76452Y-40735D01*
X76442Y-40754D01*
X76442Y-40792D01*
X76452Y-40811D01*
X76461Y-40821D01*
X76480Y-40830D01*
X76519Y-40830D01*
X76538Y-40821D01*
X76547Y-40811D01*
X76557Y-40792D01*
X76557Y-40754D01*
X76547Y-40735D01*
X76538Y-40726D01*
X76519Y-40716D01*
X77852Y-40830D02*
X77852Y-40630D01*
X77900Y-40630D01*
X77928Y-40640D01*
X77947Y-40659D01*
X77957Y-40678D01*
X77966Y-40716D01*
X77966Y-40745D01*
X77957Y-40783D01*
X77947Y-40802D01*
X77928Y-40821D01*
X77900Y-40830D01*
X77852Y-40830D01*
X78033Y-40630D02*
X78166Y-40630D01*
X78080Y-40830D01*
X78852Y-40830D02*
X78852Y-40630D01*
X78900Y-40630D01*
X78928Y-40640D01*
X78947Y-40659D01*
X78957Y-40678D01*
X78966Y-40716D01*
X78966Y-40745D01*
X78957Y-40783D01*
X78947Y-40802D01*
X78928Y-40821D01*
X78900Y-40830D01*
X78852Y-40830D01*
X79138Y-40630D02*
X79100Y-40630D01*
X79080Y-40640D01*
X79071Y-40650D01*
X79052Y-40678D01*
X79042Y-40716D01*
X79042Y-40792D01*
X79052Y-40811D01*
X79061Y-40821D01*
X79080Y-40830D01*
X79119Y-40830D01*
X79138Y-40821D01*
X79147Y-40811D01*
X79157Y-40792D01*
X79157Y-40745D01*
X79147Y-40726D01*
X79138Y-40716D01*
X79119Y-40707D01*
X79080Y-40707D01*
X79061Y-40716D01*
X79052Y-40726D01*
X79042Y-40745D01*
X79852Y-40830D02*
X79852Y-40630D01*
X79900Y-40630D01*
X79928Y-40640D01*
X79947Y-40659D01*
X79957Y-40678D01*
X79966Y-40716D01*
X79966Y-40745D01*
X79957Y-40783D01*
X79947Y-40802D01*
X79928Y-40821D01*
X79900Y-40830D01*
X79852Y-40830D01*
X80147Y-40630D02*
X80052Y-40630D01*
X80042Y-40726D01*
X80052Y-40716D01*
X80071Y-40707D01*
X80119Y-40707D01*
X80138Y-40716D01*
X80147Y-40726D01*
X80157Y-40745D01*
X80157Y-40792D01*
X80147Y-40811D01*
X80138Y-40821D01*
X80119Y-40830D01*
X80071Y-40830D01*
X80052Y-40821D01*
X80042Y-40811D01*
X80852Y-40830D02*
X80852Y-40630D01*
X80900Y-40630D01*
X80928Y-40640D01*
X80947Y-40659D01*
X80957Y-40678D01*
X80966Y-40716D01*
X80966Y-40745D01*
X80957Y-40783D01*
X80947Y-40802D01*
X80928Y-40821D01*
X80900Y-40830D01*
X80852Y-40830D01*
X81138Y-40697D02*
X81138Y-40830D01*
X81090Y-40621D02*
X81042Y-40764D01*
X81166Y-40764D01*
X81852Y-40830D02*
X81852Y-40630D01*
X81900Y-40630D01*
X81928Y-40640D01*
X81947Y-40659D01*
X81957Y-40678D01*
X81966Y-40716D01*
X81966Y-40745D01*
X81957Y-40783D01*
X81947Y-40802D01*
X81928Y-40821D01*
X81900Y-40830D01*
X81852Y-40830D01*
X82033Y-40630D02*
X82157Y-40630D01*
X82090Y-40707D01*
X82119Y-40707D01*
X82138Y-40716D01*
X82147Y-40726D01*
X82157Y-40745D01*
X82157Y-40792D01*
X82147Y-40811D01*
X82138Y-40821D01*
X82119Y-40830D01*
X82061Y-40830D01*
X82042Y-40821D01*
X82033Y-40811D01*
X82852Y-40830D02*
X82852Y-40630D01*
X82900Y-40630D01*
X82928Y-40640D01*
X82947Y-40659D01*
X82957Y-40678D01*
X82966Y-40716D01*
X82966Y-40745D01*
X82957Y-40783D01*
X82947Y-40802D01*
X82928Y-40821D01*
X82900Y-40830D01*
X82852Y-40830D01*
X83042Y-40650D02*
X83052Y-40640D01*
X83071Y-40630D01*
X83119Y-40630D01*
X83138Y-40640D01*
X83147Y-40650D01*
X83157Y-40669D01*
X83157Y-40688D01*
X83147Y-40716D01*
X83033Y-40830D01*
X83157Y-40830D01*
X83852Y-40830D02*
X83852Y-40630D01*
X83900Y-40630D01*
X83928Y-40640D01*
X83947Y-40659D01*
X83957Y-40678D01*
X83966Y-40716D01*
X83966Y-40745D01*
X83957Y-40783D01*
X83947Y-40802D01*
X83928Y-40821D01*
X83900Y-40830D01*
X83852Y-40830D01*
X84157Y-40830D02*
X84042Y-40830D01*
X84100Y-40830D02*
X84100Y-40630D01*
X84080Y-40659D01*
X84061Y-40678D01*
X84042Y-40688D01*
X84852Y-40830D02*
X84852Y-40630D01*
X84900Y-40630D01*
X84928Y-40640D01*
X84947Y-40659D01*
X84957Y-40678D01*
X84966Y-40716D01*
X84966Y-40745D01*
X84957Y-40783D01*
X84947Y-40802D01*
X84928Y-40821D01*
X84900Y-40830D01*
X84852Y-40830D01*
X85090Y-40630D02*
X85109Y-40630D01*
X85128Y-40640D01*
X85138Y-40650D01*
X85147Y-40669D01*
X85157Y-40707D01*
X85157Y-40754D01*
X85147Y-40792D01*
X85138Y-40811D01*
X85128Y-40821D01*
X85109Y-40830D01*
X85090Y-40830D01*
X85071Y-40821D01*
X85061Y-40811D01*
X85052Y-40792D01*
X85042Y-40754D01*
X85042Y-40707D01*
X85052Y-40669D01*
X85061Y-40650D01*
X85071Y-40640D01*
X85090Y-40630D01*
G54D12*
X60369Y-45031D02*
X60074Y-45031D01*
X60074Y-44919D01*
X60088Y-44891D01*
X60102Y-44877D01*
X60130Y-44863D01*
X60172Y-44863D01*
X60200Y-44877D01*
X60214Y-44891D01*
X60228Y-44919D01*
X60228Y-45031D01*
X60074Y-44680D02*
X60074Y-44624D01*
X60088Y-44596D01*
X60116Y-44567D01*
X60172Y-44553D01*
X60271Y-44553D01*
X60327Y-44567D01*
X60355Y-44596D01*
X60369Y-44624D01*
X60369Y-44680D01*
X60355Y-44708D01*
X60327Y-44736D01*
X60271Y-44750D01*
X60172Y-44750D01*
X60116Y-44736D01*
X60088Y-44708D01*
X60074Y-44680D01*
X60074Y-44455D02*
X60369Y-44385D01*
X60158Y-44328D01*
X60369Y-44272D01*
X60074Y-44202D01*
X60214Y-44089D02*
X60214Y-43991D01*
X60369Y-43949D02*
X60369Y-44089D01*
X60074Y-44089D01*
X60074Y-43949D01*
X60369Y-43653D02*
X60228Y-43752D01*
X60369Y-43822D02*
X60074Y-43822D01*
X60074Y-43710D01*
X60088Y-43682D01*
X60102Y-43668D01*
X60130Y-43653D01*
X60172Y-43653D01*
X60200Y-43668D01*
X60214Y-43682D01*
X60228Y-43710D01*
X60228Y-43822D01*
X60369Y-47266D02*
X60074Y-47266D01*
X60285Y-47167D01*
X60074Y-47069D01*
X60369Y-47069D01*
X60074Y-46872D02*
X60074Y-46816D01*
X60088Y-46788D01*
X60116Y-46760D01*
X60172Y-46746D01*
X60271Y-46746D01*
X60327Y-46760D01*
X60355Y-46788D01*
X60369Y-46816D01*
X60369Y-46872D01*
X60355Y-46900D01*
X60327Y-46928D01*
X60271Y-46942D01*
X60172Y-46942D01*
X60116Y-46928D01*
X60088Y-46900D01*
X60074Y-46872D01*
X60355Y-46633D02*
X60369Y-46591D01*
X60369Y-46521D01*
X60355Y-46492D01*
X60341Y-46478D01*
X60313Y-46464D01*
X60285Y-46464D01*
X60257Y-46478D01*
X60242Y-46492D01*
X60228Y-46521D01*
X60214Y-46577D01*
X60200Y-46605D01*
X60186Y-46619D01*
X60158Y-46633D01*
X60130Y-46633D01*
X60102Y-46619D01*
X60088Y-46605D01*
X60074Y-46577D01*
X60074Y-46507D01*
X60088Y-46464D01*
X60214Y-46239D02*
X60214Y-46338D01*
X60369Y-46338D02*
X60074Y-46338D01*
X60074Y-46197D01*
X60214Y-46085D02*
X60214Y-45986D01*
X60369Y-45944D02*
X60369Y-46085D01*
X60074Y-46085D01*
X60074Y-45944D01*
X60074Y-45860D02*
X60074Y-45691D01*
X60369Y-45775D02*
X60074Y-45775D01*
X59825Y-46141D02*
X59825Y-46310D01*
X59530Y-46225D02*
X59825Y-46225D01*
X59614Y-46394D02*
X59614Y-46535D01*
X59530Y-46366D02*
X59825Y-46464D01*
X59530Y-46563D01*
X59685Y-46760D02*
X59671Y-46802D01*
X59657Y-46816D01*
X59628Y-46830D01*
X59586Y-46830D01*
X59558Y-46816D01*
X59544Y-46802D01*
X59530Y-46774D01*
X59530Y-46661D01*
X59825Y-46661D01*
X59825Y-46760D01*
X59811Y-46788D01*
X59797Y-46802D01*
X59769Y-46816D01*
X59741Y-46816D01*
X59713Y-46802D01*
X59699Y-46788D01*
X59685Y-46760D01*
X59685Y-46661D01*
X57674Y-44708D02*
X57674Y-44539D01*
X57969Y-44624D02*
X57674Y-44624D01*
X57885Y-44455D02*
X57885Y-44314D01*
X57969Y-44483D02*
X57674Y-44385D01*
X57969Y-44286D01*
X57814Y-44089D02*
X57828Y-44047D01*
X57842Y-44033D01*
X57871Y-44019D01*
X57913Y-44019D01*
X57941Y-44033D01*
X57955Y-44047D01*
X57969Y-44075D01*
X57969Y-44188D01*
X57674Y-44188D01*
X57674Y-44089D01*
X57688Y-44061D01*
X57702Y-44047D01*
X57730Y-44033D01*
X57758Y-44033D01*
X57786Y-44047D01*
X57800Y-44061D01*
X57814Y-44089D01*
X57814Y-44188D01*
X80164Y-49599D02*
X80164Y-49697D01*
X80319Y-49697D02*
X80024Y-49697D01*
X80024Y-49556D01*
X80319Y-49303D02*
X80319Y-49444D01*
X80024Y-49444D01*
X80235Y-49219D02*
X80235Y-49078D01*
X80319Y-49247D02*
X80024Y-49149D01*
X80319Y-49050D01*
X80305Y-48966D02*
X80319Y-48924D01*
X80319Y-48853D01*
X80305Y-48825D01*
X80291Y-48811D01*
X80263Y-48797D01*
X80235Y-48797D01*
X80207Y-48811D01*
X80192Y-48825D01*
X80178Y-48853D01*
X80164Y-48910D01*
X80150Y-48938D01*
X80136Y-48952D01*
X80108Y-48966D01*
X80080Y-48966D01*
X80052Y-48952D01*
X80038Y-48938D01*
X80024Y-48910D01*
X80024Y-48839D01*
X80038Y-48797D01*
X80319Y-48671D02*
X80024Y-48671D01*
X80164Y-48671D02*
X80164Y-48502D01*
X80319Y-48502D02*
X80024Y-48502D01*
X76922Y-46855D02*
X76964Y-46869D01*
X77035Y-46869D01*
X77063Y-46855D01*
X77077Y-46841D01*
X77091Y-46813D01*
X77091Y-46785D01*
X77077Y-46757D01*
X77063Y-46742D01*
X77035Y-46728D01*
X76978Y-46714D01*
X76950Y-46700D01*
X76936Y-46686D01*
X76922Y-46658D01*
X76922Y-46630D01*
X76936Y-46602D01*
X76950Y-46588D01*
X76978Y-46574D01*
X77049Y-46574D01*
X77091Y-46588D01*
X77386Y-46869D02*
X77288Y-46728D01*
X77217Y-46869D02*
X77217Y-46574D01*
X77330Y-46574D01*
X77358Y-46588D01*
X77372Y-46602D01*
X77386Y-46630D01*
X77386Y-46672D01*
X77372Y-46700D01*
X77358Y-46714D01*
X77330Y-46728D01*
X77217Y-46728D01*
X77499Y-46785D02*
X77639Y-46785D01*
X77471Y-46869D02*
X77569Y-46574D01*
X77667Y-46869D01*
X77766Y-46869D02*
X77766Y-46574D01*
X77864Y-46785D01*
X77963Y-46574D01*
X77963Y-46869D01*
G54D11*
X58852Y-50490D02*
X58833Y-50480D01*
X58804Y-50480D01*
X58776Y-50490D01*
X58757Y-50509D01*
X58747Y-50528D01*
X58738Y-50566D01*
X58738Y-50595D01*
X58747Y-50633D01*
X58757Y-50652D01*
X58776Y-50671D01*
X58804Y-50680D01*
X58823Y-50680D01*
X58852Y-50671D01*
X58861Y-50661D01*
X58861Y-50595D01*
X58823Y-50595D01*
X58947Y-50680D02*
X58947Y-50480D01*
X59023Y-50480D01*
X59042Y-50490D01*
X59052Y-50500D01*
X59061Y-50519D01*
X59061Y-50547D01*
X59052Y-50566D01*
X59042Y-50576D01*
X59023Y-50585D01*
X58947Y-50585D01*
X59138Y-50671D02*
X59166Y-50680D01*
X59214Y-50680D01*
X59233Y-50671D01*
X59242Y-50661D01*
X59252Y-50642D01*
X59252Y-50623D01*
X59242Y-50604D01*
X59233Y-50595D01*
X59214Y-50585D01*
X59176Y-50576D01*
X59157Y-50566D01*
X59147Y-50557D01*
X59138Y-50538D01*
X59138Y-50519D01*
X59147Y-50500D01*
X59157Y-50490D01*
X59176Y-50480D01*
X59223Y-50480D01*
X59252Y-50490D01*
X59557Y-50576D02*
X59490Y-50576D01*
X59490Y-50680D02*
X59490Y-50480D01*
X59585Y-50480D01*
X59661Y-50680D02*
X59661Y-50480D01*
X59738Y-50480D02*
X59871Y-50680D01*
X59871Y-50480D02*
X59738Y-50680D01*
X84857Y-59773D02*
X84952Y-59773D01*
X84838Y-59830D02*
X84904Y-59630D01*
X84971Y-59830D01*
X85133Y-59630D02*
X85038Y-59630D01*
X85028Y-59726D01*
X85038Y-59716D01*
X85057Y-59707D01*
X85104Y-59707D01*
X85123Y-59716D01*
X85133Y-59726D01*
X85142Y-59745D01*
X85142Y-59792D01*
X85133Y-59811D01*
X85123Y-59821D01*
X85104Y-59830D01*
X85057Y-59830D01*
X85038Y-59821D01*
X85028Y-59811D01*
X83857Y-59773D02*
X83952Y-59773D01*
X83838Y-59830D02*
X83904Y-59630D01*
X83971Y-59830D01*
X84123Y-59697D02*
X84123Y-59830D01*
X84076Y-59621D02*
X84028Y-59764D01*
X84152Y-59764D01*
X82857Y-59773D02*
X82952Y-59773D01*
X82838Y-59830D02*
X82904Y-59630D01*
X82971Y-59830D01*
X83019Y-59630D02*
X83142Y-59630D01*
X83076Y-59707D01*
X83104Y-59707D01*
X83123Y-59716D01*
X83133Y-59726D01*
X83142Y-59745D01*
X83142Y-59792D01*
X83133Y-59811D01*
X83123Y-59821D01*
X83104Y-59830D01*
X83047Y-59830D01*
X83028Y-59821D01*
X83019Y-59811D01*
X81857Y-59773D02*
X81952Y-59773D01*
X81838Y-59830D02*
X81904Y-59630D01*
X81971Y-59830D01*
X82028Y-59650D02*
X82038Y-59640D01*
X82057Y-59630D01*
X82104Y-59630D01*
X82123Y-59640D01*
X82133Y-59650D01*
X82142Y-59669D01*
X82142Y-59688D01*
X82133Y-59716D01*
X82019Y-59830D01*
X82142Y-59830D01*
X80857Y-59773D02*
X80952Y-59773D01*
X80838Y-59830D02*
X80904Y-59630D01*
X80971Y-59830D01*
X81142Y-59830D02*
X81028Y-59830D01*
X81085Y-59830D02*
X81085Y-59630D01*
X81066Y-59659D01*
X81047Y-59678D01*
X81028Y-59688D01*
X79857Y-59773D02*
X79952Y-59773D01*
X79838Y-59830D02*
X79904Y-59630D01*
X79971Y-59830D01*
X80076Y-59630D02*
X80095Y-59630D01*
X80114Y-59640D01*
X80123Y-59650D01*
X80133Y-59669D01*
X80142Y-59707D01*
X80142Y-59754D01*
X80133Y-59792D01*
X80123Y-59811D01*
X80114Y-59821D01*
X80095Y-59830D01*
X80076Y-59830D01*
X80057Y-59821D01*
X80047Y-59811D01*
X80038Y-59792D01*
X80028Y-59754D01*
X80028Y-59707D01*
X80038Y-59669D01*
X80047Y-59650D01*
X80057Y-59640D01*
X80076Y-59630D01*
X77183Y-57880D02*
X77250Y-58080D01*
X77316Y-57880D01*
X77497Y-58061D02*
X77488Y-58071D01*
X77459Y-58080D01*
X77440Y-58080D01*
X77411Y-58071D01*
X77392Y-58052D01*
X77383Y-58033D01*
X77373Y-57995D01*
X77373Y-57966D01*
X77383Y-57928D01*
X77392Y-57909D01*
X77411Y-57890D01*
X77440Y-57880D01*
X77459Y-57880D01*
X77488Y-57890D01*
X77497Y-57900D01*
X77697Y-58061D02*
X77688Y-58071D01*
X77659Y-58080D01*
X77640Y-58080D01*
X77611Y-58071D01*
X77592Y-58052D01*
X77583Y-58033D01*
X77573Y-57995D01*
X77573Y-57966D01*
X77583Y-57928D01*
X77592Y-57909D01*
X77611Y-57890D01*
X77640Y-57880D01*
X77659Y-57880D01*
X77688Y-57890D01*
X77697Y-57900D01*
X63204Y-50869D02*
X63204Y-50716D01*
X63280Y-50792D02*
X63128Y-50792D01*
X63080Y-50640D02*
X63080Y-50516D01*
X63157Y-50583D01*
X63157Y-50554D01*
X63166Y-50535D01*
X63176Y-50526D01*
X63195Y-50516D01*
X63242Y-50516D01*
X63261Y-50526D01*
X63271Y-50535D01*
X63280Y-50554D01*
X63280Y-50611D01*
X63271Y-50630D01*
X63261Y-50640D01*
X63261Y-50430D02*
X63271Y-50421D01*
X63280Y-50430D01*
X63271Y-50440D01*
X63261Y-50430D01*
X63280Y-50430D01*
X63080Y-50354D02*
X63080Y-50230D01*
X63157Y-50297D01*
X63157Y-50269D01*
X63166Y-50250D01*
X63176Y-50240D01*
X63195Y-50230D01*
X63242Y-50230D01*
X63261Y-50240D01*
X63271Y-50250D01*
X63280Y-50269D01*
X63280Y-50326D01*
X63271Y-50345D01*
X63261Y-50354D01*
X63080Y-50173D02*
X63280Y-50107D01*
X63080Y-50040D01*
X63280Y-49707D02*
X63185Y-49773D01*
X63280Y-49821D02*
X63080Y-49821D01*
X63080Y-49745D01*
X63090Y-49726D01*
X63100Y-49716D01*
X63119Y-49707D01*
X63147Y-49707D01*
X63166Y-49716D01*
X63176Y-49726D01*
X63185Y-49745D01*
X63185Y-49821D01*
X63176Y-49621D02*
X63176Y-49554D01*
X63280Y-49526D02*
X63280Y-49621D01*
X63080Y-49621D01*
X63080Y-49526D01*
X63090Y-49335D02*
X63080Y-49354D01*
X63080Y-49383D01*
X63090Y-49411D01*
X63109Y-49430D01*
X63128Y-49440D01*
X63166Y-49449D01*
X63195Y-49449D01*
X63233Y-49440D01*
X63252Y-49430D01*
X63271Y-49411D01*
X63280Y-49383D01*
X63280Y-49364D01*
X63271Y-49335D01*
X63261Y-49326D01*
X63195Y-49326D01*
X63195Y-49364D01*
X63080Y-49240D02*
X63242Y-49240D01*
X63261Y-49230D01*
X63271Y-49221D01*
X63280Y-49202D01*
X63280Y-49164D01*
X63271Y-49145D01*
X63261Y-49135D01*
X63242Y-49126D01*
X63080Y-49126D01*
X63280Y-48935D02*
X63280Y-49030D01*
X63080Y-49030D01*
X63223Y-48878D02*
X63223Y-48783D01*
X63280Y-48897D02*
X63080Y-48830D01*
X63280Y-48764D01*
X63080Y-48726D02*
X63080Y-48611D01*
X63280Y-48669D02*
X63080Y-48669D01*
X63080Y-48507D02*
X63080Y-48469D01*
X63090Y-48449D01*
X63109Y-48430D01*
X63147Y-48421D01*
X63214Y-48421D01*
X63252Y-48430D01*
X63271Y-48449D01*
X63280Y-48469D01*
X63280Y-48507D01*
X63271Y-48526D01*
X63252Y-48545D01*
X63214Y-48554D01*
X63147Y-48554D01*
X63109Y-48545D01*
X63090Y-48526D01*
X63080Y-48507D01*
X63280Y-48221D02*
X63185Y-48288D01*
X63280Y-48335D02*
X63080Y-48335D01*
X63080Y-48259D01*
X63090Y-48240D01*
X63100Y-48230D01*
X63119Y-48221D01*
X63147Y-48221D01*
X63166Y-48230D01*
X63176Y-48240D01*
X63185Y-48259D01*
X63185Y-48335D01*
G54D12*
X77434Y-54541D02*
X77420Y-54555D01*
X77378Y-54569D01*
X77350Y-54569D01*
X77307Y-54555D01*
X77279Y-54527D01*
X77265Y-54499D01*
X77251Y-54442D01*
X77251Y-54400D01*
X77265Y-54344D01*
X77279Y-54316D01*
X77307Y-54288D01*
X77350Y-54274D01*
X77378Y-54274D01*
X77420Y-54288D01*
X77434Y-54302D01*
X77729Y-54541D02*
X77715Y-54555D01*
X77673Y-54569D01*
X77645Y-54569D01*
X77603Y-54555D01*
X77575Y-54527D01*
X77561Y-54499D01*
X77547Y-54442D01*
X77547Y-54400D01*
X77561Y-54344D01*
X77575Y-54316D01*
X77603Y-54288D01*
X77645Y-54274D01*
X77673Y-54274D01*
X77715Y-54288D01*
X77729Y-54302D01*
X77982Y-54372D02*
X77982Y-54569D01*
X77912Y-54260D02*
X77842Y-54471D01*
X78025Y-54471D01*
X78109Y-54274D02*
X78292Y-54274D01*
X78193Y-54386D01*
X78235Y-54386D01*
X78264Y-54400D01*
X78278Y-54414D01*
X78292Y-54442D01*
X78292Y-54513D01*
X78278Y-54541D01*
X78264Y-54555D01*
X78235Y-54569D01*
X78151Y-54569D01*
X78123Y-54555D01*
X78109Y-54541D01*
X78475Y-54274D02*
X78503Y-54274D01*
X78531Y-54288D01*
X78545Y-54302D01*
X78559Y-54330D01*
X78573Y-54386D01*
X78573Y-54457D01*
X78559Y-54513D01*
X78545Y-54541D01*
X78531Y-54555D01*
X78503Y-54569D01*
X78475Y-54569D01*
X78446Y-54555D01*
X78432Y-54541D01*
X78418Y-54513D01*
X78404Y-54457D01*
X78404Y-54386D01*
X78418Y-54330D01*
X78432Y-54302D01*
X78446Y-54288D01*
X78475Y-54274D01*
X78882Y-54274D02*
X79051Y-54274D01*
X78967Y-54569D02*
X78967Y-54274D01*
X79121Y-54274D02*
X79318Y-54569D01*
X79318Y-54274D02*
X79121Y-54569D01*
X79599Y-54541D02*
X79585Y-54555D01*
X79543Y-54569D01*
X79515Y-54569D01*
X79473Y-54555D01*
X79445Y-54527D01*
X79431Y-54499D01*
X79417Y-54442D01*
X79417Y-54400D01*
X79431Y-54344D01*
X79445Y-54316D01*
X79473Y-54288D01*
X79515Y-54274D01*
X79543Y-54274D01*
X79585Y-54288D01*
X79599Y-54302D01*
X79684Y-54274D02*
X79782Y-54569D01*
X79881Y-54274D01*
X80148Y-54569D02*
X80049Y-54428D01*
X79979Y-54569D02*
X79979Y-54274D01*
X80092Y-54274D01*
X80120Y-54288D01*
X80134Y-54302D01*
X80148Y-54330D01*
X80148Y-54372D01*
X80134Y-54400D01*
X80120Y-54414D01*
X80092Y-54428D01*
X79979Y-54428D01*
X67923Y-41274D02*
X67923Y-41513D01*
X67937Y-41541D01*
X67951Y-41555D01*
X67979Y-41569D01*
X68036Y-41569D01*
X68064Y-41555D01*
X68078Y-41541D01*
X68092Y-41513D01*
X68092Y-41274D01*
X68218Y-41555D02*
X68261Y-41569D01*
X68331Y-41569D01*
X68359Y-41555D01*
X68373Y-41541D01*
X68387Y-41513D01*
X68387Y-41485D01*
X68373Y-41457D01*
X68359Y-41442D01*
X68331Y-41428D01*
X68275Y-41414D01*
X68246Y-41400D01*
X68232Y-41386D01*
X68218Y-41358D01*
X68218Y-41330D01*
X68232Y-41302D01*
X68246Y-41288D01*
X68275Y-41274D01*
X68345Y-41274D01*
X68387Y-41288D01*
X68612Y-41414D02*
X68654Y-41428D01*
X68668Y-41442D01*
X68682Y-41471D01*
X68682Y-41513D01*
X68668Y-41541D01*
X68654Y-41555D01*
X68626Y-41569D01*
X68514Y-41569D01*
X68514Y-41274D01*
X68612Y-41274D01*
X68640Y-41288D01*
X68654Y-41302D01*
X68668Y-41330D01*
X68668Y-41358D01*
X68654Y-41386D01*
X68640Y-41400D01*
X68612Y-41414D01*
X68514Y-41414D01*
X69034Y-41274D02*
X69034Y-41513D01*
X69048Y-41541D01*
X69062Y-41555D01*
X69090Y-41569D01*
X69146Y-41569D01*
X69174Y-41555D01*
X69189Y-41541D01*
X69203Y-41513D01*
X69203Y-41274D01*
X69329Y-41485D02*
X69470Y-41485D01*
X69301Y-41569D02*
X69399Y-41274D01*
X69498Y-41569D01*
X69765Y-41569D02*
X69667Y-41428D01*
X69596Y-41569D02*
X69596Y-41274D01*
X69709Y-41274D01*
X69737Y-41288D01*
X69751Y-41302D01*
X69765Y-41330D01*
X69765Y-41372D01*
X69751Y-41400D01*
X69737Y-41414D01*
X69709Y-41428D01*
X69596Y-41428D01*
X69849Y-41274D02*
X70018Y-41274D01*
X69934Y-41569D02*
X69934Y-41274D01*
X81222Y-44869D02*
X81124Y-44728D01*
X81054Y-44869D02*
X81054Y-44574D01*
X81166Y-44574D01*
X81194Y-44588D01*
X81208Y-44602D01*
X81222Y-44630D01*
X81222Y-44672D01*
X81208Y-44700D01*
X81194Y-44714D01*
X81166Y-44728D01*
X81054Y-44728D01*
X81447Y-44714D02*
X81349Y-44714D01*
X81349Y-44869D02*
X81349Y-44574D01*
X81489Y-44574D01*
X81827Y-44869D02*
X81827Y-44574D01*
X81939Y-44574D01*
X81967Y-44588D01*
X81982Y-44602D01*
X81996Y-44630D01*
X81996Y-44672D01*
X81982Y-44700D01*
X81967Y-44714D01*
X81939Y-44728D01*
X81827Y-44728D01*
X82108Y-44785D02*
X82249Y-44785D01*
X82080Y-44869D02*
X82178Y-44574D01*
X82277Y-44869D01*
X82586Y-44560D02*
X82333Y-44939D01*
X82825Y-44869D02*
X82685Y-44869D01*
X82685Y-44574D01*
X82924Y-44869D02*
X82924Y-44574D01*
X83092Y-44869D01*
X83092Y-44574D01*
X83219Y-44785D02*
X83360Y-44785D01*
X83191Y-44869D02*
X83289Y-44574D01*
X83388Y-44869D01*
X62657Y-52038D02*
X62629Y-52024D01*
X62586Y-52024D01*
X62544Y-52038D01*
X62516Y-52066D01*
X62502Y-52094D01*
X62488Y-52150D01*
X62488Y-52192D01*
X62502Y-52249D01*
X62516Y-52277D01*
X62544Y-52305D01*
X62586Y-52319D01*
X62614Y-52319D01*
X62657Y-52305D01*
X62671Y-52291D01*
X62671Y-52192D01*
X62614Y-52192D01*
X62797Y-52319D02*
X62797Y-52024D01*
X62910Y-52024D01*
X62938Y-52038D01*
X62952Y-52052D01*
X62966Y-52080D01*
X62966Y-52122D01*
X62952Y-52150D01*
X62938Y-52164D01*
X62910Y-52178D01*
X62797Y-52178D01*
X63078Y-52305D02*
X63121Y-52319D01*
X63191Y-52319D01*
X63219Y-52305D01*
X63233Y-52291D01*
X63247Y-52263D01*
X63247Y-52235D01*
X63233Y-52207D01*
X63219Y-52192D01*
X63191Y-52178D01*
X63135Y-52164D01*
X63107Y-52150D01*
X63093Y-52136D01*
X63078Y-52108D01*
X63078Y-52080D01*
X63093Y-52052D01*
X63107Y-52038D01*
X63135Y-52024D01*
X63205Y-52024D01*
X63247Y-52038D01*
X63767Y-52319D02*
X63669Y-52178D01*
X63599Y-52319D02*
X63599Y-52024D01*
X63711Y-52024D01*
X63739Y-52038D01*
X63753Y-52052D01*
X63767Y-52080D01*
X63767Y-52122D01*
X63753Y-52150D01*
X63739Y-52164D01*
X63711Y-52178D01*
X63599Y-52178D01*
X64063Y-52291D02*
X64049Y-52305D01*
X64006Y-52319D01*
X63978Y-52319D01*
X63936Y-52305D01*
X63908Y-52277D01*
X63894Y-52249D01*
X63880Y-52192D01*
X63880Y-52150D01*
X63894Y-52094D01*
X63908Y-52066D01*
X63936Y-52038D01*
X63978Y-52024D01*
X64006Y-52024D01*
X64049Y-52038D01*
X64063Y-52052D01*
X64147Y-52024D02*
X64246Y-52319D01*
X64344Y-52024D01*
X64611Y-52319D02*
X64513Y-52178D01*
X64442Y-52319D02*
X64442Y-52024D01*
X64555Y-52024D01*
X64583Y-52038D01*
X64597Y-52052D01*
X64611Y-52080D01*
X64611Y-52122D01*
X64597Y-52150D01*
X64583Y-52164D01*
X64555Y-52178D01*
X64442Y-52178D01*
X79352Y-58269D02*
X79254Y-58128D01*
X79184Y-58269D02*
X79184Y-57974D01*
X79296Y-57974D01*
X79324Y-57988D01*
X79338Y-58002D01*
X79352Y-58030D01*
X79352Y-58072D01*
X79338Y-58100D01*
X79324Y-58114D01*
X79296Y-58128D01*
X79184Y-58128D01*
X79591Y-58255D02*
X79563Y-58269D01*
X79507Y-58269D01*
X79479Y-58255D01*
X79465Y-58227D01*
X79465Y-58114D01*
X79479Y-58086D01*
X79507Y-58072D01*
X79563Y-58072D01*
X79591Y-58086D01*
X79605Y-58114D01*
X79605Y-58142D01*
X79465Y-58171D01*
X79690Y-58072D02*
X79802Y-58072D01*
X79732Y-58269D02*
X79732Y-58016D01*
X79746Y-57988D01*
X79774Y-57974D01*
X79802Y-57974D01*
X79901Y-58241D02*
X79915Y-58255D01*
X79901Y-58269D01*
X79887Y-58255D01*
X79901Y-58241D01*
X79901Y-58269D01*
X80224Y-57974D02*
X80322Y-58269D01*
X80421Y-57974D01*
X80561Y-58269D02*
X80533Y-58255D01*
X80519Y-58241D01*
X80505Y-58213D01*
X80505Y-58128D01*
X80519Y-58100D01*
X80533Y-58086D01*
X80561Y-58072D01*
X80604Y-58072D01*
X80632Y-58086D01*
X80646Y-58100D01*
X80660Y-58128D01*
X80660Y-58213D01*
X80646Y-58241D01*
X80632Y-58255D01*
X80604Y-58269D01*
X80561Y-58269D01*
X80829Y-58269D02*
X80801Y-58255D01*
X80786Y-58227D01*
X80786Y-57974D01*
X80899Y-58072D02*
X81011Y-58072D01*
X80941Y-57974D02*
X80941Y-58227D01*
X80955Y-58255D01*
X80983Y-58269D01*
X81011Y-58269D01*
X81236Y-58269D02*
X81236Y-58114D01*
X81222Y-58086D01*
X81194Y-58072D01*
X81138Y-58072D01*
X81110Y-58086D01*
X81236Y-58255D02*
X81208Y-58269D01*
X81138Y-58269D01*
X81110Y-58255D01*
X81096Y-58227D01*
X81096Y-58199D01*
X81110Y-58171D01*
X81138Y-58157D01*
X81208Y-58157D01*
X81236Y-58142D01*
X81504Y-58072D02*
X81504Y-58311D01*
X81489Y-58339D01*
X81475Y-58353D01*
X81447Y-58367D01*
X81405Y-58367D01*
X81377Y-58353D01*
X81504Y-58255D02*
X81475Y-58269D01*
X81419Y-58269D01*
X81391Y-58255D01*
X81377Y-58241D01*
X81363Y-58213D01*
X81363Y-58128D01*
X81377Y-58100D01*
X81391Y-58086D01*
X81419Y-58072D01*
X81475Y-58072D01*
X81504Y-58086D01*
X81757Y-58255D02*
X81729Y-58269D01*
X81672Y-58269D01*
X81644Y-58255D01*
X81630Y-58227D01*
X81630Y-58114D01*
X81644Y-58086D01*
X81672Y-58072D01*
X81729Y-58072D01*
X81757Y-58086D01*
X81771Y-58114D01*
X81771Y-58142D01*
X81630Y-58171D01*
X82122Y-58114D02*
X82347Y-58114D01*
X82347Y-58199D02*
X82122Y-58199D01*
X82699Y-58002D02*
X82713Y-57988D01*
X82741Y-57974D01*
X82811Y-57974D01*
X82839Y-57988D01*
X82853Y-58002D01*
X82867Y-58030D01*
X82867Y-58058D01*
X82853Y-58100D01*
X82685Y-58269D01*
X82867Y-58269D01*
X82994Y-58241D02*
X83008Y-58255D01*
X82994Y-58269D01*
X82980Y-58255D01*
X82994Y-58241D01*
X82994Y-58269D01*
X83261Y-58072D02*
X83261Y-58269D01*
X83191Y-57960D02*
X83121Y-58171D01*
X83303Y-58171D01*
X83570Y-58269D02*
X83402Y-58269D01*
X83486Y-58269D02*
X83486Y-57974D01*
X83458Y-58016D01*
X83430Y-58044D01*
X83402Y-58058D01*
X83655Y-57974D02*
X83753Y-58269D01*
X83852Y-57974D01*
X84175Y-58157D02*
X84400Y-58157D01*
X84288Y-58269D02*
X84288Y-58044D01*
X84752Y-57960D02*
X84498Y-58339D01*
X84850Y-58157D02*
X85075Y-58157D01*
X85370Y-58269D02*
X85202Y-58269D01*
X85286Y-58269D02*
X85286Y-57974D01*
X85258Y-58016D01*
X85230Y-58044D01*
X85202Y-58058D01*
X85497Y-58241D02*
X85511Y-58255D01*
X85497Y-58269D01*
X85483Y-58255D01*
X85497Y-58241D01*
X85497Y-58269D01*
X85778Y-57974D02*
X85637Y-57974D01*
X85623Y-58114D01*
X85637Y-58100D01*
X85666Y-58086D01*
X85736Y-58086D01*
X85764Y-58100D01*
X85778Y-58114D01*
X85792Y-58142D01*
X85792Y-58213D01*
X85778Y-58241D01*
X85764Y-58255D01*
X85736Y-58269D01*
X85666Y-58269D01*
X85637Y-58255D01*
X85623Y-58241D01*
X85905Y-58269D02*
X86130Y-57974D01*
X85947Y-57974D02*
X85975Y-57988D01*
X85989Y-58016D01*
X85975Y-58044D01*
X85947Y-58058D01*
X85919Y-58044D01*
X85905Y-58016D01*
X85919Y-57988D01*
X85947Y-57974D01*
X86115Y-58255D02*
X86130Y-58227D01*
X86115Y-58199D01*
X86087Y-58185D01*
X86059Y-58199D01*
X86045Y-58227D01*
X86059Y-58255D01*
X86087Y-58269D01*
X86115Y-58255D01*
G54D11*
X58680Y-49630D02*
X58680Y-49430D01*
X58747Y-49573D01*
X58814Y-49430D01*
X58814Y-49630D01*
X58947Y-49430D02*
X58985Y-49430D01*
X59004Y-49440D01*
X59023Y-49459D01*
X59033Y-49497D01*
X59033Y-49564D01*
X59023Y-49602D01*
X59004Y-49621D01*
X58985Y-49630D01*
X58947Y-49630D01*
X58928Y-49621D01*
X58909Y-49602D01*
X58900Y-49564D01*
X58900Y-49497D01*
X58909Y-49459D01*
X58928Y-49440D01*
X58947Y-49430D01*
X59109Y-49621D02*
X59138Y-49630D01*
X59185Y-49630D01*
X59204Y-49621D01*
X59214Y-49611D01*
X59223Y-49592D01*
X59223Y-49573D01*
X59214Y-49554D01*
X59204Y-49545D01*
X59185Y-49535D01*
X59147Y-49526D01*
X59128Y-49516D01*
X59119Y-49507D01*
X59109Y-49488D01*
X59109Y-49469D01*
X59119Y-49450D01*
X59128Y-49440D01*
X59147Y-49430D01*
X59195Y-49430D01*
X59223Y-49440D01*
X59376Y-49526D02*
X59309Y-49526D01*
X59309Y-49630D02*
X59309Y-49430D01*
X59404Y-49430D01*
X59480Y-49526D02*
X59547Y-49526D01*
X59576Y-49630D02*
X59480Y-49630D01*
X59480Y-49430D01*
X59576Y-49430D01*
X59633Y-49430D02*
X59747Y-49430D01*
X59690Y-49630D02*
X59690Y-49430D01*
X65386Y-43735D02*
G75*
G03X65386Y-43735I-59J0D01*
G74*
G01*
X65603Y-43932D02*
X65996Y-43932D01*
X65603Y-45467D02*
X65996Y-45467D01*
X61486Y-43435D02*
G75*
G03X61486Y-43435I-59J0D01*
G74*
G01*
X61703Y-43632D02*
X62096Y-43632D01*
X61703Y-45167D02*
X62096Y-45167D01*
X63850Y-56500D02*
X63850Y-56300D01*
X58744Y-58745D02*
G75*
G03X58744Y-58745I-59J0D01*
G74*
G01*
X59000Y-58910D02*
X59000Y-59290D01*
X58744Y-58195D02*
G75*
G03X58744Y-58195I-59J0D01*
G74*
G01*
X59000Y-58360D02*
X59000Y-58740D01*
X64530Y-41950D02*
X63970Y-41950D01*
X66850Y-41120D02*
X66850Y-41680D01*
X66680Y-47450D02*
X66120Y-47450D01*
X76789Y-44072D02*
G75*
G03X76789Y-44072I-62J0D01*
G74*
G01*
X74257Y-49392D02*
X74257Y-49707D01*
X72642Y-49392D02*
X72642Y-49707D01*
X73607Y-48880D02*
X73292Y-48880D01*
X73607Y-50219D02*
X73292Y-50219D01*
X73942Y-48782D02*
G75*
G03X73942Y-48782I-59J0D01*
G74*
G01*
X75396Y-55356D02*
X75003Y-55356D01*
X75396Y-56143D02*
X75003Y-56143D01*
X63477Y-43192D02*
X63477Y-43507D01*
X64422Y-43172D02*
X64422Y-43507D01*
X64599Y-42995D02*
G75*
G03X64599Y-42995I-78J0D01*
G74*
G01*
X79329Y-42683D02*
X79566Y-42683D01*
X79566Y-42683D02*
X79566Y-42920D01*
X77833Y-42920D02*
X77833Y-42683D01*
X77833Y-42683D02*
X78070Y-42683D01*
X78070Y-44416D02*
X77833Y-44416D01*
X77833Y-44416D02*
X77833Y-44179D01*
X79585Y-44364D02*
G75*
G03X79585Y-44364I-70J0D01*
G74*
G01*
G54D10*
X79703Y-44553D02*
X79310Y-44553D01*
X79310Y-44553D02*
X79310Y-44160D01*
X79310Y-44160D02*
X79703Y-44160D01*
X79703Y-44160D02*
X79703Y-44553D01*
G54D11*
X76731Y-46980D02*
G75*
G03X76731Y-46980I-62J0D01*
G74*
G01*
X78716Y-48240D02*
X76983Y-48240D01*
X76983Y-47059D02*
X78716Y-47059D01*
X70257Y-45427D02*
G75*
G03X70257Y-45427I-88J0D01*
G74*
G01*
X68948Y-45703D02*
X68948Y-46096D01*
X70051Y-45703D02*
X70051Y-46096D01*
X80455Y-49220D02*
X80455Y-50479D01*
X82344Y-49220D02*
X82344Y-50479D01*
X82522Y-48787D02*
G75*
G03X82522Y-48787I-59J0D01*
G74*
G01*
X64778Y-48518D02*
G75*
G03X64778Y-48518I-59J0D01*
G74*
G01*
X63459Y-48892D02*
X63459Y-49207D01*
X64640Y-48892D02*
X64640Y-49207D01*
X64689Y-42681D02*
G75*
G03X64689Y-42681I-59J0D01*
G74*
G01*
X65890Y-42307D02*
X65890Y-41992D01*
X64709Y-42307D02*
X64709Y-41992D01*
X68728Y-45468D02*
G75*
G03X68728Y-45468I-59J0D01*
G74*
G01*
X67409Y-45842D02*
X67409Y-46157D01*
X68590Y-45842D02*
X68590Y-46157D01*
X62992Y-42898D02*
X62992Y-42504D01*
X62992Y-42504D02*
X62795Y-42504D01*
X62007Y-42898D02*
X62007Y-42504D01*
X62007Y-42504D02*
X62204Y-42504D01*
X61148Y-45507D02*
X60754Y-45507D01*
X60754Y-45507D02*
X60754Y-45704D01*
X61148Y-46492D02*
X60754Y-46492D01*
X60754Y-46492D02*
X60754Y-46295D01*
X59248Y-47807D02*
X58854Y-47807D01*
X58854Y-47807D02*
X58854Y-48004D01*
X59248Y-48792D02*
X58854Y-48792D01*
X58854Y-48792D02*
X58854Y-48595D01*
X77150Y-44350D02*
X76950Y-44350D01*
X82850Y-43500D02*
X83050Y-43500D01*
X81400Y-43500D02*
X81600Y-43500D01*
X77150Y-43700D02*
X77150Y-43500D01*
X83500Y-42950D02*
X83300Y-42950D01*
X82200Y-43900D02*
X82200Y-43700D01*
X60121Y-48896D02*
X60278Y-48896D01*
X60121Y-48503D02*
X60278Y-48503D01*
X79250Y-51740D02*
X79250Y-52060D01*
X62772Y-46171D02*
X61827Y-46171D01*
X62772Y-46328D02*
X61827Y-46328D01*
X73343Y-52254D02*
G75*
G03X73343Y-52254I-55J0D01*
G74*
G01*
X61171Y-47146D02*
X61328Y-47146D01*
X61171Y-46753D02*
X61328Y-46753D01*
X64050Y-47650D02*
X64050Y-47850D01*
X82250Y-51850D02*
X82050Y-51850D01*
X63771Y-45277D02*
X63771Y-46222D01*
X63928Y-45277D02*
X63928Y-46222D01*
G54D13*
G36*
X86080Y-50661D02*
X86052Y-50658D01*
X86025Y-50655D01*
X86020Y-50390D01*
X86015Y-50125D01*
X85987Y-50072D01*
X85944Y-50008D01*
X85890Y-49953D01*
X85830Y-49912D01*
X85825Y-49910D01*
X85796Y-49897D01*
X85767Y-49889D01*
X85733Y-49886D01*
X85685Y-49885D01*
X85638Y-49886D01*
X85605Y-49889D01*
X85578Y-49897D01*
X85551Y-49909D01*
X85545Y-49912D01*
X85475Y-49959D01*
X85419Y-50020D01*
X85378Y-50091D01*
X85355Y-50171D01*
X85352Y-50197D01*
X85348Y-50233D01*
X85343Y-50254D01*
X85335Y-50264D01*
X85323Y-50267D01*
X85319Y-50268D01*
X85305Y-50269D01*
X85297Y-50263D01*
X85292Y-50248D01*
X85288Y-50218D01*
X85287Y-50205D01*
X85271Y-50128D01*
X85240Y-50056D01*
X85195Y-49992D01*
X85141Y-49939D01*
X85078Y-49902D01*
X85058Y-49894D01*
X84981Y-49877D01*
X84906Y-49879D01*
X84835Y-49897D01*
X84769Y-49931D01*
X84712Y-49977D01*
X84666Y-50036D01*
X84632Y-50104D01*
X84613Y-50180D01*
X84610Y-50228D01*
X84609Y-50254D01*
X84603Y-50267D01*
X84589Y-50270D01*
X84581Y-50270D01*
X84566Y-50269D01*
X84557Y-50264D01*
X84552Y-50249D01*
X84549Y-50221D01*
X84548Y-50201D01*
X84532Y-50119D01*
X84499Y-50043D01*
X84448Y-49978D01*
X84445Y-49975D01*
X84381Y-49923D01*
X84311Y-49889D01*
X84237Y-49874D01*
X84163Y-49878D01*
X84091Y-49899D01*
X84022Y-49940D01*
X83992Y-49965D01*
X83935Y-50030D01*
X83897Y-50102D01*
X83876Y-50185D01*
X83873Y-50205D01*
X83869Y-50240D01*
X83865Y-50260D01*
X83858Y-50268D01*
X83846Y-50269D01*
X83841Y-50268D01*
X83827Y-50265D01*
X83819Y-50257D01*
X83814Y-50240D01*
X83810Y-50209D01*
X83809Y-50195D01*
X83792Y-50111D01*
X83758Y-50038D01*
X83708Y-49975D01*
X83642Y-49924D01*
X83613Y-49908D01*
X83572Y-49890D01*
X83537Y-49880D01*
X83500Y-49876D01*
X83475Y-49876D01*
X83431Y-49877D01*
X83396Y-49883D01*
X83360Y-49897D01*
X83337Y-49908D01*
X83269Y-49952D01*
X83211Y-50009D01*
X83168Y-50076D01*
X83166Y-50080D01*
X83159Y-50095D01*
X83154Y-50111D01*
X83150Y-50132D01*
X83147Y-50159D01*
X83145Y-50195D01*
X83143Y-50242D01*
X83142Y-50305D01*
X83140Y-50384D01*
X83140Y-50390D01*
X83135Y-50655D01*
X83108Y-50658D01*
X83080Y-50661D01*
X83080Y-50417D01*
X83080Y-50338D01*
X83081Y-50276D01*
X83082Y-50228D01*
X83084Y-50191D01*
X83087Y-50162D01*
X83092Y-50138D01*
X83098Y-50115D01*
X83099Y-50108D01*
X83134Y-50025D01*
X83181Y-49955D01*
X83239Y-49898D01*
X83305Y-49854D01*
X83376Y-49826D01*
X83452Y-49813D01*
X83528Y-49817D01*
X83604Y-49837D01*
X83677Y-49874D01*
X83729Y-49916D01*
X83762Y-49950D01*
X83793Y-49989D01*
X83815Y-50023D01*
X83815Y-50023D01*
X83843Y-50077D01*
X83867Y-50029D01*
X83912Y-49960D01*
X83971Y-49902D01*
X84041Y-49856D01*
X84118Y-49825D01*
X84175Y-49814D01*
X84255Y-49815D01*
X84334Y-49835D01*
X84407Y-49870D01*
X84472Y-49919D01*
X84526Y-49980D01*
X84552Y-50025D01*
X84566Y-50051D01*
X84576Y-50067D01*
X84579Y-50070D01*
X84587Y-50062D01*
X84600Y-50041D01*
X84614Y-50015D01*
X84651Y-49960D01*
X84700Y-49909D01*
X84757Y-49866D01*
X84810Y-49838D01*
X84852Y-49825D01*
X84899Y-49818D01*
X84950Y-49816D01*
X84996Y-49817D01*
X85030Y-49821D01*
X85061Y-49830D01*
X85097Y-49845D01*
X85103Y-49847D01*
X85173Y-49890D01*
X85235Y-49946D01*
X85282Y-50010D01*
X85293Y-50028D01*
X85319Y-50082D01*
X85341Y-50035D01*
X85373Y-49984D01*
X85417Y-49934D01*
X85468Y-49889D01*
X85521Y-49855D01*
X85527Y-49852D01*
X85557Y-49839D01*
X85584Y-49831D01*
X85615Y-49827D01*
X85656Y-49825D01*
X85685Y-49825D01*
X85734Y-49826D01*
X85770Y-49829D01*
X85799Y-49834D01*
X85826Y-49844D01*
X85841Y-49851D01*
X85916Y-49897D01*
X85979Y-49958D01*
X86029Y-50033D01*
X86061Y-50111D01*
X86067Y-50133D01*
X86072Y-50156D01*
X86075Y-50184D01*
X86078Y-50220D01*
X86079Y-50266D01*
X86080Y-50326D01*
X86080Y-50402D01*
X86080Y-50417D01*
X86080Y-50661D01*
X86080Y-50661D01*
X86080Y-50661D01*
G37*
G36*
X83352Y-49180D02*
X83346Y-49217D01*
X83338Y-49261D01*
X83332Y-49288D01*
X83326Y-49302D01*
X83318Y-49309D01*
X83307Y-49310D01*
X83305Y-49310D01*
X83286Y-49304D01*
X83276Y-49283D01*
X83276Y-49282D01*
X83269Y-49256D01*
X83257Y-49239D01*
X83237Y-49229D01*
X83204Y-49224D01*
X83177Y-49222D01*
X83138Y-49220D01*
X83115Y-49220D01*
X83103Y-49225D01*
X83098Y-49233D01*
X83096Y-49241D01*
X83092Y-49261D01*
X83086Y-49292D01*
X83079Y-49329D01*
X83072Y-49368D01*
X83066Y-49402D01*
X83061Y-49426D01*
X83060Y-49436D01*
X83069Y-49438D01*
X83092Y-49440D01*
X83110Y-49440D01*
X83145Y-49437D01*
X83168Y-49428D01*
X83180Y-49418D01*
X83194Y-49398D01*
X83200Y-49383D01*
X83208Y-49373D01*
X83225Y-49370D01*
X83238Y-49370D01*
X83246Y-49373D01*
X83248Y-49382D01*
X83246Y-49401D01*
X83240Y-49434D01*
X83235Y-49463D01*
X83228Y-49500D01*
X83223Y-49529D01*
X83220Y-49545D01*
X83220Y-49546D01*
X83211Y-49549D01*
X83195Y-49550D01*
X83176Y-49546D01*
X83170Y-49529D01*
X83170Y-49527D01*
X83164Y-49501D01*
X83145Y-49486D01*
X83111Y-49480D01*
X83099Y-49480D01*
X83052Y-49480D01*
X83041Y-49543D01*
X83031Y-49601D01*
X83024Y-49643D01*
X83022Y-49671D01*
X83022Y-49689D01*
X83027Y-49700D01*
X83035Y-49706D01*
X83044Y-49710D01*
X83061Y-49720D01*
X83065Y-49730D01*
X83053Y-49734D01*
X83028Y-49737D01*
X82994Y-49739D01*
X82957Y-49740D01*
X82922Y-49739D01*
X82895Y-49738D01*
X82881Y-49734D01*
X82880Y-49733D01*
X82887Y-49722D01*
X82904Y-49706D01*
X82906Y-49705D01*
X82915Y-49697D01*
X82922Y-49686D01*
X82929Y-49670D01*
X82936Y-49647D01*
X82944Y-49613D01*
X82953Y-49565D01*
X82964Y-49503D01*
X82972Y-49460D01*
X83012Y-49235D01*
X82991Y-49219D01*
X82977Y-49206D01*
X82971Y-49196D01*
X82976Y-49189D01*
X82992Y-49185D01*
X83023Y-49182D01*
X83069Y-49180D01*
X83132Y-49180D01*
X83161Y-49180D01*
X83352Y-49180D01*
X83352Y-49180D01*
X83352Y-49180D01*
G37*
G36*
X83738Y-49722D02*
X83737Y-49731D01*
X83719Y-49736D01*
X83681Y-49739D01*
X83640Y-49740D01*
X83588Y-49739D01*
X83556Y-49736D01*
X83542Y-49730D01*
X83546Y-49720D01*
X83567Y-49708D01*
X83567Y-49708D01*
X83582Y-49699D01*
X83591Y-49687D01*
X83595Y-49667D01*
X83598Y-49632D01*
X83598Y-49628D01*
X83601Y-49560D01*
X83593Y-49560D01*
X83593Y-49520D01*
X83586Y-49472D01*
X83582Y-49436D01*
X83577Y-49391D01*
X83573Y-49357D01*
X83569Y-49324D01*
X83564Y-49300D01*
X83558Y-49292D01*
X83558Y-49292D01*
X83550Y-49302D01*
X83535Y-49326D01*
X83515Y-49360D01*
X83492Y-49402D01*
X83490Y-49408D01*
X83431Y-49520D01*
X83512Y-49520D01*
X83593Y-49520D01*
X83593Y-49560D01*
X83505Y-49560D01*
X83409Y-49560D01*
X83384Y-49613D01*
X83368Y-49653D01*
X83361Y-49680D01*
X83366Y-49698D01*
X83380Y-49710D01*
X83397Y-49722D01*
X83397Y-49731D01*
X83378Y-49737D01*
X83339Y-49739D01*
X83310Y-49740D01*
X83270Y-49739D01*
X83240Y-49737D01*
X83222Y-49734D01*
X83220Y-49733D01*
X83227Y-49722D01*
X83245Y-49705D01*
X83252Y-49699D01*
X83269Y-49681D01*
X83293Y-49646D01*
X83325Y-49596D01*
X83365Y-49528D01*
X83413Y-49442D01*
X83424Y-49421D01*
X83465Y-49348D01*
X83497Y-49291D01*
X83522Y-49248D01*
X83541Y-49216D01*
X83555Y-49195D01*
X83567Y-49181D01*
X83576Y-49174D01*
X83585Y-49171D01*
X83594Y-49170D01*
X83596Y-49170D01*
X83607Y-49170D01*
X83616Y-49171D01*
X83623Y-49176D01*
X83628Y-49187D01*
X83633Y-49206D01*
X83639Y-49237D01*
X83645Y-49280D01*
X83652Y-49339D01*
X83660Y-49400D01*
X83670Y-49486D01*
X83679Y-49554D01*
X83687Y-49606D01*
X83693Y-49645D01*
X83699Y-49673D01*
X83705Y-49691D01*
X83712Y-49703D01*
X83719Y-49709D01*
X83721Y-49710D01*
X83738Y-49722D01*
X83738Y-49722D01*
X83738Y-49722D01*
G37*
G36*
X84768Y-49722D02*
X84767Y-49731D01*
X84749Y-49736D01*
X84711Y-49739D01*
X84670Y-49740D01*
X84618Y-49739D01*
X84586Y-49736D01*
X84572Y-49730D01*
X84576Y-49720D01*
X84597Y-49708D01*
X84612Y-49699D01*
X84621Y-49687D01*
X84625Y-49667D01*
X84628Y-49632D01*
X84628Y-49628D01*
X84631Y-49560D01*
X84623Y-49560D01*
X84623Y-49520D01*
X84616Y-49472D01*
X84612Y-49436D01*
X84607Y-49391D01*
X84603Y-49357D01*
X84599Y-49324D01*
X84594Y-49300D01*
X84588Y-49292D01*
X84580Y-49302D01*
X84565Y-49326D01*
X84545Y-49360D01*
X84523Y-49402D01*
X84520Y-49408D01*
X84461Y-49520D01*
X84542Y-49520D01*
X84623Y-49520D01*
X84623Y-49560D01*
X84535Y-49560D01*
X84439Y-49560D01*
X84415Y-49613D01*
X84398Y-49653D01*
X84391Y-49680D01*
X84396Y-49698D01*
X84410Y-49710D01*
X84426Y-49721D01*
X84428Y-49728D01*
X84416Y-49734D01*
X84387Y-49738D01*
X84341Y-49739D01*
X84284Y-49740D01*
X84139Y-49740D01*
X84121Y-49697D01*
X84108Y-49665D01*
X84093Y-49624D01*
X84080Y-49587D01*
X84064Y-49544D01*
X84047Y-49518D01*
X84025Y-49504D01*
X83995Y-49500D01*
X83991Y-49500D01*
X83973Y-49502D01*
X83962Y-49511D01*
X83955Y-49531D01*
X83951Y-49547D01*
X83944Y-49588D01*
X83936Y-49633D01*
X83934Y-49646D01*
X83931Y-49678D01*
X83933Y-49695D01*
X83942Y-49706D01*
X83949Y-49709D01*
X83967Y-49722D01*
X83967Y-49731D01*
X83949Y-49737D01*
X83912Y-49739D01*
X83880Y-49740D01*
X83840Y-49739D01*
X83810Y-49737D01*
X83792Y-49734D01*
X83790Y-49733D01*
X83797Y-49722D01*
X83814Y-49706D01*
X83816Y-49705D01*
X83825Y-49697D01*
X83832Y-49686D01*
X83839Y-49670D01*
X83846Y-49647D01*
X83854Y-49613D01*
X83863Y-49565D01*
X83874Y-49503D01*
X83882Y-49460D01*
X83921Y-49235D01*
X83901Y-49219D01*
X83885Y-49204D01*
X83879Y-49193D01*
X83886Y-49186D01*
X83907Y-49182D01*
X83944Y-49180D01*
X83998Y-49181D01*
X84027Y-49181D01*
X84087Y-49183D01*
X84131Y-49186D01*
X84162Y-49189D01*
X84185Y-49194D01*
X84201Y-49201D01*
X84207Y-49204D01*
X84239Y-49234D01*
X84255Y-49272D01*
X84258Y-49315D01*
X84247Y-49360D01*
X84223Y-49403D01*
X84187Y-49440D01*
X84167Y-49453D01*
X84167Y-49321D01*
X84164Y-49281D01*
X84144Y-49250D01*
X84108Y-49231D01*
X84085Y-49225D01*
X84053Y-49222D01*
X84030Y-49226D01*
X84014Y-49240D01*
X84003Y-49267D01*
X83993Y-49309D01*
X83988Y-49332D01*
X83979Y-49384D01*
X83973Y-49420D01*
X83972Y-49442D01*
X83977Y-49454D01*
X83987Y-49459D01*
X84005Y-49460D01*
X84018Y-49460D01*
X84067Y-49453D01*
X84101Y-49437D01*
X84138Y-49402D01*
X84160Y-49355D01*
X84167Y-49321D01*
X84167Y-49453D01*
X84157Y-49460D01*
X84112Y-49484D01*
X84133Y-49506D01*
X84146Y-49525D01*
X84163Y-49557D01*
X84182Y-49597D01*
X84190Y-49617D01*
X84207Y-49658D01*
X84220Y-49685D01*
X84231Y-49700D01*
X84243Y-49706D01*
X84251Y-49708D01*
X84263Y-49708D01*
X84275Y-49704D01*
X84288Y-49694D01*
X84304Y-49677D01*
X84323Y-49650D01*
X84346Y-49613D01*
X84375Y-49563D01*
X84411Y-49499D01*
X84455Y-49420D01*
X84460Y-49411D01*
X84500Y-49339D01*
X84531Y-49284D01*
X84555Y-49242D01*
X84573Y-49212D01*
X84587Y-49192D01*
X84598Y-49179D01*
X84607Y-49173D01*
X84616Y-49170D01*
X84626Y-49170D01*
X84637Y-49170D01*
X84646Y-49171D01*
X84653Y-49176D01*
X84658Y-49187D01*
X84664Y-49206D01*
X84669Y-49237D01*
X84675Y-49280D01*
X84682Y-49339D01*
X84690Y-49400D01*
X84700Y-49486D01*
X84709Y-49554D01*
X84717Y-49606D01*
X84723Y-49645D01*
X84730Y-49673D01*
X84736Y-49691D01*
X84742Y-49703D01*
X84749Y-49709D01*
X84751Y-49710D01*
X84768Y-49722D01*
X84768Y-49722D01*
X84768Y-49722D01*
G37*
G36*
X85329Y-49390D02*
X85328Y-49411D01*
X85314Y-49499D01*
X85286Y-49576D01*
X85243Y-49641D01*
X85235Y-49649D01*
X85235Y-49387D01*
X85235Y-49298D01*
X85199Y-49265D01*
X85169Y-49245D01*
X85133Y-49230D01*
X85096Y-49222D01*
X85065Y-49221D01*
X85047Y-49229D01*
X85041Y-49242D01*
X85034Y-49272D01*
X85024Y-49315D01*
X85013Y-49369D01*
X85001Y-49432D01*
X84994Y-49470D01*
X84954Y-49700D01*
X84994Y-49700D01*
X85033Y-49697D01*
X85071Y-49690D01*
X85075Y-49689D01*
X85113Y-49671D01*
X85151Y-49641D01*
X85155Y-49636D01*
X85194Y-49585D01*
X85219Y-49523D01*
X85232Y-49449D01*
X85235Y-49387D01*
X85235Y-49649D01*
X85187Y-49693D01*
X85155Y-49713D01*
X85137Y-49722D01*
X85116Y-49728D01*
X85089Y-49732D01*
X85052Y-49735D01*
X85002Y-49737D01*
X84968Y-49738D01*
X84916Y-49739D01*
X84872Y-49739D01*
X84840Y-49737D01*
X84822Y-49735D01*
X84820Y-49734D01*
X84827Y-49723D01*
X84844Y-49706D01*
X84846Y-49705D01*
X84855Y-49697D01*
X84862Y-49686D01*
X84869Y-49670D01*
X84876Y-49647D01*
X84884Y-49613D01*
X84893Y-49565D01*
X84904Y-49503D01*
X84912Y-49460D01*
X84952Y-49235D01*
X84931Y-49219D01*
X84915Y-49204D01*
X84911Y-49193D01*
X84921Y-49186D01*
X84946Y-49182D01*
X84988Y-49180D01*
X85028Y-49180D01*
X85102Y-49182D01*
X85160Y-49187D01*
X85204Y-49195D01*
X85240Y-49209D01*
X85268Y-49227D01*
X85298Y-49255D01*
X85317Y-49289D01*
X85327Y-49333D01*
X85329Y-49390D01*
X85329Y-49390D01*
X85329Y-49390D01*
G37*
G36*
X85818Y-49722D02*
X85817Y-49731D01*
X85799Y-49736D01*
X85761Y-49739D01*
X85720Y-49740D01*
X85668Y-49739D01*
X85636Y-49736D01*
X85622Y-49730D01*
X85626Y-49720D01*
X85647Y-49708D01*
X85662Y-49699D01*
X85671Y-49687D01*
X85675Y-49667D01*
X85678Y-49632D01*
X85678Y-49628D01*
X85681Y-49560D01*
X85673Y-49560D01*
X85673Y-49520D01*
X85666Y-49472D01*
X85662Y-49436D01*
X85657Y-49391D01*
X85653Y-49357D01*
X85649Y-49324D01*
X85644Y-49300D01*
X85638Y-49292D01*
X85630Y-49302D01*
X85615Y-49326D01*
X85596Y-49360D01*
X85573Y-49402D01*
X85570Y-49408D01*
X85511Y-49520D01*
X85592Y-49520D01*
X85673Y-49520D01*
X85673Y-49560D01*
X85585Y-49560D01*
X85489Y-49560D01*
X85465Y-49613D01*
X85448Y-49653D01*
X85441Y-49680D01*
X85446Y-49698D01*
X85460Y-49710D01*
X85477Y-49722D01*
X85477Y-49731D01*
X85458Y-49737D01*
X85420Y-49739D01*
X85390Y-49740D01*
X85350Y-49739D01*
X85320Y-49737D01*
X85302Y-49734D01*
X85300Y-49733D01*
X85307Y-49722D01*
X85325Y-49705D01*
X85332Y-49699D01*
X85349Y-49681D01*
X85373Y-49646D01*
X85405Y-49596D01*
X85445Y-49528D01*
X85493Y-49442D01*
X85504Y-49421D01*
X85545Y-49348D01*
X85577Y-49291D01*
X85602Y-49248D01*
X85621Y-49216D01*
X85635Y-49195D01*
X85647Y-49181D01*
X85656Y-49174D01*
X85665Y-49171D01*
X85674Y-49170D01*
X85676Y-49170D01*
X85687Y-49170D01*
X85696Y-49171D01*
X85703Y-49176D01*
X85709Y-49187D01*
X85714Y-49206D01*
X85719Y-49237D01*
X85725Y-49280D01*
X85732Y-49339D01*
X85740Y-49400D01*
X85750Y-49486D01*
X85759Y-49554D01*
X85767Y-49606D01*
X85773Y-49645D01*
X85780Y-49673D01*
X85786Y-49691D01*
X85792Y-49703D01*
X85799Y-49709D01*
X85801Y-49710D01*
X85818Y-49722D01*
X85818Y-49722D01*
X85818Y-49722D01*
G37*
G36*
X86341Y-49196D02*
X86330Y-49209D01*
X86312Y-49221D01*
X86298Y-49233D01*
X86276Y-49257D01*
X86246Y-49291D01*
X86213Y-49331D01*
X86178Y-49374D01*
X86145Y-49416D01*
X86116Y-49454D01*
X86094Y-49485D01*
X86085Y-49499D01*
X86079Y-49516D01*
X86071Y-49547D01*
X86064Y-49585D01*
X86056Y-49624D01*
X86052Y-49658D01*
X86050Y-49679D01*
X86058Y-49700D01*
X86070Y-49707D01*
X86086Y-49717D01*
X86090Y-49726D01*
X86086Y-49733D01*
X86070Y-49737D01*
X86041Y-49739D01*
X85995Y-49740D01*
X85995Y-49740D01*
X85949Y-49739D01*
X85917Y-49736D01*
X85901Y-49732D01*
X85900Y-49730D01*
X85908Y-49719D01*
X85925Y-49710D01*
X85941Y-49701D01*
X85954Y-49686D01*
X85963Y-49661D01*
X85972Y-49624D01*
X85980Y-49580D01*
X85992Y-49505D01*
X85945Y-49375D01*
X85926Y-49325D01*
X85908Y-49282D01*
X85893Y-49247D01*
X85881Y-49227D01*
X85879Y-49224D01*
X85864Y-49205D01*
X85861Y-49192D01*
X85872Y-49185D01*
X85900Y-49181D01*
X85945Y-49180D01*
X85950Y-49180D01*
X85994Y-49180D01*
X86021Y-49183D01*
X86035Y-49187D01*
X86040Y-49194D01*
X86040Y-49195D01*
X86032Y-49208D01*
X86025Y-49210D01*
X86010Y-49218D01*
X86000Y-49230D01*
X85996Y-49245D01*
X85998Y-49268D01*
X86008Y-49302D01*
X86016Y-49327D01*
X86034Y-49379D01*
X86046Y-49414D01*
X86056Y-49433D01*
X86067Y-49436D01*
X86079Y-49426D01*
X86097Y-49402D01*
X86119Y-49372D01*
X86145Y-49336D01*
X86168Y-49303D01*
X86184Y-49280D01*
X86189Y-49272D01*
X86198Y-49248D01*
X86199Y-49225D01*
X86194Y-49211D01*
X86190Y-49210D01*
X86181Y-49202D01*
X86180Y-49195D01*
X86184Y-49187D01*
X86197Y-49183D01*
X86225Y-49180D01*
X86260Y-49180D01*
X86306Y-49182D01*
X86333Y-49187D01*
X86341Y-49196D01*
X86341Y-49196D01*
X86341Y-49196D01*
G37*
G36*
X86080Y-48553D02*
X86080Y-48632D01*
X86079Y-48694D01*
X86078Y-48742D01*
X86076Y-48779D01*
X86073Y-48808D01*
X86068Y-48832D01*
X86062Y-48855D01*
X86060Y-48861D01*
X86026Y-48945D01*
X85978Y-49015D01*
X85921Y-49072D01*
X85855Y-49115D01*
X85784Y-49144D01*
X85708Y-49156D01*
X85632Y-49153D01*
X85556Y-49133D01*
X85483Y-49095D01*
X85431Y-49054D01*
X85398Y-49020D01*
X85367Y-48981D01*
X85345Y-48947D01*
X85344Y-48946D01*
X85317Y-48893D01*
X85293Y-48941D01*
X85248Y-49009D01*
X85189Y-49068D01*
X85119Y-49114D01*
X85042Y-49145D01*
X84984Y-49156D01*
X84905Y-49155D01*
X84826Y-49135D01*
X84753Y-49100D01*
X84687Y-49051D01*
X84634Y-48990D01*
X84608Y-48945D01*
X84594Y-48919D01*
X84584Y-48903D01*
X84581Y-48900D01*
X84573Y-48908D01*
X84560Y-48929D01*
X84546Y-48955D01*
X84510Y-49009D01*
X84461Y-49060D01*
X84406Y-49102D01*
X84351Y-49130D01*
X84291Y-49147D01*
X84224Y-49155D01*
X84161Y-49154D01*
X84134Y-49150D01*
X84062Y-49126D01*
X83993Y-49084D01*
X83931Y-49031D01*
X83883Y-48969D01*
X83867Y-48941D01*
X83841Y-48888D01*
X83819Y-48935D01*
X83787Y-48986D01*
X83743Y-49036D01*
X83691Y-49081D01*
X83639Y-49115D01*
X83633Y-49118D01*
X83603Y-49131D01*
X83576Y-49139D01*
X83545Y-49143D01*
X83504Y-49145D01*
X83475Y-49145D01*
X83426Y-49144D01*
X83390Y-49141D01*
X83361Y-49135D01*
X83334Y-49125D01*
X83319Y-49119D01*
X83244Y-49072D01*
X83180Y-49011D01*
X83131Y-48937D01*
X83099Y-48859D01*
X83093Y-48837D01*
X83088Y-48814D01*
X83085Y-48786D01*
X83082Y-48750D01*
X83081Y-48704D01*
X83080Y-48644D01*
X83080Y-48568D01*
X83080Y-48553D01*
X83080Y-48309D01*
X83108Y-48312D01*
X83135Y-48315D01*
X83140Y-48580D01*
X83145Y-48845D01*
X83173Y-48898D01*
X83216Y-48962D01*
X83270Y-49017D01*
X83330Y-49058D01*
X83335Y-49060D01*
X83364Y-49073D01*
X83393Y-49080D01*
X83427Y-49084D01*
X83475Y-49085D01*
X83522Y-49084D01*
X83555Y-49080D01*
X83582Y-49073D01*
X83609Y-49061D01*
X83615Y-49058D01*
X83685Y-49011D01*
X83741Y-48950D01*
X83782Y-48878D01*
X83805Y-48798D01*
X83808Y-48773D01*
X83812Y-48737D01*
X83817Y-48716D01*
X83825Y-48706D01*
X83837Y-48702D01*
X83841Y-48702D01*
X83855Y-48701D01*
X83863Y-48707D01*
X83868Y-48722D01*
X83872Y-48752D01*
X83873Y-48765D01*
X83889Y-48842D01*
X83920Y-48914D01*
X83964Y-48978D01*
X84019Y-49031D01*
X84082Y-49068D01*
X84102Y-49076D01*
X84179Y-49093D01*
X84254Y-49091D01*
X84325Y-49073D01*
X84391Y-49039D01*
X84448Y-48993D01*
X84494Y-48934D01*
X84528Y-48866D01*
X84547Y-48790D01*
X84550Y-48742D01*
X84551Y-48716D01*
X84557Y-48703D01*
X84571Y-48700D01*
X84579Y-48700D01*
X84594Y-48701D01*
X84603Y-48706D01*
X84608Y-48721D01*
X84611Y-48749D01*
X84612Y-48768D01*
X84628Y-48851D01*
X84661Y-48927D01*
X84712Y-48992D01*
X84714Y-48995D01*
X84779Y-49047D01*
X84849Y-49080D01*
X84923Y-49096D01*
X84997Y-49092D01*
X85069Y-49070D01*
X85138Y-49030D01*
X85168Y-49005D01*
X85225Y-48940D01*
X85263Y-48867D01*
X85284Y-48785D01*
X85287Y-48765D01*
X85290Y-48730D01*
X85295Y-48710D01*
X85302Y-48702D01*
X85314Y-48701D01*
X85319Y-48702D01*
X85333Y-48705D01*
X85341Y-48713D01*
X85346Y-48730D01*
X85350Y-48761D01*
X85351Y-48775D01*
X85368Y-48859D01*
X85402Y-48932D01*
X85452Y-48995D01*
X85518Y-49046D01*
X85547Y-49062D01*
X85588Y-49080D01*
X85623Y-49090D01*
X85660Y-49094D01*
X85685Y-49094D01*
X85729Y-49093D01*
X85764Y-49086D01*
X85800Y-49073D01*
X85823Y-49062D01*
X85891Y-49018D01*
X85949Y-48961D01*
X85992Y-48894D01*
X85994Y-48890D01*
X86000Y-48875D01*
X86005Y-48859D01*
X86009Y-48838D01*
X86012Y-48811D01*
X86015Y-48775D01*
X86017Y-48728D01*
X86018Y-48665D01*
X86020Y-48586D01*
X86020Y-48580D01*
X86025Y-48315D01*
X86052Y-48312D01*
X86080Y-48309D01*
X86080Y-48553D01*
X86080Y-48553D01*
X86080Y-48553D01*
G37*
G54D11*
X83160Y-57050D02*
X82840Y-57050D01*
X85160Y-57050D02*
X84840Y-57050D01*
X82160Y-57050D02*
X81840Y-57050D01*
X81160Y-57050D02*
X80840Y-57050D01*
X80160Y-57050D02*
X79840Y-57050D01*
X78710Y-55950D02*
X78390Y-55950D01*
X84160Y-57050D02*
X83840Y-57050D01*
X77490Y-45250D02*
X77810Y-45250D01*
X79490Y-45250D02*
X79810Y-45250D01*
X75110Y-54550D02*
X74790Y-54550D01*
X79550Y-50640D02*
X79550Y-50960D01*
X75790Y-49250D02*
X76110Y-49250D01*
X66950Y-42210D02*
X66950Y-41890D01*
X61210Y-57550D02*
X60890Y-57550D01*
X63850Y-54600D02*
X63850Y-54400D01*
X57960Y-42074D02*
G75*
G03X57960Y-42074I-88J0D01*
G74*
G01*
X57618Y-42231D02*
X57618Y-39868D01*
X57618Y-39868D02*
X59981Y-39868D01*
X59981Y-39868D02*
X59981Y-42231D01*
X59981Y-42231D02*
X57618Y-42231D01*
X80250Y-42850D02*
X80250Y-42650D01*
X80750Y-43900D02*
X80750Y-43700D01*
X78900Y-46550D02*
X79100Y-46550D01*
X65750Y-52900D02*
X65750Y-52700D01*
X63850Y-53700D02*
X63850Y-53500D01*
X65550Y-47750D02*
X65550Y-47550D01*
X64800Y-49350D02*
X65000Y-49350D01*
X78100Y-45150D02*
X78300Y-45150D01*
X64500Y-56250D02*
X64700Y-56250D01*
X72000Y-54700D02*
X72000Y-54900D01*
X74050Y-55650D02*
X74250Y-55650D01*
X76150Y-55650D02*
X76350Y-55650D01*
X73300Y-50350D02*
X73300Y-50550D01*
X73600Y-48750D02*
X73600Y-48550D01*
X72950Y-53550D02*
X72950Y-53350D01*
X73800Y-53600D02*
X73600Y-53600D01*
X72950Y-54000D02*
X72950Y-53800D01*
X75600Y-54450D02*
X75400Y-54450D01*
X79150Y-51250D02*
X79150Y-51450D01*
X76400Y-49350D02*
X76600Y-49350D01*
X69700Y-47050D02*
X69700Y-46850D01*
X72950Y-54450D02*
X72950Y-54250D01*
X70200Y-42200D02*
X70200Y-42400D01*
X68650Y-44550D02*
X68450Y-44550D01*
X79000Y-45150D02*
X79200Y-45150D01*
X63750Y-41550D02*
X63550Y-41550D01*
X79350Y-42350D02*
X79350Y-42150D01*
X76550Y-54500D02*
X76350Y-54500D01*
X61800Y-52000D02*
X61600Y-52000D01*
X60450Y-52000D02*
X60250Y-52000D01*
X59550Y-57050D02*
X59550Y-57250D01*
X59200Y-52000D02*
X59000Y-52000D01*
X84696Y-56928D02*
X84696Y-56771D01*
X84303Y-56928D02*
X84303Y-56771D01*
X62346Y-52178D02*
X62346Y-52021D01*
X61953Y-52178D02*
X61953Y-52021D01*
X83696Y-56928D02*
X83696Y-56771D01*
X83303Y-56928D02*
X83303Y-56771D01*
X82696Y-56928D02*
X82696Y-56771D01*
X82303Y-56928D02*
X82303Y-56771D01*
X81696Y-56928D02*
X81696Y-56771D01*
X81303Y-56928D02*
X81303Y-56771D01*
X80696Y-56928D02*
X80696Y-56771D01*
X80303Y-56928D02*
X80303Y-56771D01*
X79696Y-56928D02*
X79696Y-56771D01*
X79303Y-56928D02*
X79303Y-56771D01*
X78196Y-57078D02*
X78196Y-56921D01*
X77803Y-57078D02*
X77803Y-56921D01*
X78253Y-56921D02*
X78253Y-57078D01*
X78646Y-56921D02*
X78646Y-57078D01*
X76196Y-54678D02*
X76196Y-54521D01*
X75803Y-54678D02*
X75803Y-54521D01*
X81346Y-48028D02*
X81346Y-47871D01*
X80953Y-48028D02*
X80953Y-47871D01*
X78453Y-44971D02*
X78453Y-45128D01*
X78846Y-44971D02*
X78846Y-45128D01*
X63578Y-44053D02*
X63421Y-44053D01*
X63578Y-44446D02*
X63421Y-44446D01*
X60078Y-58903D02*
X59921Y-58903D01*
X60078Y-59296D02*
X59921Y-59296D01*
X63396Y-41528D02*
X63396Y-41371D01*
X63003Y-41528D02*
X63003Y-41371D01*
X60078Y-58353D02*
X59921Y-58353D01*
X60078Y-58746D02*
X59921Y-58746D01*
X72078Y-55053D02*
X71921Y-55053D01*
X72078Y-55446D02*
X71921Y-55446D01*
X68128Y-46953D02*
X67971Y-46953D01*
X68128Y-47346D02*
X67971Y-47346D01*
X63771Y-50346D02*
X63928Y-50346D01*
X63771Y-49953D02*
X63928Y-49953D01*
X72928Y-52803D02*
X72771Y-52803D01*
X72928Y-53196D02*
X72771Y-53196D01*
X63928Y-50403D02*
X63771Y-50403D01*
X63928Y-50796D02*
X63771Y-50796D01*
X58550Y-52000D02*
X58750Y-52000D01*
X60400Y-57650D02*
X60200Y-57650D01*
X58900Y-57700D02*
X58700Y-57700D01*
X61150Y-52000D02*
X61350Y-52000D01*
X60700Y-52000D02*
X60900Y-52000D01*
X79900Y-44050D02*
X80100Y-44050D01*
X80900Y-43050D02*
X81100Y-43050D01*
X73950Y-54250D02*
X73950Y-54450D01*
X63771Y-46477D02*
X63771Y-47422D01*
X63928Y-46477D02*
X63928Y-47422D01*
X66028Y-46622D02*
X66028Y-45677D01*
X65871Y-46622D02*
X65871Y-45677D01*
X79500Y-59500D02*
X79500Y-58500D01*
X79500Y-58500D02*
X85500Y-58500D01*
X85500Y-58500D02*
X85500Y-59500D01*
X85500Y-59500D02*
X79500Y-59500D01*
X80500Y-59500D02*
X80500Y-58500D01*
X85500Y-40500D02*
X77500Y-40500D01*
X77500Y-40500D02*
X77500Y-39500D01*
X77500Y-39500D02*
X85500Y-39500D01*
X85500Y-39500D02*
X85500Y-40500D01*
X84500Y-39500D02*
X84500Y-40500D01*
X76900Y-39500D02*
X76900Y-40500D01*
X76900Y-40500D02*
X66900Y-40500D01*
X66900Y-40500D02*
X66900Y-39500D01*
X66900Y-39500D02*
X76900Y-39500D01*
X75900Y-39500D02*
X75900Y-40500D01*
X70500Y-58500D02*
X78500Y-58500D01*
X78500Y-58500D02*
X78500Y-59500D01*
X78500Y-59500D02*
X70500Y-59500D01*
X70500Y-59500D02*
X70500Y-58500D01*
X71500Y-59500D02*
X71500Y-58500D01*
X78196Y-56178D02*
X78196Y-56021D01*
X77803Y-56178D02*
X77803Y-56021D01*
X67912Y-43837D02*
X68148Y-43837D01*
X67912Y-43837D02*
X67912Y-43601D01*
X67912Y-42262D02*
X67912Y-42498D01*
X67912Y-42262D02*
X68148Y-42262D01*
X69487Y-42262D02*
X69251Y-42262D01*
X69487Y-42262D02*
X69487Y-42498D01*
X69487Y-43837D02*
X69251Y-43837D01*
X69487Y-43837D02*
X69487Y-43601D01*
X69408Y-42400D02*
G75*
G03X69408Y-42400I-59J0D01*
G74*
G01*
X57565Y-56570D02*
X57565Y-52829D01*
X62368Y-56570D02*
X62998Y-56570D01*
X62998Y-56570D02*
X62998Y-56018D01*
X62368Y-52829D02*
X62998Y-52829D01*
X62998Y-52829D02*
X62998Y-53381D01*
X57860Y-56983D02*
G75*
G03X57860Y-56983I-59J0D01*
G74*
G01*
X57565Y-56570D02*
X57565Y-52829D01*
X65153Y-48671D02*
X65153Y-48828D01*
X65546Y-48671D02*
X65546Y-48828D01*
X78804Y-53376D02*
G75*
G03X78804Y-53376I-59J0D01*
G74*
G01*
X59454Y-52264D02*
G75*
G03X59454Y-52264I-59J0D01*
G74*
G01*
X59560Y-51950D02*
X59940Y-51950D01*
X60000Y-47470D02*
X57500Y-47470D01*
X60000Y-45529D02*
X57500Y-45529D01*
X57500Y-45529D02*
X57500Y-47470D01*
X60000Y-45529D02*
X60000Y-47470D01*
X57500Y-43379D02*
X60000Y-43379D01*
X57500Y-45320D02*
X60000Y-45320D01*
X60000Y-45320D02*
X60000Y-43379D01*
X57500Y-45320D02*
X57500Y-43379D01*
X85115Y-44662D02*
X85115Y-44412D01*
X85210Y-44412D01*
X85234Y-44424D01*
X85246Y-44436D01*
X85258Y-44459D01*
X85258Y-44495D01*
X85246Y-44519D01*
X85234Y-44531D01*
X85210Y-44543D01*
X85115Y-44543D01*
X85496Y-44662D02*
X85353Y-44662D01*
X85425Y-44662D02*
X85425Y-44412D01*
X85401Y-44447D01*
X85377Y-44471D01*
X85353Y-44483D01*
X83096Y-46101D02*
X83096Y-45851D01*
X83191Y-45851D01*
X83215Y-45863D01*
X83227Y-45875D01*
X83239Y-45898D01*
X83239Y-45934D01*
X83227Y-45958D01*
X83215Y-45970D01*
X83191Y-45982D01*
X83096Y-45982D01*
X83477Y-46101D02*
X83334Y-46101D01*
X83405Y-46101D02*
X83405Y-45851D01*
X83382Y-45886D01*
X83358Y-45910D01*
X83334Y-45922D01*
X83691Y-45934D02*
X83691Y-46101D01*
X83632Y-45839D02*
X83572Y-46017D01*
X83727Y-46017D01*
X65496Y-58301D02*
X65496Y-58051D01*
X65591Y-58051D01*
X65615Y-58063D01*
X65627Y-58075D01*
X65639Y-58098D01*
X65639Y-58134D01*
X65627Y-58158D01*
X65615Y-58170D01*
X65591Y-58182D01*
X65496Y-58182D01*
X65877Y-58301D02*
X65734Y-58301D01*
X65805Y-58301D02*
X65805Y-58051D01*
X65782Y-58086D01*
X65758Y-58110D01*
X65734Y-58122D01*
X66115Y-58301D02*
X65972Y-58301D01*
X66044Y-58301D02*
X66044Y-58051D01*
X66020Y-58086D01*
X65996Y-58110D01*
X65972Y-58122D01*
X61146Y-39683D02*
X61146Y-39433D01*
X61241Y-39433D01*
X61265Y-39445D01*
X61277Y-39457D01*
X61289Y-39481D01*
X61289Y-39517D01*
X61277Y-39541D01*
X61265Y-39552D01*
X61241Y-39564D01*
X61146Y-39564D01*
X61527Y-39683D02*
X61384Y-39683D01*
X61455Y-39683D02*
X61455Y-39433D01*
X61432Y-39469D01*
X61408Y-39493D01*
X61384Y-39505D01*
X61622Y-39457D02*
X61634Y-39445D01*
X61658Y-39433D01*
X61717Y-39433D01*
X61741Y-39445D01*
X61753Y-39457D01*
X61765Y-39481D01*
X61765Y-39505D01*
X61753Y-39541D01*
X61610Y-39683D01*
X61765Y-39683D01*
X84696Y-53683D02*
X84696Y-53433D01*
X84791Y-53433D01*
X84815Y-53445D01*
X84827Y-53457D01*
X84839Y-53481D01*
X84839Y-53517D01*
X84827Y-53541D01*
X84815Y-53552D01*
X84791Y-53564D01*
X84696Y-53564D01*
X85077Y-53683D02*
X84934Y-53683D01*
X85005Y-53683D02*
X85005Y-53433D01*
X84982Y-53469D01*
X84958Y-53493D01*
X84934Y-53505D01*
X85160Y-53433D02*
X85315Y-53433D01*
X85232Y-53529D01*
X85267Y-53529D01*
X85291Y-53541D01*
X85303Y-53552D01*
X85315Y-53576D01*
X85315Y-53636D01*
X85303Y-53660D01*
X85291Y-53671D01*
X85267Y-53683D01*
X85196Y-53683D01*
X85172Y-53671D01*
X85160Y-53660D01*
X65639Y-43801D02*
X65520Y-43801D01*
X65520Y-43551D01*
X65853Y-43801D02*
X65710Y-43801D01*
X65782Y-43801D02*
X65782Y-43551D01*
X65758Y-43586D01*
X65734Y-43610D01*
X65710Y-43622D01*
X66067Y-43551D02*
X66020Y-43551D01*
X65996Y-43563D01*
X65984Y-43575D01*
X65960Y-43610D01*
X65948Y-43658D01*
X65948Y-43753D01*
X65960Y-43777D01*
X65972Y-43789D01*
X65996Y-43801D01*
X66044Y-43801D01*
X66067Y-43789D01*
X66079Y-43777D01*
X66091Y-43753D01*
X66091Y-43694D01*
X66079Y-43670D01*
X66067Y-43658D01*
X66044Y-43646D01*
X65996Y-43646D01*
X65972Y-43658D01*
X65960Y-43670D01*
X65948Y-43694D01*
X61058Y-43451D02*
X60939Y-43451D01*
X60939Y-43201D01*
X61272Y-43451D02*
X61129Y-43451D01*
X61201Y-43451D02*
X61201Y-43201D01*
X61177Y-43236D01*
X61153Y-43260D01*
X61129Y-43272D01*
X63808Y-56101D02*
X63689Y-56101D01*
X63689Y-55851D01*
X63998Y-55851D02*
X63951Y-55851D01*
X63927Y-55863D01*
X63915Y-55875D01*
X63891Y-55910D01*
X63879Y-55958D01*
X63879Y-56053D01*
X63891Y-56077D01*
X63903Y-56089D01*
X63927Y-56101D01*
X63975Y-56101D01*
X63998Y-56089D01*
X64010Y-56077D01*
X64022Y-56053D01*
X64022Y-55994D01*
X64010Y-55970D01*
X63998Y-55958D01*
X63975Y-55946D01*
X63927Y-55946D01*
X63903Y-55958D01*
X63891Y-55970D01*
X63879Y-55994D01*
X58815Y-59701D02*
X58815Y-59451D01*
X58875Y-59451D01*
X58910Y-59463D01*
X58934Y-59486D01*
X58946Y-59510D01*
X58958Y-59558D01*
X58958Y-59594D01*
X58946Y-59641D01*
X58934Y-59665D01*
X58910Y-59689D01*
X58875Y-59701D01*
X58815Y-59701D01*
X59196Y-59701D02*
X59053Y-59701D01*
X59125Y-59701D02*
X59125Y-59451D01*
X59101Y-59486D01*
X59077Y-59510D01*
X59053Y-59522D01*
X57965Y-58651D02*
X57965Y-58401D01*
X58025Y-58401D01*
X58060Y-58413D01*
X58084Y-58436D01*
X58096Y-58460D01*
X58108Y-58508D01*
X58108Y-58544D01*
X58096Y-58591D01*
X58084Y-58615D01*
X58060Y-58639D01*
X58025Y-58651D01*
X57965Y-58651D01*
X58203Y-58425D02*
X58215Y-58413D01*
X58239Y-58401D01*
X58298Y-58401D01*
X58322Y-58413D01*
X58334Y-58425D01*
X58346Y-58448D01*
X58346Y-58472D01*
X58334Y-58508D01*
X58191Y-58651D01*
X58346Y-58651D01*
X63497Y-42351D02*
X63664Y-42351D01*
X63497Y-42601D01*
X63664Y-42601D01*
X63890Y-42601D02*
X63747Y-42601D01*
X63819Y-42601D02*
X63819Y-42351D01*
X63795Y-42386D01*
X63771Y-42410D01*
X63747Y-42422D01*
X67097Y-40751D02*
X67264Y-40751D01*
X67097Y-41001D01*
X67264Y-41001D01*
X67347Y-40775D02*
X67359Y-40763D01*
X67383Y-40751D01*
X67442Y-40751D01*
X67466Y-40763D01*
X67478Y-40775D01*
X67490Y-40798D01*
X67490Y-40822D01*
X67478Y-40858D01*
X67335Y-41001D01*
X67490Y-41001D01*
X66239Y-48451D02*
X66120Y-48451D01*
X66120Y-48201D01*
X66453Y-48451D02*
X66310Y-48451D01*
X66382Y-48451D02*
X66382Y-48201D01*
X66358Y-48236D01*
X66334Y-48260D01*
X66310Y-48272D01*
X66536Y-48201D02*
X66703Y-48201D01*
X66596Y-48451D01*
X75709Y-44401D02*
X75709Y-44603D01*
X75721Y-44627D01*
X75733Y-44639D01*
X75757Y-44651D01*
X75804Y-44651D01*
X75828Y-44639D01*
X75840Y-44627D01*
X75852Y-44603D01*
X75852Y-44401D01*
X76090Y-44401D02*
X75971Y-44401D01*
X75959Y-44520D01*
X75971Y-44508D01*
X75995Y-44496D01*
X76054Y-44496D01*
X76078Y-44508D01*
X76090Y-44520D01*
X76102Y-44544D01*
X76102Y-44603D01*
X76090Y-44627D01*
X76078Y-44639D01*
X76054Y-44651D01*
X75995Y-44651D01*
X75971Y-44639D01*
X75959Y-44627D01*
X72301Y-49752D02*
X72551Y-49585D01*
X72301Y-49585D02*
X72551Y-49752D01*
X72325Y-49502D02*
X72313Y-49490D01*
X72301Y-49466D01*
X72301Y-49407D01*
X72313Y-49383D01*
X72325Y-49371D01*
X72348Y-49359D01*
X72372Y-49359D01*
X72408Y-49371D01*
X72551Y-49514D01*
X72551Y-49359D01*
X74997Y-56251D02*
X75164Y-56501D01*
X75164Y-56251D02*
X74997Y-56501D01*
X75390Y-56501D02*
X75247Y-56501D01*
X75319Y-56501D02*
X75319Y-56251D01*
X75295Y-56286D01*
X75271Y-56310D01*
X75247Y-56322D01*
X64501Y-43959D02*
X64703Y-43959D01*
X64727Y-43947D01*
X64739Y-43935D01*
X64751Y-43911D01*
X64751Y-43864D01*
X64739Y-43840D01*
X64727Y-43828D01*
X64703Y-43816D01*
X64501Y-43816D01*
X64751Y-43566D02*
X64751Y-43709D01*
X64751Y-43638D02*
X64501Y-43638D01*
X64536Y-43661D01*
X64560Y-43685D01*
X64572Y-43709D01*
X64525Y-43471D02*
X64513Y-43459D01*
X64501Y-43435D01*
X64501Y-43376D01*
X64513Y-43352D01*
X64525Y-43340D01*
X64548Y-43328D01*
X64572Y-43328D01*
X64608Y-43340D01*
X64751Y-43483D01*
X64751Y-43328D01*
X77659Y-42151D02*
X77659Y-42353D01*
X77671Y-42377D01*
X77683Y-42389D01*
X77707Y-42401D01*
X77754Y-42401D01*
X77778Y-42389D01*
X77790Y-42377D01*
X77802Y-42353D01*
X77802Y-42151D01*
X78028Y-42234D02*
X78028Y-42401D01*
X77969Y-42139D02*
X77909Y-42317D01*
X78064Y-42317D01*
X77659Y-48301D02*
X77659Y-48503D01*
X77671Y-48527D01*
X77683Y-48539D01*
X77707Y-48551D01*
X77754Y-48551D01*
X77778Y-48539D01*
X77790Y-48527D01*
X77802Y-48503D01*
X77802Y-48301D01*
X77957Y-48408D02*
X77933Y-48396D01*
X77921Y-48384D01*
X77909Y-48360D01*
X77909Y-48348D01*
X77921Y-48325D01*
X77933Y-48313D01*
X77957Y-48301D01*
X78004Y-48301D01*
X78028Y-48313D01*
X78040Y-48325D01*
X78052Y-48348D01*
X78052Y-48360D01*
X78040Y-48384D01*
X78028Y-48396D01*
X78004Y-48408D01*
X77957Y-48408D01*
X77933Y-48420D01*
X77921Y-48432D01*
X77909Y-48455D01*
X77909Y-48503D01*
X77921Y-48527D01*
X77933Y-48539D01*
X77957Y-48551D01*
X78004Y-48551D01*
X78028Y-48539D01*
X78040Y-48527D01*
X78052Y-48503D01*
X78052Y-48455D01*
X78040Y-48432D01*
X78028Y-48420D01*
X78004Y-48408D01*
X70151Y-46559D02*
X70353Y-46559D01*
X70377Y-46547D01*
X70389Y-46535D01*
X70401Y-46511D01*
X70401Y-46464D01*
X70389Y-46440D01*
X70377Y-46428D01*
X70353Y-46416D01*
X70151Y-46416D01*
X70401Y-46166D02*
X70401Y-46309D01*
X70401Y-46238D02*
X70151Y-46238D01*
X70186Y-46261D01*
X70210Y-46285D01*
X70222Y-46309D01*
X70401Y-45928D02*
X70401Y-46071D01*
X70401Y-46000D02*
X70151Y-46000D01*
X70186Y-46023D01*
X70210Y-46047D01*
X70222Y-46071D01*
X82412Y-50020D02*
X82614Y-50020D01*
X82638Y-50008D01*
X82650Y-49996D01*
X82662Y-49973D01*
X82662Y-49925D01*
X82650Y-49901D01*
X82638Y-49889D01*
X82614Y-49877D01*
X82412Y-49877D01*
X82662Y-49746D02*
X82662Y-49699D01*
X82650Y-49675D01*
X82638Y-49663D01*
X82603Y-49639D01*
X82555Y-49627D01*
X82460Y-49627D01*
X82436Y-49639D01*
X82424Y-49651D01*
X82412Y-49675D01*
X82412Y-49723D01*
X82424Y-49746D01*
X82436Y-49758D01*
X82460Y-49770D01*
X82519Y-49770D01*
X82543Y-49758D01*
X82555Y-49746D01*
X82567Y-49723D01*
X82567Y-49675D01*
X82555Y-49651D01*
X82543Y-49639D01*
X82519Y-49627D01*
X64701Y-48390D02*
X64903Y-48390D01*
X64927Y-48378D01*
X64939Y-48366D01*
X64951Y-48342D01*
X64951Y-48295D01*
X64939Y-48271D01*
X64927Y-48259D01*
X64903Y-48247D01*
X64701Y-48247D01*
X64701Y-48152D02*
X64701Y-47997D01*
X64796Y-48080D01*
X64796Y-48045D01*
X64808Y-48021D01*
X64820Y-48009D01*
X64844Y-47997D01*
X64903Y-47997D01*
X64927Y-48009D01*
X64939Y-48021D01*
X64951Y-48045D01*
X64951Y-48116D01*
X64939Y-48140D01*
X64927Y-48152D01*
X65951Y-42459D02*
X66153Y-42459D01*
X66177Y-42447D01*
X66189Y-42435D01*
X66201Y-42411D01*
X66201Y-42364D01*
X66189Y-42340D01*
X66177Y-42328D01*
X66153Y-42316D01*
X65951Y-42316D01*
X66201Y-42066D02*
X66201Y-42209D01*
X66201Y-42138D02*
X65951Y-42138D01*
X65986Y-42161D01*
X66010Y-42185D01*
X66022Y-42209D01*
X65951Y-41911D02*
X65951Y-41888D01*
X65963Y-41864D01*
X65975Y-41852D01*
X65998Y-41840D01*
X66046Y-41828D01*
X66105Y-41828D01*
X66153Y-41840D01*
X66177Y-41852D01*
X66189Y-41864D01*
X66201Y-41888D01*
X66201Y-41911D01*
X66189Y-41935D01*
X66177Y-41947D01*
X66153Y-41959D01*
X66105Y-41971D01*
X66046Y-41971D01*
X65998Y-41959D01*
X65975Y-41947D01*
X65963Y-41935D01*
X65951Y-41911D01*
X67051Y-46190D02*
X67253Y-46190D01*
X67277Y-46178D01*
X67289Y-46166D01*
X67301Y-46142D01*
X67301Y-46095D01*
X67289Y-46071D01*
X67277Y-46059D01*
X67253Y-46047D01*
X67051Y-46047D01*
X67075Y-45940D02*
X67063Y-45928D01*
X67051Y-45904D01*
X67051Y-45845D01*
X67063Y-45821D01*
X67075Y-45809D01*
X67098Y-45797D01*
X67122Y-45797D01*
X67158Y-45809D01*
X67301Y-45952D01*
X67301Y-45797D01*
X61825Y-42523D02*
X61813Y-42547D01*
X61789Y-42571D01*
X61753Y-42607D01*
X61741Y-42630D01*
X61741Y-42654D01*
X61801Y-42642D02*
X61789Y-42666D01*
X61765Y-42690D01*
X61717Y-42702D01*
X61634Y-42702D01*
X61586Y-42690D01*
X61563Y-42666D01*
X61551Y-42642D01*
X61551Y-42595D01*
X61563Y-42571D01*
X61586Y-42547D01*
X61634Y-42535D01*
X61717Y-42535D01*
X61765Y-42547D01*
X61789Y-42571D01*
X61801Y-42595D01*
X61801Y-42642D01*
X61551Y-42452D02*
X61551Y-42297D01*
X61646Y-42380D01*
X61646Y-42345D01*
X61658Y-42321D01*
X61670Y-42309D01*
X61694Y-42297D01*
X61753Y-42297D01*
X61777Y-42309D01*
X61789Y-42321D01*
X61801Y-42345D01*
X61801Y-42416D01*
X61789Y-42440D01*
X61777Y-42452D01*
X60676Y-45325D02*
X60652Y-45313D01*
X60628Y-45289D01*
X60592Y-45253D01*
X60569Y-45241D01*
X60545Y-45241D01*
X60557Y-45301D02*
X60533Y-45289D01*
X60509Y-45265D01*
X60497Y-45217D01*
X60497Y-45134D01*
X60509Y-45086D01*
X60533Y-45063D01*
X60557Y-45051D01*
X60604Y-45051D01*
X60628Y-45063D01*
X60652Y-45086D01*
X60664Y-45134D01*
X60664Y-45217D01*
X60652Y-45265D01*
X60628Y-45289D01*
X60604Y-45301D01*
X60557Y-45301D01*
X60878Y-45134D02*
X60878Y-45301D01*
X60819Y-45039D02*
X60759Y-45217D01*
X60914Y-45217D01*
X58726Y-49275D02*
X58702Y-49263D01*
X58678Y-49239D01*
X58642Y-49203D01*
X58619Y-49191D01*
X58595Y-49191D01*
X58607Y-49251D02*
X58583Y-49239D01*
X58559Y-49215D01*
X58547Y-49167D01*
X58547Y-49084D01*
X58559Y-49036D01*
X58583Y-49013D01*
X58607Y-49001D01*
X58654Y-49001D01*
X58678Y-49013D01*
X58702Y-49036D01*
X58714Y-49084D01*
X58714Y-49167D01*
X58702Y-49215D01*
X58678Y-49239D01*
X58654Y-49251D01*
X58607Y-49251D01*
X58952Y-49251D02*
X58809Y-49251D01*
X58880Y-49251D02*
X58880Y-49001D01*
X58857Y-49036D01*
X58833Y-49060D01*
X58809Y-49072D01*
X76727Y-44910D02*
X76739Y-44922D01*
X76751Y-44958D01*
X76751Y-44982D01*
X76739Y-45017D01*
X76715Y-45041D01*
X76691Y-45053D01*
X76644Y-45065D01*
X76608Y-45065D01*
X76560Y-45053D01*
X76536Y-45041D01*
X76513Y-45017D01*
X76501Y-44982D01*
X76501Y-44958D01*
X76513Y-44922D01*
X76525Y-44910D01*
X76525Y-44815D02*
X76513Y-44803D01*
X76501Y-44779D01*
X76501Y-44720D01*
X76513Y-44696D01*
X76525Y-44684D01*
X76548Y-44672D01*
X76572Y-44672D01*
X76608Y-44684D01*
X76751Y-44827D01*
X76751Y-44672D01*
X76501Y-44446D02*
X76501Y-44565D01*
X76620Y-44577D01*
X76608Y-44565D01*
X76596Y-44541D01*
X76596Y-44482D01*
X76608Y-44458D01*
X76620Y-44446D01*
X76644Y-44434D01*
X76703Y-44434D01*
X76727Y-44446D01*
X76739Y-44458D01*
X76751Y-44482D01*
X76751Y-44541D01*
X76739Y-44565D01*
X76727Y-44577D01*
X83027Y-42810D02*
X83039Y-42822D01*
X83051Y-42858D01*
X83051Y-42882D01*
X83039Y-42917D01*
X83015Y-42941D01*
X82991Y-42953D01*
X82944Y-42965D01*
X82908Y-42965D01*
X82860Y-42953D01*
X82836Y-42941D01*
X82813Y-42917D01*
X82801Y-42882D01*
X82801Y-42858D01*
X82813Y-42822D01*
X82825Y-42810D01*
X83051Y-42572D02*
X83051Y-42715D01*
X83051Y-42644D02*
X82801Y-42644D01*
X82836Y-42667D01*
X82860Y-42691D01*
X82872Y-42715D01*
X82908Y-42429D02*
X82896Y-42453D01*
X82884Y-42465D01*
X82860Y-42477D01*
X82848Y-42477D01*
X82825Y-42465D01*
X82813Y-42453D01*
X82801Y-42429D01*
X82801Y-42382D01*
X82813Y-42358D01*
X82825Y-42346D01*
X82848Y-42334D01*
X82860Y-42334D01*
X82884Y-42346D01*
X82896Y-42358D01*
X82908Y-42382D01*
X82908Y-42429D01*
X82920Y-42453D01*
X82932Y-42465D01*
X82955Y-42477D01*
X83003Y-42477D01*
X83027Y-42465D01*
X83039Y-42453D01*
X83051Y-42429D01*
X83051Y-42382D01*
X83039Y-42358D01*
X83027Y-42346D01*
X83003Y-42334D01*
X82955Y-42334D01*
X82932Y-42346D01*
X82920Y-42358D01*
X82908Y-42382D01*
X81577Y-42760D02*
X81589Y-42772D01*
X81601Y-42808D01*
X81601Y-42832D01*
X81589Y-42867D01*
X81565Y-42891D01*
X81541Y-42903D01*
X81494Y-42915D01*
X81458Y-42915D01*
X81410Y-42903D01*
X81386Y-42891D01*
X81363Y-42867D01*
X81351Y-42832D01*
X81351Y-42808D01*
X81363Y-42772D01*
X81375Y-42760D01*
X81375Y-42665D02*
X81363Y-42653D01*
X81351Y-42629D01*
X81351Y-42570D01*
X81363Y-42546D01*
X81375Y-42534D01*
X81398Y-42522D01*
X81422Y-42522D01*
X81458Y-42534D01*
X81601Y-42677D01*
X81601Y-42522D01*
X81351Y-42367D02*
X81351Y-42344D01*
X81363Y-42320D01*
X81375Y-42308D01*
X81398Y-42296D01*
X81446Y-42284D01*
X81505Y-42284D01*
X81553Y-42296D01*
X81577Y-42308D01*
X81589Y-42320D01*
X81601Y-42344D01*
X81601Y-42367D01*
X81589Y-42391D01*
X81577Y-42403D01*
X81553Y-42415D01*
X81505Y-42427D01*
X81446Y-42427D01*
X81398Y-42415D01*
X81375Y-42403D01*
X81363Y-42391D01*
X81351Y-42367D01*
X77108Y-43301D02*
X76989Y-43301D01*
X76989Y-43051D01*
X77298Y-43134D02*
X77298Y-43301D01*
X77239Y-43039D02*
X77179Y-43217D01*
X77334Y-43217D01*
X83501Y-43741D02*
X83501Y-43860D01*
X83251Y-43860D01*
X83275Y-43670D02*
X83263Y-43658D01*
X83251Y-43634D01*
X83251Y-43575D01*
X83263Y-43551D01*
X83275Y-43539D01*
X83298Y-43527D01*
X83322Y-43527D01*
X83358Y-43539D01*
X83501Y-43682D01*
X83501Y-43527D01*
X82158Y-44351D02*
X82039Y-44351D01*
X82039Y-44101D01*
X82217Y-44101D02*
X82372Y-44101D01*
X82289Y-44196D01*
X82325Y-44196D01*
X82348Y-44208D01*
X82360Y-44220D01*
X82372Y-44244D01*
X82372Y-44303D01*
X82360Y-44327D01*
X82348Y-44339D01*
X82325Y-44351D01*
X82253Y-44351D01*
X82229Y-44339D01*
X82217Y-44327D01*
X60789Y-48801D02*
X60705Y-48682D01*
X60646Y-48801D02*
X60646Y-48551D01*
X60741Y-48551D01*
X60765Y-48563D01*
X60777Y-48575D01*
X60789Y-48598D01*
X60789Y-48634D01*
X60777Y-48658D01*
X60765Y-48670D01*
X60741Y-48682D01*
X60646Y-48682D01*
X61027Y-48801D02*
X60884Y-48801D01*
X60955Y-48801D02*
X60955Y-48551D01*
X60932Y-48586D01*
X60908Y-48610D01*
X60884Y-48622D01*
X61265Y-48801D02*
X61122Y-48801D01*
X61194Y-48801D02*
X61194Y-48551D01*
X61170Y-48586D01*
X61146Y-48610D01*
X61122Y-48622D01*
X79089Y-52477D02*
X79077Y-52489D01*
X79041Y-52501D01*
X79017Y-52501D01*
X78982Y-52489D01*
X78958Y-52465D01*
X78946Y-52441D01*
X78934Y-52394D01*
X78934Y-52358D01*
X78946Y-52310D01*
X78958Y-52286D01*
X78982Y-52263D01*
X79017Y-52251D01*
X79041Y-52251D01*
X79077Y-52263D01*
X79089Y-52275D01*
X79303Y-52334D02*
X79303Y-52501D01*
X79244Y-52239D02*
X79184Y-52417D01*
X79339Y-52417D01*
X79553Y-52251D02*
X79434Y-52251D01*
X79422Y-52370D01*
X79434Y-52358D01*
X79458Y-52346D01*
X79517Y-52346D01*
X79541Y-52358D01*
X79553Y-52370D01*
X79565Y-52394D01*
X79565Y-52453D01*
X79553Y-52477D01*
X79541Y-52489D01*
X79517Y-52501D01*
X79458Y-52501D01*
X79434Y-52489D01*
X79422Y-52477D01*
X62027Y-47760D02*
X62039Y-47772D01*
X62051Y-47808D01*
X62051Y-47832D01*
X62039Y-47867D01*
X62015Y-47891D01*
X61991Y-47903D01*
X61944Y-47915D01*
X61908Y-47915D01*
X61860Y-47903D01*
X61836Y-47891D01*
X61813Y-47867D01*
X61801Y-47832D01*
X61801Y-47808D01*
X61813Y-47772D01*
X61825Y-47760D01*
X62051Y-47522D02*
X62051Y-47665D01*
X62051Y-47594D02*
X61801Y-47594D01*
X61836Y-47617D01*
X61860Y-47641D01*
X61872Y-47665D01*
X61801Y-47439D02*
X61801Y-47272D01*
X62051Y-47379D01*
X72942Y-52209D02*
X73144Y-52209D01*
X73168Y-52197D01*
X73180Y-52185D01*
X73192Y-52161D01*
X73192Y-52114D01*
X73180Y-52090D01*
X73168Y-52078D01*
X73144Y-52066D01*
X72942Y-52066D01*
X73192Y-51816D02*
X73192Y-51959D01*
X73192Y-51888D02*
X72942Y-51888D01*
X72978Y-51911D01*
X73002Y-51935D01*
X73013Y-51959D01*
X73025Y-51602D02*
X73192Y-51602D01*
X72930Y-51661D02*
X73109Y-51721D01*
X73109Y-51566D01*
X61208Y-47501D02*
X61125Y-47382D01*
X61065Y-47501D02*
X61065Y-47251D01*
X61160Y-47251D01*
X61184Y-47263D01*
X61196Y-47275D01*
X61208Y-47298D01*
X61208Y-47334D01*
X61196Y-47358D01*
X61184Y-47370D01*
X61160Y-47382D01*
X61065Y-47382D01*
X61351Y-47358D02*
X61327Y-47346D01*
X61315Y-47334D01*
X61303Y-47310D01*
X61303Y-47298D01*
X61315Y-47275D01*
X61327Y-47263D01*
X61351Y-47251D01*
X61398Y-47251D01*
X61422Y-47263D01*
X61434Y-47275D01*
X61446Y-47298D01*
X61446Y-47310D01*
X61434Y-47334D01*
X61422Y-47346D01*
X61398Y-47358D01*
X61351Y-47358D01*
X61327Y-47370D01*
X61315Y-47382D01*
X61303Y-47405D01*
X61303Y-47453D01*
X61315Y-47477D01*
X61327Y-47489D01*
X61351Y-47501D01*
X61398Y-47501D01*
X61422Y-47489D01*
X61434Y-47477D01*
X61446Y-47453D01*
X61446Y-47405D01*
X61434Y-47382D01*
X61422Y-47370D01*
X61398Y-47358D01*
X63039Y-47827D02*
X63027Y-47839D01*
X62991Y-47851D01*
X62967Y-47851D01*
X62932Y-47839D01*
X62908Y-47815D01*
X62896Y-47791D01*
X62884Y-47744D01*
X62884Y-47708D01*
X62896Y-47660D01*
X62908Y-47636D01*
X62932Y-47613D01*
X62967Y-47601D01*
X62991Y-47601D01*
X63027Y-47613D01*
X63039Y-47625D01*
X63134Y-47625D02*
X63146Y-47613D01*
X63170Y-47601D01*
X63229Y-47601D01*
X63253Y-47613D01*
X63265Y-47625D01*
X63277Y-47648D01*
X63277Y-47672D01*
X63265Y-47708D01*
X63122Y-47851D01*
X63277Y-47851D01*
X63372Y-47625D02*
X63384Y-47613D01*
X63408Y-47601D01*
X63467Y-47601D01*
X63491Y-47613D01*
X63503Y-47625D01*
X63515Y-47648D01*
X63515Y-47672D01*
X63503Y-47708D01*
X63360Y-47851D01*
X63515Y-47851D01*
X82660Y-52010D02*
X82672Y-52022D01*
X82684Y-52058D01*
X82684Y-52082D01*
X82672Y-52117D01*
X82648Y-52141D01*
X82624Y-52153D01*
X82577Y-52165D01*
X82541Y-52165D01*
X82493Y-52153D01*
X82469Y-52141D01*
X82446Y-52117D01*
X82434Y-52082D01*
X82434Y-52058D01*
X82446Y-52022D01*
X82458Y-52010D01*
X82434Y-51784D02*
X82434Y-51903D01*
X82553Y-51915D01*
X82541Y-51903D01*
X82529Y-51879D01*
X82529Y-51820D01*
X82541Y-51796D01*
X82553Y-51784D01*
X82577Y-51772D01*
X82636Y-51772D01*
X82660Y-51784D01*
X82672Y-51796D01*
X82684Y-51820D01*
X82684Y-51879D01*
X82672Y-51903D01*
X82660Y-51915D01*
X82434Y-51689D02*
X82434Y-51522D01*
X82684Y-51629D01*
X63689Y-45077D02*
X63677Y-45089D01*
X63641Y-45101D01*
X63617Y-45101D01*
X63582Y-45089D01*
X63558Y-45065D01*
X63546Y-45041D01*
X63534Y-44994D01*
X63534Y-44958D01*
X63546Y-44910D01*
X63558Y-44886D01*
X63582Y-44863D01*
X63617Y-44851D01*
X63641Y-44851D01*
X63677Y-44863D01*
X63689Y-44875D01*
X63915Y-44851D02*
X63796Y-44851D01*
X63784Y-44970D01*
X63796Y-44958D01*
X63820Y-44946D01*
X63879Y-44946D01*
X63903Y-44958D01*
X63915Y-44970D01*
X63927Y-44994D01*
X63927Y-45053D01*
X63915Y-45077D01*
X63903Y-45089D01*
X63879Y-45101D01*
X63820Y-45101D01*
X63796Y-45089D01*
X63784Y-45077D01*
X64141Y-44934D02*
X64141Y-45101D01*
X64082Y-44839D02*
X64022Y-45017D01*
X64177Y-45017D01*
X83077Y-56210D02*
X83089Y-56222D01*
X83101Y-56258D01*
X83101Y-56282D01*
X83089Y-56317D01*
X83065Y-56341D01*
X83041Y-56353D01*
X82994Y-56365D01*
X82958Y-56365D01*
X82910Y-56353D01*
X82886Y-56341D01*
X82863Y-56317D01*
X82851Y-56282D01*
X82851Y-56258D01*
X82863Y-56222D01*
X82875Y-56210D01*
X82851Y-55984D02*
X82851Y-56103D01*
X82970Y-56115D01*
X82958Y-56103D01*
X82946Y-56079D01*
X82946Y-56020D01*
X82958Y-55996D01*
X82970Y-55984D01*
X82994Y-55972D01*
X83053Y-55972D01*
X83077Y-55984D01*
X83089Y-55996D01*
X83101Y-56020D01*
X83101Y-56079D01*
X83089Y-56103D01*
X83077Y-56115D01*
X82851Y-55817D02*
X82851Y-55794D01*
X82863Y-55770D01*
X82875Y-55758D01*
X82898Y-55746D01*
X82946Y-55734D01*
X83005Y-55734D01*
X83053Y-55746D01*
X83077Y-55758D01*
X83089Y-55770D01*
X83101Y-55794D01*
X83101Y-55817D01*
X83089Y-55841D01*
X83077Y-55853D01*
X83053Y-55865D01*
X83005Y-55877D01*
X82946Y-55877D01*
X82898Y-55865D01*
X82875Y-55853D01*
X82863Y-55841D01*
X82851Y-55817D01*
X85927Y-56710D02*
X85939Y-56722D01*
X85951Y-56758D01*
X85951Y-56782D01*
X85939Y-56817D01*
X85915Y-56841D01*
X85891Y-56853D01*
X85844Y-56865D01*
X85808Y-56865D01*
X85760Y-56853D01*
X85736Y-56841D01*
X85713Y-56817D01*
X85701Y-56782D01*
X85701Y-56758D01*
X85713Y-56722D01*
X85725Y-56710D01*
X85784Y-56496D02*
X85951Y-56496D01*
X85689Y-56555D02*
X85867Y-56615D01*
X85867Y-56460D01*
X85808Y-56329D02*
X85796Y-56353D01*
X85784Y-56365D01*
X85760Y-56377D01*
X85748Y-56377D01*
X85725Y-56365D01*
X85713Y-56353D01*
X85701Y-56329D01*
X85701Y-56282D01*
X85713Y-56258D01*
X85725Y-56246D01*
X85748Y-56234D01*
X85760Y-56234D01*
X85784Y-56246D01*
X85796Y-56258D01*
X85808Y-56282D01*
X85808Y-56329D01*
X85820Y-56353D01*
X85832Y-56365D01*
X85855Y-56377D01*
X85903Y-56377D01*
X85927Y-56365D01*
X85939Y-56353D01*
X85951Y-56329D01*
X85951Y-56282D01*
X85939Y-56258D01*
X85927Y-56246D01*
X85903Y-56234D01*
X85855Y-56234D01*
X85832Y-56246D01*
X85820Y-56258D01*
X85808Y-56282D01*
X82077Y-56210D02*
X82089Y-56222D01*
X82101Y-56258D01*
X82101Y-56282D01*
X82089Y-56317D01*
X82065Y-56341D01*
X82041Y-56353D01*
X81994Y-56365D01*
X81958Y-56365D01*
X81910Y-56353D01*
X81886Y-56341D01*
X81863Y-56317D01*
X81851Y-56282D01*
X81851Y-56258D01*
X81863Y-56222D01*
X81875Y-56210D01*
X81851Y-55984D02*
X81851Y-56103D01*
X81970Y-56115D01*
X81958Y-56103D01*
X81946Y-56079D01*
X81946Y-56020D01*
X81958Y-55996D01*
X81970Y-55984D01*
X81994Y-55972D01*
X82053Y-55972D01*
X82077Y-55984D01*
X82089Y-55996D01*
X82101Y-56020D01*
X82101Y-56079D01*
X82089Y-56103D01*
X82077Y-56115D01*
X82101Y-55734D02*
X82101Y-55877D01*
X82101Y-55805D02*
X81851Y-55805D01*
X81886Y-55829D01*
X81910Y-55853D01*
X81922Y-55877D01*
X81077Y-56210D02*
X81089Y-56222D01*
X81101Y-56258D01*
X81101Y-56282D01*
X81089Y-56317D01*
X81065Y-56341D01*
X81041Y-56353D01*
X80994Y-56365D01*
X80958Y-56365D01*
X80910Y-56353D01*
X80886Y-56341D01*
X80863Y-56317D01*
X80851Y-56282D01*
X80851Y-56258D01*
X80863Y-56222D01*
X80875Y-56210D01*
X80851Y-55984D02*
X80851Y-56103D01*
X80970Y-56115D01*
X80958Y-56103D01*
X80946Y-56079D01*
X80946Y-56020D01*
X80958Y-55996D01*
X80970Y-55984D01*
X80994Y-55972D01*
X81053Y-55972D01*
X81077Y-55984D01*
X81089Y-55996D01*
X81101Y-56020D01*
X81101Y-56079D01*
X81089Y-56103D01*
X81077Y-56115D01*
X80875Y-55877D02*
X80863Y-55865D01*
X80851Y-55841D01*
X80851Y-55782D01*
X80863Y-55758D01*
X80875Y-55746D01*
X80898Y-55734D01*
X80922Y-55734D01*
X80958Y-55746D01*
X81101Y-55889D01*
X81101Y-55734D01*
X80077Y-56210D02*
X80089Y-56222D01*
X80101Y-56258D01*
X80101Y-56282D01*
X80089Y-56317D01*
X80065Y-56341D01*
X80041Y-56353D01*
X79994Y-56365D01*
X79958Y-56365D01*
X79910Y-56353D01*
X79886Y-56341D01*
X79863Y-56317D01*
X79851Y-56282D01*
X79851Y-56258D01*
X79863Y-56222D01*
X79875Y-56210D01*
X79851Y-55984D02*
X79851Y-56103D01*
X79970Y-56115D01*
X79958Y-56103D01*
X79946Y-56079D01*
X79946Y-56020D01*
X79958Y-55996D01*
X79970Y-55984D01*
X79994Y-55972D01*
X80053Y-55972D01*
X80077Y-55984D01*
X80089Y-55996D01*
X80101Y-56020D01*
X80101Y-56079D01*
X80089Y-56103D01*
X80077Y-56115D01*
X79851Y-55889D02*
X79851Y-55734D01*
X79946Y-55817D01*
X79946Y-55782D01*
X79958Y-55758D01*
X79970Y-55746D01*
X79994Y-55734D01*
X80053Y-55734D01*
X80077Y-55746D01*
X80089Y-55758D01*
X80101Y-55782D01*
X80101Y-55853D01*
X80089Y-55877D01*
X80077Y-55889D01*
X79177Y-56110D02*
X79189Y-56122D01*
X79201Y-56158D01*
X79201Y-56182D01*
X79189Y-56217D01*
X79165Y-56241D01*
X79141Y-56253D01*
X79094Y-56265D01*
X79058Y-56265D01*
X79010Y-56253D01*
X78986Y-56241D01*
X78963Y-56217D01*
X78951Y-56182D01*
X78951Y-56158D01*
X78963Y-56122D01*
X78975Y-56110D01*
X79034Y-55896D02*
X79201Y-55896D01*
X78939Y-55955D02*
X79117Y-56015D01*
X79117Y-55860D01*
X78951Y-55789D02*
X78951Y-55622D01*
X79201Y-55729D01*
X84077Y-56210D02*
X84089Y-56222D01*
X84101Y-56258D01*
X84101Y-56282D01*
X84089Y-56317D01*
X84065Y-56341D01*
X84041Y-56353D01*
X83994Y-56365D01*
X83958Y-56365D01*
X83910Y-56353D01*
X83886Y-56341D01*
X83863Y-56317D01*
X83851Y-56282D01*
X83851Y-56258D01*
X83863Y-56222D01*
X83875Y-56210D01*
X83934Y-55996D02*
X84101Y-55996D01*
X83839Y-56055D02*
X84017Y-56115D01*
X84017Y-55960D01*
X84101Y-55853D02*
X84101Y-55805D01*
X84089Y-55782D01*
X84077Y-55770D01*
X84041Y-55746D01*
X83994Y-55734D01*
X83898Y-55734D01*
X83875Y-55746D01*
X83863Y-55758D01*
X83851Y-55782D01*
X83851Y-55829D01*
X83863Y-55853D01*
X83875Y-55865D01*
X83898Y-55877D01*
X83958Y-55877D01*
X83982Y-55865D01*
X83994Y-55853D01*
X84005Y-55829D01*
X84005Y-55782D01*
X83994Y-55758D01*
X83982Y-55746D01*
X83958Y-55734D01*
X77277Y-45560D02*
X77289Y-45572D01*
X77301Y-45608D01*
X77301Y-45632D01*
X77289Y-45667D01*
X77265Y-45691D01*
X77241Y-45703D01*
X77194Y-45715D01*
X77158Y-45715D01*
X77110Y-45703D01*
X77086Y-45691D01*
X77063Y-45667D01*
X77051Y-45632D01*
X77051Y-45608D01*
X77063Y-45572D01*
X77075Y-45560D01*
X77051Y-45477D02*
X77051Y-45322D01*
X77146Y-45405D01*
X77146Y-45370D01*
X77158Y-45346D01*
X77170Y-45334D01*
X77194Y-45322D01*
X77253Y-45322D01*
X77277Y-45334D01*
X77289Y-45346D01*
X77301Y-45370D01*
X77301Y-45441D01*
X77289Y-45465D01*
X77277Y-45477D01*
X77301Y-45084D02*
X77301Y-45227D01*
X77301Y-45155D02*
X77051Y-45155D01*
X77086Y-45179D01*
X77110Y-45203D01*
X77122Y-45227D01*
X80227Y-45710D02*
X80239Y-45722D01*
X80251Y-45758D01*
X80251Y-45782D01*
X80239Y-45817D01*
X80215Y-45841D01*
X80191Y-45853D01*
X80144Y-45865D01*
X80108Y-45865D01*
X80060Y-45853D01*
X80036Y-45841D01*
X80013Y-45817D01*
X80001Y-45782D01*
X80001Y-45758D01*
X80013Y-45722D01*
X80025Y-45710D01*
X80001Y-45627D02*
X80001Y-45472D01*
X80096Y-45555D01*
X80096Y-45520D01*
X80108Y-45496D01*
X80120Y-45484D01*
X80144Y-45472D01*
X80203Y-45472D01*
X80227Y-45484D01*
X80239Y-45496D01*
X80251Y-45520D01*
X80251Y-45591D01*
X80239Y-45615D01*
X80227Y-45627D01*
X80001Y-45246D02*
X80001Y-45365D01*
X80120Y-45377D01*
X80108Y-45365D01*
X80096Y-45341D01*
X80096Y-45282D01*
X80108Y-45258D01*
X80120Y-45246D01*
X80144Y-45234D01*
X80203Y-45234D01*
X80227Y-45246D01*
X80239Y-45258D01*
X80251Y-45282D01*
X80251Y-45341D01*
X80239Y-45365D01*
X80227Y-45377D01*
X74577Y-54891D02*
X74589Y-54903D01*
X74601Y-54939D01*
X74601Y-54963D01*
X74589Y-54998D01*
X74565Y-55022D01*
X74541Y-55034D01*
X74494Y-55046D01*
X74458Y-55046D01*
X74410Y-55034D01*
X74386Y-55022D01*
X74363Y-54998D01*
X74351Y-54963D01*
X74351Y-54939D01*
X74363Y-54903D01*
X74375Y-54891D01*
X74601Y-54653D02*
X74601Y-54796D01*
X74601Y-54725D02*
X74351Y-54725D01*
X74386Y-54748D01*
X74410Y-54772D01*
X74422Y-54796D01*
X79908Y-50427D02*
X79896Y-50439D01*
X79860Y-50451D01*
X79836Y-50451D01*
X79801Y-50439D01*
X79777Y-50415D01*
X79765Y-50391D01*
X79753Y-50344D01*
X79753Y-50308D01*
X79765Y-50260D01*
X79777Y-50236D01*
X79801Y-50213D01*
X79836Y-50201D01*
X79860Y-50201D01*
X79896Y-50213D01*
X79908Y-50225D01*
X79991Y-50201D02*
X80146Y-50201D01*
X80063Y-50296D01*
X80098Y-50296D01*
X80122Y-50308D01*
X80134Y-50320D01*
X80146Y-50344D01*
X80146Y-50403D01*
X80134Y-50427D01*
X80122Y-50439D01*
X80098Y-50451D01*
X80027Y-50451D01*
X80003Y-50439D01*
X79991Y-50427D01*
X75577Y-48791D02*
X75589Y-48803D01*
X75601Y-48839D01*
X75601Y-48863D01*
X75589Y-48898D01*
X75565Y-48922D01*
X75541Y-48934D01*
X75494Y-48946D01*
X75458Y-48946D01*
X75410Y-48934D01*
X75386Y-48922D01*
X75363Y-48898D01*
X75351Y-48863D01*
X75351Y-48839D01*
X75363Y-48803D01*
X75375Y-48791D01*
X75351Y-48565D02*
X75351Y-48684D01*
X75470Y-48696D01*
X75458Y-48684D01*
X75446Y-48660D01*
X75446Y-48601D01*
X75458Y-48577D01*
X75470Y-48565D01*
X75494Y-48553D01*
X75553Y-48553D01*
X75577Y-48565D01*
X75589Y-48577D01*
X75601Y-48601D01*
X75601Y-48660D01*
X75589Y-48684D01*
X75577Y-48696D01*
X66789Y-42677D02*
X66777Y-42689D01*
X66741Y-42701D01*
X66717Y-42701D01*
X66682Y-42689D01*
X66658Y-42665D01*
X66646Y-42641D01*
X66634Y-42594D01*
X66634Y-42558D01*
X66646Y-42510D01*
X66658Y-42486D01*
X66682Y-42463D01*
X66717Y-42451D01*
X66741Y-42451D01*
X66777Y-42463D01*
X66789Y-42475D01*
X67003Y-42534D02*
X67003Y-42701D01*
X66944Y-42439D02*
X66884Y-42617D01*
X67039Y-42617D01*
X67265Y-42701D02*
X67122Y-42701D01*
X67194Y-42701D02*
X67194Y-42451D01*
X67170Y-42486D01*
X67146Y-42510D01*
X67122Y-42522D01*
X61627Y-57710D02*
X61639Y-57722D01*
X61651Y-57758D01*
X61651Y-57782D01*
X61639Y-57817D01*
X61615Y-57841D01*
X61591Y-57853D01*
X61544Y-57865D01*
X61508Y-57865D01*
X61460Y-57853D01*
X61436Y-57841D01*
X61413Y-57817D01*
X61401Y-57782D01*
X61401Y-57758D01*
X61413Y-57722D01*
X61425Y-57710D01*
X61484Y-57496D02*
X61651Y-57496D01*
X61389Y-57555D02*
X61567Y-57615D01*
X61567Y-57460D01*
X61484Y-57258D02*
X61651Y-57258D01*
X61389Y-57317D02*
X61567Y-57377D01*
X61567Y-57222D01*
X63689Y-55051D02*
X63570Y-55051D01*
X63570Y-54801D01*
X63760Y-54825D02*
X63772Y-54813D01*
X63796Y-54801D01*
X63855Y-54801D01*
X63879Y-54813D01*
X63891Y-54825D01*
X63903Y-54848D01*
X63903Y-54872D01*
X63891Y-54908D01*
X63748Y-55051D01*
X63903Y-55051D01*
X63986Y-54801D02*
X64141Y-54801D01*
X64058Y-54896D01*
X64094Y-54896D01*
X64117Y-54908D01*
X64129Y-54920D01*
X64141Y-54944D01*
X64141Y-55003D01*
X64129Y-55027D01*
X64117Y-55039D01*
X64094Y-55051D01*
X64022Y-55051D01*
X63998Y-55039D01*
X63986Y-55027D01*
X58472Y-39320D02*
X58508Y-39332D01*
X58520Y-39344D01*
X58532Y-39367D01*
X58532Y-39403D01*
X58520Y-39427D01*
X58508Y-39439D01*
X58484Y-39451D01*
X58389Y-39451D01*
X58389Y-39201D01*
X58472Y-39201D01*
X58496Y-39213D01*
X58508Y-39225D01*
X58520Y-39248D01*
X58520Y-39272D01*
X58508Y-39296D01*
X58496Y-39308D01*
X58472Y-39320D01*
X58389Y-39320D01*
X58603Y-39201D02*
X58746Y-39201D01*
X58675Y-39451D02*
X58675Y-39201D01*
X58829Y-39451D02*
X58829Y-39201D01*
X58972Y-39451D01*
X58972Y-39201D01*
X59222Y-39451D02*
X59079Y-39451D01*
X59151Y-39451D02*
X59151Y-39201D01*
X59127Y-39236D01*
X59103Y-39260D01*
X59079Y-39272D01*
X80089Y-42427D02*
X80077Y-42439D01*
X80041Y-42451D01*
X80017Y-42451D01*
X79982Y-42439D01*
X79958Y-42415D01*
X79946Y-42391D01*
X79934Y-42344D01*
X79934Y-42308D01*
X79946Y-42260D01*
X79958Y-42236D01*
X79982Y-42213D01*
X80017Y-42201D01*
X80041Y-42201D01*
X80077Y-42213D01*
X80089Y-42225D01*
X80184Y-42225D02*
X80196Y-42213D01*
X80220Y-42201D01*
X80279Y-42201D01*
X80303Y-42213D01*
X80315Y-42225D01*
X80327Y-42248D01*
X80327Y-42272D01*
X80315Y-42308D01*
X80172Y-42451D01*
X80327Y-42451D01*
X80470Y-42308D02*
X80446Y-42296D01*
X80434Y-42284D01*
X80422Y-42260D01*
X80422Y-42248D01*
X80434Y-42225D01*
X80446Y-42213D01*
X80470Y-42201D01*
X80517Y-42201D01*
X80541Y-42213D01*
X80553Y-42225D01*
X80565Y-42248D01*
X80565Y-42260D01*
X80553Y-42284D01*
X80541Y-42296D01*
X80517Y-42308D01*
X80470Y-42308D01*
X80446Y-42320D01*
X80434Y-42332D01*
X80422Y-42355D01*
X80422Y-42403D01*
X80434Y-42427D01*
X80446Y-42439D01*
X80470Y-42451D01*
X80517Y-42451D01*
X80541Y-42439D01*
X80553Y-42427D01*
X80565Y-42403D01*
X80565Y-42355D01*
X80553Y-42332D01*
X80541Y-42320D01*
X80517Y-42308D01*
X80589Y-44327D02*
X80577Y-44339D01*
X80541Y-44351D01*
X80517Y-44351D01*
X80482Y-44339D01*
X80458Y-44315D01*
X80446Y-44291D01*
X80434Y-44244D01*
X80434Y-44208D01*
X80446Y-44160D01*
X80458Y-44136D01*
X80482Y-44113D01*
X80517Y-44101D01*
X80541Y-44101D01*
X80577Y-44113D01*
X80589Y-44125D01*
X80672Y-44101D02*
X80827Y-44101D01*
X80744Y-44196D01*
X80779Y-44196D01*
X80803Y-44208D01*
X80815Y-44220D01*
X80827Y-44244D01*
X80827Y-44303D01*
X80815Y-44327D01*
X80803Y-44339D01*
X80779Y-44351D01*
X80708Y-44351D01*
X80684Y-44339D01*
X80672Y-44327D01*
X80982Y-44101D02*
X81005Y-44101D01*
X81029Y-44113D01*
X81041Y-44125D01*
X81053Y-44148D01*
X81065Y-44196D01*
X81065Y-44255D01*
X81053Y-44303D01*
X81041Y-44327D01*
X81029Y-44339D01*
X81005Y-44351D01*
X80982Y-44351D01*
X80958Y-44339D01*
X80946Y-44327D01*
X80934Y-44303D01*
X80922Y-44255D01*
X80922Y-44196D01*
X80934Y-44148D01*
X80946Y-44125D01*
X80958Y-44113D01*
X80982Y-44101D01*
X78677Y-46710D02*
X78689Y-46722D01*
X78701Y-46758D01*
X78701Y-46782D01*
X78689Y-46817D01*
X78665Y-46841D01*
X78641Y-46853D01*
X78594Y-46865D01*
X78558Y-46865D01*
X78510Y-46853D01*
X78486Y-46841D01*
X78463Y-46817D01*
X78451Y-46782D01*
X78451Y-46758D01*
X78463Y-46722D01*
X78475Y-46710D01*
X78534Y-46496D02*
X78701Y-46496D01*
X78439Y-46555D02*
X78617Y-46615D01*
X78617Y-46460D01*
X78451Y-46258D02*
X78451Y-46305D01*
X78463Y-46329D01*
X78475Y-46341D01*
X78510Y-46365D01*
X78558Y-46377D01*
X78653Y-46377D01*
X78677Y-46365D01*
X78689Y-46353D01*
X78701Y-46329D01*
X78701Y-46282D01*
X78689Y-46258D01*
X78677Y-46246D01*
X78653Y-46234D01*
X78594Y-46234D01*
X78570Y-46246D01*
X78558Y-46258D01*
X78546Y-46282D01*
X78546Y-46329D01*
X78558Y-46353D01*
X78570Y-46365D01*
X78594Y-46377D01*
X64739Y-52877D02*
X64727Y-52889D01*
X64691Y-52901D01*
X64667Y-52901D01*
X64632Y-52889D01*
X64608Y-52865D01*
X64596Y-52841D01*
X64584Y-52794D01*
X64584Y-52758D01*
X64596Y-52710D01*
X64608Y-52686D01*
X64632Y-52663D01*
X64667Y-52651D01*
X64691Y-52651D01*
X64727Y-52663D01*
X64739Y-52675D01*
X64953Y-52651D02*
X64905Y-52651D01*
X64882Y-52663D01*
X64870Y-52675D01*
X64846Y-52710D01*
X64834Y-52758D01*
X64834Y-52853D01*
X64846Y-52877D01*
X64858Y-52889D01*
X64882Y-52901D01*
X64929Y-52901D01*
X64953Y-52889D01*
X64965Y-52877D01*
X64977Y-52853D01*
X64977Y-52794D01*
X64965Y-52770D01*
X64953Y-52758D01*
X64929Y-52746D01*
X64882Y-52746D01*
X64858Y-52758D01*
X64846Y-52770D01*
X64834Y-52794D01*
X65060Y-52651D02*
X65215Y-52651D01*
X65132Y-52746D01*
X65167Y-52746D01*
X65191Y-52758D01*
X65203Y-52770D01*
X65215Y-52794D01*
X65215Y-52853D01*
X65203Y-52877D01*
X65191Y-52889D01*
X65167Y-52901D01*
X65096Y-52901D01*
X65072Y-52889D01*
X65060Y-52877D01*
X63689Y-54127D02*
X63677Y-54139D01*
X63641Y-54151D01*
X63617Y-54151D01*
X63582Y-54139D01*
X63558Y-54115D01*
X63546Y-54091D01*
X63534Y-54044D01*
X63534Y-54008D01*
X63546Y-53960D01*
X63558Y-53936D01*
X63582Y-53913D01*
X63617Y-53901D01*
X63641Y-53901D01*
X63677Y-53913D01*
X63689Y-53925D01*
X63915Y-53901D02*
X63796Y-53901D01*
X63784Y-54020D01*
X63796Y-54008D01*
X63820Y-53996D01*
X63879Y-53996D01*
X63903Y-54008D01*
X63915Y-54020D01*
X63927Y-54044D01*
X63927Y-54103D01*
X63915Y-54127D01*
X63903Y-54139D01*
X63879Y-54151D01*
X63820Y-54151D01*
X63796Y-54139D01*
X63784Y-54127D01*
X64153Y-53901D02*
X64034Y-53901D01*
X64022Y-54020D01*
X64034Y-54008D01*
X64058Y-53996D01*
X64117Y-53996D01*
X64141Y-54008D01*
X64153Y-54020D01*
X64165Y-54044D01*
X64165Y-54103D01*
X64153Y-54127D01*
X64141Y-54139D01*
X64117Y-54151D01*
X64058Y-54151D01*
X64034Y-54139D01*
X64022Y-54127D01*
X65289Y-48177D02*
X65277Y-48189D01*
X65241Y-48201D01*
X65217Y-48201D01*
X65182Y-48189D01*
X65158Y-48165D01*
X65146Y-48141D01*
X65134Y-48094D01*
X65134Y-48058D01*
X65146Y-48010D01*
X65158Y-47986D01*
X65182Y-47963D01*
X65217Y-47951D01*
X65241Y-47951D01*
X65277Y-47963D01*
X65289Y-47975D01*
X65515Y-47951D02*
X65396Y-47951D01*
X65384Y-48070D01*
X65396Y-48058D01*
X65420Y-48046D01*
X65479Y-48046D01*
X65503Y-48058D01*
X65515Y-48070D01*
X65527Y-48094D01*
X65527Y-48153D01*
X65515Y-48177D01*
X65503Y-48189D01*
X65479Y-48201D01*
X65420Y-48201D01*
X65396Y-48189D01*
X65384Y-48177D01*
X65670Y-48058D02*
X65646Y-48046D01*
X65634Y-48034D01*
X65622Y-48010D01*
X65622Y-47998D01*
X65634Y-47975D01*
X65646Y-47963D01*
X65670Y-47951D01*
X65717Y-47951D01*
X65741Y-47963D01*
X65753Y-47975D01*
X65765Y-47998D01*
X65765Y-48010D01*
X65753Y-48034D01*
X65741Y-48046D01*
X65717Y-48058D01*
X65670Y-48058D01*
X65646Y-48070D01*
X65634Y-48082D01*
X65622Y-48105D01*
X65622Y-48153D01*
X65634Y-48177D01*
X65646Y-48189D01*
X65670Y-48201D01*
X65717Y-48201D01*
X65741Y-48189D01*
X65753Y-48177D01*
X65765Y-48153D01*
X65765Y-48105D01*
X65753Y-48082D01*
X65741Y-48070D01*
X65717Y-48058D01*
X65427Y-49710D02*
X65439Y-49722D01*
X65451Y-49758D01*
X65451Y-49782D01*
X65439Y-49817D01*
X65415Y-49841D01*
X65391Y-49853D01*
X65344Y-49865D01*
X65308Y-49865D01*
X65260Y-49853D01*
X65236Y-49841D01*
X65213Y-49817D01*
X65201Y-49782D01*
X65201Y-49758D01*
X65213Y-49722D01*
X65225Y-49710D01*
X65201Y-49484D02*
X65201Y-49603D01*
X65320Y-49615D01*
X65308Y-49603D01*
X65296Y-49579D01*
X65296Y-49520D01*
X65308Y-49496D01*
X65320Y-49484D01*
X65344Y-49472D01*
X65403Y-49472D01*
X65427Y-49484D01*
X65439Y-49496D01*
X65451Y-49520D01*
X65451Y-49579D01*
X65439Y-49603D01*
X65427Y-49615D01*
X65201Y-49258D02*
X65201Y-49305D01*
X65213Y-49329D01*
X65225Y-49341D01*
X65260Y-49365D01*
X65308Y-49377D01*
X65403Y-49377D01*
X65427Y-49365D01*
X65439Y-49353D01*
X65451Y-49329D01*
X65451Y-49282D01*
X65439Y-49258D01*
X65427Y-49246D01*
X65403Y-49234D01*
X65344Y-49234D01*
X65320Y-49246D01*
X65308Y-49258D01*
X65296Y-49282D01*
X65296Y-49329D01*
X65308Y-49353D01*
X65320Y-49365D01*
X65344Y-49377D01*
X78277Y-46160D02*
X78289Y-46172D01*
X78301Y-46208D01*
X78301Y-46232D01*
X78289Y-46267D01*
X78265Y-46291D01*
X78241Y-46303D01*
X78194Y-46315D01*
X78158Y-46315D01*
X78110Y-46303D01*
X78086Y-46291D01*
X78063Y-46267D01*
X78051Y-46232D01*
X78051Y-46208D01*
X78063Y-46172D01*
X78075Y-46160D01*
X78051Y-46077D02*
X78051Y-45922D01*
X78146Y-46005D01*
X78146Y-45970D01*
X78158Y-45946D01*
X78170Y-45934D01*
X78194Y-45922D01*
X78253Y-45922D01*
X78277Y-45934D01*
X78289Y-45946D01*
X78301Y-45970D01*
X78301Y-46041D01*
X78289Y-46065D01*
X78277Y-46077D01*
X78075Y-45827D02*
X78063Y-45815D01*
X78051Y-45791D01*
X78051Y-45732D01*
X78063Y-45708D01*
X78075Y-45696D01*
X78098Y-45684D01*
X78122Y-45684D01*
X78158Y-45696D01*
X78301Y-45839D01*
X78301Y-45684D01*
X65127Y-56410D02*
X65139Y-56422D01*
X65151Y-56458D01*
X65151Y-56482D01*
X65139Y-56517D01*
X65115Y-56541D01*
X65091Y-56553D01*
X65044Y-56565D01*
X65008Y-56565D01*
X64960Y-56553D01*
X64936Y-56541D01*
X64913Y-56517D01*
X64901Y-56482D01*
X64901Y-56458D01*
X64913Y-56422D01*
X64925Y-56410D01*
X64925Y-56315D02*
X64913Y-56303D01*
X64901Y-56279D01*
X64901Y-56220D01*
X64913Y-56196D01*
X64925Y-56184D01*
X64948Y-56172D01*
X64972Y-56172D01*
X65008Y-56184D01*
X65151Y-56327D01*
X65151Y-56172D01*
X64984Y-55958D02*
X65151Y-55958D01*
X64889Y-56017D02*
X65067Y-56077D01*
X65067Y-55922D01*
X71839Y-54444D02*
X71827Y-54456D01*
X71791Y-54468D01*
X71767Y-54468D01*
X71732Y-54456D01*
X71708Y-54432D01*
X71696Y-54408D01*
X71684Y-54360D01*
X71684Y-54325D01*
X71696Y-54277D01*
X71708Y-54253D01*
X71732Y-54230D01*
X71767Y-54218D01*
X71791Y-54218D01*
X71827Y-54230D01*
X71839Y-54241D01*
X71934Y-54241D02*
X71946Y-54230D01*
X71970Y-54218D01*
X72029Y-54218D01*
X72053Y-54230D01*
X72065Y-54241D01*
X72077Y-54265D01*
X72077Y-54289D01*
X72065Y-54325D01*
X71922Y-54468D01*
X72077Y-54468D01*
X72315Y-54468D02*
X72172Y-54468D01*
X72244Y-54468D02*
X72244Y-54218D01*
X72220Y-54253D01*
X72196Y-54277D01*
X72172Y-54289D01*
X74227Y-56441D02*
X74239Y-56453D01*
X74251Y-56489D01*
X74251Y-56513D01*
X74239Y-56548D01*
X74215Y-56572D01*
X74191Y-56584D01*
X74144Y-56596D01*
X74108Y-56596D01*
X74060Y-56584D01*
X74036Y-56572D01*
X74013Y-56548D01*
X74001Y-56513D01*
X74001Y-56489D01*
X74013Y-56453D01*
X74025Y-56441D01*
X74108Y-56298D02*
X74096Y-56322D01*
X74084Y-56334D01*
X74060Y-56346D01*
X74048Y-56346D01*
X74025Y-56334D01*
X74013Y-56322D01*
X74001Y-56298D01*
X74001Y-56251D01*
X74013Y-56227D01*
X74025Y-56215D01*
X74048Y-56203D01*
X74060Y-56203D01*
X74084Y-56215D01*
X74096Y-56227D01*
X74108Y-56251D01*
X74108Y-56298D01*
X74120Y-56322D01*
X74132Y-56334D01*
X74155Y-56346D01*
X74203Y-56346D01*
X74227Y-56334D01*
X74239Y-56322D01*
X74251Y-56298D01*
X74251Y-56251D01*
X74239Y-56227D01*
X74227Y-56215D01*
X74203Y-56203D01*
X74155Y-56203D01*
X74132Y-56215D01*
X74120Y-56227D01*
X74108Y-56251D01*
X76327Y-56441D02*
X76339Y-56453D01*
X76351Y-56489D01*
X76351Y-56513D01*
X76339Y-56548D01*
X76315Y-56572D01*
X76291Y-56584D01*
X76244Y-56596D01*
X76208Y-56596D01*
X76160Y-56584D01*
X76136Y-56572D01*
X76113Y-56548D01*
X76101Y-56513D01*
X76101Y-56489D01*
X76113Y-56453D01*
X76125Y-56441D01*
X76101Y-56358D02*
X76101Y-56191D01*
X76351Y-56298D01*
X72289Y-50527D02*
X72277Y-50539D01*
X72241Y-50551D01*
X72217Y-50551D01*
X72182Y-50539D01*
X72158Y-50515D01*
X72146Y-50491D01*
X72134Y-50444D01*
X72134Y-50408D01*
X72146Y-50360D01*
X72158Y-50336D01*
X72182Y-50313D01*
X72217Y-50301D01*
X72241Y-50301D01*
X72277Y-50313D01*
X72289Y-50325D01*
X72527Y-50551D02*
X72384Y-50551D01*
X72455Y-50551D02*
X72455Y-50301D01*
X72432Y-50336D01*
X72408Y-50360D01*
X72384Y-50372D01*
X72765Y-50551D02*
X72622Y-50551D01*
X72694Y-50551D02*
X72694Y-50301D01*
X72670Y-50336D01*
X72646Y-50360D01*
X72622Y-50372D01*
X74308Y-48727D02*
X74296Y-48739D01*
X74260Y-48751D01*
X74236Y-48751D01*
X74201Y-48739D01*
X74177Y-48715D01*
X74165Y-48691D01*
X74153Y-48644D01*
X74153Y-48608D01*
X74165Y-48560D01*
X74177Y-48536D01*
X74201Y-48513D01*
X74236Y-48501D01*
X74260Y-48501D01*
X74296Y-48513D01*
X74308Y-48525D01*
X74427Y-48751D02*
X74475Y-48751D01*
X74498Y-48739D01*
X74510Y-48727D01*
X74534Y-48691D01*
X74546Y-48644D01*
X74546Y-48548D01*
X74534Y-48525D01*
X74522Y-48513D01*
X74498Y-48501D01*
X74451Y-48501D01*
X74427Y-48513D01*
X74415Y-48525D01*
X74403Y-48548D01*
X74403Y-48608D01*
X74415Y-48632D01*
X74427Y-48644D01*
X74451Y-48655D01*
X74498Y-48655D01*
X74522Y-48644D01*
X74534Y-48632D01*
X74546Y-48608D01*
X71889Y-53527D02*
X71877Y-53539D01*
X71841Y-53551D01*
X71817Y-53551D01*
X71782Y-53539D01*
X71758Y-53515D01*
X71746Y-53491D01*
X71734Y-53444D01*
X71734Y-53408D01*
X71746Y-53360D01*
X71758Y-53336D01*
X71782Y-53313D01*
X71817Y-53301D01*
X71841Y-53301D01*
X71877Y-53313D01*
X71889Y-53325D01*
X72127Y-53551D02*
X71984Y-53551D01*
X72055Y-53551D02*
X72055Y-53301D01*
X72032Y-53336D01*
X72008Y-53360D01*
X71984Y-53372D01*
X72210Y-53301D02*
X72365Y-53301D01*
X72282Y-53396D01*
X72317Y-53396D01*
X72341Y-53408D01*
X72353Y-53420D01*
X72365Y-53444D01*
X72365Y-53503D01*
X72353Y-53527D01*
X72341Y-53539D01*
X72317Y-53551D01*
X72246Y-53551D01*
X72222Y-53539D01*
X72210Y-53527D01*
X74210Y-53760D02*
X74222Y-53772D01*
X74234Y-53808D01*
X74234Y-53832D01*
X74222Y-53867D01*
X74198Y-53891D01*
X74174Y-53903D01*
X74127Y-53915D01*
X74091Y-53915D01*
X74043Y-53903D01*
X74019Y-53891D01*
X73996Y-53867D01*
X73984Y-53832D01*
X73984Y-53808D01*
X73996Y-53772D01*
X74008Y-53760D01*
X74234Y-53522D02*
X74234Y-53665D01*
X74234Y-53594D02*
X73984Y-53594D01*
X74019Y-53617D01*
X74043Y-53641D01*
X74055Y-53665D01*
X74067Y-53308D02*
X74234Y-53308D01*
X73972Y-53367D02*
X74150Y-53427D01*
X74150Y-53272D01*
X71939Y-53977D02*
X71927Y-53989D01*
X71891Y-54001D01*
X71867Y-54001D01*
X71832Y-53989D01*
X71808Y-53965D01*
X71796Y-53941D01*
X71784Y-53894D01*
X71784Y-53858D01*
X71796Y-53810D01*
X71808Y-53786D01*
X71832Y-53763D01*
X71867Y-53751D01*
X71891Y-53751D01*
X71927Y-53763D01*
X71939Y-53775D01*
X72177Y-54001D02*
X72034Y-54001D01*
X72105Y-54001D02*
X72105Y-53751D01*
X72082Y-53786D01*
X72058Y-53810D01*
X72034Y-53822D01*
X72296Y-54001D02*
X72344Y-54001D01*
X72367Y-53989D01*
X72379Y-53977D01*
X72403Y-53941D01*
X72415Y-53894D01*
X72415Y-53798D01*
X72403Y-53775D01*
X72391Y-53763D01*
X72367Y-53751D01*
X72320Y-53751D01*
X72296Y-53763D01*
X72284Y-53775D01*
X72272Y-53798D01*
X72272Y-53858D01*
X72284Y-53882D01*
X72296Y-53894D01*
X72320Y-53905D01*
X72367Y-53905D01*
X72391Y-53894D01*
X72403Y-53882D01*
X72415Y-53858D01*
X75458Y-55227D02*
X75446Y-55239D01*
X75410Y-55251D01*
X75386Y-55251D01*
X75351Y-55239D01*
X75327Y-55215D01*
X75315Y-55191D01*
X75303Y-55144D01*
X75303Y-55108D01*
X75315Y-55060D01*
X75327Y-55036D01*
X75351Y-55013D01*
X75386Y-55001D01*
X75410Y-55001D01*
X75446Y-55013D01*
X75458Y-55025D01*
X75553Y-55025D02*
X75565Y-55013D01*
X75589Y-55001D01*
X75648Y-55001D01*
X75672Y-55013D01*
X75684Y-55025D01*
X75696Y-55048D01*
X75696Y-55072D01*
X75684Y-55108D01*
X75541Y-55251D01*
X75696Y-55251D01*
X79858Y-51477D02*
X79846Y-51489D01*
X79810Y-51501D01*
X79786Y-51501D01*
X79751Y-51489D01*
X79727Y-51465D01*
X79715Y-51441D01*
X79703Y-51394D01*
X79703Y-51358D01*
X79715Y-51310D01*
X79727Y-51286D01*
X79751Y-51263D01*
X79786Y-51251D01*
X79810Y-51251D01*
X79846Y-51263D01*
X79858Y-51275D01*
X80072Y-51334D02*
X80072Y-51501D01*
X80013Y-51239D02*
X79953Y-51417D01*
X80108Y-51417D01*
X77027Y-49641D02*
X77039Y-49653D01*
X77051Y-49689D01*
X77051Y-49713D01*
X77039Y-49748D01*
X77015Y-49772D01*
X76991Y-49784D01*
X76944Y-49796D01*
X76908Y-49796D01*
X76860Y-49784D01*
X76836Y-49772D01*
X76813Y-49748D01*
X76801Y-49713D01*
X76801Y-49689D01*
X76813Y-49653D01*
X76825Y-49641D01*
X76801Y-49427D02*
X76801Y-49475D01*
X76813Y-49498D01*
X76825Y-49510D01*
X76860Y-49534D01*
X76908Y-49546D01*
X77003Y-49546D01*
X77027Y-49534D01*
X77039Y-49522D01*
X77051Y-49498D01*
X77051Y-49451D01*
X77039Y-49427D01*
X77027Y-49415D01*
X77003Y-49403D01*
X76944Y-49403D01*
X76920Y-49415D01*
X76908Y-49427D01*
X76896Y-49451D01*
X76896Y-49498D01*
X76908Y-49522D01*
X76920Y-49534D01*
X76944Y-49546D01*
X70389Y-47027D02*
X70377Y-47039D01*
X70341Y-47051D01*
X70317Y-47051D01*
X70282Y-47039D01*
X70258Y-47015D01*
X70246Y-46991D01*
X70234Y-46944D01*
X70234Y-46908D01*
X70246Y-46860D01*
X70258Y-46836D01*
X70282Y-46813D01*
X70317Y-46801D01*
X70341Y-46801D01*
X70377Y-46813D01*
X70389Y-46825D01*
X70627Y-47051D02*
X70484Y-47051D01*
X70555Y-47051D02*
X70555Y-46801D01*
X70532Y-46836D01*
X70508Y-46860D01*
X70484Y-46872D01*
X70853Y-46801D02*
X70734Y-46801D01*
X70722Y-46920D01*
X70734Y-46908D01*
X70758Y-46896D01*
X70817Y-46896D01*
X70841Y-46908D01*
X70853Y-46920D01*
X70865Y-46944D01*
X70865Y-47003D01*
X70853Y-47027D01*
X70841Y-47039D01*
X70817Y-47051D01*
X70758Y-47051D01*
X70734Y-47039D01*
X70722Y-47027D01*
X72789Y-54860D02*
X72777Y-54872D01*
X72741Y-54884D01*
X72717Y-54884D01*
X72682Y-54872D01*
X72658Y-54848D01*
X72646Y-54824D01*
X72634Y-54777D01*
X72634Y-54741D01*
X72646Y-54693D01*
X72658Y-54669D01*
X72682Y-54646D01*
X72717Y-54634D01*
X72741Y-54634D01*
X72777Y-54646D01*
X72789Y-54658D01*
X73027Y-54884D02*
X72884Y-54884D01*
X72955Y-54884D02*
X72955Y-54634D01*
X72932Y-54669D01*
X72908Y-54693D01*
X72884Y-54705D01*
X73241Y-54634D02*
X73194Y-54634D01*
X73170Y-54646D01*
X73158Y-54658D01*
X73134Y-54693D01*
X73122Y-54741D01*
X73122Y-54836D01*
X73134Y-54860D01*
X73146Y-54872D01*
X73170Y-54884D01*
X73217Y-54884D01*
X73241Y-54872D01*
X73253Y-54860D01*
X73265Y-54836D01*
X73265Y-54777D01*
X73253Y-54753D01*
X73241Y-54741D01*
X73217Y-54729D01*
X73170Y-54729D01*
X73146Y-54741D01*
X73134Y-54753D01*
X73122Y-54777D01*
X70039Y-41977D02*
X70027Y-41989D01*
X69991Y-42001D01*
X69967Y-42001D01*
X69932Y-41989D01*
X69908Y-41965D01*
X69896Y-41941D01*
X69884Y-41894D01*
X69884Y-41858D01*
X69896Y-41810D01*
X69908Y-41786D01*
X69932Y-41763D01*
X69967Y-41751D01*
X69991Y-41751D01*
X70027Y-41763D01*
X70039Y-41775D01*
X70253Y-41834D02*
X70253Y-42001D01*
X70194Y-41739D02*
X70134Y-41917D01*
X70289Y-41917D01*
X70372Y-41775D02*
X70384Y-41763D01*
X70408Y-41751D01*
X70467Y-41751D01*
X70491Y-41763D01*
X70503Y-41775D01*
X70515Y-41798D01*
X70515Y-41822D01*
X70503Y-41858D01*
X70360Y-42001D01*
X70515Y-42001D01*
X67789Y-44727D02*
X67777Y-44739D01*
X67741Y-44751D01*
X67717Y-44751D01*
X67682Y-44739D01*
X67658Y-44715D01*
X67646Y-44691D01*
X67634Y-44644D01*
X67634Y-44608D01*
X67646Y-44560D01*
X67658Y-44536D01*
X67682Y-44513D01*
X67717Y-44501D01*
X67741Y-44501D01*
X67777Y-44513D01*
X67789Y-44525D01*
X68003Y-44584D02*
X68003Y-44751D01*
X67944Y-44489D02*
X67884Y-44667D01*
X68039Y-44667D01*
X68110Y-44501D02*
X68265Y-44501D01*
X68182Y-44596D01*
X68217Y-44596D01*
X68241Y-44608D01*
X68253Y-44620D01*
X68265Y-44644D01*
X68265Y-44703D01*
X68253Y-44727D01*
X68241Y-44739D01*
X68217Y-44751D01*
X68146Y-44751D01*
X68122Y-44739D01*
X68110Y-44727D01*
X79439Y-46177D02*
X79427Y-46189D01*
X79391Y-46201D01*
X79367Y-46201D01*
X79332Y-46189D01*
X79308Y-46165D01*
X79296Y-46141D01*
X79284Y-46094D01*
X79284Y-46058D01*
X79296Y-46010D01*
X79308Y-45986D01*
X79332Y-45963D01*
X79367Y-45951D01*
X79391Y-45951D01*
X79427Y-45963D01*
X79439Y-45975D01*
X79522Y-45951D02*
X79677Y-45951D01*
X79594Y-46046D01*
X79629Y-46046D01*
X79653Y-46058D01*
X79665Y-46070D01*
X79677Y-46094D01*
X79677Y-46153D01*
X79665Y-46177D01*
X79653Y-46189D01*
X79629Y-46201D01*
X79558Y-46201D01*
X79534Y-46189D01*
X79522Y-46177D01*
X79891Y-45951D02*
X79844Y-45951D01*
X79820Y-45963D01*
X79808Y-45975D01*
X79784Y-46010D01*
X79772Y-46058D01*
X79772Y-46153D01*
X79784Y-46177D01*
X79796Y-46189D01*
X79820Y-46201D01*
X79867Y-46201D01*
X79891Y-46189D01*
X79903Y-46177D01*
X79915Y-46153D01*
X79915Y-46094D01*
X79903Y-46070D01*
X79891Y-46058D01*
X79867Y-46046D01*
X79820Y-46046D01*
X79796Y-46058D01*
X79784Y-46070D01*
X79772Y-46094D01*
X63377Y-42360D02*
X63389Y-42372D01*
X63401Y-42408D01*
X63401Y-42432D01*
X63389Y-42467D01*
X63365Y-42491D01*
X63341Y-42503D01*
X63294Y-42515D01*
X63258Y-42515D01*
X63210Y-42503D01*
X63186Y-42491D01*
X63163Y-42467D01*
X63151Y-42432D01*
X63151Y-42408D01*
X63163Y-42372D01*
X63175Y-42360D01*
X63234Y-42146D02*
X63401Y-42146D01*
X63139Y-42205D02*
X63317Y-42265D01*
X63317Y-42110D01*
X63151Y-41967D02*
X63151Y-41944D01*
X63163Y-41920D01*
X63175Y-41908D01*
X63198Y-41896D01*
X63246Y-41884D01*
X63305Y-41884D01*
X63353Y-41896D01*
X63377Y-41908D01*
X63389Y-41920D01*
X63401Y-41944D01*
X63401Y-41967D01*
X63389Y-41991D01*
X63377Y-42003D01*
X63353Y-42015D01*
X63305Y-42027D01*
X63246Y-42027D01*
X63198Y-42015D01*
X63175Y-42003D01*
X63163Y-41991D01*
X63151Y-41967D01*
X79189Y-41927D02*
X79177Y-41939D01*
X79141Y-41951D01*
X79117Y-41951D01*
X79082Y-41939D01*
X79058Y-41915D01*
X79046Y-41891D01*
X79034Y-41844D01*
X79034Y-41808D01*
X79046Y-41760D01*
X79058Y-41736D01*
X79082Y-41713D01*
X79117Y-41701D01*
X79141Y-41701D01*
X79177Y-41713D01*
X79189Y-41725D01*
X79284Y-41725D02*
X79296Y-41713D01*
X79320Y-41701D01*
X79379Y-41701D01*
X79403Y-41713D01*
X79415Y-41725D01*
X79427Y-41748D01*
X79427Y-41772D01*
X79415Y-41808D01*
X79272Y-41951D01*
X79427Y-41951D01*
X79546Y-41951D02*
X79594Y-41951D01*
X79617Y-41939D01*
X79629Y-41927D01*
X79653Y-41891D01*
X79665Y-41844D01*
X79665Y-41748D01*
X79653Y-41725D01*
X79641Y-41713D01*
X79617Y-41701D01*
X79570Y-41701D01*
X79546Y-41713D01*
X79534Y-41725D01*
X79522Y-41748D01*
X79522Y-41808D01*
X79534Y-41832D01*
X79546Y-41844D01*
X79570Y-41855D01*
X79617Y-41855D01*
X79641Y-41844D01*
X79653Y-41832D01*
X79665Y-41808D01*
X77027Y-54660D02*
X77039Y-54672D01*
X77051Y-54708D01*
X77051Y-54732D01*
X77039Y-54767D01*
X77015Y-54791D01*
X76991Y-54803D01*
X76944Y-54815D01*
X76908Y-54815D01*
X76860Y-54803D01*
X76836Y-54791D01*
X76813Y-54767D01*
X76801Y-54732D01*
X76801Y-54708D01*
X76813Y-54672D01*
X76825Y-54660D01*
X77051Y-54422D02*
X77051Y-54565D01*
X77051Y-54494D02*
X76801Y-54494D01*
X76836Y-54517D01*
X76860Y-54541D01*
X76872Y-54565D01*
X76825Y-54327D02*
X76813Y-54315D01*
X76801Y-54291D01*
X76801Y-54232D01*
X76813Y-54208D01*
X76825Y-54196D01*
X76848Y-54184D01*
X76872Y-54184D01*
X76908Y-54196D01*
X77051Y-54339D01*
X77051Y-54184D01*
X61777Y-51260D02*
X61789Y-51272D01*
X61801Y-51308D01*
X61801Y-51332D01*
X61789Y-51367D01*
X61765Y-51391D01*
X61741Y-51403D01*
X61694Y-51415D01*
X61658Y-51415D01*
X61610Y-51403D01*
X61586Y-51391D01*
X61563Y-51367D01*
X61551Y-51332D01*
X61551Y-51308D01*
X61563Y-51272D01*
X61575Y-51260D01*
X61551Y-51046D02*
X61551Y-51094D01*
X61563Y-51117D01*
X61575Y-51129D01*
X61610Y-51153D01*
X61658Y-51165D01*
X61753Y-51165D01*
X61777Y-51153D01*
X61789Y-51141D01*
X61801Y-51117D01*
X61801Y-51070D01*
X61789Y-51046D01*
X61777Y-51034D01*
X61753Y-51022D01*
X61694Y-51022D01*
X61670Y-51034D01*
X61658Y-51046D01*
X61646Y-51070D01*
X61646Y-51117D01*
X61658Y-51141D01*
X61670Y-51153D01*
X61694Y-51165D01*
X61658Y-50879D02*
X61646Y-50903D01*
X61634Y-50915D01*
X61610Y-50927D01*
X61598Y-50927D01*
X61575Y-50915D01*
X61563Y-50903D01*
X61551Y-50879D01*
X61551Y-50832D01*
X61563Y-50808D01*
X61575Y-50796D01*
X61598Y-50784D01*
X61610Y-50784D01*
X61634Y-50796D01*
X61646Y-50808D01*
X61658Y-50832D01*
X61658Y-50879D01*
X61670Y-50903D01*
X61682Y-50915D01*
X61705Y-50927D01*
X61753Y-50927D01*
X61777Y-50915D01*
X61789Y-50903D01*
X61801Y-50879D01*
X61801Y-50832D01*
X61789Y-50808D01*
X61777Y-50796D01*
X61753Y-50784D01*
X61705Y-50784D01*
X61682Y-50796D01*
X61670Y-50808D01*
X61658Y-50832D01*
X60427Y-51260D02*
X60439Y-51272D01*
X60451Y-51308D01*
X60451Y-51332D01*
X60439Y-51367D01*
X60415Y-51391D01*
X60391Y-51403D01*
X60344Y-51415D01*
X60308Y-51415D01*
X60260Y-51403D01*
X60236Y-51391D01*
X60213Y-51367D01*
X60201Y-51332D01*
X60201Y-51308D01*
X60213Y-51272D01*
X60225Y-51260D01*
X60201Y-51046D02*
X60201Y-51094D01*
X60213Y-51117D01*
X60225Y-51129D01*
X60260Y-51153D01*
X60308Y-51165D01*
X60403Y-51165D01*
X60427Y-51153D01*
X60439Y-51141D01*
X60451Y-51117D01*
X60451Y-51070D01*
X60439Y-51046D01*
X60427Y-51034D01*
X60403Y-51022D01*
X60344Y-51022D01*
X60320Y-51034D01*
X60308Y-51046D01*
X60296Y-51070D01*
X60296Y-51117D01*
X60308Y-51141D01*
X60320Y-51153D01*
X60344Y-51165D01*
X60451Y-50903D02*
X60451Y-50855D01*
X60439Y-50832D01*
X60427Y-50820D01*
X60391Y-50796D01*
X60344Y-50784D01*
X60248Y-50784D01*
X60225Y-50796D01*
X60213Y-50808D01*
X60201Y-50832D01*
X60201Y-50879D01*
X60213Y-50903D01*
X60225Y-50915D01*
X60248Y-50927D01*
X60308Y-50927D01*
X60332Y-50915D01*
X60344Y-50903D01*
X60355Y-50879D01*
X60355Y-50832D01*
X60344Y-50808D01*
X60332Y-50796D01*
X60308Y-50784D01*
X59189Y-57677D02*
X59177Y-57689D01*
X59141Y-57701D01*
X59117Y-57701D01*
X59082Y-57689D01*
X59058Y-57665D01*
X59046Y-57641D01*
X59034Y-57594D01*
X59034Y-57558D01*
X59046Y-57510D01*
X59058Y-57486D01*
X59082Y-57463D01*
X59117Y-57451D01*
X59141Y-57451D01*
X59177Y-57463D01*
X59189Y-57475D01*
X59403Y-57451D02*
X59355Y-57451D01*
X59332Y-57463D01*
X59320Y-57475D01*
X59296Y-57510D01*
X59284Y-57558D01*
X59284Y-57653D01*
X59296Y-57677D01*
X59308Y-57689D01*
X59332Y-57701D01*
X59379Y-57701D01*
X59403Y-57689D01*
X59415Y-57677D01*
X59427Y-57653D01*
X59427Y-57594D01*
X59415Y-57570D01*
X59403Y-57558D01*
X59379Y-57546D01*
X59332Y-57546D01*
X59308Y-57558D01*
X59296Y-57570D01*
X59284Y-57594D01*
X59641Y-57451D02*
X59594Y-57451D01*
X59570Y-57463D01*
X59558Y-57475D01*
X59534Y-57510D01*
X59522Y-57558D01*
X59522Y-57653D01*
X59534Y-57677D01*
X59546Y-57689D01*
X59570Y-57701D01*
X59617Y-57701D01*
X59641Y-57689D01*
X59653Y-57677D01*
X59665Y-57653D01*
X59665Y-57594D01*
X59653Y-57570D01*
X59641Y-57558D01*
X59617Y-57546D01*
X59570Y-57546D01*
X59546Y-57558D01*
X59534Y-57570D01*
X59522Y-57594D01*
X59177Y-51260D02*
X59189Y-51272D01*
X59201Y-51308D01*
X59201Y-51332D01*
X59189Y-51367D01*
X59165Y-51391D01*
X59141Y-51403D01*
X59094Y-51415D01*
X59058Y-51415D01*
X59010Y-51403D01*
X58986Y-51391D01*
X58963Y-51367D01*
X58951Y-51332D01*
X58951Y-51308D01*
X58963Y-51272D01*
X58975Y-51260D01*
X58951Y-51177D02*
X58951Y-51010D01*
X59201Y-51117D01*
X58951Y-50867D02*
X58951Y-50844D01*
X58963Y-50820D01*
X58975Y-50808D01*
X58998Y-50796D01*
X59046Y-50784D01*
X59105Y-50784D01*
X59153Y-50796D01*
X59177Y-50808D01*
X59189Y-50820D01*
X59201Y-50844D01*
X59201Y-50867D01*
X59189Y-50891D01*
X59177Y-50903D01*
X59153Y-50915D01*
X59105Y-50927D01*
X59046Y-50927D01*
X58998Y-50915D01*
X58975Y-50903D01*
X58963Y-50891D01*
X58951Y-50867D01*
X85601Y-56710D02*
X85482Y-56794D01*
X85601Y-56853D02*
X85351Y-56853D01*
X85351Y-56758D01*
X85363Y-56734D01*
X85375Y-56722D01*
X85398Y-56710D01*
X85434Y-56710D01*
X85458Y-56722D01*
X85470Y-56734D01*
X85482Y-56758D01*
X85482Y-56853D01*
X85375Y-56615D02*
X85363Y-56603D01*
X85351Y-56579D01*
X85351Y-56520D01*
X85363Y-56496D01*
X85375Y-56484D01*
X85398Y-56472D01*
X85422Y-56472D01*
X85458Y-56484D01*
X85601Y-56627D01*
X85601Y-56472D01*
X85351Y-56246D02*
X85351Y-56365D01*
X85470Y-56377D01*
X85458Y-56365D01*
X85446Y-56341D01*
X85446Y-56282D01*
X85458Y-56258D01*
X85470Y-56246D01*
X85494Y-56234D01*
X85553Y-56234D01*
X85577Y-56246D01*
X85589Y-56258D01*
X85601Y-56282D01*
X85601Y-56341D01*
X85589Y-56365D01*
X85577Y-56377D01*
X62251Y-51510D02*
X62132Y-51594D01*
X62251Y-51653D02*
X62001Y-51653D01*
X62001Y-51558D01*
X62013Y-51534D01*
X62025Y-51522D01*
X62048Y-51510D01*
X62084Y-51510D01*
X62108Y-51522D01*
X62120Y-51534D01*
X62132Y-51558D01*
X62132Y-51653D01*
X62025Y-51415D02*
X62013Y-51403D01*
X62001Y-51379D01*
X62001Y-51320D01*
X62013Y-51296D01*
X62025Y-51284D01*
X62048Y-51272D01*
X62072Y-51272D01*
X62108Y-51284D01*
X62251Y-51427D01*
X62251Y-51272D01*
X62001Y-51189D02*
X62001Y-51034D01*
X62096Y-51117D01*
X62096Y-51082D01*
X62108Y-51058D01*
X62120Y-51046D01*
X62144Y-51034D01*
X62203Y-51034D01*
X62227Y-51046D01*
X62239Y-51058D01*
X62251Y-51082D01*
X62251Y-51153D01*
X62239Y-51177D01*
X62227Y-51189D01*
X83601Y-56210D02*
X83482Y-56294D01*
X83601Y-56353D02*
X83351Y-56353D01*
X83351Y-56258D01*
X83363Y-56234D01*
X83375Y-56222D01*
X83398Y-56210D01*
X83434Y-56210D01*
X83458Y-56222D01*
X83470Y-56234D01*
X83482Y-56258D01*
X83482Y-56353D01*
X83375Y-56115D02*
X83363Y-56103D01*
X83351Y-56079D01*
X83351Y-56020D01*
X83363Y-55996D01*
X83375Y-55984D01*
X83398Y-55972D01*
X83422Y-55972D01*
X83458Y-55984D01*
X83601Y-56127D01*
X83601Y-55972D01*
X83351Y-55758D02*
X83351Y-55805D01*
X83363Y-55829D01*
X83375Y-55841D01*
X83410Y-55865D01*
X83458Y-55877D01*
X83553Y-55877D01*
X83577Y-55865D01*
X83589Y-55853D01*
X83601Y-55829D01*
X83601Y-55782D01*
X83589Y-55758D01*
X83577Y-55746D01*
X83553Y-55734D01*
X83494Y-55734D01*
X83470Y-55746D01*
X83458Y-55758D01*
X83446Y-55782D01*
X83446Y-55829D01*
X83458Y-55853D01*
X83470Y-55865D01*
X83494Y-55877D01*
X82601Y-56210D02*
X82482Y-56294D01*
X82601Y-56353D02*
X82351Y-56353D01*
X82351Y-56258D01*
X82363Y-56234D01*
X82375Y-56222D01*
X82398Y-56210D01*
X82434Y-56210D01*
X82458Y-56222D01*
X82470Y-56234D01*
X82482Y-56258D01*
X82482Y-56353D01*
X82375Y-56115D02*
X82363Y-56103D01*
X82351Y-56079D01*
X82351Y-56020D01*
X82363Y-55996D01*
X82375Y-55984D01*
X82398Y-55972D01*
X82422Y-55972D01*
X82458Y-55984D01*
X82601Y-56127D01*
X82601Y-55972D01*
X82351Y-55889D02*
X82351Y-55722D01*
X82601Y-55829D01*
X81601Y-56210D02*
X81482Y-56294D01*
X81601Y-56353D02*
X81351Y-56353D01*
X81351Y-56258D01*
X81363Y-56234D01*
X81375Y-56222D01*
X81398Y-56210D01*
X81434Y-56210D01*
X81458Y-56222D01*
X81470Y-56234D01*
X81482Y-56258D01*
X81482Y-56353D01*
X81375Y-56115D02*
X81363Y-56103D01*
X81351Y-56079D01*
X81351Y-56020D01*
X81363Y-55996D01*
X81375Y-55984D01*
X81398Y-55972D01*
X81422Y-55972D01*
X81458Y-55984D01*
X81601Y-56127D01*
X81601Y-55972D01*
X81458Y-55829D02*
X81446Y-55853D01*
X81434Y-55865D01*
X81410Y-55877D01*
X81398Y-55877D01*
X81375Y-55865D01*
X81363Y-55853D01*
X81351Y-55829D01*
X81351Y-55782D01*
X81363Y-55758D01*
X81375Y-55746D01*
X81398Y-55734D01*
X81410Y-55734D01*
X81434Y-55746D01*
X81446Y-55758D01*
X81458Y-55782D01*
X81458Y-55829D01*
X81470Y-55853D01*
X81482Y-55865D01*
X81505Y-55877D01*
X81553Y-55877D01*
X81577Y-55865D01*
X81589Y-55853D01*
X81601Y-55829D01*
X81601Y-55782D01*
X81589Y-55758D01*
X81577Y-55746D01*
X81553Y-55734D01*
X81505Y-55734D01*
X81482Y-55746D01*
X81470Y-55758D01*
X81458Y-55782D01*
X80601Y-56210D02*
X80482Y-56294D01*
X80601Y-56353D02*
X80351Y-56353D01*
X80351Y-56258D01*
X80363Y-56234D01*
X80375Y-56222D01*
X80398Y-56210D01*
X80434Y-56210D01*
X80458Y-56222D01*
X80470Y-56234D01*
X80482Y-56258D01*
X80482Y-56353D01*
X80375Y-56115D02*
X80363Y-56103D01*
X80351Y-56079D01*
X80351Y-56020D01*
X80363Y-55996D01*
X80375Y-55984D01*
X80398Y-55972D01*
X80422Y-55972D01*
X80458Y-55984D01*
X80601Y-56127D01*
X80601Y-55972D01*
X80601Y-55853D02*
X80601Y-55805D01*
X80589Y-55782D01*
X80577Y-55770D01*
X80541Y-55746D01*
X80494Y-55734D01*
X80398Y-55734D01*
X80375Y-55746D01*
X80363Y-55758D01*
X80351Y-55782D01*
X80351Y-55829D01*
X80363Y-55853D01*
X80375Y-55865D01*
X80398Y-55877D01*
X80458Y-55877D01*
X80482Y-55865D01*
X80494Y-55853D01*
X80505Y-55829D01*
X80505Y-55782D01*
X80494Y-55758D01*
X80482Y-55746D01*
X80458Y-55734D01*
X79601Y-56210D02*
X79482Y-56294D01*
X79601Y-56353D02*
X79351Y-56353D01*
X79351Y-56258D01*
X79363Y-56234D01*
X79375Y-56222D01*
X79398Y-56210D01*
X79434Y-56210D01*
X79458Y-56222D01*
X79470Y-56234D01*
X79482Y-56258D01*
X79482Y-56353D01*
X79351Y-56127D02*
X79351Y-55972D01*
X79446Y-56055D01*
X79446Y-56020D01*
X79458Y-55996D01*
X79470Y-55984D01*
X79494Y-55972D01*
X79553Y-55972D01*
X79577Y-55984D01*
X79589Y-55996D01*
X79601Y-56020D01*
X79601Y-56091D01*
X79589Y-56115D01*
X79577Y-56127D01*
X79351Y-55817D02*
X79351Y-55794D01*
X79363Y-55770D01*
X79375Y-55758D01*
X79398Y-55746D01*
X79446Y-55734D01*
X79505Y-55734D01*
X79553Y-55746D01*
X79577Y-55758D01*
X79589Y-55770D01*
X79601Y-55794D01*
X79601Y-55817D01*
X79589Y-55841D01*
X79577Y-55853D01*
X79553Y-55865D01*
X79505Y-55877D01*
X79446Y-55877D01*
X79398Y-55865D01*
X79375Y-55853D01*
X79363Y-55841D01*
X79351Y-55817D01*
X77701Y-57160D02*
X77582Y-57244D01*
X77701Y-57303D02*
X77451Y-57303D01*
X77451Y-57208D01*
X77463Y-57184D01*
X77475Y-57172D01*
X77498Y-57160D01*
X77534Y-57160D01*
X77558Y-57172D01*
X77570Y-57184D01*
X77582Y-57208D01*
X77582Y-57303D01*
X77475Y-57065D02*
X77463Y-57053D01*
X77451Y-57029D01*
X77451Y-56970D01*
X77463Y-56946D01*
X77475Y-56934D01*
X77498Y-56922D01*
X77522Y-56922D01*
X77558Y-56934D01*
X77701Y-57077D01*
X77701Y-56922D01*
X77701Y-56684D02*
X77701Y-56827D01*
X77701Y-56755D02*
X77451Y-56755D01*
X77486Y-56779D01*
X77510Y-56803D01*
X77522Y-56827D01*
X79001Y-57160D02*
X78882Y-57244D01*
X79001Y-57303D02*
X78751Y-57303D01*
X78751Y-57208D01*
X78763Y-57184D01*
X78775Y-57172D01*
X78798Y-57160D01*
X78834Y-57160D01*
X78858Y-57172D01*
X78870Y-57184D01*
X78882Y-57208D01*
X78882Y-57303D01*
X78775Y-57065D02*
X78763Y-57053D01*
X78751Y-57029D01*
X78751Y-56970D01*
X78763Y-56946D01*
X78775Y-56934D01*
X78798Y-56922D01*
X78822Y-56922D01*
X78858Y-56934D01*
X79001Y-57077D01*
X79001Y-56922D01*
X78751Y-56767D02*
X78751Y-56744D01*
X78763Y-56720D01*
X78775Y-56708D01*
X78798Y-56696D01*
X78846Y-56684D01*
X78905Y-56684D01*
X78953Y-56696D01*
X78977Y-56708D01*
X78989Y-56720D01*
X79001Y-56744D01*
X79001Y-56767D01*
X78989Y-56791D01*
X78977Y-56803D01*
X78953Y-56815D01*
X78905Y-56827D01*
X78846Y-56827D01*
X78798Y-56815D01*
X78775Y-56803D01*
X78763Y-56791D01*
X78751Y-56767D01*
X76801Y-55560D02*
X76682Y-55644D01*
X76801Y-55703D02*
X76551Y-55703D01*
X76551Y-55608D01*
X76563Y-55584D01*
X76575Y-55572D01*
X76598Y-55560D01*
X76634Y-55560D01*
X76658Y-55572D01*
X76670Y-55584D01*
X76682Y-55608D01*
X76682Y-55703D01*
X76801Y-55322D02*
X76801Y-55465D01*
X76801Y-55394D02*
X76551Y-55394D01*
X76586Y-55417D01*
X76610Y-55441D01*
X76622Y-55465D01*
X76551Y-55239D02*
X76551Y-55072D01*
X76801Y-55179D01*
X80851Y-47810D02*
X80732Y-47894D01*
X80851Y-47953D02*
X80601Y-47953D01*
X80601Y-47858D01*
X80613Y-47834D01*
X80625Y-47822D01*
X80648Y-47810D01*
X80684Y-47810D01*
X80708Y-47822D01*
X80720Y-47834D01*
X80732Y-47858D01*
X80732Y-47953D01*
X80851Y-47572D02*
X80851Y-47715D01*
X80851Y-47644D02*
X80601Y-47644D01*
X80636Y-47667D01*
X80660Y-47691D01*
X80672Y-47715D01*
X80708Y-47429D02*
X80696Y-47453D01*
X80684Y-47465D01*
X80660Y-47477D01*
X80648Y-47477D01*
X80625Y-47465D01*
X80613Y-47453D01*
X80601Y-47429D01*
X80601Y-47382D01*
X80613Y-47358D01*
X80625Y-47346D01*
X80648Y-47334D01*
X80660Y-47334D01*
X80684Y-47346D01*
X80696Y-47358D01*
X80708Y-47382D01*
X80708Y-47429D01*
X80720Y-47453D01*
X80732Y-47465D01*
X80755Y-47477D01*
X80803Y-47477D01*
X80827Y-47465D01*
X80839Y-47453D01*
X80851Y-47429D01*
X80851Y-47382D01*
X80839Y-47358D01*
X80827Y-47346D01*
X80803Y-47334D01*
X80755Y-47334D01*
X80732Y-47346D01*
X80720Y-47358D01*
X80708Y-47382D01*
X78751Y-45741D02*
X78632Y-45825D01*
X78751Y-45884D02*
X78501Y-45884D01*
X78501Y-45789D01*
X78513Y-45765D01*
X78525Y-45753D01*
X78548Y-45741D01*
X78584Y-45741D01*
X78608Y-45753D01*
X78620Y-45765D01*
X78632Y-45789D01*
X78632Y-45884D01*
X78501Y-45515D02*
X78501Y-45634D01*
X78620Y-45646D01*
X78608Y-45634D01*
X78596Y-45610D01*
X78596Y-45551D01*
X78608Y-45527D01*
X78620Y-45515D01*
X78644Y-45503D01*
X78703Y-45503D01*
X78727Y-45515D01*
X78739Y-45527D01*
X78751Y-45551D01*
X78751Y-45610D01*
X78739Y-45634D01*
X78727Y-45646D01*
X64108Y-44401D02*
X64025Y-44282D01*
X63965Y-44401D02*
X63965Y-44151D01*
X64060Y-44151D01*
X64084Y-44163D01*
X64096Y-44175D01*
X64108Y-44198D01*
X64108Y-44234D01*
X64096Y-44258D01*
X64084Y-44270D01*
X64060Y-44282D01*
X63965Y-44282D01*
X64191Y-44151D02*
X64358Y-44151D01*
X64251Y-44401D01*
X60608Y-59201D02*
X60525Y-59082D01*
X60465Y-59201D02*
X60465Y-58951D01*
X60560Y-58951D01*
X60584Y-58963D01*
X60596Y-58975D01*
X60608Y-58998D01*
X60608Y-59034D01*
X60596Y-59058D01*
X60584Y-59070D01*
X60560Y-59082D01*
X60465Y-59082D01*
X60846Y-59201D02*
X60703Y-59201D01*
X60775Y-59201D02*
X60775Y-58951D01*
X60751Y-58986D01*
X60727Y-59010D01*
X60703Y-59022D01*
X62951Y-41791D02*
X62832Y-41875D01*
X62951Y-41934D02*
X62701Y-41934D01*
X62701Y-41839D01*
X62713Y-41815D01*
X62725Y-41803D01*
X62748Y-41791D01*
X62784Y-41791D01*
X62808Y-41803D01*
X62820Y-41815D01*
X62832Y-41839D01*
X62832Y-41934D01*
X62701Y-41577D02*
X62701Y-41625D01*
X62713Y-41648D01*
X62725Y-41660D01*
X62760Y-41684D01*
X62808Y-41696D01*
X62903Y-41696D01*
X62927Y-41684D01*
X62939Y-41672D01*
X62951Y-41648D01*
X62951Y-41601D01*
X62939Y-41577D01*
X62927Y-41565D01*
X62903Y-41553D01*
X62844Y-41553D01*
X62820Y-41565D01*
X62808Y-41577D01*
X62796Y-41601D01*
X62796Y-41648D01*
X62808Y-41672D01*
X62820Y-41684D01*
X62844Y-41696D01*
X60608Y-58651D02*
X60525Y-58532D01*
X60465Y-58651D02*
X60465Y-58401D01*
X60560Y-58401D01*
X60584Y-58413D01*
X60596Y-58425D01*
X60608Y-58448D01*
X60608Y-58484D01*
X60596Y-58508D01*
X60584Y-58520D01*
X60560Y-58532D01*
X60465Y-58532D01*
X60703Y-58425D02*
X60715Y-58413D01*
X60739Y-58401D01*
X60798Y-58401D01*
X60822Y-58413D01*
X60834Y-58425D01*
X60846Y-58448D01*
X60846Y-58472D01*
X60834Y-58508D01*
X60691Y-58651D01*
X60846Y-58651D01*
X71958Y-55801D02*
X71875Y-55682D01*
X71815Y-55801D02*
X71815Y-55551D01*
X71910Y-55551D01*
X71934Y-55563D01*
X71946Y-55575D01*
X71958Y-55598D01*
X71958Y-55634D01*
X71946Y-55658D01*
X71934Y-55670D01*
X71910Y-55682D01*
X71815Y-55682D01*
X72172Y-55634D02*
X72172Y-55801D01*
X72113Y-55539D02*
X72053Y-55717D01*
X72208Y-55717D01*
X67089Y-47251D02*
X67005Y-47132D01*
X66946Y-47251D02*
X66946Y-47001D01*
X67041Y-47001D01*
X67065Y-47013D01*
X67077Y-47025D01*
X67089Y-47048D01*
X67089Y-47084D01*
X67077Y-47108D01*
X67065Y-47120D01*
X67041Y-47132D01*
X66946Y-47132D01*
X67327Y-47251D02*
X67184Y-47251D01*
X67255Y-47251D02*
X67255Y-47001D01*
X67232Y-47036D01*
X67208Y-47060D01*
X67184Y-47072D01*
X67410Y-47001D02*
X67565Y-47001D01*
X67482Y-47096D01*
X67517Y-47096D01*
X67541Y-47108D01*
X67553Y-47120D01*
X67565Y-47144D01*
X67565Y-47203D01*
X67553Y-47227D01*
X67541Y-47239D01*
X67517Y-47251D01*
X67446Y-47251D01*
X67422Y-47239D01*
X67410Y-47227D01*
X64439Y-50251D02*
X64355Y-50132D01*
X64296Y-50251D02*
X64296Y-50001D01*
X64391Y-50001D01*
X64415Y-50013D01*
X64427Y-50025D01*
X64439Y-50048D01*
X64439Y-50084D01*
X64427Y-50108D01*
X64415Y-50120D01*
X64391Y-50132D01*
X64296Y-50132D01*
X64677Y-50251D02*
X64534Y-50251D01*
X64605Y-50251D02*
X64605Y-50001D01*
X64582Y-50036D01*
X64558Y-50060D01*
X64534Y-50072D01*
X64903Y-50001D02*
X64784Y-50001D01*
X64772Y-50120D01*
X64784Y-50108D01*
X64808Y-50096D01*
X64867Y-50096D01*
X64891Y-50108D01*
X64903Y-50120D01*
X64915Y-50144D01*
X64915Y-50203D01*
X64903Y-50227D01*
X64891Y-50239D01*
X64867Y-50251D01*
X64808Y-50251D01*
X64784Y-50239D01*
X64772Y-50227D01*
X72158Y-53101D02*
X72075Y-52982D01*
X72015Y-53101D02*
X72015Y-52851D01*
X72110Y-52851D01*
X72134Y-52863D01*
X72146Y-52875D01*
X72158Y-52898D01*
X72158Y-52934D01*
X72146Y-52958D01*
X72134Y-52970D01*
X72110Y-52982D01*
X72015Y-52982D01*
X72241Y-52851D02*
X72396Y-52851D01*
X72313Y-52946D01*
X72348Y-52946D01*
X72372Y-52958D01*
X72384Y-52970D01*
X72396Y-52994D01*
X72396Y-53053D01*
X72384Y-53077D01*
X72372Y-53089D01*
X72348Y-53101D01*
X72277Y-53101D01*
X72253Y-53089D01*
X72241Y-53077D01*
X64439Y-50701D02*
X64355Y-50582D01*
X64296Y-50701D02*
X64296Y-50451D01*
X64391Y-50451D01*
X64415Y-50463D01*
X64427Y-50475D01*
X64439Y-50498D01*
X64439Y-50534D01*
X64427Y-50558D01*
X64415Y-50570D01*
X64391Y-50582D01*
X64296Y-50582D01*
X64677Y-50701D02*
X64534Y-50701D01*
X64605Y-50701D02*
X64605Y-50451D01*
X64582Y-50486D01*
X64558Y-50510D01*
X64534Y-50522D01*
X64891Y-50534D02*
X64891Y-50701D01*
X64832Y-50439D02*
X64772Y-50617D01*
X64927Y-50617D01*
X58751Y-51260D02*
X58751Y-51379D01*
X58501Y-51379D01*
X58525Y-51189D02*
X58513Y-51177D01*
X58501Y-51153D01*
X58501Y-51094D01*
X58513Y-51070D01*
X58525Y-51058D01*
X58548Y-51046D01*
X58572Y-51046D01*
X58608Y-51058D01*
X58751Y-51201D01*
X58751Y-51046D01*
X58501Y-50891D02*
X58501Y-50867D01*
X58513Y-50844D01*
X58525Y-50832D01*
X58548Y-50820D01*
X58596Y-50808D01*
X58655Y-50808D01*
X58703Y-50820D01*
X58727Y-50832D01*
X58739Y-50844D01*
X58751Y-50867D01*
X58751Y-50891D01*
X58739Y-50915D01*
X58727Y-50927D01*
X58703Y-50939D01*
X58655Y-50951D01*
X58596Y-50951D01*
X58548Y-50939D01*
X58525Y-50927D01*
X58513Y-50915D01*
X58501Y-50891D01*
X60001Y-57960D02*
X60001Y-58079D01*
X59751Y-58079D01*
X60001Y-57746D02*
X60001Y-57889D01*
X60001Y-57817D02*
X59751Y-57817D01*
X59786Y-57841D01*
X59810Y-57865D01*
X59822Y-57889D01*
X59858Y-57603D02*
X59846Y-57627D01*
X59834Y-57639D01*
X59810Y-57651D01*
X59798Y-57651D01*
X59775Y-57639D01*
X59763Y-57627D01*
X59751Y-57603D01*
X59751Y-57555D01*
X59763Y-57532D01*
X59775Y-57520D01*
X59798Y-57508D01*
X59810Y-57508D01*
X59834Y-57520D01*
X59846Y-57532D01*
X59858Y-57555D01*
X59858Y-57603D01*
X59870Y-57627D01*
X59882Y-57639D01*
X59905Y-57651D01*
X59953Y-57651D01*
X59977Y-57639D01*
X59989Y-57627D01*
X60001Y-57603D01*
X60001Y-57555D01*
X59989Y-57532D01*
X59977Y-57520D01*
X59953Y-57508D01*
X59905Y-57508D01*
X59882Y-57520D01*
X59870Y-57532D01*
X59858Y-57555D01*
X58501Y-57860D02*
X58501Y-57979D01*
X58251Y-57979D01*
X58501Y-57646D02*
X58501Y-57789D01*
X58501Y-57717D02*
X58251Y-57717D01*
X58286Y-57741D01*
X58310Y-57765D01*
X58322Y-57789D01*
X58501Y-57527D02*
X58501Y-57479D01*
X58489Y-57455D01*
X58477Y-57444D01*
X58441Y-57420D01*
X58394Y-57408D01*
X58298Y-57408D01*
X58275Y-57420D01*
X58263Y-57432D01*
X58251Y-57455D01*
X58251Y-57503D01*
X58263Y-57527D01*
X58275Y-57539D01*
X58298Y-57551D01*
X58358Y-57551D01*
X58382Y-57539D01*
X58394Y-57527D01*
X58405Y-57503D01*
X58405Y-57455D01*
X58394Y-57432D01*
X58382Y-57420D01*
X58358Y-57408D01*
X61351Y-51260D02*
X61351Y-51379D01*
X61101Y-51379D01*
X61125Y-51189D02*
X61113Y-51177D01*
X61101Y-51153D01*
X61101Y-51094D01*
X61113Y-51070D01*
X61125Y-51058D01*
X61148Y-51046D01*
X61172Y-51046D01*
X61208Y-51058D01*
X61351Y-51201D01*
X61351Y-51046D01*
X61125Y-50951D02*
X61113Y-50939D01*
X61101Y-50915D01*
X61101Y-50855D01*
X61113Y-50832D01*
X61125Y-50820D01*
X61148Y-50808D01*
X61172Y-50808D01*
X61208Y-50820D01*
X61351Y-50963D01*
X61351Y-50808D01*
X60901Y-51260D02*
X60901Y-51379D01*
X60651Y-51379D01*
X60675Y-51189D02*
X60663Y-51177D01*
X60651Y-51153D01*
X60651Y-51094D01*
X60663Y-51070D01*
X60675Y-51058D01*
X60698Y-51046D01*
X60722Y-51046D01*
X60758Y-51058D01*
X60901Y-51201D01*
X60901Y-51046D01*
X60901Y-50808D02*
X60901Y-50951D01*
X60901Y-50879D02*
X60651Y-50879D01*
X60686Y-50903D01*
X60710Y-50927D01*
X60722Y-50951D01*
X79939Y-43501D02*
X79820Y-43501D01*
X79820Y-43251D01*
X80153Y-43501D02*
X80010Y-43501D01*
X80082Y-43501D02*
X80082Y-43251D01*
X80058Y-43286D01*
X80034Y-43310D01*
X80010Y-43322D01*
X80308Y-43251D02*
X80332Y-43251D01*
X80355Y-43263D01*
X80367Y-43275D01*
X80379Y-43298D01*
X80391Y-43346D01*
X80391Y-43405D01*
X80379Y-43453D01*
X80367Y-43477D01*
X80355Y-43489D01*
X80332Y-43501D01*
X80308Y-43501D01*
X80284Y-43489D01*
X80272Y-43477D01*
X80260Y-43453D01*
X80248Y-43405D01*
X80248Y-43346D01*
X80260Y-43298D01*
X80272Y-43275D01*
X80284Y-43263D01*
X80308Y-43251D01*
X81101Y-42341D02*
X81101Y-42460D01*
X80851Y-42460D01*
X81101Y-42246D02*
X81101Y-42198D01*
X81089Y-42175D01*
X81077Y-42163D01*
X81041Y-42139D01*
X80994Y-42127D01*
X80898Y-42127D01*
X80875Y-42139D01*
X80863Y-42151D01*
X80851Y-42175D01*
X80851Y-42222D01*
X80863Y-42246D01*
X80875Y-42258D01*
X80898Y-42270D01*
X80958Y-42270D01*
X80982Y-42258D01*
X80994Y-42246D01*
X81005Y-42222D01*
X81005Y-42175D01*
X80994Y-42151D01*
X80982Y-42139D01*
X80958Y-42127D01*
X73908Y-54901D02*
X73789Y-54901D01*
X73789Y-54651D01*
X74110Y-54651D02*
X73991Y-54651D01*
X73979Y-54770D01*
X73991Y-54758D01*
X74015Y-54746D01*
X74075Y-54746D01*
X74098Y-54758D01*
X74110Y-54770D01*
X74122Y-54794D01*
X74122Y-54853D01*
X74110Y-54877D01*
X74098Y-54889D01*
X74075Y-54901D01*
X74015Y-54901D01*
X73991Y-54889D01*
X73979Y-54877D01*
X62339Y-47527D02*
X62327Y-47539D01*
X62291Y-47551D01*
X62267Y-47551D01*
X62232Y-47539D01*
X62208Y-47515D01*
X62196Y-47491D01*
X62184Y-47444D01*
X62184Y-47408D01*
X62196Y-47360D01*
X62208Y-47336D01*
X62232Y-47313D01*
X62267Y-47301D01*
X62291Y-47301D01*
X62327Y-47313D01*
X62339Y-47325D01*
X62577Y-47551D02*
X62434Y-47551D01*
X62505Y-47551D02*
X62505Y-47301D01*
X62482Y-47336D01*
X62458Y-47360D01*
X62434Y-47372D01*
X62732Y-47301D02*
X62755Y-47301D01*
X62779Y-47313D01*
X62791Y-47325D01*
X62803Y-47348D01*
X62815Y-47396D01*
X62815Y-47455D01*
X62803Y-47503D01*
X62791Y-47527D01*
X62779Y-47539D01*
X62755Y-47551D01*
X62732Y-47551D01*
X62708Y-47539D01*
X62696Y-47527D01*
X62684Y-47503D01*
X62672Y-47455D01*
X62672Y-47396D01*
X62684Y-47348D01*
X62696Y-47325D01*
X62708Y-47313D01*
X62732Y-47301D01*
X65239Y-46977D02*
X65227Y-46989D01*
X65191Y-47001D01*
X65167Y-47001D01*
X65132Y-46989D01*
X65108Y-46965D01*
X65096Y-46941D01*
X65084Y-46894D01*
X65084Y-46858D01*
X65096Y-46810D01*
X65108Y-46786D01*
X65132Y-46763D01*
X65167Y-46751D01*
X65191Y-46751D01*
X65227Y-46763D01*
X65239Y-46775D01*
X65334Y-46775D02*
X65346Y-46763D01*
X65370Y-46751D01*
X65429Y-46751D01*
X65453Y-46763D01*
X65465Y-46775D01*
X65477Y-46798D01*
X65477Y-46822D01*
X65465Y-46858D01*
X65322Y-47001D01*
X65477Y-47001D01*
X65560Y-46751D02*
X65715Y-46751D01*
X65632Y-46846D01*
X65667Y-46846D01*
X65691Y-46858D01*
X65703Y-46870D01*
X65715Y-46894D01*
X65715Y-46953D01*
X65703Y-46977D01*
X65691Y-46989D01*
X65667Y-47001D01*
X65596Y-47001D01*
X65572Y-46989D01*
X65560Y-46977D01*
X79401Y-58834D02*
X79151Y-58834D01*
X79151Y-58739D01*
X79163Y-58715D01*
X79175Y-58703D01*
X79198Y-58691D01*
X79234Y-58691D01*
X79258Y-58703D01*
X79270Y-58715D01*
X79282Y-58739D01*
X79282Y-58834D01*
X79151Y-58608D02*
X79151Y-58441D01*
X79401Y-58548D01*
X77451Y-40484D02*
X77201Y-40484D01*
X77201Y-40389D01*
X77213Y-40365D01*
X77225Y-40353D01*
X77248Y-40341D01*
X77284Y-40341D01*
X77308Y-40353D01*
X77320Y-40365D01*
X77332Y-40389D01*
X77332Y-40484D01*
X77451Y-40222D02*
X77451Y-40175D01*
X77439Y-40151D01*
X77427Y-40139D01*
X77391Y-40115D01*
X77344Y-40103D01*
X77248Y-40103D01*
X77225Y-40115D01*
X77213Y-40127D01*
X77201Y-40151D01*
X77201Y-40198D01*
X77213Y-40222D01*
X77225Y-40234D01*
X77248Y-40246D01*
X77308Y-40246D01*
X77332Y-40234D01*
X77344Y-40222D01*
X77355Y-40198D01*
X77355Y-40151D01*
X77344Y-40127D01*
X77332Y-40115D01*
X77308Y-40103D01*
X77201Y-39884D02*
X76951Y-39884D01*
X76951Y-39789D01*
X76963Y-39765D01*
X76975Y-39753D01*
X76998Y-39741D01*
X77034Y-39741D01*
X77058Y-39753D01*
X77070Y-39765D01*
X77082Y-39789D01*
X77082Y-39884D01*
X77058Y-39598D02*
X77046Y-39622D01*
X77034Y-39634D01*
X77010Y-39646D01*
X76998Y-39646D01*
X76975Y-39634D01*
X76963Y-39622D01*
X76951Y-39598D01*
X76951Y-39551D01*
X76963Y-39527D01*
X76975Y-39515D01*
X76998Y-39503D01*
X77010Y-39503D01*
X77034Y-39515D01*
X77046Y-39527D01*
X77058Y-39551D01*
X77058Y-39598D01*
X77070Y-39622D01*
X77082Y-39634D01*
X77105Y-39646D01*
X77153Y-39646D01*
X77177Y-39634D01*
X77189Y-39622D01*
X77201Y-39598D01*
X77201Y-39551D01*
X77189Y-39527D01*
X77177Y-39515D01*
X77153Y-39503D01*
X77105Y-39503D01*
X77082Y-39515D01*
X77070Y-39527D01*
X77058Y-39551D01*
X78801Y-58834D02*
X78551Y-58834D01*
X78551Y-58739D01*
X78563Y-58715D01*
X78575Y-58703D01*
X78598Y-58691D01*
X78634Y-58691D01*
X78658Y-58703D01*
X78670Y-58715D01*
X78682Y-58739D01*
X78682Y-58834D01*
X78551Y-58477D02*
X78551Y-58525D01*
X78563Y-58548D01*
X78575Y-58560D01*
X78610Y-58584D01*
X78658Y-58596D01*
X78753Y-58596D01*
X78777Y-58584D01*
X78789Y-58572D01*
X78801Y-58548D01*
X78801Y-58501D01*
X78789Y-58477D01*
X78777Y-58465D01*
X78753Y-58453D01*
X78694Y-58453D01*
X78670Y-58465D01*
X78658Y-58477D01*
X78646Y-58501D01*
X78646Y-58548D01*
X78658Y-58572D01*
X78670Y-58584D01*
X78694Y-58596D01*
X86341Y-40020D02*
X86258Y-40020D01*
X86258Y-40151D02*
X86258Y-39901D01*
X86377Y-39901D01*
X86472Y-40151D02*
X86472Y-39901D01*
X86532Y-39901D01*
X86567Y-39913D01*
X86591Y-39936D01*
X86603Y-39960D01*
X86615Y-40008D01*
X86615Y-40044D01*
X86603Y-40091D01*
X86591Y-40115D01*
X86567Y-40139D01*
X86532Y-40151D01*
X86472Y-40151D01*
X86853Y-40151D02*
X86710Y-40151D01*
X86782Y-40151D02*
X86782Y-39901D01*
X86758Y-39936D01*
X86734Y-39960D01*
X86710Y-39972D01*
X86341Y-58969D02*
X86258Y-58969D01*
X86258Y-59100D02*
X86258Y-58850D01*
X86377Y-58850D01*
X86472Y-59100D02*
X86472Y-58850D01*
X86532Y-58850D01*
X86567Y-58861D01*
X86591Y-58885D01*
X86603Y-58909D01*
X86615Y-58957D01*
X86615Y-58992D01*
X86603Y-59040D01*
X86591Y-59064D01*
X86567Y-59088D01*
X86532Y-59100D01*
X86472Y-59100D01*
X86698Y-58850D02*
X86853Y-58850D01*
X86770Y-58945D01*
X86805Y-58945D01*
X86829Y-58957D01*
X86841Y-58969D01*
X86853Y-58992D01*
X86853Y-59052D01*
X86841Y-59076D01*
X86829Y-59088D01*
X86805Y-59100D01*
X86734Y-59100D01*
X86710Y-59088D01*
X86698Y-59076D01*
X57741Y-58969D02*
X57658Y-58969D01*
X57658Y-59100D02*
X57658Y-58850D01*
X57777Y-58850D01*
X57872Y-59100D02*
X57872Y-58850D01*
X57932Y-58850D01*
X57967Y-58861D01*
X57991Y-58885D01*
X58003Y-58909D01*
X58015Y-58957D01*
X58015Y-58992D01*
X58003Y-59040D01*
X57991Y-59064D01*
X57967Y-59088D01*
X57932Y-59100D01*
X57872Y-59100D01*
X58110Y-58873D02*
X58122Y-58861D01*
X58146Y-58850D01*
X58205Y-58850D01*
X58229Y-58861D01*
X58241Y-58873D01*
X58253Y-58897D01*
X58253Y-58921D01*
X58241Y-58957D01*
X58098Y-59100D01*
X58253Y-59100D01*
X77701Y-56260D02*
X77582Y-56344D01*
X77701Y-56403D02*
X77451Y-56403D01*
X77451Y-56308D01*
X77463Y-56284D01*
X77475Y-56272D01*
X77498Y-56260D01*
X77534Y-56260D01*
X77558Y-56272D01*
X77570Y-56284D01*
X77582Y-56308D01*
X77582Y-56403D01*
X77475Y-56165D02*
X77463Y-56153D01*
X77451Y-56129D01*
X77451Y-56070D01*
X77463Y-56046D01*
X77475Y-56034D01*
X77498Y-56022D01*
X77522Y-56022D01*
X77558Y-56034D01*
X77701Y-56177D01*
X77701Y-56022D01*
X77534Y-55808D02*
X77701Y-55808D01*
X77439Y-55867D02*
X77617Y-55927D01*
X77617Y-55772D01*
X69701Y-43240D02*
X69903Y-43240D01*
X69927Y-43228D01*
X69939Y-43216D01*
X69951Y-43192D01*
X69951Y-43145D01*
X69939Y-43121D01*
X69927Y-43109D01*
X69903Y-43097D01*
X69701Y-43097D01*
X69701Y-42871D02*
X69701Y-42919D01*
X69713Y-42942D01*
X69725Y-42954D01*
X69760Y-42978D01*
X69808Y-42990D01*
X69903Y-42990D01*
X69927Y-42978D01*
X69939Y-42966D01*
X69951Y-42942D01*
X69951Y-42895D01*
X69939Y-42871D01*
X69927Y-42859D01*
X69903Y-42847D01*
X69844Y-42847D01*
X69820Y-42859D01*
X69808Y-42871D01*
X69796Y-42895D01*
X69796Y-42942D01*
X69808Y-42966D01*
X69820Y-42978D01*
X69844Y-42990D01*
X62851Y-39803D02*
X62601Y-39803D01*
X62601Y-39708D01*
X62613Y-39684D01*
X62625Y-39672D01*
X62648Y-39660D01*
X62684Y-39660D01*
X62708Y-39672D01*
X62720Y-39684D01*
X62732Y-39708D01*
X62732Y-39803D01*
X62851Y-39422D02*
X62851Y-39565D01*
X62851Y-39494D02*
X62601Y-39494D01*
X62636Y-39517D01*
X62660Y-39541D01*
X62672Y-39565D01*
X62601Y-39208D02*
X62601Y-39255D01*
X62613Y-39279D01*
X62625Y-39291D01*
X62660Y-39315D01*
X62708Y-39327D01*
X62803Y-39327D01*
X62827Y-39315D01*
X62839Y-39303D01*
X62851Y-39279D01*
X62851Y-39232D01*
X62839Y-39208D01*
X62827Y-39196D01*
X62803Y-39184D01*
X62744Y-39184D01*
X62720Y-39196D01*
X62708Y-39208D01*
X62696Y-39232D01*
X62696Y-39279D01*
X62708Y-39303D01*
X62720Y-39315D01*
X62744Y-39327D01*
X61959Y-56951D02*
X61959Y-57153D01*
X61971Y-57177D01*
X61983Y-57189D01*
X62007Y-57201D01*
X62054Y-57201D01*
X62078Y-57189D01*
X62090Y-57177D01*
X62102Y-57153D01*
X62102Y-56951D01*
X62197Y-56951D02*
X62364Y-56951D01*
X62257Y-57201D01*
G54D12*
X58320Y-55417D02*
X58306Y-55445D01*
X58306Y-55487D01*
X58320Y-55529D01*
X58348Y-55557D01*
X58376Y-55571D01*
X58432Y-55585D01*
X58474Y-55585D01*
X58531Y-55571D01*
X58559Y-55557D01*
X58587Y-55529D01*
X58601Y-55487D01*
X58601Y-55459D01*
X58587Y-55417D01*
X58573Y-55403D01*
X58474Y-55403D01*
X58474Y-55459D01*
X58601Y-55276D02*
X58306Y-55276D01*
X58306Y-55164D01*
X58320Y-55135D01*
X58334Y-55121D01*
X58362Y-55107D01*
X58404Y-55107D01*
X58432Y-55121D01*
X58446Y-55135D01*
X58460Y-55164D01*
X58460Y-55276D01*
X58587Y-54995D02*
X58601Y-54953D01*
X58601Y-54882D01*
X58587Y-54854D01*
X58573Y-54840D01*
X58545Y-54826D01*
X58517Y-54826D01*
X58488Y-54840D01*
X58474Y-54854D01*
X58460Y-54882D01*
X58446Y-54939D01*
X58432Y-54967D01*
X58418Y-54981D01*
X58390Y-54995D01*
X58362Y-54995D01*
X58334Y-54981D01*
X58320Y-54967D01*
X58306Y-54939D01*
X58306Y-54868D01*
X58320Y-54826D01*
X58517Y-54489D02*
X58517Y-54348D01*
X58601Y-54517D02*
X58306Y-54418D01*
X58601Y-54320D01*
X58601Y-54221D02*
X58306Y-54221D01*
X58601Y-54053D01*
X58306Y-54053D01*
X58306Y-53954D02*
X58306Y-53786D01*
X58601Y-53870D02*
X58306Y-53870D01*
G54D11*
X65901Y-49035D02*
X65651Y-49035D01*
X65901Y-48892D01*
X65651Y-48892D01*
X65651Y-48809D02*
X65651Y-48666D01*
X65901Y-48738D02*
X65651Y-48738D01*
X65901Y-48452D02*
X65901Y-48595D01*
X65901Y-48523D02*
X65651Y-48523D01*
X65686Y-48547D01*
X65710Y-48571D01*
X65722Y-48595D01*
X78709Y-53651D02*
X78709Y-53853D01*
X78721Y-53877D01*
X78733Y-53889D01*
X78757Y-53901D01*
X78804Y-53901D01*
X78828Y-53889D01*
X78840Y-53877D01*
X78852Y-53853D01*
X78852Y-53651D01*
X79102Y-53901D02*
X78959Y-53901D01*
X79030Y-53901D02*
X79030Y-53651D01*
X79007Y-53686D01*
X78983Y-53710D01*
X78959Y-53722D01*
X59851Y-51334D02*
X59601Y-51334D01*
X59601Y-51275D01*
X59613Y-51239D01*
X59636Y-51215D01*
X59660Y-51203D01*
X59708Y-51191D01*
X59744Y-51191D01*
X59791Y-51203D01*
X59815Y-51215D01*
X59839Y-51239D01*
X59851Y-51275D01*
X59851Y-51334D01*
X59708Y-51048D02*
X59696Y-51072D01*
X59684Y-51084D01*
X59660Y-51096D01*
X59648Y-51096D01*
X59625Y-51084D01*
X59613Y-51072D01*
X59601Y-51048D01*
X59601Y-51001D01*
X59613Y-50977D01*
X59625Y-50965D01*
X59648Y-50953D01*
X59660Y-50953D01*
X59684Y-50965D01*
X59696Y-50977D01*
X59708Y-51001D01*
X59708Y-51048D01*
X59720Y-51072D01*
X59732Y-51084D01*
X59755Y-51096D01*
X59803Y-51096D01*
X59827Y-51084D01*
X59839Y-51072D01*
X59851Y-51048D01*
X59851Y-51001D01*
X59839Y-50977D01*
X59827Y-50965D01*
X59803Y-50953D01*
X59755Y-50953D01*
X59732Y-50965D01*
X59720Y-50977D01*
X59708Y-51001D01*
X58315Y-47801D02*
X58315Y-47551D01*
X58410Y-47551D01*
X58434Y-47563D01*
X58446Y-47575D01*
X58458Y-47598D01*
X58458Y-47634D01*
X58446Y-47658D01*
X58434Y-47670D01*
X58410Y-47682D01*
X58315Y-47682D01*
X58541Y-47551D02*
X58696Y-47551D01*
X58613Y-47646D01*
X58648Y-47646D01*
X58672Y-47658D01*
X58684Y-47670D01*
X58696Y-47694D01*
X58696Y-47753D01*
X58684Y-47777D01*
X58672Y-47789D01*
X58648Y-47801D01*
X58577Y-47801D01*
X58553Y-47789D01*
X58541Y-47777D01*
X58565Y-43301D02*
X58565Y-43051D01*
X58660Y-43051D01*
X58684Y-43063D01*
X58696Y-43075D01*
X58708Y-43098D01*
X58708Y-43134D01*
X58696Y-43158D01*
X58684Y-43170D01*
X58660Y-43182D01*
X58565Y-43182D01*
X58922Y-43134D02*
X58922Y-43301D01*
X58863Y-43039D02*
X58803Y-43217D01*
X58958Y-43217D01*
%LPC*%
G54D14*
X84252Y-41702D03*
X86347Y-41702D03*
X86347Y-43797D03*
G54D15*
X85300Y-42750D03*
G54D16*
X85300Y-43962D03*
X85300Y-41537D03*
G54D14*
X84252Y-43797D03*
G54D17*
X85000Y-46000D03*
X64200Y-58200D03*
X61450Y-41000D03*
X85000Y-55000D03*
G54D10*
G36*
X65184Y-45495D02*
X64903Y-45279D01*
X64903Y-44120D01*
X65184Y-43904D01*
X65184Y-45495D01*
X65184Y-45495D01*
G37*
G36*
X66415Y-43904D02*
X66696Y-44120D01*
X66696Y-45279D01*
X66415Y-45495D01*
X66415Y-43904D01*
X66415Y-43904D01*
G37*
G54D18*
X65329Y-44086D03*
X65329Y-45313D03*
X66270Y-45313D03*
X66270Y-44086D03*
G54D10*
G36*
X64943Y-44184D02*
X65217Y-43910D01*
X65546Y-44239D01*
X65272Y-44513D01*
X64943Y-44184D01*
X64943Y-44184D01*
G37*
G54D19*
X65105Y-44700D03*
G54D10*
G36*
X65217Y-45489D02*
X64943Y-45215D01*
X65272Y-44886D01*
X65546Y-45160D01*
X65217Y-45489D01*
X65217Y-45489D01*
G37*
G36*
X66327Y-44513D02*
X66053Y-44239D01*
X66382Y-43910D01*
X66656Y-44184D01*
X66327Y-44513D01*
X66327Y-44513D01*
G37*
G36*
X66053Y-45160D02*
X66327Y-44886D01*
X66656Y-45215D01*
X66382Y-45489D01*
X66053Y-45160D01*
X66053Y-45160D01*
G37*
G54D19*
X66494Y-44700D03*
G54D10*
G36*
X61284Y-45195D02*
X61003Y-44979D01*
X61003Y-43820D01*
X61284Y-43604D01*
X61284Y-45195D01*
X61284Y-45195D01*
G37*
G36*
X62515Y-43604D02*
X62796Y-43820D01*
X62796Y-44979D01*
X62515Y-45195D01*
X62515Y-43604D01*
X62515Y-43604D01*
G37*
G54D18*
X61429Y-43786D03*
X61429Y-45013D03*
X62370Y-45013D03*
X62370Y-43786D03*
G54D10*
G36*
X61043Y-43884D02*
X61317Y-43610D01*
X61646Y-43939D01*
X61372Y-44213D01*
X61043Y-43884D01*
X61043Y-43884D01*
G37*
G54D19*
X61205Y-44400D03*
G54D10*
G36*
X61317Y-45189D02*
X61043Y-44915D01*
X61372Y-44586D01*
X61646Y-44860D01*
X61317Y-45189D01*
X61317Y-45189D01*
G37*
G36*
X62427Y-44213D02*
X62153Y-43939D01*
X62482Y-43610D01*
X62756Y-43884D01*
X62427Y-44213D01*
X62427Y-44213D01*
G37*
G36*
X62153Y-44860D02*
X62427Y-44586D01*
X62756Y-44915D01*
X62482Y-45189D01*
X62153Y-44860D01*
X62153Y-44860D01*
G37*
G54D19*
X62594Y-44400D03*
G54D20*
X64105Y-56400D03*
X63598Y-56400D03*
G54D21*
X58704Y-59100D03*
X59295Y-59100D03*
X58704Y-58550D03*
X59295Y-58550D03*
G54D22*
X64250Y-41575D03*
X64250Y-42324D03*
G54D23*
X66475Y-41400D03*
X67224Y-41400D03*
G54D22*
X66400Y-47075D03*
X66400Y-47824D03*
G54D24*
X76195Y-44070D03*
G54D25*
X76323Y-43600D03*
X76323Y-43129D03*
X75476Y-43129D03*
X75476Y-43600D03*
X75476Y-44070D03*
G54D26*
X73016Y-49215D03*
X73016Y-49884D03*
X73883Y-49884D03*
X73883Y-49215D03*
G54D27*
X75711Y-55750D03*
X74688Y-55750D03*
G54D28*
X64205Y-42995D03*
X63950Y-42995D03*
X63694Y-42995D03*
X63694Y-43704D03*
X63950Y-43704D03*
X64205Y-43704D03*
G54D29*
X78316Y-44298D03*
X78572Y-44298D03*
X78827Y-44298D03*
X79083Y-44298D03*
X79083Y-42801D03*
X78827Y-42801D03*
X78572Y-42801D03*
X78316Y-42801D03*
G54D30*
X79448Y-43933D03*
X79448Y-43677D03*
X79448Y-43422D03*
X79448Y-43166D03*
X77951Y-43166D03*
X77951Y-43422D03*
X77951Y-43677D03*
X77951Y-43933D03*
G54D31*
X78700Y-43550D03*
G54D32*
X76688Y-47266D03*
X76688Y-47522D03*
X76688Y-47777D03*
X76688Y-48033D03*
X79011Y-48033D03*
X79011Y-47777D03*
X79011Y-47522D03*
X79011Y-47266D03*
G54D33*
X69874Y-45427D03*
X69500Y-45427D03*
X69125Y-45427D03*
X69125Y-46372D03*
X69874Y-46372D03*
G54D34*
X82150Y-48787D03*
X81650Y-48787D03*
X81150Y-48787D03*
X80650Y-48787D03*
X80650Y-50912D03*
X81150Y-50912D03*
X81650Y-50912D03*
X82150Y-50912D03*
G54D35*
X64424Y-48534D03*
X64050Y-48534D03*
X63675Y-48534D03*
X63675Y-49565D03*
X64050Y-49565D03*
X64424Y-49565D03*
X64925Y-42665D03*
X65300Y-42665D03*
X65674Y-42665D03*
X65674Y-41634D03*
X65300Y-41634D03*
X64925Y-41634D03*
X68374Y-45484D03*
X68000Y-45484D03*
X67625Y-45484D03*
X67625Y-46515D03*
X68000Y-46515D03*
X68374Y-46515D03*
G54D36*
X62125Y-43193D03*
X62874Y-43193D03*
X62500Y-42406D03*
G54D37*
X61443Y-46374D03*
X61443Y-45625D03*
X60656Y-46000D03*
X59543Y-48674D03*
X59543Y-47925D03*
X58756Y-48300D03*
G54D38*
X77050Y-44094D03*
X77050Y-44601D03*
X82950Y-43755D03*
X82950Y-43248D03*
X81500Y-43755D03*
X81500Y-43248D03*
G54D20*
X77405Y-43600D03*
X76898Y-43600D03*
G54D38*
X83400Y-42694D03*
X83400Y-43201D03*
G54D20*
X82455Y-43800D03*
X81948Y-43800D03*
G54D39*
X60032Y-48700D03*
X60367Y-48700D03*
G54D40*
X78935Y-51900D03*
X79564Y-51900D03*
G54D41*
X62300Y-45698D03*
X62300Y-46801D03*
G54D42*
X73544Y-52254D03*
X73800Y-52254D03*
X74055Y-52254D03*
X74055Y-51545D03*
X73800Y-51545D03*
X73544Y-51545D03*
G54D39*
X61082Y-46950D03*
X61417Y-46950D03*
G54D20*
X63794Y-47750D03*
X64301Y-47750D03*
G54D38*
X82150Y-51594D03*
X82150Y-52101D03*
G54D43*
X63298Y-45750D03*
X64401Y-45750D03*
G54D40*
X83000Y-56735D03*
X83000Y-57364D03*
X85000Y-56735D03*
X85000Y-57364D03*
X82000Y-56735D03*
X82000Y-57364D03*
X81000Y-56735D03*
X81000Y-57364D03*
X80000Y-56735D03*
X80000Y-57364D03*
X78550Y-55635D03*
X78550Y-56264D03*
X84000Y-56735D03*
X84000Y-57364D03*
X77650Y-45564D03*
X77650Y-44935D03*
X79650Y-45564D03*
X79650Y-44935D03*
X74950Y-54235D03*
X74950Y-54864D03*
X79235Y-50800D03*
X79864Y-50800D03*
X75950Y-49564D03*
X75950Y-48935D03*
X67264Y-42050D03*
X66635Y-42050D03*
X61050Y-57235D03*
X61050Y-57864D03*
G54D20*
X64105Y-54500D03*
X63598Y-54500D03*
G54D44*
X71856Y-59900D03*
X71462Y-59900D03*
X72250Y-59900D03*
X72643Y-59900D03*
X73037Y-59900D03*
X72643Y-39100D03*
X73037Y-39100D03*
X72250Y-39100D03*
X71856Y-39100D03*
X71462Y-39100D03*
X57600Y-49106D03*
X57600Y-48712D03*
X57600Y-49500D03*
X57600Y-49893D03*
X57600Y-50287D03*
X86900Y-49893D03*
X86900Y-50287D03*
X86900Y-49500D03*
X86900Y-49106D03*
X86900Y-48712D03*
G54D45*
X57914Y-42614D03*
X57914Y-39485D03*
X59685Y-42614D03*
X59685Y-39485D03*
G54D20*
X80505Y-42750D03*
X79998Y-42750D03*
X81005Y-43800D03*
X80498Y-43800D03*
G54D38*
X79000Y-46805D03*
X79000Y-46298D03*
G54D20*
X66005Y-52800D03*
X65498Y-52800D03*
X64105Y-53600D03*
X63598Y-53600D03*
X65805Y-47650D03*
X65298Y-47650D03*
G54D38*
X64900Y-49605D03*
X64900Y-49098D03*
X78200Y-45405D03*
X78200Y-44898D03*
X64600Y-56505D03*
X64600Y-55998D03*
G54D20*
X71744Y-54800D03*
X72251Y-54800D03*
G54D38*
X74150Y-55905D03*
X74150Y-55398D03*
X76250Y-55905D03*
X76250Y-55398D03*
G54D20*
X73044Y-50450D03*
X73551Y-50450D03*
X73855Y-48650D03*
X73348Y-48650D03*
X73205Y-53450D03*
X72698Y-53450D03*
G54D38*
X73700Y-53344D03*
X73700Y-53851D03*
G54D20*
X73205Y-53900D03*
X72698Y-53900D03*
G54D38*
X75500Y-54194D03*
X75500Y-54701D03*
G54D20*
X78894Y-51350D03*
X79401Y-51350D03*
G54D38*
X76500Y-49605D03*
X76500Y-49098D03*
G54D20*
X69955Y-46950D03*
X69448Y-46950D03*
X73205Y-54350D03*
X72698Y-54350D03*
X69944Y-42300D03*
X70451Y-42300D03*
G54D38*
X68550Y-44294D03*
X68550Y-44801D03*
X79100Y-45405D03*
X79100Y-44898D03*
X63650Y-41294D03*
X63650Y-41801D03*
G54D20*
X79605Y-42250D03*
X79098Y-42250D03*
G54D38*
X76450Y-54244D03*
X76450Y-54751D03*
X61700Y-51744D03*
X61700Y-52251D03*
X60350Y-51744D03*
X60350Y-52251D03*
G54D20*
X59294Y-57150D03*
X59801Y-57150D03*
G54D38*
X59100Y-51744D03*
X59100Y-52251D03*
G54D46*
X84500Y-57017D03*
X84500Y-56682D03*
X62150Y-52267D03*
X62150Y-51932D03*
X83500Y-57017D03*
X83500Y-56682D03*
X82500Y-57017D03*
X82500Y-56682D03*
X81500Y-57017D03*
X81500Y-56682D03*
X80500Y-57017D03*
X80500Y-56682D03*
X79500Y-57017D03*
X79500Y-56682D03*
X78000Y-57167D03*
X78000Y-56832D03*
X78450Y-56832D03*
X78450Y-57167D03*
X76000Y-54767D03*
X76000Y-54432D03*
X81150Y-48117D03*
X81150Y-47782D03*
X78650Y-44882D03*
X78650Y-45217D03*
G54D39*
X63667Y-44250D03*
X63332Y-44250D03*
X60167Y-59100D03*
X59832Y-59100D03*
G54D46*
X63200Y-41617D03*
X63200Y-41282D03*
G54D39*
X60167Y-58550D03*
X59832Y-58550D03*
X72167Y-55250D03*
X71832Y-55250D03*
X68217Y-47150D03*
X67882Y-47150D03*
X63682Y-50150D03*
X64017Y-50150D03*
X73017Y-53000D03*
X72682Y-53000D03*
X64017Y-50600D03*
X63682Y-50600D03*
G54D38*
X58650Y-52255D03*
X58650Y-51748D03*
X60300Y-57394D03*
X60300Y-57901D03*
X58800Y-57444D03*
X58800Y-57951D03*
X61250Y-52255D03*
X61250Y-51748D03*
X60800Y-52255D03*
X60800Y-51748D03*
X80000Y-44305D03*
X80000Y-43798D03*
X81000Y-43305D03*
X81000Y-42798D03*
G54D20*
X73694Y-54350D03*
X74201Y-54350D03*
G54D43*
X63298Y-46950D03*
X64401Y-46950D03*
X66501Y-46150D03*
X65398Y-46150D03*
G54D47*
X80000Y-59000D03*
G54D48*
X81000Y-59000D03*
X82000Y-59000D03*
X83000Y-59000D03*
X84000Y-59000D03*
X85000Y-59000D03*
G54D47*
X85000Y-40000D03*
G54D48*
X84000Y-40000D03*
X83000Y-40000D03*
X82000Y-40000D03*
X81000Y-40000D03*
X80000Y-40000D03*
X79000Y-40000D03*
X78000Y-40000D03*
G54D47*
X76400Y-40000D03*
G54D48*
X75400Y-40000D03*
X74400Y-40000D03*
X73400Y-40000D03*
X72400Y-40000D03*
X71400Y-40000D03*
X70400Y-40000D03*
X69400Y-40000D03*
X68400Y-40000D03*
X67400Y-40000D03*
G54D47*
X71000Y-59000D03*
G54D48*
X72000Y-59000D03*
X73000Y-59000D03*
X74000Y-59000D03*
X75000Y-59000D03*
X76000Y-59000D03*
X77000Y-59000D03*
X78000Y-59000D03*
G54D49*
X86550Y-39450D03*
X86550Y-59550D03*
X57950Y-59550D03*
G54D46*
X78000Y-56267D03*
X78000Y-55932D03*
G54D50*
X69408Y-43433D03*
X69408Y-43177D03*
X69408Y-42922D03*
X69408Y-42666D03*
G54D51*
X69083Y-42341D03*
X68827Y-42341D03*
X68572Y-42341D03*
X68316Y-42341D03*
G54D50*
X67991Y-42666D03*
X67991Y-42922D03*
X67991Y-43177D03*
X67991Y-43433D03*
G54D51*
X68316Y-43758D03*
X68572Y-43758D03*
X68827Y-43758D03*
X69083Y-43758D03*
G54D52*
X68700Y-43050D03*
G54D53*
X65361Y-40653D03*
X65105Y-40653D03*
X64850Y-40653D03*
X64594Y-40653D03*
X64338Y-40653D03*
G54D54*
X66070Y-40603D03*
G54D55*
X66346Y-39600D03*
G54D56*
X65322Y-39600D03*
X64377Y-39600D03*
G54D55*
X63353Y-39600D03*
G54D54*
X63629Y-40603D03*
G54D57*
X57801Y-56400D03*
X58234Y-56400D03*
X58667Y-56400D03*
X59100Y-56400D03*
X59533Y-56400D03*
X59966Y-56400D03*
X60400Y-56400D03*
X60833Y-56400D03*
X61266Y-56400D03*
X61699Y-56400D03*
X62132Y-56400D03*
G54D58*
X62840Y-55782D03*
X62840Y-55349D03*
X62840Y-54916D03*
X62840Y-54483D03*
X62840Y-54050D03*
X62840Y-53617D03*
G54D57*
X62132Y-52999D03*
X61699Y-52999D03*
X61266Y-52999D03*
X60833Y-52999D03*
X60400Y-52999D03*
X59966Y-52999D03*
X59533Y-52999D03*
X59100Y-52999D03*
X58667Y-52999D03*
X58234Y-52999D03*
X57801Y-52999D03*
G54D46*
X65350Y-48582D03*
X65350Y-48917D03*
G54D59*
X76501Y-53661D03*
X76304Y-53661D03*
X76107Y-53661D03*
X75911Y-53661D03*
X75714Y-53661D03*
X75517Y-53661D03*
X75320Y-53661D03*
X75123Y-53661D03*
X76698Y-53661D03*
X76895Y-53661D03*
X77092Y-53661D03*
X77288Y-53661D03*
X77485Y-53661D03*
X77682Y-53661D03*
X77879Y-53661D03*
X78076Y-53661D03*
G54D60*
X78361Y-53376D03*
X78361Y-53179D03*
X78361Y-52982D03*
X78361Y-52785D03*
X78361Y-52588D03*
X78361Y-52392D03*
X78361Y-52195D03*
X78361Y-51998D03*
X78361Y-51801D03*
X78361Y-51604D03*
X78361Y-51407D03*
X78361Y-51211D03*
X78361Y-51014D03*
X78361Y-50817D03*
X78361Y-50620D03*
X78361Y-50423D03*
X74838Y-53376D03*
X74838Y-53179D03*
X74838Y-52982D03*
X74838Y-52785D03*
X74838Y-52588D03*
X74838Y-52392D03*
X74838Y-52195D03*
X74838Y-51998D03*
X74838Y-51801D03*
X74838Y-51604D03*
X74838Y-51407D03*
X74838Y-51211D03*
X74838Y-51014D03*
X74838Y-50817D03*
X74838Y-50620D03*
X74838Y-50423D03*
G54D59*
X75123Y-50138D03*
X75320Y-50138D03*
X75517Y-50138D03*
X75714Y-50138D03*
X75911Y-50138D03*
X76107Y-50138D03*
X76304Y-50138D03*
X76501Y-50138D03*
X76698Y-50138D03*
X76895Y-50138D03*
X77092Y-50138D03*
X77288Y-50138D03*
X77485Y-50138D03*
X77682Y-50138D03*
X77879Y-50138D03*
X78076Y-50138D03*
G54D61*
X76600Y-51900D03*
G54D21*
X59750Y-52245D03*
X59750Y-51654D03*
G54D62*
X58750Y-46000D03*
X58750Y-47000D03*
X58750Y-44850D03*
X58750Y-43850D03*
M02*
