G04 (created by PCBNEW (2013-07-07 BZR 4022)-stable) date 11/20/2016 12:27:34 AM*
%MOIN*%
G04 Gerber Fmt 3.4, Leading zero omitted, Abs format*
%FSLAX34Y34*%
G01*
G70*
G90*
G04 APERTURE LIST*
%ADD10C,0.00590551*%
%ADD11C,0.005*%
%ADD12C,0.00738189*%
%ADD13C,0.00787402*%
%ADD14C,0.011811*%
%ADD15C,0.007*%
%ADD16C,0.232409*%
%ADD17C,0.05*%
%ADD18R,0.063X0.063*%
%ADD19C,0.063*%
%ADD20R,0.208X0.058*%
%ADD21C,0.0787402*%
%ADD22C,0.0757165*%
G04 APERTURE END LIST*
G54D10*
G54D11*
X23261Y7133D02*
X23271Y7123D01*
X23280Y7133D01*
X23271Y7142D01*
X23261Y7133D01*
X23280Y7133D01*
X23204Y7133D02*
X23090Y7142D01*
X23080Y7133D01*
X23090Y7123D01*
X23204Y7133D01*
X23080Y7133D01*
X23080Y7057D02*
X23280Y7009D01*
X23138Y6971D01*
X23280Y6933D01*
X23080Y6885D01*
X23223Y6819D02*
X23223Y6723D01*
X23280Y6838D02*
X23080Y6771D01*
X23280Y6704D01*
X23280Y6523D02*
X23185Y6590D01*
X23280Y6638D02*
X23080Y6638D01*
X23080Y6561D01*
X23090Y6542D01*
X23100Y6533D01*
X23119Y6523D01*
X23147Y6523D01*
X23166Y6533D01*
X23176Y6542D01*
X23185Y6561D01*
X23185Y6638D01*
X23280Y6438D02*
X23080Y6438D01*
X23280Y6323D01*
X23080Y6323D01*
X23280Y6228D02*
X23080Y6228D01*
X23280Y6133D02*
X23080Y6133D01*
X23280Y6019D01*
X23080Y6019D01*
X23090Y5819D02*
X23080Y5838D01*
X23080Y5866D01*
X23090Y5895D01*
X23109Y5914D01*
X23128Y5923D01*
X23166Y5933D01*
X23195Y5933D01*
X23233Y5923D01*
X23252Y5914D01*
X23271Y5895D01*
X23280Y5866D01*
X23280Y5847D01*
X23271Y5819D01*
X23261Y5809D01*
X23195Y5809D01*
X23195Y5847D01*
X23261Y5723D02*
X23271Y5714D01*
X23280Y5723D01*
X23271Y5733D01*
X23261Y5723D01*
X23280Y5723D01*
X23157Y5723D02*
X23166Y5714D01*
X23176Y5723D01*
X23166Y5733D01*
X23157Y5723D01*
X23176Y5723D01*
X23223Y5485D02*
X23223Y5390D01*
X23280Y5504D02*
X23080Y5438D01*
X23280Y5371D01*
X23280Y5304D02*
X23080Y5304D01*
X23080Y5257D01*
X23090Y5228D01*
X23109Y5209D01*
X23128Y5200D01*
X23166Y5190D01*
X23195Y5190D01*
X23233Y5200D01*
X23252Y5209D01*
X23271Y5228D01*
X23280Y5257D01*
X23280Y5304D01*
X23261Y4990D02*
X23271Y5000D01*
X23280Y5028D01*
X23280Y5047D01*
X23271Y5076D01*
X23252Y5095D01*
X23233Y5104D01*
X23195Y5114D01*
X23166Y5114D01*
X23128Y5104D01*
X23109Y5095D01*
X23090Y5076D01*
X23080Y5047D01*
X23080Y5028D01*
X23090Y5000D01*
X23100Y4990D01*
X23100Y4914D02*
X23090Y4904D01*
X23080Y4885D01*
X23080Y4838D01*
X23090Y4819D01*
X23100Y4809D01*
X23119Y4800D01*
X23138Y4800D01*
X23166Y4809D01*
X23280Y4923D01*
X23280Y4800D01*
X23080Y4590D02*
X23280Y4523D01*
X23080Y4457D01*
X23080Y4352D02*
X23080Y4314D01*
X23090Y4295D01*
X23109Y4276D01*
X23147Y4266D01*
X23214Y4266D01*
X23252Y4276D01*
X23271Y4295D01*
X23280Y4314D01*
X23280Y4352D01*
X23271Y4371D01*
X23252Y4390D01*
X23214Y4399D01*
X23147Y4399D01*
X23109Y4390D01*
X23090Y4371D01*
X23080Y4352D01*
X23280Y4085D02*
X23280Y4180D01*
X23080Y4180D01*
X23080Y4047D02*
X23080Y3933D01*
X23280Y3990D02*
X23080Y3990D01*
X23223Y3876D02*
X23223Y3780D01*
X23280Y3895D02*
X23080Y3828D01*
X23280Y3761D01*
X23090Y3590D02*
X23080Y3609D01*
X23080Y3638D01*
X23090Y3666D01*
X23109Y3685D01*
X23128Y3695D01*
X23166Y3704D01*
X23195Y3704D01*
X23233Y3695D01*
X23252Y3685D01*
X23271Y3666D01*
X23280Y3638D01*
X23280Y3619D01*
X23271Y3590D01*
X23261Y3580D01*
X23195Y3580D01*
X23195Y3619D01*
X23176Y3495D02*
X23176Y3428D01*
X23280Y3399D02*
X23280Y3495D01*
X23080Y3495D01*
X23080Y3399D01*
X23271Y3323D02*
X23280Y3295D01*
X23280Y3247D01*
X23271Y3228D01*
X23261Y3219D01*
X23242Y3209D01*
X23223Y3209D01*
X23204Y3219D01*
X23195Y3228D01*
X23185Y3247D01*
X23176Y3285D01*
X23166Y3304D01*
X23157Y3314D01*
X23138Y3323D01*
X23119Y3323D01*
X23100Y3314D01*
X23090Y3304D01*
X23080Y3285D01*
X23080Y3238D01*
X23090Y3209D01*
X23477Y7271D02*
X23534Y7119D01*
X23591Y7271D01*
X23410Y7042D02*
X23410Y6919D01*
X23487Y6985D01*
X23487Y6957D01*
X23496Y6938D01*
X23506Y6928D01*
X23525Y6919D01*
X23572Y6919D01*
X23591Y6928D01*
X23601Y6938D01*
X23610Y6957D01*
X23610Y7014D01*
X23601Y7033D01*
X23591Y7042D01*
X23591Y6833D02*
X23601Y6823D01*
X23610Y6833D01*
X23601Y6842D01*
X23591Y6833D01*
X23610Y6833D01*
X23410Y6757D02*
X23410Y6633D01*
X23487Y6700D01*
X23487Y6671D01*
X23496Y6652D01*
X23506Y6642D01*
X23525Y6633D01*
X23572Y6633D01*
X23591Y6642D01*
X23601Y6652D01*
X23610Y6671D01*
X23610Y6728D01*
X23601Y6747D01*
X23591Y6757D01*
X23410Y6576D02*
X23610Y6509D01*
X23410Y6442D01*
X23591Y6109D02*
X23601Y6119D01*
X23610Y6147D01*
X23610Y6166D01*
X23601Y6195D01*
X23582Y6214D01*
X23563Y6223D01*
X23525Y6233D01*
X23496Y6233D01*
X23458Y6223D01*
X23439Y6214D01*
X23420Y6195D01*
X23410Y6166D01*
X23410Y6147D01*
X23420Y6119D01*
X23430Y6109D01*
X23553Y6033D02*
X23553Y5938D01*
X23610Y6052D02*
X23410Y5985D01*
X23610Y5919D01*
X23610Y5852D02*
X23410Y5852D01*
X23610Y5738D01*
X23410Y5738D01*
X23610Y5490D02*
X23410Y5490D01*
X23410Y5442D01*
X23420Y5414D01*
X23439Y5395D01*
X23458Y5385D01*
X23496Y5376D01*
X23525Y5376D01*
X23563Y5385D01*
X23582Y5395D01*
X23601Y5414D01*
X23610Y5442D01*
X23610Y5490D01*
X23553Y5300D02*
X23553Y5204D01*
X23610Y5319D02*
X23410Y5252D01*
X23610Y5185D01*
X23610Y5119D02*
X23410Y5119D01*
X23553Y5052D01*
X23410Y4985D01*
X23610Y4985D01*
X23553Y4900D02*
X23553Y4804D01*
X23610Y4919D02*
X23410Y4852D01*
X23610Y4785D01*
X23420Y4614D02*
X23410Y4633D01*
X23410Y4661D01*
X23420Y4690D01*
X23439Y4709D01*
X23458Y4719D01*
X23496Y4728D01*
X23525Y4728D01*
X23563Y4719D01*
X23582Y4709D01*
X23601Y4690D01*
X23610Y4661D01*
X23610Y4642D01*
X23601Y4614D01*
X23591Y4604D01*
X23525Y4604D01*
X23525Y4642D01*
X23506Y4519D02*
X23506Y4452D01*
X23610Y4423D02*
X23610Y4519D01*
X23410Y4519D01*
X23410Y4423D01*
X23506Y4119D02*
X23506Y4185D01*
X23610Y4185D02*
X23410Y4185D01*
X23410Y4090D01*
X23553Y4023D02*
X23553Y3928D01*
X23610Y4042D02*
X23410Y3976D01*
X23610Y3909D01*
X23610Y3728D02*
X23515Y3795D01*
X23610Y3842D02*
X23410Y3842D01*
X23410Y3766D01*
X23420Y3747D01*
X23430Y3738D01*
X23449Y3728D01*
X23477Y3728D01*
X23496Y3738D01*
X23506Y3747D01*
X23515Y3766D01*
X23515Y3842D01*
X23553Y3652D02*
X23553Y3557D01*
X23610Y3671D02*
X23410Y3604D01*
X23610Y3538D01*
X23610Y3471D02*
X23410Y3471D01*
X23410Y3423D01*
X23420Y3395D01*
X23439Y3376D01*
X23458Y3366D01*
X23496Y3357D01*
X23525Y3357D01*
X23563Y3366D01*
X23582Y3376D01*
X23601Y3395D01*
X23610Y3423D01*
X23610Y3471D01*
X23553Y3280D02*
X23553Y3185D01*
X23610Y3299D02*
X23410Y3233D01*
X23610Y3166D01*
X23515Y3061D02*
X23610Y3061D01*
X23410Y3128D02*
X23515Y3061D01*
X23410Y2995D01*
X23591Y2928D02*
X23601Y2919D01*
X23610Y2928D01*
X23601Y2938D01*
X23591Y2928D01*
X23610Y2928D01*
X23534Y2928D02*
X23420Y2938D01*
X23410Y2928D01*
X23420Y2919D01*
X23534Y2928D01*
X23410Y2928D01*
G54D12*
X5710Y7411D02*
X5738Y7425D01*
X5781Y7425D01*
X5823Y7411D01*
X5851Y7383D01*
X5865Y7355D01*
X5879Y7299D01*
X5879Y7257D01*
X5865Y7200D01*
X5851Y7172D01*
X5823Y7144D01*
X5781Y7130D01*
X5753Y7130D01*
X5710Y7144D01*
X5696Y7158D01*
X5696Y7257D01*
X5753Y7257D01*
X5570Y7130D02*
X5570Y7425D01*
X5457Y7425D01*
X5429Y7411D01*
X5415Y7397D01*
X5401Y7369D01*
X5401Y7327D01*
X5415Y7299D01*
X5429Y7285D01*
X5457Y7271D01*
X5570Y7271D01*
X5289Y7144D02*
X5246Y7130D01*
X5176Y7130D01*
X5148Y7144D01*
X5134Y7158D01*
X5120Y7186D01*
X5120Y7214D01*
X5134Y7242D01*
X5148Y7257D01*
X5176Y7271D01*
X5232Y7285D01*
X5260Y7299D01*
X5274Y7313D01*
X5289Y7341D01*
X5289Y7369D01*
X5274Y7397D01*
X5260Y7411D01*
X5232Y7425D01*
X5162Y7425D01*
X5120Y7411D01*
X4670Y7285D02*
X4768Y7285D01*
X4768Y7130D02*
X4768Y7425D01*
X4628Y7425D01*
X4515Y7130D02*
X4515Y7425D01*
X4403Y7425D02*
X4206Y7130D01*
X4206Y7425D02*
X4403Y7130D01*
G54D13*
X24050Y2950D02*
X24200Y3100D01*
X24050Y2950D02*
X23900Y3100D01*
X24050Y3500D02*
X24050Y2950D01*
G54D12*
X24014Y6428D02*
X24014Y6330D01*
X24169Y6288D02*
X24169Y6428D01*
X23874Y6428D01*
X23874Y6288D01*
X24169Y6189D02*
X23972Y6035D01*
X23972Y6189D02*
X24169Y6035D01*
X23972Y5964D02*
X23972Y5852D01*
X23874Y5922D02*
X24127Y5922D01*
X24155Y5908D01*
X24169Y5880D01*
X24169Y5852D01*
X24141Y5753D02*
X24155Y5739D01*
X24169Y5753D01*
X24155Y5767D01*
X24141Y5753D01*
X24169Y5753D01*
X24169Y5219D02*
X24028Y5317D01*
X24169Y5388D02*
X23874Y5388D01*
X23874Y5275D01*
X23888Y5247D01*
X23902Y5233D01*
X23930Y5219D01*
X23972Y5219D01*
X24000Y5233D01*
X24014Y5247D01*
X24028Y5275D01*
X24028Y5388D01*
X24155Y4980D02*
X24169Y5008D01*
X24169Y5064D01*
X24155Y5092D01*
X24127Y5107D01*
X24014Y5107D01*
X23986Y5092D01*
X23972Y5064D01*
X23972Y5008D01*
X23986Y4980D01*
X24014Y4966D01*
X24042Y4966D01*
X24071Y5107D01*
X23972Y4882D02*
X23972Y4769D01*
X24169Y4839D02*
X23916Y4839D01*
X23888Y4825D01*
X23874Y4797D01*
X23874Y4769D01*
X23860Y4460D02*
X24239Y4713D01*
X24169Y4361D02*
X23874Y4361D01*
X24085Y4263D01*
X23874Y4164D01*
X24169Y4164D01*
X24169Y4024D02*
X23972Y4024D01*
X23874Y4024D02*
X23888Y4038D01*
X23902Y4024D01*
X23888Y4010D01*
X23874Y4024D01*
X23902Y4024D01*
X24155Y3757D02*
X24169Y3785D01*
X24169Y3841D01*
X24155Y3869D01*
X24141Y3883D01*
X24113Y3897D01*
X24028Y3897D01*
X24000Y3883D01*
X23986Y3869D01*
X23972Y3841D01*
X23972Y3785D01*
X23986Y3757D01*
X1046Y19285D02*
X1003Y19271D01*
X989Y19257D01*
X975Y19228D01*
X975Y19186D01*
X989Y19158D01*
X1003Y19144D01*
X1032Y19130D01*
X1144Y19130D01*
X1144Y19425D01*
X1046Y19425D01*
X1017Y19411D01*
X1003Y19397D01*
X989Y19369D01*
X989Y19341D01*
X1003Y19313D01*
X1017Y19299D01*
X1046Y19285D01*
X1144Y19285D01*
X891Y19425D02*
X722Y19425D01*
X807Y19130D02*
X807Y19425D01*
X624Y19130D02*
X624Y19425D01*
X455Y19130D01*
X455Y19425D01*
G54D11*
X80Y13619D02*
X-119Y13619D01*
X23Y13552D01*
X-119Y13485D01*
X80Y13485D01*
X-119Y13352D02*
X-119Y13314D01*
X-109Y13295D01*
X-90Y13276D01*
X-52Y13266D01*
X14Y13266D01*
X52Y13276D01*
X71Y13295D01*
X80Y13314D01*
X80Y13352D01*
X71Y13371D01*
X52Y13390D01*
X14Y13400D01*
X-52Y13400D01*
X-90Y13390D01*
X-109Y13371D01*
X-119Y13352D01*
X71Y13190D02*
X80Y13161D01*
X80Y13114D01*
X71Y13095D01*
X61Y13085D01*
X42Y13076D01*
X23Y13076D01*
X4Y13085D01*
X-4Y13095D01*
X-14Y13114D01*
X-23Y13152D01*
X-33Y13171D01*
X-42Y13180D01*
X-61Y13190D01*
X-80Y13190D01*
X-100Y13180D01*
X-109Y13171D01*
X-119Y13152D01*
X-119Y13104D01*
X-109Y13076D01*
X-23Y12923D02*
X-23Y12990D01*
X80Y12990D02*
X-119Y12990D01*
X-119Y12895D01*
X-23Y12819D02*
X-23Y12752D01*
X80Y12723D02*
X80Y12819D01*
X-119Y12819D01*
X-119Y12723D01*
X-119Y12666D02*
X-119Y12552D01*
X80Y12609D02*
X-119Y12609D01*
G54D12*
X25172Y5246D02*
X25172Y5035D01*
X25046Y5161D02*
X25425Y5246D01*
X25299Y5063D02*
X25299Y5274D01*
X25425Y5147D02*
X25046Y5063D01*
X25172Y4810D02*
X25369Y4810D01*
X25060Y4880D02*
X25271Y4950D01*
X25271Y4767D01*
X25257Y4655D02*
X25257Y4430D01*
X25172Y4163D02*
X25369Y4163D01*
X25060Y4233D02*
X25271Y4303D01*
X25271Y4121D01*
X25074Y3952D02*
X25074Y3924D01*
X25088Y3896D01*
X25102Y3882D01*
X25130Y3868D01*
X25186Y3853D01*
X25257Y3853D01*
X25313Y3868D01*
X25341Y3882D01*
X25355Y3896D01*
X25369Y3924D01*
X25369Y3952D01*
X25355Y3980D01*
X25341Y3994D01*
X25313Y4008D01*
X25257Y4022D01*
X25186Y4022D01*
X25130Y4008D01*
X25102Y3994D01*
X25088Y3980D01*
X25074Y3952D01*
X25172Y14296D02*
X25172Y14085D01*
X25046Y14211D02*
X25425Y14296D01*
X25299Y14113D02*
X25299Y14324D01*
X25425Y14197D02*
X25046Y14113D01*
X25172Y13860D02*
X25369Y13860D01*
X25060Y13930D02*
X25271Y14000D01*
X25271Y13817D01*
X25257Y13705D02*
X25257Y13480D01*
X25172Y13213D02*
X25369Y13213D01*
X25060Y13283D02*
X25271Y13353D01*
X25271Y13171D01*
X25074Y13002D02*
X25074Y12974D01*
X25088Y12946D01*
X25102Y12932D01*
X25130Y12918D01*
X25186Y12903D01*
X25257Y12903D01*
X25313Y12918D01*
X25341Y12932D01*
X25355Y12946D01*
X25369Y12974D01*
X25369Y13002D01*
X25355Y13030D01*
X25341Y13044D01*
X25313Y13058D01*
X25257Y13072D01*
X25186Y13072D01*
X25130Y13058D01*
X25102Y13044D01*
X25088Y13030D01*
X25074Y13002D01*
X5322Y19246D02*
X5322Y19035D01*
X5196Y19161D02*
X5575Y19246D01*
X5449Y19063D02*
X5449Y19274D01*
X5575Y19147D02*
X5196Y19063D01*
X5322Y18810D02*
X5519Y18810D01*
X5210Y18880D02*
X5421Y18950D01*
X5421Y18767D01*
X5407Y18655D02*
X5407Y18430D01*
X5322Y18163D02*
X5519Y18163D01*
X5210Y18233D02*
X5421Y18303D01*
X5421Y18121D01*
X5224Y17952D02*
X5224Y17924D01*
X5238Y17896D01*
X5252Y17882D01*
X5280Y17868D01*
X5336Y17853D01*
X5407Y17853D01*
X5463Y17868D01*
X5491Y17882D01*
X5505Y17896D01*
X5519Y17924D01*
X5519Y17952D01*
X5505Y17980D01*
X5491Y17994D01*
X5463Y18008D01*
X5407Y18022D01*
X5336Y18022D01*
X5280Y18008D01*
X5252Y17994D01*
X5238Y17980D01*
X5224Y17952D01*
X8072Y2046D02*
X8072Y1835D01*
X7946Y1961D02*
X8325Y2046D01*
X8199Y1863D02*
X8199Y2074D01*
X8325Y1947D02*
X7946Y1863D01*
X8072Y1610D02*
X8269Y1610D01*
X7960Y1680D02*
X8171Y1750D01*
X8171Y1567D01*
X8157Y1455D02*
X8157Y1230D01*
X8072Y963D02*
X8269Y963D01*
X7960Y1033D02*
X8171Y1103D01*
X8171Y921D01*
X7974Y752D02*
X7974Y724D01*
X7988Y696D01*
X8002Y682D01*
X8030Y668D01*
X8086Y653D01*
X8157Y653D01*
X8213Y668D01*
X8241Y682D01*
X8255Y696D01*
X8269Y724D01*
X8269Y752D01*
X8255Y780D01*
X8241Y794D01*
X8213Y808D01*
X8157Y822D01*
X8086Y822D01*
X8030Y808D01*
X8002Y794D01*
X7988Y780D01*
X7974Y752D01*
X12888Y1824D02*
X12874Y1853D01*
X12874Y1895D01*
X12888Y1937D01*
X12916Y1965D01*
X12944Y1979D01*
X13000Y1993D01*
X13042Y1993D01*
X13099Y1979D01*
X13127Y1965D01*
X13155Y1937D01*
X13169Y1895D01*
X13169Y1867D01*
X13155Y1824D01*
X13141Y1810D01*
X13042Y1810D01*
X13042Y1867D01*
X13169Y1684D02*
X12874Y1684D01*
X13169Y1515D01*
X12874Y1515D01*
X13169Y1375D02*
X12874Y1375D01*
X12874Y1304D01*
X12888Y1262D01*
X12916Y1234D01*
X12944Y1220D01*
X13000Y1206D01*
X13042Y1206D01*
X13099Y1220D01*
X13127Y1234D01*
X13155Y1262D01*
X13169Y1304D01*
X13169Y1375D01*
X13888Y1824D02*
X13874Y1853D01*
X13874Y1895D01*
X13888Y1937D01*
X13916Y1965D01*
X13944Y1979D01*
X14000Y1993D01*
X14042Y1993D01*
X14099Y1979D01*
X14127Y1965D01*
X14155Y1937D01*
X14169Y1895D01*
X14169Y1867D01*
X14155Y1824D01*
X14141Y1810D01*
X14042Y1810D01*
X14042Y1867D01*
X14169Y1684D02*
X13874Y1684D01*
X14169Y1515D01*
X13874Y1515D01*
X14169Y1375D02*
X13874Y1375D01*
X13874Y1304D01*
X13888Y1262D01*
X13916Y1234D01*
X13944Y1220D01*
X14000Y1206D01*
X14042Y1206D01*
X14099Y1220D01*
X14127Y1234D01*
X14155Y1262D01*
X14169Y1304D01*
X14169Y1375D01*
X14888Y1824D02*
X14874Y1853D01*
X14874Y1895D01*
X14888Y1937D01*
X14916Y1965D01*
X14944Y1979D01*
X15000Y1993D01*
X15042Y1993D01*
X15099Y1979D01*
X15127Y1965D01*
X15155Y1937D01*
X15169Y1895D01*
X15169Y1867D01*
X15155Y1824D01*
X15141Y1810D01*
X15042Y1810D01*
X15042Y1867D01*
X15169Y1684D02*
X14874Y1684D01*
X15169Y1515D01*
X14874Y1515D01*
X15169Y1375D02*
X14874Y1375D01*
X14874Y1304D01*
X14888Y1262D01*
X14916Y1234D01*
X14944Y1220D01*
X15000Y1206D01*
X15042Y1206D01*
X15099Y1220D01*
X15127Y1234D01*
X15155Y1262D01*
X15169Y1304D01*
X15169Y1375D01*
X16888Y1824D02*
X16874Y1853D01*
X16874Y1895D01*
X16888Y1937D01*
X16916Y1965D01*
X16944Y1979D01*
X17000Y1993D01*
X17042Y1993D01*
X17099Y1979D01*
X17127Y1965D01*
X17155Y1937D01*
X17169Y1895D01*
X17169Y1867D01*
X17155Y1824D01*
X17141Y1810D01*
X17042Y1810D01*
X17042Y1867D01*
X17169Y1684D02*
X16874Y1684D01*
X17169Y1515D01*
X16874Y1515D01*
X17169Y1375D02*
X16874Y1375D01*
X16874Y1304D01*
X16888Y1262D01*
X16916Y1234D01*
X16944Y1220D01*
X17000Y1206D01*
X17042Y1206D01*
X17099Y1220D01*
X17127Y1234D01*
X17155Y1262D01*
X17169Y1304D01*
X17169Y1375D01*
X17288Y18724D02*
X17274Y18753D01*
X17274Y18795D01*
X17288Y18837D01*
X17316Y18865D01*
X17344Y18879D01*
X17400Y18893D01*
X17442Y18893D01*
X17499Y18879D01*
X17527Y18865D01*
X17555Y18837D01*
X17569Y18795D01*
X17569Y18767D01*
X17555Y18724D01*
X17541Y18710D01*
X17442Y18710D01*
X17442Y18767D01*
X17569Y18584D02*
X17274Y18584D01*
X17569Y18415D01*
X17274Y18415D01*
X17569Y18275D02*
X17274Y18275D01*
X17274Y18204D01*
X17288Y18162D01*
X17316Y18134D01*
X17344Y18120D01*
X17400Y18106D01*
X17442Y18106D01*
X17499Y18120D01*
X17527Y18134D01*
X17555Y18162D01*
X17569Y18204D01*
X17569Y18275D01*
G54D13*
X10450Y18950D02*
X10450Y18600D01*
X11450Y18950D02*
X11450Y18600D01*
X12100Y18600D02*
X11950Y18450D01*
X11950Y18750D02*
X12100Y18600D01*
X12100Y18600D02*
X11950Y18750D01*
X9450Y18600D02*
X12100Y18600D01*
X9450Y18950D02*
X9450Y18600D01*
G54D11*
X13909Y4669D02*
X13976Y4764D01*
X14023Y4669D02*
X14023Y4869D01*
X13947Y4869D01*
X13928Y4859D01*
X13919Y4850D01*
X13909Y4830D01*
X13909Y4802D01*
X13919Y4783D01*
X13928Y4773D01*
X13947Y4764D01*
X14023Y4764D01*
X13833Y4678D02*
X13804Y4669D01*
X13757Y4669D01*
X13738Y4678D01*
X13728Y4688D01*
X13719Y4707D01*
X13719Y4726D01*
X13728Y4745D01*
X13738Y4754D01*
X13757Y4764D01*
X13795Y4773D01*
X13814Y4783D01*
X13823Y4792D01*
X13833Y4811D01*
X13833Y4830D01*
X13823Y4850D01*
X13814Y4859D01*
X13795Y4869D01*
X13747Y4869D01*
X13719Y4859D01*
X13661Y4869D02*
X13547Y4869D01*
X13604Y4669D02*
X13604Y4869D01*
X14071Y4945D02*
X13528Y4945D01*
X13952Y5859D02*
X13971Y5869D01*
X14000Y5869D01*
X14028Y5859D01*
X14047Y5840D01*
X14057Y5821D01*
X14066Y5783D01*
X14066Y5754D01*
X14057Y5716D01*
X14047Y5697D01*
X14028Y5678D01*
X14000Y5669D01*
X13980Y5669D01*
X13952Y5678D01*
X13942Y5688D01*
X13942Y5754D01*
X13980Y5754D01*
X13857Y5669D02*
X13857Y5869D01*
X13742Y5669D01*
X13742Y5869D01*
X13647Y5669D02*
X13647Y5869D01*
X13600Y5869D01*
X13571Y5859D01*
X13552Y5840D01*
X13542Y5821D01*
X13533Y5783D01*
X13533Y5754D01*
X13542Y5716D01*
X13552Y5697D01*
X13571Y5678D01*
X13600Y5669D01*
X13647Y5669D01*
X14057Y6869D02*
X13942Y6869D01*
X14000Y6669D02*
X14000Y6869D01*
X13761Y6688D02*
X13771Y6678D01*
X13800Y6669D01*
X13819Y6669D01*
X13847Y6678D01*
X13866Y6697D01*
X13876Y6716D01*
X13885Y6754D01*
X13885Y6783D01*
X13876Y6821D01*
X13866Y6840D01*
X13847Y6859D01*
X13819Y6869D01*
X13800Y6869D01*
X13771Y6859D01*
X13761Y6850D01*
X13676Y6669D02*
X13676Y6869D01*
X13561Y6669D02*
X13647Y6783D01*
X13561Y6869D02*
X13676Y6754D01*
X14066Y7869D02*
X13952Y7869D01*
X14009Y7669D02*
X14009Y7869D01*
X13885Y7669D02*
X13885Y7869D01*
X13819Y7726D01*
X13752Y7869D01*
X13752Y7669D01*
X13666Y7678D02*
X13638Y7669D01*
X13590Y7669D01*
X13571Y7678D01*
X13561Y7688D01*
X13552Y7707D01*
X13552Y7726D01*
X13561Y7745D01*
X13571Y7754D01*
X13590Y7764D01*
X13628Y7773D01*
X13647Y7783D01*
X13657Y7792D01*
X13666Y7811D01*
X13666Y7830D01*
X13657Y7850D01*
X13647Y7859D01*
X13628Y7869D01*
X13580Y7869D01*
X13552Y7859D01*
X14004Y8869D02*
X13890Y8869D01*
X13947Y8669D02*
X13947Y8869D01*
X13823Y8669D02*
X13823Y8869D01*
X13776Y8869D01*
X13747Y8859D01*
X13728Y8840D01*
X13719Y8821D01*
X13709Y8783D01*
X13709Y8754D01*
X13719Y8716D01*
X13728Y8697D01*
X13747Y8678D01*
X13776Y8669D01*
X13823Y8669D01*
X13623Y8669D02*
X13623Y8869D01*
X14061Y9869D02*
X13947Y9869D01*
X14004Y9669D02*
X14004Y9869D01*
X13880Y9669D02*
X13880Y9869D01*
X13833Y9869D01*
X13804Y9859D01*
X13785Y9840D01*
X13776Y9821D01*
X13766Y9783D01*
X13766Y9754D01*
X13776Y9716D01*
X13785Y9697D01*
X13804Y9678D01*
X13833Y9669D01*
X13880Y9669D01*
X13642Y9869D02*
X13604Y9869D01*
X13585Y9859D01*
X13566Y9840D01*
X13557Y9802D01*
X13557Y9735D01*
X13566Y9697D01*
X13585Y9678D01*
X13604Y9669D01*
X13642Y9669D01*
X13661Y9678D01*
X13680Y9697D01*
X13690Y9735D01*
X13690Y9802D01*
X13680Y9840D01*
X13661Y9859D01*
X13642Y9869D01*
X8269Y6869D02*
X8154Y6869D01*
X8211Y6669D02*
X8211Y6869D01*
X8088Y6773D02*
X8021Y6773D01*
X7992Y6669D02*
X8088Y6669D01*
X8088Y6869D01*
X7992Y6869D01*
X7916Y6678D02*
X7888Y6669D01*
X7840Y6669D01*
X7821Y6678D01*
X7811Y6688D01*
X7802Y6707D01*
X7802Y6726D01*
X7811Y6745D01*
X7821Y6754D01*
X7840Y6764D01*
X7878Y6773D01*
X7897Y6783D01*
X7907Y6792D01*
X7916Y6811D01*
X7916Y6830D01*
X7907Y6850D01*
X7897Y6859D01*
X7878Y6869D01*
X7830Y6869D01*
X7802Y6859D01*
X7745Y6869D02*
X7630Y6869D01*
X7688Y6669D02*
X7688Y6869D01*
X8350Y8745D02*
X8197Y8745D01*
X8273Y8669D02*
X8273Y8821D01*
X8121Y8869D02*
X7997Y8869D01*
X8064Y8792D01*
X8035Y8792D01*
X8016Y8783D01*
X8007Y8773D01*
X7997Y8754D01*
X7997Y8707D01*
X8007Y8688D01*
X8016Y8678D01*
X8035Y8669D01*
X8092Y8669D01*
X8111Y8678D01*
X8121Y8688D01*
X7911Y8688D02*
X7902Y8678D01*
X7911Y8669D01*
X7921Y8678D01*
X7911Y8688D01*
X7911Y8669D01*
X7835Y8869D02*
X7711Y8869D01*
X7778Y8792D01*
X7750Y8792D01*
X7730Y8783D01*
X7721Y8773D01*
X7711Y8754D01*
X7711Y8707D01*
X7721Y8688D01*
X7730Y8678D01*
X7750Y8669D01*
X7807Y8669D01*
X7826Y8678D01*
X7835Y8688D01*
X7654Y8869D02*
X7588Y8669D01*
X7521Y8869D01*
G54D12*
X8890Y12092D02*
X8665Y12092D01*
X8778Y11980D02*
X8778Y12205D01*
X8553Y12275D02*
X8370Y12275D01*
X8468Y12163D01*
X8426Y12163D01*
X8398Y12149D01*
X8384Y12135D01*
X8370Y12107D01*
X8370Y12036D01*
X8384Y12008D01*
X8398Y11994D01*
X8426Y11980D01*
X8510Y11980D01*
X8539Y11994D01*
X8553Y12008D01*
X8243Y12008D02*
X8229Y11994D01*
X8243Y11980D01*
X8257Y11994D01*
X8243Y12008D01*
X8243Y11980D01*
X8131Y12275D02*
X7948Y12275D01*
X8046Y12163D01*
X8004Y12163D01*
X7976Y12149D01*
X7962Y12135D01*
X7948Y12107D01*
X7948Y12036D01*
X7962Y12008D01*
X7976Y11994D01*
X8004Y11980D01*
X8089Y11980D01*
X8117Y11994D01*
X8131Y12008D01*
X7864Y12275D02*
X7765Y11980D01*
X7667Y12275D01*
X11235Y17392D02*
X11010Y17392D01*
X11122Y17280D02*
X11122Y17505D01*
X10728Y17575D02*
X10869Y17575D01*
X10883Y17435D01*
X10869Y17449D01*
X10841Y17463D01*
X10771Y17463D01*
X10742Y17449D01*
X10728Y17435D01*
X10714Y17407D01*
X10714Y17336D01*
X10728Y17308D01*
X10742Y17294D01*
X10771Y17280D01*
X10841Y17280D01*
X10869Y17294D01*
X10883Y17308D01*
X10630Y17575D02*
X10532Y17280D01*
X10433Y17575D01*
X10110Y17575D02*
X10110Y17336D01*
X10096Y17308D01*
X10082Y17294D01*
X10053Y17280D01*
X9997Y17280D01*
X9969Y17294D01*
X9955Y17308D01*
X9941Y17336D01*
X9941Y17575D01*
X9814Y17294D02*
X9772Y17280D01*
X9702Y17280D01*
X9674Y17294D01*
X9660Y17308D01*
X9646Y17336D01*
X9646Y17364D01*
X9660Y17392D01*
X9674Y17407D01*
X9702Y17421D01*
X9758Y17435D01*
X9786Y17449D01*
X9800Y17463D01*
X9814Y17491D01*
X9814Y17519D01*
X9800Y17547D01*
X9786Y17561D01*
X9758Y17575D01*
X9688Y17575D01*
X9646Y17561D01*
X9421Y17435D02*
X9379Y17421D01*
X9364Y17407D01*
X9350Y17378D01*
X9350Y17336D01*
X9364Y17308D01*
X9379Y17294D01*
X9407Y17280D01*
X9519Y17280D01*
X9519Y17575D01*
X9421Y17575D01*
X9393Y17561D01*
X9379Y17547D01*
X9364Y17519D01*
X9364Y17491D01*
X9379Y17463D01*
X9393Y17449D01*
X9421Y17435D01*
X9519Y17435D01*
X3665Y3030D02*
X3665Y3325D01*
X3553Y3325D01*
X3524Y3311D01*
X3510Y3297D01*
X3496Y3269D01*
X3496Y3227D01*
X3510Y3199D01*
X3524Y3185D01*
X3553Y3171D01*
X3665Y3171D01*
X3370Y3030D02*
X3370Y3325D01*
X3257Y3325D01*
X3229Y3311D01*
X3215Y3297D01*
X3201Y3269D01*
X3201Y3227D01*
X3215Y3199D01*
X3229Y3185D01*
X3257Y3171D01*
X3370Y3171D01*
X3089Y3044D02*
X3046Y3030D01*
X2976Y3030D01*
X2948Y3044D01*
X2934Y3058D01*
X2920Y3086D01*
X2920Y3114D01*
X2934Y3142D01*
X2948Y3157D01*
X2976Y3171D01*
X3032Y3185D01*
X3060Y3199D01*
X3075Y3213D01*
X3089Y3241D01*
X3089Y3269D01*
X3075Y3297D01*
X3060Y3311D01*
X3032Y3325D01*
X2962Y3325D01*
X2920Y3311D01*
X3143Y13725D02*
X3045Y13430D01*
X2946Y13725D01*
X2679Y13458D02*
X2693Y13444D01*
X2735Y13430D01*
X2764Y13430D01*
X2806Y13444D01*
X2834Y13472D01*
X2848Y13500D01*
X2862Y13557D01*
X2862Y13599D01*
X2848Y13655D01*
X2834Y13683D01*
X2806Y13711D01*
X2764Y13725D01*
X2735Y13725D01*
X2693Y13711D01*
X2679Y13697D01*
X2384Y13458D02*
X2398Y13444D01*
X2440Y13430D01*
X2468Y13430D01*
X2510Y13444D01*
X2539Y13472D01*
X2553Y13500D01*
X2567Y13557D01*
X2567Y13599D01*
X2553Y13655D01*
X2539Y13683D01*
X2510Y13711D01*
X2468Y13725D01*
X2440Y13725D01*
X2398Y13711D01*
X2384Y13697D01*
X2974Y15861D02*
X3003Y15875D01*
X3045Y15875D01*
X3087Y15861D01*
X3115Y15833D01*
X3129Y15805D01*
X3143Y15749D01*
X3143Y15707D01*
X3129Y15650D01*
X3115Y15622D01*
X3087Y15594D01*
X3045Y15580D01*
X3017Y15580D01*
X2974Y15594D01*
X2960Y15608D01*
X2960Y15707D01*
X3017Y15707D01*
X2834Y15580D02*
X2834Y15875D01*
X2665Y15580D01*
X2665Y15875D01*
X2525Y15580D02*
X2525Y15875D01*
X2454Y15875D01*
X2412Y15861D01*
X2384Y15833D01*
X2370Y15805D01*
X2356Y15749D01*
X2356Y15707D01*
X2370Y15650D01*
X2384Y15622D01*
X2412Y15594D01*
X2454Y15580D01*
X2525Y15580D01*
X2904Y12430D02*
X2904Y12725D01*
X2764Y12430D02*
X2764Y12725D01*
X2595Y12430D01*
X2595Y12725D01*
G54D14*
X27218Y7789D02*
X27134Y7760D01*
X26993Y7760D01*
X26937Y7789D01*
X26909Y7817D01*
X26881Y7873D01*
X26881Y7929D01*
X26909Y7985D01*
X26937Y8014D01*
X26993Y8042D01*
X27106Y8070D01*
X27162Y8098D01*
X27190Y8126D01*
X27218Y8182D01*
X27218Y8239D01*
X27190Y8295D01*
X27162Y8323D01*
X27106Y8351D01*
X26965Y8351D01*
X26881Y8323D01*
X26628Y7760D02*
X26628Y8351D01*
X26290Y7760D01*
X26290Y8351D01*
X26009Y7817D02*
X25981Y7789D01*
X26009Y7760D01*
X26037Y7789D01*
X26009Y7817D01*
X26009Y7760D01*
X26009Y8126D02*
X25981Y8098D01*
X26009Y8070D01*
X26037Y8098D01*
X26009Y8126D01*
X26009Y8070D01*
G54D12*
X11394Y1525D02*
X11394Y1314D01*
X11408Y1272D01*
X11436Y1244D01*
X11478Y1230D01*
X11506Y1230D01*
X11296Y1525D02*
X11127Y1525D01*
X11211Y1230D02*
X11211Y1525D01*
X11042Y1314D02*
X10902Y1314D01*
X11071Y1230D02*
X10972Y1525D01*
X10874Y1230D01*
X10621Y1511D02*
X10649Y1525D01*
X10691Y1525D01*
X10733Y1511D01*
X10761Y1483D01*
X10775Y1455D01*
X10789Y1399D01*
X10789Y1357D01*
X10775Y1300D01*
X10761Y1272D01*
X10733Y1244D01*
X10691Y1230D01*
X10663Y1230D01*
X10621Y1244D01*
X10607Y1258D01*
X10607Y1357D01*
X10663Y1357D01*
X13555Y18879D02*
X13569Y18837D01*
X13569Y18767D01*
X13555Y18739D01*
X13541Y18724D01*
X13513Y18710D01*
X13485Y18710D01*
X13457Y18724D01*
X13442Y18739D01*
X13428Y18767D01*
X13414Y18823D01*
X13400Y18851D01*
X13386Y18865D01*
X13358Y18879D01*
X13330Y18879D01*
X13302Y18865D01*
X13288Y18851D01*
X13274Y18823D01*
X13274Y18753D01*
X13288Y18710D01*
X13541Y18415D02*
X13555Y18429D01*
X13569Y18471D01*
X13569Y18500D01*
X13555Y18542D01*
X13527Y18570D01*
X13499Y18584D01*
X13442Y18598D01*
X13400Y18598D01*
X13344Y18584D01*
X13316Y18570D01*
X13288Y18542D01*
X13274Y18500D01*
X13274Y18471D01*
X13288Y18429D01*
X13302Y18415D01*
X13569Y18289D02*
X13274Y18289D01*
X13569Y18120D02*
X13400Y18246D01*
X13274Y18120D02*
X13442Y18289D01*
X14569Y18914D02*
X14274Y18914D01*
X14485Y18815D01*
X14274Y18717D01*
X14569Y18717D01*
X14569Y18576D02*
X14274Y18576D01*
X14555Y18450D02*
X14569Y18407D01*
X14569Y18337D01*
X14555Y18309D01*
X14541Y18295D01*
X14513Y18281D01*
X14485Y18281D01*
X14457Y18295D01*
X14442Y18309D01*
X14428Y18337D01*
X14414Y18393D01*
X14400Y18421D01*
X14386Y18435D01*
X14358Y18450D01*
X14330Y18450D01*
X14302Y18435D01*
X14288Y18421D01*
X14274Y18393D01*
X14274Y18323D01*
X14288Y18281D01*
X14274Y18098D02*
X14274Y18042D01*
X14288Y18014D01*
X14316Y17985D01*
X14372Y17971D01*
X14471Y17971D01*
X14527Y17985D01*
X14555Y18014D01*
X14569Y18042D01*
X14569Y18098D01*
X14555Y18126D01*
X14527Y18154D01*
X14471Y18168D01*
X14372Y18168D01*
X14316Y18154D01*
X14288Y18126D01*
X14274Y18098D01*
X15569Y18914D02*
X15274Y18914D01*
X15485Y18815D01*
X15274Y18717D01*
X15569Y18717D01*
X15274Y18520D02*
X15274Y18464D01*
X15288Y18435D01*
X15316Y18407D01*
X15372Y18393D01*
X15471Y18393D01*
X15527Y18407D01*
X15555Y18435D01*
X15569Y18464D01*
X15569Y18520D01*
X15555Y18548D01*
X15527Y18576D01*
X15471Y18590D01*
X15372Y18590D01*
X15316Y18576D01*
X15288Y18548D01*
X15274Y18520D01*
X15555Y18281D02*
X15569Y18239D01*
X15569Y18168D01*
X15555Y18140D01*
X15541Y18126D01*
X15513Y18112D01*
X15485Y18112D01*
X15457Y18126D01*
X15442Y18140D01*
X15428Y18168D01*
X15414Y18225D01*
X15400Y18253D01*
X15386Y18267D01*
X15358Y18281D01*
X15330Y18281D01*
X15302Y18267D01*
X15288Y18253D01*
X15274Y18225D01*
X15274Y18154D01*
X15288Y18112D01*
X15569Y17985D02*
X15274Y17985D01*
X16541Y18699D02*
X16555Y18713D01*
X16569Y18755D01*
X16569Y18783D01*
X16555Y18825D01*
X16527Y18853D01*
X16499Y18867D01*
X16442Y18882D01*
X16400Y18882D01*
X16344Y18867D01*
X16316Y18853D01*
X16288Y18825D01*
X16274Y18783D01*
X16274Y18755D01*
X16288Y18713D01*
X16302Y18699D01*
X16555Y18586D02*
X16569Y18544D01*
X16569Y18474D01*
X16555Y18446D01*
X16541Y18432D01*
X16513Y18417D01*
X16485Y18417D01*
X16457Y18432D01*
X16442Y18446D01*
X16428Y18474D01*
X16414Y18530D01*
X16400Y18558D01*
X16386Y18572D01*
X16358Y18586D01*
X16330Y18586D01*
X16302Y18572D01*
X16288Y18558D01*
X16274Y18530D01*
X16274Y18460D01*
X16288Y18417D01*
X18569Y18017D02*
X18274Y18017D01*
X18274Y17947D01*
X18288Y17905D01*
X18316Y17877D01*
X18344Y17863D01*
X18400Y17849D01*
X18442Y17849D01*
X18499Y17863D01*
X18527Y17877D01*
X18555Y17905D01*
X18569Y17947D01*
X18569Y18017D01*
X18400Y17680D02*
X18386Y17708D01*
X18372Y17722D01*
X18344Y17736D01*
X18330Y17736D01*
X18302Y17722D01*
X18288Y17708D01*
X18274Y17680D01*
X18274Y17624D01*
X18288Y17596D01*
X18302Y17582D01*
X18330Y17567D01*
X18344Y17567D01*
X18372Y17582D01*
X18386Y17596D01*
X18400Y17624D01*
X18400Y17680D01*
X18414Y17708D01*
X18428Y17722D01*
X18457Y17736D01*
X18513Y17736D01*
X18541Y17722D01*
X18555Y17708D01*
X18569Y17680D01*
X18569Y17624D01*
X18555Y17596D01*
X18541Y17582D01*
X18513Y17567D01*
X18457Y17567D01*
X18428Y17582D01*
X18414Y17596D01*
X18400Y17624D01*
X27219Y18017D02*
X26924Y18017D01*
X26924Y17947D01*
X26938Y17905D01*
X26966Y17877D01*
X26994Y17863D01*
X27050Y17849D01*
X27092Y17849D01*
X27149Y17863D01*
X27177Y17877D01*
X27205Y17905D01*
X27219Y17947D01*
X27219Y18017D01*
X26924Y17666D02*
X26924Y17638D01*
X26938Y17610D01*
X26952Y17596D01*
X26980Y17582D01*
X27036Y17567D01*
X27107Y17567D01*
X27163Y17582D01*
X27191Y17596D01*
X27205Y17610D01*
X27219Y17638D01*
X27219Y17666D01*
X27205Y17694D01*
X27191Y17708D01*
X27163Y17722D01*
X27107Y17736D01*
X27036Y17736D01*
X26980Y17722D01*
X26952Y17708D01*
X26938Y17694D01*
X26924Y17666D01*
X26169Y18017D02*
X25874Y18017D01*
X25874Y17947D01*
X25888Y17905D01*
X25916Y17877D01*
X25944Y17863D01*
X26000Y17849D01*
X26042Y17849D01*
X26099Y17863D01*
X26127Y17877D01*
X26155Y17905D01*
X26169Y17947D01*
X26169Y18017D01*
X26169Y17567D02*
X26169Y17736D01*
X26169Y17652D02*
X25874Y17652D01*
X25916Y17680D01*
X25944Y17708D01*
X25958Y17736D01*
X25169Y18017D02*
X24874Y18017D01*
X24874Y17947D01*
X24888Y17905D01*
X24916Y17877D01*
X24944Y17863D01*
X25000Y17849D01*
X25042Y17849D01*
X25099Y17863D01*
X25127Y17877D01*
X25155Y17905D01*
X25169Y17947D01*
X25169Y18017D01*
X24902Y17736D02*
X24888Y17722D01*
X24874Y17694D01*
X24874Y17624D01*
X24888Y17596D01*
X24902Y17582D01*
X24930Y17567D01*
X24958Y17567D01*
X25000Y17582D01*
X25169Y17750D01*
X25169Y17567D01*
X24169Y18017D02*
X23874Y18017D01*
X23874Y17947D01*
X23888Y17905D01*
X23916Y17877D01*
X23944Y17863D01*
X24000Y17849D01*
X24042Y17849D01*
X24099Y17863D01*
X24127Y17877D01*
X24155Y17905D01*
X24169Y17947D01*
X24169Y18017D01*
X23874Y17750D02*
X23874Y17567D01*
X23986Y17666D01*
X23986Y17624D01*
X24000Y17596D01*
X24014Y17582D01*
X24042Y17567D01*
X24113Y17567D01*
X24141Y17582D01*
X24155Y17596D01*
X24169Y17624D01*
X24169Y17708D01*
X24155Y17736D01*
X24141Y17750D01*
X23169Y18017D02*
X22874Y18017D01*
X22874Y17947D01*
X22888Y17905D01*
X22916Y17877D01*
X22944Y17863D01*
X23000Y17849D01*
X23042Y17849D01*
X23099Y17863D01*
X23127Y17877D01*
X23155Y17905D01*
X23169Y17947D01*
X23169Y18017D01*
X22972Y17596D02*
X23169Y17596D01*
X22860Y17666D02*
X23071Y17736D01*
X23071Y17553D01*
X22169Y18017D02*
X21874Y18017D01*
X21874Y17947D01*
X21888Y17905D01*
X21916Y17877D01*
X21944Y17863D01*
X22000Y17849D01*
X22042Y17849D01*
X22099Y17863D01*
X22127Y17877D01*
X22155Y17905D01*
X22169Y17947D01*
X22169Y18017D01*
X21874Y17582D02*
X21874Y17722D01*
X22014Y17736D01*
X22000Y17722D01*
X21986Y17694D01*
X21986Y17624D01*
X22000Y17596D01*
X22014Y17582D01*
X22042Y17567D01*
X22113Y17567D01*
X22141Y17582D01*
X22155Y17596D01*
X22169Y17624D01*
X22169Y17694D01*
X22155Y17722D01*
X22141Y17736D01*
X21169Y18017D02*
X20874Y18017D01*
X20874Y17947D01*
X20888Y17905D01*
X20916Y17877D01*
X20944Y17863D01*
X21000Y17849D01*
X21042Y17849D01*
X21099Y17863D01*
X21127Y17877D01*
X21155Y17905D01*
X21169Y17947D01*
X21169Y18017D01*
X20874Y17596D02*
X20874Y17652D01*
X20888Y17680D01*
X20902Y17694D01*
X20944Y17722D01*
X21000Y17736D01*
X21113Y17736D01*
X21141Y17722D01*
X21155Y17708D01*
X21169Y17680D01*
X21169Y17624D01*
X21155Y17596D01*
X21141Y17582D01*
X21113Y17567D01*
X21042Y17567D01*
X21014Y17582D01*
X21000Y17596D01*
X20986Y17624D01*
X20986Y17680D01*
X21000Y17708D01*
X21014Y17722D01*
X21042Y17736D01*
X20169Y18017D02*
X19874Y18017D01*
X19874Y17947D01*
X19888Y17905D01*
X19916Y17877D01*
X19944Y17863D01*
X20000Y17849D01*
X20042Y17849D01*
X20099Y17863D01*
X20127Y17877D01*
X20155Y17905D01*
X20169Y17947D01*
X20169Y18017D01*
X19874Y17750D02*
X19874Y17553D01*
X20169Y17680D01*
X12288Y18724D02*
X12274Y18753D01*
X12274Y18795D01*
X12288Y18837D01*
X12316Y18865D01*
X12344Y18879D01*
X12400Y18893D01*
X12442Y18893D01*
X12499Y18879D01*
X12527Y18865D01*
X12555Y18837D01*
X12569Y18795D01*
X12569Y18767D01*
X12555Y18724D01*
X12541Y18710D01*
X12442Y18710D01*
X12442Y18767D01*
X12569Y18584D02*
X12274Y18584D01*
X12569Y18415D01*
X12274Y18415D01*
X12569Y18275D02*
X12274Y18275D01*
X12274Y18204D01*
X12288Y18162D01*
X12316Y18134D01*
X12344Y18120D01*
X12400Y18106D01*
X12442Y18106D01*
X12499Y18120D01*
X12527Y18134D01*
X12555Y18162D01*
X12569Y18204D01*
X12569Y18275D01*
X27085Y2360D02*
X27085Y2220D01*
X27169Y2389D02*
X26874Y2290D01*
X27169Y2192D01*
X26874Y1953D02*
X26874Y2093D01*
X27014Y2107D01*
X27000Y2093D01*
X26986Y2065D01*
X26986Y1995D01*
X27000Y1967D01*
X27014Y1953D01*
X27042Y1939D01*
X27113Y1939D01*
X27141Y1953D01*
X27155Y1967D01*
X27169Y1995D01*
X27169Y2065D01*
X27155Y2093D01*
X27141Y2107D01*
X26085Y2360D02*
X26085Y2220D01*
X26169Y2389D02*
X25874Y2290D01*
X26169Y2192D01*
X25972Y1967D02*
X26169Y1967D01*
X25860Y2037D02*
X26071Y2107D01*
X26071Y1925D01*
X25085Y2360D02*
X25085Y2220D01*
X25169Y2389D02*
X24874Y2290D01*
X25169Y2192D01*
X24874Y2121D02*
X24874Y1939D01*
X24986Y2037D01*
X24986Y1995D01*
X25000Y1967D01*
X25014Y1953D01*
X25042Y1939D01*
X25113Y1939D01*
X25141Y1953D01*
X25155Y1967D01*
X25169Y1995D01*
X25169Y2079D01*
X25155Y2107D01*
X25141Y2121D01*
X24085Y2310D02*
X24085Y2170D01*
X24169Y2339D02*
X23874Y2240D01*
X24169Y2142D01*
X23902Y2057D02*
X23888Y2043D01*
X23874Y2015D01*
X23874Y1945D01*
X23888Y1917D01*
X23902Y1903D01*
X23930Y1889D01*
X23958Y1889D01*
X24000Y1903D01*
X24169Y2071D01*
X24169Y1889D01*
X23085Y2310D02*
X23085Y2170D01*
X23169Y2339D02*
X22874Y2240D01*
X23169Y2142D01*
X23169Y1889D02*
X23169Y2057D01*
X23169Y1973D02*
X22874Y1973D01*
X22916Y2001D01*
X22944Y2029D01*
X22958Y2057D01*
X22085Y2310D02*
X22085Y2170D01*
X22169Y2339D02*
X21874Y2240D01*
X22169Y2142D01*
X21874Y1987D02*
X21874Y1959D01*
X21888Y1931D01*
X21902Y1917D01*
X21930Y1903D01*
X21986Y1889D01*
X22057Y1889D01*
X22113Y1903D01*
X22141Y1917D01*
X22155Y1931D01*
X22169Y1959D01*
X22169Y1987D01*
X22155Y2015D01*
X22141Y2029D01*
X22113Y2043D01*
X22057Y2057D01*
X21986Y2057D01*
X21930Y2043D01*
X21902Y2029D01*
X21888Y2015D01*
X21874Y1987D01*
X15874Y2035D02*
X15874Y1853D01*
X15986Y1951D01*
X15986Y1909D01*
X16000Y1881D01*
X16014Y1867D01*
X16042Y1853D01*
X16113Y1853D01*
X16141Y1867D01*
X16155Y1881D01*
X16169Y1909D01*
X16169Y1993D01*
X16155Y2021D01*
X16141Y2035D01*
X16141Y1726D02*
X16155Y1712D01*
X16169Y1726D01*
X16155Y1740D01*
X16141Y1726D01*
X16169Y1726D01*
X15874Y1614D02*
X15874Y1431D01*
X15986Y1529D01*
X15986Y1487D01*
X16000Y1459D01*
X16014Y1445D01*
X16042Y1431D01*
X16113Y1431D01*
X16141Y1445D01*
X16155Y1459D01*
X16169Y1487D01*
X16169Y1571D01*
X16155Y1600D01*
X16141Y1614D01*
X15874Y1346D02*
X16169Y1248D01*
X15874Y1150D01*
X18888Y1824D02*
X18874Y1853D01*
X18874Y1895D01*
X18888Y1937D01*
X18916Y1965D01*
X18944Y1979D01*
X19000Y1993D01*
X19042Y1993D01*
X19099Y1979D01*
X19127Y1965D01*
X19155Y1937D01*
X19169Y1895D01*
X19169Y1867D01*
X19155Y1824D01*
X19141Y1810D01*
X19042Y1810D01*
X19042Y1867D01*
X19169Y1684D02*
X18874Y1684D01*
X19169Y1515D01*
X18874Y1515D01*
X19169Y1375D02*
X18874Y1375D01*
X18874Y1304D01*
X18888Y1262D01*
X18916Y1234D01*
X18944Y1220D01*
X19000Y1206D01*
X19042Y1206D01*
X19099Y1220D01*
X19127Y1234D01*
X19155Y1262D01*
X19169Y1304D01*
X19169Y1375D01*
G54D11*
X-23Y15876D02*
X-23Y15809D01*
X80Y15780D02*
X80Y15876D01*
X-119Y15876D01*
X-119Y15780D01*
X-119Y15714D02*
X80Y15580D01*
X-119Y15580D02*
X80Y15714D01*
X-119Y15533D02*
X-119Y15419D01*
X80Y15476D02*
X-119Y15476D01*
X61Y15352D02*
X71Y15342D01*
X80Y15352D01*
X71Y15361D01*
X61Y15352D01*
X80Y15352D01*
X80Y15257D02*
X-119Y15257D01*
X-119Y15180D01*
X-109Y15161D01*
X-100Y15152D01*
X-80Y15142D01*
X-52Y15142D01*
X-33Y15152D01*
X-23Y15161D01*
X-14Y15180D01*
X-14Y15257D01*
X-119Y15076D02*
X80Y15028D01*
X-61Y14990D01*
X80Y14952D01*
X-119Y14904D01*
X80Y14714D02*
X-14Y14780D01*
X80Y14828D02*
X-119Y14828D01*
X-119Y14752D01*
X-109Y14733D01*
X-100Y14723D01*
X-80Y14714D01*
X-52Y14714D01*
X-33Y14723D01*
X-23Y14733D01*
X-14Y14752D01*
X-14Y14828D01*
G54D12*
X19924Y1993D02*
X20219Y1895D01*
X19924Y1796D01*
X20191Y1529D02*
X20205Y1543D01*
X20219Y1585D01*
X20219Y1614D01*
X20205Y1656D01*
X20177Y1684D01*
X20149Y1698D01*
X20092Y1712D01*
X20050Y1712D01*
X19994Y1698D01*
X19966Y1684D01*
X19938Y1656D01*
X19924Y1614D01*
X19924Y1585D01*
X19938Y1543D01*
X19952Y1529D01*
X20191Y1234D02*
X20205Y1248D01*
X20219Y1290D01*
X20219Y1318D01*
X20205Y1360D01*
X20177Y1389D01*
X20149Y1403D01*
X20092Y1417D01*
X20050Y1417D01*
X19994Y1403D01*
X19966Y1389D01*
X19938Y1360D01*
X19924Y1318D01*
X19924Y1290D01*
X19938Y1248D01*
X19952Y1234D01*
X17888Y1824D02*
X17874Y1853D01*
X17874Y1895D01*
X17888Y1937D01*
X17916Y1965D01*
X17944Y1979D01*
X18000Y1993D01*
X18042Y1993D01*
X18099Y1979D01*
X18127Y1965D01*
X18155Y1937D01*
X18169Y1895D01*
X18169Y1867D01*
X18155Y1824D01*
X18141Y1810D01*
X18042Y1810D01*
X18042Y1867D01*
X18169Y1684D02*
X17874Y1684D01*
X18169Y1515D01*
X17874Y1515D01*
X18169Y1375D02*
X17874Y1375D01*
X17874Y1304D01*
X17888Y1262D01*
X17916Y1234D01*
X17944Y1220D01*
X18000Y1206D01*
X18042Y1206D01*
X18099Y1220D01*
X18127Y1234D01*
X18155Y1262D01*
X18169Y1304D01*
X18169Y1375D01*
G54D11*
X13241Y10300D02*
G75*
G03X13241Y10300I-141J0D01*
G74*
G01*
X9228Y3254D02*
X9228Y1679D01*
X9228Y1679D02*
X12772Y1679D01*
X12772Y1679D02*
X12772Y3254D01*
X12772Y11719D02*
X12772Y10341D01*
X9228Y11719D02*
X9228Y10341D01*
X9228Y11719D02*
X12772Y11719D01*
X23484Y17398D02*
X23341Y17398D01*
X23413Y17148D02*
X23413Y17398D01*
X23258Y17148D02*
X23258Y17398D01*
X23163Y17398D01*
X23139Y17386D01*
X23127Y17375D01*
X23115Y17351D01*
X23115Y17315D01*
X23127Y17291D01*
X23139Y17279D01*
X23163Y17267D01*
X23258Y17267D01*
X22877Y17148D02*
X23020Y17148D01*
X22948Y17148D02*
X22948Y17398D01*
X22972Y17363D01*
X22996Y17339D01*
X23020Y17327D01*
X22651Y17398D02*
X22770Y17398D01*
X22782Y17279D01*
X22770Y17291D01*
X22746Y17303D01*
X22686Y17303D01*
X22663Y17291D01*
X22651Y17279D01*
X22639Y17255D01*
X22639Y17196D01*
X22651Y17172D01*
X22663Y17160D01*
X22686Y17148D01*
X22746Y17148D01*
X22770Y17160D01*
X22782Y17172D01*
X25484Y17398D02*
X25341Y17398D01*
X25413Y17148D02*
X25413Y17398D01*
X25258Y17148D02*
X25258Y17398D01*
X25163Y17398D01*
X25139Y17386D01*
X25127Y17375D01*
X25115Y17351D01*
X25115Y17315D01*
X25127Y17291D01*
X25139Y17279D01*
X25163Y17267D01*
X25258Y17267D01*
X24877Y17148D02*
X25020Y17148D01*
X24948Y17148D02*
X24948Y17398D01*
X24972Y17363D01*
X24996Y17339D01*
X25020Y17327D01*
X24794Y17398D02*
X24639Y17398D01*
X24722Y17303D01*
X24686Y17303D01*
X24663Y17291D01*
X24651Y17279D01*
X24639Y17255D01*
X24639Y17196D01*
X24651Y17172D01*
X24663Y17160D01*
X24686Y17148D01*
X24758Y17148D01*
X24782Y17160D01*
X24794Y17172D01*
X26484Y17398D02*
X26341Y17398D01*
X26413Y17148D02*
X26413Y17398D01*
X26258Y17148D02*
X26258Y17398D01*
X26163Y17398D01*
X26139Y17386D01*
X26127Y17375D01*
X26115Y17351D01*
X26115Y17315D01*
X26127Y17291D01*
X26139Y17279D01*
X26163Y17267D01*
X26258Y17267D01*
X25877Y17148D02*
X26020Y17148D01*
X25948Y17148D02*
X25948Y17398D01*
X25972Y17363D01*
X25996Y17339D01*
X26020Y17327D01*
X25782Y17375D02*
X25770Y17386D01*
X25746Y17398D01*
X25686Y17398D01*
X25663Y17386D01*
X25651Y17375D01*
X25639Y17351D01*
X25639Y17327D01*
X25651Y17291D01*
X25794Y17148D01*
X25639Y17148D01*
X9765Y18248D02*
X9622Y18248D01*
X9694Y17998D02*
X9694Y18248D01*
X9539Y17998D02*
X9539Y18248D01*
X9444Y18248D01*
X9420Y18236D01*
X9408Y18225D01*
X9396Y18201D01*
X9396Y18165D01*
X9408Y18141D01*
X9420Y18129D01*
X9444Y18117D01*
X9539Y18117D01*
X9301Y18225D02*
X9289Y18236D01*
X9265Y18248D01*
X9205Y18248D01*
X9182Y18236D01*
X9170Y18225D01*
X9158Y18201D01*
X9158Y18177D01*
X9170Y18141D01*
X9313Y17998D01*
X9158Y17998D01*
X27484Y17398D02*
X27341Y17398D01*
X27413Y17148D02*
X27413Y17398D01*
X27258Y17148D02*
X27258Y17398D01*
X27163Y17398D01*
X27139Y17386D01*
X27127Y17375D01*
X27115Y17351D01*
X27115Y17315D01*
X27127Y17291D01*
X27139Y17279D01*
X27163Y17267D01*
X27258Y17267D01*
X26877Y17148D02*
X27020Y17148D01*
X26948Y17148D02*
X26948Y17398D01*
X26972Y17363D01*
X26996Y17339D01*
X27020Y17327D01*
X26639Y17148D02*
X26782Y17148D01*
X26710Y17148D02*
X26710Y17398D01*
X26734Y17363D01*
X26758Y17339D01*
X26782Y17327D01*
X27484Y2798D02*
X27341Y2798D01*
X27413Y2548D02*
X27413Y2798D01*
X27258Y2548D02*
X27258Y2798D01*
X27163Y2798D01*
X27139Y2786D01*
X27127Y2775D01*
X27115Y2751D01*
X27115Y2715D01*
X27127Y2691D01*
X27139Y2679D01*
X27163Y2667D01*
X27258Y2667D01*
X26877Y2548D02*
X27020Y2548D01*
X26948Y2548D02*
X26948Y2798D01*
X26972Y2763D01*
X26996Y2739D01*
X27020Y2727D01*
X26722Y2798D02*
X26698Y2798D01*
X26675Y2786D01*
X26663Y2775D01*
X26651Y2751D01*
X26639Y2703D01*
X26639Y2644D01*
X26651Y2596D01*
X26663Y2572D01*
X26675Y2560D01*
X26698Y2548D01*
X26722Y2548D01*
X26746Y2560D01*
X26758Y2572D01*
X26770Y2596D01*
X26782Y2644D01*
X26782Y2703D01*
X26770Y2751D01*
X26758Y2775D01*
X26746Y2786D01*
X26722Y2798D01*
X26365Y2798D02*
X26222Y2798D01*
X26294Y2548D02*
X26294Y2798D01*
X26139Y2548D02*
X26139Y2798D01*
X26044Y2798D01*
X26020Y2786D01*
X26008Y2775D01*
X25996Y2751D01*
X25996Y2715D01*
X26008Y2691D01*
X26020Y2679D01*
X26044Y2667D01*
X26139Y2667D01*
X25877Y2548D02*
X25829Y2548D01*
X25805Y2560D01*
X25794Y2572D01*
X25770Y2608D01*
X25758Y2655D01*
X25758Y2751D01*
X25770Y2775D01*
X25782Y2786D01*
X25805Y2798D01*
X25853Y2798D01*
X25877Y2786D01*
X25889Y2775D01*
X25901Y2751D01*
X25901Y2691D01*
X25889Y2667D01*
X25877Y2655D01*
X25853Y2644D01*
X25805Y2644D01*
X25782Y2655D01*
X25770Y2667D01*
X25758Y2691D01*
X25365Y2798D02*
X25222Y2798D01*
X25294Y2548D02*
X25294Y2798D01*
X25139Y2548D02*
X25139Y2798D01*
X25044Y2798D01*
X25020Y2786D01*
X25008Y2775D01*
X24996Y2751D01*
X24996Y2715D01*
X25008Y2691D01*
X25020Y2679D01*
X25044Y2667D01*
X25139Y2667D01*
X24853Y2691D02*
X24877Y2703D01*
X24889Y2715D01*
X24901Y2739D01*
X24901Y2751D01*
X24889Y2775D01*
X24877Y2786D01*
X24853Y2798D01*
X24805Y2798D01*
X24782Y2786D01*
X24770Y2775D01*
X24758Y2751D01*
X24758Y2739D01*
X24770Y2715D01*
X24782Y2703D01*
X24805Y2691D01*
X24853Y2691D01*
X24877Y2679D01*
X24889Y2667D01*
X24901Y2644D01*
X24901Y2596D01*
X24889Y2572D01*
X24877Y2560D01*
X24853Y2548D01*
X24805Y2548D01*
X24782Y2560D01*
X24770Y2572D01*
X24758Y2596D01*
X24758Y2644D01*
X24770Y2667D01*
X24782Y2679D01*
X24805Y2691D01*
X24365Y2798D02*
X24222Y2798D01*
X24294Y2548D02*
X24294Y2798D01*
X24139Y2548D02*
X24139Y2798D01*
X24044Y2798D01*
X24020Y2786D01*
X24008Y2775D01*
X23996Y2751D01*
X23996Y2715D01*
X24008Y2691D01*
X24020Y2679D01*
X24044Y2667D01*
X24139Y2667D01*
X23913Y2798D02*
X23746Y2798D01*
X23853Y2548D01*
X23365Y2798D02*
X23222Y2798D01*
X23294Y2548D02*
X23294Y2798D01*
X23139Y2548D02*
X23139Y2798D01*
X23044Y2798D01*
X23020Y2786D01*
X23008Y2775D01*
X22996Y2751D01*
X22996Y2715D01*
X23008Y2691D01*
X23020Y2679D01*
X23044Y2667D01*
X23139Y2667D01*
X22782Y2798D02*
X22829Y2798D01*
X22853Y2786D01*
X22865Y2775D01*
X22889Y2739D01*
X22901Y2691D01*
X22901Y2596D01*
X22889Y2572D01*
X22877Y2560D01*
X22853Y2548D01*
X22805Y2548D01*
X22782Y2560D01*
X22770Y2572D01*
X22758Y2596D01*
X22758Y2655D01*
X22770Y2679D01*
X22782Y2691D01*
X22805Y2703D01*
X22853Y2703D01*
X22877Y2691D01*
X22889Y2679D01*
X22901Y2655D01*
X22365Y2798D02*
X22222Y2798D01*
X22294Y2548D02*
X22294Y2798D01*
X22139Y2548D02*
X22139Y2798D01*
X22044Y2798D01*
X22020Y2786D01*
X22008Y2775D01*
X21996Y2751D01*
X21996Y2715D01*
X22008Y2691D01*
X22020Y2679D01*
X22044Y2667D01*
X22139Y2667D01*
X21770Y2798D02*
X21889Y2798D01*
X21901Y2679D01*
X21889Y2691D01*
X21865Y2703D01*
X21805Y2703D01*
X21782Y2691D01*
X21770Y2679D01*
X21758Y2655D01*
X21758Y2596D01*
X21770Y2572D01*
X21782Y2560D01*
X21805Y2548D01*
X21865Y2548D01*
X21889Y2560D01*
X21901Y2572D01*
X8615Y10898D02*
X8472Y10898D01*
X8544Y10648D02*
X8544Y10898D01*
X8389Y10648D02*
X8389Y10898D01*
X8294Y10898D01*
X8270Y10886D01*
X8258Y10875D01*
X8246Y10851D01*
X8246Y10815D01*
X8258Y10791D01*
X8270Y10779D01*
X8294Y10767D01*
X8389Y10767D01*
X8008Y10648D02*
X8151Y10648D01*
X8079Y10648D02*
X8079Y10898D01*
X8103Y10863D01*
X8127Y10839D01*
X8151Y10827D01*
X2115Y14348D02*
X1972Y14348D01*
X2044Y14098D02*
X2044Y14348D01*
X1889Y14098D02*
X1889Y14348D01*
X1794Y14348D01*
X1770Y14336D01*
X1758Y14325D01*
X1746Y14301D01*
X1746Y14265D01*
X1758Y14241D01*
X1770Y14229D01*
X1794Y14217D01*
X1889Y14217D01*
X1532Y14265D02*
X1532Y14098D01*
X1591Y14360D02*
X1651Y14182D01*
X1496Y14182D01*
X22484Y17398D02*
X22341Y17398D01*
X22413Y17148D02*
X22413Y17398D01*
X22258Y17148D02*
X22258Y17398D01*
X22163Y17398D01*
X22139Y17386D01*
X22127Y17375D01*
X22115Y17351D01*
X22115Y17315D01*
X22127Y17291D01*
X22139Y17279D01*
X22163Y17267D01*
X22258Y17267D01*
X21877Y17148D02*
X22020Y17148D01*
X21948Y17148D02*
X21948Y17398D01*
X21972Y17363D01*
X21996Y17339D01*
X22020Y17327D01*
X21663Y17398D02*
X21710Y17398D01*
X21734Y17386D01*
X21746Y17375D01*
X21770Y17339D01*
X21782Y17291D01*
X21782Y17196D01*
X21770Y17172D01*
X21758Y17160D01*
X21734Y17148D01*
X21686Y17148D01*
X21663Y17160D01*
X21651Y17172D01*
X21639Y17196D01*
X21639Y17255D01*
X21651Y17279D01*
X21663Y17291D01*
X21686Y17303D01*
X21734Y17303D01*
X21758Y17291D01*
X21770Y17279D01*
X21782Y17255D01*
X24484Y17398D02*
X24341Y17398D01*
X24413Y17148D02*
X24413Y17398D01*
X24258Y17148D02*
X24258Y17398D01*
X24163Y17398D01*
X24139Y17386D01*
X24127Y17375D01*
X24115Y17351D01*
X24115Y17315D01*
X24127Y17291D01*
X24139Y17279D01*
X24163Y17267D01*
X24258Y17267D01*
X23877Y17148D02*
X24020Y17148D01*
X23948Y17148D02*
X23948Y17398D01*
X23972Y17363D01*
X23996Y17339D01*
X24020Y17327D01*
X23663Y17315D02*
X23663Y17148D01*
X23722Y17410D02*
X23782Y17232D01*
X23627Y17232D01*
X21484Y17398D02*
X21341Y17398D01*
X21413Y17148D02*
X21413Y17398D01*
X21258Y17148D02*
X21258Y17398D01*
X21163Y17398D01*
X21139Y17386D01*
X21127Y17375D01*
X21115Y17351D01*
X21115Y17315D01*
X21127Y17291D01*
X21139Y17279D01*
X21163Y17267D01*
X21258Y17267D01*
X20877Y17148D02*
X21020Y17148D01*
X20948Y17148D02*
X20948Y17398D01*
X20972Y17363D01*
X20996Y17339D01*
X21020Y17327D01*
X20794Y17398D02*
X20627Y17398D01*
X20734Y17148D01*
X5484Y5998D02*
X5341Y5998D01*
X5413Y5748D02*
X5413Y5998D01*
X5258Y5748D02*
X5258Y5998D01*
X5163Y5998D01*
X5139Y5986D01*
X5127Y5975D01*
X5115Y5951D01*
X5115Y5915D01*
X5127Y5891D01*
X5139Y5879D01*
X5163Y5867D01*
X5258Y5867D01*
X5020Y5975D02*
X5008Y5986D01*
X4984Y5998D01*
X4925Y5998D01*
X4901Y5986D01*
X4889Y5975D01*
X4877Y5951D01*
X4877Y5927D01*
X4889Y5891D01*
X5032Y5748D01*
X4877Y5748D01*
X4639Y5748D02*
X4782Y5748D01*
X4710Y5748D02*
X4710Y5998D01*
X4734Y5963D01*
X4758Y5939D01*
X4782Y5927D01*
X4634Y2598D02*
X4491Y2598D01*
X4563Y2348D02*
X4563Y2598D01*
X4408Y2348D02*
X4408Y2598D01*
X4313Y2598D01*
X4289Y2586D01*
X4277Y2575D01*
X4265Y2551D01*
X4265Y2515D01*
X4277Y2491D01*
X4289Y2479D01*
X4313Y2467D01*
X4408Y2467D01*
X4170Y2575D02*
X4158Y2586D01*
X4134Y2598D01*
X4075Y2598D01*
X4051Y2586D01*
X4039Y2575D01*
X4027Y2551D01*
X4027Y2527D01*
X4039Y2491D01*
X4182Y2348D01*
X4027Y2348D01*
X3872Y2598D02*
X3848Y2598D01*
X3825Y2586D01*
X3813Y2575D01*
X3801Y2551D01*
X3789Y2503D01*
X3789Y2444D01*
X3801Y2396D01*
X3813Y2372D01*
X3825Y2360D01*
X3848Y2348D01*
X3872Y2348D01*
X3896Y2360D01*
X3908Y2372D01*
X3920Y2396D01*
X3932Y2444D01*
X3932Y2503D01*
X3920Y2551D01*
X3908Y2575D01*
X3896Y2586D01*
X3872Y2598D01*
X18884Y17398D02*
X18741Y17398D01*
X18813Y17148D02*
X18813Y17398D01*
X18658Y17148D02*
X18658Y17398D01*
X18563Y17398D01*
X18539Y17386D01*
X18527Y17375D01*
X18515Y17351D01*
X18515Y17315D01*
X18527Y17291D01*
X18539Y17279D01*
X18563Y17267D01*
X18658Y17267D01*
X18277Y17148D02*
X18420Y17148D01*
X18348Y17148D02*
X18348Y17398D01*
X18372Y17363D01*
X18396Y17339D01*
X18420Y17327D01*
X18158Y17148D02*
X18110Y17148D01*
X18086Y17160D01*
X18075Y17172D01*
X18051Y17208D01*
X18039Y17255D01*
X18039Y17351D01*
X18051Y17375D01*
X18063Y17386D01*
X18086Y17398D01*
X18134Y17398D01*
X18158Y17386D01*
X18170Y17375D01*
X18182Y17351D01*
X18182Y17291D01*
X18170Y17267D01*
X18158Y17255D01*
X18134Y17244D01*
X18086Y17244D01*
X18063Y17255D01*
X18051Y17267D01*
X18039Y17291D01*
X20484Y17398D02*
X20341Y17398D01*
X20413Y17148D02*
X20413Y17398D01*
X20258Y17148D02*
X20258Y17398D01*
X20163Y17398D01*
X20139Y17386D01*
X20127Y17375D01*
X20115Y17351D01*
X20115Y17315D01*
X20127Y17291D01*
X20139Y17279D01*
X20163Y17267D01*
X20258Y17267D01*
X19877Y17148D02*
X20020Y17148D01*
X19948Y17148D02*
X19948Y17398D01*
X19972Y17363D01*
X19996Y17339D01*
X20020Y17327D01*
X19734Y17291D02*
X19758Y17303D01*
X19770Y17315D01*
X19782Y17339D01*
X19782Y17351D01*
X19770Y17375D01*
X19758Y17386D01*
X19734Y17398D01*
X19686Y17398D01*
X19663Y17386D01*
X19651Y17375D01*
X19639Y17351D01*
X19639Y17339D01*
X19651Y17315D01*
X19663Y17303D01*
X19686Y17291D01*
X19734Y17291D01*
X19758Y17279D01*
X19770Y17267D01*
X19782Y17244D01*
X19782Y17196D01*
X19770Y17172D01*
X19758Y17160D01*
X19734Y17148D01*
X19686Y17148D01*
X19663Y17160D01*
X19651Y17172D01*
X19639Y17196D01*
X19639Y17244D01*
X19651Y17267D01*
X19663Y17279D01*
X19686Y17291D01*
X2234Y11998D02*
X2091Y11998D01*
X2163Y11748D02*
X2163Y11998D01*
X2008Y11748D02*
X2008Y11998D01*
X1913Y11998D01*
X1889Y11986D01*
X1877Y11975D01*
X1865Y11951D01*
X1865Y11915D01*
X1877Y11891D01*
X1889Y11879D01*
X1913Y11867D01*
X2008Y11867D01*
X1770Y11975D02*
X1758Y11986D01*
X1734Y11998D01*
X1675Y11998D01*
X1651Y11986D01*
X1639Y11975D01*
X1627Y11951D01*
X1627Y11927D01*
X1639Y11891D01*
X1782Y11748D01*
X1627Y11748D01*
X1532Y11975D02*
X1520Y11986D01*
X1496Y11998D01*
X1436Y11998D01*
X1413Y11986D01*
X1401Y11975D01*
X1389Y11951D01*
X1389Y11927D01*
X1401Y11891D01*
X1544Y11748D01*
X1389Y11748D01*
X1234Y17998D02*
X1091Y17998D01*
X1163Y17748D02*
X1163Y17998D01*
X1008Y17748D02*
X1008Y17998D01*
X913Y17998D01*
X889Y17986D01*
X877Y17975D01*
X865Y17951D01*
X865Y17915D01*
X877Y17891D01*
X889Y17879D01*
X913Y17867D01*
X1008Y17867D01*
X770Y17975D02*
X758Y17986D01*
X734Y17998D01*
X675Y17998D01*
X651Y17986D01*
X639Y17975D01*
X627Y17951D01*
X627Y17927D01*
X639Y17891D01*
X782Y17748D01*
X627Y17748D01*
X544Y17998D02*
X389Y17998D01*
X472Y17903D01*
X436Y17903D01*
X413Y17891D01*
X401Y17879D01*
X389Y17855D01*
X389Y17796D01*
X401Y17772D01*
X413Y17760D01*
X436Y17748D01*
X508Y17748D01*
X532Y17760D01*
X544Y17772D01*
X2115Y15148D02*
X1972Y15148D01*
X2044Y14898D02*
X2044Y15148D01*
X1889Y14898D02*
X1889Y15148D01*
X1794Y15148D01*
X1770Y15136D01*
X1758Y15125D01*
X1746Y15101D01*
X1746Y15065D01*
X1758Y15041D01*
X1770Y15029D01*
X1794Y15017D01*
X1889Y15017D01*
X1663Y15148D02*
X1508Y15148D01*
X1591Y15053D01*
X1555Y15053D01*
X1532Y15041D01*
X1520Y15029D01*
X1508Y15005D01*
X1508Y14946D01*
X1520Y14922D01*
X1532Y14910D01*
X1555Y14898D01*
X1627Y14898D01*
X1651Y14910D01*
X1663Y14922D01*
X12734Y11848D02*
X12734Y12098D01*
X12639Y12098D01*
X12615Y12086D01*
X12603Y12075D01*
X12591Y12051D01*
X12591Y12015D01*
X12603Y11991D01*
X12615Y11979D01*
X12639Y11967D01*
X12734Y11967D01*
X12496Y12075D02*
X12484Y12086D01*
X12460Y12098D01*
X12401Y12098D01*
X12377Y12086D01*
X12365Y12075D01*
X12353Y12051D01*
X12353Y12027D01*
X12365Y11991D01*
X12508Y11848D01*
X12353Y11848D01*
X28608Y19529D02*
X28691Y19529D01*
X28691Y19398D02*
X28691Y19648D01*
X28572Y19648D01*
X28477Y19398D02*
X28477Y19648D01*
X28417Y19648D01*
X28382Y19636D01*
X28358Y19613D01*
X28346Y19589D01*
X28334Y19541D01*
X28334Y19505D01*
X28346Y19458D01*
X28358Y19434D01*
X28382Y19410D01*
X28417Y19398D01*
X28477Y19398D01*
X28120Y19648D02*
X28167Y19648D01*
X28191Y19636D01*
X28203Y19625D01*
X28227Y19589D01*
X28239Y19541D01*
X28239Y19446D01*
X28227Y19422D01*
X28215Y19410D01*
X28191Y19398D01*
X28144Y19398D01*
X28120Y19410D01*
X28108Y19422D01*
X28096Y19446D01*
X28096Y19505D01*
X28108Y19529D01*
X28120Y19541D01*
X28144Y19553D01*
X28191Y19553D01*
X28215Y19541D01*
X28227Y19529D01*
X28239Y19505D01*
X28608Y579D02*
X28691Y579D01*
X28691Y448D02*
X28691Y698D01*
X28572Y698D01*
X28477Y448D02*
X28477Y698D01*
X28417Y698D01*
X28382Y686D01*
X28358Y663D01*
X28346Y639D01*
X28334Y591D01*
X28334Y555D01*
X28346Y508D01*
X28358Y484D01*
X28382Y460D01*
X28417Y448D01*
X28477Y448D01*
X28108Y698D02*
X28227Y698D01*
X28239Y579D01*
X28227Y591D01*
X28203Y603D01*
X28144Y603D01*
X28120Y591D01*
X28108Y579D01*
X28096Y555D01*
X28096Y496D01*
X28108Y472D01*
X28120Y460D01*
X28144Y448D01*
X28203Y448D01*
X28227Y460D01*
X28239Y472D01*
X208Y579D02*
X291Y579D01*
X291Y448D02*
X291Y698D01*
X172Y698D01*
X77Y448D02*
X77Y698D01*
X17Y698D01*
X-17Y686D01*
X-41Y663D01*
X-53Y639D01*
X-65Y591D01*
X-65Y555D01*
X-53Y508D01*
X-41Y484D01*
X-17Y460D01*
X17Y448D01*
X77Y448D01*
X-279Y615D02*
X-279Y448D01*
X-220Y710D02*
X-160Y532D01*
X-315Y532D01*
G54D10*
G36*
X25697Y7736D02*
X23433Y7736D01*
X23433Y9240D01*
X25697Y9240D01*
X25697Y7736D01*
X25697Y7736D01*
G37*
G54D15*
X25697Y7736D02*
X23433Y7736D01*
X23433Y9240D01*
X25697Y9240D01*
X25697Y7736D01*
%LPC*%
G54D16*
X27050Y13550D03*
X6250Y1350D03*
X3500Y18550D03*
X27050Y4550D03*
G54D17*
X23050Y18550D03*
X25050Y18550D03*
X26050Y18550D03*
X10300Y18100D03*
X27050Y18550D03*
X27050Y1350D03*
X26050Y1350D03*
X25050Y1350D03*
X24050Y1350D03*
X23050Y1350D03*
X22050Y1350D03*
X8300Y11450D03*
X1800Y13550D03*
X22050Y18550D03*
X24050Y18550D03*
X21050Y18550D03*
X5050Y6550D03*
X4200Y3150D03*
X18450Y18550D03*
X20050Y18550D03*
X1800Y12550D03*
X800Y18600D03*
X1800Y15700D03*
G54D18*
X22050Y550D03*
G54D19*
X23050Y550D03*
X24050Y550D03*
X25050Y550D03*
X26050Y550D03*
X27050Y550D03*
G54D18*
X27050Y19550D03*
G54D19*
X26050Y19550D03*
X25050Y19550D03*
X24050Y19550D03*
X23050Y19550D03*
X22050Y19550D03*
X21050Y19550D03*
X20050Y19550D03*
G54D18*
X18450Y19550D03*
G54D19*
X17450Y19550D03*
X16450Y19550D03*
X15450Y19550D03*
X14450Y19550D03*
X13450Y19550D03*
X12450Y19550D03*
X11450Y19550D03*
X10450Y19550D03*
X9450Y19550D03*
G54D18*
X13050Y550D03*
G54D19*
X14050Y550D03*
X15050Y550D03*
X16050Y550D03*
X17050Y550D03*
X18050Y550D03*
X19050Y550D03*
X20050Y550D03*
G54D20*
X12350Y9750D03*
X12350Y8750D03*
X12350Y7750D03*
X12350Y6750D03*
X12350Y5750D03*
X12350Y4750D03*
X12350Y3750D03*
X9650Y3750D03*
X9650Y4750D03*
X9650Y5750D03*
X9650Y6750D03*
X9650Y7750D03*
X9650Y8750D03*
X9650Y9750D03*
G54D21*
X28400Y20100D03*
X28400Y0D03*
X0Y0D03*
G54D22*
X800Y13550D03*
X800Y12550D03*
X800Y14700D03*
X800Y15700D03*
M02*
