G04 (created by PCBNEW (2013-07-07 BZR 4022)-stable) date 11/20/2016 10:50:47 PM*
%MOIN*%
G04 Gerber Fmt 3.4, Leading zero omitted, Abs format*
%FSLAX34Y34*%
G01*
G70*
G90*
G04 APERTURE LIST*
%ADD10C,0.00590551*%
%ADD11C,0.002*%
%ADD12C,0.0019685*%
G04 APERTURE END LIST*
G54D10*
G54D11*
X25724Y15174D02*
X25724Y18425D01*
X25724Y18425D02*
X28975Y18425D01*
X28975Y18425D02*
X28975Y15174D01*
X28975Y15174D02*
X25724Y15174D01*
X28270Y13550D02*
G75*
G03X28270Y13550I-1220J0D01*
G74*
G01*
X7470Y1350D02*
G75*
G03X7470Y1350I-1220J0D01*
G74*
G01*
X4720Y18550D02*
G75*
G03X4720Y18550I-1220J0D01*
G74*
G01*
X28270Y4550D02*
G75*
G03X28270Y4550I-1220J0D01*
G74*
G01*
G54D12*
X6885Y15714D02*
X8814Y15714D01*
X8814Y15714D02*
X8814Y13985D01*
X8814Y13985D02*
X6885Y13985D01*
X6885Y13985D02*
X6885Y15714D01*
G54D11*
X498Y705D02*
X1601Y705D01*
X1601Y705D02*
X1601Y194D01*
X1601Y194D02*
X498Y194D01*
X498Y194D02*
X498Y705D01*
X498Y1255D02*
X1601Y1255D01*
X1601Y1255D02*
X1601Y744D01*
X1601Y744D02*
X498Y744D01*
X498Y744D02*
X498Y1255D01*
G54D12*
X6634Y18288D02*
X6634Y16911D01*
X6634Y16911D02*
X5965Y16911D01*
X5965Y16911D02*
X5965Y18288D01*
X5965Y18288D02*
X6634Y18288D01*
X8211Y18484D02*
X9588Y18484D01*
X9588Y18484D02*
X9588Y17815D01*
X9588Y17815D02*
X8211Y17815D01*
X8211Y17815D02*
X8211Y18484D01*
G54D11*
X18678Y15221D02*
X17221Y15221D01*
X17221Y15221D02*
X17221Y16678D01*
X17221Y16678D02*
X18678Y16678D01*
X18678Y16678D02*
X18678Y15221D01*
X18057Y3396D02*
X16442Y3396D01*
X16442Y3396D02*
X16442Y4203D01*
X16442Y4203D02*
X18057Y4203D01*
X18057Y4203D02*
X18057Y3396D01*
X6296Y15550D02*
X5403Y15550D01*
X6296Y16849D02*
X6296Y15550D01*
X5403Y16849D02*
X6296Y16849D01*
X5403Y15550D02*
X5403Y16849D01*
G54D12*
X18354Y12470D02*
X21445Y12470D01*
X21445Y12470D02*
X21445Y11329D01*
X21445Y11329D02*
X18354Y11329D01*
X18354Y11329D02*
X18354Y12470D01*
G54D11*
X24416Y11166D02*
X24416Y8233D01*
X24416Y8233D02*
X22483Y8233D01*
X22483Y8233D02*
X22483Y11166D01*
X22483Y11166D02*
X24416Y11166D01*
X6694Y11356D02*
X6694Y9643D01*
X6694Y9643D02*
X5505Y9643D01*
X5505Y9643D02*
X5505Y11356D01*
X5505Y11356D02*
X6694Y11356D01*
X6755Y16543D02*
X6755Y18256D01*
X6755Y18256D02*
X7944Y18256D01*
X7944Y18256D02*
X7944Y16543D01*
X7944Y16543D02*
X6755Y16543D01*
X1790Y10600D02*
X1790Y11899D01*
X1790Y11899D02*
X609Y11899D01*
X609Y11899D02*
X609Y10600D01*
X609Y10600D02*
X1790Y10600D01*
X19316Y15692D02*
X19316Y14707D01*
X19316Y14707D02*
X18883Y14707D01*
X18883Y14707D02*
X18883Y15692D01*
X18883Y15692D02*
X19316Y15692D01*
X24783Y15557D02*
X24783Y16542D01*
X24783Y16542D02*
X25216Y16542D01*
X25216Y16542D02*
X25216Y15557D01*
X25216Y15557D02*
X24783Y15557D01*
X23333Y15557D02*
X23333Y16542D01*
X23333Y16542D02*
X23766Y16542D01*
X23766Y16542D02*
X23766Y15557D01*
X23766Y15557D02*
X23333Y15557D01*
X19692Y15733D02*
X18707Y15733D01*
X18707Y15733D02*
X18707Y16166D01*
X18707Y16166D02*
X19692Y16166D01*
X19692Y16166D02*
X19692Y15733D01*
X25666Y17042D02*
X25666Y16057D01*
X25666Y16057D02*
X25233Y16057D01*
X25233Y16057D02*
X25233Y17042D01*
X25233Y17042D02*
X25666Y17042D01*
X24742Y15533D02*
X23757Y15533D01*
X23757Y15533D02*
X23757Y15966D01*
X23757Y15966D02*
X24742Y15966D01*
X24742Y15966D02*
X24742Y15533D01*
X23510Y18550D02*
G75*
G03X23510Y18550I-460J0D01*
G74*
G01*
X25510Y18550D02*
G75*
G03X25510Y18550I-460J0D01*
G74*
G01*
X26510Y18550D02*
G75*
G03X26510Y18550I-460J0D01*
G74*
G01*
X10760Y18100D02*
G75*
G03X10760Y18100I-460J0D01*
G74*
G01*
X27510Y18550D02*
G75*
G03X27510Y18550I-460J0D01*
G74*
G01*
X27510Y1350D02*
G75*
G03X27510Y1350I-460J0D01*
G74*
G01*
X26510Y1350D02*
G75*
G03X26510Y1350I-460J0D01*
G74*
G01*
X25510Y1350D02*
G75*
G03X25510Y1350I-460J0D01*
G74*
G01*
X24510Y1350D02*
G75*
G03X24510Y1350I-460J0D01*
G74*
G01*
X23510Y1350D02*
G75*
G03X23510Y1350I-460J0D01*
G74*
G01*
X22510Y1350D02*
G75*
G03X22510Y1350I-460J0D01*
G74*
G01*
X8760Y11450D02*
G75*
G03X8760Y11450I-460J0D01*
G74*
G01*
X2260Y13550D02*
G75*
G03X2260Y13550I-460J0D01*
G74*
G01*
X22510Y18550D02*
G75*
G03X22510Y18550I-460J0D01*
G74*
G01*
X24510Y18550D02*
G75*
G03X24510Y18550I-460J0D01*
G74*
G01*
X21510Y18550D02*
G75*
G03X21510Y18550I-460J0D01*
G74*
G01*
X5510Y6550D02*
G75*
G03X5510Y6550I-460J0D01*
G74*
G01*
X4660Y3150D02*
G75*
G03X4660Y3150I-460J0D01*
G74*
G01*
X18910Y18550D02*
G75*
G03X18910Y18550I-460J0D01*
G74*
G01*
X20510Y18550D02*
G75*
G03X20510Y18550I-460J0D01*
G74*
G01*
X2260Y12550D02*
G75*
G03X2260Y12550I-460J0D01*
G74*
G01*
X1260Y18600D02*
G75*
G03X1260Y18600I-460J0D01*
G74*
G01*
X2260Y15700D02*
G75*
G03X2260Y15700I-460J0D01*
G74*
G01*
G54D12*
X20689Y7945D02*
X21910Y7945D01*
X21910Y7945D02*
X21910Y7354D01*
X21910Y7354D02*
X20689Y7354D01*
X20689Y7354D02*
X20689Y7945D01*
G54D11*
X15426Y7000D02*
X15426Y8299D01*
X15426Y8299D02*
X16273Y8299D01*
X16273Y8299D02*
X16273Y7000D01*
X16273Y7000D02*
X15426Y7000D01*
X5607Y12016D02*
X6592Y12016D01*
X6592Y12016D02*
X6592Y11583D01*
X6592Y11583D02*
X5607Y11583D01*
X5607Y11583D02*
X5607Y12016D01*
X24416Y8192D02*
X24416Y7207D01*
X24416Y7207D02*
X23983Y7207D01*
X23983Y7207D02*
X23983Y8192D01*
X23983Y8192D02*
X24416Y8192D01*
X4955Y14370D02*
X6844Y14370D01*
X6844Y14370D02*
X6844Y13229D01*
X6844Y13229D02*
X4955Y13229D01*
X4955Y13229D02*
X4955Y14370D01*
G54D12*
X25345Y3110D02*
X25345Y1889D01*
X25345Y1889D02*
X24754Y1889D01*
X24754Y1889D02*
X24754Y3110D01*
X24754Y3110D02*
X25345Y3110D01*
X27345Y3110D02*
X27345Y1889D01*
X27345Y1889D02*
X26754Y1889D01*
X26754Y1889D02*
X26754Y3110D01*
X26754Y3110D02*
X27345Y3110D01*
X24345Y3110D02*
X24345Y1889D01*
X24345Y1889D02*
X23754Y1889D01*
X23754Y1889D02*
X23754Y3110D01*
X23754Y3110D02*
X24345Y3110D01*
X23345Y3110D02*
X23345Y1889D01*
X23345Y1889D02*
X22754Y1889D01*
X22754Y1889D02*
X22754Y3110D01*
X22754Y3110D02*
X23345Y3110D01*
X22345Y3110D02*
X22345Y1889D01*
X22345Y1889D02*
X21754Y1889D01*
X21754Y1889D02*
X21754Y3110D01*
X21754Y3110D02*
X22345Y3110D01*
X20895Y4210D02*
X20895Y2989D01*
X20895Y2989D02*
X20304Y2989D01*
X20304Y2989D02*
X20304Y4210D01*
X20304Y4210D02*
X20895Y4210D01*
X26345Y3110D02*
X26345Y1889D01*
X26345Y1889D02*
X25754Y1889D01*
X25754Y1889D02*
X25754Y3110D01*
X25754Y3110D02*
X26345Y3110D01*
X19404Y13689D02*
X19404Y14910D01*
X19404Y14910D02*
X19995Y14910D01*
X19995Y14910D02*
X19995Y13689D01*
X19995Y13689D02*
X19404Y13689D01*
X21404Y13689D02*
X21404Y14910D01*
X21404Y14910D02*
X21995Y14910D01*
X21995Y14910D02*
X21995Y13689D01*
X21995Y13689D02*
X21404Y13689D01*
X17295Y5610D02*
X17295Y4389D01*
X17295Y4389D02*
X16704Y4389D01*
X16704Y4389D02*
X16704Y5610D01*
X16704Y5610D02*
X17295Y5610D01*
X20989Y9045D02*
X22210Y9045D01*
X22210Y9045D02*
X22210Y8454D01*
X22210Y8454D02*
X20989Y8454D01*
X20989Y8454D02*
X20989Y9045D01*
X17704Y9689D02*
X17704Y10910D01*
X17704Y10910D02*
X18295Y10910D01*
X18295Y10910D02*
X18295Y9689D01*
X18295Y9689D02*
X17704Y9689D01*
X9610Y17204D02*
X8389Y17204D01*
X8389Y17204D02*
X8389Y17795D01*
X8389Y17795D02*
X9610Y17795D01*
X9610Y17795D02*
X9610Y17204D01*
X3395Y2610D02*
X3395Y1389D01*
X3395Y1389D02*
X2804Y1389D01*
X2804Y1389D02*
X2804Y2610D01*
X2804Y2610D02*
X3395Y2610D01*
X-390Y16531D02*
X-390Y20468D01*
X-390Y20468D02*
X2090Y20468D01*
X2090Y20468D02*
X2090Y16531D01*
X2090Y16531D02*
X-390Y16531D01*
G54D11*
X22792Y16583D02*
X21807Y16583D01*
X21807Y16583D02*
X21807Y17016D01*
X21807Y17016D02*
X22792Y17016D01*
X22792Y17016D02*
X22792Y16583D01*
X23342Y15533D02*
X22357Y15533D01*
X22357Y15533D02*
X22357Y15966D01*
X22357Y15966D02*
X23342Y15966D01*
X23342Y15966D02*
X23342Y15533D01*
X20833Y12507D02*
X20833Y13492D01*
X20833Y13492D02*
X21266Y13492D01*
X21266Y13492D02*
X21266Y12507D01*
X21266Y12507D02*
X20833Y12507D01*
X8292Y6533D02*
X7307Y6533D01*
X7307Y6533D02*
X7307Y6966D01*
X7307Y6966D02*
X8292Y6966D01*
X8292Y6966D02*
X8292Y6533D01*
X6733Y9707D02*
X6733Y10692D01*
X6733Y10692D02*
X7166Y10692D01*
X7166Y10692D02*
X7166Y9707D01*
X7166Y9707D02*
X6733Y9707D01*
X20033Y13907D02*
X20033Y14892D01*
X20033Y14892D02*
X20466Y14892D01*
X20466Y14892D02*
X20466Y13907D01*
X20466Y13907D02*
X20033Y13907D01*
X13557Y4966D02*
X14542Y4966D01*
X14542Y4966D02*
X14542Y4533D01*
X14542Y4533D02*
X13557Y4533D01*
X13557Y4533D02*
X13557Y4966D01*
X15983Y3407D02*
X15983Y4392D01*
X15983Y4392D02*
X16416Y4392D01*
X16416Y4392D02*
X16416Y3407D01*
X16416Y3407D02*
X15983Y3407D01*
X18083Y3407D02*
X18083Y4392D01*
X18083Y4392D02*
X18516Y4392D01*
X18516Y4392D02*
X18516Y3407D01*
X18516Y3407D02*
X18083Y3407D01*
X14857Y9316D02*
X15842Y9316D01*
X15842Y9316D02*
X15842Y8883D01*
X15842Y8883D02*
X14857Y8883D01*
X14857Y8883D02*
X14857Y9316D01*
X16142Y10683D02*
X15157Y10683D01*
X15157Y10683D02*
X15157Y11116D01*
X15157Y11116D02*
X16142Y11116D01*
X16142Y11116D02*
X16142Y10683D01*
X15492Y5883D02*
X14507Y5883D01*
X14507Y5883D02*
X14507Y6316D01*
X14507Y6316D02*
X15492Y6316D01*
X15492Y6316D02*
X15492Y5883D01*
X15966Y6442D02*
X15966Y5457D01*
X15966Y5457D02*
X15533Y5457D01*
X15533Y5457D02*
X15533Y6442D01*
X15533Y6442D02*
X15966Y6442D01*
X15492Y5433D02*
X14507Y5433D01*
X14507Y5433D02*
X14507Y5866D01*
X14507Y5866D02*
X15492Y5866D01*
X15492Y5866D02*
X15492Y5433D01*
X17766Y5592D02*
X17766Y4607D01*
X17766Y4607D02*
X17333Y4607D01*
X17333Y4607D02*
X17333Y5592D01*
X17333Y5592D02*
X17766Y5592D01*
X20707Y8416D02*
X21692Y8416D01*
X21692Y8416D02*
X21692Y7983D01*
X21692Y7983D02*
X20707Y7983D01*
X20707Y7983D02*
X20707Y8416D01*
X18333Y9707D02*
X18333Y10692D01*
X18333Y10692D02*
X18766Y10692D01*
X18766Y10692D02*
X18766Y9707D01*
X18766Y9707D02*
X18333Y9707D01*
X15492Y4983D02*
X14507Y4983D01*
X14507Y4983D02*
X14507Y5416D01*
X14507Y5416D02*
X15492Y5416D01*
X15492Y5416D02*
X15492Y4983D01*
X11757Y17466D02*
X12742Y17466D01*
X12742Y17466D02*
X12742Y17033D01*
X12742Y17033D02*
X11757Y17033D01*
X11757Y17033D02*
X11757Y17466D01*
X10816Y15492D02*
X10816Y14507D01*
X10816Y14507D02*
X10383Y14507D01*
X10383Y14507D02*
X10383Y15492D01*
X10383Y15492D02*
X10816Y15492D01*
X20933Y13907D02*
X20933Y14892D01*
X20933Y14892D02*
X21366Y14892D01*
X21366Y14892D02*
X21366Y13907D01*
X21366Y13907D02*
X20933Y13907D01*
X5916Y18492D02*
X5916Y17507D01*
X5916Y17507D02*
X5483Y17507D01*
X5483Y17507D02*
X5483Y18492D01*
X5483Y18492D02*
X5916Y18492D01*
X21892Y17083D02*
X20907Y17083D01*
X20907Y17083D02*
X20907Y17516D01*
X20907Y17516D02*
X21892Y17516D01*
X21892Y17516D02*
X21892Y17083D01*
X18716Y5542D02*
X18716Y4557D01*
X18716Y4557D02*
X18283Y4557D01*
X18283Y4557D02*
X18283Y5542D01*
X18283Y5542D02*
X18716Y5542D01*
X22833Y16007D02*
X22833Y16992D01*
X22833Y16992D02*
X23266Y16992D01*
X23266Y16992D02*
X23266Y16007D01*
X23266Y16007D02*
X22833Y16007D01*
X15507Y5416D02*
X16492Y5416D01*
X16492Y5416D02*
X16492Y4983D01*
X16492Y4983D02*
X15507Y4983D01*
X15507Y4983D02*
X15507Y5416D01*
X4955Y13170D02*
X6844Y13170D01*
X6844Y13170D02*
X6844Y12029D01*
X6844Y12029D02*
X4955Y12029D01*
X4955Y12029D02*
X4955Y13170D01*
X8944Y12829D02*
X7055Y12829D01*
X7055Y12829D02*
X7055Y13970D01*
X7055Y13970D02*
X8944Y13970D01*
X8944Y13970D02*
X8944Y12829D01*
X4951Y20422D02*
X4951Y20520D01*
X8848Y20422D02*
X8848Y20520D01*
X8848Y20422D02*
X8848Y18532D01*
X4951Y20422D02*
X4951Y18532D01*
X4951Y18532D02*
X8848Y18532D01*
X7606Y11183D02*
X7606Y10416D01*
X7606Y10416D02*
X7193Y10416D01*
X7193Y10416D02*
X7193Y11183D01*
X7193Y11183D02*
X7606Y11183D01*
G54D12*
X21836Y14942D02*
X21836Y15957D01*
X21836Y15957D02*
X22363Y15957D01*
X22363Y15957D02*
X22363Y14942D01*
X22363Y14942D02*
X21836Y14942D01*
X16307Y10669D02*
X16307Y9330D01*
X16307Y9330D02*
X14692Y9330D01*
X14692Y9330D02*
X14692Y10669D01*
X14692Y10669D02*
X16307Y10669D01*
G54D11*
X2605Y14793D02*
X2605Y16506D01*
X2605Y16506D02*
X3794Y16506D01*
X3794Y16506D02*
X3794Y14793D01*
X3794Y14793D02*
X2605Y14793D01*
X4640Y12900D02*
X4640Y14199D01*
X4640Y14199D02*
X3459Y14199D01*
X3459Y14199D02*
X3459Y12900D01*
X3459Y12900D02*
X4640Y12900D01*
X3959Y17049D02*
X3959Y15750D01*
X3959Y15750D02*
X5140Y15750D01*
X5140Y15750D02*
X5140Y17049D01*
X5140Y17049D02*
X3959Y17049D01*
X1107Y2516D02*
X2092Y2516D01*
X2092Y2516D02*
X2092Y2083D01*
X2092Y2083D02*
X1107Y2083D01*
X1107Y2083D02*
X1107Y2516D01*
G54D12*
X20677Y5622D02*
X16622Y5622D01*
X16622Y5622D02*
X16622Y9677D01*
X16622Y9677D02*
X20677Y9677D01*
X20677Y9677D02*
X20677Y5622D01*
G54D11*
X4733Y15243D02*
X3966Y15243D01*
X3966Y15243D02*
X3966Y15656D01*
X3966Y15656D02*
X4733Y15656D01*
X4733Y15656D02*
X4733Y15243D01*
X19843Y3066D02*
X19843Y3833D01*
X19843Y3833D02*
X20256Y3833D01*
X20256Y3833D02*
X20256Y3066D01*
X20256Y3066D02*
X19843Y3066D01*
X6283Y8743D02*
X5516Y8743D01*
X5516Y8743D02*
X5516Y9156D01*
X5516Y9156D02*
X6283Y9156D01*
X6283Y9156D02*
X6283Y8743D01*
X15283Y6343D02*
X14516Y6343D01*
X14516Y6343D02*
X14516Y6756D01*
X14516Y6756D02*
X15283Y6756D01*
X15283Y6756D02*
X15283Y6343D01*
X5516Y9606D02*
X6283Y9606D01*
X6283Y9606D02*
X6283Y9193D01*
X6283Y9193D02*
X5516Y9193D01*
X5516Y9193D02*
X5516Y9606D01*
X14433Y4093D02*
X13666Y4093D01*
X13666Y4093D02*
X13666Y4506D01*
X13666Y4506D02*
X14433Y4506D01*
X14433Y4506D02*
X14433Y4093D01*
X2433Y793D02*
X1666Y793D01*
X1666Y793D02*
X1666Y1206D01*
X1666Y1206D02*
X2433Y1206D01*
X2433Y1206D02*
X2433Y793D01*
X5043Y17716D02*
X5043Y18483D01*
X5043Y18483D02*
X5456Y18483D01*
X5456Y18483D02*
X5456Y17716D01*
X5456Y17716D02*
X5043Y17716D01*
X2433Y243D02*
X1666Y243D01*
X1666Y243D02*
X1666Y656D01*
X1666Y656D02*
X2433Y656D01*
X2433Y656D02*
X2433Y243D01*
X20906Y14883D02*
X20906Y14116D01*
X20906Y14116D02*
X20493Y14116D01*
X20493Y14116D02*
X20493Y14883D01*
X20493Y14883D02*
X20906Y14883D01*
X22993Y11216D02*
X22993Y11983D01*
X22993Y11983D02*
X23406Y11983D01*
X23406Y11983D02*
X23406Y11216D01*
X23406Y11216D02*
X22993Y11216D01*
X20706Y2933D02*
X20706Y2166D01*
X20706Y2166D02*
X20293Y2166D01*
X20293Y2166D02*
X20293Y2933D01*
X20293Y2933D02*
X20706Y2933D01*
X19843Y2166D02*
X19843Y2933D01*
X19843Y2933D02*
X20256Y2933D01*
X20256Y2933D02*
X20256Y2166D01*
X20256Y2166D02*
X19843Y2166D01*
X21343Y2316D02*
X21343Y3083D01*
X21343Y3083D02*
X21756Y3083D01*
X21756Y3083D02*
X21756Y2316D01*
X21756Y2316D02*
X21343Y2316D01*
X22343Y2316D02*
X22343Y3083D01*
X22343Y3083D02*
X22756Y3083D01*
X22756Y3083D02*
X22756Y2316D01*
X22756Y2316D02*
X22343Y2316D01*
X24343Y2316D02*
X24343Y3083D01*
X24343Y3083D02*
X24756Y3083D01*
X24756Y3083D02*
X24756Y2316D01*
X24756Y2316D02*
X24343Y2316D01*
X25343Y2316D02*
X25343Y3083D01*
X25343Y3083D02*
X25756Y3083D01*
X25756Y3083D02*
X25756Y2316D01*
X25756Y2316D02*
X25343Y2316D01*
X26343Y2316D02*
X26343Y3083D01*
X26343Y3083D02*
X26756Y3083D01*
X26756Y3083D02*
X26756Y2316D01*
X26756Y2316D02*
X26343Y2316D01*
X1866Y11056D02*
X2633Y11056D01*
X2633Y11056D02*
X2633Y10643D01*
X2633Y10643D02*
X1866Y10643D01*
X1866Y10643D02*
X1866Y11056D01*
X9805Y17444D02*
X11694Y17444D01*
X11694Y17444D02*
X11694Y15555D01*
X9805Y15555D02*
X9805Y17444D01*
X11694Y15555D02*
X9805Y15555D01*
X21793Y14956D02*
X19706Y14956D01*
X19706Y14956D02*
X19706Y17043D01*
X19706Y17043D02*
X21793Y17043D01*
X21793Y17043D02*
X21793Y14952D01*
G54D12*
X5383Y7042D02*
X5383Y2657D01*
X5383Y7042D02*
X-483Y7042D01*
X5383Y2657D02*
X-483Y2657D01*
X-483Y7042D02*
X-483Y2657D01*
M02*
