M48
INCH,TZ
T10C0.013
T11C0.032
T12C0.040
T13C0.130
T14C0.020
%
T10
X057800Y-52350
X057800Y-57000
X058200Y-52350
X058250Y-57000
X058300Y-58550
X058400Y-42650
X058600Y-57000
X059100Y-51350
X059150Y-47900
X059150Y-57950
X059550Y-49000
X059650Y-40000
X059700Y-42100
X060000Y-57900
X060350Y-49000
X060350Y-51350
X060400Y-53600
X060400Y-55800
X060600Y-58550
X060600Y-59100
X060750Y-42700
X060750Y-43200
X060750Y-43650
X060750Y-44150
X060750Y-44650
X060750Y-45150
X060750Y-45650
X060750Y-46950
X060750Y-47450
X061100Y-46400
X061250Y-42700
X061250Y-51350
X061300Y-55800
X061450Y-47450
X061450Y-57850
X061500Y-43400
X061550Y-57250
X061700Y-53600
X061700Y-55800
X061750Y-42700
X061900Y-43850
X061950Y-47450
X062050Y-50650
X062100Y-42850
X062150Y-42450
X062200Y-53650
X062200Y-54050
X062200Y-54450
X062450Y-47450
X062450Y-47950
X062500Y-53000
X062550Y-43200
X062550Y-51900
X062600Y-42000
X062600Y-56400
X062750Y-39400
X062750Y-39950
X062850Y-42400
X062900Y-41600
X062900Y-42000
X062950Y-47950
X062950Y-48450
X062950Y-48950
X062950Y-49450
X062950Y-50250
X062950Y-51000
X063000Y-40450
X063000Y-40950
X063050Y-44100
X063050Y-44700
X063400Y-43700
X063450Y-51000
X063500Y-55800
X063550Y-44700
X063550Y-54050
X063650Y-42150
X063950Y-43350
X063950Y-51000
X064000Y-52600
X064050Y-48100
X064100Y-53150
X064250Y-41950
X064250Y-56000
X064450Y-51000
X064500Y-43000
X064550Y-52600
X064550Y-53950
X064700Y-44700
X064700Y-47750
X064750Y-40200
X064750Y-54450
X064750Y-55250
X064750Y-55600
X064900Y-41200
X064900Y-45750
X064900Y-46150
X064900Y-46950
X064900Y-48750
X065050Y-54800
X065100Y-54450
X065150Y-43350
X065150Y-51000
X065200Y-40200
X065300Y-47300
X065450Y-53250
X065500Y-52450
X065650Y-49500
X065650Y-50000
X065650Y-50350
X065650Y-51000
X065700Y-41200
X065700Y-48500
X065700Y-49000
X065950Y-48050
X065950Y-53250
X066000Y-42650
X066100Y-56350
X066250Y-43200
X066250Y-50800
X066400Y-52800
X066650Y-42450
X066750Y-43200
X066900Y-39400
X067050Y-57050
X067100Y-46300
X067100Y-46700
X067100Y-47200
X067100Y-47700
X067100Y-48200
X067250Y-42450
X067250Y-43200
X067400Y-57300
X067600Y-41400
X067600Y-43550
X067600Y-44050
X067600Y-44550
X067600Y-45050
X067650Y-43200
X067850Y-47450
X068000Y-43750
X068000Y-45050
X068000Y-46100
X068200Y-44250
X068200Y-47450
X068550Y-41950
X068700Y-45450
X068800Y-45800
X068800Y-46350
X068950Y-44300
X069000Y-53000
X069000Y-53650
X069350Y-43750
X069400Y-42350
X069500Y-46600
X069550Y-49050
X069750Y-43450
X069900Y-47300
X070800Y-42300
X071100Y-51300
X071100Y-52300
X071100Y-54300
X071100Y-55300
X071150Y-40950
X071150Y-41350
X071150Y-41750
X071150Y-42250
X071150Y-42600
X071150Y-43000
X071150Y-43400
X071150Y-43800
X071150Y-44200
X071150Y-44600
X071150Y-45000
X071150Y-45400
X071150Y-45800
X071150Y-46200
X071150Y-46600
X071150Y-47000
X071150Y-47400
X071150Y-47800
X071150Y-48200
X071150Y-48600
X071500Y-53800
X071500Y-54800
X071550Y-52750
X071700Y-49150
X071900Y-40000
X072200Y-55600
X072250Y-54350
X072300Y-53450
X072350Y-40950
X072500Y-46750
X072500Y-47150
X072500Y-47550
X072500Y-47950
X072500Y-48400
X072500Y-48800
X072500Y-49200
X072500Y-49600
X072500Y-50000
X072500Y-50400
X072500Y-50800
X072500Y-51200
X072500Y-54800
X072700Y-52600
X072850Y-51550
X072850Y-55850
X072900Y-40000
X072900Y-47550
X073100Y-52600
X073200Y-51950
X073250Y-51550
X073300Y-47550
X073700Y-47550
X073800Y-51150
X073800Y-55900
X073900Y-50350
X074050Y-53750
X074100Y-47550
X074150Y-55050
X074400Y-53200
X074500Y-47550
X074500Y-54000
X074550Y-54350
X074550Y-55050
X074650Y-53650
X074850Y-46500
X074850Y-46850
X074850Y-47200
X074850Y-47550
X075050Y-43150
X075050Y-43600
X075050Y-44100
X075250Y-50600
X075250Y-53300
X075300Y-55850
X075500Y-42750
X075500Y-55100
X075550Y-49150
X075550Y-49700
X075550Y-51550
X075550Y-51900
X075550Y-52250
X075550Y-52900
X075600Y-50800
X075600Y-53250
X075800Y-48550
X075800Y-50500
X075850Y-55100
X075900Y-42750
X075900Y-43600
X075950Y-53250
X076050Y-50750
X076100Y-52950
X076100Y-54100
X076200Y-44450
X076250Y-48500
X076300Y-42750
X076300Y-50500
X076350Y-46200
X076350Y-46950
X076400Y-53250
X076450Y-50850
X076550Y-48700
X076550Y-55150
X076600Y-44800
X076700Y-42750
X076750Y-43150
X076800Y-50650
X076850Y-48900
X077050Y-44950
X077100Y-42750
X077100Y-49150
X077150Y-47150
X077150Y-47500
X077150Y-48000
X077150Y-50850
X077200Y-45400
X077350Y-48900
X077500Y-41950
X077500Y-42350
X077500Y-42750
X077550Y-43150
X077600Y-44500
X077650Y-50550
X077700Y-45950
X077900Y-41950
X077900Y-52500
X077950Y-42900
X077950Y-44200
X077950Y-51000
X077950Y-51350
X077950Y-51700
X077950Y-52100
X078000Y-52900
X078000Y-53250
X078000Y-54050
X078000Y-55500
X078050Y-42500
X078050Y-46300
X078100Y-49750
X078200Y-45800
X078250Y-46600
X078300Y-41950
X078350Y-42350
X078350Y-53700
X078375Y-50150
X078450Y-57500
X078550Y-46750
X078650Y-45550
X078700Y-41950
X078700Y-42300
X078750Y-50150
X078750Y-50850
X078750Y-52750
X078750Y-53400
X078950Y-55750
X078950Y-56250
X078950Y-56750
X078950Y-57250
X078950Y-57750
X078950Y-58250
X078950Y-58750
X078950Y-59250
X079000Y-49500
X079050Y-48350
X079100Y-41900
X079100Y-45800
X079200Y-54200
X079250Y-50350
X079350Y-46800
X079500Y-41900
X079500Y-47800
X079650Y-45950
X079700Y-54200
X079800Y-51350
X079850Y-43400
X079900Y-41900
X079950Y-51900
X080000Y-56250
X080000Y-57750
X080050Y-45950
X080050Y-47300
X080100Y-44950
X080200Y-54200
X080250Y-50900
X080300Y-41900
X080450Y-44350
X080450Y-44750
X080450Y-45150
X080450Y-45550
X080450Y-45950
X080650Y-48250
X080650Y-51500
X080700Y-41900
X080700Y-54200
X080850Y-44350
X081000Y-51500
X081000Y-56250
X081000Y-57750
X081100Y-41900
X081150Y-47400
X081200Y-54200
X081250Y-44350
X081500Y-41900
X081500Y-42900
X081640Y-48100
X081650Y-44350
X081650Y-49650
X081700Y-54200
X081900Y-41900
X082000Y-56250
X082000Y-57750
X082050Y-44350
X082150Y-52450
X082200Y-54200
X082300Y-41900
X082450Y-44350
X082450Y-51600
X082500Y-48800
X082700Y-41900
X082700Y-54200
X082850Y-44350
X082950Y-42850
X083000Y-56250
X083000Y-57750
X083100Y-41900
X083100Y-42300
X083200Y-54200
X083250Y-44350
X083500Y-42300
X083550Y-41700
X083600Y-44000
X083600Y-44350
X083700Y-53200
X083700Y-53700
X083700Y-54200
X083800Y-56250
X084000Y-57750
X084200Y-44450
X084200Y-53200
X084250Y-42350
X084250Y-43100
X084650Y-53200
X085000Y-57750
X085300Y-42050
X085300Y-43450
X085350Y-53200
X085400Y-47950
X085400Y-52450
X085700Y-50150
X085800Y-41000
X085850Y-53200
X086200Y-41000
X086200Y-42400
X086200Y-43100
X086250Y-44450
X086350Y-53200
X086500Y-54000
X086500Y-55900
X086550Y-57650
X086650Y-53200
T11
X067400Y-40000
X068400Y-40000
X069400Y-40000
X070400Y-40000
X071000Y-59000
X071400Y-40000
X072000Y-59000
X072400Y-40000
X073000Y-59000
X073400Y-40000
X074000Y-59000
X074400Y-40000
X075000Y-59000
X075400Y-40000
X076000Y-59000
X076400Y-40000
X077000Y-59000
X078000Y-40000
X078000Y-59000
X079000Y-40000
X080000Y-40000
X080000Y-59000
X081000Y-40000
X081000Y-59000
X082000Y-40000
X082000Y-59000
X083000Y-40000
X083000Y-59000
X084000Y-40000
X084000Y-59000
X085000Y-40000
X085000Y-59000
T12
X058750Y-43850
X058750Y-44850
X058750Y-46000
X058750Y-47000
T13
X061450Y-41000
X064200Y-58200
X085000Y-46000
X085000Y-55000
T14
X057600Y-48713
X057600Y-49106
X057600Y-49500
X057600Y-49894
X057600Y-50287
X071463Y-39100
X071463Y-59900
X071856Y-39100
X071856Y-59900
X072250Y-39100
X072250Y-59900
X072644Y-39100
X072644Y-59900
X073037Y-39100
X073037Y-59900
X086900Y-48713
X086900Y-49106
X086900Y-49500
X086900Y-49894
X086900Y-50287
M30

