G04 (created by PCBNEW (2013-07-07 BZR 4022)-stable) date 11/20/2016 10:50:39 PM*
%MOIN*%
G04 Gerber Fmt 3.4, Leading zero omitted, Abs format*
%FSLAX34Y34*%
G01*
G70*
G90*
G04 APERTURE LIST*
%ADD10C,0.00590551*%
%ADD11R,0.096063X0.096063*%
%ADD12C,0.0807087*%
%ADD13R,0.305512X0.0629921*%
%ADD14R,0.0350394X0.0305118*%
%ADD15R,0.034252X0.109843*%
%ADD16R,0.023622X0.0275591*%
%ADD17R,0.0472441X0.0354331*%
%ADD18R,0.0354331X0.0472441*%
%ADD19R,0.0669291X0.0318898*%
%ADD20R,0.0413386X0.0318898*%
%ADD21R,0.0393701X0.0610236*%
%ADD22R,0.0185039X0.0393701*%
%ADD23R,0.0570866X0.0177165*%
%ADD24R,0.023622X0.0610236*%
%ADD25R,0.0244094X0.0480315*%
%ADD26R,0.019685X0.015748*%
%ADD27R,0.023622X0.0314961*%
%ADD28R,0.0314961X0.023622*%
%ADD29R,0.0393701X0.0393701*%
%ADD30R,0.0137795X0.0393701*%
%ADD31R,0.0590551X0.0944882*%
%ADD32R,0.0511811X0.0610236*%
%ADD33R,0.015748X0.0531496*%
%ADD34R,0.0826772X0.0629921*%
%ADD35R,0.0708661X0.0748031*%
%ADD36R,0.0748031X0.0748031*%
%ADD37R,0.0334646X0.0246063*%
%ADD38R,0.0551181X0.0472441*%
%ADD39R,0.0708661X0.0708661*%
%ADD40R,0.00905512X0.0314961*%
%ADD41R,0.0314961X0.00905512*%
%ADD42R,0.023622X0.0216535*%
%ADD43R,0.0216535X0.023622*%
%ADD44R,0.0259843X0.0259843*%
%ADD45R,0.0314961X0.0110236*%
%ADD46R,0.0110236X0.0314961*%
%ADD47R,0.0354331X0.0354331*%
%ADD48R,0.00984252X0.0354331*%
%ADD49R,0.0354331X0.00984252*%
%ADD50R,0.0275591X0.0787402*%
%ADD51R,0.0787402X0.0275591*%
G04 APERTURE END LIST*
G54D10*
G54D11*
X26302Y17847D03*
X28397Y17847D03*
X28397Y15752D03*
G54D12*
X27350Y16800D03*
G54D13*
X27350Y15587D03*
X27350Y18012D03*
G54D11*
X26302Y15752D03*
G54D10*
G36*
X7204Y14084D02*
X6983Y14300D01*
X6983Y15399D01*
X7204Y15615D01*
X7204Y14084D01*
X7204Y14084D01*
G37*
G36*
X8495Y15615D02*
X8716Y15399D01*
X8716Y14300D01*
X8495Y14084D01*
X8495Y15615D01*
X8495Y15615D01*
G37*
G54D14*
X7379Y15463D03*
X7379Y14236D03*
X8320Y14236D03*
X8320Y15463D03*
G54D10*
G36*
X7035Y15365D02*
X7267Y15597D01*
X7553Y15310D01*
X7322Y15079D01*
X7035Y15365D01*
X7035Y15365D01*
G37*
G54D15*
X7155Y14850D03*
G54D10*
G36*
X7267Y14102D02*
X7035Y14334D01*
X7322Y14620D01*
X7553Y14389D01*
X7267Y14102D01*
X7267Y14102D01*
G37*
G36*
X8377Y15079D02*
X8146Y15310D01*
X8432Y15597D01*
X8664Y15365D01*
X8377Y15079D01*
X8377Y15079D01*
G37*
G36*
X8146Y14389D02*
X8377Y14620D01*
X8664Y14334D01*
X8432Y14102D01*
X8146Y14389D01*
X8146Y14389D01*
G37*
G54D15*
X8544Y14850D03*
G54D16*
X1364Y450D03*
X735Y450D03*
X1364Y1000D03*
X735Y1000D03*
G54D17*
X6300Y17974D03*
X6300Y17225D03*
G54D18*
X8525Y18150D03*
X9274Y18150D03*
G54D19*
X18245Y15479D03*
G54D20*
X18373Y15950D03*
X18373Y16420D03*
X17526Y16420D03*
X17526Y15950D03*
X17526Y15479D03*
G54D21*
X17761Y3800D03*
X16738Y3800D03*
G54D22*
X5594Y15845D03*
X5850Y15845D03*
X6105Y15845D03*
X6105Y16554D03*
X5850Y16554D03*
X5594Y16554D03*
G54D23*
X18738Y12283D03*
X18738Y12027D03*
X18738Y11772D03*
X18738Y11516D03*
X21061Y11516D03*
X21061Y11772D03*
X21061Y12027D03*
X21061Y12283D03*
G54D24*
X24200Y10762D03*
X23700Y10762D03*
X23200Y10762D03*
X22700Y10762D03*
X22700Y8637D03*
X23200Y8637D03*
X23700Y8637D03*
X24200Y8637D03*
G54D25*
X6474Y11015D03*
X6100Y11015D03*
X5725Y11015D03*
X5725Y9984D03*
X6100Y9984D03*
X6474Y9984D03*
X6975Y16884D03*
X7350Y16884D03*
X7724Y16884D03*
X7724Y17915D03*
X7350Y17915D03*
X6975Y17915D03*
G54D26*
X1593Y10875D03*
X1593Y11624D03*
X806Y11250D03*
G54D27*
X19100Y15455D03*
X19100Y14948D03*
X25000Y15794D03*
X25000Y16301D03*
X23550Y15794D03*
X23550Y16301D03*
G54D28*
X19455Y15950D03*
X18948Y15950D03*
G54D27*
X25450Y16805D03*
X25450Y16298D03*
G54D28*
X24505Y15750D03*
X23998Y15750D03*
G54D29*
X20985Y7650D03*
X21614Y7650D03*
G54D30*
X15594Y7295D03*
X15850Y7295D03*
X16105Y7295D03*
X16105Y8004D03*
X15850Y8004D03*
X15594Y8004D03*
G54D28*
X5844Y11800D03*
X6351Y11800D03*
G54D27*
X24200Y7955D03*
X24200Y7448D03*
G54D31*
X5348Y13800D03*
X6451Y13800D03*
G54D29*
X25050Y2814D03*
X25050Y2185D03*
X27050Y2814D03*
X27050Y2185D03*
X24050Y2814D03*
X24050Y2185D03*
X23050Y2814D03*
X23050Y2185D03*
X22050Y2814D03*
X22050Y2185D03*
X20600Y3914D03*
X20600Y3285D03*
X26050Y2814D03*
X26050Y2185D03*
X19700Y13985D03*
X19700Y14614D03*
X21700Y13985D03*
X21700Y14614D03*
X17000Y5314D03*
X17000Y4685D03*
X21285Y8750D03*
X21914Y8750D03*
X18000Y9985D03*
X18000Y10614D03*
X9314Y17500D03*
X8685Y17500D03*
X3100Y2314D03*
X3100Y1685D03*
G54D32*
X-35Y16935D03*
X-35Y20064D03*
X1735Y16935D03*
X1735Y20064D03*
G54D28*
X22555Y16800D03*
X22048Y16800D03*
X23105Y15750D03*
X22598Y15750D03*
G54D27*
X21050Y12744D03*
X21050Y13251D03*
G54D28*
X8055Y6750D03*
X7548Y6750D03*
G54D27*
X6950Y9944D03*
X6950Y10451D03*
X20250Y14144D03*
X20250Y14651D03*
G54D28*
X13794Y4750D03*
X14301Y4750D03*
G54D27*
X16200Y3644D03*
X16200Y4151D03*
X18300Y3644D03*
X18300Y4151D03*
G54D28*
X15094Y9100D03*
X15601Y9100D03*
X15905Y10900D03*
X15398Y10900D03*
X15255Y6100D03*
X14748Y6100D03*
G54D27*
X15750Y6205D03*
X15750Y5698D03*
G54D28*
X15255Y5650D03*
X14748Y5650D03*
G54D27*
X17550Y5355D03*
X17550Y4848D03*
G54D28*
X20944Y8200D03*
X21451Y8200D03*
G54D27*
X18550Y9944D03*
X18550Y10451D03*
G54D28*
X15255Y5200D03*
X14748Y5200D03*
X11994Y17250D03*
X12501Y17250D03*
G54D27*
X10600Y15255D03*
X10600Y14748D03*
X21150Y14144D03*
X21150Y14651D03*
X5700Y18255D03*
X5700Y17748D03*
G54D28*
X21655Y17300D03*
X21148Y17300D03*
G54D27*
X18500Y5305D03*
X18500Y4798D03*
X23050Y16244D03*
X23050Y16751D03*
G54D28*
X15744Y5200D03*
X16251Y5200D03*
G54D31*
X5348Y12600D03*
X6451Y12600D03*
X8551Y13400D03*
X7448Y13400D03*
G54D33*
X7411Y18896D03*
X7155Y18896D03*
X6900Y18896D03*
X6644Y18896D03*
X6388Y18896D03*
G54D34*
X8120Y18946D03*
G54D35*
X8396Y19950D03*
G54D36*
X7372Y19950D03*
X6427Y19950D03*
G54D35*
X5403Y19950D03*
G54D34*
X5679Y18946D03*
G54D37*
X22100Y15164D03*
X22100Y15735D03*
G54D38*
X15066Y10334D03*
X15066Y9665D03*
X15933Y9665D03*
X15933Y10334D03*
G54D25*
X2825Y15134D03*
X3200Y15134D03*
X3574Y15134D03*
X3574Y16165D03*
X3200Y16165D03*
X2825Y16165D03*
G54D26*
X4443Y13175D03*
X4443Y13924D03*
X3656Y13550D03*
X4156Y16774D03*
X4156Y16025D03*
X4943Y16400D03*
G54D28*
X1344Y2300D03*
X1851Y2300D03*
G54D39*
X18236Y8063D03*
X18236Y7236D03*
X19063Y7236D03*
G54D40*
X18551Y5888D03*
X18354Y5888D03*
X18157Y5888D03*
X17961Y5888D03*
X17764Y5888D03*
X17567Y5888D03*
X17370Y5888D03*
X17173Y5888D03*
X18748Y5888D03*
X18945Y5888D03*
X19142Y5888D03*
X19338Y5888D03*
X19535Y5888D03*
X19732Y5888D03*
X19929Y5888D03*
X20126Y5888D03*
G54D41*
X20411Y6173D03*
X20411Y6370D03*
X20411Y6567D03*
X20411Y6764D03*
X20411Y6961D03*
X20411Y7157D03*
X20411Y7354D03*
X20411Y7551D03*
X20411Y7748D03*
X20411Y7945D03*
X20411Y8142D03*
X20411Y8338D03*
X20411Y8535D03*
X20411Y8732D03*
X20411Y8929D03*
X20411Y9126D03*
X16888Y6173D03*
X16888Y6370D03*
X16888Y6567D03*
X16888Y6764D03*
X16888Y6961D03*
X16888Y7157D03*
X16888Y7354D03*
X16888Y7551D03*
X16888Y7748D03*
X16888Y7945D03*
X16888Y8142D03*
X16888Y8338D03*
X16888Y8535D03*
X16888Y8732D03*
X16888Y8929D03*
X16888Y9126D03*
G54D40*
X17173Y9411D03*
X17370Y9411D03*
X17567Y9411D03*
X17764Y9411D03*
X17961Y9411D03*
X18157Y9411D03*
X18354Y9411D03*
X18551Y9411D03*
X18748Y9411D03*
X18945Y9411D03*
X19142Y9411D03*
X19338Y9411D03*
X19535Y9411D03*
X19732Y9411D03*
X19929Y9411D03*
X20126Y9411D03*
G54D39*
X19063Y8063D03*
G54D42*
X4517Y15450D03*
X4182Y15450D03*
G54D43*
X20050Y3282D03*
X20050Y3617D03*
G54D42*
X6067Y8950D03*
X5732Y8950D03*
X15067Y6550D03*
X14732Y6550D03*
X5732Y9400D03*
X6067Y9400D03*
X14217Y4300D03*
X13882Y4300D03*
X2217Y1000D03*
X1882Y1000D03*
G54D43*
X5250Y17932D03*
X5250Y18267D03*
G54D42*
X2217Y450D03*
X1882Y450D03*
G54D43*
X20700Y14667D03*
X20700Y14332D03*
X23200Y11432D03*
X23200Y11767D03*
X20500Y2717D03*
X20500Y2382D03*
X20050Y2382D03*
X20050Y2717D03*
X21550Y2532D03*
X21550Y2867D03*
X22550Y2532D03*
X22550Y2867D03*
X24550Y2532D03*
X24550Y2867D03*
X25550Y2532D03*
X25550Y2867D03*
X26550Y2532D03*
X26550Y2867D03*
G54D42*
X2082Y10850D03*
X2417Y10850D03*
G54D44*
X10543Y16706D03*
X10956Y16706D03*
X10543Y16293D03*
G54D45*
X11458Y16116D03*
X11458Y16372D03*
X11458Y16627D03*
X11458Y16883D03*
G54D46*
X11133Y17208D03*
X10877Y17208D03*
X10622Y17208D03*
X10366Y17208D03*
G54D45*
X10041Y16883D03*
X10041Y16627D03*
X10041Y16372D03*
X10041Y16116D03*
G54D46*
X10366Y15791D03*
X10622Y15791D03*
X10877Y15791D03*
X11133Y15791D03*
G54D44*
X10956Y16293D03*
G54D47*
X20962Y16212D03*
X20537Y16212D03*
X20537Y15787D03*
G54D48*
X20366Y15251D03*
X20622Y15251D03*
X20877Y15251D03*
X21133Y15251D03*
X21133Y16748D03*
X20877Y16748D03*
X20622Y16748D03*
X20366Y16748D03*
G54D49*
X21498Y15616D03*
X21498Y15872D03*
X21498Y16127D03*
X21498Y16383D03*
X20001Y16383D03*
X20001Y16127D03*
X20001Y15872D03*
X20001Y15616D03*
G54D47*
X20962Y15787D03*
G54D50*
X-148Y3149D03*
X284Y3149D03*
X717Y3149D03*
X1150Y3149D03*
X1583Y3149D03*
X2016Y3149D03*
X2450Y3149D03*
X2883Y3149D03*
X3316Y3149D03*
X3749Y3149D03*
X4182Y3149D03*
G54D51*
X4890Y3767D03*
X4890Y4200D03*
X4890Y4633D03*
X4890Y5066D03*
X4890Y5499D03*
X4890Y5932D03*
G54D50*
X4182Y6550D03*
X3749Y6550D03*
X3316Y6550D03*
X2883Y6550D03*
X2450Y6550D03*
X2016Y6550D03*
X1583Y6550D03*
X1150Y6550D03*
X717Y6550D03*
X284Y6550D03*
X-148Y6550D03*
M02*
