M48
;DRILL file {Pcbnew (2013-07-07 BZR 4022)-stable} date 10/27/2016 1:56:10 AM
;FORMAT={-:-/ absolute / inch / decimal}
FMAT,2
INCH,TZ
T1C0.020
%
G90
G05
M72
T1
X5.76Y-4.8713
X5.76Y-4.9106
X5.76Y-4.95
X5.76Y-4.9894
X5.76Y-5.0287
X7.1463Y-3.91
X7.1463Y-5.99
X7.1856Y-3.91
X7.1856Y-5.99
X7.225Y-3.91
X7.225Y-5.99
X7.2644Y-3.91
X7.2644Y-5.99
X7.3037Y-3.91
X7.3037Y-5.99
X8.69Y-4.8713
X8.69Y-4.9106
X8.69Y-4.95
X8.69Y-4.9894
X8.69Y-5.0287
T0
M30
