G04 (created by PCBNEW (2013-07-07 BZR 4022)-stable) date 11/19/2016 2:15:03 AM*
%MOIN*%
G04 Gerber Fmt 3.4, Leading zero omitted, Abs format*
%FSLAX34Y34*%
G01*
G70*
G90*
G04 APERTURE LIST*
%ADD10C,0.00590551*%
G04 APERTURE END LIST*
G54D10*
G36*
X57979Y-53433D02*
X57623Y-53433D01*
X57623Y-52565D01*
X57979Y-52565D01*
X57979Y-53433D01*
X57979Y-53433D01*
G37*
G36*
X57979Y-56834D02*
X57623Y-56834D01*
X57623Y-55966D01*
X57979Y-55966D01*
X57979Y-56834D01*
X57979Y-56834D01*
G37*
G36*
X58210Y-39830D02*
X57617Y-39830D01*
X57617Y-39139D01*
X58210Y-39139D01*
X58210Y-39830D01*
X58210Y-39830D01*
G37*
G36*
X58210Y-42960D02*
X57617Y-42960D01*
X57617Y-42269D01*
X58210Y-42269D01*
X58210Y-42960D01*
X58210Y-42960D01*
G37*
G36*
X58344Y-59512D02*
X58342Y-59598D01*
X58325Y-59676D01*
X58294Y-59744D01*
X58248Y-59809D01*
X58194Y-59860D01*
X58127Y-59903D01*
X58057Y-59930D01*
X57978Y-59944D01*
X57904Y-59943D01*
X57826Y-59925D01*
X57758Y-59896D01*
X57692Y-59850D01*
X57640Y-59797D01*
X57597Y-59729D01*
X57570Y-59660D01*
X57555Y-59581D01*
X57556Y-59507D01*
X57573Y-59428D01*
X57602Y-59360D01*
X57647Y-59294D01*
X57700Y-59242D01*
X57768Y-59198D01*
X57836Y-59170D01*
X57915Y-59155D01*
X57989Y-59156D01*
X58068Y-59172D01*
X58136Y-59200D01*
X58203Y-59246D01*
X58255Y-59298D01*
X58300Y-59365D01*
X58328Y-59433D01*
X58344Y-59512D01*
X58344Y-59512D01*
G37*
G36*
X58412Y-53433D02*
X58056Y-53433D01*
X58056Y-52565D01*
X58412Y-52565D01*
X58412Y-53433D01*
X58412Y-53433D01*
G37*
G36*
X58412Y-56834D02*
X58056Y-56834D01*
X58056Y-55966D01*
X58412Y-55966D01*
X58412Y-56834D01*
X58412Y-56834D01*
G37*
G36*
X58845Y-53433D02*
X58489Y-53433D01*
X58489Y-52565D01*
X58845Y-52565D01*
X58845Y-53433D01*
X58845Y-53433D01*
G37*
G36*
X58845Y-56834D02*
X58489Y-56834D01*
X58489Y-55966D01*
X58845Y-55966D01*
X58845Y-56834D01*
X58845Y-56834D01*
G37*
G36*
X58902Y-58747D02*
X58506Y-58747D01*
X58506Y-58352D01*
X58902Y-58352D01*
X58902Y-58747D01*
X58902Y-58747D01*
G37*
G36*
X58902Y-59297D02*
X58506Y-59297D01*
X58506Y-58902D01*
X58902Y-58902D01*
X58902Y-59297D01*
X58902Y-59297D01*
G37*
G36*
X58934Y-48458D02*
X58578Y-48458D01*
X58578Y-48141D01*
X58934Y-48141D01*
X58934Y-48458D01*
X58934Y-48458D01*
G37*
G36*
X59128Y-43814D02*
X59127Y-43896D01*
X59110Y-43971D01*
X59081Y-44036D01*
X59037Y-44099D01*
X58985Y-44148D01*
X58920Y-44190D01*
X58853Y-44216D01*
X58777Y-44229D01*
X58706Y-44228D01*
X58630Y-44211D01*
X58565Y-44182D01*
X58502Y-44138D01*
X58452Y-44087D01*
X58410Y-44022D01*
X58384Y-43956D01*
X58370Y-43880D01*
X58371Y-43809D01*
X58387Y-43733D01*
X58415Y-43668D01*
X58459Y-43604D01*
X58510Y-43554D01*
X58575Y-43511D01*
X58640Y-43485D01*
X58717Y-43470D01*
X58787Y-43471D01*
X58864Y-43486D01*
X58929Y-43514D01*
X58994Y-43557D01*
X59043Y-43607D01*
X59086Y-43673D01*
X59113Y-43738D01*
X59128Y-43814D01*
X59128Y-43814D01*
G37*
G36*
X59128Y-44814D02*
X59127Y-44896D01*
X59110Y-44971D01*
X59081Y-45036D01*
X59037Y-45099D01*
X58985Y-45148D01*
X58920Y-45190D01*
X58853Y-45216D01*
X58777Y-45229D01*
X58706Y-45228D01*
X58630Y-45211D01*
X58565Y-45182D01*
X58502Y-45138D01*
X58452Y-45087D01*
X58410Y-45022D01*
X58384Y-44956D01*
X58370Y-44880D01*
X58371Y-44809D01*
X58387Y-44733D01*
X58415Y-44668D01*
X58459Y-44604D01*
X58510Y-44554D01*
X58575Y-44511D01*
X58640Y-44485D01*
X58717Y-44470D01*
X58787Y-44471D01*
X58864Y-44486D01*
X58929Y-44514D01*
X58994Y-44557D01*
X59043Y-44607D01*
X59086Y-44673D01*
X59113Y-44738D01*
X59128Y-44814D01*
X59128Y-44814D01*
G37*
G36*
X59128Y-45964D02*
X59127Y-46046D01*
X59110Y-46121D01*
X59081Y-46186D01*
X59037Y-46249D01*
X58985Y-46298D01*
X58920Y-46340D01*
X58853Y-46366D01*
X58777Y-46379D01*
X58706Y-46378D01*
X58630Y-46361D01*
X58565Y-46332D01*
X58502Y-46288D01*
X58452Y-46237D01*
X58410Y-46172D01*
X58384Y-46106D01*
X58370Y-46030D01*
X58371Y-45959D01*
X58387Y-45883D01*
X58415Y-45818D01*
X58459Y-45754D01*
X58510Y-45704D01*
X58575Y-45661D01*
X58640Y-45635D01*
X58717Y-45620D01*
X58787Y-45621D01*
X58864Y-45636D01*
X58929Y-45664D01*
X58994Y-45707D01*
X59043Y-45757D01*
X59086Y-45823D01*
X59113Y-45888D01*
X59128Y-45964D01*
X59128Y-45964D01*
G37*
G36*
X59128Y-46964D02*
X59127Y-47046D01*
X59110Y-47121D01*
X59081Y-47186D01*
X59037Y-47249D01*
X58985Y-47298D01*
X58920Y-47340D01*
X58853Y-47366D01*
X58777Y-47379D01*
X58706Y-47378D01*
X58630Y-47361D01*
X58565Y-47332D01*
X58502Y-47288D01*
X58452Y-47237D01*
X58410Y-47172D01*
X58384Y-47106D01*
X58370Y-47030D01*
X58371Y-46959D01*
X58387Y-46883D01*
X58415Y-46818D01*
X58459Y-46754D01*
X58510Y-46704D01*
X58575Y-46661D01*
X58640Y-46635D01*
X58717Y-46620D01*
X58787Y-46621D01*
X58864Y-46636D01*
X58929Y-46664D01*
X58994Y-46707D01*
X59043Y-46757D01*
X59086Y-46823D01*
X59113Y-46888D01*
X59128Y-46964D01*
X59128Y-46964D01*
G37*
G36*
X59278Y-53433D02*
X58922Y-53433D01*
X58922Y-52565D01*
X59278Y-52565D01*
X59278Y-53433D01*
X59278Y-53433D01*
G37*
G36*
X59278Y-56834D02*
X58922Y-56834D01*
X58922Y-55966D01*
X59278Y-55966D01*
X59278Y-56834D01*
X59278Y-56834D01*
G37*
G36*
X59491Y-57408D02*
X59096Y-57408D01*
X59096Y-57091D01*
X59491Y-57091D01*
X59491Y-57408D01*
X59491Y-57408D01*
G37*
G36*
X59493Y-58747D02*
X59097Y-58747D01*
X59097Y-58352D01*
X59493Y-58352D01*
X59493Y-58747D01*
X59493Y-58747D01*
G37*
G36*
X59493Y-59297D02*
X59097Y-59297D01*
X59097Y-58902D01*
X59493Y-58902D01*
X59493Y-59297D01*
X59493Y-59297D01*
G37*
G36*
X59712Y-53433D02*
X59355Y-53433D01*
X59355Y-52565D01*
X59712Y-52565D01*
X59712Y-53433D01*
X59712Y-53433D01*
G37*
G36*
X59712Y-56834D02*
X59355Y-56834D01*
X59355Y-55966D01*
X59712Y-55966D01*
X59712Y-56834D01*
X59712Y-56834D01*
G37*
G36*
X59721Y-48084D02*
X59365Y-48084D01*
X59365Y-47767D01*
X59721Y-47767D01*
X59721Y-48084D01*
X59721Y-48084D01*
G37*
G36*
X59721Y-48832D02*
X59365Y-48832D01*
X59365Y-48515D01*
X59721Y-48515D01*
X59721Y-48832D01*
X59721Y-48832D01*
G37*
G36*
X59982Y-39830D02*
X59389Y-39830D01*
X59389Y-39139D01*
X59982Y-39139D01*
X59982Y-39830D01*
X59982Y-39830D01*
G37*
G36*
X59982Y-42960D02*
X59389Y-42960D01*
X59389Y-42269D01*
X59982Y-42269D01*
X59982Y-42960D01*
X59982Y-42960D01*
G37*
G36*
X59999Y-57408D02*
X59604Y-57408D01*
X59604Y-57091D01*
X59999Y-57091D01*
X59999Y-57408D01*
X59999Y-57408D01*
G37*
G36*
X60145Y-53433D02*
X59788Y-53433D01*
X59788Y-52565D01*
X60145Y-52565D01*
X60145Y-53433D01*
X60145Y-53433D01*
G37*
G36*
X60145Y-56834D02*
X59788Y-56834D01*
X59788Y-55966D01*
X60145Y-55966D01*
X60145Y-56834D01*
X60145Y-56834D01*
G37*
G36*
X60325Y-58698D02*
X60014Y-58698D01*
X60006Y-58698D01*
X59993Y-58698D01*
X59985Y-58698D01*
X59674Y-58698D01*
X59674Y-58401D01*
X59985Y-58401D01*
X59993Y-58401D01*
X60006Y-58401D01*
X60014Y-58401D01*
X60325Y-58401D01*
X60325Y-58698D01*
X60325Y-58698D01*
G37*
G36*
X60325Y-59248D02*
X60014Y-59248D01*
X60006Y-59248D01*
X59993Y-59248D01*
X59985Y-59248D01*
X59674Y-59248D01*
X59674Y-58951D01*
X59985Y-58951D01*
X59993Y-58951D01*
X60006Y-58951D01*
X60014Y-58951D01*
X60325Y-58951D01*
X60325Y-59248D01*
X60325Y-59248D01*
G37*
G36*
X60525Y-48848D02*
X60214Y-48848D01*
X60206Y-48848D01*
X60193Y-48848D01*
X60185Y-48848D01*
X59874Y-48848D01*
X59874Y-48551D01*
X60185Y-48551D01*
X60193Y-48551D01*
X60206Y-48551D01*
X60214Y-48551D01*
X60525Y-48551D01*
X60525Y-48848D01*
X60525Y-48848D01*
G37*
G36*
X60578Y-53433D02*
X60221Y-53433D01*
X60221Y-52565D01*
X60578Y-52565D01*
X60578Y-53433D01*
X60578Y-53433D01*
G37*
G36*
X60578Y-56834D02*
X60221Y-56834D01*
X60221Y-55966D01*
X60578Y-55966D01*
X60578Y-56834D01*
X60578Y-56834D01*
G37*
G36*
X60938Y-43664D02*
X60613Y-43664D01*
X60613Y-43103D01*
X60938Y-43103D01*
X60938Y-43664D01*
X60938Y-43664D01*
G37*
G36*
X60938Y-44696D02*
X60613Y-44696D01*
X60613Y-44135D01*
X60938Y-44135D01*
X60938Y-44696D01*
X60938Y-44696D01*
G37*
G36*
X61011Y-53433D02*
X60654Y-53433D01*
X60654Y-52565D01*
X61011Y-52565D01*
X61011Y-53433D01*
X61011Y-53433D01*
G37*
G36*
X61011Y-56834D02*
X60654Y-56834D01*
X60654Y-55966D01*
X61011Y-55966D01*
X61011Y-56834D01*
X61011Y-56834D01*
G37*
G36*
X61287Y-57472D02*
X60812Y-57472D01*
X60812Y-56997D01*
X61287Y-56997D01*
X61287Y-57472D01*
X61287Y-57472D01*
G37*
G36*
X61287Y-58102D02*
X60812Y-58102D01*
X60812Y-57627D01*
X61287Y-57627D01*
X61287Y-58102D01*
X61287Y-58102D01*
G37*
G36*
X61312Y-43664D02*
X60987Y-43664D01*
X60987Y-43103D01*
X61312Y-43103D01*
X61312Y-43664D01*
X61312Y-43664D01*
G37*
G36*
X61312Y-44696D02*
X60987Y-44696D01*
X60987Y-44135D01*
X61312Y-44135D01*
X61312Y-44696D01*
X61312Y-44696D01*
G37*
G36*
X61444Y-53433D02*
X61087Y-53433D01*
X61087Y-52565D01*
X61444Y-52565D01*
X61444Y-53433D01*
X61444Y-53433D01*
G37*
G36*
X61444Y-56834D02*
X61087Y-56834D01*
X61087Y-55966D01*
X61444Y-55966D01*
X61444Y-56834D01*
X61444Y-56834D01*
G37*
G36*
X61686Y-43664D02*
X61361Y-43664D01*
X61361Y-43103D01*
X61686Y-43103D01*
X61686Y-43664D01*
X61686Y-43664D01*
G37*
G36*
X61686Y-44696D02*
X61361Y-44696D01*
X61361Y-44135D01*
X61686Y-44135D01*
X61686Y-44696D01*
X61686Y-44696D01*
G37*
G36*
X61784Y-46158D02*
X61428Y-46158D01*
X61428Y-45841D01*
X61784Y-45841D01*
X61784Y-46158D01*
X61784Y-46158D01*
G37*
G36*
X61877Y-53433D02*
X61521Y-53433D01*
X61521Y-52565D01*
X61877Y-52565D01*
X61877Y-53433D01*
X61877Y-53433D01*
G37*
G36*
X61877Y-56834D02*
X61521Y-56834D01*
X61521Y-55966D01*
X61877Y-55966D01*
X61877Y-56834D01*
X61877Y-56834D01*
G37*
G36*
X62284Y-42934D02*
X61928Y-42934D01*
X61928Y-42617D01*
X62284Y-42617D01*
X62284Y-42934D01*
X62284Y-42934D01*
G37*
G36*
X62284Y-43682D02*
X61928Y-43682D01*
X61928Y-43365D01*
X62284Y-43365D01*
X62284Y-43682D01*
X62284Y-43682D01*
G37*
G36*
X62310Y-53433D02*
X61954Y-53433D01*
X61954Y-52565D01*
X62310Y-52565D01*
X62310Y-53433D01*
X62310Y-53433D01*
G37*
G36*
X62310Y-56834D02*
X61954Y-56834D01*
X61954Y-55966D01*
X62310Y-55966D01*
X62310Y-56834D01*
X62310Y-56834D01*
G37*
G36*
X62571Y-45784D02*
X62215Y-45784D01*
X62215Y-45467D01*
X62571Y-45467D01*
X62571Y-45784D01*
X62571Y-45784D01*
G37*
G36*
X62571Y-46532D02*
X62215Y-46532D01*
X62215Y-46215D01*
X62571Y-46215D01*
X62571Y-46532D01*
X62571Y-46532D01*
G37*
G36*
X62612Y-40887D02*
X62608Y-41144D01*
X62557Y-41369D01*
X62466Y-41575D01*
X62333Y-41764D01*
X62170Y-41919D01*
X61975Y-42043D01*
X61765Y-42124D01*
X61538Y-42164D01*
X61313Y-42159D01*
X61087Y-42110D01*
X60881Y-42020D01*
X60691Y-41888D01*
X60535Y-41726D01*
X60410Y-41532D01*
X60327Y-41323D01*
X60286Y-41096D01*
X60289Y-40871D01*
X60337Y-40645D01*
X60425Y-40438D01*
X60556Y-40247D01*
X60716Y-40090D01*
X60910Y-39964D01*
X61118Y-39880D01*
X61345Y-39836D01*
X61570Y-39838D01*
X61797Y-39884D01*
X62003Y-39971D01*
X62195Y-40101D01*
X62353Y-40260D01*
X62482Y-40453D01*
X62567Y-40660D01*
X62612Y-40887D01*
X62612Y-40887D01*
G37*
G36*
X62625Y-44248D02*
X62314Y-44248D01*
X62306Y-44248D01*
X62293Y-44248D01*
X62285Y-44248D01*
X61974Y-44248D01*
X61974Y-43951D01*
X62285Y-43951D01*
X62293Y-43951D01*
X62306Y-43951D01*
X62314Y-43951D01*
X62625Y-43951D01*
X62625Y-44248D01*
X62625Y-44248D01*
G37*
G36*
X63071Y-43308D02*
X62715Y-43308D01*
X62715Y-42991D01*
X63071Y-42991D01*
X63071Y-43308D01*
X63071Y-43308D01*
G37*
G36*
X63275Y-53795D02*
X62406Y-53795D01*
X62406Y-53439D01*
X63275Y-53439D01*
X63275Y-53795D01*
X63275Y-53795D01*
G37*
G36*
X63275Y-54228D02*
X62406Y-54228D01*
X62406Y-53872D01*
X63275Y-53872D01*
X63275Y-54228D01*
X63275Y-54228D01*
G37*
G36*
X63275Y-54661D02*
X62406Y-54661D01*
X62406Y-54305D01*
X63275Y-54305D01*
X63275Y-54661D01*
X63275Y-54661D01*
G37*
G36*
X63275Y-55094D02*
X62406Y-55094D01*
X62406Y-54738D01*
X63275Y-54738D01*
X63275Y-55094D01*
X63275Y-55094D01*
G37*
G36*
X63275Y-55527D02*
X62406Y-55527D01*
X62406Y-55171D01*
X63275Y-55171D01*
X63275Y-55527D01*
X63275Y-55527D01*
G37*
G36*
X63275Y-55960D02*
X62406Y-55960D01*
X62406Y-55604D01*
X63275Y-55604D01*
X63275Y-55960D01*
X63275Y-55960D01*
G37*
G36*
X63348Y-41775D02*
X63051Y-41775D01*
X63051Y-41464D01*
X63051Y-41456D01*
X63051Y-41443D01*
X63051Y-41435D01*
X63051Y-41124D01*
X63348Y-41124D01*
X63348Y-41435D01*
X63348Y-41443D01*
X63348Y-41456D01*
X63348Y-41464D01*
X63348Y-41775D01*
X63348Y-41775D01*
G37*
G36*
X63634Y-46262D02*
X62963Y-46262D01*
X62963Y-45237D01*
X63634Y-45237D01*
X63634Y-46262D01*
X63634Y-46262D01*
G37*
G36*
X63634Y-47462D02*
X62963Y-47462D01*
X62963Y-46437D01*
X63634Y-46437D01*
X63634Y-47462D01*
X63634Y-47462D01*
G37*
G36*
X63748Y-40014D02*
X62959Y-40014D01*
X62959Y-39185D01*
X63748Y-39185D01*
X63748Y-40014D01*
X63748Y-40014D01*
G37*
G36*
X63808Y-41491D02*
X63491Y-41491D01*
X63491Y-41096D01*
X63808Y-41096D01*
X63808Y-41491D01*
X63808Y-41491D01*
G37*
G36*
X63808Y-41999D02*
X63491Y-41999D01*
X63491Y-41604D01*
X63808Y-41604D01*
X63808Y-41999D01*
X63808Y-41999D01*
G37*
G36*
X63838Y-48814D02*
X63513Y-48814D01*
X63513Y-48253D01*
X63838Y-48253D01*
X63838Y-48814D01*
X63838Y-48814D01*
G37*
G36*
X63838Y-49846D02*
X63513Y-49846D01*
X63513Y-49285D01*
X63838Y-49285D01*
X63838Y-49846D01*
X63838Y-49846D01*
G37*
G36*
X63991Y-47908D02*
X63596Y-47908D01*
X63596Y-47591D01*
X63991Y-47591D01*
X63991Y-47908D01*
X63991Y-47908D01*
G37*
G36*
X64083Y-40959D02*
X63175Y-40959D01*
X63175Y-40248D01*
X64083Y-40248D01*
X64083Y-40959D01*
X64083Y-40959D01*
G37*
G36*
X64175Y-50298D02*
X63864Y-50298D01*
X63856Y-50298D01*
X63843Y-50298D01*
X63835Y-50298D01*
X63524Y-50298D01*
X63524Y-50001D01*
X63835Y-50001D01*
X63843Y-50001D01*
X63856Y-50001D01*
X63864Y-50001D01*
X64175Y-50001D01*
X64175Y-50298D01*
X64175Y-50298D01*
G37*
G36*
X64175Y-50748D02*
X63864Y-50748D01*
X63856Y-50748D01*
X63843Y-50748D01*
X63835Y-50748D01*
X63524Y-50748D01*
X63524Y-50451D01*
X63835Y-50451D01*
X63843Y-50451D01*
X63856Y-50451D01*
X63864Y-50451D01*
X64175Y-50451D01*
X64175Y-50748D01*
X64175Y-50748D01*
G37*
G36*
X64188Y-43232D02*
X63956Y-43232D01*
X63948Y-43232D01*
X63907Y-43232D01*
X63899Y-43232D01*
X63700Y-43232D01*
X63692Y-43232D01*
X63651Y-43232D01*
X63643Y-43232D01*
X63411Y-43232D01*
X63411Y-42758D01*
X63643Y-42758D01*
X63651Y-42758D01*
X63692Y-42758D01*
X63700Y-42758D01*
X63899Y-42758D01*
X63907Y-42758D01*
X63948Y-42758D01*
X63956Y-42758D01*
X64188Y-42758D01*
X64188Y-43232D01*
X64188Y-43232D01*
G37*
G36*
X64188Y-43941D02*
X63956Y-43941D01*
X63948Y-43941D01*
X63907Y-43941D01*
X63899Y-43941D01*
X63700Y-43941D01*
X63692Y-43941D01*
X63651Y-43941D01*
X63643Y-43941D01*
X63411Y-43941D01*
X63411Y-43467D01*
X63643Y-43467D01*
X63651Y-43467D01*
X63692Y-43467D01*
X63700Y-43467D01*
X63899Y-43467D01*
X63907Y-43467D01*
X63948Y-43467D01*
X63956Y-43467D01*
X64188Y-43467D01*
X64188Y-43941D01*
X64188Y-43941D01*
G37*
G36*
X64212Y-48814D02*
X63887Y-48814D01*
X63887Y-48253D01*
X64212Y-48253D01*
X64212Y-48814D01*
X64212Y-48814D01*
G37*
G36*
X64212Y-49846D02*
X63887Y-49846D01*
X63887Y-49285D01*
X64212Y-49285D01*
X64212Y-49846D01*
X64212Y-49846D01*
G37*
G36*
X64499Y-47908D02*
X64104Y-47908D01*
X64104Y-47591D01*
X64499Y-47591D01*
X64499Y-47908D01*
X64499Y-47908D01*
G37*
G36*
X64526Y-41793D02*
X63973Y-41793D01*
X63973Y-41358D01*
X64526Y-41358D01*
X64526Y-41793D01*
X64526Y-41793D01*
G37*
G36*
X64526Y-42541D02*
X63973Y-42541D01*
X63973Y-42106D01*
X64526Y-42106D01*
X64526Y-42541D01*
X64526Y-42541D01*
G37*
G36*
X64586Y-48814D02*
X64261Y-48814D01*
X64261Y-48253D01*
X64586Y-48253D01*
X64586Y-48814D01*
X64586Y-48814D01*
G37*
G36*
X64586Y-49846D02*
X64261Y-49846D01*
X64261Y-49285D01*
X64586Y-49285D01*
X64586Y-49846D01*
X64586Y-49846D01*
G37*
G36*
X64736Y-46262D02*
X64065Y-46262D01*
X64065Y-45237D01*
X64736Y-45237D01*
X64736Y-46262D01*
X64736Y-46262D01*
G37*
G36*
X64736Y-47462D02*
X64065Y-47462D01*
X64065Y-46437D01*
X64736Y-46437D01*
X64736Y-47462D01*
X64736Y-47462D01*
G37*
G36*
X64791Y-40014D02*
X63963Y-40014D01*
X63963Y-39185D01*
X64791Y-39185D01*
X64791Y-40014D01*
X64791Y-40014D01*
G37*
G36*
X65058Y-49295D02*
X64741Y-49295D01*
X64741Y-48900D01*
X65058Y-48900D01*
X65058Y-49295D01*
X65058Y-49295D01*
G37*
G36*
X65058Y-49803D02*
X64741Y-49803D01*
X64741Y-49408D01*
X65058Y-49408D01*
X65058Y-49803D01*
X65058Y-49803D01*
G37*
G36*
X65088Y-41914D02*
X64763Y-41914D01*
X64763Y-41353D01*
X65088Y-41353D01*
X65088Y-41914D01*
X65088Y-41914D01*
G37*
G36*
X65088Y-42946D02*
X64763Y-42946D01*
X64763Y-42385D01*
X65088Y-42385D01*
X65088Y-42946D01*
X65088Y-42946D01*
G37*
G36*
X65362Y-58087D02*
X65358Y-58344D01*
X65307Y-58569D01*
X65216Y-58775D01*
X65083Y-58964D01*
X64920Y-59119D01*
X64725Y-59243D01*
X64515Y-59324D01*
X64288Y-59364D01*
X64063Y-59359D01*
X63837Y-59310D01*
X63631Y-59220D01*
X63441Y-59088D01*
X63285Y-58926D01*
X63160Y-58732D01*
X63077Y-58523D01*
X63036Y-58296D01*
X63039Y-58071D01*
X63087Y-57845D01*
X63175Y-57638D01*
X63306Y-57447D01*
X63466Y-57290D01*
X63660Y-57164D01*
X63868Y-57080D01*
X64095Y-57036D01*
X64320Y-57038D01*
X64547Y-57084D01*
X64753Y-57171D01*
X64945Y-57301D01*
X65103Y-57460D01*
X65232Y-57653D01*
X65317Y-57860D01*
X65362Y-58087D01*
X65362Y-58087D01*
G37*
G36*
X65462Y-41914D02*
X65137Y-41914D01*
X65137Y-41353D01*
X65462Y-41353D01*
X65462Y-41914D01*
X65462Y-41914D01*
G37*
G36*
X65462Y-42946D02*
X65137Y-42946D01*
X65137Y-42385D01*
X65462Y-42385D01*
X65462Y-42946D01*
X65462Y-42946D01*
G37*
G36*
X65480Y-40959D02*
X65248Y-40959D01*
X65240Y-40959D01*
X65226Y-40959D01*
X65219Y-40959D01*
X64992Y-40959D01*
X64984Y-40959D01*
X64971Y-40959D01*
X64963Y-40959D01*
X64736Y-40959D01*
X64728Y-40959D01*
X64715Y-40959D01*
X64707Y-40959D01*
X64480Y-40959D01*
X64473Y-40959D01*
X64459Y-40959D01*
X64451Y-40959D01*
X64219Y-40959D01*
X64219Y-40347D01*
X64451Y-40347D01*
X64459Y-40347D01*
X64473Y-40347D01*
X64480Y-40347D01*
X64707Y-40347D01*
X64715Y-40347D01*
X64728Y-40347D01*
X64736Y-40347D01*
X64963Y-40347D01*
X64971Y-40347D01*
X64984Y-40347D01*
X64992Y-40347D01*
X65219Y-40347D01*
X65226Y-40347D01*
X65240Y-40347D01*
X65248Y-40347D01*
X65480Y-40347D01*
X65480Y-40959D01*
X65480Y-40959D01*
G37*
G36*
X65498Y-49075D02*
X65201Y-49075D01*
X65201Y-48764D01*
X65201Y-48756D01*
X65201Y-48743D01*
X65201Y-48735D01*
X65201Y-48424D01*
X65498Y-48424D01*
X65498Y-48735D01*
X65498Y-48743D01*
X65498Y-48756D01*
X65498Y-48764D01*
X65498Y-49075D01*
X65498Y-49075D01*
G37*
G36*
X65560Y-45160D02*
X65553Y-45167D01*
X65548Y-45173D01*
X65545Y-45180D01*
X65545Y-45188D01*
X65545Y-45506D01*
X65227Y-45506D01*
X65219Y-45506D01*
X65212Y-45509D01*
X65212Y-45509D01*
X65210Y-45509D01*
X65203Y-45512D01*
X65197Y-45517D01*
X65194Y-45525D01*
X65194Y-45532D01*
X65194Y-45561D01*
X65140Y-45509D01*
X65133Y-45506D01*
X65125Y-45506D01*
X65113Y-45506D01*
X65113Y-45494D01*
X65113Y-45487D01*
X65110Y-45479D01*
X65105Y-45474D01*
X64920Y-45292D01*
X64913Y-45289D01*
X64905Y-45289D01*
X64893Y-45289D01*
X64893Y-45278D01*
X64893Y-45270D01*
X64893Y-44129D01*
X64893Y-44121D01*
X64893Y-44110D01*
X64905Y-44110D01*
X64913Y-44110D01*
X64920Y-44107D01*
X65105Y-43925D01*
X65110Y-43920D01*
X65113Y-43912D01*
X65113Y-43905D01*
X65113Y-43893D01*
X65125Y-43893D01*
X65133Y-43893D01*
X65140Y-43890D01*
X65194Y-43838D01*
X65194Y-43867D01*
X65194Y-43874D01*
X65197Y-43882D01*
X65203Y-43887D01*
X65210Y-43890D01*
X65212Y-43890D01*
X65212Y-43890D01*
X65219Y-43893D01*
X65227Y-43893D01*
X65545Y-43893D01*
X65545Y-44211D01*
X65545Y-44219D01*
X65548Y-44226D01*
X65553Y-44232D01*
X65560Y-44239D01*
X65553Y-44246D01*
X65548Y-44252D01*
X65545Y-44259D01*
X65545Y-44267D01*
X65545Y-44279D01*
X65532Y-44279D01*
X65524Y-44279D01*
X65517Y-44282D01*
X65512Y-44288D01*
X65325Y-44475D01*
X65319Y-44480D01*
X65316Y-44487D01*
X65316Y-44495D01*
X65316Y-44904D01*
X65316Y-44912D01*
X65319Y-44919D01*
X65325Y-44924D01*
X65512Y-45111D01*
X65517Y-45117D01*
X65524Y-45120D01*
X65532Y-45120D01*
X65545Y-45120D01*
X65545Y-45132D01*
X65545Y-45140D01*
X65548Y-45147D01*
X65553Y-45153D01*
X65560Y-45160D01*
X65560Y-45160D01*
G37*
G36*
X65695Y-52958D02*
X65300Y-52958D01*
X65300Y-52641D01*
X65695Y-52641D01*
X65695Y-52958D01*
X65695Y-52958D01*
G37*
G36*
X65734Y-46662D02*
X65063Y-46662D01*
X65063Y-45637D01*
X65734Y-45637D01*
X65734Y-46662D01*
X65734Y-46662D01*
G37*
G36*
X65736Y-40014D02*
X64908Y-40014D01*
X64908Y-39185D01*
X65736Y-39185D01*
X65736Y-40014D01*
X65736Y-40014D01*
G37*
G36*
X65836Y-41914D02*
X65511Y-41914D01*
X65511Y-41353D01*
X65836Y-41353D01*
X65836Y-41914D01*
X65836Y-41914D01*
G37*
G36*
X65836Y-42946D02*
X65511Y-42946D01*
X65511Y-42385D01*
X65836Y-42385D01*
X65836Y-42946D01*
X65836Y-42946D01*
G37*
G36*
X66203Y-52958D02*
X65808Y-52958D01*
X65808Y-52641D01*
X66203Y-52641D01*
X66203Y-52958D01*
X66203Y-52958D01*
G37*
G36*
X66524Y-40959D02*
X65616Y-40959D01*
X65616Y-40248D01*
X66524Y-40248D01*
X66524Y-40959D01*
X66524Y-40959D01*
G37*
G36*
X66693Y-41676D02*
X66258Y-41676D01*
X66258Y-41123D01*
X66693Y-41123D01*
X66693Y-41676D01*
X66693Y-41676D01*
G37*
G36*
X66706Y-45289D02*
X66694Y-45289D01*
X66686Y-45289D01*
X66679Y-45292D01*
X66494Y-45474D01*
X66489Y-45479D01*
X66486Y-45487D01*
X66486Y-45494D01*
X66486Y-45506D01*
X66474Y-45506D01*
X66466Y-45506D01*
X66459Y-45509D01*
X66405Y-45561D01*
X66405Y-45532D01*
X66405Y-45525D01*
X66402Y-45517D01*
X66396Y-45512D01*
X66389Y-45509D01*
X66387Y-45509D01*
X66387Y-45509D01*
X66380Y-45506D01*
X66372Y-45506D01*
X66054Y-45506D01*
X66054Y-45188D01*
X66054Y-45180D01*
X66051Y-45173D01*
X66046Y-45167D01*
X66039Y-45160D01*
X66046Y-45153D01*
X66051Y-45147D01*
X66054Y-45140D01*
X66054Y-45132D01*
X66054Y-45120D01*
X66067Y-45120D01*
X66075Y-45120D01*
X66082Y-45117D01*
X66087Y-45111D01*
X66274Y-44924D01*
X66280Y-44919D01*
X66283Y-44912D01*
X66283Y-44904D01*
X66283Y-44495D01*
X66283Y-44487D01*
X66280Y-44480D01*
X66274Y-44475D01*
X66087Y-44288D01*
X66082Y-44282D01*
X66075Y-44279D01*
X66067Y-44279D01*
X66054Y-44279D01*
X66054Y-44267D01*
X66054Y-44259D01*
X66051Y-44252D01*
X66046Y-44246D01*
X66039Y-44239D01*
X66046Y-44232D01*
X66051Y-44226D01*
X66054Y-44219D01*
X66054Y-44211D01*
X66054Y-43893D01*
X66372Y-43893D01*
X66380Y-43893D01*
X66387Y-43890D01*
X66387Y-43890D01*
X66389Y-43890D01*
X66396Y-43887D01*
X66402Y-43882D01*
X66405Y-43874D01*
X66405Y-43867D01*
X66405Y-43838D01*
X66459Y-43890D01*
X66466Y-43893D01*
X66474Y-43893D01*
X66486Y-43893D01*
X66486Y-43905D01*
X66486Y-43912D01*
X66489Y-43920D01*
X66494Y-43925D01*
X66679Y-44107D01*
X66686Y-44110D01*
X66694Y-44110D01*
X66706Y-44110D01*
X66706Y-44121D01*
X66706Y-44129D01*
X66706Y-45270D01*
X66706Y-45278D01*
X66706Y-45289D01*
X66706Y-45289D01*
G37*
G36*
X66740Y-40014D02*
X65951Y-40014D01*
X65951Y-39185D01*
X66740Y-39185D01*
X66740Y-40014D01*
X66740Y-40014D01*
G37*
G36*
X66836Y-46662D02*
X66165Y-46662D01*
X66165Y-45637D01*
X66836Y-45637D01*
X66836Y-46662D01*
X66836Y-46662D01*
G37*
G36*
X66872Y-42287D02*
X66397Y-42287D01*
X66397Y-41812D01*
X66872Y-41812D01*
X66872Y-42287D01*
X66872Y-42287D01*
G37*
G36*
X67441Y-41676D02*
X67006Y-41676D01*
X67006Y-41123D01*
X67441Y-41123D01*
X67441Y-41676D01*
X67441Y-41676D01*
G37*
G36*
X67502Y-42287D02*
X67027Y-42287D01*
X67027Y-41812D01*
X67502Y-41812D01*
X67502Y-42287D01*
X67502Y-42287D01*
G37*
G36*
X67715Y-39970D02*
X67714Y-40038D01*
X67700Y-40101D01*
X67676Y-40155D01*
X67638Y-40208D01*
X67596Y-40248D01*
X67541Y-40283D01*
X67486Y-40304D01*
X67422Y-40315D01*
X67364Y-40314D01*
X67300Y-40300D01*
X67246Y-40277D01*
X67193Y-40240D01*
X67152Y-40197D01*
X67117Y-40143D01*
X67096Y-40088D01*
X67084Y-40024D01*
X67085Y-39966D01*
X67098Y-39902D01*
X67121Y-39848D01*
X67158Y-39795D01*
X67200Y-39754D01*
X67254Y-39718D01*
X67308Y-39696D01*
X67373Y-39684D01*
X67431Y-39684D01*
X67495Y-39698D01*
X67548Y-39720D01*
X67603Y-39757D01*
X67644Y-39798D01*
X67680Y-39853D01*
X67702Y-39906D01*
X67715Y-39970D01*
X67715Y-39970D01*
G37*
G36*
X68189Y-42761D02*
X67793Y-42761D01*
X67793Y-42570D01*
X68189Y-42570D01*
X68189Y-42761D01*
X68189Y-42761D01*
G37*
G36*
X68189Y-43017D02*
X67793Y-43017D01*
X67793Y-42826D01*
X68189Y-42826D01*
X68189Y-43017D01*
X68189Y-43017D01*
G37*
G36*
X68189Y-43273D02*
X67793Y-43273D01*
X67793Y-43082D01*
X68189Y-43082D01*
X68189Y-43273D01*
X68189Y-43273D01*
G37*
G36*
X68189Y-43529D02*
X67793Y-43529D01*
X67793Y-43338D01*
X68189Y-43338D01*
X68189Y-43529D01*
X68189Y-43529D01*
G37*
G36*
X68411Y-42539D02*
X68220Y-42539D01*
X68220Y-42143D01*
X68411Y-42143D01*
X68411Y-42539D01*
X68411Y-42539D01*
G37*
G36*
X68411Y-43956D02*
X68220Y-43956D01*
X68220Y-43560D01*
X68411Y-43560D01*
X68411Y-43956D01*
X68411Y-43956D01*
G37*
G36*
X68667Y-42539D02*
X68476Y-42539D01*
X68476Y-42143D01*
X68667Y-42143D01*
X68667Y-42539D01*
X68667Y-42539D01*
G37*
G36*
X68667Y-43956D02*
X68476Y-43956D01*
X68476Y-43560D01*
X68667Y-43560D01*
X68667Y-43956D01*
X68667Y-43956D01*
G37*
G36*
X68708Y-44491D02*
X68391Y-44491D01*
X68391Y-44096D01*
X68708Y-44096D01*
X68708Y-44491D01*
X68708Y-44491D01*
G37*
G36*
X68708Y-44999D02*
X68391Y-44999D01*
X68391Y-44604D01*
X68708Y-44604D01*
X68708Y-44999D01*
X68708Y-44999D01*
G37*
G36*
X68715Y-39970D02*
X68714Y-40038D01*
X68700Y-40101D01*
X68676Y-40155D01*
X68638Y-40208D01*
X68596Y-40248D01*
X68541Y-40283D01*
X68486Y-40304D01*
X68422Y-40315D01*
X68364Y-40314D01*
X68300Y-40300D01*
X68246Y-40277D01*
X68193Y-40240D01*
X68152Y-40197D01*
X68117Y-40143D01*
X68096Y-40088D01*
X68084Y-40024D01*
X68085Y-39966D01*
X68098Y-39902D01*
X68121Y-39848D01*
X68158Y-39795D01*
X68200Y-39754D01*
X68254Y-39718D01*
X68308Y-39696D01*
X68373Y-39684D01*
X68431Y-39684D01*
X68495Y-39698D01*
X68548Y-39720D01*
X68603Y-39757D01*
X68644Y-39798D01*
X68680Y-39853D01*
X68702Y-39906D01*
X68715Y-39970D01*
X68715Y-39970D01*
G37*
G36*
X68923Y-42539D02*
X68732Y-42539D01*
X68732Y-42143D01*
X68923Y-42143D01*
X68923Y-42539D01*
X68923Y-42539D01*
G37*
G36*
X68923Y-43956D02*
X68732Y-43956D01*
X68732Y-43560D01*
X68923Y-43560D01*
X68923Y-43956D01*
X68923Y-43956D01*
G37*
G36*
X69153Y-43503D02*
X68246Y-43503D01*
X68246Y-42596D01*
X69153Y-42596D01*
X69153Y-43503D01*
X69153Y-43503D01*
G37*
G36*
X69179Y-42539D02*
X68988Y-42539D01*
X68988Y-42143D01*
X69179Y-42143D01*
X69179Y-42539D01*
X69179Y-42539D01*
G37*
G36*
X69179Y-43956D02*
X68988Y-43956D01*
X68988Y-43560D01*
X69179Y-43560D01*
X69179Y-43956D01*
X69179Y-43956D01*
G37*
G36*
X69606Y-42761D02*
X69210Y-42761D01*
X69210Y-42570D01*
X69606Y-42570D01*
X69606Y-42761D01*
X69606Y-42761D01*
G37*
G36*
X69606Y-43017D02*
X69210Y-43017D01*
X69210Y-42826D01*
X69606Y-42826D01*
X69606Y-43017D01*
X69606Y-43017D01*
G37*
G36*
X69606Y-43273D02*
X69210Y-43273D01*
X69210Y-43082D01*
X69606Y-43082D01*
X69606Y-43273D01*
X69606Y-43273D01*
G37*
G36*
X69606Y-43529D02*
X69210Y-43529D01*
X69210Y-43338D01*
X69606Y-43338D01*
X69606Y-43529D01*
X69606Y-43529D01*
G37*
G36*
X69715Y-39970D02*
X69714Y-40038D01*
X69700Y-40101D01*
X69676Y-40155D01*
X69638Y-40208D01*
X69596Y-40248D01*
X69541Y-40283D01*
X69486Y-40304D01*
X69422Y-40315D01*
X69364Y-40314D01*
X69300Y-40300D01*
X69246Y-40277D01*
X69193Y-40240D01*
X69152Y-40197D01*
X69117Y-40143D01*
X69096Y-40088D01*
X69084Y-40024D01*
X69085Y-39966D01*
X69098Y-39902D01*
X69121Y-39848D01*
X69158Y-39795D01*
X69200Y-39754D01*
X69254Y-39718D01*
X69308Y-39696D01*
X69373Y-39684D01*
X69431Y-39684D01*
X69495Y-39698D01*
X69548Y-39720D01*
X69603Y-39757D01*
X69644Y-39798D01*
X69680Y-39853D01*
X69702Y-39906D01*
X69715Y-39970D01*
X69715Y-39970D01*
G37*
G36*
X70141Y-42458D02*
X69746Y-42458D01*
X69746Y-42141D01*
X70141Y-42141D01*
X70141Y-42458D01*
X70141Y-42458D01*
G37*
G36*
X70649Y-42458D02*
X70254Y-42458D01*
X70254Y-42141D01*
X70649Y-42141D01*
X70649Y-42458D01*
X70649Y-42458D01*
G37*
G36*
X70715Y-39970D02*
X70714Y-40038D01*
X70700Y-40101D01*
X70676Y-40155D01*
X70638Y-40208D01*
X70596Y-40248D01*
X70541Y-40283D01*
X70486Y-40304D01*
X70422Y-40315D01*
X70364Y-40314D01*
X70300Y-40300D01*
X70246Y-40277D01*
X70193Y-40240D01*
X70152Y-40197D01*
X70117Y-40143D01*
X70096Y-40088D01*
X70084Y-40024D01*
X70085Y-39966D01*
X70098Y-39902D01*
X70121Y-39848D01*
X70158Y-39795D01*
X70200Y-39754D01*
X70254Y-39718D01*
X70308Y-39696D01*
X70373Y-39684D01*
X70431Y-39684D01*
X70495Y-39698D01*
X70548Y-39720D01*
X70603Y-39757D01*
X70644Y-39798D01*
X70680Y-39853D01*
X70702Y-39906D01*
X70715Y-39970D01*
X70715Y-39970D01*
G37*
G36*
X71315Y-59315D02*
X70684Y-59315D01*
X70684Y-58684D01*
X71315Y-58684D01*
X71315Y-59315D01*
X71315Y-59315D01*
G37*
G36*
X71715Y-39970D02*
X71714Y-40038D01*
X71700Y-40101D01*
X71676Y-40155D01*
X71638Y-40208D01*
X71596Y-40248D01*
X71541Y-40283D01*
X71486Y-40304D01*
X71422Y-40315D01*
X71364Y-40314D01*
X71300Y-40300D01*
X71246Y-40277D01*
X71193Y-40240D01*
X71152Y-40197D01*
X71117Y-40143D01*
X71096Y-40088D01*
X71084Y-40024D01*
X71085Y-39966D01*
X71098Y-39902D01*
X71121Y-39848D01*
X71158Y-39795D01*
X71200Y-39754D01*
X71254Y-39718D01*
X71308Y-39696D01*
X71373Y-39684D01*
X71431Y-39684D01*
X71495Y-39698D01*
X71548Y-39720D01*
X71603Y-39757D01*
X71644Y-39798D01*
X71680Y-39853D01*
X71702Y-39906D01*
X71715Y-39970D01*
X71715Y-39970D01*
G37*
G36*
X71941Y-54958D02*
X71546Y-54958D01*
X71546Y-54641D01*
X71941Y-54641D01*
X71941Y-54958D01*
X71941Y-54958D01*
G37*
G36*
X72315Y-58970D02*
X72314Y-59038D01*
X72300Y-59101D01*
X72276Y-59155D01*
X72238Y-59208D01*
X72196Y-59248D01*
X72141Y-59283D01*
X72086Y-59304D01*
X72022Y-59315D01*
X71964Y-59314D01*
X71900Y-59300D01*
X71846Y-59277D01*
X71793Y-59240D01*
X71752Y-59197D01*
X71717Y-59143D01*
X71696Y-59088D01*
X71684Y-59024D01*
X71685Y-58966D01*
X71698Y-58902D01*
X71721Y-58848D01*
X71758Y-58795D01*
X71800Y-58754D01*
X71854Y-58718D01*
X71908Y-58696D01*
X71973Y-58684D01*
X72031Y-58684D01*
X72095Y-58698D01*
X72148Y-58720D01*
X72203Y-58757D01*
X72244Y-58798D01*
X72280Y-58853D01*
X72302Y-58906D01*
X72315Y-58970D01*
X72315Y-58970D01*
G37*
G36*
X72325Y-55398D02*
X72014Y-55398D01*
X72006Y-55398D01*
X71993Y-55398D01*
X71985Y-55398D01*
X71674Y-55398D01*
X71674Y-55101D01*
X71985Y-55101D01*
X71993Y-55101D01*
X72006Y-55101D01*
X72014Y-55101D01*
X72325Y-55101D01*
X72325Y-55398D01*
X72325Y-55398D01*
G37*
G36*
X72449Y-54958D02*
X72054Y-54958D01*
X72054Y-54641D01*
X72449Y-54641D01*
X72449Y-54958D01*
X72449Y-54958D01*
G37*
G36*
X72715Y-39970D02*
X72714Y-40038D01*
X72700Y-40101D01*
X72676Y-40155D01*
X72638Y-40208D01*
X72596Y-40248D01*
X72541Y-40283D01*
X72486Y-40304D01*
X72422Y-40315D01*
X72364Y-40314D01*
X72300Y-40300D01*
X72246Y-40277D01*
X72193Y-40240D01*
X72152Y-40197D01*
X72117Y-40143D01*
X72096Y-40088D01*
X72084Y-40024D01*
X72085Y-39966D01*
X72098Y-39902D01*
X72121Y-39848D01*
X72158Y-39795D01*
X72200Y-39754D01*
X72254Y-39718D01*
X72308Y-39696D01*
X72373Y-39684D01*
X72431Y-39684D01*
X72495Y-39698D01*
X72548Y-39720D01*
X72603Y-39757D01*
X72644Y-39798D01*
X72680Y-39853D01*
X72702Y-39906D01*
X72715Y-39970D01*
X72715Y-39970D01*
G37*
G36*
X72895Y-53608D02*
X72500Y-53608D01*
X72500Y-53291D01*
X72895Y-53291D01*
X72895Y-53608D01*
X72895Y-53608D01*
G37*
G36*
X72895Y-54058D02*
X72500Y-54058D01*
X72500Y-53741D01*
X72895Y-53741D01*
X72895Y-54058D01*
X72895Y-54058D01*
G37*
G36*
X72895Y-54508D02*
X72500Y-54508D01*
X72500Y-54191D01*
X72895Y-54191D01*
X72895Y-54508D01*
X72895Y-54508D01*
G37*
G36*
X73175Y-53148D02*
X72864Y-53148D01*
X72856Y-53148D01*
X72843Y-53148D01*
X72835Y-53148D01*
X72524Y-53148D01*
X72524Y-52851D01*
X72835Y-52851D01*
X72843Y-52851D01*
X72856Y-52851D01*
X72864Y-52851D01*
X73175Y-52851D01*
X73175Y-53148D01*
X73175Y-53148D01*
G37*
G36*
X73241Y-50608D02*
X72846Y-50608D01*
X72846Y-50291D01*
X73241Y-50291D01*
X73241Y-50608D01*
X73241Y-50608D01*
G37*
G36*
X73315Y-58970D02*
X73314Y-59038D01*
X73300Y-59101D01*
X73276Y-59155D01*
X73238Y-59208D01*
X73196Y-59248D01*
X73141Y-59283D01*
X73086Y-59304D01*
X73022Y-59315D01*
X72964Y-59314D01*
X72900Y-59300D01*
X72846Y-59277D01*
X72793Y-59240D01*
X72752Y-59197D01*
X72717Y-59143D01*
X72696Y-59088D01*
X72684Y-59024D01*
X72685Y-58966D01*
X72698Y-58902D01*
X72721Y-58848D01*
X72758Y-58795D01*
X72800Y-58754D01*
X72854Y-58718D01*
X72908Y-58696D01*
X72973Y-58684D01*
X73031Y-58684D01*
X73095Y-58698D01*
X73148Y-58720D01*
X73203Y-58757D01*
X73244Y-58798D01*
X73280Y-58853D01*
X73302Y-58906D01*
X73315Y-58970D01*
X73315Y-58970D01*
G37*
G36*
X73332Y-49491D02*
X72700Y-49491D01*
X72700Y-48938D01*
X73332Y-48938D01*
X73332Y-49491D01*
X73332Y-49491D01*
G37*
G36*
X73332Y-50161D02*
X72700Y-50161D01*
X72700Y-49608D01*
X73332Y-49608D01*
X73332Y-50161D01*
X73332Y-50161D01*
G37*
G36*
X73403Y-53608D02*
X73008Y-53608D01*
X73008Y-53291D01*
X73403Y-53291D01*
X73403Y-53608D01*
X73403Y-53608D01*
G37*
G36*
X73403Y-54058D02*
X73008Y-54058D01*
X73008Y-53741D01*
X73403Y-53741D01*
X73403Y-54058D01*
X73403Y-54058D01*
G37*
G36*
X73403Y-54508D02*
X73008Y-54508D01*
X73008Y-54191D01*
X73403Y-54191D01*
X73403Y-54508D01*
X73403Y-54508D01*
G37*
G36*
X73545Y-48808D02*
X73150Y-48808D01*
X73150Y-48491D01*
X73545Y-48491D01*
X73545Y-48808D01*
X73545Y-48808D01*
G37*
G36*
X73715Y-39970D02*
X73714Y-40038D01*
X73700Y-40101D01*
X73676Y-40155D01*
X73638Y-40208D01*
X73596Y-40248D01*
X73541Y-40283D01*
X73486Y-40304D01*
X73422Y-40315D01*
X73364Y-40314D01*
X73300Y-40300D01*
X73246Y-40277D01*
X73193Y-40240D01*
X73152Y-40197D01*
X73117Y-40143D01*
X73096Y-40088D01*
X73084Y-40024D01*
X73085Y-39966D01*
X73098Y-39902D01*
X73121Y-39848D01*
X73158Y-39795D01*
X73200Y-39754D01*
X73254Y-39718D01*
X73308Y-39696D01*
X73373Y-39684D01*
X73431Y-39684D01*
X73495Y-39698D01*
X73548Y-39720D01*
X73603Y-39757D01*
X73644Y-39798D01*
X73680Y-39853D01*
X73702Y-39906D01*
X73715Y-39970D01*
X73715Y-39970D01*
G37*
G36*
X73749Y-50608D02*
X73354Y-50608D01*
X73354Y-50291D01*
X73749Y-50291D01*
X73749Y-50608D01*
X73749Y-50608D01*
G37*
G36*
X73858Y-53541D02*
X73541Y-53541D01*
X73541Y-53146D01*
X73858Y-53146D01*
X73858Y-53541D01*
X73858Y-53541D01*
G37*
G36*
X73858Y-54049D02*
X73541Y-54049D01*
X73541Y-53654D01*
X73858Y-53654D01*
X73858Y-54049D01*
X73858Y-54049D01*
G37*
G36*
X73891Y-54508D02*
X73496Y-54508D01*
X73496Y-54191D01*
X73891Y-54191D01*
X73891Y-54508D01*
X73891Y-54508D01*
G37*
G36*
X74053Y-48808D02*
X73658Y-48808D01*
X73658Y-48491D01*
X74053Y-48491D01*
X74053Y-48808D01*
X74053Y-48808D01*
G37*
G36*
X74165Y-51782D02*
X73932Y-51782D01*
X73930Y-51782D01*
X73924Y-51782D01*
X73923Y-51782D01*
X73676Y-51782D01*
X73675Y-51782D01*
X73669Y-51782D01*
X73667Y-51782D01*
X73434Y-51782D01*
X73434Y-51308D01*
X73667Y-51308D01*
X73669Y-51308D01*
X73675Y-51308D01*
X73676Y-51308D01*
X73923Y-51308D01*
X73924Y-51308D01*
X73930Y-51308D01*
X73932Y-51308D01*
X74165Y-51308D01*
X74165Y-51782D01*
X74165Y-51782D01*
G37*
G36*
X74165Y-52491D02*
X73932Y-52491D01*
X73930Y-52491D01*
X73924Y-52491D01*
X73923Y-52491D01*
X73676Y-52491D01*
X73675Y-52491D01*
X73669Y-52491D01*
X73667Y-52491D01*
X73434Y-52491D01*
X73434Y-52017D01*
X73667Y-52017D01*
X73669Y-52017D01*
X73675Y-52017D01*
X73676Y-52017D01*
X73923Y-52017D01*
X73924Y-52017D01*
X73930Y-52017D01*
X73932Y-52017D01*
X74165Y-52017D01*
X74165Y-52491D01*
X74165Y-52491D01*
G37*
G36*
X74199Y-49491D02*
X73567Y-49491D01*
X73567Y-48938D01*
X74199Y-48938D01*
X74199Y-49491D01*
X74199Y-49491D01*
G37*
G36*
X74199Y-50161D02*
X73567Y-50161D01*
X73567Y-49608D01*
X74199Y-49608D01*
X74199Y-50161D01*
X74199Y-50161D01*
G37*
G36*
X74308Y-55595D02*
X73991Y-55595D01*
X73991Y-55200D01*
X74308Y-55200D01*
X74308Y-55595D01*
X74308Y-55595D01*
G37*
G36*
X74308Y-56103D02*
X73991Y-56103D01*
X73991Y-55708D01*
X74308Y-55708D01*
X74308Y-56103D01*
X74308Y-56103D01*
G37*
G36*
X74315Y-58970D02*
X74314Y-59038D01*
X74300Y-59101D01*
X74276Y-59155D01*
X74238Y-59208D01*
X74196Y-59248D01*
X74141Y-59283D01*
X74086Y-59304D01*
X74022Y-59315D01*
X73964Y-59314D01*
X73900Y-59300D01*
X73846Y-59277D01*
X73793Y-59240D01*
X73752Y-59197D01*
X73717Y-59143D01*
X73696Y-59088D01*
X73684Y-59024D01*
X73685Y-58966D01*
X73698Y-58902D01*
X73721Y-58848D01*
X73758Y-58795D01*
X73800Y-58754D01*
X73854Y-58718D01*
X73908Y-58696D01*
X73973Y-58684D01*
X74031Y-58684D01*
X74095Y-58698D01*
X74148Y-58720D01*
X74203Y-58757D01*
X74244Y-58798D01*
X74280Y-58853D01*
X74302Y-58906D01*
X74315Y-58970D01*
X74315Y-58970D01*
G37*
G36*
X74399Y-54508D02*
X74004Y-54508D01*
X74004Y-54191D01*
X74399Y-54191D01*
X74399Y-54508D01*
X74399Y-54508D01*
G37*
G36*
X74715Y-39970D02*
X74714Y-40038D01*
X74700Y-40101D01*
X74676Y-40155D01*
X74638Y-40208D01*
X74596Y-40248D01*
X74541Y-40283D01*
X74486Y-40304D01*
X74422Y-40315D01*
X74364Y-40314D01*
X74300Y-40300D01*
X74246Y-40277D01*
X74193Y-40240D01*
X74152Y-40197D01*
X74117Y-40143D01*
X74096Y-40088D01*
X74084Y-40024D01*
X74085Y-39966D01*
X74098Y-39902D01*
X74121Y-39848D01*
X74158Y-39795D01*
X74200Y-39754D01*
X74254Y-39718D01*
X74308Y-39696D01*
X74373Y-39684D01*
X74431Y-39684D01*
X74495Y-39698D01*
X74548Y-39720D01*
X74603Y-39757D01*
X74644Y-39798D01*
X74680Y-39853D01*
X74702Y-39906D01*
X74715Y-39970D01*
X74715Y-39970D01*
G37*
G36*
X74925Y-56095D02*
X74450Y-56095D01*
X74450Y-55404D01*
X74925Y-55404D01*
X74925Y-56095D01*
X74925Y-56095D01*
G37*
G36*
X75187Y-54472D02*
X74712Y-54472D01*
X74712Y-53997D01*
X75187Y-53997D01*
X75187Y-54472D01*
X75187Y-54472D01*
G37*
G36*
X75187Y-55102D02*
X74712Y-55102D01*
X74712Y-54627D01*
X75187Y-54627D01*
X75187Y-55102D01*
X75187Y-55102D01*
G37*
G36*
X75315Y-58970D02*
X75314Y-59038D01*
X75300Y-59101D01*
X75276Y-59155D01*
X75238Y-59208D01*
X75196Y-59248D01*
X75141Y-59283D01*
X75086Y-59304D01*
X75022Y-59315D01*
X74964Y-59314D01*
X74900Y-59300D01*
X74846Y-59277D01*
X74793Y-59240D01*
X74752Y-59197D01*
X74717Y-59143D01*
X74696Y-59088D01*
X74684Y-59024D01*
X74685Y-58966D01*
X74698Y-58902D01*
X74721Y-58848D01*
X74758Y-58795D01*
X74800Y-58754D01*
X74854Y-58718D01*
X74908Y-58696D01*
X74973Y-58684D01*
X75031Y-58684D01*
X75095Y-58698D01*
X75148Y-58720D01*
X75203Y-58757D01*
X75244Y-58798D01*
X75280Y-58853D01*
X75302Y-58906D01*
X75315Y-58970D01*
X75315Y-58970D01*
G37*
G36*
X75658Y-54391D02*
X75341Y-54391D01*
X75341Y-53996D01*
X75658Y-53996D01*
X75658Y-54391D01*
X75658Y-54391D01*
G37*
G36*
X75658Y-54899D02*
X75341Y-54899D01*
X75341Y-54504D01*
X75658Y-54504D01*
X75658Y-54899D01*
X75658Y-54899D01*
G37*
G36*
X75715Y-39970D02*
X75714Y-40038D01*
X75700Y-40101D01*
X75676Y-40155D01*
X75638Y-40208D01*
X75596Y-40248D01*
X75541Y-40283D01*
X75486Y-40304D01*
X75422Y-40315D01*
X75364Y-40314D01*
X75300Y-40300D01*
X75246Y-40277D01*
X75193Y-40240D01*
X75152Y-40197D01*
X75117Y-40143D01*
X75096Y-40088D01*
X75084Y-40024D01*
X75085Y-39966D01*
X75098Y-39902D01*
X75121Y-39848D01*
X75158Y-39795D01*
X75200Y-39754D01*
X75254Y-39718D01*
X75308Y-39696D01*
X75373Y-39684D01*
X75431Y-39684D01*
X75495Y-39698D01*
X75548Y-39720D01*
X75603Y-39757D01*
X75644Y-39798D01*
X75680Y-39853D01*
X75702Y-39906D01*
X75715Y-39970D01*
X75715Y-39970D01*
G37*
G36*
X75723Y-43329D02*
X75229Y-43329D01*
X75229Y-42929D01*
X75723Y-42929D01*
X75723Y-43329D01*
X75723Y-43329D01*
G37*
G36*
X75723Y-43799D02*
X75229Y-43799D01*
X75229Y-43400D01*
X75723Y-43400D01*
X75723Y-43799D01*
X75723Y-43799D01*
G37*
G36*
X75723Y-44270D02*
X75229Y-44270D01*
X75229Y-43870D01*
X75723Y-43870D01*
X75723Y-44270D01*
X75723Y-44270D01*
G37*
G36*
X75949Y-56095D02*
X75474Y-56095D01*
X75474Y-55404D01*
X75949Y-55404D01*
X75949Y-56095D01*
X75949Y-56095D01*
G37*
G36*
X76187Y-49172D02*
X75712Y-49172D01*
X75712Y-48697D01*
X76187Y-48697D01*
X76187Y-49172D01*
X76187Y-49172D01*
G37*
G36*
X76187Y-49802D02*
X75712Y-49802D01*
X75712Y-49327D01*
X76187Y-49327D01*
X76187Y-49802D01*
X76187Y-49802D01*
G37*
G36*
X76315Y-58970D02*
X76314Y-59038D01*
X76300Y-59101D01*
X76276Y-59155D01*
X76238Y-59208D01*
X76196Y-59248D01*
X76141Y-59283D01*
X76086Y-59304D01*
X76022Y-59315D01*
X75964Y-59314D01*
X75900Y-59300D01*
X75846Y-59277D01*
X75793Y-59240D01*
X75752Y-59197D01*
X75717Y-59143D01*
X75696Y-59088D01*
X75684Y-59024D01*
X75685Y-58966D01*
X75698Y-58902D01*
X75721Y-58848D01*
X75758Y-58795D01*
X75800Y-58754D01*
X75854Y-58718D01*
X75908Y-58696D01*
X75973Y-58684D01*
X76031Y-58684D01*
X76095Y-58698D01*
X76148Y-58720D01*
X76203Y-58757D01*
X76244Y-58798D01*
X76280Y-58853D01*
X76302Y-58906D01*
X76315Y-58970D01*
X76315Y-58970D01*
G37*
G36*
X76408Y-55595D02*
X76091Y-55595D01*
X76091Y-55200D01*
X76408Y-55200D01*
X76408Y-55595D01*
X76408Y-55595D01*
G37*
G36*
X76408Y-56103D02*
X76091Y-56103D01*
X76091Y-55708D01*
X76408Y-55708D01*
X76408Y-56103D01*
X76408Y-56103D01*
G37*
G36*
X76570Y-43329D02*
X76076Y-43329D01*
X76076Y-42929D01*
X76570Y-42929D01*
X76570Y-43329D01*
X76570Y-43329D01*
G37*
G36*
X76570Y-43799D02*
X76076Y-43799D01*
X76076Y-43400D01*
X76570Y-43400D01*
X76570Y-43799D01*
X76570Y-43799D01*
G37*
G36*
X76570Y-44270D02*
X75820Y-44270D01*
X75820Y-43870D01*
X76570Y-43870D01*
X76570Y-44270D01*
X76570Y-44270D01*
G37*
G36*
X76608Y-54441D02*
X76291Y-54441D01*
X76291Y-54046D01*
X76608Y-54046D01*
X76608Y-54441D01*
X76608Y-54441D01*
G37*
G36*
X76608Y-54949D02*
X76291Y-54949D01*
X76291Y-54554D01*
X76608Y-54554D01*
X76608Y-54949D01*
X76608Y-54949D01*
G37*
G36*
X76658Y-49295D02*
X76341Y-49295D01*
X76341Y-48900D01*
X76658Y-48900D01*
X76658Y-49295D01*
X76658Y-49295D01*
G37*
G36*
X76658Y-49803D02*
X76341Y-49803D01*
X76341Y-49408D01*
X76658Y-49408D01*
X76658Y-49803D01*
X76658Y-49803D01*
G37*
G36*
X76715Y-40315D02*
X76084Y-40315D01*
X76084Y-39684D01*
X76715Y-39684D01*
X76715Y-40315D01*
X76715Y-40315D01*
G37*
G36*
X77014Y-48162D02*
X76362Y-48162D01*
X76362Y-47930D01*
X76362Y-47922D01*
X76362Y-47889D01*
X76362Y-47881D01*
X76362Y-47674D01*
X76362Y-47666D01*
X76362Y-47633D01*
X76362Y-47625D01*
X76362Y-47418D01*
X76362Y-47410D01*
X76362Y-47377D01*
X76362Y-47369D01*
X76362Y-47137D01*
X77014Y-47137D01*
X77014Y-47369D01*
X77014Y-47377D01*
X77014Y-47410D01*
X77014Y-47418D01*
X77014Y-47625D01*
X77014Y-47633D01*
X77014Y-47666D01*
X77014Y-47674D01*
X77014Y-47881D01*
X77014Y-47889D01*
X77014Y-47922D01*
X77014Y-47930D01*
X77014Y-48162D01*
X77014Y-48162D01*
G37*
G36*
X77095Y-43758D02*
X76700Y-43758D01*
X76700Y-43441D01*
X77095Y-43441D01*
X77095Y-43758D01*
X77095Y-43758D01*
G37*
G36*
X77208Y-44291D02*
X76891Y-44291D01*
X76891Y-43896D01*
X77208Y-43896D01*
X77208Y-44291D01*
X77208Y-44291D01*
G37*
G36*
X77208Y-44799D02*
X76891Y-44799D01*
X76891Y-44404D01*
X77208Y-44404D01*
X77208Y-44799D01*
X77208Y-44799D01*
G37*
G36*
X77315Y-58970D02*
X77314Y-59038D01*
X77300Y-59101D01*
X77276Y-59155D01*
X77238Y-59208D01*
X77196Y-59248D01*
X77141Y-59283D01*
X77086Y-59304D01*
X77022Y-59315D01*
X76964Y-59314D01*
X76900Y-59300D01*
X76846Y-59277D01*
X76793Y-59240D01*
X76752Y-59197D01*
X76717Y-59143D01*
X76696Y-59088D01*
X76684Y-59024D01*
X76685Y-58966D01*
X76698Y-58902D01*
X76721Y-58848D01*
X76758Y-58795D01*
X76800Y-58754D01*
X76854Y-58718D01*
X76908Y-58696D01*
X76973Y-58684D01*
X77031Y-58684D01*
X77095Y-58698D01*
X77148Y-58720D01*
X77203Y-58757D01*
X77244Y-58798D01*
X77280Y-58853D01*
X77302Y-58906D01*
X77315Y-58970D01*
X77315Y-58970D01*
G37*
G36*
X77476Y-52776D02*
X75723Y-52776D01*
X75723Y-51023D01*
X77476Y-51023D01*
X77476Y-52776D01*
X77476Y-52776D01*
G37*
G36*
X77603Y-43758D02*
X77208Y-43758D01*
X77208Y-43441D01*
X77603Y-43441D01*
X77603Y-43758D01*
X77603Y-43758D01*
G37*
G36*
X77887Y-45172D02*
X77412Y-45172D01*
X77412Y-44697D01*
X77887Y-44697D01*
X77887Y-45172D01*
X77887Y-45172D01*
G37*
G36*
X77887Y-45802D02*
X77412Y-45802D01*
X77412Y-45327D01*
X77887Y-45327D01*
X77887Y-45802D01*
X77887Y-45802D01*
G37*
G36*
X78148Y-56425D02*
X77851Y-56425D01*
X77851Y-56114D01*
X77851Y-56106D01*
X77851Y-56093D01*
X77851Y-56085D01*
X77851Y-55774D01*
X78148Y-55774D01*
X78148Y-56085D01*
X78148Y-56093D01*
X78148Y-56106D01*
X78148Y-56114D01*
X78148Y-56425D01*
X78148Y-56425D01*
G37*
G36*
X78148Y-57325D02*
X77851Y-57325D01*
X77851Y-57014D01*
X77851Y-57006D01*
X77851Y-56993D01*
X77851Y-56985D01*
X77851Y-56674D01*
X78148Y-56674D01*
X78148Y-56985D01*
X78148Y-56993D01*
X78148Y-57006D01*
X78148Y-57014D01*
X78148Y-57325D01*
X78148Y-57325D01*
G37*
G36*
X78315Y-39970D02*
X78314Y-40038D01*
X78300Y-40101D01*
X78276Y-40155D01*
X78238Y-40208D01*
X78196Y-40248D01*
X78141Y-40283D01*
X78086Y-40304D01*
X78022Y-40315D01*
X77964Y-40314D01*
X77900Y-40300D01*
X77846Y-40277D01*
X77793Y-40240D01*
X77752Y-40197D01*
X77717Y-40143D01*
X77696Y-40088D01*
X77684Y-40024D01*
X77685Y-39966D01*
X77698Y-39902D01*
X77721Y-39848D01*
X77758Y-39795D01*
X77800Y-39754D01*
X77854Y-39718D01*
X77908Y-39696D01*
X77973Y-39684D01*
X78031Y-39684D01*
X78095Y-39698D01*
X78148Y-39720D01*
X78203Y-39757D01*
X78244Y-39798D01*
X78280Y-39853D01*
X78302Y-39906D01*
X78315Y-39970D01*
X78315Y-39970D01*
G37*
G36*
X78315Y-58970D02*
X78314Y-59038D01*
X78300Y-59101D01*
X78276Y-59155D01*
X78238Y-59208D01*
X78196Y-59248D01*
X78141Y-59283D01*
X78086Y-59304D01*
X78022Y-59315D01*
X77964Y-59314D01*
X77900Y-59300D01*
X77846Y-59277D01*
X77793Y-59240D01*
X77752Y-59197D01*
X77717Y-59143D01*
X77696Y-59088D01*
X77684Y-59024D01*
X77685Y-58966D01*
X77698Y-58902D01*
X77721Y-58848D01*
X77758Y-58795D01*
X77800Y-58754D01*
X77854Y-58718D01*
X77908Y-58696D01*
X77973Y-58684D01*
X78031Y-58684D01*
X78095Y-58698D01*
X78148Y-58720D01*
X78203Y-58757D01*
X78244Y-58798D01*
X78280Y-58853D01*
X78302Y-58906D01*
X78315Y-58970D01*
X78315Y-58970D01*
G37*
G36*
X78358Y-45095D02*
X78041Y-45095D01*
X78041Y-44700D01*
X78358Y-44700D01*
X78358Y-45095D01*
X78358Y-45095D01*
G37*
G36*
X78358Y-45603D02*
X78041Y-45603D01*
X78041Y-45208D01*
X78358Y-45208D01*
X78358Y-45603D01*
X78358Y-45603D01*
G37*
G36*
X78569Y-53471D02*
X78195Y-53471D01*
X78187Y-53471D01*
X78180Y-53474D01*
X78174Y-53480D01*
X78171Y-53487D01*
X78171Y-53495D01*
X78171Y-53869D01*
X78154Y-53869D01*
X78154Y-53438D01*
X78154Y-53430D01*
X78154Y-53298D01*
X78154Y-53290D01*
X78154Y-53265D01*
X78154Y-53257D01*
X78154Y-53101D01*
X78154Y-53093D01*
X78154Y-53068D01*
X78154Y-53060D01*
X78154Y-52904D01*
X78154Y-52897D01*
X78154Y-52871D01*
X78154Y-52863D01*
X78154Y-52707D01*
X78154Y-52700D01*
X78154Y-52674D01*
X78154Y-52666D01*
X78154Y-52511D01*
X78154Y-52503D01*
X78154Y-52477D01*
X78154Y-52469D01*
X78154Y-52314D01*
X78154Y-52306D01*
X78154Y-52280D01*
X78154Y-52273D01*
X78154Y-52117D01*
X78154Y-52109D01*
X78154Y-52084D01*
X78154Y-52076D01*
X78154Y-51920D01*
X78154Y-51912D01*
X78154Y-51887D01*
X78154Y-51879D01*
X78154Y-51723D01*
X78154Y-51715D01*
X78154Y-51690D01*
X78154Y-51682D01*
X78154Y-51526D01*
X78154Y-51519D01*
X78154Y-51493D01*
X78154Y-51485D01*
X78154Y-51330D01*
X78154Y-51322D01*
X78154Y-51296D01*
X78154Y-51288D01*
X78154Y-51133D01*
X78154Y-51125D01*
X78154Y-51099D01*
X78154Y-51092D01*
X78154Y-50936D01*
X78154Y-50928D01*
X78154Y-50902D01*
X78154Y-50895D01*
X78154Y-50739D01*
X78154Y-50731D01*
X78154Y-50706D01*
X78154Y-50698D01*
X78154Y-50542D01*
X78154Y-50534D01*
X78154Y-50509D01*
X78154Y-50501D01*
X78154Y-50369D01*
X78154Y-50361D01*
X78151Y-50354D01*
X78145Y-50348D01*
X78138Y-50345D01*
X78130Y-50345D01*
X77998Y-50345D01*
X77990Y-50345D01*
X77965Y-50345D01*
X77957Y-50345D01*
X77801Y-50345D01*
X77793Y-50345D01*
X77768Y-50345D01*
X77760Y-50345D01*
X77604Y-50345D01*
X77597Y-50345D01*
X77571Y-50345D01*
X77563Y-50345D01*
X77407Y-50345D01*
X77400Y-50345D01*
X77374Y-50345D01*
X77366Y-50345D01*
X77211Y-50345D01*
X77203Y-50345D01*
X77177Y-50345D01*
X77169Y-50345D01*
X77014Y-50345D01*
X77006Y-50345D01*
X76980Y-50345D01*
X76973Y-50345D01*
X76817Y-50345D01*
X76809Y-50345D01*
X76784Y-50345D01*
X76776Y-50345D01*
X76620Y-50345D01*
X76612Y-50345D01*
X76587Y-50345D01*
X76579Y-50345D01*
X76423Y-50345D01*
X76415Y-50345D01*
X76390Y-50345D01*
X76382Y-50345D01*
X76226Y-50345D01*
X76219Y-50345D01*
X76193Y-50345D01*
X76185Y-50345D01*
X76030Y-50345D01*
X76022Y-50345D01*
X75996Y-50345D01*
X75988Y-50345D01*
X75833Y-50345D01*
X75825Y-50345D01*
X75799Y-50345D01*
X75792Y-50345D01*
X75636Y-50345D01*
X75628Y-50345D01*
X75602Y-50345D01*
X75595Y-50345D01*
X75439Y-50345D01*
X75431Y-50345D01*
X75406Y-50345D01*
X75398Y-50345D01*
X75242Y-50345D01*
X75234Y-50345D01*
X75209Y-50345D01*
X75201Y-50345D01*
X75069Y-50345D01*
X75061Y-50345D01*
X75054Y-50348D01*
X75048Y-50354D01*
X75045Y-50361D01*
X75045Y-50369D01*
X75045Y-50501D01*
X75045Y-50509D01*
X75045Y-50534D01*
X75045Y-50542D01*
X75045Y-50698D01*
X75045Y-50706D01*
X75045Y-50731D01*
X75045Y-50739D01*
X75045Y-50895D01*
X75045Y-50902D01*
X75045Y-50928D01*
X75045Y-50936D01*
X75045Y-51092D01*
X75045Y-51099D01*
X75045Y-51125D01*
X75045Y-51133D01*
X75045Y-51288D01*
X75045Y-51296D01*
X75045Y-51322D01*
X75045Y-51330D01*
X75045Y-51485D01*
X75045Y-51493D01*
X75045Y-51519D01*
X75045Y-51526D01*
X75045Y-51682D01*
X75045Y-51690D01*
X75045Y-51715D01*
X75045Y-51723D01*
X75045Y-51879D01*
X75045Y-51887D01*
X75045Y-51912D01*
X75045Y-51920D01*
X75045Y-52076D01*
X75045Y-52084D01*
X75045Y-52109D01*
X75045Y-52117D01*
X75045Y-52273D01*
X75045Y-52280D01*
X75045Y-52306D01*
X75045Y-52314D01*
X75045Y-52469D01*
X75045Y-52477D01*
X75045Y-52503D01*
X75045Y-52511D01*
X75045Y-52666D01*
X75045Y-52674D01*
X75045Y-52700D01*
X75045Y-52707D01*
X75045Y-52863D01*
X75045Y-52871D01*
X75045Y-52897D01*
X75045Y-52904D01*
X75045Y-53060D01*
X75045Y-53068D01*
X75045Y-53093D01*
X75045Y-53101D01*
X75045Y-53257D01*
X75045Y-53265D01*
X75045Y-53290D01*
X75045Y-53298D01*
X75045Y-53430D01*
X75045Y-53438D01*
X75048Y-53445D01*
X75054Y-53451D01*
X75061Y-53454D01*
X75069Y-53454D01*
X75201Y-53454D01*
X75209Y-53454D01*
X75234Y-53454D01*
X75242Y-53454D01*
X75398Y-53454D01*
X75406Y-53454D01*
X75431Y-53454D01*
X75439Y-53454D01*
X75595Y-53454D01*
X75602Y-53454D01*
X75628Y-53454D01*
X75636Y-53454D01*
X75792Y-53454D01*
X75799Y-53454D01*
X75825Y-53454D01*
X75833Y-53454D01*
X75988Y-53454D01*
X75996Y-53454D01*
X76022Y-53454D01*
X76030Y-53454D01*
X76185Y-53454D01*
X76193Y-53454D01*
X76219Y-53454D01*
X76226Y-53454D01*
X76382Y-53454D01*
X76390Y-53454D01*
X76415Y-53454D01*
X76423Y-53454D01*
X76579Y-53454D01*
X76587Y-53454D01*
X76612Y-53454D01*
X76620Y-53454D01*
X76776Y-53454D01*
X76784Y-53454D01*
X76809Y-53454D01*
X76817Y-53454D01*
X76973Y-53454D01*
X76980Y-53454D01*
X77006Y-53454D01*
X77014Y-53454D01*
X77169Y-53454D01*
X77177Y-53454D01*
X77203Y-53454D01*
X77211Y-53454D01*
X77366Y-53454D01*
X77374Y-53454D01*
X77400Y-53454D01*
X77407Y-53454D01*
X77563Y-53454D01*
X77571Y-53454D01*
X77597Y-53454D01*
X77604Y-53454D01*
X77760Y-53454D01*
X77768Y-53454D01*
X77793Y-53454D01*
X77801Y-53454D01*
X77957Y-53454D01*
X77965Y-53454D01*
X77990Y-53454D01*
X77998Y-53454D01*
X78130Y-53454D01*
X78138Y-53454D01*
X78145Y-53451D01*
X78151Y-53445D01*
X78154Y-53438D01*
X78154Y-53869D01*
X78138Y-53869D01*
X78130Y-53869D01*
X77998Y-53869D01*
X77990Y-53869D01*
X77965Y-53869D01*
X77957Y-53869D01*
X77801Y-53869D01*
X77793Y-53869D01*
X77768Y-53869D01*
X77760Y-53869D01*
X77604Y-53869D01*
X77597Y-53869D01*
X77571Y-53869D01*
X77563Y-53869D01*
X77407Y-53869D01*
X77400Y-53869D01*
X77374Y-53869D01*
X77366Y-53869D01*
X77211Y-53869D01*
X77203Y-53869D01*
X77177Y-53869D01*
X77169Y-53869D01*
X77014Y-53869D01*
X77006Y-53869D01*
X76980Y-53869D01*
X76973Y-53869D01*
X76817Y-53869D01*
X76809Y-53869D01*
X76784Y-53869D01*
X76776Y-53869D01*
X76620Y-53869D01*
X76612Y-53869D01*
X76587Y-53869D01*
X76579Y-53869D01*
X76423Y-53869D01*
X76415Y-53869D01*
X76390Y-53869D01*
X76382Y-53869D01*
X76226Y-53869D01*
X76219Y-53869D01*
X76193Y-53869D01*
X76185Y-53869D01*
X76030Y-53869D01*
X76022Y-53869D01*
X75996Y-53869D01*
X75988Y-53869D01*
X75833Y-53869D01*
X75825Y-53869D01*
X75799Y-53869D01*
X75792Y-53869D01*
X75636Y-53869D01*
X75628Y-53869D01*
X75602Y-53869D01*
X75595Y-53869D01*
X75439Y-53869D01*
X75431Y-53869D01*
X75406Y-53869D01*
X75398Y-53869D01*
X75242Y-53869D01*
X75234Y-53869D01*
X75209Y-53869D01*
X75201Y-53869D01*
X75028Y-53869D01*
X75028Y-53495D01*
X75028Y-53487D01*
X75025Y-53480D01*
X75019Y-53474D01*
X75012Y-53471D01*
X75004Y-53471D01*
X74630Y-53471D01*
X74630Y-53298D01*
X74630Y-53290D01*
X74630Y-53265D01*
X74630Y-53257D01*
X74630Y-53101D01*
X74630Y-53093D01*
X74630Y-53068D01*
X74630Y-53060D01*
X74630Y-52904D01*
X74630Y-52897D01*
X74630Y-52871D01*
X74630Y-52863D01*
X74630Y-52707D01*
X74630Y-52700D01*
X74630Y-52674D01*
X74630Y-52666D01*
X74630Y-52511D01*
X74630Y-52503D01*
X74630Y-52477D01*
X74630Y-52469D01*
X74630Y-52314D01*
X74630Y-52306D01*
X74630Y-52280D01*
X74630Y-52273D01*
X74630Y-52117D01*
X74630Y-52109D01*
X74630Y-52084D01*
X74630Y-52076D01*
X74630Y-51920D01*
X74630Y-51912D01*
X74630Y-51887D01*
X74630Y-51879D01*
X74630Y-51723D01*
X74630Y-51715D01*
X74630Y-51690D01*
X74630Y-51682D01*
X74630Y-51526D01*
X74630Y-51519D01*
X74630Y-51493D01*
X74630Y-51485D01*
X74630Y-51330D01*
X74630Y-51322D01*
X74630Y-51296D01*
X74630Y-51288D01*
X74630Y-51133D01*
X74630Y-51125D01*
X74630Y-51099D01*
X74630Y-51092D01*
X74630Y-50936D01*
X74630Y-50928D01*
X74630Y-50902D01*
X74630Y-50895D01*
X74630Y-50739D01*
X74630Y-50731D01*
X74630Y-50706D01*
X74630Y-50698D01*
X74630Y-50542D01*
X74630Y-50534D01*
X74630Y-50509D01*
X74630Y-50501D01*
X74630Y-50328D01*
X75004Y-50328D01*
X75012Y-50328D01*
X75019Y-50325D01*
X75025Y-50319D01*
X75028Y-50312D01*
X75028Y-50304D01*
X75028Y-49930D01*
X75201Y-49930D01*
X75209Y-49930D01*
X75234Y-49930D01*
X75242Y-49930D01*
X75398Y-49930D01*
X75406Y-49930D01*
X75431Y-49930D01*
X75439Y-49930D01*
X75595Y-49930D01*
X75602Y-49930D01*
X75628Y-49930D01*
X75636Y-49930D01*
X75792Y-49930D01*
X75799Y-49930D01*
X75825Y-49930D01*
X75833Y-49930D01*
X75988Y-49930D01*
X75996Y-49930D01*
X76022Y-49930D01*
X76030Y-49930D01*
X76185Y-49930D01*
X76193Y-49930D01*
X76219Y-49930D01*
X76226Y-49930D01*
X76382Y-49930D01*
X76390Y-49930D01*
X76415Y-49930D01*
X76423Y-49930D01*
X76579Y-49930D01*
X76587Y-49930D01*
X76612Y-49930D01*
X76620Y-49930D01*
X76776Y-49930D01*
X76784Y-49930D01*
X76809Y-49930D01*
X76817Y-49930D01*
X76973Y-49930D01*
X76980Y-49930D01*
X77006Y-49930D01*
X77014Y-49930D01*
X77169Y-49930D01*
X77177Y-49930D01*
X77203Y-49930D01*
X77211Y-49930D01*
X77366Y-49930D01*
X77374Y-49930D01*
X77400Y-49930D01*
X77407Y-49930D01*
X77563Y-49930D01*
X77571Y-49930D01*
X77597Y-49930D01*
X77604Y-49930D01*
X77760Y-49930D01*
X77768Y-49930D01*
X77793Y-49930D01*
X77801Y-49930D01*
X77957Y-49930D01*
X77965Y-49930D01*
X77990Y-49930D01*
X77998Y-49930D01*
X78171Y-49930D01*
X78171Y-50304D01*
X78171Y-50312D01*
X78174Y-50319D01*
X78180Y-50325D01*
X78187Y-50328D01*
X78195Y-50328D01*
X78569Y-50328D01*
X78569Y-50501D01*
X78569Y-50509D01*
X78569Y-50534D01*
X78569Y-50542D01*
X78569Y-50698D01*
X78569Y-50706D01*
X78569Y-50731D01*
X78569Y-50739D01*
X78569Y-50895D01*
X78569Y-50902D01*
X78569Y-50928D01*
X78569Y-50936D01*
X78569Y-51092D01*
X78569Y-51099D01*
X78569Y-51125D01*
X78569Y-51133D01*
X78569Y-51288D01*
X78569Y-51296D01*
X78569Y-51322D01*
X78569Y-51330D01*
X78569Y-51485D01*
X78569Y-51493D01*
X78569Y-51519D01*
X78569Y-51526D01*
X78569Y-51682D01*
X78569Y-51690D01*
X78569Y-51715D01*
X78569Y-51723D01*
X78569Y-51879D01*
X78569Y-51887D01*
X78569Y-51912D01*
X78569Y-51920D01*
X78569Y-52076D01*
X78569Y-52084D01*
X78569Y-52109D01*
X78569Y-52117D01*
X78569Y-52273D01*
X78569Y-52280D01*
X78569Y-52306D01*
X78569Y-52314D01*
X78569Y-52469D01*
X78569Y-52477D01*
X78569Y-52503D01*
X78569Y-52511D01*
X78569Y-52666D01*
X78569Y-52674D01*
X78569Y-52700D01*
X78569Y-52707D01*
X78569Y-52863D01*
X78569Y-52871D01*
X78569Y-52897D01*
X78569Y-52904D01*
X78569Y-53060D01*
X78569Y-53068D01*
X78569Y-53093D01*
X78569Y-53101D01*
X78569Y-53257D01*
X78569Y-53265D01*
X78569Y-53290D01*
X78569Y-53298D01*
X78569Y-53471D01*
X78569Y-53471D01*
G37*
G36*
X78598Y-57325D02*
X78301Y-57325D01*
X78301Y-57014D01*
X78301Y-57006D01*
X78301Y-56993D01*
X78301Y-56985D01*
X78301Y-56674D01*
X78598Y-56674D01*
X78598Y-56985D01*
X78598Y-56993D01*
X78598Y-57006D01*
X78598Y-57014D01*
X78598Y-57325D01*
X78598Y-57325D01*
G37*
G36*
X78787Y-55872D02*
X78312Y-55872D01*
X78312Y-55397D01*
X78787Y-55397D01*
X78787Y-55872D01*
X78787Y-55872D01*
G37*
G36*
X78787Y-56502D02*
X78312Y-56502D01*
X78312Y-56027D01*
X78787Y-56027D01*
X78787Y-56502D01*
X78787Y-56502D01*
G37*
G36*
X78798Y-45375D02*
X78501Y-45375D01*
X78501Y-45064D01*
X78501Y-45056D01*
X78501Y-45043D01*
X78501Y-45035D01*
X78501Y-44724D01*
X78798Y-44724D01*
X78798Y-45035D01*
X78798Y-45043D01*
X78798Y-45056D01*
X78798Y-45064D01*
X78798Y-45375D01*
X78798Y-45375D01*
G37*
G36*
X79091Y-51508D02*
X78696Y-51508D01*
X78696Y-51191D01*
X79091Y-51191D01*
X79091Y-51508D01*
X79091Y-51508D01*
G37*
G36*
X79158Y-46495D02*
X78841Y-46495D01*
X78841Y-46100D01*
X79158Y-46100D01*
X79158Y-46495D01*
X79158Y-46495D01*
G37*
G36*
X79158Y-47003D02*
X78841Y-47003D01*
X78841Y-46608D01*
X79158Y-46608D01*
X79158Y-47003D01*
X79158Y-47003D01*
G37*
G36*
X79172Y-52137D02*
X78697Y-52137D01*
X78697Y-51662D01*
X79172Y-51662D01*
X79172Y-52137D01*
X79172Y-52137D01*
G37*
G36*
X79258Y-45095D02*
X78941Y-45095D01*
X78941Y-44700D01*
X79258Y-44700D01*
X79258Y-45095D01*
X79258Y-45095D01*
G37*
G36*
X79258Y-45603D02*
X78941Y-45603D01*
X78941Y-45208D01*
X79258Y-45208D01*
X79258Y-45603D01*
X79258Y-45603D01*
G37*
G36*
X79295Y-42408D02*
X78900Y-42408D01*
X78900Y-42091D01*
X79295Y-42091D01*
X79295Y-42408D01*
X79295Y-42408D01*
G37*
G36*
X79315Y-39970D02*
X79314Y-40038D01*
X79300Y-40101D01*
X79276Y-40155D01*
X79238Y-40208D01*
X79196Y-40248D01*
X79141Y-40283D01*
X79086Y-40304D01*
X79022Y-40315D01*
X78964Y-40314D01*
X78900Y-40300D01*
X78846Y-40277D01*
X78793Y-40240D01*
X78752Y-40197D01*
X78717Y-40143D01*
X78696Y-40088D01*
X78684Y-40024D01*
X78685Y-39966D01*
X78698Y-39902D01*
X78721Y-39848D01*
X78758Y-39795D01*
X78800Y-39754D01*
X78854Y-39718D01*
X78908Y-39696D01*
X78973Y-39684D01*
X79031Y-39684D01*
X79095Y-39698D01*
X79148Y-39720D01*
X79203Y-39757D01*
X79244Y-39798D01*
X79280Y-39853D01*
X79302Y-39906D01*
X79315Y-39970D01*
X79315Y-39970D01*
G37*
G36*
X79337Y-48162D02*
X78685Y-48162D01*
X78685Y-47930D01*
X78685Y-47922D01*
X78685Y-47889D01*
X78685Y-47881D01*
X78685Y-47674D01*
X78685Y-47666D01*
X78685Y-47633D01*
X78685Y-47625D01*
X78685Y-47418D01*
X78685Y-47410D01*
X78685Y-47377D01*
X78685Y-47369D01*
X78685Y-47137D01*
X79337Y-47137D01*
X79337Y-47369D01*
X79337Y-47377D01*
X79337Y-47410D01*
X79337Y-47418D01*
X79337Y-47625D01*
X79337Y-47633D01*
X79337Y-47666D01*
X79337Y-47674D01*
X79337Y-47881D01*
X79337Y-47889D01*
X79337Y-47922D01*
X79337Y-47930D01*
X79337Y-48162D01*
X79337Y-48162D01*
G37*
G36*
X79472Y-51037D02*
X78997Y-51037D01*
X78997Y-50562D01*
X79472Y-50562D01*
X79472Y-51037D01*
X79472Y-51037D01*
G37*
G36*
X79599Y-51508D02*
X79204Y-51508D01*
X79204Y-51191D01*
X79599Y-51191D01*
X79599Y-51508D01*
X79599Y-51508D01*
G37*
G36*
X79648Y-57175D02*
X79351Y-57175D01*
X79351Y-56864D01*
X79351Y-56856D01*
X79351Y-56843D01*
X79351Y-56835D01*
X79351Y-56524D01*
X79648Y-56524D01*
X79648Y-56835D01*
X79648Y-56843D01*
X79648Y-56856D01*
X79648Y-56864D01*
X79648Y-57175D01*
X79648Y-57175D01*
G37*
G36*
X79695Y-44053D02*
X79294Y-44053D01*
X79286Y-44053D01*
X79279Y-44056D01*
X79273Y-44061D01*
X79210Y-44124D01*
X79210Y-43798D01*
X79210Y-43791D01*
X79210Y-43554D01*
X79210Y-43552D01*
X79210Y-43547D01*
X79210Y-43545D01*
X79210Y-43298D01*
X79210Y-43297D01*
X79210Y-43291D01*
X79210Y-43289D01*
X79210Y-43158D01*
X79210Y-43150D01*
X79207Y-43143D01*
X79202Y-43137D01*
X79201Y-43137D01*
X79196Y-43131D01*
X79189Y-43128D01*
X79181Y-43128D01*
X79174Y-43131D01*
X79168Y-43137D01*
X79165Y-43144D01*
X79165Y-43152D01*
X79165Y-43791D01*
X79165Y-43798D01*
X79168Y-43806D01*
X79174Y-43811D01*
X79181Y-43814D01*
X79187Y-43814D01*
X79189Y-43814D01*
X79195Y-43814D01*
X79202Y-43811D01*
X79207Y-43806D01*
X79210Y-43798D01*
X79210Y-44124D01*
X79202Y-44132D01*
X79197Y-44138D01*
X79194Y-44145D01*
X79194Y-44153D01*
X79194Y-44536D01*
X79187Y-44536D01*
X79121Y-44536D01*
X79121Y-44039D01*
X79121Y-44031D01*
X79121Y-43068D01*
X79121Y-43060D01*
X79118Y-43053D01*
X79112Y-43048D01*
X79112Y-43047D01*
X79106Y-43042D01*
X79099Y-43039D01*
X79091Y-43039D01*
X78960Y-43039D01*
X78958Y-43039D01*
X78952Y-43039D01*
X78951Y-43039D01*
X78704Y-43039D01*
X78702Y-43039D01*
X78697Y-43039D01*
X78695Y-43039D01*
X78448Y-43039D01*
X78447Y-43039D01*
X78441Y-43039D01*
X78439Y-43039D01*
X78308Y-43039D01*
X78300Y-43039D01*
X78293Y-43042D01*
X78287Y-43047D01*
X78287Y-43048D01*
X78281Y-43053D01*
X78278Y-43060D01*
X78278Y-43068D01*
X78281Y-43075D01*
X78287Y-43081D01*
X78294Y-43084D01*
X78302Y-43084D01*
X79097Y-43084D01*
X79105Y-43084D01*
X79112Y-43081D01*
X79118Y-43075D01*
X79121Y-43068D01*
X79121Y-44031D01*
X79118Y-44024D01*
X79112Y-44018D01*
X79105Y-44015D01*
X79097Y-44015D01*
X78302Y-44015D01*
X78294Y-44015D01*
X78287Y-44018D01*
X78281Y-44024D01*
X78278Y-44031D01*
X78278Y-44039D01*
X78281Y-44046D01*
X78287Y-44051D01*
X78287Y-44052D01*
X78293Y-44057D01*
X78300Y-44060D01*
X78308Y-44060D01*
X78439Y-44060D01*
X78441Y-44060D01*
X78447Y-44060D01*
X78448Y-44060D01*
X78695Y-44060D01*
X78697Y-44060D01*
X78702Y-44060D01*
X78704Y-44060D01*
X78950Y-44060D01*
X78957Y-44060D01*
X78960Y-44059D01*
X79092Y-44059D01*
X79100Y-44059D01*
X79107Y-44056D01*
X79112Y-44051D01*
X79113Y-44051D01*
X79118Y-44046D01*
X79121Y-44039D01*
X79121Y-44536D01*
X79105Y-44536D01*
X79097Y-44536D01*
X78960Y-44536D01*
X78957Y-44535D01*
X78950Y-44535D01*
X78704Y-44535D01*
X78702Y-44535D01*
X78697Y-44535D01*
X78695Y-44535D01*
X78448Y-44535D01*
X78447Y-44535D01*
X78441Y-44535D01*
X78439Y-44535D01*
X78234Y-44535D01*
X78234Y-43955D01*
X78234Y-43947D01*
X78234Y-43152D01*
X78234Y-43144D01*
X78231Y-43137D01*
X78225Y-43131D01*
X78218Y-43128D01*
X78210Y-43128D01*
X78203Y-43131D01*
X78198Y-43137D01*
X78197Y-43137D01*
X78192Y-43143D01*
X78189Y-43150D01*
X78189Y-43158D01*
X78189Y-43289D01*
X78189Y-43291D01*
X78189Y-43297D01*
X78189Y-43298D01*
X78189Y-43545D01*
X78189Y-43547D01*
X78189Y-43552D01*
X78189Y-43554D01*
X78189Y-43801D01*
X78189Y-43802D01*
X78189Y-43808D01*
X78189Y-43810D01*
X78189Y-43941D01*
X78189Y-43949D01*
X78192Y-43956D01*
X78197Y-43962D01*
X78198Y-43962D01*
X78203Y-43968D01*
X78210Y-43971D01*
X78218Y-43971D01*
X78225Y-43968D01*
X78231Y-43962D01*
X78234Y-43955D01*
X78234Y-44535D01*
X78218Y-44535D01*
X78210Y-44535D01*
X78206Y-44535D01*
X78206Y-44154D01*
X78206Y-44146D01*
X78203Y-44139D01*
X78198Y-44133D01*
X78116Y-44051D01*
X78110Y-44046D01*
X78103Y-44043D01*
X78095Y-44043D01*
X77714Y-44043D01*
X77714Y-43810D01*
X77714Y-43808D01*
X77714Y-43802D01*
X77714Y-43801D01*
X77714Y-43554D01*
X77714Y-43552D01*
X77714Y-43547D01*
X77714Y-43545D01*
X77714Y-43298D01*
X77714Y-43297D01*
X77714Y-43291D01*
X77714Y-43289D01*
X77714Y-43056D01*
X78095Y-43056D01*
X78103Y-43056D01*
X78110Y-43053D01*
X78116Y-43048D01*
X78198Y-42966D01*
X78203Y-42960D01*
X78206Y-42953D01*
X78206Y-42945D01*
X78206Y-42564D01*
X78439Y-42564D01*
X78441Y-42564D01*
X78447Y-42564D01*
X78448Y-42564D01*
X78695Y-42564D01*
X78697Y-42564D01*
X78702Y-42564D01*
X78704Y-42564D01*
X78951Y-42564D01*
X78952Y-42564D01*
X78958Y-42564D01*
X78960Y-42564D01*
X79193Y-42564D01*
X79193Y-42945D01*
X79193Y-42953D01*
X79196Y-42960D01*
X79201Y-42966D01*
X79283Y-43048D01*
X79289Y-43053D01*
X79296Y-43056D01*
X79304Y-43056D01*
X79685Y-43056D01*
X79685Y-43289D01*
X79685Y-43291D01*
X79685Y-43297D01*
X79685Y-43298D01*
X79685Y-43545D01*
X79685Y-43547D01*
X79685Y-43552D01*
X79685Y-43554D01*
X79685Y-43791D01*
X79685Y-43798D01*
X79688Y-43806D01*
X79693Y-43811D01*
X79695Y-43812D01*
X79695Y-44053D01*
X79695Y-44053D01*
G37*
G36*
X79802Y-52137D02*
X79327Y-52137D01*
X79327Y-51662D01*
X79802Y-51662D01*
X79802Y-52137D01*
X79802Y-52137D01*
G37*
G36*
X79803Y-42408D02*
X79408Y-42408D01*
X79408Y-42091D01*
X79803Y-42091D01*
X79803Y-42408D01*
X79803Y-42408D01*
G37*
G36*
X79887Y-45172D02*
X79412Y-45172D01*
X79412Y-44697D01*
X79887Y-44697D01*
X79887Y-45172D01*
X79887Y-45172D01*
G37*
G36*
X79887Y-45802D02*
X79412Y-45802D01*
X79412Y-45327D01*
X79887Y-45327D01*
X79887Y-45802D01*
X79887Y-45802D01*
G37*
G36*
X80102Y-51037D02*
X79627Y-51037D01*
X79627Y-50562D01*
X80102Y-50562D01*
X80102Y-51037D01*
X80102Y-51037D01*
G37*
G36*
X80195Y-42908D02*
X79800Y-42908D01*
X79800Y-42591D01*
X80195Y-42591D01*
X80195Y-42908D01*
X80195Y-42908D01*
G37*
G36*
X80237Y-56972D02*
X79762Y-56972D01*
X79762Y-56497D01*
X80237Y-56497D01*
X80237Y-56972D01*
X80237Y-56972D01*
G37*
G36*
X80237Y-57602D02*
X79762Y-57602D01*
X79762Y-57127D01*
X80237Y-57127D01*
X80237Y-57602D01*
X80237Y-57602D01*
G37*
G36*
X80257Y-43977D02*
X79842Y-43977D01*
X79842Y-43651D01*
X80257Y-43651D01*
X80257Y-43977D01*
X80257Y-43977D01*
G37*
G36*
X80257Y-44548D02*
X79842Y-44548D01*
X79842Y-44222D01*
X80257Y-44222D01*
X80257Y-44548D01*
X80257Y-44548D01*
G37*
G36*
X80315Y-39970D02*
X80314Y-40038D01*
X80300Y-40101D01*
X80276Y-40155D01*
X80238Y-40208D01*
X80196Y-40248D01*
X80141Y-40283D01*
X80086Y-40304D01*
X80022Y-40315D01*
X79964Y-40314D01*
X79900Y-40300D01*
X79846Y-40277D01*
X79793Y-40240D01*
X79752Y-40197D01*
X79717Y-40143D01*
X79696Y-40088D01*
X79684Y-40024D01*
X79685Y-39966D01*
X79698Y-39902D01*
X79721Y-39848D01*
X79758Y-39795D01*
X79800Y-39754D01*
X79854Y-39718D01*
X79908Y-39696D01*
X79973Y-39684D01*
X80031Y-39684D01*
X80095Y-39698D01*
X80148Y-39720D01*
X80203Y-39757D01*
X80244Y-39798D01*
X80280Y-39853D01*
X80302Y-39906D01*
X80315Y-39970D01*
X80315Y-39970D01*
G37*
G36*
X80315Y-59315D02*
X79684Y-59315D01*
X79684Y-58684D01*
X80315Y-58684D01*
X80315Y-59315D01*
X80315Y-59315D01*
G37*
G36*
X80648Y-57175D02*
X80351Y-57175D01*
X80351Y-56864D01*
X80351Y-56856D01*
X80351Y-56843D01*
X80351Y-56835D01*
X80351Y-56524D01*
X80648Y-56524D01*
X80648Y-56835D01*
X80648Y-56843D01*
X80648Y-56856D01*
X80648Y-56864D01*
X80648Y-57175D01*
X80648Y-57175D01*
G37*
G36*
X80703Y-42908D02*
X80308Y-42908D01*
X80308Y-42591D01*
X80703Y-42591D01*
X80703Y-42908D01*
X80703Y-42908D01*
G37*
G36*
X80745Y-43958D02*
X80350Y-43958D01*
X80350Y-43641D01*
X80745Y-43641D01*
X80745Y-43958D01*
X80745Y-43958D01*
G37*
G36*
X80808Y-49132D02*
X80491Y-49132D01*
X80491Y-48441D01*
X80808Y-48441D01*
X80808Y-49132D01*
X80808Y-49132D01*
G37*
G36*
X80808Y-51258D02*
X80491Y-51258D01*
X80491Y-50567D01*
X80808Y-50567D01*
X80808Y-51258D01*
X80808Y-51258D01*
G37*
G36*
X81158Y-42995D02*
X80841Y-42995D01*
X80841Y-42600D01*
X81158Y-42600D01*
X81158Y-42995D01*
X81158Y-42995D01*
G37*
G36*
X81158Y-43503D02*
X80841Y-43503D01*
X80841Y-43108D01*
X81158Y-43108D01*
X81158Y-43503D01*
X81158Y-43503D01*
G37*
G36*
X81237Y-56972D02*
X80762Y-56972D01*
X80762Y-56497D01*
X81237Y-56497D01*
X81237Y-56972D01*
X81237Y-56972D01*
G37*
G36*
X81237Y-57602D02*
X80762Y-57602D01*
X80762Y-57127D01*
X81237Y-57127D01*
X81237Y-57602D01*
X81237Y-57602D01*
G37*
G36*
X81253Y-43958D02*
X80858Y-43958D01*
X80858Y-43641D01*
X81253Y-43641D01*
X81253Y-43958D01*
X81253Y-43958D01*
G37*
G36*
X81298Y-48275D02*
X81001Y-48275D01*
X81001Y-47964D01*
X81001Y-47956D01*
X81001Y-47943D01*
X81001Y-47935D01*
X81001Y-47624D01*
X81298Y-47624D01*
X81298Y-47935D01*
X81298Y-47943D01*
X81298Y-47956D01*
X81298Y-47964D01*
X81298Y-48275D01*
X81298Y-48275D01*
G37*
G36*
X81308Y-49132D02*
X80991Y-49132D01*
X80991Y-48441D01*
X81308Y-48441D01*
X81308Y-49132D01*
X81308Y-49132D01*
G37*
G36*
X81308Y-51258D02*
X80991Y-51258D01*
X80991Y-50567D01*
X81308Y-50567D01*
X81308Y-51258D01*
X81308Y-51258D01*
G37*
G36*
X81315Y-39970D02*
X81314Y-40038D01*
X81300Y-40101D01*
X81276Y-40155D01*
X81238Y-40208D01*
X81196Y-40248D01*
X81141Y-40283D01*
X81086Y-40304D01*
X81022Y-40315D01*
X80964Y-40314D01*
X80900Y-40300D01*
X80846Y-40277D01*
X80793Y-40240D01*
X80752Y-40197D01*
X80717Y-40143D01*
X80696Y-40088D01*
X80684Y-40024D01*
X80685Y-39966D01*
X80698Y-39902D01*
X80721Y-39848D01*
X80758Y-39795D01*
X80800Y-39754D01*
X80854Y-39718D01*
X80908Y-39696D01*
X80973Y-39684D01*
X81031Y-39684D01*
X81095Y-39698D01*
X81148Y-39720D01*
X81203Y-39757D01*
X81244Y-39798D01*
X81280Y-39853D01*
X81302Y-39906D01*
X81315Y-39970D01*
X81315Y-39970D01*
G37*
G36*
X81315Y-58970D02*
X81314Y-59038D01*
X81300Y-59101D01*
X81276Y-59155D01*
X81238Y-59208D01*
X81196Y-59248D01*
X81141Y-59283D01*
X81086Y-59304D01*
X81022Y-59315D01*
X80964Y-59314D01*
X80900Y-59300D01*
X80846Y-59277D01*
X80793Y-59240D01*
X80752Y-59197D01*
X80717Y-59143D01*
X80696Y-59088D01*
X80684Y-59024D01*
X80685Y-58966D01*
X80698Y-58902D01*
X80721Y-58848D01*
X80758Y-58795D01*
X80800Y-58754D01*
X80854Y-58718D01*
X80908Y-58696D01*
X80973Y-58684D01*
X81031Y-58684D01*
X81095Y-58698D01*
X81148Y-58720D01*
X81203Y-58757D01*
X81244Y-58798D01*
X81280Y-58853D01*
X81302Y-58906D01*
X81315Y-58970D01*
X81315Y-58970D01*
G37*
G36*
X81658Y-43445D02*
X81341Y-43445D01*
X81341Y-43050D01*
X81658Y-43050D01*
X81658Y-43445D01*
X81658Y-43445D01*
G37*
G36*
X81658Y-43953D02*
X81341Y-43953D01*
X81341Y-43558D01*
X81658Y-43558D01*
X81658Y-43953D01*
X81658Y-43953D01*
G37*
G36*
X81808Y-49132D02*
X81491Y-49132D01*
X81491Y-48441D01*
X81808Y-48441D01*
X81808Y-49132D01*
X81808Y-49132D01*
G37*
G36*
X81808Y-51258D02*
X81491Y-51258D01*
X81491Y-50567D01*
X81808Y-50567D01*
X81808Y-51258D01*
X81808Y-51258D01*
G37*
G36*
X82145Y-43958D02*
X81750Y-43958D01*
X81750Y-43641D01*
X82145Y-43641D01*
X82145Y-43958D01*
X82145Y-43958D01*
G37*
G36*
X82237Y-56972D02*
X81762Y-56972D01*
X81762Y-56497D01*
X82237Y-56497D01*
X82237Y-56972D01*
X82237Y-56972D01*
G37*
G36*
X82237Y-57602D02*
X81762Y-57602D01*
X81762Y-57127D01*
X82237Y-57127D01*
X82237Y-57602D01*
X82237Y-57602D01*
G37*
G36*
X82308Y-49132D02*
X81991Y-49132D01*
X81991Y-48441D01*
X82308Y-48441D01*
X82308Y-49132D01*
X82308Y-49132D01*
G37*
G36*
X82308Y-51258D02*
X81991Y-51258D01*
X81991Y-50567D01*
X82308Y-50567D01*
X82308Y-51258D01*
X82308Y-51258D01*
G37*
G36*
X82308Y-51791D02*
X81991Y-51791D01*
X81991Y-51396D01*
X82308Y-51396D01*
X82308Y-51791D01*
X82308Y-51791D01*
G37*
G36*
X82308Y-52299D02*
X81991Y-52299D01*
X81991Y-51904D01*
X82308Y-51904D01*
X82308Y-52299D01*
X82308Y-52299D01*
G37*
G36*
X82315Y-39970D02*
X82314Y-40038D01*
X82300Y-40101D01*
X82276Y-40155D01*
X82238Y-40208D01*
X82196Y-40248D01*
X82141Y-40283D01*
X82086Y-40304D01*
X82022Y-40315D01*
X81964Y-40314D01*
X81900Y-40300D01*
X81846Y-40277D01*
X81793Y-40240D01*
X81752Y-40197D01*
X81717Y-40143D01*
X81696Y-40088D01*
X81684Y-40024D01*
X81685Y-39966D01*
X81698Y-39902D01*
X81721Y-39848D01*
X81758Y-39795D01*
X81800Y-39754D01*
X81854Y-39718D01*
X81908Y-39696D01*
X81973Y-39684D01*
X82031Y-39684D01*
X82095Y-39698D01*
X82148Y-39720D01*
X82203Y-39757D01*
X82244Y-39798D01*
X82280Y-39853D01*
X82302Y-39906D01*
X82315Y-39970D01*
X82315Y-39970D01*
G37*
G36*
X82315Y-58970D02*
X82314Y-59038D01*
X82300Y-59101D01*
X82276Y-59155D01*
X82238Y-59208D01*
X82196Y-59248D01*
X82141Y-59283D01*
X82086Y-59304D01*
X82022Y-59315D01*
X81964Y-59314D01*
X81900Y-59300D01*
X81846Y-59277D01*
X81793Y-59240D01*
X81752Y-59197D01*
X81717Y-59143D01*
X81696Y-59088D01*
X81684Y-59024D01*
X81685Y-58966D01*
X81698Y-58902D01*
X81721Y-58848D01*
X81758Y-58795D01*
X81800Y-58754D01*
X81854Y-58718D01*
X81908Y-58696D01*
X81973Y-58684D01*
X82031Y-58684D01*
X82095Y-58698D01*
X82148Y-58720D01*
X82203Y-58757D01*
X82244Y-58798D01*
X82280Y-58853D01*
X82302Y-58906D01*
X82315Y-58970D01*
X82315Y-58970D01*
G37*
G36*
X82648Y-57175D02*
X82351Y-57175D01*
X82351Y-56864D01*
X82351Y-56856D01*
X82351Y-56843D01*
X82351Y-56835D01*
X82351Y-56524D01*
X82648Y-56524D01*
X82648Y-56835D01*
X82648Y-56843D01*
X82648Y-56856D01*
X82648Y-56864D01*
X82648Y-57175D01*
X82648Y-57175D01*
G37*
G36*
X82653Y-43958D02*
X82258Y-43958D01*
X82258Y-43641D01*
X82653Y-43641D01*
X82653Y-43958D01*
X82653Y-43958D01*
G37*
G36*
X83108Y-43445D02*
X82791Y-43445D01*
X82791Y-43050D01*
X83108Y-43050D01*
X83108Y-43445D01*
X83108Y-43445D01*
G37*
G36*
X83108Y-43953D02*
X82791Y-43953D01*
X82791Y-43558D01*
X83108Y-43558D01*
X83108Y-43953D01*
X83108Y-43953D01*
G37*
G36*
X83237Y-56972D02*
X82762Y-56972D01*
X82762Y-56497D01*
X83237Y-56497D01*
X83237Y-56972D01*
X83237Y-56972D01*
G37*
G36*
X83237Y-57602D02*
X82762Y-57602D01*
X82762Y-57127D01*
X83237Y-57127D01*
X83237Y-57602D01*
X83237Y-57602D01*
G37*
G36*
X83315Y-39970D02*
X83314Y-40038D01*
X83300Y-40101D01*
X83276Y-40155D01*
X83238Y-40208D01*
X83196Y-40248D01*
X83141Y-40283D01*
X83086Y-40304D01*
X83022Y-40315D01*
X82964Y-40314D01*
X82900Y-40300D01*
X82846Y-40277D01*
X82793Y-40240D01*
X82752Y-40197D01*
X82717Y-40143D01*
X82696Y-40088D01*
X82684Y-40024D01*
X82685Y-39966D01*
X82698Y-39902D01*
X82721Y-39848D01*
X82758Y-39795D01*
X82800Y-39754D01*
X82854Y-39718D01*
X82908Y-39696D01*
X82973Y-39684D01*
X83031Y-39684D01*
X83095Y-39698D01*
X83148Y-39720D01*
X83203Y-39757D01*
X83244Y-39798D01*
X83280Y-39853D01*
X83302Y-39906D01*
X83315Y-39970D01*
X83315Y-39970D01*
G37*
G36*
X83315Y-58970D02*
X83314Y-59038D01*
X83300Y-59101D01*
X83276Y-59155D01*
X83238Y-59208D01*
X83196Y-59248D01*
X83141Y-59283D01*
X83086Y-59304D01*
X83022Y-59315D01*
X82964Y-59314D01*
X82900Y-59300D01*
X82846Y-59277D01*
X82793Y-59240D01*
X82752Y-59197D01*
X82717Y-59143D01*
X82696Y-59088D01*
X82684Y-59024D01*
X82685Y-58966D01*
X82698Y-58902D01*
X82721Y-58848D01*
X82758Y-58795D01*
X82800Y-58754D01*
X82854Y-58718D01*
X82908Y-58696D01*
X82973Y-58684D01*
X83031Y-58684D01*
X83095Y-58698D01*
X83148Y-58720D01*
X83203Y-58757D01*
X83244Y-58798D01*
X83280Y-58853D01*
X83302Y-58906D01*
X83315Y-58970D01*
X83315Y-58970D01*
G37*
G36*
X83558Y-42941D02*
X83241Y-42941D01*
X83241Y-42546D01*
X83558Y-42546D01*
X83558Y-42941D01*
X83558Y-42941D01*
G37*
G36*
X83558Y-43449D02*
X83241Y-43449D01*
X83241Y-43054D01*
X83558Y-43054D01*
X83558Y-43449D01*
X83558Y-43449D01*
G37*
G36*
X83648Y-57175D02*
X83351Y-57175D01*
X83351Y-56864D01*
X83351Y-56856D01*
X83351Y-56843D01*
X83351Y-56835D01*
X83351Y-56524D01*
X83648Y-56524D01*
X83648Y-56835D01*
X83648Y-56843D01*
X83648Y-56856D01*
X83648Y-56864D01*
X83648Y-57175D01*
X83648Y-57175D01*
G37*
G36*
X84237Y-56972D02*
X83762Y-56972D01*
X83762Y-56497D01*
X84237Y-56497D01*
X84237Y-56972D01*
X84237Y-56972D01*
G37*
G36*
X84237Y-57602D02*
X83762Y-57602D01*
X83762Y-57127D01*
X84237Y-57127D01*
X84237Y-57602D01*
X84237Y-57602D01*
G37*
G36*
X84315Y-39970D02*
X84314Y-40038D01*
X84300Y-40101D01*
X84276Y-40155D01*
X84238Y-40208D01*
X84196Y-40248D01*
X84141Y-40283D01*
X84086Y-40304D01*
X84022Y-40315D01*
X83964Y-40314D01*
X83900Y-40300D01*
X83846Y-40277D01*
X83793Y-40240D01*
X83752Y-40197D01*
X83717Y-40143D01*
X83696Y-40088D01*
X83684Y-40024D01*
X83685Y-39966D01*
X83698Y-39902D01*
X83721Y-39848D01*
X83758Y-39795D01*
X83800Y-39754D01*
X83854Y-39718D01*
X83908Y-39696D01*
X83973Y-39684D01*
X84031Y-39684D01*
X84095Y-39698D01*
X84148Y-39720D01*
X84203Y-39757D01*
X84244Y-39798D01*
X84280Y-39853D01*
X84302Y-39906D01*
X84315Y-39970D01*
X84315Y-39970D01*
G37*
G36*
X84315Y-58970D02*
X84314Y-59038D01*
X84300Y-59101D01*
X84276Y-59155D01*
X84238Y-59208D01*
X84196Y-59248D01*
X84141Y-59283D01*
X84086Y-59304D01*
X84022Y-59315D01*
X83964Y-59314D01*
X83900Y-59300D01*
X83846Y-59277D01*
X83793Y-59240D01*
X83752Y-59197D01*
X83717Y-59143D01*
X83696Y-59088D01*
X83684Y-59024D01*
X83685Y-58966D01*
X83698Y-58902D01*
X83721Y-58848D01*
X83758Y-58795D01*
X83800Y-58754D01*
X83854Y-58718D01*
X83908Y-58696D01*
X83973Y-58684D01*
X84031Y-58684D01*
X84095Y-58698D01*
X84148Y-58720D01*
X84203Y-58757D01*
X84244Y-58798D01*
X84280Y-58853D01*
X84302Y-58906D01*
X84315Y-58970D01*
X84315Y-58970D01*
G37*
G36*
X84648Y-57175D02*
X84351Y-57175D01*
X84351Y-56864D01*
X84351Y-56856D01*
X84351Y-56843D01*
X84351Y-56835D01*
X84351Y-56524D01*
X84648Y-56524D01*
X84648Y-56835D01*
X84648Y-56843D01*
X84648Y-56856D01*
X84648Y-56864D01*
X84648Y-57175D01*
X84648Y-57175D01*
G37*
G36*
X85237Y-56972D02*
X84762Y-56972D01*
X84762Y-56497D01*
X85237Y-56497D01*
X85237Y-56972D01*
X85237Y-56972D01*
G37*
G36*
X85237Y-57602D02*
X84762Y-57602D01*
X84762Y-57127D01*
X85237Y-57127D01*
X85237Y-57602D01*
X85237Y-57602D01*
G37*
G36*
X85315Y-58970D02*
X85314Y-59038D01*
X85300Y-59101D01*
X85276Y-59155D01*
X85238Y-59208D01*
X85196Y-59248D01*
X85141Y-59283D01*
X85086Y-59304D01*
X85022Y-59315D01*
X84964Y-59314D01*
X84900Y-59300D01*
X84846Y-59277D01*
X84793Y-59240D01*
X84752Y-59197D01*
X84717Y-59143D01*
X84696Y-59088D01*
X84684Y-59024D01*
X84685Y-58966D01*
X84698Y-58902D01*
X84721Y-58848D01*
X84758Y-58795D01*
X84800Y-58754D01*
X84854Y-58718D01*
X84908Y-58696D01*
X84973Y-58684D01*
X85031Y-58684D01*
X85095Y-58698D01*
X85148Y-58720D01*
X85203Y-58757D01*
X85244Y-58798D01*
X85280Y-58853D01*
X85302Y-58906D01*
X85315Y-58970D01*
X85315Y-58970D01*
G37*
G36*
X85315Y-40315D02*
X84684Y-40315D01*
X84684Y-39684D01*
X85315Y-39684D01*
X85315Y-40315D01*
X85315Y-40315D01*
G37*
G36*
X85743Y-42707D02*
X85742Y-42804D01*
X85722Y-42892D01*
X85688Y-42968D01*
X85636Y-43042D01*
X85575Y-43100D01*
X85499Y-43148D01*
X85421Y-43179D01*
X85332Y-43194D01*
X85248Y-43192D01*
X85160Y-43173D01*
X85083Y-43139D01*
X85009Y-43088D01*
X84951Y-43028D01*
X84902Y-42952D01*
X84871Y-42874D01*
X84855Y-42785D01*
X84856Y-42701D01*
X84875Y-42613D01*
X84908Y-42536D01*
X84959Y-42462D01*
X85019Y-42403D01*
X85095Y-42354D01*
X85172Y-42322D01*
X85261Y-42305D01*
X85344Y-42306D01*
X85433Y-42324D01*
X85510Y-42356D01*
X85585Y-42407D01*
X85644Y-42466D01*
X85694Y-42542D01*
X85726Y-42619D01*
X85743Y-42707D01*
X85743Y-42707D01*
G37*
G36*
X86162Y-45887D02*
X86158Y-46144D01*
X86107Y-46369D01*
X86016Y-46575D01*
X85883Y-46764D01*
X85720Y-46919D01*
X85525Y-47043D01*
X85315Y-47124D01*
X85088Y-47164D01*
X84863Y-47159D01*
X84637Y-47110D01*
X84431Y-47020D01*
X84241Y-46888D01*
X84085Y-46726D01*
X83960Y-46532D01*
X83877Y-46323D01*
X83836Y-46096D01*
X83839Y-45871D01*
X83887Y-45645D01*
X83975Y-45438D01*
X84106Y-45247D01*
X84266Y-45090D01*
X84460Y-44964D01*
X84668Y-44880D01*
X84895Y-44836D01*
X85120Y-44838D01*
X85347Y-44884D01*
X85553Y-44971D01*
X85745Y-45101D01*
X85903Y-45260D01*
X86032Y-45453D01*
X86117Y-45660D01*
X86162Y-45887D01*
X86162Y-45887D01*
G37*
G36*
X86162Y-54887D02*
X86158Y-55144D01*
X86107Y-55369D01*
X86016Y-55575D01*
X85883Y-55764D01*
X85720Y-55919D01*
X85525Y-56043D01*
X85315Y-56124D01*
X85088Y-56164D01*
X84863Y-56159D01*
X84637Y-56110D01*
X84431Y-56020D01*
X84241Y-55888D01*
X84085Y-55726D01*
X83960Y-55532D01*
X83877Y-55323D01*
X83836Y-55096D01*
X83839Y-54871D01*
X83887Y-54645D01*
X83975Y-54438D01*
X84106Y-54247D01*
X84266Y-54090D01*
X84460Y-53964D01*
X84668Y-53880D01*
X84895Y-53836D01*
X85120Y-53838D01*
X85347Y-53884D01*
X85553Y-53971D01*
X85745Y-54101D01*
X85903Y-54260D01*
X86032Y-54453D01*
X86117Y-54660D01*
X86162Y-54887D01*
X86162Y-54887D01*
G37*
G36*
X86867Y-42223D02*
X85826Y-42223D01*
X85826Y-41916D01*
X85826Y-41908D01*
X85823Y-41901D01*
X85818Y-41895D01*
X85810Y-41892D01*
X85803Y-41892D01*
X84796Y-41892D01*
X84789Y-41892D01*
X84781Y-41895D01*
X84776Y-41901D01*
X84773Y-41908D01*
X84773Y-41916D01*
X84773Y-42223D01*
X83732Y-42223D01*
X83732Y-41916D01*
X83732Y-41908D01*
X83732Y-41182D01*
X84789Y-41182D01*
X84796Y-41182D01*
X85803Y-41182D01*
X85810Y-41182D01*
X86867Y-41182D01*
X86867Y-41908D01*
X86867Y-41916D01*
X86867Y-42223D01*
X86867Y-42223D01*
G37*
G36*
X86867Y-44317D02*
X85810Y-44317D01*
X85803Y-44317D01*
X84796Y-44317D01*
X84789Y-44317D01*
X83732Y-44317D01*
X83732Y-43591D01*
X83732Y-43583D01*
X83732Y-43276D01*
X84773Y-43276D01*
X84773Y-43583D01*
X84773Y-43591D01*
X84776Y-43598D01*
X84781Y-43604D01*
X84789Y-43607D01*
X84796Y-43607D01*
X85803Y-43607D01*
X85810Y-43607D01*
X85818Y-43604D01*
X85823Y-43598D01*
X85826Y-43591D01*
X85826Y-43583D01*
X85826Y-43276D01*
X86867Y-43276D01*
X86867Y-43583D01*
X86867Y-43591D01*
X86867Y-44317D01*
X86867Y-44317D01*
G37*
G36*
X86944Y-39412D02*
X86942Y-39498D01*
X86925Y-39576D01*
X86894Y-39644D01*
X86848Y-39709D01*
X86794Y-39760D01*
X86727Y-39803D01*
X86657Y-39830D01*
X86578Y-39844D01*
X86504Y-39843D01*
X86426Y-39825D01*
X86358Y-39796D01*
X86292Y-39750D01*
X86240Y-39697D01*
X86197Y-39629D01*
X86170Y-39560D01*
X86155Y-39481D01*
X86156Y-39407D01*
X86173Y-39328D01*
X86202Y-39260D01*
X86247Y-39194D01*
X86300Y-39142D01*
X86368Y-39098D01*
X86436Y-39070D01*
X86515Y-39055D01*
X86589Y-39056D01*
X86668Y-39072D01*
X86736Y-39100D01*
X86803Y-39146D01*
X86855Y-39198D01*
X86900Y-39265D01*
X86928Y-39333D01*
X86944Y-39412D01*
X86944Y-39412D01*
G37*
G36*
X86944Y-59512D02*
X86942Y-59598D01*
X86925Y-59676D01*
X86894Y-59744D01*
X86848Y-59809D01*
X86794Y-59860D01*
X86727Y-59903D01*
X86657Y-59930D01*
X86578Y-59944D01*
X86504Y-59943D01*
X86426Y-59925D01*
X86358Y-59896D01*
X86292Y-59850D01*
X86240Y-59797D01*
X86197Y-59729D01*
X86170Y-59660D01*
X86155Y-59581D01*
X86156Y-59507D01*
X86173Y-59428D01*
X86202Y-59360D01*
X86247Y-59294D01*
X86300Y-59242D01*
X86368Y-59198D01*
X86436Y-59170D01*
X86515Y-59155D01*
X86589Y-59156D01*
X86668Y-59172D01*
X86736Y-59200D01*
X86803Y-59246D01*
X86855Y-59298D01*
X86900Y-59365D01*
X86928Y-59433D01*
X86944Y-59512D01*
X86944Y-59512D01*
G37*
M02*
