G04 (created by PCBNEW (2013-07-07 BZR 4022)-stable) date 10/30/2016 12:44:05 AM*
%MOIN*%
G04 Gerber Fmt 3.4, Leading zero omitted, Abs format*
%FSLAX34Y34*%
G01*
G70*
G90*
G04 APERTURE LIST*
%ADD10C,0.00590551*%
%ADD11C,0.002*%
%ADD12C,0.0019685*%
G04 APERTURE END LIST*
G54D10*
G54D11*
X83674Y-44375D02*
X83674Y-41124D01*
X83674Y-41124D02*
X86925Y-41124D01*
X86925Y-41124D02*
X86925Y-44375D01*
X86925Y-44375D02*
X83674Y-44375D01*
X86220Y-46000D02*
G75*
G03X86220Y-46000I-1220J0D01*
G74*
G01*
X65420Y-58200D02*
G75*
G03X65420Y-58200I-1220J0D01*
G74*
G01*
X62670Y-41000D02*
G75*
G03X62670Y-41000I-1220J0D01*
G74*
G01*
X86220Y-55000D02*
G75*
G03X86220Y-55000I-1220J0D01*
G74*
G01*
G54D12*
X64835Y-43835D02*
X66764Y-43835D01*
X66764Y-43835D02*
X66764Y-45564D01*
X66764Y-45564D02*
X64835Y-45564D01*
X64835Y-45564D02*
X64835Y-43835D01*
X60935Y-43535D02*
X62864Y-43535D01*
X62864Y-43535D02*
X62864Y-45264D01*
X62864Y-45264D02*
X60935Y-45264D01*
X60935Y-45264D02*
X60935Y-43535D01*
G54D11*
X64342Y-56616D02*
X63357Y-56616D01*
X63357Y-56616D02*
X63357Y-56183D01*
X63357Y-56183D02*
X64342Y-56183D01*
X64342Y-56183D02*
X64342Y-56616D01*
X58448Y-58844D02*
X59551Y-58844D01*
X59551Y-58844D02*
X59551Y-59355D01*
X59551Y-59355D02*
X58448Y-59355D01*
X58448Y-59355D02*
X58448Y-58844D01*
X58448Y-58294D02*
X59551Y-58294D01*
X59551Y-58294D02*
X59551Y-58805D01*
X59551Y-58805D02*
X58448Y-58805D01*
X58448Y-58805D02*
X58448Y-58294D01*
G54D12*
X64584Y-41261D02*
X64584Y-42638D01*
X64584Y-42638D02*
X63915Y-42638D01*
X63915Y-42638D02*
X63915Y-41261D01*
X63915Y-41261D02*
X64584Y-41261D01*
X66161Y-41065D02*
X67538Y-41065D01*
X67538Y-41065D02*
X67538Y-41734D01*
X67538Y-41734D02*
X66161Y-41734D01*
X66161Y-41734D02*
X66161Y-41065D01*
X66734Y-46761D02*
X66734Y-48138D01*
X66734Y-48138D02*
X66065Y-48138D01*
X66065Y-48138D02*
X66065Y-46761D01*
X66065Y-46761D02*
X66734Y-46761D01*
G54D11*
X76628Y-44328D02*
X75171Y-44328D01*
X75171Y-44328D02*
X75171Y-42871D01*
X75171Y-42871D02*
X76628Y-42871D01*
X76628Y-42871D02*
X76628Y-44328D01*
X76007Y-56153D02*
X74392Y-56153D01*
X74392Y-56153D02*
X74392Y-55346D01*
X74392Y-55346D02*
X76007Y-55346D01*
X76007Y-55346D02*
X76007Y-56153D01*
X63503Y-42700D02*
X64396Y-42700D01*
X63503Y-43999D02*
X63503Y-42700D01*
X64396Y-43999D02*
X63503Y-43999D01*
X64396Y-42700D02*
X64396Y-43999D01*
X79743Y-44593D02*
X77656Y-44593D01*
X77656Y-44593D02*
X77656Y-42506D01*
X77656Y-42506D02*
X79743Y-42506D01*
X79743Y-42506D02*
X79743Y-44597D01*
G54D12*
X76304Y-47079D02*
X79395Y-47079D01*
X79395Y-47079D02*
X79395Y-48220D01*
X79395Y-48220D02*
X76304Y-48220D01*
X76304Y-48220D02*
X76304Y-47079D01*
G54D11*
X70080Y-45171D02*
X70080Y-46628D01*
X70080Y-46628D02*
X68919Y-46628D01*
X68919Y-46628D02*
X68919Y-45171D01*
X68919Y-45171D02*
X70080Y-45171D01*
X82366Y-48383D02*
X82366Y-51316D01*
X82366Y-51316D02*
X80433Y-51316D01*
X80433Y-51316D02*
X80433Y-48383D01*
X80433Y-48383D02*
X82366Y-48383D01*
X64644Y-48193D02*
X64644Y-49906D01*
X64644Y-49906D02*
X63455Y-49906D01*
X63455Y-49906D02*
X63455Y-48193D01*
X63455Y-48193D02*
X64644Y-48193D01*
X64705Y-43006D02*
X64705Y-41293D01*
X64705Y-41293D02*
X65894Y-41293D01*
X65894Y-41293D02*
X65894Y-43006D01*
X65894Y-43006D02*
X64705Y-43006D01*
X68594Y-45143D02*
X68594Y-46856D01*
X68594Y-46856D02*
X67405Y-46856D01*
X67405Y-46856D02*
X67405Y-45143D01*
X67405Y-45143D02*
X68594Y-45143D01*
X61850Y-43390D02*
X63149Y-43390D01*
X63149Y-43390D02*
X63149Y-42209D01*
X63149Y-42209D02*
X61850Y-42209D01*
X61850Y-42209D02*
X61850Y-43390D01*
X61640Y-46649D02*
X61640Y-45350D01*
X61640Y-45350D02*
X60459Y-45350D01*
X60459Y-45350D02*
X60459Y-46649D01*
X60459Y-46649D02*
X61640Y-46649D01*
X59740Y-48949D02*
X59740Y-47650D01*
X59740Y-47650D02*
X58559Y-47650D01*
X58559Y-47650D02*
X58559Y-48949D01*
X58559Y-48949D02*
X59740Y-48949D01*
X77266Y-43857D02*
X77266Y-44842D01*
X77266Y-44842D02*
X76833Y-44842D01*
X76833Y-44842D02*
X76833Y-43857D01*
X76833Y-43857D02*
X77266Y-43857D01*
X82733Y-43992D02*
X82733Y-43007D01*
X82733Y-43007D02*
X83166Y-43007D01*
X83166Y-43007D02*
X83166Y-43992D01*
X83166Y-43992D02*
X82733Y-43992D01*
X81283Y-43992D02*
X81283Y-43007D01*
X81283Y-43007D02*
X81716Y-43007D01*
X81716Y-43007D02*
X81716Y-43992D01*
X81716Y-43992D02*
X81283Y-43992D01*
X77642Y-43816D02*
X76657Y-43816D01*
X76657Y-43816D02*
X76657Y-43383D01*
X76657Y-43383D02*
X77642Y-43383D01*
X77642Y-43383D02*
X77642Y-43816D01*
X83616Y-42457D02*
X83616Y-43442D01*
X83616Y-43442D02*
X83183Y-43442D01*
X83183Y-43442D02*
X83183Y-42457D01*
X83183Y-42457D02*
X83616Y-42457D01*
X82692Y-44016D02*
X81707Y-44016D01*
X81707Y-44016D02*
X81707Y-43583D01*
X81707Y-43583D02*
X82692Y-43583D01*
X82692Y-43583D02*
X82692Y-44016D01*
X81460Y-41000D02*
G75*
G03X81460Y-41000I-460J0D01*
G74*
G01*
X83460Y-41000D02*
G75*
G03X83460Y-41000I-460J0D01*
G74*
G01*
X84460Y-41000D02*
G75*
G03X84460Y-41000I-460J0D01*
G74*
G01*
X68710Y-41450D02*
G75*
G03X68710Y-41450I-460J0D01*
G74*
G01*
X85460Y-41000D02*
G75*
G03X85460Y-41000I-460J0D01*
G74*
G01*
X85460Y-58200D02*
G75*
G03X85460Y-58200I-460J0D01*
G74*
G01*
X84460Y-58200D02*
G75*
G03X84460Y-58200I-460J0D01*
G74*
G01*
X83460Y-58200D02*
G75*
G03X83460Y-58200I-460J0D01*
G74*
G01*
X82460Y-58200D02*
G75*
G03X82460Y-58200I-460J0D01*
G74*
G01*
X81460Y-58200D02*
G75*
G03X81460Y-58200I-460J0D01*
G74*
G01*
X80460Y-58200D02*
G75*
G03X80460Y-58200I-460J0D01*
G74*
G01*
X66760Y-47250D02*
G75*
G03X66760Y-47250I-460J0D01*
G74*
G01*
X60210Y-46000D02*
G75*
G03X60210Y-46000I-460J0D01*
G74*
G01*
X80460Y-41000D02*
G75*
G03X80460Y-41000I-460J0D01*
G74*
G01*
X82460Y-41000D02*
G75*
G03X82460Y-41000I-460J0D01*
G74*
G01*
X79460Y-41000D02*
G75*
G03X79460Y-41000I-460J0D01*
G74*
G01*
X63460Y-53000D02*
G75*
G03X63460Y-53000I-460J0D01*
G74*
G01*
X62610Y-56400D02*
G75*
G03X62610Y-56400I-460J0D01*
G74*
G01*
X76860Y-41000D02*
G75*
G03X76860Y-41000I-460J0D01*
G74*
G01*
X78460Y-41000D02*
G75*
G03X78460Y-41000I-460J0D01*
G74*
G01*
X60210Y-47000D02*
G75*
G03X60210Y-47000I-460J0D01*
G74*
G01*
X59210Y-40950D02*
G75*
G03X59210Y-40950I-460J0D01*
G74*
G01*
X60210Y-43850D02*
G75*
G03X60210Y-43850I-460J0D01*
G74*
G01*
X59816Y-48493D02*
X60583Y-48493D01*
X60583Y-48493D02*
X60583Y-48906D01*
X60583Y-48906D02*
X59816Y-48906D01*
X59816Y-48906D02*
X59816Y-48493D01*
G54D12*
X78639Y-51604D02*
X79860Y-51604D01*
X79860Y-51604D02*
X79860Y-52195D01*
X79860Y-52195D02*
X78639Y-52195D01*
X78639Y-52195D02*
X78639Y-51604D01*
G54D11*
X62870Y-45305D02*
X62870Y-47194D01*
X62870Y-47194D02*
X61729Y-47194D01*
X61729Y-47194D02*
X61729Y-45305D01*
X61729Y-45305D02*
X62870Y-45305D01*
X73376Y-52549D02*
X73376Y-51250D01*
X73376Y-51250D02*
X74223Y-51250D01*
X74223Y-51250D02*
X74223Y-52549D01*
X74223Y-52549D02*
X73376Y-52549D01*
X60866Y-46743D02*
X61633Y-46743D01*
X61633Y-46743D02*
X61633Y-47156D01*
X61633Y-47156D02*
X60866Y-47156D01*
X60866Y-47156D02*
X60866Y-46743D01*
X63557Y-47533D02*
X64542Y-47533D01*
X64542Y-47533D02*
X64542Y-47966D01*
X64542Y-47966D02*
X63557Y-47966D01*
X63557Y-47966D02*
X63557Y-47533D01*
X82366Y-51357D02*
X82366Y-52342D01*
X82366Y-52342D02*
X81933Y-52342D01*
X81933Y-52342D02*
X81933Y-51357D01*
X81933Y-51357D02*
X82366Y-51357D01*
X62905Y-45179D02*
X64794Y-45179D01*
X64794Y-45179D02*
X64794Y-46320D01*
X64794Y-46320D02*
X62905Y-46320D01*
X62905Y-46320D02*
X62905Y-45179D01*
G54D12*
X83295Y-56439D02*
X83295Y-57660D01*
X83295Y-57660D02*
X82704Y-57660D01*
X82704Y-57660D02*
X82704Y-56439D01*
X82704Y-56439D02*
X83295Y-56439D01*
X85295Y-56439D02*
X85295Y-57660D01*
X85295Y-57660D02*
X84704Y-57660D01*
X84704Y-57660D02*
X84704Y-56439D01*
X84704Y-56439D02*
X85295Y-56439D01*
X82295Y-56439D02*
X82295Y-57660D01*
X82295Y-57660D02*
X81704Y-57660D01*
X81704Y-57660D02*
X81704Y-56439D01*
X81704Y-56439D02*
X82295Y-56439D01*
X81295Y-56439D02*
X81295Y-57660D01*
X81295Y-57660D02*
X80704Y-57660D01*
X80704Y-57660D02*
X80704Y-56439D01*
X80704Y-56439D02*
X81295Y-56439D01*
X80295Y-56439D02*
X80295Y-57660D01*
X80295Y-57660D02*
X79704Y-57660D01*
X79704Y-57660D02*
X79704Y-56439D01*
X79704Y-56439D02*
X80295Y-56439D01*
X78845Y-55339D02*
X78845Y-56560D01*
X78845Y-56560D02*
X78254Y-56560D01*
X78254Y-56560D02*
X78254Y-55339D01*
X78254Y-55339D02*
X78845Y-55339D01*
X84295Y-56439D02*
X84295Y-57660D01*
X84295Y-57660D02*
X83704Y-57660D01*
X83704Y-57660D02*
X83704Y-56439D01*
X83704Y-56439D02*
X84295Y-56439D01*
X77354Y-45860D02*
X77354Y-44639D01*
X77354Y-44639D02*
X77945Y-44639D01*
X77945Y-44639D02*
X77945Y-45860D01*
X77945Y-45860D02*
X77354Y-45860D01*
X79354Y-45860D02*
X79354Y-44639D01*
X79354Y-44639D02*
X79945Y-44639D01*
X79945Y-44639D02*
X79945Y-45860D01*
X79945Y-45860D02*
X79354Y-45860D01*
X75245Y-53939D02*
X75245Y-55160D01*
X75245Y-55160D02*
X74654Y-55160D01*
X74654Y-55160D02*
X74654Y-53939D01*
X74654Y-53939D02*
X75245Y-53939D01*
X78939Y-50504D02*
X80160Y-50504D01*
X80160Y-50504D02*
X80160Y-51095D01*
X80160Y-51095D02*
X78939Y-51095D01*
X78939Y-51095D02*
X78939Y-50504D01*
X75654Y-49860D02*
X75654Y-48639D01*
X75654Y-48639D02*
X76245Y-48639D01*
X76245Y-48639D02*
X76245Y-49860D01*
X76245Y-49860D02*
X75654Y-49860D01*
X67560Y-42345D02*
X66339Y-42345D01*
X66339Y-42345D02*
X66339Y-41754D01*
X66339Y-41754D02*
X67560Y-41754D01*
X67560Y-41754D02*
X67560Y-42345D01*
X61345Y-56939D02*
X61345Y-58160D01*
X61345Y-58160D02*
X60754Y-58160D01*
X60754Y-58160D02*
X60754Y-56939D01*
X60754Y-56939D02*
X61345Y-56939D01*
G54D11*
X64342Y-54716D02*
X63357Y-54716D01*
X63357Y-54716D02*
X63357Y-54283D01*
X63357Y-54283D02*
X64342Y-54283D01*
X64342Y-54283D02*
X64342Y-54716D01*
G54D12*
X57559Y-43018D02*
X57559Y-39081D01*
X57559Y-39081D02*
X60040Y-39081D01*
X60040Y-39081D02*
X60040Y-43018D01*
X60040Y-43018D02*
X57559Y-43018D01*
G54D11*
X80742Y-42966D02*
X79757Y-42966D01*
X79757Y-42966D02*
X79757Y-42533D01*
X79757Y-42533D02*
X80742Y-42533D01*
X80742Y-42533D02*
X80742Y-42966D01*
X81292Y-44016D02*
X80307Y-44016D01*
X80307Y-44016D02*
X80307Y-43583D01*
X80307Y-43583D02*
X81292Y-43583D01*
X81292Y-43583D02*
X81292Y-44016D01*
X78783Y-47042D02*
X78783Y-46057D01*
X78783Y-46057D02*
X79216Y-46057D01*
X79216Y-46057D02*
X79216Y-47042D01*
X79216Y-47042D02*
X78783Y-47042D01*
X66242Y-53016D02*
X65257Y-53016D01*
X65257Y-53016D02*
X65257Y-52583D01*
X65257Y-52583D02*
X66242Y-52583D01*
X66242Y-52583D02*
X66242Y-53016D01*
X64342Y-53816D02*
X63357Y-53816D01*
X63357Y-53816D02*
X63357Y-53383D01*
X63357Y-53383D02*
X64342Y-53383D01*
X64342Y-53383D02*
X64342Y-53816D01*
X66042Y-47866D02*
X65057Y-47866D01*
X65057Y-47866D02*
X65057Y-47433D01*
X65057Y-47433D02*
X66042Y-47433D01*
X66042Y-47433D02*
X66042Y-47866D01*
X64683Y-49842D02*
X64683Y-48857D01*
X64683Y-48857D02*
X65116Y-48857D01*
X65116Y-48857D02*
X65116Y-49842D01*
X65116Y-49842D02*
X64683Y-49842D01*
X77983Y-45642D02*
X77983Y-44657D01*
X77983Y-44657D02*
X78416Y-44657D01*
X78416Y-44657D02*
X78416Y-45642D01*
X78416Y-45642D02*
X77983Y-45642D01*
X64383Y-56742D02*
X64383Y-55757D01*
X64383Y-55757D02*
X64816Y-55757D01*
X64816Y-55757D02*
X64816Y-56742D01*
X64816Y-56742D02*
X64383Y-56742D01*
X71507Y-54583D02*
X72492Y-54583D01*
X72492Y-54583D02*
X72492Y-55016D01*
X72492Y-55016D02*
X71507Y-55016D01*
X71507Y-55016D02*
X71507Y-54583D01*
X73933Y-56142D02*
X73933Y-55157D01*
X73933Y-55157D02*
X74366Y-55157D01*
X74366Y-55157D02*
X74366Y-56142D01*
X74366Y-56142D02*
X73933Y-56142D01*
X76033Y-56142D02*
X76033Y-55157D01*
X76033Y-55157D02*
X76466Y-55157D01*
X76466Y-55157D02*
X76466Y-56142D01*
X76466Y-56142D02*
X76033Y-56142D01*
X72807Y-50233D02*
X73792Y-50233D01*
X73792Y-50233D02*
X73792Y-50666D01*
X73792Y-50666D02*
X72807Y-50666D01*
X72807Y-50666D02*
X72807Y-50233D01*
X74092Y-48866D02*
X73107Y-48866D01*
X73107Y-48866D02*
X73107Y-48433D01*
X73107Y-48433D02*
X74092Y-48433D01*
X74092Y-48433D02*
X74092Y-48866D01*
X73442Y-53666D02*
X72457Y-53666D01*
X72457Y-53666D02*
X72457Y-53233D01*
X72457Y-53233D02*
X73442Y-53233D01*
X73442Y-53233D02*
X73442Y-53666D01*
X73916Y-53107D02*
X73916Y-54092D01*
X73916Y-54092D02*
X73483Y-54092D01*
X73483Y-54092D02*
X73483Y-53107D01*
X73483Y-53107D02*
X73916Y-53107D01*
X73442Y-54116D02*
X72457Y-54116D01*
X72457Y-54116D02*
X72457Y-53683D01*
X72457Y-53683D02*
X73442Y-53683D01*
X73442Y-53683D02*
X73442Y-54116D01*
X75716Y-53957D02*
X75716Y-54942D01*
X75716Y-54942D02*
X75283Y-54942D01*
X75283Y-54942D02*
X75283Y-53957D01*
X75283Y-53957D02*
X75716Y-53957D01*
X78657Y-51133D02*
X79642Y-51133D01*
X79642Y-51133D02*
X79642Y-51566D01*
X79642Y-51566D02*
X78657Y-51566D01*
X78657Y-51566D02*
X78657Y-51133D01*
X76283Y-49842D02*
X76283Y-48857D01*
X76283Y-48857D02*
X76716Y-48857D01*
X76716Y-48857D02*
X76716Y-49842D01*
X76716Y-49842D02*
X76283Y-49842D01*
X70192Y-47166D02*
X69207Y-47166D01*
X69207Y-47166D02*
X69207Y-46733D01*
X69207Y-46733D02*
X70192Y-46733D01*
X70192Y-46733D02*
X70192Y-47166D01*
X73442Y-54566D02*
X72457Y-54566D01*
X72457Y-54566D02*
X72457Y-54133D01*
X72457Y-54133D02*
X73442Y-54133D01*
X73442Y-54133D02*
X73442Y-54566D01*
X69707Y-42083D02*
X70692Y-42083D01*
X70692Y-42083D02*
X70692Y-42516D01*
X70692Y-42516D02*
X69707Y-42516D01*
X69707Y-42516D02*
X69707Y-42083D01*
X68766Y-44057D02*
X68766Y-45042D01*
X68766Y-45042D02*
X68333Y-45042D01*
X68333Y-45042D02*
X68333Y-44057D01*
X68333Y-44057D02*
X68766Y-44057D01*
X78883Y-45642D02*
X78883Y-44657D01*
X78883Y-44657D02*
X79316Y-44657D01*
X79316Y-44657D02*
X79316Y-45642D01*
X79316Y-45642D02*
X78883Y-45642D01*
X63866Y-41057D02*
X63866Y-42042D01*
X63866Y-42042D02*
X63433Y-42042D01*
X63433Y-42042D02*
X63433Y-41057D01*
X63433Y-41057D02*
X63866Y-41057D01*
X79842Y-42466D02*
X78857Y-42466D01*
X78857Y-42466D02*
X78857Y-42033D01*
X78857Y-42033D02*
X79842Y-42033D01*
X79842Y-42033D02*
X79842Y-42466D01*
X76666Y-54007D02*
X76666Y-54992D01*
X76666Y-54992D02*
X76233Y-54992D01*
X76233Y-54992D02*
X76233Y-54007D01*
X76233Y-54007D02*
X76666Y-54007D01*
X61916Y-51507D02*
X61916Y-52492D01*
X61916Y-52492D02*
X61483Y-52492D01*
X61483Y-52492D02*
X61483Y-51507D01*
X61483Y-51507D02*
X61916Y-51507D01*
X60566Y-51507D02*
X60566Y-52492D01*
X60566Y-52492D02*
X60133Y-52492D01*
X60133Y-52492D02*
X60133Y-51507D01*
X60133Y-51507D02*
X60566Y-51507D01*
X59057Y-56933D02*
X60042Y-56933D01*
X60042Y-56933D02*
X60042Y-57366D01*
X60042Y-57366D02*
X59057Y-57366D01*
X59057Y-57366D02*
X59057Y-56933D01*
X59316Y-51507D02*
X59316Y-52492D01*
X59316Y-52492D02*
X58883Y-52492D01*
X58883Y-52492D02*
X58883Y-51507D01*
X58883Y-51507D02*
X59316Y-51507D01*
X84293Y-57233D02*
X84293Y-56466D01*
X84293Y-56466D02*
X84706Y-56466D01*
X84706Y-56466D02*
X84706Y-57233D01*
X84706Y-57233D02*
X84293Y-57233D01*
X61943Y-52483D02*
X61943Y-51716D01*
X61943Y-51716D02*
X62356Y-51716D01*
X62356Y-51716D02*
X62356Y-52483D01*
X62356Y-52483D02*
X61943Y-52483D01*
X83293Y-57233D02*
X83293Y-56466D01*
X83293Y-56466D02*
X83706Y-56466D01*
X83706Y-56466D02*
X83706Y-57233D01*
X83706Y-57233D02*
X83293Y-57233D01*
X82293Y-57233D02*
X82293Y-56466D01*
X82293Y-56466D02*
X82706Y-56466D01*
X82706Y-56466D02*
X82706Y-57233D01*
X82706Y-57233D02*
X82293Y-57233D01*
X81293Y-57233D02*
X81293Y-56466D01*
X81293Y-56466D02*
X81706Y-56466D01*
X81706Y-56466D02*
X81706Y-57233D01*
X81706Y-57233D02*
X81293Y-57233D01*
X80293Y-57233D02*
X80293Y-56466D01*
X80293Y-56466D02*
X80706Y-56466D01*
X80706Y-56466D02*
X80706Y-57233D01*
X80706Y-57233D02*
X80293Y-57233D01*
X79293Y-57233D02*
X79293Y-56466D01*
X79293Y-56466D02*
X79706Y-56466D01*
X79706Y-56466D02*
X79706Y-57233D01*
X79706Y-57233D02*
X79293Y-57233D01*
X77793Y-57383D02*
X77793Y-56616D01*
X77793Y-56616D02*
X78206Y-56616D01*
X78206Y-56616D02*
X78206Y-57383D01*
X78206Y-57383D02*
X77793Y-57383D01*
X78656Y-56616D02*
X78656Y-57383D01*
X78656Y-57383D02*
X78243Y-57383D01*
X78243Y-57383D02*
X78243Y-56616D01*
X78243Y-56616D02*
X78656Y-56616D01*
X75793Y-54983D02*
X75793Y-54216D01*
X75793Y-54216D02*
X76206Y-54216D01*
X76206Y-54216D02*
X76206Y-54983D01*
X76206Y-54983D02*
X75793Y-54983D01*
X80943Y-48333D02*
X80943Y-47566D01*
X80943Y-47566D02*
X81356Y-47566D01*
X81356Y-47566D02*
X81356Y-48333D01*
X81356Y-48333D02*
X80943Y-48333D01*
X78856Y-44666D02*
X78856Y-45433D01*
X78856Y-45433D02*
X78443Y-45433D01*
X78443Y-45433D02*
X78443Y-44666D01*
X78443Y-44666D02*
X78856Y-44666D01*
X60383Y-59306D02*
X59616Y-59306D01*
X59616Y-59306D02*
X59616Y-58893D01*
X59616Y-58893D02*
X60383Y-58893D01*
X60383Y-58893D02*
X60383Y-59306D01*
X62993Y-41833D02*
X62993Y-41066D01*
X62993Y-41066D02*
X63406Y-41066D01*
X63406Y-41066D02*
X63406Y-41833D01*
X63406Y-41833D02*
X62993Y-41833D01*
X60383Y-58756D02*
X59616Y-58756D01*
X59616Y-58756D02*
X59616Y-58343D01*
X59616Y-58343D02*
X60383Y-58343D01*
X60383Y-58343D02*
X60383Y-58756D01*
X72383Y-55456D02*
X71616Y-55456D01*
X71616Y-55456D02*
X71616Y-55043D01*
X71616Y-55043D02*
X72383Y-55043D01*
X72383Y-55043D02*
X72383Y-55456D01*
X68433Y-47356D02*
X67666Y-47356D01*
X67666Y-47356D02*
X67666Y-46943D01*
X67666Y-46943D02*
X68433Y-46943D01*
X68433Y-46943D02*
X68433Y-47356D01*
X63466Y-49943D02*
X64233Y-49943D01*
X64233Y-49943D02*
X64233Y-50356D01*
X64233Y-50356D02*
X63466Y-50356D01*
X63466Y-50356D02*
X63466Y-49943D01*
X73233Y-53206D02*
X72466Y-53206D01*
X72466Y-53206D02*
X72466Y-52793D01*
X72466Y-52793D02*
X73233Y-52793D01*
X73233Y-52793D02*
X73233Y-53206D01*
X64233Y-50806D02*
X63466Y-50806D01*
X63466Y-50806D02*
X63466Y-50393D01*
X63466Y-50393D02*
X64233Y-50393D01*
X64233Y-50393D02*
X64233Y-50806D01*
X58433Y-52492D02*
X58433Y-51507D01*
X58433Y-51507D02*
X58866Y-51507D01*
X58866Y-51507D02*
X58866Y-52492D01*
X58866Y-52492D02*
X58433Y-52492D01*
X60516Y-57157D02*
X60516Y-58142D01*
X60516Y-58142D02*
X60083Y-58142D01*
X60083Y-58142D02*
X60083Y-57157D01*
X60083Y-57157D02*
X60516Y-57157D01*
X59016Y-57207D02*
X59016Y-58192D01*
X59016Y-58192D02*
X58583Y-58192D01*
X58583Y-58192D02*
X58583Y-57207D01*
X58583Y-57207D02*
X59016Y-57207D01*
X61033Y-52492D02*
X61033Y-51507D01*
X61033Y-51507D02*
X61466Y-51507D01*
X61466Y-51507D02*
X61466Y-52492D01*
X61466Y-52492D02*
X61033Y-52492D01*
X60583Y-52492D02*
X60583Y-51507D01*
X60583Y-51507D02*
X61016Y-51507D01*
X61016Y-51507D02*
X61016Y-52492D01*
X61016Y-52492D02*
X60583Y-52492D01*
X80783Y-43542D02*
X80783Y-42557D01*
X80783Y-42557D02*
X81216Y-42557D01*
X81216Y-42557D02*
X81216Y-43542D01*
X81216Y-43542D02*
X80783Y-43542D01*
X73457Y-54133D02*
X74442Y-54133D01*
X74442Y-54133D02*
X74442Y-54566D01*
X74442Y-54566D02*
X73457Y-54566D01*
X73457Y-54566D02*
X73457Y-54133D01*
X62905Y-46379D02*
X64794Y-46379D01*
X64794Y-46379D02*
X64794Y-47520D01*
X64794Y-47520D02*
X62905Y-47520D01*
X62905Y-47520D02*
X62905Y-46379D01*
X66894Y-46720D02*
X65005Y-46720D01*
X65005Y-46720D02*
X65005Y-45579D01*
X65005Y-45579D02*
X66894Y-45579D01*
X66894Y-45579D02*
X66894Y-46720D01*
X77793Y-56483D02*
X77793Y-55716D01*
X77793Y-55716D02*
X78206Y-55716D01*
X78206Y-55716D02*
X78206Y-56483D01*
X78206Y-56483D02*
X77793Y-56483D01*
X67755Y-42105D02*
X69644Y-42105D01*
X69644Y-42105D02*
X69644Y-43994D01*
X67755Y-43994D02*
X67755Y-42105D01*
X69644Y-43994D02*
X67755Y-43994D01*
X62901Y-39127D02*
X62901Y-39029D01*
X66798Y-39127D02*
X66798Y-39029D01*
X66798Y-39127D02*
X66798Y-41017D01*
X62901Y-39127D02*
X62901Y-41017D01*
X62901Y-41017D02*
X66798Y-41017D01*
G54D12*
X63333Y-52507D02*
X63333Y-56892D01*
X63333Y-52507D02*
X57466Y-52507D01*
X63333Y-56892D02*
X57466Y-56892D01*
X57466Y-52507D02*
X57466Y-56892D01*
G54D11*
X65556Y-48366D02*
X65556Y-49133D01*
X65556Y-49133D02*
X65143Y-49133D01*
X65143Y-49133D02*
X65143Y-48366D01*
X65143Y-48366D02*
X65556Y-48366D01*
G54D12*
X78627Y-53927D02*
X74572Y-53927D01*
X74572Y-53927D02*
X74572Y-49872D01*
X74572Y-49872D02*
X78627Y-49872D01*
X78627Y-49872D02*
X78627Y-53927D01*
G54D11*
X59494Y-52501D02*
X59494Y-51398D01*
X59494Y-51398D02*
X60005Y-51398D01*
X60005Y-51398D02*
X60005Y-52501D01*
X60005Y-52501D02*
X59494Y-52501D01*
G54D12*
X79786Y-44607D02*
X79786Y-43592D01*
X79786Y-43592D02*
X80313Y-43592D01*
X80313Y-43592D02*
X80313Y-44607D01*
X80313Y-44607D02*
X79786Y-44607D01*
X74257Y-48880D02*
X74257Y-50219D01*
X74257Y-50219D02*
X72642Y-50219D01*
X72642Y-50219D02*
X72642Y-48880D01*
X72642Y-48880D02*
X74257Y-48880D01*
M02*
