G04 (created by PCBNEW (2013-07-07 BZR 4022)-stable) date 11/16/2016 1:12:14 AM*
%MOIN*%
G04 Gerber Fmt 3.4, Leading zero omitted, Abs format*
%FSLAX34Y34*%
G01*
G70*
G90*
G04 APERTURE LIST*
%ADD10C,0.00590551*%
%ADD11C,0.00787402*%
%ADD12C,0.005*%
%ADD13C,0.00738189*%
%ADD14C,0.011811*%
%ADD15C,0.0001*%
%ADD16R,0.102063X0.102063*%
%ADD17C,0.0867087*%
%ADD18R,0.311512X0.0689921*%
%ADD19C,0.230409*%
%ADD20R,0.0410394X0.0365118*%
%ADD21R,0.040252X0.115843*%
%ADD22R,0.0374961X0.0374961*%
%ADD23R,0.0532441X0.0414331*%
%ADD24R,0.0414331X0.0532441*%
%ADD25R,0.0729291X0.0378898*%
%ADD26R,0.0473386X0.0378898*%
%ADD27R,0.0453701X0.0670236*%
%ADD28R,0.0245039X0.0453701*%
%ADD29R,0.0192913X0.0448819*%
%ADD30R,0.0448819X0.0192913*%
%ADD31R,0.0905512X0.0905512*%
%ADD32R,0.0630866X0.0237165*%
%ADD33R,0.029622X0.0670236*%
%ADD34R,0.0304094X0.0540315*%
%ADD35R,0.0335591X0.029622*%
%ADD36R,0.029622X0.0374961*%
%ADD37R,0.0374961X0.029622*%
%ADD38R,0.0314961X0.0295276*%
%ADD39R,0.0453701X0.0453701*%
%ADD40R,0.0197795X0.0453701*%
%ADD41R,0.0650551X0.100488*%
%ADD42C,0.025685*%
%ADD43R,0.0571811X0.0670236*%
%ADD44R,0.0295276X0.0314961*%
%ADD45R,0.061X0.061*%
%ADD46C,0.061*%
%ADD47C,0.0787402*%
%ADD48R,0.0374961X0.0170236*%
%ADD49R,0.0170236X0.0374961*%
%ADD50R,0.0886772X0.0886772*%
%ADD51R,0.021748X0.0591496*%
%ADD52R,0.0886772X0.0689921*%
%ADD53R,0.0768661X0.0808031*%
%ADD54R,0.0808031X0.0808031*%
%ADD55R,0.0335591X0.0847402*%
%ADD56R,0.0847402X0.0335591*%
%ADD57R,0.0160236X0.0384646*%
%ADD58R,0.0384646X0.0160236*%
%ADD59R,0.172323X0.172323*%
%ADD60C,0.0737165*%
%ADD61R,0.0394646X0.0306063*%
%ADD62R,0.0611181X0.0532441*%
G04 APERTURE END LIST*
G54D10*
G54D11*
X58770Y-59500D02*
G75*
G03X58770Y-59500I-70J0D01*
G74*
G01*
X57850Y-57250D02*
G75*
G03X57850Y-57250I-50J0D01*
G74*
G01*
G54D12*
X67411Y-48395D02*
X67568Y-48395D01*
X67489Y-48671D02*
X67489Y-48395D01*
X67647Y-48592D02*
X67778Y-48592D01*
X67621Y-48671D02*
X67712Y-48395D01*
X67804Y-48671D01*
X67896Y-48671D02*
X67896Y-48395D01*
X68001Y-48395D01*
X68027Y-48409D01*
X68041Y-48422D01*
X68054Y-48448D01*
X68054Y-48487D01*
X68041Y-48514D01*
X68027Y-48527D01*
X68001Y-48540D01*
X67896Y-48540D01*
X68329Y-48671D02*
X68237Y-48540D01*
X68172Y-48671D02*
X68172Y-48395D01*
X68277Y-48395D01*
X68303Y-48409D01*
X68316Y-48422D01*
X68329Y-48448D01*
X68329Y-48487D01*
X68316Y-48514D01*
X68303Y-48527D01*
X68277Y-48540D01*
X68172Y-48540D01*
X68710Y-48395D02*
X68762Y-48395D01*
X68789Y-48409D01*
X68815Y-48435D01*
X68828Y-48487D01*
X68828Y-48579D01*
X68815Y-48632D01*
X68789Y-48658D01*
X68762Y-48671D01*
X68710Y-48671D01*
X68684Y-48658D01*
X68657Y-48632D01*
X68644Y-48579D01*
X68644Y-48487D01*
X68657Y-48435D01*
X68684Y-48409D01*
X68710Y-48395D01*
X68946Y-48671D02*
X68946Y-48395D01*
X68946Y-48527D02*
X69104Y-48527D01*
X69104Y-48671D02*
X69104Y-48395D01*
X69366Y-48671D02*
X69235Y-48671D01*
X69235Y-48395D01*
X69628Y-48395D02*
X69720Y-48671D01*
X69812Y-48395D01*
X70048Y-48671D02*
X69891Y-48671D01*
X69970Y-48671D02*
X69970Y-48395D01*
X69943Y-48435D01*
X69917Y-48461D01*
X69891Y-48474D01*
X70167Y-48645D02*
X70180Y-48658D01*
X70167Y-48671D01*
X70153Y-48658D01*
X70167Y-48645D01*
X70167Y-48671D01*
X70350Y-48395D02*
X70377Y-48395D01*
X70403Y-48409D01*
X70416Y-48422D01*
X70429Y-48448D01*
X70442Y-48500D01*
X70442Y-48566D01*
X70429Y-48619D01*
X70416Y-48645D01*
X70403Y-48658D01*
X70377Y-48671D01*
X70350Y-48671D01*
X70324Y-48658D01*
X70311Y-48645D01*
X70298Y-48619D01*
X70285Y-48566D01*
X70285Y-48500D01*
X70298Y-48448D01*
X70311Y-48422D01*
X70324Y-48409D01*
X70350Y-48395D01*
X67714Y-55267D02*
X67622Y-55267D01*
X67622Y-55411D02*
X67622Y-55135D01*
X67753Y-55135D01*
X67976Y-55411D02*
X67976Y-55267D01*
X67963Y-55240D01*
X67937Y-55227D01*
X67885Y-55227D01*
X67858Y-55240D01*
X67976Y-55398D02*
X67950Y-55411D01*
X67885Y-55411D01*
X67858Y-55398D01*
X67845Y-55372D01*
X67845Y-55345D01*
X67858Y-55319D01*
X67885Y-55306D01*
X67950Y-55306D01*
X67976Y-55293D01*
X68108Y-55411D02*
X68108Y-55227D01*
X68108Y-55280D02*
X68121Y-55254D01*
X68134Y-55240D01*
X68160Y-55227D01*
X68186Y-55227D01*
X68396Y-55411D02*
X68396Y-55267D01*
X68383Y-55240D01*
X68357Y-55227D01*
X68305Y-55227D01*
X68278Y-55240D01*
X68396Y-55398D02*
X68370Y-55411D01*
X68305Y-55411D01*
X68278Y-55398D01*
X68265Y-55372D01*
X68265Y-55345D01*
X68278Y-55319D01*
X68305Y-55306D01*
X68370Y-55306D01*
X68396Y-55293D01*
X68646Y-55411D02*
X68646Y-55135D01*
X68646Y-55398D02*
X68620Y-55411D01*
X68567Y-55411D01*
X68541Y-55398D01*
X68528Y-55385D01*
X68515Y-55359D01*
X68515Y-55280D01*
X68528Y-55254D01*
X68541Y-55240D01*
X68567Y-55227D01*
X68620Y-55227D01*
X68646Y-55240D01*
X68895Y-55411D02*
X68895Y-55267D01*
X68882Y-55240D01*
X68856Y-55227D01*
X68803Y-55227D01*
X68777Y-55240D01*
X68895Y-55398D02*
X68869Y-55411D01*
X68803Y-55411D01*
X68777Y-55398D01*
X68764Y-55372D01*
X68764Y-55345D01*
X68777Y-55319D01*
X68803Y-55306D01*
X68869Y-55306D01*
X68895Y-55293D01*
X69000Y-55227D02*
X69066Y-55411D01*
X69131Y-55227D02*
X69066Y-55411D01*
X69039Y-55477D01*
X69026Y-55490D01*
X69000Y-55503D01*
X69394Y-55411D02*
X69302Y-55280D01*
X69236Y-55411D02*
X69236Y-55135D01*
X69341Y-55135D01*
X69368Y-55149D01*
X69381Y-55162D01*
X69394Y-55188D01*
X69394Y-55227D01*
X69381Y-55254D01*
X69368Y-55267D01*
X69341Y-55280D01*
X69236Y-55280D01*
X69604Y-55267D02*
X69512Y-55267D01*
X69512Y-55411D02*
X69512Y-55135D01*
X69643Y-55135D01*
X76252Y-40830D02*
X76252Y-40630D01*
X76300Y-40630D01*
X76328Y-40640D01*
X76347Y-40659D01*
X76357Y-40678D01*
X76366Y-40716D01*
X76366Y-40745D01*
X76357Y-40783D01*
X76347Y-40802D01*
X76328Y-40821D01*
X76300Y-40830D01*
X76252Y-40830D01*
X76480Y-40716D02*
X76461Y-40707D01*
X76452Y-40697D01*
X76442Y-40678D01*
X76442Y-40669D01*
X76452Y-40650D01*
X76461Y-40640D01*
X76480Y-40630D01*
X76519Y-40630D01*
X76538Y-40640D01*
X76547Y-40650D01*
X76557Y-40669D01*
X76557Y-40678D01*
X76547Y-40697D01*
X76538Y-40707D01*
X76519Y-40716D01*
X76480Y-40716D01*
X76461Y-40726D01*
X76452Y-40735D01*
X76442Y-40754D01*
X76442Y-40792D01*
X76452Y-40811D01*
X76461Y-40821D01*
X76480Y-40830D01*
X76519Y-40830D01*
X76538Y-40821D01*
X76547Y-40811D01*
X76557Y-40792D01*
X76557Y-40754D01*
X76547Y-40735D01*
X76538Y-40726D01*
X76519Y-40716D01*
X77852Y-40830D02*
X77852Y-40630D01*
X77900Y-40630D01*
X77928Y-40640D01*
X77947Y-40659D01*
X77957Y-40678D01*
X77966Y-40716D01*
X77966Y-40745D01*
X77957Y-40783D01*
X77947Y-40802D01*
X77928Y-40821D01*
X77900Y-40830D01*
X77852Y-40830D01*
X78033Y-40630D02*
X78166Y-40630D01*
X78080Y-40830D01*
X78852Y-40830D02*
X78852Y-40630D01*
X78900Y-40630D01*
X78928Y-40640D01*
X78947Y-40659D01*
X78957Y-40678D01*
X78966Y-40716D01*
X78966Y-40745D01*
X78957Y-40783D01*
X78947Y-40802D01*
X78928Y-40821D01*
X78900Y-40830D01*
X78852Y-40830D01*
X79138Y-40630D02*
X79100Y-40630D01*
X79080Y-40640D01*
X79071Y-40650D01*
X79052Y-40678D01*
X79042Y-40716D01*
X79042Y-40792D01*
X79052Y-40811D01*
X79061Y-40821D01*
X79080Y-40830D01*
X79119Y-40830D01*
X79138Y-40821D01*
X79147Y-40811D01*
X79157Y-40792D01*
X79157Y-40745D01*
X79147Y-40726D01*
X79138Y-40716D01*
X79119Y-40707D01*
X79080Y-40707D01*
X79061Y-40716D01*
X79052Y-40726D01*
X79042Y-40745D01*
X79852Y-40830D02*
X79852Y-40630D01*
X79900Y-40630D01*
X79928Y-40640D01*
X79947Y-40659D01*
X79957Y-40678D01*
X79966Y-40716D01*
X79966Y-40745D01*
X79957Y-40783D01*
X79947Y-40802D01*
X79928Y-40821D01*
X79900Y-40830D01*
X79852Y-40830D01*
X80147Y-40630D02*
X80052Y-40630D01*
X80042Y-40726D01*
X80052Y-40716D01*
X80071Y-40707D01*
X80119Y-40707D01*
X80138Y-40716D01*
X80147Y-40726D01*
X80157Y-40745D01*
X80157Y-40792D01*
X80147Y-40811D01*
X80138Y-40821D01*
X80119Y-40830D01*
X80071Y-40830D01*
X80052Y-40821D01*
X80042Y-40811D01*
X80852Y-40830D02*
X80852Y-40630D01*
X80900Y-40630D01*
X80928Y-40640D01*
X80947Y-40659D01*
X80957Y-40678D01*
X80966Y-40716D01*
X80966Y-40745D01*
X80957Y-40783D01*
X80947Y-40802D01*
X80928Y-40821D01*
X80900Y-40830D01*
X80852Y-40830D01*
X81138Y-40697D02*
X81138Y-40830D01*
X81090Y-40621D02*
X81042Y-40764D01*
X81166Y-40764D01*
X81852Y-40830D02*
X81852Y-40630D01*
X81900Y-40630D01*
X81928Y-40640D01*
X81947Y-40659D01*
X81957Y-40678D01*
X81966Y-40716D01*
X81966Y-40745D01*
X81957Y-40783D01*
X81947Y-40802D01*
X81928Y-40821D01*
X81900Y-40830D01*
X81852Y-40830D01*
X82033Y-40630D02*
X82157Y-40630D01*
X82090Y-40707D01*
X82119Y-40707D01*
X82138Y-40716D01*
X82147Y-40726D01*
X82157Y-40745D01*
X82157Y-40792D01*
X82147Y-40811D01*
X82138Y-40821D01*
X82119Y-40830D01*
X82061Y-40830D01*
X82042Y-40821D01*
X82033Y-40811D01*
X82852Y-40830D02*
X82852Y-40630D01*
X82900Y-40630D01*
X82928Y-40640D01*
X82947Y-40659D01*
X82957Y-40678D01*
X82966Y-40716D01*
X82966Y-40745D01*
X82957Y-40783D01*
X82947Y-40802D01*
X82928Y-40821D01*
X82900Y-40830D01*
X82852Y-40830D01*
X83042Y-40650D02*
X83052Y-40640D01*
X83071Y-40630D01*
X83119Y-40630D01*
X83138Y-40640D01*
X83147Y-40650D01*
X83157Y-40669D01*
X83157Y-40688D01*
X83147Y-40716D01*
X83033Y-40830D01*
X83157Y-40830D01*
X83852Y-40830D02*
X83852Y-40630D01*
X83900Y-40630D01*
X83928Y-40640D01*
X83947Y-40659D01*
X83957Y-40678D01*
X83966Y-40716D01*
X83966Y-40745D01*
X83957Y-40783D01*
X83947Y-40802D01*
X83928Y-40821D01*
X83900Y-40830D01*
X83852Y-40830D01*
X84157Y-40830D02*
X84042Y-40830D01*
X84100Y-40830D02*
X84100Y-40630D01*
X84080Y-40659D01*
X84061Y-40678D01*
X84042Y-40688D01*
X84852Y-40830D02*
X84852Y-40630D01*
X84900Y-40630D01*
X84928Y-40640D01*
X84947Y-40659D01*
X84957Y-40678D01*
X84966Y-40716D01*
X84966Y-40745D01*
X84957Y-40783D01*
X84947Y-40802D01*
X84928Y-40821D01*
X84900Y-40830D01*
X84852Y-40830D01*
X85090Y-40630D02*
X85109Y-40630D01*
X85128Y-40640D01*
X85138Y-40650D01*
X85147Y-40669D01*
X85157Y-40707D01*
X85157Y-40754D01*
X85147Y-40792D01*
X85138Y-40811D01*
X85128Y-40821D01*
X85109Y-40830D01*
X85090Y-40830D01*
X85071Y-40821D01*
X85061Y-40811D01*
X85052Y-40792D01*
X85042Y-40754D01*
X85042Y-40707D01*
X85052Y-40669D01*
X85061Y-40650D01*
X85071Y-40640D01*
X85090Y-40630D01*
G54D13*
X60369Y-45031D02*
X60074Y-45031D01*
X60074Y-44919D01*
X60088Y-44891D01*
X60102Y-44877D01*
X60130Y-44863D01*
X60172Y-44863D01*
X60200Y-44877D01*
X60214Y-44891D01*
X60228Y-44919D01*
X60228Y-45031D01*
X60074Y-44680D02*
X60074Y-44624D01*
X60088Y-44596D01*
X60116Y-44567D01*
X60172Y-44553D01*
X60271Y-44553D01*
X60327Y-44567D01*
X60355Y-44596D01*
X60369Y-44624D01*
X60369Y-44680D01*
X60355Y-44708D01*
X60327Y-44736D01*
X60271Y-44750D01*
X60172Y-44750D01*
X60116Y-44736D01*
X60088Y-44708D01*
X60074Y-44680D01*
X60074Y-44455D02*
X60369Y-44385D01*
X60158Y-44328D01*
X60369Y-44272D01*
X60074Y-44202D01*
X60214Y-44089D02*
X60214Y-43991D01*
X60369Y-43949D02*
X60369Y-44089D01*
X60074Y-44089D01*
X60074Y-43949D01*
X60369Y-43653D02*
X60228Y-43752D01*
X60369Y-43822D02*
X60074Y-43822D01*
X60074Y-43710D01*
X60088Y-43682D01*
X60102Y-43668D01*
X60130Y-43653D01*
X60172Y-43653D01*
X60200Y-43668D01*
X60214Y-43682D01*
X60228Y-43710D01*
X60228Y-43822D01*
X60369Y-47266D02*
X60074Y-47266D01*
X60285Y-47167D01*
X60074Y-47069D01*
X60369Y-47069D01*
X60074Y-46872D02*
X60074Y-46816D01*
X60088Y-46788D01*
X60116Y-46760D01*
X60172Y-46746D01*
X60271Y-46746D01*
X60327Y-46760D01*
X60355Y-46788D01*
X60369Y-46816D01*
X60369Y-46872D01*
X60355Y-46900D01*
X60327Y-46928D01*
X60271Y-46942D01*
X60172Y-46942D01*
X60116Y-46928D01*
X60088Y-46900D01*
X60074Y-46872D01*
X60355Y-46633D02*
X60369Y-46591D01*
X60369Y-46521D01*
X60355Y-46492D01*
X60341Y-46478D01*
X60313Y-46464D01*
X60285Y-46464D01*
X60257Y-46478D01*
X60242Y-46492D01*
X60228Y-46521D01*
X60214Y-46577D01*
X60200Y-46605D01*
X60186Y-46619D01*
X60158Y-46633D01*
X60130Y-46633D01*
X60102Y-46619D01*
X60088Y-46605D01*
X60074Y-46577D01*
X60074Y-46507D01*
X60088Y-46464D01*
X60214Y-46239D02*
X60214Y-46338D01*
X60369Y-46338D02*
X60074Y-46338D01*
X60074Y-46197D01*
X60214Y-46085D02*
X60214Y-45986D01*
X60369Y-45944D02*
X60369Y-46085D01*
X60074Y-46085D01*
X60074Y-45944D01*
X60074Y-45860D02*
X60074Y-45691D01*
X60369Y-45775D02*
X60074Y-45775D01*
X59825Y-46141D02*
X59825Y-46310D01*
X59530Y-46225D02*
X59825Y-46225D01*
X59614Y-46394D02*
X59614Y-46535D01*
X59530Y-46366D02*
X59825Y-46464D01*
X59530Y-46563D01*
X59685Y-46760D02*
X59671Y-46802D01*
X59657Y-46816D01*
X59628Y-46830D01*
X59586Y-46830D01*
X59558Y-46816D01*
X59544Y-46802D01*
X59530Y-46774D01*
X59530Y-46661D01*
X59825Y-46661D01*
X59825Y-46760D01*
X59811Y-46788D01*
X59797Y-46802D01*
X59769Y-46816D01*
X59741Y-46816D01*
X59713Y-46802D01*
X59699Y-46788D01*
X59685Y-46760D01*
X59685Y-46661D01*
X57674Y-44708D02*
X57674Y-44539D01*
X57969Y-44624D02*
X57674Y-44624D01*
X57885Y-44455D02*
X57885Y-44314D01*
X57969Y-44483D02*
X57674Y-44385D01*
X57969Y-44286D01*
X57814Y-44089D02*
X57828Y-44047D01*
X57842Y-44033D01*
X57871Y-44019D01*
X57913Y-44019D01*
X57941Y-44033D01*
X57955Y-44047D01*
X57969Y-44075D01*
X57969Y-44188D01*
X57674Y-44188D01*
X57674Y-44089D01*
X57688Y-44061D01*
X57702Y-44047D01*
X57730Y-44033D01*
X57758Y-44033D01*
X57786Y-44047D01*
X57800Y-44061D01*
X57814Y-44089D01*
X57814Y-44188D01*
X80164Y-49599D02*
X80164Y-49697D01*
X80319Y-49697D02*
X80024Y-49697D01*
X80024Y-49556D01*
X80319Y-49303D02*
X80319Y-49444D01*
X80024Y-49444D01*
X80235Y-49219D02*
X80235Y-49078D01*
X80319Y-49247D02*
X80024Y-49149D01*
X80319Y-49050D01*
X80305Y-48966D02*
X80319Y-48924D01*
X80319Y-48853D01*
X80305Y-48825D01*
X80291Y-48811D01*
X80263Y-48797D01*
X80235Y-48797D01*
X80207Y-48811D01*
X80192Y-48825D01*
X80178Y-48853D01*
X80164Y-48910D01*
X80150Y-48938D01*
X80136Y-48952D01*
X80108Y-48966D01*
X80080Y-48966D01*
X80052Y-48952D01*
X80038Y-48938D01*
X80024Y-48910D01*
X80024Y-48839D01*
X80038Y-48797D01*
X80319Y-48671D02*
X80024Y-48671D01*
X80164Y-48671D02*
X80164Y-48502D01*
X80319Y-48502D02*
X80024Y-48502D01*
X76922Y-46855D02*
X76964Y-46869D01*
X77035Y-46869D01*
X77063Y-46855D01*
X77077Y-46841D01*
X77091Y-46813D01*
X77091Y-46785D01*
X77077Y-46757D01*
X77063Y-46742D01*
X77035Y-46728D01*
X76978Y-46714D01*
X76950Y-46700D01*
X76936Y-46686D01*
X76922Y-46658D01*
X76922Y-46630D01*
X76936Y-46602D01*
X76950Y-46588D01*
X76978Y-46574D01*
X77049Y-46574D01*
X77091Y-46588D01*
X77386Y-46869D02*
X77288Y-46728D01*
X77217Y-46869D02*
X77217Y-46574D01*
X77330Y-46574D01*
X77358Y-46588D01*
X77372Y-46602D01*
X77386Y-46630D01*
X77386Y-46672D01*
X77372Y-46700D01*
X77358Y-46714D01*
X77330Y-46728D01*
X77217Y-46728D01*
X77499Y-46785D02*
X77639Y-46785D01*
X77471Y-46869D02*
X77569Y-46574D01*
X77667Y-46869D01*
X77766Y-46869D02*
X77766Y-46574D01*
X77864Y-46785D01*
X77963Y-46574D01*
X77963Y-46869D01*
G54D12*
X84857Y-59773D02*
X84952Y-59773D01*
X84838Y-59830D02*
X84904Y-59630D01*
X84971Y-59830D01*
X85133Y-59630D02*
X85038Y-59630D01*
X85028Y-59726D01*
X85038Y-59716D01*
X85057Y-59707D01*
X85104Y-59707D01*
X85123Y-59716D01*
X85133Y-59726D01*
X85142Y-59745D01*
X85142Y-59792D01*
X85133Y-59811D01*
X85123Y-59821D01*
X85104Y-59830D01*
X85057Y-59830D01*
X85038Y-59821D01*
X85028Y-59811D01*
X83857Y-59773D02*
X83952Y-59773D01*
X83838Y-59830D02*
X83904Y-59630D01*
X83971Y-59830D01*
X84123Y-59697D02*
X84123Y-59830D01*
X84076Y-59621D02*
X84028Y-59764D01*
X84152Y-59764D01*
X82857Y-59773D02*
X82952Y-59773D01*
X82838Y-59830D02*
X82904Y-59630D01*
X82971Y-59830D01*
X83019Y-59630D02*
X83142Y-59630D01*
X83076Y-59707D01*
X83104Y-59707D01*
X83123Y-59716D01*
X83133Y-59726D01*
X83142Y-59745D01*
X83142Y-59792D01*
X83133Y-59811D01*
X83123Y-59821D01*
X83104Y-59830D01*
X83047Y-59830D01*
X83028Y-59821D01*
X83019Y-59811D01*
X81857Y-59773D02*
X81952Y-59773D01*
X81838Y-59830D02*
X81904Y-59630D01*
X81971Y-59830D01*
X82028Y-59650D02*
X82038Y-59640D01*
X82057Y-59630D01*
X82104Y-59630D01*
X82123Y-59640D01*
X82133Y-59650D01*
X82142Y-59669D01*
X82142Y-59688D01*
X82133Y-59716D01*
X82019Y-59830D01*
X82142Y-59830D01*
X80857Y-59773D02*
X80952Y-59773D01*
X80838Y-59830D02*
X80904Y-59630D01*
X80971Y-59830D01*
X81142Y-59830D02*
X81028Y-59830D01*
X81085Y-59830D02*
X81085Y-59630D01*
X81066Y-59659D01*
X81047Y-59678D01*
X81028Y-59688D01*
X79857Y-59773D02*
X79952Y-59773D01*
X79838Y-59830D02*
X79904Y-59630D01*
X79971Y-59830D01*
X80076Y-59630D02*
X80095Y-59630D01*
X80114Y-59640D01*
X80123Y-59650D01*
X80133Y-59669D01*
X80142Y-59707D01*
X80142Y-59754D01*
X80133Y-59792D01*
X80123Y-59811D01*
X80114Y-59821D01*
X80095Y-59830D01*
X80076Y-59830D01*
X80057Y-59821D01*
X80047Y-59811D01*
X80038Y-59792D01*
X80028Y-59754D01*
X80028Y-59707D01*
X80038Y-59669D01*
X80047Y-59650D01*
X80057Y-59640D01*
X80076Y-59630D01*
X77183Y-57880D02*
X77250Y-58080D01*
X77316Y-57880D01*
X77497Y-58061D02*
X77488Y-58071D01*
X77459Y-58080D01*
X77440Y-58080D01*
X77411Y-58071D01*
X77392Y-58052D01*
X77383Y-58033D01*
X77373Y-57995D01*
X77373Y-57966D01*
X77383Y-57928D01*
X77392Y-57909D01*
X77411Y-57890D01*
X77440Y-57880D01*
X77459Y-57880D01*
X77488Y-57890D01*
X77497Y-57900D01*
X77697Y-58061D02*
X77688Y-58071D01*
X77659Y-58080D01*
X77640Y-58080D01*
X77611Y-58071D01*
X77592Y-58052D01*
X77583Y-58033D01*
X77573Y-57995D01*
X77573Y-57966D01*
X77583Y-57928D01*
X77592Y-57909D01*
X77611Y-57890D01*
X77640Y-57880D01*
X77659Y-57880D01*
X77688Y-57890D01*
X77697Y-57900D01*
X63204Y-50869D02*
X63204Y-50716D01*
X63280Y-50792D02*
X63128Y-50792D01*
X63080Y-50640D02*
X63080Y-50516D01*
X63157Y-50583D01*
X63157Y-50554D01*
X63166Y-50535D01*
X63176Y-50526D01*
X63195Y-50516D01*
X63242Y-50516D01*
X63261Y-50526D01*
X63271Y-50535D01*
X63280Y-50554D01*
X63280Y-50611D01*
X63271Y-50630D01*
X63261Y-50640D01*
X63261Y-50430D02*
X63271Y-50421D01*
X63280Y-50430D01*
X63271Y-50440D01*
X63261Y-50430D01*
X63280Y-50430D01*
X63080Y-50354D02*
X63080Y-50230D01*
X63157Y-50297D01*
X63157Y-50269D01*
X63166Y-50250D01*
X63176Y-50240D01*
X63195Y-50230D01*
X63242Y-50230D01*
X63261Y-50240D01*
X63271Y-50250D01*
X63280Y-50269D01*
X63280Y-50326D01*
X63271Y-50345D01*
X63261Y-50354D01*
X63080Y-50173D02*
X63280Y-50107D01*
X63080Y-50040D01*
X63280Y-49707D02*
X63185Y-49773D01*
X63280Y-49821D02*
X63080Y-49821D01*
X63080Y-49745D01*
X63090Y-49726D01*
X63100Y-49716D01*
X63119Y-49707D01*
X63147Y-49707D01*
X63166Y-49716D01*
X63176Y-49726D01*
X63185Y-49745D01*
X63185Y-49821D01*
X63176Y-49621D02*
X63176Y-49554D01*
X63280Y-49526D02*
X63280Y-49621D01*
X63080Y-49621D01*
X63080Y-49526D01*
X63090Y-49335D02*
X63080Y-49354D01*
X63080Y-49383D01*
X63090Y-49411D01*
X63109Y-49430D01*
X63128Y-49440D01*
X63166Y-49449D01*
X63195Y-49449D01*
X63233Y-49440D01*
X63252Y-49430D01*
X63271Y-49411D01*
X63280Y-49383D01*
X63280Y-49364D01*
X63271Y-49335D01*
X63261Y-49326D01*
X63195Y-49326D01*
X63195Y-49364D01*
X63080Y-49240D02*
X63242Y-49240D01*
X63261Y-49230D01*
X63271Y-49221D01*
X63280Y-49202D01*
X63280Y-49164D01*
X63271Y-49145D01*
X63261Y-49135D01*
X63242Y-49126D01*
X63080Y-49126D01*
X63280Y-48935D02*
X63280Y-49030D01*
X63080Y-49030D01*
X63223Y-48878D02*
X63223Y-48783D01*
X63280Y-48897D02*
X63080Y-48830D01*
X63280Y-48764D01*
X63080Y-48726D02*
X63080Y-48611D01*
X63280Y-48669D02*
X63080Y-48669D01*
X63080Y-48507D02*
X63080Y-48469D01*
X63090Y-48449D01*
X63109Y-48430D01*
X63147Y-48421D01*
X63214Y-48421D01*
X63252Y-48430D01*
X63271Y-48449D01*
X63280Y-48469D01*
X63280Y-48507D01*
X63271Y-48526D01*
X63252Y-48545D01*
X63214Y-48554D01*
X63147Y-48554D01*
X63109Y-48545D01*
X63090Y-48526D01*
X63080Y-48507D01*
X63280Y-48221D02*
X63185Y-48288D01*
X63280Y-48335D02*
X63080Y-48335D01*
X63080Y-48259D01*
X63090Y-48240D01*
X63100Y-48230D01*
X63119Y-48221D01*
X63147Y-48221D01*
X63166Y-48230D01*
X63176Y-48240D01*
X63185Y-48259D01*
X63185Y-48335D01*
G54D13*
X77434Y-54541D02*
X77420Y-54555D01*
X77378Y-54569D01*
X77350Y-54569D01*
X77307Y-54555D01*
X77279Y-54527D01*
X77265Y-54499D01*
X77251Y-54442D01*
X77251Y-54400D01*
X77265Y-54344D01*
X77279Y-54316D01*
X77307Y-54288D01*
X77350Y-54274D01*
X77378Y-54274D01*
X77420Y-54288D01*
X77434Y-54302D01*
X77729Y-54541D02*
X77715Y-54555D01*
X77673Y-54569D01*
X77645Y-54569D01*
X77603Y-54555D01*
X77575Y-54527D01*
X77561Y-54499D01*
X77547Y-54442D01*
X77547Y-54400D01*
X77561Y-54344D01*
X77575Y-54316D01*
X77603Y-54288D01*
X77645Y-54274D01*
X77673Y-54274D01*
X77715Y-54288D01*
X77729Y-54302D01*
X77982Y-54372D02*
X77982Y-54569D01*
X77912Y-54260D02*
X77842Y-54471D01*
X78025Y-54471D01*
X78109Y-54274D02*
X78292Y-54274D01*
X78193Y-54386D01*
X78235Y-54386D01*
X78264Y-54400D01*
X78278Y-54414D01*
X78292Y-54442D01*
X78292Y-54513D01*
X78278Y-54541D01*
X78264Y-54555D01*
X78235Y-54569D01*
X78151Y-54569D01*
X78123Y-54555D01*
X78109Y-54541D01*
X78475Y-54274D02*
X78503Y-54274D01*
X78531Y-54288D01*
X78545Y-54302D01*
X78559Y-54330D01*
X78573Y-54386D01*
X78573Y-54457D01*
X78559Y-54513D01*
X78545Y-54541D01*
X78531Y-54555D01*
X78503Y-54569D01*
X78475Y-54569D01*
X78446Y-54555D01*
X78432Y-54541D01*
X78418Y-54513D01*
X78404Y-54457D01*
X78404Y-54386D01*
X78418Y-54330D01*
X78432Y-54302D01*
X78446Y-54288D01*
X78475Y-54274D01*
X78882Y-54274D02*
X79051Y-54274D01*
X78967Y-54569D02*
X78967Y-54274D01*
X79121Y-54274D02*
X79318Y-54569D01*
X79318Y-54274D02*
X79121Y-54569D01*
X79599Y-54541D02*
X79585Y-54555D01*
X79543Y-54569D01*
X79515Y-54569D01*
X79473Y-54555D01*
X79445Y-54527D01*
X79431Y-54499D01*
X79417Y-54442D01*
X79417Y-54400D01*
X79431Y-54344D01*
X79445Y-54316D01*
X79473Y-54288D01*
X79515Y-54274D01*
X79543Y-54274D01*
X79585Y-54288D01*
X79599Y-54302D01*
X79684Y-54274D02*
X79782Y-54569D01*
X79881Y-54274D01*
X80148Y-54569D02*
X80049Y-54428D01*
X79979Y-54569D02*
X79979Y-54274D01*
X80092Y-54274D01*
X80120Y-54288D01*
X80134Y-54302D01*
X80148Y-54330D01*
X80148Y-54372D01*
X80134Y-54400D01*
X80120Y-54414D01*
X80092Y-54428D01*
X79979Y-54428D01*
X67923Y-41274D02*
X67923Y-41513D01*
X67937Y-41541D01*
X67951Y-41555D01*
X67979Y-41569D01*
X68036Y-41569D01*
X68064Y-41555D01*
X68078Y-41541D01*
X68092Y-41513D01*
X68092Y-41274D01*
X68218Y-41555D02*
X68261Y-41569D01*
X68331Y-41569D01*
X68359Y-41555D01*
X68373Y-41541D01*
X68387Y-41513D01*
X68387Y-41485D01*
X68373Y-41457D01*
X68359Y-41442D01*
X68331Y-41428D01*
X68275Y-41414D01*
X68246Y-41400D01*
X68232Y-41386D01*
X68218Y-41358D01*
X68218Y-41330D01*
X68232Y-41302D01*
X68246Y-41288D01*
X68275Y-41274D01*
X68345Y-41274D01*
X68387Y-41288D01*
X68612Y-41414D02*
X68654Y-41428D01*
X68668Y-41442D01*
X68682Y-41471D01*
X68682Y-41513D01*
X68668Y-41541D01*
X68654Y-41555D01*
X68626Y-41569D01*
X68514Y-41569D01*
X68514Y-41274D01*
X68612Y-41274D01*
X68640Y-41288D01*
X68654Y-41302D01*
X68668Y-41330D01*
X68668Y-41358D01*
X68654Y-41386D01*
X68640Y-41400D01*
X68612Y-41414D01*
X68514Y-41414D01*
X69034Y-41274D02*
X69034Y-41513D01*
X69048Y-41541D01*
X69062Y-41555D01*
X69090Y-41569D01*
X69146Y-41569D01*
X69174Y-41555D01*
X69189Y-41541D01*
X69203Y-41513D01*
X69203Y-41274D01*
X69329Y-41485D02*
X69470Y-41485D01*
X69301Y-41569D02*
X69399Y-41274D01*
X69498Y-41569D01*
X69765Y-41569D02*
X69667Y-41428D01*
X69596Y-41569D02*
X69596Y-41274D01*
X69709Y-41274D01*
X69737Y-41288D01*
X69751Y-41302D01*
X69765Y-41330D01*
X69765Y-41372D01*
X69751Y-41400D01*
X69737Y-41414D01*
X69709Y-41428D01*
X69596Y-41428D01*
X69849Y-41274D02*
X70018Y-41274D01*
X69934Y-41569D02*
X69934Y-41274D01*
X81222Y-44869D02*
X81124Y-44728D01*
X81054Y-44869D02*
X81054Y-44574D01*
X81166Y-44574D01*
X81194Y-44588D01*
X81208Y-44602D01*
X81222Y-44630D01*
X81222Y-44672D01*
X81208Y-44700D01*
X81194Y-44714D01*
X81166Y-44728D01*
X81054Y-44728D01*
X81447Y-44714D02*
X81349Y-44714D01*
X81349Y-44869D02*
X81349Y-44574D01*
X81489Y-44574D01*
X81827Y-44869D02*
X81827Y-44574D01*
X81939Y-44574D01*
X81967Y-44588D01*
X81982Y-44602D01*
X81996Y-44630D01*
X81996Y-44672D01*
X81982Y-44700D01*
X81967Y-44714D01*
X81939Y-44728D01*
X81827Y-44728D01*
X82108Y-44785D02*
X82249Y-44785D01*
X82080Y-44869D02*
X82178Y-44574D01*
X82277Y-44869D01*
X82586Y-44560D02*
X82333Y-44939D01*
X82825Y-44869D02*
X82685Y-44869D01*
X82685Y-44574D01*
X82924Y-44869D02*
X82924Y-44574D01*
X83092Y-44869D01*
X83092Y-44574D01*
X83219Y-44785D02*
X83360Y-44785D01*
X83191Y-44869D02*
X83289Y-44574D01*
X83388Y-44869D01*
X63488Y-55592D02*
X63474Y-55620D01*
X63474Y-55663D01*
X63488Y-55705D01*
X63516Y-55733D01*
X63544Y-55747D01*
X63600Y-55761D01*
X63642Y-55761D01*
X63699Y-55747D01*
X63727Y-55733D01*
X63755Y-55705D01*
X63769Y-55663D01*
X63769Y-55635D01*
X63755Y-55592D01*
X63741Y-55578D01*
X63642Y-55578D01*
X63642Y-55635D01*
X63769Y-55452D02*
X63474Y-55452D01*
X63474Y-55339D01*
X63488Y-55311D01*
X63502Y-55297D01*
X63530Y-55283D01*
X63572Y-55283D01*
X63600Y-55297D01*
X63614Y-55311D01*
X63628Y-55339D01*
X63628Y-55452D01*
X63755Y-55171D02*
X63769Y-55128D01*
X63769Y-55058D01*
X63755Y-55030D01*
X63741Y-55016D01*
X63713Y-55002D01*
X63685Y-55002D01*
X63657Y-55016D01*
X63642Y-55030D01*
X63628Y-55058D01*
X63614Y-55114D01*
X63600Y-55142D01*
X63586Y-55156D01*
X63558Y-55171D01*
X63530Y-55171D01*
X63502Y-55156D01*
X63488Y-55142D01*
X63474Y-55114D01*
X63474Y-55044D01*
X63488Y-55002D01*
X63769Y-54482D02*
X63628Y-54580D01*
X63769Y-54650D02*
X63474Y-54650D01*
X63474Y-54538D01*
X63488Y-54510D01*
X63502Y-54496D01*
X63530Y-54482D01*
X63572Y-54482D01*
X63600Y-54496D01*
X63614Y-54510D01*
X63628Y-54538D01*
X63628Y-54650D01*
X63741Y-54186D02*
X63755Y-54200D01*
X63769Y-54243D01*
X63769Y-54271D01*
X63755Y-54313D01*
X63727Y-54341D01*
X63699Y-54355D01*
X63642Y-54369D01*
X63600Y-54369D01*
X63544Y-54355D01*
X63516Y-54341D01*
X63488Y-54313D01*
X63474Y-54271D01*
X63474Y-54243D01*
X63488Y-54200D01*
X63502Y-54186D01*
X63474Y-54102D02*
X63769Y-54003D01*
X63474Y-53905D01*
X63769Y-53638D02*
X63628Y-53736D01*
X63769Y-53807D02*
X63474Y-53807D01*
X63474Y-53694D01*
X63488Y-53666D01*
X63502Y-53652D01*
X63530Y-53638D01*
X63572Y-53638D01*
X63600Y-53652D01*
X63614Y-53666D01*
X63628Y-53694D01*
X63628Y-53807D01*
X79352Y-58269D02*
X79254Y-58128D01*
X79184Y-58269D02*
X79184Y-57974D01*
X79296Y-57974D01*
X79324Y-57988D01*
X79338Y-58002D01*
X79352Y-58030D01*
X79352Y-58072D01*
X79338Y-58100D01*
X79324Y-58114D01*
X79296Y-58128D01*
X79184Y-58128D01*
X79591Y-58255D02*
X79563Y-58269D01*
X79507Y-58269D01*
X79479Y-58255D01*
X79465Y-58227D01*
X79465Y-58114D01*
X79479Y-58086D01*
X79507Y-58072D01*
X79563Y-58072D01*
X79591Y-58086D01*
X79605Y-58114D01*
X79605Y-58142D01*
X79465Y-58171D01*
X79690Y-58072D02*
X79802Y-58072D01*
X79732Y-58269D02*
X79732Y-58016D01*
X79746Y-57988D01*
X79774Y-57974D01*
X79802Y-57974D01*
X79901Y-58241D02*
X79915Y-58255D01*
X79901Y-58269D01*
X79887Y-58255D01*
X79901Y-58241D01*
X79901Y-58269D01*
X80224Y-57974D02*
X80322Y-58269D01*
X80421Y-57974D01*
X80561Y-58269D02*
X80533Y-58255D01*
X80519Y-58241D01*
X80505Y-58213D01*
X80505Y-58128D01*
X80519Y-58100D01*
X80533Y-58086D01*
X80561Y-58072D01*
X80604Y-58072D01*
X80632Y-58086D01*
X80646Y-58100D01*
X80660Y-58128D01*
X80660Y-58213D01*
X80646Y-58241D01*
X80632Y-58255D01*
X80604Y-58269D01*
X80561Y-58269D01*
X80829Y-58269D02*
X80801Y-58255D01*
X80786Y-58227D01*
X80786Y-57974D01*
X80899Y-58072D02*
X81011Y-58072D01*
X80941Y-57974D02*
X80941Y-58227D01*
X80955Y-58255D01*
X80983Y-58269D01*
X81011Y-58269D01*
X81236Y-58269D02*
X81236Y-58114D01*
X81222Y-58086D01*
X81194Y-58072D01*
X81138Y-58072D01*
X81110Y-58086D01*
X81236Y-58255D02*
X81208Y-58269D01*
X81138Y-58269D01*
X81110Y-58255D01*
X81096Y-58227D01*
X81096Y-58199D01*
X81110Y-58171D01*
X81138Y-58157D01*
X81208Y-58157D01*
X81236Y-58142D01*
X81504Y-58072D02*
X81504Y-58311D01*
X81489Y-58339D01*
X81475Y-58353D01*
X81447Y-58367D01*
X81405Y-58367D01*
X81377Y-58353D01*
X81504Y-58255D02*
X81475Y-58269D01*
X81419Y-58269D01*
X81391Y-58255D01*
X81377Y-58241D01*
X81363Y-58213D01*
X81363Y-58128D01*
X81377Y-58100D01*
X81391Y-58086D01*
X81419Y-58072D01*
X81475Y-58072D01*
X81504Y-58086D01*
X81757Y-58255D02*
X81729Y-58269D01*
X81672Y-58269D01*
X81644Y-58255D01*
X81630Y-58227D01*
X81630Y-58114D01*
X81644Y-58086D01*
X81672Y-58072D01*
X81729Y-58072D01*
X81757Y-58086D01*
X81771Y-58114D01*
X81771Y-58142D01*
X81630Y-58171D01*
X82122Y-58114D02*
X82347Y-58114D01*
X82347Y-58199D02*
X82122Y-58199D01*
X82699Y-58002D02*
X82713Y-57988D01*
X82741Y-57974D01*
X82811Y-57974D01*
X82839Y-57988D01*
X82853Y-58002D01*
X82867Y-58030D01*
X82867Y-58058D01*
X82853Y-58100D01*
X82685Y-58269D01*
X82867Y-58269D01*
X82994Y-58241D02*
X83008Y-58255D01*
X82994Y-58269D01*
X82980Y-58255D01*
X82994Y-58241D01*
X82994Y-58269D01*
X83261Y-58072D02*
X83261Y-58269D01*
X83191Y-57960D02*
X83121Y-58171D01*
X83303Y-58171D01*
X83570Y-58269D02*
X83402Y-58269D01*
X83486Y-58269D02*
X83486Y-57974D01*
X83458Y-58016D01*
X83430Y-58044D01*
X83402Y-58058D01*
X83655Y-57974D02*
X83753Y-58269D01*
X83852Y-57974D01*
X84175Y-58157D02*
X84400Y-58157D01*
X84288Y-58269D02*
X84288Y-58044D01*
X84752Y-57960D02*
X84498Y-58339D01*
X84850Y-58157D02*
X85075Y-58157D01*
X85370Y-58269D02*
X85202Y-58269D01*
X85286Y-58269D02*
X85286Y-57974D01*
X85258Y-58016D01*
X85230Y-58044D01*
X85202Y-58058D01*
X85497Y-58241D02*
X85511Y-58255D01*
X85497Y-58269D01*
X85483Y-58255D01*
X85497Y-58241D01*
X85497Y-58269D01*
X85778Y-57974D02*
X85637Y-57974D01*
X85623Y-58114D01*
X85637Y-58100D01*
X85666Y-58086D01*
X85736Y-58086D01*
X85764Y-58100D01*
X85778Y-58114D01*
X85792Y-58142D01*
X85792Y-58213D01*
X85778Y-58241D01*
X85764Y-58255D01*
X85736Y-58269D01*
X85666Y-58269D01*
X85637Y-58255D01*
X85623Y-58241D01*
X85905Y-58269D02*
X86130Y-57974D01*
X85947Y-57974D02*
X85975Y-57988D01*
X85989Y-58016D01*
X85975Y-58044D01*
X85947Y-58058D01*
X85919Y-58044D01*
X85905Y-58016D01*
X85919Y-57988D01*
X85947Y-57974D01*
X86115Y-58255D02*
X86130Y-58227D01*
X86115Y-58199D01*
X86087Y-58185D01*
X86059Y-58199D01*
X86045Y-58227D01*
X86059Y-58255D01*
X86087Y-58269D01*
X86115Y-58255D01*
G54D12*
X73160Y-45919D02*
X73061Y-45778D01*
X72991Y-45919D02*
X72991Y-45624D01*
X73103Y-45624D01*
X73132Y-45638D01*
X73146Y-45652D01*
X73160Y-45680D01*
X73160Y-45722D01*
X73146Y-45750D01*
X73132Y-45764D01*
X73103Y-45778D01*
X72991Y-45778D01*
X73286Y-45764D02*
X73385Y-45764D01*
X73427Y-45919D02*
X73286Y-45919D01*
X73286Y-45624D01*
X73427Y-45624D01*
X73511Y-45624D02*
X73610Y-45919D01*
X73708Y-45624D01*
X73807Y-45891D02*
X73821Y-45905D01*
X73807Y-45919D01*
X73792Y-45905D01*
X73807Y-45891D01*
X73807Y-45919D01*
X74172Y-45919D02*
X74172Y-45624D01*
X74242Y-45624D01*
X74285Y-45638D01*
X74313Y-45666D01*
X74327Y-45694D01*
X74341Y-45750D01*
X74341Y-45792D01*
X74327Y-45849D01*
X74313Y-45877D01*
X74285Y-45905D01*
X74242Y-45919D01*
X74172Y-45919D01*
X74622Y-45919D02*
X74453Y-45919D01*
X74538Y-45919D02*
X74538Y-45624D01*
X74510Y-45666D01*
X74481Y-45694D01*
X74453Y-45708D01*
G54D14*
X71987Y-45129D02*
X71790Y-45129D01*
X71790Y-45439D02*
X71790Y-44848D01*
X72071Y-44848D01*
X72549Y-45439D02*
X72549Y-45129D01*
X72521Y-45073D01*
X72465Y-45045D01*
X72353Y-45045D01*
X72296Y-45073D01*
X72549Y-45410D02*
X72493Y-45439D01*
X72353Y-45439D01*
X72296Y-45410D01*
X72268Y-45354D01*
X72268Y-45298D01*
X72296Y-45242D01*
X72353Y-45214D01*
X72493Y-45214D01*
X72549Y-45185D01*
X72831Y-45439D02*
X72831Y-45045D01*
X72831Y-45157D02*
X72859Y-45101D01*
X72887Y-45073D01*
X72943Y-45045D01*
X72999Y-45045D01*
X73449Y-45439D02*
X73449Y-45129D01*
X73421Y-45073D01*
X73365Y-45045D01*
X73252Y-45045D01*
X73196Y-45073D01*
X73449Y-45410D02*
X73393Y-45439D01*
X73252Y-45439D01*
X73196Y-45410D01*
X73168Y-45354D01*
X73168Y-45298D01*
X73196Y-45242D01*
X73252Y-45214D01*
X73393Y-45214D01*
X73449Y-45185D01*
X73984Y-45439D02*
X73984Y-44848D01*
X73984Y-45410D02*
X73927Y-45439D01*
X73815Y-45439D01*
X73759Y-45410D01*
X73730Y-45382D01*
X73702Y-45326D01*
X73702Y-45157D01*
X73730Y-45101D01*
X73759Y-45073D01*
X73815Y-45045D01*
X73927Y-45045D01*
X73984Y-45073D01*
X74518Y-45439D02*
X74518Y-45129D01*
X74490Y-45073D01*
X74434Y-45045D01*
X74321Y-45045D01*
X74265Y-45073D01*
X74518Y-45410D02*
X74462Y-45439D01*
X74321Y-45439D01*
X74265Y-45410D01*
X74237Y-45354D01*
X74237Y-45298D01*
X74265Y-45242D01*
X74321Y-45214D01*
X74462Y-45214D01*
X74518Y-45185D01*
X74743Y-45045D02*
X74883Y-45439D01*
X75024Y-45045D02*
X74883Y-45439D01*
X74827Y-45579D01*
X74799Y-45607D01*
X74743Y-45635D01*
G54D15*
G36*
X70773Y-54451D02*
X70288Y-54926D01*
X70226Y-54986D01*
X70167Y-55044D01*
X70110Y-55100D01*
X70056Y-55152D01*
X70006Y-55201D01*
X69960Y-55246D01*
X69919Y-55286D01*
X69883Y-55321D01*
X69853Y-55350D01*
X69829Y-55373D01*
X69811Y-55390D01*
X69801Y-55400D01*
X69798Y-55402D01*
X69797Y-55397D01*
X69796Y-55382D01*
X69795Y-55357D01*
X69794Y-55323D01*
X69793Y-55281D01*
X69793Y-55231D01*
X69793Y-55212D01*
X69793Y-55021D01*
X69167Y-55021D01*
X68540Y-55021D01*
X68536Y-54963D01*
X68524Y-54852D01*
X68501Y-54746D01*
X68469Y-54645D01*
X68426Y-54549D01*
X68374Y-54458D01*
X68311Y-54372D01*
X68282Y-54337D01*
X68213Y-54266D01*
X68136Y-54202D01*
X68052Y-54145D01*
X67964Y-54096D01*
X67871Y-54056D01*
X67776Y-54026D01*
X67680Y-54006D01*
X67626Y-53999D01*
X67582Y-53995D01*
X67582Y-53943D01*
X67582Y-53890D01*
X68688Y-53890D01*
X69793Y-53890D01*
X69793Y-53700D01*
X69793Y-53655D01*
X69794Y-53613D01*
X69794Y-53576D01*
X69795Y-53545D01*
X69796Y-53522D01*
X69797Y-53507D01*
X69798Y-53503D01*
X69799Y-53503D01*
X69802Y-53505D01*
X69808Y-53509D01*
X69816Y-53515D01*
X69827Y-53525D01*
X69840Y-53538D01*
X69858Y-53554D01*
X69879Y-53574D01*
X69905Y-53599D01*
X69934Y-53627D01*
X69969Y-53661D01*
X70009Y-53700D01*
X70054Y-53744D01*
X70105Y-53794D01*
X70163Y-53850D01*
X70226Y-53913D01*
X70297Y-53982D01*
X70375Y-54059D01*
X70460Y-54143D01*
X70509Y-54191D01*
X70773Y-54451D01*
X70773Y-54451D01*
X70773Y-54451D01*
G37*
G36*
X67973Y-55016D02*
X67967Y-55017D01*
X67951Y-55018D01*
X67926Y-55019D01*
X67894Y-55020D01*
X67856Y-55020D01*
X67813Y-55020D01*
X67776Y-55021D01*
X67582Y-55021D01*
X67582Y-54801D01*
X67582Y-54581D01*
X67606Y-54594D01*
X67674Y-54633D01*
X67739Y-54682D01*
X67801Y-54739D01*
X67856Y-54801D01*
X67903Y-54866D01*
X67910Y-54878D01*
X67924Y-54902D01*
X67938Y-54928D01*
X67950Y-54955D01*
X67961Y-54978D01*
X67969Y-54998D01*
X67973Y-55011D01*
X67973Y-55016D01*
X67973Y-55016D01*
X67973Y-55016D01*
G37*
G36*
X68190Y-55007D02*
X68189Y-55013D01*
X68187Y-55017D01*
X68179Y-55020D01*
X68165Y-55020D01*
X68142Y-55021D01*
X68140Y-55021D01*
X68117Y-55020D01*
X68099Y-55019D01*
X68089Y-55017D01*
X68087Y-55016D01*
X68084Y-55009D01*
X68079Y-54994D01*
X68072Y-54975D01*
X68069Y-54967D01*
X68037Y-54888D01*
X67996Y-54811D01*
X67947Y-54738D01*
X67891Y-54671D01*
X67839Y-54620D01*
X67802Y-54590D01*
X67759Y-54560D01*
X67714Y-54531D01*
X67671Y-54506D01*
X67632Y-54488D01*
X67582Y-54467D01*
X67582Y-54409D01*
X67582Y-54351D01*
X67632Y-54369D01*
X67723Y-54407D01*
X67809Y-54454D01*
X67888Y-54511D01*
X67960Y-54576D01*
X68025Y-54649D01*
X68082Y-54730D01*
X68096Y-54753D01*
X68113Y-54784D01*
X68129Y-54819D01*
X68145Y-54857D01*
X68160Y-54896D01*
X68173Y-54932D01*
X68182Y-54965D01*
X68188Y-54992D01*
X68190Y-55007D01*
X68190Y-55007D01*
X68190Y-55007D01*
G37*
G36*
X68423Y-55018D02*
X68367Y-55019D01*
X68343Y-55020D01*
X68323Y-55019D01*
X68310Y-55018D01*
X68306Y-55017D01*
X68303Y-55009D01*
X68302Y-54998D01*
X68301Y-54987D01*
X68298Y-54967D01*
X68294Y-54943D01*
X68291Y-54932D01*
X68266Y-54837D01*
X68230Y-54746D01*
X68185Y-54660D01*
X68131Y-54580D01*
X68069Y-54507D01*
X67999Y-54440D01*
X67922Y-54380D01*
X67838Y-54329D01*
X67749Y-54287D01*
X67654Y-54253D01*
X67633Y-54248D01*
X67585Y-54235D01*
X67584Y-54175D01*
X67582Y-54115D01*
X67597Y-54115D01*
X67614Y-54117D01*
X67639Y-54121D01*
X67669Y-54128D01*
X67703Y-54136D01*
X67737Y-54146D01*
X67768Y-54155D01*
X67776Y-54158D01*
X67871Y-54197D01*
X67962Y-54245D01*
X68046Y-54302D01*
X68123Y-54368D01*
X68193Y-54441D01*
X68255Y-54521D01*
X68308Y-54608D01*
X68353Y-54700D01*
X68356Y-54708D01*
X68377Y-54768D01*
X68395Y-54833D01*
X68410Y-54898D01*
X68419Y-54961D01*
X68422Y-54992D01*
X68423Y-55018D01*
X68423Y-55018D01*
X68423Y-55018D01*
G37*
G36*
X68233Y-52590D02*
X68197Y-52590D01*
X68162Y-52590D01*
X68162Y-52443D01*
X68113Y-52443D01*
X68097Y-52443D01*
X68084Y-52444D01*
X68073Y-52444D01*
X68064Y-52444D01*
X68058Y-52445D01*
X68052Y-52446D01*
X68047Y-52447D01*
X68043Y-52449D01*
X68039Y-52451D01*
X68030Y-52457D01*
X68024Y-52465D01*
X68020Y-52474D01*
X68018Y-52485D01*
X68020Y-52495D01*
X68023Y-52502D01*
X68029Y-52510D01*
X68037Y-52517D01*
X68048Y-52522D01*
X68062Y-52526D01*
X68067Y-52526D01*
X68073Y-52527D01*
X68079Y-52528D01*
X68084Y-52528D01*
X68090Y-52528D01*
X68097Y-52527D01*
X68107Y-52527D01*
X68107Y-52527D01*
X68121Y-52525D01*
X68132Y-52522D01*
X68141Y-52519D01*
X68148Y-52514D01*
X68153Y-52507D01*
X68157Y-52499D01*
X68157Y-52498D01*
X68159Y-52493D01*
X68160Y-52485D01*
X68160Y-52476D01*
X68161Y-52467D01*
X68162Y-52443D01*
X68162Y-52590D01*
X68161Y-52590D01*
X68161Y-52575D01*
X68161Y-52560D01*
X68153Y-52569D01*
X68142Y-52579D01*
X68129Y-52586D01*
X68115Y-52591D01*
X68108Y-52592D01*
X68100Y-52593D01*
X68089Y-52594D01*
X68078Y-52594D01*
X68068Y-52594D01*
X68058Y-52594D01*
X68051Y-52593D01*
X68050Y-52593D01*
X68030Y-52589D01*
X68012Y-52582D01*
X67996Y-52573D01*
X67982Y-52562D01*
X67970Y-52549D01*
X67962Y-52534D01*
X67955Y-52518D01*
X67952Y-52500D01*
X67951Y-52487D01*
X67953Y-52469D01*
X67957Y-52452D01*
X67964Y-52436D01*
X67974Y-52422D01*
X67986Y-52410D01*
X68001Y-52399D01*
X68018Y-52391D01*
X68027Y-52388D01*
X68030Y-52388D01*
X68033Y-52387D01*
X68038Y-52387D01*
X68044Y-52386D01*
X68051Y-52386D01*
X68060Y-52386D01*
X68072Y-52385D01*
X68086Y-52385D01*
X68099Y-52385D01*
X68162Y-52384D01*
X68161Y-52360D01*
X68161Y-52350D01*
X68160Y-52343D01*
X68160Y-52337D01*
X68159Y-52333D01*
X68158Y-52330D01*
X68157Y-52328D01*
X68152Y-52321D01*
X68146Y-52315D01*
X68138Y-52311D01*
X68127Y-52308D01*
X68115Y-52306D01*
X68099Y-52305D01*
X68090Y-52305D01*
X68075Y-52305D01*
X68063Y-52307D01*
X68052Y-52309D01*
X68043Y-52313D01*
X68040Y-52315D01*
X68035Y-52319D01*
X68032Y-52321D01*
X68031Y-52322D01*
X68030Y-52324D01*
X68028Y-52327D01*
X68024Y-52331D01*
X67997Y-52310D01*
X67989Y-52304D01*
X67981Y-52298D01*
X67975Y-52294D01*
X67971Y-52290D01*
X67969Y-52288D01*
X67969Y-52288D01*
X67970Y-52286D01*
X67973Y-52283D01*
X67978Y-52278D01*
X67983Y-52273D01*
X67996Y-52261D01*
X68011Y-52252D01*
X68028Y-52245D01*
X68037Y-52243D01*
X68044Y-52241D01*
X68055Y-52240D01*
X68067Y-52239D01*
X68079Y-52238D01*
X68093Y-52238D01*
X68105Y-52238D01*
X68117Y-52239D01*
X68124Y-52240D01*
X68147Y-52244D01*
X68166Y-52250D01*
X68183Y-52258D01*
X68198Y-52268D01*
X68210Y-52280D01*
X68219Y-52294D01*
X68226Y-52310D01*
X68229Y-52320D01*
X68230Y-52323D01*
X68230Y-52326D01*
X68231Y-52329D01*
X68231Y-52334D01*
X68231Y-52339D01*
X68231Y-52347D01*
X68232Y-52355D01*
X68232Y-52366D01*
X68232Y-52378D01*
X68232Y-52393D01*
X68232Y-52410D01*
X68232Y-52431D01*
X68233Y-52454D01*
X68233Y-52461D01*
X68233Y-52590D01*
X68233Y-52590D01*
X68233Y-52590D01*
G37*
G36*
X68823Y-52590D02*
X68787Y-52590D01*
X68751Y-52590D01*
X68751Y-52577D01*
X68751Y-52424D01*
X68751Y-52408D01*
X68750Y-52394D01*
X68750Y-52382D01*
X68749Y-52373D01*
X68748Y-52365D01*
X68747Y-52359D01*
X68745Y-52353D01*
X68743Y-52347D01*
X68741Y-52341D01*
X68734Y-52330D01*
X68725Y-52321D01*
X68714Y-52314D01*
X68701Y-52310D01*
X68687Y-52309D01*
X68672Y-52310D01*
X68658Y-52313D01*
X68646Y-52318D01*
X68637Y-52325D01*
X68629Y-52335D01*
X68623Y-52347D01*
X68620Y-52358D01*
X68619Y-52364D01*
X68618Y-52372D01*
X68617Y-52383D01*
X68616Y-52395D01*
X68616Y-52408D01*
X68616Y-52421D01*
X68616Y-52434D01*
X68617Y-52445D01*
X68617Y-52456D01*
X68618Y-52464D01*
X68618Y-52465D01*
X68622Y-52480D01*
X68627Y-52493D01*
X68634Y-52503D01*
X68642Y-52511D01*
X68653Y-52517D01*
X68667Y-52522D01*
X68667Y-52522D01*
X68672Y-52523D01*
X68679Y-52523D01*
X68687Y-52522D01*
X68696Y-52522D01*
X68703Y-52521D01*
X68709Y-52520D01*
X68711Y-52519D01*
X68719Y-52515D01*
X68727Y-52509D01*
X68734Y-52501D01*
X68740Y-52492D01*
X68743Y-52487D01*
X68746Y-52479D01*
X68748Y-52470D01*
X68749Y-52461D01*
X68750Y-52450D01*
X68751Y-52438D01*
X68751Y-52424D01*
X68751Y-52577D01*
X68751Y-52574D01*
X68750Y-52558D01*
X68741Y-52566D01*
X68729Y-52574D01*
X68716Y-52582D01*
X68701Y-52588D01*
X68695Y-52590D01*
X68684Y-52592D01*
X68671Y-52594D01*
X68658Y-52594D01*
X68645Y-52593D01*
X68640Y-52593D01*
X68621Y-52587D01*
X68603Y-52579D01*
X68588Y-52568D01*
X68574Y-52555D01*
X68565Y-52543D01*
X68560Y-52536D01*
X68557Y-52529D01*
X68554Y-52522D01*
X68551Y-52514D01*
X68549Y-52505D01*
X68548Y-52494D01*
X68546Y-52482D01*
X68546Y-52467D01*
X68545Y-52450D01*
X68545Y-52430D01*
X68545Y-52430D01*
X68544Y-52406D01*
X68545Y-52386D01*
X68545Y-52368D01*
X68546Y-52352D01*
X68547Y-52339D01*
X68549Y-52327D01*
X68552Y-52316D01*
X68555Y-52307D01*
X68559Y-52299D01*
X68563Y-52291D01*
X68569Y-52283D01*
X68570Y-52282D01*
X68579Y-52271D01*
X68591Y-52261D01*
X68603Y-52253D01*
X68609Y-52250D01*
X68625Y-52243D01*
X68642Y-52239D01*
X68660Y-52238D01*
X68678Y-52239D01*
X68695Y-52242D01*
X68706Y-52246D01*
X68712Y-52249D01*
X68720Y-52253D01*
X68727Y-52258D01*
X68734Y-52263D01*
X68740Y-52268D01*
X68744Y-52271D01*
X68745Y-52271D01*
X68748Y-52274D01*
X68750Y-52275D01*
X68750Y-52276D01*
X68750Y-52274D01*
X68750Y-52269D01*
X68751Y-52262D01*
X68751Y-52253D01*
X68751Y-52241D01*
X68751Y-52228D01*
X68751Y-52213D01*
X68751Y-52197D01*
X68751Y-52188D01*
X68751Y-52101D01*
X68787Y-52101D01*
X68823Y-52101D01*
X68823Y-52346D01*
X68823Y-52590D01*
X68823Y-52590D01*
X68823Y-52590D01*
G37*
G36*
X69639Y-52590D02*
X69603Y-52590D01*
X69568Y-52590D01*
X69568Y-52443D01*
X69514Y-52444D01*
X69500Y-52444D01*
X69488Y-52444D01*
X69478Y-52444D01*
X69471Y-52444D01*
X69466Y-52445D01*
X69461Y-52445D01*
X69458Y-52446D01*
X69455Y-52447D01*
X69453Y-52447D01*
X69452Y-52448D01*
X69441Y-52453D01*
X69433Y-52460D01*
X69428Y-52468D01*
X69426Y-52477D01*
X69425Y-52484D01*
X69427Y-52495D01*
X69431Y-52505D01*
X69438Y-52513D01*
X69448Y-52519D01*
X69460Y-52524D01*
X69473Y-52526D01*
X69480Y-52527D01*
X69490Y-52527D01*
X69501Y-52527D01*
X69512Y-52527D01*
X69522Y-52526D01*
X69530Y-52525D01*
X69532Y-52525D01*
X69542Y-52522D01*
X69549Y-52518D01*
X69556Y-52513D01*
X69560Y-52506D01*
X69564Y-52497D01*
X69566Y-52486D01*
X69567Y-52472D01*
X69567Y-52467D01*
X69568Y-52443D01*
X69568Y-52590D01*
X69568Y-52590D01*
X69568Y-52575D01*
X69568Y-52560D01*
X69559Y-52569D01*
X69549Y-52579D01*
X69536Y-52586D01*
X69522Y-52591D01*
X69515Y-52592D01*
X69506Y-52593D01*
X69495Y-52594D01*
X69484Y-52594D01*
X69473Y-52594D01*
X69464Y-52594D01*
X69456Y-52593D01*
X69456Y-52593D01*
X69436Y-52589D01*
X69418Y-52582D01*
X69402Y-52573D01*
X69388Y-52562D01*
X69377Y-52549D01*
X69368Y-52535D01*
X69362Y-52519D01*
X69358Y-52502D01*
X69358Y-52483D01*
X69360Y-52465D01*
X69365Y-52448D01*
X69373Y-52432D01*
X69383Y-52419D01*
X69396Y-52407D01*
X69411Y-52397D01*
X69428Y-52390D01*
X69433Y-52389D01*
X69436Y-52388D01*
X69440Y-52387D01*
X69444Y-52387D01*
X69449Y-52386D01*
X69457Y-52386D01*
X69466Y-52386D01*
X69477Y-52385D01*
X69491Y-52385D01*
X69505Y-52385D01*
X69568Y-52384D01*
X69568Y-52364D01*
X69567Y-52352D01*
X69567Y-52342D01*
X69565Y-52335D01*
X69563Y-52329D01*
X69560Y-52324D01*
X69559Y-52322D01*
X69552Y-52316D01*
X69543Y-52311D01*
X69533Y-52308D01*
X69519Y-52306D01*
X69503Y-52305D01*
X69490Y-52305D01*
X69478Y-52306D01*
X69468Y-52307D01*
X69460Y-52309D01*
X69453Y-52311D01*
X69448Y-52315D01*
X69442Y-52319D01*
X69440Y-52321D01*
X69430Y-52331D01*
X69405Y-52312D01*
X69397Y-52306D01*
X69390Y-52300D01*
X69384Y-52296D01*
X69380Y-52292D01*
X69377Y-52291D01*
X69377Y-52291D01*
X69376Y-52289D01*
X69376Y-52287D01*
X69378Y-52285D01*
X69381Y-52281D01*
X69394Y-52268D01*
X69410Y-52257D01*
X69427Y-52248D01*
X69443Y-52243D01*
X69451Y-52241D01*
X69461Y-52240D01*
X69473Y-52239D01*
X69486Y-52238D01*
X69499Y-52238D01*
X69511Y-52238D01*
X69522Y-52239D01*
X69531Y-52240D01*
X69553Y-52244D01*
X69572Y-52249D01*
X69589Y-52257D01*
X69603Y-52267D01*
X69615Y-52279D01*
X69624Y-52292D01*
X69632Y-52308D01*
X69635Y-52317D01*
X69635Y-52320D01*
X69636Y-52322D01*
X69636Y-52325D01*
X69637Y-52328D01*
X69637Y-52331D01*
X69638Y-52336D01*
X69638Y-52341D01*
X69638Y-52348D01*
X69638Y-52357D01*
X69638Y-52367D01*
X69638Y-52380D01*
X69639Y-52395D01*
X69639Y-52412D01*
X69639Y-52432D01*
X69639Y-52455D01*
X69639Y-52460D01*
X69639Y-52590D01*
X69639Y-52590D01*
X69639Y-52590D01*
G37*
G36*
X70239Y-52443D02*
X70167Y-52443D01*
X70167Y-52385D01*
X70166Y-52375D01*
X70164Y-52364D01*
X70161Y-52352D01*
X70156Y-52341D01*
X70151Y-52333D01*
X70142Y-52322D01*
X70131Y-52314D01*
X70119Y-52309D01*
X70106Y-52306D01*
X70092Y-52305D01*
X70079Y-52306D01*
X70066Y-52310D01*
X70054Y-52317D01*
X70043Y-52325D01*
X70035Y-52336D01*
X70029Y-52348D01*
X70025Y-52360D01*
X70022Y-52373D01*
X70022Y-52378D01*
X70022Y-52385D01*
X70095Y-52385D01*
X70167Y-52385D01*
X70167Y-52443D01*
X70131Y-52443D01*
X70022Y-52443D01*
X70022Y-52451D01*
X70024Y-52464D01*
X70027Y-52478D01*
X70033Y-52491D01*
X70041Y-52502D01*
X70043Y-52503D01*
X70050Y-52510D01*
X70060Y-52517D01*
X70071Y-52522D01*
X70081Y-52525D01*
X70091Y-52526D01*
X70102Y-52527D01*
X70114Y-52526D01*
X70125Y-52525D01*
X70128Y-52524D01*
X70139Y-52520D01*
X70151Y-52515D01*
X70163Y-52508D01*
X70172Y-52501D01*
X70180Y-52494D01*
X70205Y-52515D01*
X70213Y-52522D01*
X70220Y-52528D01*
X70225Y-52532D01*
X70229Y-52536D01*
X70231Y-52538D01*
X70231Y-52538D01*
X70230Y-52540D01*
X70226Y-52543D01*
X70222Y-52547D01*
X70217Y-52552D01*
X70211Y-52557D01*
X70206Y-52562D01*
X70201Y-52566D01*
X70199Y-52567D01*
X70188Y-52574D01*
X70174Y-52580D01*
X70160Y-52586D01*
X70148Y-52589D01*
X70137Y-52592D01*
X70124Y-52593D01*
X70109Y-52594D01*
X70096Y-52594D01*
X70084Y-52594D01*
X70080Y-52593D01*
X70058Y-52589D01*
X70039Y-52583D01*
X70022Y-52575D01*
X70007Y-52564D01*
X69994Y-52553D01*
X69982Y-52537D01*
X69971Y-52519D01*
X69962Y-52499D01*
X69956Y-52476D01*
X69954Y-52468D01*
X69953Y-52458D01*
X69952Y-52445D01*
X69951Y-52431D01*
X69951Y-52417D01*
X69951Y-52402D01*
X69952Y-52388D01*
X69953Y-52376D01*
X69954Y-52366D01*
X69960Y-52342D01*
X69968Y-52321D01*
X69978Y-52302D01*
X69990Y-52285D01*
X70004Y-52270D01*
X70006Y-52268D01*
X70015Y-52261D01*
X70026Y-52255D01*
X70037Y-52249D01*
X70049Y-52244D01*
X70056Y-52242D01*
X70063Y-52241D01*
X70073Y-52239D01*
X70084Y-52239D01*
X70096Y-52238D01*
X70107Y-52238D01*
X70116Y-52239D01*
X70120Y-52240D01*
X70142Y-52245D01*
X70161Y-52253D01*
X70179Y-52264D01*
X70195Y-52277D01*
X70208Y-52292D01*
X70220Y-52310D01*
X70229Y-52330D01*
X70233Y-52345D01*
X70235Y-52350D01*
X70236Y-52355D01*
X70237Y-52360D01*
X70237Y-52366D01*
X70238Y-52373D01*
X70238Y-52382D01*
X70238Y-52393D01*
X70238Y-52402D01*
X70239Y-52443D01*
X70239Y-52443D01*
X70239Y-52443D01*
G37*
G36*
X67903Y-51867D02*
X67903Y-51888D01*
X67902Y-51907D01*
X67902Y-51922D01*
X67901Y-51936D01*
X67899Y-51948D01*
X67898Y-51958D01*
X67895Y-51967D01*
X67893Y-51975D01*
X67889Y-51982D01*
X67885Y-51989D01*
X67884Y-51992D01*
X67872Y-52008D01*
X67858Y-52021D01*
X67842Y-52031D01*
X67831Y-52036D01*
X67831Y-51862D01*
X67831Y-51849D01*
X67831Y-51836D01*
X67830Y-51825D01*
X67829Y-51817D01*
X67828Y-51814D01*
X67824Y-51799D01*
X67818Y-51786D01*
X67810Y-51776D01*
X67801Y-51768D01*
X67792Y-51764D01*
X67784Y-51761D01*
X67773Y-51760D01*
X67762Y-51760D01*
X67752Y-51760D01*
X67742Y-51762D01*
X67738Y-51763D01*
X67728Y-51768D01*
X67719Y-51774D01*
X67712Y-51782D01*
X67706Y-51793D01*
X67701Y-51806D01*
X67698Y-51821D01*
X67696Y-51839D01*
X67695Y-51860D01*
X67695Y-51867D01*
X67696Y-51889D01*
X67698Y-51908D01*
X67701Y-51924D01*
X67705Y-51938D01*
X67711Y-51949D01*
X67718Y-51958D01*
X67727Y-51965D01*
X67738Y-51970D01*
X67749Y-51973D01*
X67756Y-51974D01*
X67764Y-51974D01*
X67773Y-51973D01*
X67782Y-51972D01*
X67790Y-51970D01*
X67792Y-51969D01*
X67803Y-51963D01*
X67813Y-51955D01*
X67820Y-51944D01*
X67826Y-51930D01*
X67828Y-51920D01*
X67830Y-51912D01*
X67830Y-51902D01*
X67831Y-51889D01*
X67831Y-51876D01*
X67831Y-51862D01*
X67831Y-52036D01*
X67825Y-52038D01*
X67807Y-52043D01*
X67787Y-52045D01*
X67787Y-52045D01*
X67768Y-52044D01*
X67751Y-52040D01*
X67735Y-52033D01*
X67719Y-52024D01*
X67705Y-52013D01*
X67695Y-52005D01*
X67695Y-52140D01*
X67695Y-52276D01*
X67707Y-52266D01*
X67723Y-52254D01*
X67740Y-52246D01*
X67758Y-52241D01*
X67777Y-52238D01*
X67785Y-52238D01*
X67804Y-52239D01*
X67822Y-52243D01*
X67839Y-52250D01*
X67854Y-52260D01*
X67868Y-52272D01*
X67875Y-52279D01*
X67880Y-52285D01*
X67884Y-52291D01*
X67888Y-52297D01*
X67890Y-52302D01*
X67892Y-52306D01*
X67894Y-52310D01*
X67896Y-52314D01*
X67897Y-52318D01*
X67898Y-52323D01*
X67899Y-52327D01*
X67900Y-52333D01*
X67901Y-52339D01*
X67901Y-52347D01*
X67902Y-52356D01*
X67902Y-52367D01*
X67902Y-52380D01*
X67902Y-52395D01*
X67902Y-52413D01*
X67902Y-52433D01*
X67902Y-52456D01*
X67902Y-52465D01*
X67902Y-52590D01*
X67867Y-52590D01*
X67832Y-52590D01*
X67832Y-52478D01*
X67832Y-52455D01*
X67832Y-52436D01*
X67831Y-52419D01*
X67831Y-52405D01*
X67831Y-52393D01*
X67831Y-52383D01*
X67830Y-52375D01*
X67830Y-52368D01*
X67829Y-52362D01*
X67829Y-52358D01*
X67828Y-52354D01*
X67826Y-52351D01*
X67825Y-52348D01*
X67824Y-52345D01*
X67822Y-52342D01*
X67821Y-52341D01*
X67814Y-52330D01*
X67804Y-52321D01*
X67793Y-52315D01*
X67781Y-52311D01*
X67769Y-52309D01*
X67756Y-52309D01*
X67743Y-52312D01*
X67731Y-52317D01*
X67720Y-52324D01*
X67711Y-52333D01*
X67705Y-52342D01*
X67703Y-52345D01*
X67701Y-52348D01*
X67700Y-52352D01*
X67699Y-52355D01*
X67698Y-52359D01*
X67697Y-52364D01*
X67697Y-52370D01*
X67696Y-52378D01*
X67696Y-52387D01*
X67696Y-52398D01*
X67696Y-52411D01*
X67695Y-52426D01*
X67695Y-52444D01*
X67695Y-52465D01*
X67695Y-52480D01*
X67695Y-52590D01*
X67659Y-52590D01*
X67624Y-52590D01*
X67624Y-52141D01*
X67624Y-51692D01*
X67659Y-51692D01*
X67695Y-51692D01*
X67695Y-51709D01*
X67695Y-51727D01*
X67703Y-51720D01*
X67718Y-51708D01*
X67735Y-51699D01*
X67743Y-51696D01*
X67762Y-51691D01*
X67780Y-51688D01*
X67799Y-51689D01*
X67817Y-51692D01*
X67834Y-51698D01*
X67851Y-51707D01*
X67865Y-51719D01*
X67878Y-51733D01*
X67884Y-51741D01*
X67888Y-51748D01*
X67891Y-51755D01*
X67894Y-51763D01*
X67897Y-51771D01*
X67899Y-51781D01*
X67900Y-51792D01*
X67901Y-51805D01*
X67902Y-51820D01*
X67902Y-51837D01*
X67903Y-51857D01*
X67903Y-51867D01*
X67903Y-51867D01*
X67903Y-51867D01*
G37*
G36*
X68544Y-52265D02*
X68519Y-52295D01*
X68493Y-52326D01*
X68488Y-52323D01*
X68475Y-52315D01*
X68462Y-52310D01*
X68449Y-52309D01*
X68437Y-52309D01*
X68422Y-52313D01*
X68409Y-52319D01*
X68399Y-52328D01*
X68390Y-52339D01*
X68384Y-52352D01*
X68383Y-52356D01*
X68382Y-52358D01*
X68382Y-52360D01*
X68381Y-52363D01*
X68381Y-52366D01*
X68381Y-52370D01*
X68380Y-52376D01*
X68380Y-52383D01*
X68380Y-52391D01*
X68380Y-52402D01*
X68380Y-52415D01*
X68380Y-52430D01*
X68380Y-52447D01*
X68380Y-52468D01*
X68380Y-52478D01*
X68380Y-52590D01*
X68344Y-52590D01*
X68308Y-52590D01*
X68308Y-52416D01*
X68308Y-52241D01*
X68344Y-52241D01*
X68380Y-52241D01*
X68380Y-52259D01*
X68380Y-52278D01*
X68391Y-52267D01*
X68403Y-52257D01*
X68416Y-52249D01*
X68432Y-52243D01*
X68433Y-52243D01*
X68438Y-52241D01*
X68442Y-52240D01*
X68447Y-52239D01*
X68453Y-52239D01*
X68462Y-52239D01*
X68469Y-52239D01*
X68479Y-52239D01*
X68486Y-52239D01*
X68492Y-52240D01*
X68496Y-52240D01*
X68501Y-52241D01*
X68505Y-52243D01*
X68506Y-52244D01*
X68515Y-52247D01*
X68525Y-52252D01*
X68533Y-52257D01*
X68539Y-52261D01*
X68541Y-52262D01*
X68544Y-52265D01*
X68544Y-52265D01*
X68544Y-52265D01*
G37*
G36*
X69352Y-52243D02*
X69352Y-52245D01*
X69350Y-52250D01*
X69348Y-52257D01*
X69345Y-52267D01*
X69341Y-52279D01*
X69337Y-52294D01*
X69332Y-52310D01*
X69326Y-52328D01*
X69320Y-52347D01*
X69313Y-52368D01*
X69306Y-52390D01*
X69299Y-52412D01*
X69297Y-52417D01*
X69242Y-52589D01*
X69211Y-52590D01*
X69179Y-52590D01*
X69143Y-52469D01*
X69137Y-52450D01*
X69132Y-52432D01*
X69127Y-52415D01*
X69122Y-52400D01*
X69118Y-52386D01*
X69114Y-52374D01*
X69111Y-52364D01*
X69109Y-52356D01*
X69107Y-52351D01*
X69106Y-52349D01*
X69106Y-52349D01*
X69106Y-52350D01*
X69104Y-52355D01*
X69102Y-52362D01*
X69099Y-52371D01*
X69096Y-52383D01*
X69091Y-52397D01*
X69087Y-52412D01*
X69082Y-52428D01*
X69076Y-52446D01*
X69071Y-52465D01*
X69070Y-52469D01*
X69034Y-52589D01*
X69002Y-52590D01*
X68970Y-52590D01*
X68922Y-52437D01*
X68915Y-52415D01*
X68908Y-52394D01*
X68901Y-52373D01*
X68895Y-52353D01*
X68889Y-52335D01*
X68883Y-52318D01*
X68879Y-52302D01*
X68874Y-52289D01*
X68871Y-52278D01*
X68868Y-52270D01*
X68866Y-52264D01*
X68866Y-52263D01*
X68859Y-52241D01*
X68897Y-52241D01*
X68935Y-52241D01*
X68967Y-52360D01*
X68972Y-52379D01*
X68977Y-52397D01*
X68982Y-52414D01*
X68986Y-52430D01*
X68990Y-52444D01*
X68993Y-52456D01*
X68996Y-52466D01*
X68998Y-52474D01*
X69000Y-52479D01*
X69000Y-52482D01*
X69000Y-52482D01*
X69001Y-52483D01*
X69002Y-52481D01*
X69004Y-52477D01*
X69005Y-52474D01*
X69006Y-52471D01*
X69008Y-52464D01*
X69011Y-52456D01*
X69015Y-52445D01*
X69019Y-52432D01*
X69023Y-52418D01*
X69028Y-52403D01*
X69033Y-52387D01*
X69036Y-52377D01*
X69042Y-52360D01*
X69047Y-52343D01*
X69053Y-52327D01*
X69057Y-52312D01*
X69062Y-52298D01*
X69066Y-52286D01*
X69069Y-52276D01*
X69072Y-52268D01*
X69072Y-52266D01*
X69081Y-52241D01*
X69106Y-52241D01*
X69132Y-52241D01*
X69137Y-52255D01*
X69139Y-52262D01*
X69142Y-52272D01*
X69146Y-52283D01*
X69150Y-52297D01*
X69155Y-52311D01*
X69160Y-52326D01*
X69165Y-52342D01*
X69170Y-52359D01*
X69176Y-52375D01*
X69181Y-52392D01*
X69186Y-52408D01*
X69191Y-52423D01*
X69196Y-52437D01*
X69200Y-52450D01*
X69203Y-52461D01*
X69206Y-52470D01*
X69209Y-52476D01*
X69210Y-52481D01*
X69211Y-52482D01*
X69211Y-52481D01*
X69213Y-52477D01*
X69215Y-52470D01*
X69217Y-52461D01*
X69221Y-52449D01*
X69224Y-52436D01*
X69229Y-52421D01*
X69233Y-52404D01*
X69238Y-52386D01*
X69244Y-52367D01*
X69245Y-52363D01*
X69278Y-52241D01*
X69315Y-52241D01*
X69328Y-52241D01*
X69337Y-52241D01*
X69344Y-52242D01*
X69349Y-52242D01*
X69352Y-52243D01*
X69352Y-52243D01*
X69352Y-52243D01*
X69352Y-52243D01*
X69352Y-52243D01*
G37*
G36*
X69951Y-52264D02*
X69948Y-52268D01*
X69946Y-52270D01*
X69942Y-52275D01*
X69937Y-52281D01*
X69931Y-52288D01*
X69924Y-52296D01*
X69922Y-52299D01*
X69899Y-52326D01*
X69894Y-52323D01*
X69881Y-52315D01*
X69867Y-52310D01*
X69854Y-52309D01*
X69840Y-52310D01*
X69838Y-52310D01*
X69824Y-52315D01*
X69812Y-52322D01*
X69802Y-52331D01*
X69794Y-52342D01*
X69789Y-52356D01*
X69788Y-52358D01*
X69788Y-52360D01*
X69787Y-52363D01*
X69787Y-52367D01*
X69787Y-52373D01*
X69786Y-52379D01*
X69786Y-52388D01*
X69786Y-52398D01*
X69786Y-52410D01*
X69786Y-52425D01*
X69786Y-52443D01*
X69786Y-52463D01*
X69786Y-52479D01*
X69786Y-52590D01*
X69750Y-52590D01*
X69714Y-52590D01*
X69714Y-52416D01*
X69714Y-52241D01*
X69750Y-52241D01*
X69786Y-52241D01*
X69786Y-52259D01*
X69786Y-52277D01*
X69798Y-52267D01*
X69812Y-52255D01*
X69828Y-52247D01*
X69845Y-52241D01*
X69864Y-52238D01*
X69876Y-52238D01*
X69893Y-52239D01*
X69908Y-52242D01*
X69922Y-52247D01*
X69937Y-52255D01*
X69939Y-52257D01*
X69951Y-52264D01*
X69951Y-52264D01*
X69951Y-52264D01*
G37*
G36*
X67564Y-51867D02*
X67564Y-51884D01*
X67564Y-51899D01*
X67563Y-51911D01*
X67563Y-51922D01*
X67562Y-51931D01*
X67560Y-51938D01*
X67558Y-51946D01*
X67556Y-51953D01*
X67553Y-51960D01*
X67553Y-51961D01*
X67544Y-51979D01*
X67533Y-51995D01*
X67518Y-52010D01*
X67502Y-52022D01*
X67494Y-52027D01*
X67494Y-51864D01*
X67494Y-51851D01*
X67493Y-51840D01*
X67493Y-51829D01*
X67492Y-51821D01*
X67491Y-51817D01*
X67486Y-51801D01*
X67480Y-51788D01*
X67470Y-51777D01*
X67459Y-51769D01*
X67446Y-51763D01*
X67433Y-51760D01*
X67420Y-51759D01*
X67406Y-51761D01*
X67393Y-51765D01*
X67381Y-51771D01*
X67372Y-51778D01*
X67365Y-51787D01*
X67359Y-51797D01*
X67354Y-51809D01*
X67352Y-51816D01*
X67351Y-51823D01*
X67350Y-51833D01*
X67350Y-51844D01*
X67349Y-51856D01*
X67349Y-51869D01*
X67349Y-51882D01*
X67350Y-51894D01*
X67350Y-51905D01*
X67351Y-51913D01*
X67352Y-51917D01*
X67357Y-51932D01*
X67364Y-51945D01*
X67373Y-51956D01*
X67384Y-51964D01*
X67397Y-51970D01*
X67411Y-51973D01*
X67427Y-51973D01*
X67439Y-51972D01*
X67454Y-51967D01*
X67466Y-51960D01*
X67476Y-51950D01*
X67484Y-51938D01*
X67489Y-51923D01*
X67491Y-51916D01*
X67492Y-51910D01*
X67493Y-51901D01*
X67494Y-51890D01*
X67494Y-51877D01*
X67494Y-51864D01*
X67494Y-52027D01*
X67487Y-52031D01*
X67474Y-52036D01*
X67459Y-52041D01*
X67442Y-52043D01*
X67426Y-52045D01*
X67410Y-52045D01*
X67402Y-52044D01*
X67381Y-52040D01*
X67361Y-52033D01*
X67343Y-52023D01*
X67327Y-52011D01*
X67313Y-51997D01*
X67301Y-51981D01*
X67294Y-51970D01*
X67290Y-51960D01*
X67286Y-51949D01*
X67283Y-51938D01*
X67281Y-51926D01*
X67280Y-51912D01*
X67279Y-51895D01*
X67278Y-51877D01*
X67279Y-51855D01*
X67279Y-51854D01*
X67279Y-51840D01*
X67279Y-51828D01*
X67280Y-51819D01*
X67281Y-51811D01*
X67281Y-51805D01*
X67282Y-51799D01*
X67283Y-51797D01*
X67288Y-51779D01*
X67294Y-51763D01*
X67302Y-51749D01*
X67313Y-51735D01*
X67315Y-51733D01*
X67331Y-51718D01*
X67347Y-51707D01*
X67366Y-51698D01*
X67382Y-51693D01*
X67389Y-51691D01*
X67396Y-51690D01*
X67402Y-51689D01*
X67410Y-51689D01*
X67420Y-51689D01*
X67422Y-51689D01*
X67432Y-51689D01*
X67440Y-51689D01*
X67447Y-51690D01*
X67453Y-51691D01*
X67460Y-51692D01*
X67461Y-51693D01*
X67481Y-51700D01*
X67499Y-51709D01*
X67516Y-51721D01*
X67528Y-51733D01*
X67539Y-51746D01*
X67547Y-51759D01*
X67554Y-51774D01*
X67559Y-51791D01*
X67561Y-51798D01*
X67562Y-51803D01*
X67562Y-51807D01*
X67563Y-51812D01*
X67563Y-51817D01*
X67564Y-51824D01*
X67564Y-51832D01*
X67564Y-51842D01*
X67564Y-51855D01*
X67564Y-51867D01*
X67564Y-51867D01*
X67564Y-51867D01*
G37*
G36*
X68237Y-51893D02*
X68166Y-51894D01*
X68166Y-51834D01*
X68165Y-51825D01*
X68162Y-51811D01*
X68158Y-51798D01*
X68152Y-51786D01*
X68144Y-51776D01*
X68136Y-51769D01*
X68136Y-51768D01*
X68128Y-51764D01*
X68122Y-51760D01*
X68115Y-51758D01*
X68107Y-51757D01*
X68098Y-51757D01*
X68093Y-51757D01*
X68084Y-51757D01*
X68078Y-51757D01*
X68073Y-51757D01*
X68070Y-51758D01*
X68066Y-51760D01*
X68062Y-51762D01*
X68050Y-51770D01*
X68039Y-51780D01*
X68031Y-51792D01*
X68027Y-51800D01*
X68024Y-51811D01*
X68022Y-51821D01*
X68021Y-51828D01*
X68021Y-51834D01*
X68094Y-51834D01*
X68166Y-51834D01*
X68166Y-51894D01*
X68129Y-51894D01*
X68021Y-51894D01*
X68021Y-51902D01*
X68023Y-51915D01*
X68027Y-51929D01*
X68033Y-51942D01*
X68041Y-51953D01*
X68043Y-51956D01*
X68055Y-51965D01*
X68067Y-51972D01*
X68082Y-51976D01*
X68098Y-51977D01*
X68102Y-51977D01*
X68120Y-51976D01*
X68137Y-51971D01*
X68154Y-51964D01*
X68169Y-51953D01*
X68179Y-51945D01*
X68184Y-51948D01*
X68197Y-51959D01*
X68208Y-51969D01*
X68217Y-51976D01*
X68223Y-51982D01*
X68228Y-51986D01*
X68230Y-51988D01*
X68230Y-51989D01*
X68229Y-51991D01*
X68225Y-51994D01*
X68221Y-51998D01*
X68215Y-52004D01*
X68209Y-52009D01*
X68204Y-52013D01*
X68199Y-52017D01*
X68198Y-52018D01*
X68180Y-52028D01*
X68160Y-52036D01*
X68139Y-52042D01*
X68137Y-52042D01*
X68126Y-52044D01*
X68114Y-52045D01*
X68101Y-52045D01*
X68089Y-52045D01*
X68082Y-52044D01*
X68060Y-52040D01*
X68039Y-52034D01*
X68020Y-52025D01*
X68004Y-52013D01*
X67989Y-51999D01*
X67977Y-51983D01*
X67967Y-51964D01*
X67963Y-51954D01*
X67958Y-51940D01*
X67955Y-51928D01*
X67953Y-51914D01*
X67951Y-51899D01*
X67950Y-51882D01*
X67950Y-51878D01*
X67950Y-51850D01*
X67952Y-51824D01*
X67957Y-51801D01*
X67963Y-51780D01*
X67972Y-51761D01*
X67983Y-51743D01*
X67986Y-51739D01*
X67998Y-51725D01*
X68012Y-51713D01*
X68029Y-51703D01*
X68047Y-51695D01*
X68058Y-51692D01*
X68071Y-51689D01*
X68086Y-51688D01*
X68102Y-51689D01*
X68118Y-51690D01*
X68131Y-51693D01*
X68151Y-51700D01*
X68170Y-51709D01*
X68187Y-51722D01*
X68202Y-51736D01*
X68214Y-51753D01*
X68224Y-51771D01*
X68231Y-51792D01*
X68234Y-51803D01*
X68235Y-51808D01*
X68236Y-51815D01*
X68236Y-51823D01*
X68237Y-51834D01*
X68237Y-51846D01*
X68237Y-51854D01*
X68237Y-51893D01*
X68237Y-51893D01*
X68237Y-51893D01*
G37*
G36*
X69061Y-51936D02*
X69060Y-51950D01*
X69058Y-51963D01*
X69054Y-51975D01*
X69052Y-51980D01*
X69043Y-51994D01*
X69031Y-52007D01*
X69017Y-52018D01*
X69001Y-52028D01*
X68982Y-52035D01*
X68961Y-52041D01*
X68939Y-52044D01*
X68936Y-52044D01*
X68926Y-52045D01*
X68918Y-52045D01*
X68911Y-52045D01*
X68904Y-52045D01*
X68895Y-52044D01*
X68893Y-52044D01*
X68868Y-52040D01*
X68844Y-52032D01*
X68820Y-52023D01*
X68798Y-52010D01*
X68778Y-51996D01*
X68772Y-51990D01*
X68762Y-51982D01*
X68787Y-51958D01*
X68812Y-51934D01*
X68823Y-51943D01*
X68838Y-51955D01*
X68854Y-51963D01*
X68869Y-51970D01*
X68886Y-51974D01*
X68905Y-51976D01*
X68914Y-51977D01*
X68932Y-51977D01*
X68947Y-51975D01*
X68960Y-51972D01*
X68971Y-51967D01*
X68979Y-51960D01*
X68983Y-51955D01*
X68986Y-51951D01*
X68987Y-51948D01*
X68988Y-51944D01*
X68988Y-51938D01*
X68988Y-51934D01*
X68988Y-51925D01*
X68986Y-51919D01*
X68983Y-51914D01*
X68979Y-51910D01*
X68975Y-51908D01*
X68972Y-51906D01*
X68968Y-51905D01*
X68964Y-51903D01*
X68958Y-51902D01*
X68951Y-51901D01*
X68942Y-51900D01*
X68930Y-51899D01*
X68916Y-51898D01*
X68914Y-51897D01*
X68902Y-51896D01*
X68891Y-51895D01*
X68880Y-51894D01*
X68871Y-51893D01*
X68865Y-51891D01*
X68863Y-51891D01*
X68845Y-51885D01*
X68829Y-51877D01*
X68815Y-51866D01*
X68804Y-51854D01*
X68795Y-51840D01*
X68789Y-51824D01*
X68786Y-51807D01*
X68786Y-51789D01*
X68788Y-51773D01*
X68793Y-51756D01*
X68800Y-51741D01*
X68810Y-51727D01*
X68823Y-51715D01*
X68838Y-51706D01*
X68856Y-51698D01*
X68875Y-51692D01*
X68879Y-51691D01*
X68890Y-51690D01*
X68904Y-51689D01*
X68918Y-51688D01*
X68932Y-51689D01*
X68946Y-51690D01*
X68958Y-51691D01*
X68958Y-51691D01*
X68979Y-51696D01*
X68999Y-51703D01*
X69017Y-51711D01*
X69023Y-51715D01*
X69031Y-51719D01*
X69037Y-51724D01*
X69044Y-51728D01*
X69048Y-51732D01*
X69052Y-51735D01*
X69052Y-51736D01*
X69051Y-51738D01*
X69048Y-51742D01*
X69044Y-51747D01*
X69039Y-51753D01*
X69033Y-51760D01*
X69027Y-51766D01*
X69022Y-51773D01*
X69017Y-51779D01*
X69013Y-51783D01*
X69010Y-51786D01*
X69009Y-51787D01*
X69007Y-51786D01*
X69004Y-51784D01*
X68999Y-51781D01*
X68998Y-51780D01*
X68986Y-51773D01*
X68975Y-51768D01*
X68964Y-51763D01*
X68958Y-51761D01*
X68953Y-51760D01*
X68948Y-51758D01*
X68943Y-51758D01*
X68937Y-51757D01*
X68930Y-51757D01*
X68921Y-51757D01*
X68918Y-51757D01*
X68905Y-51757D01*
X68895Y-51757D01*
X68887Y-51759D01*
X68881Y-51761D01*
X68875Y-51763D01*
X68870Y-51767D01*
X68868Y-51769D01*
X68862Y-51777D01*
X68858Y-51785D01*
X68857Y-51795D01*
X68857Y-51796D01*
X68859Y-51805D01*
X68863Y-51813D01*
X68870Y-51819D01*
X68880Y-51824D01*
X68882Y-51825D01*
X68887Y-51826D01*
X68895Y-51827D01*
X68905Y-51828D01*
X68918Y-51829D01*
X68933Y-51831D01*
X68933Y-51831D01*
X68950Y-51832D01*
X68964Y-51833D01*
X68976Y-51835D01*
X68985Y-51836D01*
X68988Y-51837D01*
X69005Y-51843D01*
X69020Y-51851D01*
X69033Y-51862D01*
X69044Y-51875D01*
X69052Y-51889D01*
X69057Y-51906D01*
X69060Y-51924D01*
X69061Y-51936D01*
X69061Y-51936D01*
X69061Y-51936D01*
G37*
G36*
X69387Y-51867D02*
X69387Y-51889D01*
X69386Y-51909D01*
X69384Y-51926D01*
X69381Y-51941D01*
X69378Y-51955D01*
X69373Y-51967D01*
X69367Y-51978D01*
X69359Y-51989D01*
X69350Y-51999D01*
X69345Y-52004D01*
X69333Y-52016D01*
X69321Y-52025D01*
X69316Y-52027D01*
X69316Y-51868D01*
X69316Y-51855D01*
X69315Y-51843D01*
X69315Y-51832D01*
X69314Y-51822D01*
X69313Y-51815D01*
X69313Y-51814D01*
X69308Y-51799D01*
X69302Y-51787D01*
X69293Y-51778D01*
X69285Y-51771D01*
X69271Y-51764D01*
X69257Y-51760D01*
X69243Y-51759D01*
X69229Y-51761D01*
X69216Y-51765D01*
X69203Y-51771D01*
X69192Y-51780D01*
X69184Y-51792D01*
X69182Y-51793D01*
X69180Y-51798D01*
X69177Y-51804D01*
X69176Y-51809D01*
X69174Y-51815D01*
X69173Y-51823D01*
X69173Y-51832D01*
X69173Y-51843D01*
X69172Y-51857D01*
X69172Y-51867D01*
X69172Y-51880D01*
X69173Y-51892D01*
X69173Y-51900D01*
X69173Y-51907D01*
X69173Y-51912D01*
X69174Y-51917D01*
X69175Y-51921D01*
X69175Y-51922D01*
X69181Y-51936D01*
X69189Y-51949D01*
X69199Y-51959D01*
X69210Y-51966D01*
X69224Y-51971D01*
X69238Y-51974D01*
X69254Y-51973D01*
X69258Y-51972D01*
X69268Y-51970D01*
X69278Y-51965D01*
X69288Y-51960D01*
X69293Y-51956D01*
X69300Y-51948D01*
X69306Y-51938D01*
X69311Y-51926D01*
X69313Y-51919D01*
X69314Y-51913D01*
X69315Y-51904D01*
X69315Y-51893D01*
X69316Y-51881D01*
X69316Y-51868D01*
X69316Y-52027D01*
X69308Y-52032D01*
X69294Y-52037D01*
X69293Y-52037D01*
X69271Y-52043D01*
X69249Y-52045D01*
X69227Y-52044D01*
X69223Y-52044D01*
X69202Y-52040D01*
X69182Y-52033D01*
X69164Y-52023D01*
X69147Y-52010D01*
X69133Y-51995D01*
X69132Y-51994D01*
X69124Y-51982D01*
X69117Y-51970D01*
X69111Y-51957D01*
X69107Y-51942D01*
X69103Y-51925D01*
X69101Y-51907D01*
X69100Y-51886D01*
X69100Y-51867D01*
X69100Y-51843D01*
X69102Y-51823D01*
X69104Y-51804D01*
X69107Y-51788D01*
X69112Y-51774D01*
X69118Y-51761D01*
X69125Y-51749D01*
X69132Y-51739D01*
X69147Y-51724D01*
X69163Y-51711D01*
X69181Y-51701D01*
X69201Y-51694D01*
X69222Y-51689D01*
X69233Y-51688D01*
X69251Y-51688D01*
X69269Y-51690D01*
X69287Y-51694D01*
X69305Y-51700D01*
X69319Y-51707D01*
X69328Y-51713D01*
X69337Y-51721D01*
X69346Y-51730D01*
X69355Y-51740D01*
X69363Y-51749D01*
X69367Y-51755D01*
X69372Y-51765D01*
X69377Y-51776D01*
X69380Y-51787D01*
X69383Y-51800D01*
X69385Y-51814D01*
X69386Y-51830D01*
X69387Y-51848D01*
X69387Y-51867D01*
X69387Y-51867D01*
X69387Y-51867D01*
G37*
G36*
X69726Y-52041D02*
X69690Y-52041D01*
X69654Y-52041D01*
X69654Y-52023D01*
X69654Y-52005D01*
X69643Y-52015D01*
X69628Y-52027D01*
X69612Y-52035D01*
X69594Y-52041D01*
X69575Y-52044D01*
X69570Y-52045D01*
X69563Y-52045D01*
X69555Y-52045D01*
X69549Y-52044D01*
X69549Y-52044D01*
X69530Y-52040D01*
X69512Y-52033D01*
X69496Y-52023D01*
X69481Y-52010D01*
X69481Y-52010D01*
X69474Y-52003D01*
X69469Y-51997D01*
X69465Y-51991D01*
X69462Y-51985D01*
X69459Y-51980D01*
X69457Y-51976D01*
X69455Y-51972D01*
X69454Y-51968D01*
X69452Y-51964D01*
X69451Y-51960D01*
X69450Y-51955D01*
X69449Y-51949D01*
X69449Y-51943D01*
X69448Y-51935D01*
X69448Y-51926D01*
X69447Y-51915D01*
X69447Y-51902D01*
X69447Y-51887D01*
X69447Y-51869D01*
X69447Y-51849D01*
X69447Y-51826D01*
X69447Y-51817D01*
X69447Y-51692D01*
X69482Y-51692D01*
X69517Y-51692D01*
X69517Y-51804D01*
X69518Y-51827D01*
X69518Y-51846D01*
X69518Y-51863D01*
X69518Y-51877D01*
X69518Y-51889D01*
X69518Y-51899D01*
X69519Y-51908D01*
X69519Y-51914D01*
X69520Y-51920D01*
X69521Y-51924D01*
X69522Y-51928D01*
X69523Y-51931D01*
X69524Y-51934D01*
X69526Y-51937D01*
X69527Y-51941D01*
X69528Y-51941D01*
X69535Y-51952D01*
X69545Y-51961D01*
X69556Y-51967D01*
X69569Y-51971D01*
X69582Y-51973D01*
X69595Y-51973D01*
X69608Y-51971D01*
X69620Y-51965D01*
X69631Y-51958D01*
X69634Y-51955D01*
X69641Y-51946D01*
X69647Y-51935D01*
X69651Y-51923D01*
X69652Y-51919D01*
X69653Y-51915D01*
X69653Y-51909D01*
X69653Y-51899D01*
X69653Y-51887D01*
X69654Y-51872D01*
X69654Y-51855D01*
X69654Y-51835D01*
X69654Y-51814D01*
X69654Y-51801D01*
X69654Y-51692D01*
X69690Y-51692D01*
X69726Y-51692D01*
X69726Y-51867D01*
X69726Y-52041D01*
X69726Y-52041D01*
X69726Y-52041D01*
G37*
G36*
X70311Y-51984D02*
X70309Y-51987D01*
X70306Y-51990D01*
X70301Y-51995D01*
X70296Y-52001D01*
X70289Y-52006D01*
X70283Y-52011D01*
X70282Y-52012D01*
X70272Y-52019D01*
X70261Y-52025D01*
X70250Y-52031D01*
X70238Y-52036D01*
X70228Y-52039D01*
X70227Y-52040D01*
X70219Y-52042D01*
X70209Y-52043D01*
X70200Y-52044D01*
X70191Y-52045D01*
X70184Y-52046D01*
X70183Y-52046D01*
X70178Y-52045D01*
X70171Y-52045D01*
X70164Y-52044D01*
X70142Y-52040D01*
X70121Y-52033D01*
X70102Y-52023D01*
X70085Y-52011D01*
X70070Y-51997D01*
X70057Y-51980D01*
X70046Y-51961D01*
X70038Y-51939D01*
X70036Y-51934D01*
X70033Y-51922D01*
X70031Y-51911D01*
X70029Y-51901D01*
X70028Y-51889D01*
X70028Y-51876D01*
X70028Y-51866D01*
X70029Y-51842D01*
X70031Y-51821D01*
X70035Y-51802D01*
X70041Y-51784D01*
X70049Y-51767D01*
X70054Y-51757D01*
X70059Y-51749D01*
X70067Y-51741D01*
X70075Y-51732D01*
X70084Y-51723D01*
X70092Y-51716D01*
X70094Y-51715D01*
X70113Y-51704D01*
X70133Y-51696D01*
X70154Y-51691D01*
X70176Y-51688D01*
X70198Y-51689D01*
X70221Y-51692D01*
X70227Y-51693D01*
X70236Y-51696D01*
X70247Y-51701D01*
X70259Y-51707D01*
X70271Y-51713D01*
X70281Y-51720D01*
X70282Y-51721D01*
X70288Y-51726D01*
X70295Y-51732D01*
X70301Y-51737D01*
X70306Y-51742D01*
X70309Y-51746D01*
X70311Y-51749D01*
X70311Y-51749D01*
X70309Y-51750D01*
X70306Y-51753D01*
X70301Y-51758D01*
X70296Y-51763D01*
X70289Y-51769D01*
X70282Y-51775D01*
X70275Y-51781D01*
X70269Y-51787D01*
X70264Y-51791D01*
X70261Y-51794D01*
X70259Y-51795D01*
X70259Y-51795D01*
X70258Y-51794D01*
X70255Y-51791D01*
X70253Y-51789D01*
X70246Y-51783D01*
X70238Y-51776D01*
X70228Y-51770D01*
X70219Y-51765D01*
X70215Y-51764D01*
X70209Y-51762D01*
X70203Y-51761D01*
X70196Y-51760D01*
X70187Y-51760D01*
X70186Y-51760D01*
X70170Y-51761D01*
X70155Y-51764D01*
X70143Y-51769D01*
X70132Y-51776D01*
X70124Y-51784D01*
X70117Y-51793D01*
X70111Y-51803D01*
X70106Y-51814D01*
X70103Y-51823D01*
X70102Y-51829D01*
X70101Y-51834D01*
X70100Y-51839D01*
X70100Y-51846D01*
X70100Y-51855D01*
X70100Y-51866D01*
X70100Y-51867D01*
X70100Y-51881D01*
X70101Y-51894D01*
X70102Y-51904D01*
X70104Y-51914D01*
X70107Y-51922D01*
X70111Y-51931D01*
X70112Y-51933D01*
X70118Y-51942D01*
X70126Y-51951D01*
X70135Y-51959D01*
X70144Y-51965D01*
X70145Y-51965D01*
X70159Y-51970D01*
X70175Y-51973D01*
X70190Y-51973D01*
X70205Y-51972D01*
X70216Y-51969D01*
X70226Y-51965D01*
X70235Y-51959D01*
X70244Y-51952D01*
X70252Y-51945D01*
X70253Y-51944D01*
X70256Y-51941D01*
X70259Y-51939D01*
X70259Y-51938D01*
X70261Y-51939D01*
X70264Y-51942D01*
X70269Y-51946D01*
X70275Y-51952D01*
X70282Y-51958D01*
X70289Y-51964D01*
X70295Y-51970D01*
X70301Y-51975D01*
X70306Y-51980D01*
X70309Y-51983D01*
X70311Y-51984D01*
X70311Y-51984D01*
X70311Y-51984D01*
G37*
G36*
X70616Y-51894D02*
X70545Y-51894D01*
X70545Y-51834D01*
X70543Y-51825D01*
X70540Y-51808D01*
X70534Y-51793D01*
X70526Y-51780D01*
X70516Y-51770D01*
X70503Y-51762D01*
X70503Y-51762D01*
X70498Y-51760D01*
X70494Y-51758D01*
X70491Y-51757D01*
X70486Y-51757D01*
X70479Y-51757D01*
X70472Y-51757D01*
X70461Y-51757D01*
X70453Y-51758D01*
X70446Y-51759D01*
X70439Y-51762D01*
X70432Y-51766D01*
X70429Y-51768D01*
X70421Y-51776D01*
X70414Y-51785D01*
X70408Y-51797D01*
X70403Y-51809D01*
X70400Y-51823D01*
X70400Y-51826D01*
X70399Y-51834D01*
X70472Y-51834D01*
X70545Y-51834D01*
X70545Y-51894D01*
X70507Y-51894D01*
X70399Y-51894D01*
X70400Y-51903D01*
X70403Y-51920D01*
X70408Y-51936D01*
X70416Y-51949D01*
X70426Y-51959D01*
X70438Y-51968D01*
X70452Y-51973D01*
X70468Y-51977D01*
X70481Y-51977D01*
X70499Y-51976D01*
X70516Y-51971D01*
X70533Y-51963D01*
X70548Y-51953D01*
X70558Y-51945D01*
X70584Y-51966D01*
X70591Y-51973D01*
X70598Y-51979D01*
X70603Y-51983D01*
X70607Y-51987D01*
X70609Y-51989D01*
X70609Y-51989D01*
X70608Y-51991D01*
X70604Y-51994D01*
X70600Y-51999D01*
X70594Y-52004D01*
X70588Y-52009D01*
X70582Y-52014D01*
X70576Y-52018D01*
X70575Y-52019D01*
X70556Y-52029D01*
X70535Y-52037D01*
X70512Y-52043D01*
X70502Y-52044D01*
X70494Y-52045D01*
X70487Y-52045D01*
X70481Y-52045D01*
X70474Y-52045D01*
X70465Y-52044D01*
X70460Y-52044D01*
X70442Y-52041D01*
X70424Y-52036D01*
X70407Y-52029D01*
X70392Y-52020D01*
X70379Y-52010D01*
X70378Y-52010D01*
X70365Y-51995D01*
X70353Y-51979D01*
X70344Y-51961D01*
X70337Y-51941D01*
X70332Y-51919D01*
X70329Y-51894D01*
X70328Y-51867D01*
X70329Y-51845D01*
X70331Y-51826D01*
X70334Y-51808D01*
X70338Y-51792D01*
X70344Y-51776D01*
X70348Y-51766D01*
X70359Y-51747D01*
X70371Y-51731D01*
X70385Y-51717D01*
X70402Y-51706D01*
X70420Y-51697D01*
X70440Y-51691D01*
X70440Y-51691D01*
X70454Y-51689D01*
X70468Y-51688D01*
X70484Y-51689D01*
X70499Y-51690D01*
X70507Y-51692D01*
X70527Y-51698D01*
X70545Y-51707D01*
X70562Y-51719D01*
X70577Y-51733D01*
X70590Y-51748D01*
X70600Y-51765D01*
X70604Y-51773D01*
X70606Y-51780D01*
X70609Y-51787D01*
X70611Y-51793D01*
X70612Y-51800D01*
X70613Y-51807D01*
X70614Y-51815D01*
X70614Y-51825D01*
X70615Y-51838D01*
X70615Y-51850D01*
X70616Y-51894D01*
X70616Y-51894D01*
X70616Y-51894D01*
G37*
G36*
X68575Y-52041D02*
X68539Y-52041D01*
X68504Y-52041D01*
X68504Y-51932D01*
X68503Y-51909D01*
X68503Y-51889D01*
X68503Y-51872D01*
X68503Y-51857D01*
X68503Y-51845D01*
X68503Y-51835D01*
X68502Y-51826D01*
X68502Y-51819D01*
X68501Y-51813D01*
X68500Y-51809D01*
X68499Y-51805D01*
X68498Y-51801D01*
X68497Y-51798D01*
X68495Y-51795D01*
X68494Y-51793D01*
X68486Y-51781D01*
X68476Y-51772D01*
X68464Y-51765D01*
X68451Y-51761D01*
X68436Y-51759D01*
X68423Y-51760D01*
X68409Y-51764D01*
X68397Y-51771D01*
X68386Y-51780D01*
X68378Y-51791D01*
X68372Y-51805D01*
X68368Y-51818D01*
X68368Y-51822D01*
X68368Y-51829D01*
X68367Y-51838D01*
X68367Y-51851D01*
X68367Y-51866D01*
X68367Y-51884D01*
X68367Y-51903D01*
X68367Y-51925D01*
X68367Y-51935D01*
X68367Y-52041D01*
X68331Y-52041D01*
X68295Y-52041D01*
X68295Y-51867D01*
X68295Y-51692D01*
X68331Y-51692D01*
X68367Y-51692D01*
X68367Y-51711D01*
X68367Y-51729D01*
X68378Y-51718D01*
X68392Y-51707D01*
X68408Y-51698D01*
X68426Y-51692D01*
X68445Y-51689D01*
X68457Y-51688D01*
X68477Y-51690D01*
X68495Y-51694D01*
X68513Y-51702D01*
X68528Y-51712D01*
X68542Y-51724D01*
X68554Y-51739D01*
X68563Y-51755D01*
X68570Y-51774D01*
X68571Y-51775D01*
X68571Y-51777D01*
X68572Y-51780D01*
X68572Y-51782D01*
X68573Y-51785D01*
X68573Y-51789D01*
X68574Y-51793D01*
X68574Y-51799D01*
X68574Y-51806D01*
X68574Y-51815D01*
X68574Y-51825D01*
X68574Y-51838D01*
X68575Y-51853D01*
X68575Y-51870D01*
X68575Y-51890D01*
X68575Y-51914D01*
X68575Y-51914D01*
X68575Y-52041D01*
X68575Y-52041D01*
X68575Y-52041D01*
G37*
G36*
X70037Y-51715D02*
X70036Y-51716D01*
X70033Y-51720D01*
X70029Y-51725D01*
X70024Y-51732D01*
X70018Y-51739D01*
X70011Y-51746D01*
X70005Y-51754D01*
X69999Y-51761D01*
X69994Y-51767D01*
X69990Y-51771D01*
X69987Y-51774D01*
X69986Y-51775D01*
X69984Y-51774D01*
X69980Y-51773D01*
X69975Y-51770D01*
X69974Y-51769D01*
X69967Y-51765D01*
X69960Y-51762D01*
X69954Y-51761D01*
X69946Y-51760D01*
X69937Y-51760D01*
X69922Y-51761D01*
X69909Y-51766D01*
X69898Y-51773D01*
X69888Y-51783D01*
X69885Y-51787D01*
X69883Y-51790D01*
X69881Y-51793D01*
X69879Y-51795D01*
X69878Y-51798D01*
X69877Y-51801D01*
X69876Y-51805D01*
X69875Y-51810D01*
X69874Y-51816D01*
X69874Y-51824D01*
X69873Y-51833D01*
X69873Y-51844D01*
X69873Y-51857D01*
X69873Y-51872D01*
X69873Y-51890D01*
X69873Y-51911D01*
X69873Y-51926D01*
X69872Y-52041D01*
X69836Y-52041D01*
X69801Y-52041D01*
X69801Y-51867D01*
X69801Y-51692D01*
X69836Y-51692D01*
X69872Y-51692D01*
X69872Y-51710D01*
X69872Y-51728D01*
X69883Y-51718D01*
X69897Y-51707D01*
X69913Y-51698D01*
X69929Y-51692D01*
X69947Y-51689D01*
X69963Y-51689D01*
X69977Y-51689D01*
X69989Y-51691D01*
X70001Y-51695D01*
X70013Y-51700D01*
X70026Y-51707D01*
X70027Y-51708D01*
X70032Y-51711D01*
X70035Y-51714D01*
X70037Y-51715D01*
X70037Y-51715D01*
X70037Y-51715D01*
G37*
G36*
X70244Y-50555D02*
X70239Y-50560D01*
X70234Y-50565D01*
X70174Y-50576D01*
X70174Y-50441D01*
X70173Y-50425D01*
X70170Y-50412D01*
X70164Y-50400D01*
X70155Y-50391D01*
X70144Y-50383D01*
X70142Y-50382D01*
X70136Y-50378D01*
X70132Y-50376D01*
X70131Y-50374D01*
X70133Y-50374D01*
X70135Y-50373D01*
X70138Y-50370D01*
X70142Y-50367D01*
X70143Y-50366D01*
X70152Y-50356D01*
X70158Y-50345D01*
X70161Y-50332D01*
X70161Y-50318D01*
X70161Y-50314D01*
X70158Y-50302D01*
X70154Y-50291D01*
X70147Y-50282D01*
X70143Y-50278D01*
X70132Y-50269D01*
X70120Y-50262D01*
X70105Y-50257D01*
X70088Y-50253D01*
X70068Y-50251D01*
X70045Y-50250D01*
X70020Y-50251D01*
X70018Y-50251D01*
X70007Y-50252D01*
X69997Y-50253D01*
X69987Y-50254D01*
X69980Y-50255D01*
X69975Y-50255D01*
X69963Y-50257D01*
X69964Y-50387D01*
X69964Y-50517D01*
X69976Y-50519D01*
X69988Y-50520D01*
X70002Y-50522D01*
X70018Y-50523D01*
X70035Y-50524D01*
X70051Y-50524D01*
X70066Y-50523D01*
X70079Y-50523D01*
X70084Y-50522D01*
X70105Y-50519D01*
X70123Y-50513D01*
X70138Y-50506D01*
X70151Y-50497D01*
X70161Y-50487D01*
X70168Y-50474D01*
X70172Y-50460D01*
X70174Y-50444D01*
X70174Y-50441D01*
X70174Y-50576D01*
X70074Y-50595D01*
X70048Y-50600D01*
X70024Y-50604D01*
X70003Y-50608D01*
X69985Y-50612D01*
X69969Y-50615D01*
X69956Y-50617D01*
X69944Y-50620D01*
X69935Y-50622D01*
X69927Y-50623D01*
X69921Y-50625D01*
X69916Y-50627D01*
X69912Y-50628D01*
X69909Y-50629D01*
X69907Y-50630D01*
X69906Y-50632D01*
X69904Y-50633D01*
X69904Y-50635D01*
X69903Y-50636D01*
X69903Y-50637D01*
X69901Y-50641D01*
X69898Y-50647D01*
X69895Y-50656D01*
X69890Y-50667D01*
X69885Y-50680D01*
X69879Y-50694D01*
X69873Y-50709D01*
X69867Y-50725D01*
X69860Y-50742D01*
X69853Y-50759D01*
X69847Y-50776D01*
X69840Y-50793D01*
X69834Y-50809D01*
X69827Y-50825D01*
X69822Y-50840D01*
X69817Y-50853D01*
X69812Y-50865D01*
X69808Y-50875D01*
X69805Y-50883D01*
X69803Y-50889D01*
X69802Y-50891D01*
X69802Y-50892D01*
X69803Y-50897D01*
X69803Y-50900D01*
X69804Y-50902D01*
X69807Y-50906D01*
X69811Y-50913D01*
X69817Y-50922D01*
X69824Y-50932D01*
X69833Y-50945D01*
X69842Y-50959D01*
X69853Y-50974D01*
X69864Y-50991D01*
X69876Y-51008D01*
X69888Y-51026D01*
X69894Y-51035D01*
X69909Y-51057D01*
X69923Y-51076D01*
X69934Y-51093D01*
X69944Y-51108D01*
X69953Y-51120D01*
X69960Y-51131D01*
X69966Y-51140D01*
X69971Y-51148D01*
X69975Y-51154D01*
X69978Y-51159D01*
X69981Y-51163D01*
X69982Y-51166D01*
X69983Y-51169D01*
X69984Y-51171D01*
X69985Y-51172D01*
X69985Y-51173D01*
X69985Y-51174D01*
X69985Y-51181D01*
X69865Y-51301D01*
X69849Y-51317D01*
X69833Y-51333D01*
X69818Y-51348D01*
X69816Y-51349D01*
X69816Y-51281D01*
X69809Y-51258D01*
X69805Y-51248D01*
X69802Y-51241D01*
X69800Y-51237D01*
X69799Y-51236D01*
X69799Y-51236D01*
X69796Y-51236D01*
X69792Y-51238D01*
X69785Y-51240D01*
X69783Y-51241D01*
X69774Y-51243D01*
X69765Y-51245D01*
X69755Y-51247D01*
X69752Y-51248D01*
X69733Y-51249D01*
X69716Y-51247D01*
X69701Y-51243D01*
X69688Y-51237D01*
X69678Y-51228D01*
X69669Y-51216D01*
X69662Y-51202D01*
X69659Y-51194D01*
X69658Y-51186D01*
X69657Y-51176D01*
X69656Y-51165D01*
X69656Y-51154D01*
X69657Y-51144D01*
X69658Y-51135D01*
X69659Y-51132D01*
X69664Y-51116D01*
X69671Y-51103D01*
X69681Y-51092D01*
X69692Y-51084D01*
X69706Y-51078D01*
X69711Y-51076D01*
X69723Y-51075D01*
X69737Y-51075D01*
X69751Y-51076D01*
X69766Y-51079D01*
X69779Y-51083D01*
X69783Y-51085D01*
X69789Y-51087D01*
X69793Y-51088D01*
X69796Y-51088D01*
X69796Y-51088D01*
X69797Y-51086D01*
X69799Y-51082D01*
X69801Y-51075D01*
X69804Y-51068D01*
X69805Y-51065D01*
X69812Y-51043D01*
X69808Y-51040D01*
X69804Y-51037D01*
X69796Y-51034D01*
X69787Y-51031D01*
X69777Y-51028D01*
X69770Y-51026D01*
X69761Y-51025D01*
X69750Y-51024D01*
X69738Y-51023D01*
X69725Y-51023D01*
X69713Y-51024D01*
X69702Y-51025D01*
X69693Y-51026D01*
X69692Y-51026D01*
X69680Y-51030D01*
X69668Y-51035D01*
X69656Y-51042D01*
X69645Y-51048D01*
X69638Y-51054D01*
X69624Y-51069D01*
X69613Y-51086D01*
X69604Y-51104D01*
X69598Y-51124D01*
X69595Y-51146D01*
X69594Y-51168D01*
X69595Y-51180D01*
X69597Y-51196D01*
X69600Y-51210D01*
X69604Y-51223D01*
X69609Y-51236D01*
X69611Y-51238D01*
X69620Y-51254D01*
X69632Y-51268D01*
X69646Y-51279D01*
X69661Y-51288D01*
X69674Y-51293D01*
X69683Y-51295D01*
X69691Y-51297D01*
X69699Y-51299D01*
X69702Y-51299D01*
X69711Y-51300D01*
X69722Y-51300D01*
X69735Y-51300D01*
X69747Y-51300D01*
X69759Y-51299D01*
X69768Y-51297D01*
X69770Y-51297D01*
X69787Y-51293D01*
X69802Y-51288D01*
X69810Y-51285D01*
X69816Y-51281D01*
X69816Y-51349D01*
X69804Y-51362D01*
X69790Y-51375D01*
X69779Y-51387D01*
X69768Y-51397D01*
X69759Y-51406D01*
X69752Y-51413D01*
X69746Y-51418D01*
X69743Y-51421D01*
X69741Y-51422D01*
X69735Y-51423D01*
X69732Y-51422D01*
X69730Y-51421D01*
X69725Y-51418D01*
X69718Y-51414D01*
X69709Y-51408D01*
X69698Y-51401D01*
X69686Y-51392D01*
X69672Y-51383D01*
X69656Y-51372D01*
X69640Y-51361D01*
X69622Y-51349D01*
X69604Y-51337D01*
X69599Y-51333D01*
X69578Y-51319D01*
X69558Y-51305D01*
X69540Y-51293D01*
X69523Y-51282D01*
X69509Y-51272D01*
X69496Y-51263D01*
X69485Y-51256D01*
X69477Y-51251D01*
X69470Y-51247D01*
X69466Y-51245D01*
X69465Y-51244D01*
X69460Y-51244D01*
X69455Y-51244D01*
X69453Y-51245D01*
X69448Y-51248D01*
X69440Y-51251D01*
X69431Y-51256D01*
X69421Y-51261D01*
X69409Y-51267D01*
X69397Y-51274D01*
X69393Y-51276D01*
X69377Y-51285D01*
X69363Y-51292D01*
X69351Y-51298D01*
X69342Y-51302D01*
X69336Y-51305D01*
X69332Y-51306D01*
X69331Y-51307D01*
X69326Y-51305D01*
X69322Y-51303D01*
X69321Y-51301D01*
X69319Y-51296D01*
X69316Y-51288D01*
X69312Y-51279D01*
X69306Y-51266D01*
X69300Y-51252D01*
X69293Y-51236D01*
X69286Y-51218D01*
X69278Y-51199D01*
X69269Y-51178D01*
X69260Y-51156D01*
X69250Y-51133D01*
X69240Y-51109D01*
X69230Y-51084D01*
X69220Y-51059D01*
X69209Y-51034D01*
X69199Y-51009D01*
X69188Y-50983D01*
X69178Y-50958D01*
X69168Y-50934D01*
X69158Y-50910D01*
X69148Y-50887D01*
X69139Y-50864D01*
X69131Y-50844D01*
X69123Y-50824D01*
X69115Y-50806D01*
X69109Y-50790D01*
X69103Y-50775D01*
X69098Y-50763D01*
X69094Y-50753D01*
X69091Y-50745D01*
X69089Y-50740D01*
X69089Y-50738D01*
X69089Y-50733D01*
X69090Y-50729D01*
X69090Y-50728D01*
X69092Y-50726D01*
X69097Y-50722D01*
X69103Y-50718D01*
X69110Y-50713D01*
X69110Y-50713D01*
X69118Y-50708D01*
X69126Y-50703D01*
X69134Y-50698D01*
X69138Y-50694D01*
X69144Y-50690D01*
X69152Y-50684D01*
X69160Y-50678D01*
X69166Y-50674D01*
X69176Y-50665D01*
X69188Y-50655D01*
X69200Y-50644D01*
X69212Y-50632D01*
X69223Y-50620D01*
X69232Y-50609D01*
X69235Y-50605D01*
X69254Y-50576D01*
X69271Y-50546D01*
X69285Y-50515D01*
X69290Y-50501D01*
X69299Y-50468D01*
X69305Y-50435D01*
X69308Y-50403D01*
X69308Y-50370D01*
X69305Y-50339D01*
X69300Y-50307D01*
X69291Y-50277D01*
X69280Y-50247D01*
X69267Y-50219D01*
X69251Y-50191D01*
X69233Y-50165D01*
X69212Y-50141D01*
X69190Y-50119D01*
X69165Y-50098D01*
X69139Y-50080D01*
X69110Y-50064D01*
X69094Y-50056D01*
X69094Y-49435D01*
X69093Y-49416D01*
X69091Y-49387D01*
X69089Y-49359D01*
X69088Y-49332D01*
X69086Y-49307D01*
X69084Y-49283D01*
X69082Y-49260D01*
X69081Y-49240D01*
X69079Y-49221D01*
X69077Y-49205D01*
X69076Y-49192D01*
X69074Y-49181D01*
X69073Y-49173D01*
X69073Y-49173D01*
X69072Y-49168D01*
X69045Y-49168D01*
X69018Y-49168D01*
X69007Y-49191D01*
X69002Y-49201D01*
X68996Y-49214D01*
X68990Y-49228D01*
X68983Y-49243D01*
X68976Y-49259D01*
X68969Y-49274D01*
X68962Y-49290D01*
X68956Y-49303D01*
X68954Y-49309D01*
X68951Y-49316D01*
X68948Y-49322D01*
X68946Y-49326D01*
X68945Y-49328D01*
X68945Y-49328D01*
X68944Y-49326D01*
X68942Y-49323D01*
X68940Y-49317D01*
X68937Y-49310D01*
X68931Y-49297D01*
X68925Y-49282D01*
X68918Y-49266D01*
X68911Y-49250D01*
X68904Y-49235D01*
X68897Y-49220D01*
X68891Y-49207D01*
X68885Y-49196D01*
X68884Y-49193D01*
X68872Y-49168D01*
X68843Y-49168D01*
X68833Y-49168D01*
X68825Y-49168D01*
X68819Y-49169D01*
X68816Y-49169D01*
X68815Y-49170D01*
X68815Y-49170D01*
X68815Y-49173D01*
X68814Y-49178D01*
X68813Y-49184D01*
X68812Y-49191D01*
X68811Y-49203D01*
X68809Y-49218D01*
X68808Y-49236D01*
X68806Y-49255D01*
X68804Y-49276D01*
X68802Y-49298D01*
X68801Y-49320D01*
X68799Y-49343D01*
X68798Y-49364D01*
X68797Y-49385D01*
X68796Y-49401D01*
X68796Y-49410D01*
X68795Y-49418D01*
X68795Y-49424D01*
X68794Y-49429D01*
X68793Y-49435D01*
X68822Y-49435D01*
X68852Y-49435D01*
X68854Y-49381D01*
X68854Y-49367D01*
X68855Y-49352D01*
X68855Y-49337D01*
X68856Y-49323D01*
X68857Y-49309D01*
X68858Y-49296D01*
X68859Y-49284D01*
X68859Y-49274D01*
X68860Y-49266D01*
X68860Y-49261D01*
X68861Y-49258D01*
X68861Y-49258D01*
X68861Y-49259D01*
X68862Y-49260D01*
X68863Y-49262D01*
X68865Y-49266D01*
X68867Y-49271D01*
X68870Y-49278D01*
X68874Y-49287D01*
X68879Y-49298D01*
X68885Y-49311D01*
X68892Y-49328D01*
X68900Y-49346D01*
X68923Y-49401D01*
X68944Y-49401D01*
X68965Y-49400D01*
X68996Y-49329D01*
X69002Y-49314D01*
X69008Y-49301D01*
X69013Y-49289D01*
X69017Y-49279D01*
X69021Y-49271D01*
X69024Y-49264D01*
X69026Y-49261D01*
X69027Y-49259D01*
X69027Y-49259D01*
X69028Y-49262D01*
X69028Y-49268D01*
X69029Y-49276D01*
X69029Y-49286D01*
X69030Y-49298D01*
X69031Y-49312D01*
X69032Y-49326D01*
X69032Y-49342D01*
X69033Y-49357D01*
X69033Y-49358D01*
X69034Y-49371D01*
X69034Y-49383D01*
X69035Y-49395D01*
X69035Y-49405D01*
X69036Y-49414D01*
X69036Y-49417D01*
X69037Y-49435D01*
X69065Y-49435D01*
X69094Y-49435D01*
X69094Y-50056D01*
X69080Y-50050D01*
X69049Y-50039D01*
X69036Y-50036D01*
X69011Y-50031D01*
X68987Y-50027D01*
X68961Y-50026D01*
X68947Y-50025D01*
X68920Y-50026D01*
X68895Y-50029D01*
X68870Y-50033D01*
X68858Y-50036D01*
X68825Y-50046D01*
X68794Y-50059D01*
X68764Y-50074D01*
X68736Y-50092D01*
X68711Y-50112D01*
X68687Y-50135D01*
X68665Y-50159D01*
X68646Y-50186D01*
X68629Y-50214D01*
X68614Y-50244D01*
X68603Y-50275D01*
X68594Y-50308D01*
X68588Y-50341D01*
X68587Y-50346D01*
X68585Y-50380D01*
X68586Y-50413D01*
X68590Y-50446D01*
X68597Y-50479D01*
X68607Y-50511D01*
X68621Y-50542D01*
X68637Y-50573D01*
X68656Y-50602D01*
X68659Y-50605D01*
X68667Y-50616D01*
X68677Y-50627D01*
X68689Y-50639D01*
X68701Y-50650D01*
X68712Y-50661D01*
X68724Y-50671D01*
X68730Y-50675D01*
X68737Y-50681D01*
X68744Y-50686D01*
X68750Y-50690D01*
X68753Y-50693D01*
X68757Y-50696D01*
X68763Y-50700D01*
X68770Y-50704D01*
X68778Y-50710D01*
X68780Y-50711D01*
X68788Y-50715D01*
X68794Y-50720D01*
X68799Y-50724D01*
X68802Y-50727D01*
X68803Y-50727D01*
X68805Y-50733D01*
X68805Y-50738D01*
X68804Y-50740D01*
X68802Y-50745D01*
X68799Y-50753D01*
X68795Y-50763D01*
X68790Y-50776D01*
X68784Y-50790D01*
X68778Y-50806D01*
X68770Y-50825D01*
X68762Y-50844D01*
X68754Y-50865D01*
X68745Y-50887D01*
X68735Y-50911D01*
X68725Y-50935D01*
X68715Y-50959D01*
X68705Y-50984D01*
X68694Y-51010D01*
X68684Y-51035D01*
X68673Y-51060D01*
X68663Y-51085D01*
X68653Y-51110D01*
X68643Y-51134D01*
X68633Y-51157D01*
X68624Y-51179D01*
X68615Y-51199D01*
X68607Y-51219D01*
X68600Y-51237D01*
X68593Y-51253D01*
X68587Y-51267D01*
X68582Y-51279D01*
X68577Y-51289D01*
X68574Y-51296D01*
X68572Y-51301D01*
X68571Y-51302D01*
X68569Y-51304D01*
X68567Y-51305D01*
X68565Y-51306D01*
X68562Y-51306D01*
X68558Y-51305D01*
X68553Y-51303D01*
X68547Y-51300D01*
X68538Y-51296D01*
X68528Y-51291D01*
X68515Y-51284D01*
X68501Y-51276D01*
X68488Y-51269D01*
X68476Y-51263D01*
X68465Y-51257D01*
X68456Y-51252D01*
X68448Y-51249D01*
X68442Y-51246D01*
X68439Y-51244D01*
X68439Y-51244D01*
X68433Y-51244D01*
X68428Y-51244D01*
X68426Y-51245D01*
X68421Y-51248D01*
X68414Y-51253D01*
X68405Y-51259D01*
X68393Y-51266D01*
X68380Y-51275D01*
X68364Y-51286D01*
X68347Y-51297D01*
X68329Y-51310D01*
X68309Y-51323D01*
X68295Y-51333D01*
X68277Y-51345D01*
X68264Y-51354D01*
X68264Y-49548D01*
X68264Y-49523D01*
X68264Y-49497D01*
X68174Y-49497D01*
X68085Y-49497D01*
X68085Y-49631D01*
X68085Y-49765D01*
X68114Y-49765D01*
X68143Y-49765D01*
X68143Y-49709D01*
X68143Y-49654D01*
X68196Y-49654D01*
X68249Y-49654D01*
X68249Y-49629D01*
X68249Y-49605D01*
X68196Y-49605D01*
X68143Y-49605D01*
X68143Y-49576D01*
X68143Y-49548D01*
X68204Y-49548D01*
X68264Y-49548D01*
X68264Y-51354D01*
X68262Y-51355D01*
X68262Y-51215D01*
X68260Y-51201D01*
X68256Y-51188D01*
X68251Y-51178D01*
X68246Y-51170D01*
X68240Y-51164D01*
X68232Y-51158D01*
X68223Y-51152D01*
X68211Y-51146D01*
X68197Y-51140D01*
X68180Y-51134D01*
X68180Y-51134D01*
X68169Y-51129D01*
X68160Y-51126D01*
X68153Y-51122D01*
X68148Y-51120D01*
X68144Y-51117D01*
X68141Y-51114D01*
X68140Y-51114D01*
X68136Y-51107D01*
X68134Y-51100D01*
X68134Y-51092D01*
X68137Y-51085D01*
X68140Y-51081D01*
X68145Y-51077D01*
X68152Y-51075D01*
X68161Y-51074D01*
X68172Y-51073D01*
X68182Y-51073D01*
X68191Y-51074D01*
X68198Y-51074D01*
X68204Y-51076D01*
X68209Y-51077D01*
X68217Y-51080D01*
X68223Y-51082D01*
X68228Y-51084D01*
X68232Y-51085D01*
X68233Y-51085D01*
X68233Y-51084D01*
X68235Y-51080D01*
X68237Y-51074D01*
X68240Y-51067D01*
X68242Y-51060D01*
X68245Y-51053D01*
X68247Y-51047D01*
X68249Y-51043D01*
X68249Y-51041D01*
X68249Y-51041D01*
X68248Y-51040D01*
X68244Y-51038D01*
X68238Y-51035D01*
X68232Y-51033D01*
X68225Y-51030D01*
X68218Y-51028D01*
X68218Y-51028D01*
X68206Y-51025D01*
X68192Y-51024D01*
X68177Y-51023D01*
X68163Y-51023D01*
X68150Y-51024D01*
X68147Y-51024D01*
X68130Y-51028D01*
X68115Y-51034D01*
X68101Y-51043D01*
X68090Y-51053D01*
X68082Y-51065D01*
X68078Y-51073D01*
X68075Y-51082D01*
X68074Y-51093D01*
X68074Y-51105D01*
X68074Y-51116D01*
X68076Y-51123D01*
X68081Y-51136D01*
X68090Y-51148D01*
X68101Y-51159D01*
X68112Y-51166D01*
X68116Y-51168D01*
X68123Y-51171D01*
X68131Y-51175D01*
X68141Y-51179D01*
X68146Y-51181D01*
X68160Y-51186D01*
X68172Y-51191D01*
X68181Y-51196D01*
X68188Y-51200D01*
X68193Y-51204D01*
X68197Y-51208D01*
X68199Y-51212D01*
X68201Y-51216D01*
X68201Y-51224D01*
X68200Y-51232D01*
X68196Y-51239D01*
X68194Y-51241D01*
X68189Y-51244D01*
X68182Y-51247D01*
X68178Y-51248D01*
X68168Y-51250D01*
X68155Y-51251D01*
X68141Y-51250D01*
X68126Y-51248D01*
X68112Y-51245D01*
X68100Y-51241D01*
X68093Y-51237D01*
X68089Y-51236D01*
X68086Y-51235D01*
X68085Y-51235D01*
X68084Y-51237D01*
X68083Y-51241D01*
X68081Y-51247D01*
X68078Y-51253D01*
X68075Y-51261D01*
X68073Y-51267D01*
X68071Y-51273D01*
X68069Y-51278D01*
X68069Y-51278D01*
X68069Y-51280D01*
X68070Y-51281D01*
X68073Y-51283D01*
X68079Y-51286D01*
X68079Y-51286D01*
X68097Y-51292D01*
X68117Y-51297D01*
X68138Y-51300D01*
X68159Y-51301D01*
X68180Y-51300D01*
X68181Y-51299D01*
X68200Y-51296D01*
X68217Y-51291D01*
X68231Y-51284D01*
X68242Y-51275D01*
X68251Y-51264D01*
X68257Y-51251D01*
X68260Y-51243D01*
X68262Y-51230D01*
X68262Y-51215D01*
X68262Y-51355D01*
X68259Y-51357D01*
X68242Y-51369D01*
X68227Y-51380D01*
X68212Y-51389D01*
X68199Y-51398D01*
X68188Y-51406D01*
X68179Y-51412D01*
X68172Y-51417D01*
X68167Y-51420D01*
X68164Y-51422D01*
X68164Y-51422D01*
X68159Y-51423D01*
X68156Y-51423D01*
X68151Y-51421D01*
X68151Y-51421D01*
X68149Y-51420D01*
X68145Y-51416D01*
X68139Y-51410D01*
X68131Y-51403D01*
X68122Y-51394D01*
X68111Y-51383D01*
X68099Y-51371D01*
X68085Y-51358D01*
X68071Y-51344D01*
X68056Y-51328D01*
X68040Y-51312D01*
X68027Y-51300D01*
X67909Y-51181D01*
X67909Y-51174D01*
X67909Y-51173D01*
X67909Y-51171D01*
X67910Y-51169D01*
X67911Y-51167D01*
X67912Y-51164D01*
X67914Y-51161D01*
X67917Y-51156D01*
X67921Y-51150D01*
X67925Y-51143D01*
X67931Y-51135D01*
X67938Y-51125D01*
X67946Y-51113D01*
X67955Y-51099D01*
X67966Y-51083D01*
X67979Y-51065D01*
X67993Y-51044D01*
X67999Y-51035D01*
X68012Y-51017D01*
X68024Y-50999D01*
X68036Y-50982D01*
X68046Y-50966D01*
X68056Y-50951D01*
X68065Y-50938D01*
X68073Y-50926D01*
X68079Y-50917D01*
X68085Y-50909D01*
X68088Y-50903D01*
X68090Y-50900D01*
X68090Y-50900D01*
X68091Y-50895D01*
X68091Y-50892D01*
X68091Y-50890D01*
X68089Y-50885D01*
X68086Y-50878D01*
X68083Y-50868D01*
X68078Y-50857D01*
X68073Y-50844D01*
X68068Y-50830D01*
X68062Y-50814D01*
X68055Y-50798D01*
X68049Y-50781D01*
X68042Y-50764D01*
X68035Y-50747D01*
X68029Y-50730D01*
X68022Y-50714D01*
X68016Y-50698D01*
X68010Y-50684D01*
X68005Y-50671D01*
X68000Y-50659D01*
X67996Y-50650D01*
X67993Y-50642D01*
X67991Y-50638D01*
X67991Y-50637D01*
X67990Y-50635D01*
X67989Y-50633D01*
X67988Y-50632D01*
X67987Y-50631D01*
X67985Y-50629D01*
X67982Y-50628D01*
X67979Y-50627D01*
X67974Y-50625D01*
X67968Y-50624D01*
X67960Y-50622D01*
X67951Y-50620D01*
X67940Y-50618D01*
X67927Y-50615D01*
X67920Y-50614D01*
X67920Y-50346D01*
X67920Y-50331D01*
X67918Y-50316D01*
X67914Y-50303D01*
X67912Y-50298D01*
X67904Y-50286D01*
X67894Y-50276D01*
X67882Y-50268D01*
X67866Y-50261D01*
X67848Y-50256D01*
X67828Y-50252D01*
X67804Y-50251D01*
X67779Y-50251D01*
X67768Y-50251D01*
X67758Y-50252D01*
X67748Y-50253D01*
X67739Y-50254D01*
X67731Y-50255D01*
X67727Y-50255D01*
X67716Y-50257D01*
X67716Y-50389D01*
X67716Y-50521D01*
X67746Y-50521D01*
X67775Y-50521D01*
X67775Y-50476D01*
X67775Y-50432D01*
X67800Y-50431D01*
X67823Y-50429D01*
X67844Y-50426D01*
X67862Y-50421D01*
X67877Y-50415D01*
X67890Y-50408D01*
X67901Y-50399D01*
X67909Y-50388D01*
X67909Y-50387D01*
X67915Y-50375D01*
X67918Y-50361D01*
X67920Y-50346D01*
X67920Y-50614D01*
X67912Y-50612D01*
X67894Y-50609D01*
X67874Y-50605D01*
X67851Y-50601D01*
X67824Y-50596D01*
X67819Y-50595D01*
X67659Y-50565D01*
X67654Y-50560D01*
X67650Y-50555D01*
X67650Y-50385D01*
X67650Y-50358D01*
X67650Y-50333D01*
X67650Y-50312D01*
X67650Y-50293D01*
X67650Y-50277D01*
X67650Y-50264D01*
X67650Y-50252D01*
X67650Y-50242D01*
X67650Y-50234D01*
X67650Y-50228D01*
X67651Y-50223D01*
X67651Y-50219D01*
X67651Y-50216D01*
X67651Y-50214D01*
X67652Y-50213D01*
X67652Y-50212D01*
X67653Y-50211D01*
X67653Y-50210D01*
X67656Y-50207D01*
X67659Y-50205D01*
X67659Y-50205D01*
X67661Y-50204D01*
X67666Y-50203D01*
X67674Y-50201D01*
X67683Y-50199D01*
X67695Y-50197D01*
X67708Y-50195D01*
X67722Y-50192D01*
X67729Y-50191D01*
X67762Y-50185D01*
X67793Y-50179D01*
X67820Y-50174D01*
X67845Y-50169D01*
X67867Y-50165D01*
X67887Y-50161D01*
X67904Y-50158D01*
X67920Y-50155D01*
X67933Y-50153D01*
X67944Y-50151D01*
X67954Y-50149D01*
X67962Y-50147D01*
X67969Y-50146D01*
X67974Y-50145D01*
X67979Y-50144D01*
X67982Y-50143D01*
X67985Y-50142D01*
X67987Y-50142D01*
X67988Y-50141D01*
X67989Y-50141D01*
X67990Y-50140D01*
X67990Y-50140D01*
X67991Y-50139D01*
X67996Y-50135D01*
X67999Y-50130D01*
X68000Y-50129D01*
X68002Y-50125D01*
X68004Y-50119D01*
X68008Y-50111D01*
X68013Y-50100D01*
X68018Y-50088D01*
X68024Y-50075D01*
X68030Y-50060D01*
X68037Y-50044D01*
X68043Y-50028D01*
X68050Y-50012D01*
X68057Y-49995D01*
X68064Y-49979D01*
X68071Y-49964D01*
X68077Y-49949D01*
X68083Y-49936D01*
X68088Y-49924D01*
X68092Y-49913D01*
X68096Y-49905D01*
X68098Y-49899D01*
X68099Y-49895D01*
X68100Y-49895D01*
X68100Y-49888D01*
X68099Y-49883D01*
X68098Y-49880D01*
X68095Y-49876D01*
X68090Y-49869D01*
X68084Y-49860D01*
X68077Y-49849D01*
X68068Y-49836D01*
X68059Y-49821D01*
X68048Y-49806D01*
X68037Y-49789D01*
X68024Y-49771D01*
X68012Y-49752D01*
X68003Y-49740D01*
X67988Y-49718D01*
X67974Y-49698D01*
X67963Y-49681D01*
X67952Y-49666D01*
X67943Y-49653D01*
X67936Y-49642D01*
X67929Y-49632D01*
X67924Y-49624D01*
X67920Y-49618D01*
X67917Y-49612D01*
X67914Y-49608D01*
X67912Y-49605D01*
X67911Y-49602D01*
X67910Y-49600D01*
X67909Y-49598D01*
X67909Y-49597D01*
X67909Y-49596D01*
X67908Y-49588D01*
X68029Y-49468D01*
X68048Y-49448D01*
X68066Y-49431D01*
X68081Y-49415D01*
X68095Y-49402D01*
X68107Y-49390D01*
X68117Y-49380D01*
X68126Y-49372D01*
X68133Y-49365D01*
X68139Y-49359D01*
X68144Y-49354D01*
X68149Y-49351D01*
X68152Y-49349D01*
X68155Y-49347D01*
X68157Y-49346D01*
X68159Y-49346D01*
X68160Y-49346D01*
X68162Y-49346D01*
X68163Y-49347D01*
X68164Y-49347D01*
X68166Y-49348D01*
X68170Y-49351D01*
X68177Y-49356D01*
X68186Y-49362D01*
X68197Y-49369D01*
X68209Y-49378D01*
X68224Y-49387D01*
X68239Y-49398D01*
X68256Y-49409D01*
X68273Y-49421D01*
X68292Y-49434D01*
X68305Y-49443D01*
X68324Y-49456D01*
X68343Y-49469D01*
X68360Y-49481D01*
X68376Y-49492D01*
X68391Y-49502D01*
X68405Y-49512D01*
X68417Y-49520D01*
X68427Y-49527D01*
X68436Y-49532D01*
X68442Y-49536D01*
X68445Y-49539D01*
X68446Y-49539D01*
X68448Y-49540D01*
X68450Y-49541D01*
X68452Y-49541D01*
X68455Y-49541D01*
X68458Y-49540D01*
X68463Y-49539D01*
X68468Y-49538D01*
X68475Y-49536D01*
X68483Y-49533D01*
X68493Y-49529D01*
X68504Y-49524D01*
X68518Y-49519D01*
X68535Y-49512D01*
X68554Y-49504D01*
X68575Y-49495D01*
X68578Y-49494D01*
X68596Y-49487D01*
X68614Y-49479D01*
X68631Y-49472D01*
X68646Y-49466D01*
X68659Y-49460D01*
X68671Y-49455D01*
X68681Y-49451D01*
X68689Y-49447D01*
X68694Y-49445D01*
X68697Y-49444D01*
X68697Y-49444D01*
X68700Y-49440D01*
X68702Y-49436D01*
X68703Y-49433D01*
X68704Y-49428D01*
X68705Y-49420D01*
X68707Y-49410D01*
X68710Y-49397D01*
X68713Y-49382D01*
X68716Y-49365D01*
X68719Y-49347D01*
X68723Y-49327D01*
X68727Y-49306D01*
X68731Y-49284D01*
X68735Y-49265D01*
X68740Y-49238D01*
X68744Y-49214D01*
X68748Y-49193D01*
X68752Y-49174D01*
X68755Y-49158D01*
X68758Y-49144D01*
X68760Y-49132D01*
X68762Y-49122D01*
X68764Y-49114D01*
X68765Y-49108D01*
X68767Y-49102D01*
X68768Y-49098D01*
X68769Y-49095D01*
X68771Y-49093D01*
X68772Y-49092D01*
X68773Y-49090D01*
X68774Y-49090D01*
X68776Y-49089D01*
X68776Y-49089D01*
X68777Y-49088D01*
X68780Y-49088D01*
X68784Y-49088D01*
X68790Y-49088D01*
X68797Y-49088D01*
X68807Y-49087D01*
X68819Y-49087D01*
X68833Y-49087D01*
X68850Y-49087D01*
X68869Y-49087D01*
X68891Y-49087D01*
X68915Y-49087D01*
X68943Y-49087D01*
X68949Y-49087D01*
X69118Y-49088D01*
X69123Y-49092D01*
X69123Y-49093D01*
X69124Y-49094D01*
X69125Y-49095D01*
X69126Y-49097D01*
X69126Y-49100D01*
X69127Y-49103D01*
X69128Y-49107D01*
X69130Y-49113D01*
X69131Y-49120D01*
X69133Y-49128D01*
X69135Y-49138D01*
X69137Y-49151D01*
X69140Y-49165D01*
X69143Y-49182D01*
X69147Y-49201D01*
X69151Y-49223D01*
X69156Y-49248D01*
X69159Y-49264D01*
X69163Y-49287D01*
X69167Y-49309D01*
X69171Y-49330D01*
X69175Y-49350D01*
X69178Y-49368D01*
X69181Y-49385D01*
X69184Y-49400D01*
X69186Y-49412D01*
X69188Y-49422D01*
X69190Y-49429D01*
X69191Y-49434D01*
X69191Y-49436D01*
X69194Y-49440D01*
X69197Y-49444D01*
X69199Y-49445D01*
X69204Y-49447D01*
X69211Y-49451D01*
X69221Y-49455D01*
X69232Y-49460D01*
X69245Y-49465D01*
X69260Y-49471D01*
X69275Y-49478D01*
X69291Y-49484D01*
X69308Y-49491D01*
X69324Y-49498D01*
X69341Y-49504D01*
X69357Y-49511D01*
X69372Y-49517D01*
X69387Y-49523D01*
X69400Y-49528D01*
X69412Y-49533D01*
X69421Y-49536D01*
X69429Y-49539D01*
X69434Y-49541D01*
X69436Y-49541D01*
X69441Y-49541D01*
X69446Y-49540D01*
X69447Y-49539D01*
X69452Y-49536D01*
X69458Y-49532D01*
X69467Y-49526D01*
X69478Y-49518D01*
X69490Y-49510D01*
X69505Y-49500D01*
X69520Y-49490D01*
X69537Y-49478D01*
X69555Y-49466D01*
X69573Y-49454D01*
X69587Y-49444D01*
X69606Y-49431D01*
X69625Y-49418D01*
X69642Y-49406D01*
X69659Y-49395D01*
X69674Y-49385D01*
X69688Y-49375D01*
X69700Y-49367D01*
X69710Y-49360D01*
X69718Y-49355D01*
X69724Y-49350D01*
X69728Y-49348D01*
X69729Y-49347D01*
X69731Y-49347D01*
X69733Y-49346D01*
X69734Y-49346D01*
X69736Y-49346D01*
X69738Y-49346D01*
X69740Y-49348D01*
X69743Y-49350D01*
X69747Y-49353D01*
X69752Y-49357D01*
X69758Y-49362D01*
X69764Y-49368D01*
X69772Y-49376D01*
X69782Y-49385D01*
X69793Y-49396D01*
X69806Y-49409D01*
X69821Y-49424D01*
X69837Y-49440D01*
X69856Y-49459D01*
X69865Y-49468D01*
X69985Y-49588D01*
X69984Y-49596D01*
X69984Y-49598D01*
X69984Y-49599D01*
X69983Y-49601D01*
X69982Y-49604D01*
X69980Y-49607D01*
X69978Y-49611D01*
X69975Y-49616D01*
X69971Y-49622D01*
X69966Y-49629D01*
X69960Y-49638D01*
X69953Y-49649D01*
X69944Y-49661D01*
X69934Y-49676D01*
X69923Y-49692D01*
X69910Y-49711D01*
X69896Y-49732D01*
X69890Y-49740D01*
X69877Y-49759D01*
X69865Y-49777D01*
X69853Y-49795D01*
X69842Y-49811D01*
X69839Y-49815D01*
X69839Y-49641D01*
X69839Y-49618D01*
X69837Y-49597D01*
X69831Y-49577D01*
X69824Y-49559D01*
X69813Y-49543D01*
X69808Y-49537D01*
X69795Y-49525D01*
X69781Y-49515D01*
X69764Y-49507D01*
X69746Y-49502D01*
X69725Y-49498D01*
X69702Y-49495D01*
X69677Y-49495D01*
X69660Y-49496D01*
X69650Y-49496D01*
X69639Y-49497D01*
X69630Y-49498D01*
X69622Y-49499D01*
X69619Y-49499D01*
X69605Y-49501D01*
X69605Y-49631D01*
X69605Y-49655D01*
X69605Y-49675D01*
X69605Y-49693D01*
X69605Y-49708D01*
X69605Y-49721D01*
X69605Y-49732D01*
X69605Y-49740D01*
X69606Y-49747D01*
X69606Y-49752D01*
X69606Y-49756D01*
X69606Y-49759D01*
X69607Y-49760D01*
X69607Y-49761D01*
X69608Y-49762D01*
X69608Y-49762D01*
X69611Y-49763D01*
X69616Y-49763D01*
X69623Y-49764D01*
X69630Y-49765D01*
X69637Y-49766D01*
X69642Y-49767D01*
X69650Y-49767D01*
X69660Y-49768D01*
X69671Y-49768D01*
X69683Y-49768D01*
X69695Y-49767D01*
X69706Y-49767D01*
X69715Y-49766D01*
X69723Y-49766D01*
X69725Y-49765D01*
X69747Y-49760D01*
X69767Y-49753D01*
X69785Y-49744D01*
X69800Y-49732D01*
X69813Y-49719D01*
X69823Y-49703D01*
X69831Y-49685D01*
X69836Y-49665D01*
X69839Y-49643D01*
X69839Y-49641D01*
X69839Y-49815D01*
X69831Y-49827D01*
X69822Y-49840D01*
X69814Y-49853D01*
X69807Y-49863D01*
X69801Y-49871D01*
X69797Y-49878D01*
X69795Y-49882D01*
X69794Y-49883D01*
X69793Y-49888D01*
X69793Y-49892D01*
X69793Y-49893D01*
X69794Y-49896D01*
X69796Y-49902D01*
X69800Y-49910D01*
X69804Y-49920D01*
X69809Y-49931D01*
X69814Y-49945D01*
X69821Y-49959D01*
X69827Y-49975D01*
X69834Y-49991D01*
X69841Y-50007D01*
X69849Y-50024D01*
X69856Y-50041D01*
X69863Y-50057D01*
X69869Y-50072D01*
X69876Y-50086D01*
X69881Y-50099D01*
X69887Y-50111D01*
X69891Y-50120D01*
X69894Y-50128D01*
X69897Y-50133D01*
X69898Y-50135D01*
X69898Y-50135D01*
X69905Y-50141D01*
X69914Y-50144D01*
X69916Y-50145D01*
X69922Y-50146D01*
X69931Y-50147D01*
X69942Y-50149D01*
X69955Y-50152D01*
X69970Y-50155D01*
X69986Y-50158D01*
X70004Y-50161D01*
X70022Y-50164D01*
X70041Y-50168D01*
X70061Y-50171D01*
X70081Y-50175D01*
X70100Y-50179D01*
X70119Y-50183D01*
X70138Y-50186D01*
X70156Y-50189D01*
X70172Y-50193D01*
X70188Y-50195D01*
X70201Y-50198D01*
X70213Y-50200D01*
X70222Y-50202D01*
X70229Y-50203D01*
X70233Y-50204D01*
X70234Y-50205D01*
X70237Y-50207D01*
X70240Y-50210D01*
X70241Y-50211D01*
X70241Y-50212D01*
X70242Y-50213D01*
X70242Y-50215D01*
X70243Y-50217D01*
X70243Y-50220D01*
X70243Y-50225D01*
X70243Y-50230D01*
X70243Y-50237D01*
X70243Y-50245D01*
X70244Y-50256D01*
X70244Y-50268D01*
X70244Y-50283D01*
X70244Y-50300D01*
X70244Y-50319D01*
X70244Y-50341D01*
X70244Y-50367D01*
X70244Y-50385D01*
X70244Y-50555D01*
X70244Y-50555D01*
X70244Y-50555D01*
G37*
G36*
X70115Y-50441D02*
X70113Y-50450D01*
X70109Y-50458D01*
X70104Y-50464D01*
X70099Y-50467D01*
X70094Y-50470D01*
X70088Y-50472D01*
X70081Y-50473D01*
X70071Y-50474D01*
X70059Y-50474D01*
X70052Y-50475D01*
X70022Y-50475D01*
X70022Y-50439D01*
X70022Y-50403D01*
X70052Y-50404D01*
X70065Y-50404D01*
X70076Y-50405D01*
X70085Y-50406D01*
X70092Y-50408D01*
X70097Y-50410D01*
X70102Y-50413D01*
X70105Y-50416D01*
X70111Y-50423D01*
X70114Y-50432D01*
X70115Y-50441D01*
X70115Y-50441D01*
X70115Y-50441D01*
G37*
G36*
X70104Y-50324D02*
X70104Y-50332D01*
X70102Y-50340D01*
X70097Y-50347D01*
X70096Y-50347D01*
X70092Y-50351D01*
X70086Y-50354D01*
X70079Y-50356D01*
X70071Y-50357D01*
X70059Y-50358D01*
X70048Y-50359D01*
X70022Y-50360D01*
X70022Y-50330D01*
X70022Y-50300D01*
X70030Y-50298D01*
X70041Y-50297D01*
X70053Y-50297D01*
X70065Y-50298D01*
X70076Y-50300D01*
X70086Y-50302D01*
X70092Y-50305D01*
X70098Y-50309D01*
X70102Y-50316D01*
X70104Y-50324D01*
X70104Y-50324D01*
X70104Y-50324D01*
G37*
G36*
X67859Y-50342D02*
X67858Y-50349D01*
X67856Y-50357D01*
X67852Y-50364D01*
X67847Y-50369D01*
X67839Y-50374D01*
X67830Y-50377D01*
X67818Y-50379D01*
X67803Y-50380D01*
X67798Y-50380D01*
X67775Y-50381D01*
X67775Y-50342D01*
X67775Y-50329D01*
X67775Y-50320D01*
X67775Y-50313D01*
X67776Y-50308D01*
X67776Y-50305D01*
X67777Y-50303D01*
X67777Y-50302D01*
X67778Y-50302D01*
X67781Y-50301D01*
X67787Y-50301D01*
X67794Y-50301D01*
X67802Y-50301D01*
X67811Y-50301D01*
X67818Y-50302D01*
X67824Y-50302D01*
X67825Y-50302D01*
X67831Y-50304D01*
X67838Y-50306D01*
X67840Y-50307D01*
X67849Y-50313D01*
X67855Y-50321D01*
X67858Y-50331D01*
X67859Y-50342D01*
X67859Y-50342D01*
X67859Y-50342D01*
G37*
G36*
X69778Y-49632D02*
X69777Y-49650D01*
X69773Y-49666D01*
X69767Y-49680D01*
X69759Y-49692D01*
X69748Y-49702D01*
X69735Y-49710D01*
X69724Y-49714D01*
X69719Y-49715D01*
X69710Y-49716D01*
X69699Y-49717D01*
X69691Y-49717D01*
X69665Y-49718D01*
X69665Y-49632D01*
X69665Y-49547D01*
X69670Y-49546D01*
X69677Y-49545D01*
X69687Y-49545D01*
X69697Y-49545D01*
X69708Y-49546D01*
X69715Y-49547D01*
X69731Y-49551D01*
X69745Y-49557D01*
X69756Y-49566D01*
X69765Y-49576D01*
X69771Y-49589D01*
X69776Y-49604D01*
X69778Y-49622D01*
X69778Y-49632D01*
X69778Y-49632D01*
X69778Y-49632D01*
G37*
G54D12*
X65386Y-43735D02*
G75*
G03X65386Y-43735I-59J0D01*
G74*
G01*
X65603Y-43932D02*
X65996Y-43932D01*
X65603Y-45467D02*
X65996Y-45467D01*
X58744Y-58745D02*
G75*
G03X58744Y-58745I-59J0D01*
G74*
G01*
X59000Y-58910D02*
X59000Y-59290D01*
X58744Y-58195D02*
G75*
G03X58744Y-58195I-59J0D01*
G74*
G01*
X59000Y-58360D02*
X59000Y-58740D01*
X64530Y-41950D02*
X63970Y-41950D01*
X66850Y-41120D02*
X66850Y-41680D01*
X76789Y-44072D02*
G75*
G03X76789Y-44072I-62J0D01*
G74*
G01*
X75396Y-55356D02*
X75003Y-55356D01*
X75396Y-56143D02*
X75003Y-56143D01*
X64272Y-43507D02*
X64272Y-43192D01*
X63327Y-43527D02*
X63327Y-43192D01*
X63307Y-43704D02*
G75*
G03X63307Y-43704I-78J0D01*
G74*
G01*
X79329Y-42683D02*
X79566Y-42683D01*
X79566Y-42683D02*
X79566Y-42920D01*
X77833Y-42920D02*
X77833Y-42683D01*
X77833Y-42683D02*
X78070Y-42683D01*
X78070Y-44416D02*
X77833Y-44416D01*
X77833Y-44416D02*
X77833Y-44179D01*
X79585Y-44364D02*
G75*
G03X79585Y-44364I-70J0D01*
G74*
G01*
G54D10*
X79703Y-44553D02*
X79310Y-44553D01*
X79310Y-44553D02*
X79310Y-44160D01*
X79310Y-44160D02*
X79703Y-44160D01*
X79703Y-44160D02*
X79703Y-44553D01*
G54D12*
X76731Y-46980D02*
G75*
G03X76731Y-46980I-62J0D01*
G74*
G01*
X78716Y-48240D02*
X76983Y-48240D01*
X76983Y-47059D02*
X78716Y-47059D01*
X80455Y-49220D02*
X80455Y-50479D01*
X82344Y-49220D02*
X82344Y-50479D01*
X82522Y-48787D02*
G75*
G03X82522Y-48787I-59J0D01*
G74*
G01*
X64778Y-48518D02*
G75*
G03X64778Y-48518I-59J0D01*
G74*
G01*
X63459Y-48892D02*
X63459Y-49207D01*
X64640Y-48892D02*
X64640Y-49207D01*
X64689Y-42681D02*
G75*
G03X64689Y-42681I-59J0D01*
G74*
G01*
X65890Y-42307D02*
X65890Y-41992D01*
X64709Y-42307D02*
X64709Y-41992D01*
X59248Y-47807D02*
X58854Y-47807D01*
X58854Y-47807D02*
X58854Y-48004D01*
X59248Y-48792D02*
X58854Y-48792D01*
X58854Y-48792D02*
X58854Y-48595D01*
X77150Y-44350D02*
X76950Y-44350D01*
X82850Y-43500D02*
X83050Y-43500D01*
X81400Y-43500D02*
X81600Y-43500D01*
X77150Y-43700D02*
X77150Y-43500D01*
X83500Y-43000D02*
X83300Y-43000D01*
X82200Y-43900D02*
X82200Y-43700D01*
X60121Y-48896D02*
X60278Y-48896D01*
X60121Y-48503D02*
X60278Y-48503D01*
X79250Y-51740D02*
X79250Y-52060D01*
X73343Y-52254D02*
G75*
G03X73343Y-52254I-55J0D01*
G74*
G01*
X64050Y-47650D02*
X64050Y-47850D01*
X82250Y-51850D02*
X82050Y-51850D01*
X63771Y-45277D02*
X63771Y-46222D01*
X63928Y-45277D02*
X63928Y-46222D01*
X83160Y-57050D02*
X82840Y-57050D01*
X85160Y-57050D02*
X84840Y-57050D01*
X82160Y-57050D02*
X81840Y-57050D01*
X81160Y-57050D02*
X80840Y-57050D01*
X80160Y-57050D02*
X79840Y-57050D01*
X78710Y-55950D02*
X78390Y-55950D01*
X84160Y-57050D02*
X83840Y-57050D01*
X77490Y-45250D02*
X77810Y-45250D01*
X79490Y-45250D02*
X79810Y-45250D01*
X75110Y-54550D02*
X74790Y-54550D01*
X79550Y-50640D02*
X79550Y-50960D01*
X75790Y-49250D02*
X76110Y-49250D01*
X66950Y-42210D02*
X66950Y-41890D01*
X61210Y-57550D02*
X60890Y-57550D01*
X57960Y-42074D02*
G75*
G03X57960Y-42074I-88J0D01*
G74*
G01*
X57618Y-42231D02*
X57618Y-39868D01*
X57618Y-39868D02*
X59981Y-39868D01*
X59981Y-39868D02*
X59981Y-42231D01*
X59981Y-42231D02*
X57618Y-42231D01*
X80250Y-42850D02*
X80250Y-42650D01*
X80800Y-43900D02*
X80800Y-43700D01*
X78900Y-46550D02*
X79100Y-46550D01*
X65750Y-52900D02*
X65750Y-52700D01*
X64800Y-49350D02*
X65000Y-49350D01*
X78100Y-45150D02*
X78300Y-45150D01*
X72000Y-54700D02*
X72000Y-54900D01*
X74050Y-55650D02*
X74250Y-55650D01*
X76150Y-55650D02*
X76350Y-55650D01*
X73300Y-50350D02*
X73300Y-50550D01*
X73600Y-48750D02*
X73600Y-48550D01*
X72950Y-53550D02*
X72950Y-53350D01*
X73800Y-53600D02*
X73600Y-53600D01*
X72950Y-54000D02*
X72950Y-53800D01*
X75600Y-54450D02*
X75400Y-54450D01*
X79150Y-51250D02*
X79150Y-51450D01*
X76400Y-49350D02*
X76600Y-49350D01*
X72950Y-54450D02*
X72950Y-54250D01*
X70200Y-42200D02*
X70200Y-42400D01*
X68650Y-44550D02*
X68450Y-44550D01*
X79000Y-45150D02*
X79200Y-45150D01*
X63750Y-41550D02*
X63550Y-41550D01*
X79350Y-42350D02*
X79350Y-42150D01*
X76550Y-54500D02*
X76350Y-54500D01*
X84696Y-56928D02*
X84696Y-56771D01*
X84303Y-56928D02*
X84303Y-56771D01*
X83696Y-56928D02*
X83696Y-56771D01*
X83303Y-56928D02*
X83303Y-56771D01*
X82696Y-56928D02*
X82696Y-56771D01*
X82303Y-56928D02*
X82303Y-56771D01*
X80696Y-56928D02*
X80696Y-56771D01*
X80303Y-56928D02*
X80303Y-56771D01*
X79696Y-56928D02*
X79696Y-56771D01*
X79303Y-56928D02*
X79303Y-56771D01*
X78196Y-57078D02*
X78196Y-56921D01*
X77803Y-57078D02*
X77803Y-56921D01*
X78253Y-56921D02*
X78253Y-57078D01*
X78646Y-56921D02*
X78646Y-57078D01*
X81346Y-48028D02*
X81346Y-47871D01*
X80953Y-48028D02*
X80953Y-47871D01*
X78453Y-44971D02*
X78453Y-45128D01*
X78846Y-44971D02*
X78846Y-45128D01*
X60078Y-58903D02*
X59921Y-58903D01*
X60078Y-59296D02*
X59921Y-59296D01*
X63396Y-41528D02*
X63396Y-41371D01*
X63003Y-41528D02*
X63003Y-41371D01*
X60078Y-58353D02*
X59921Y-58353D01*
X60078Y-58746D02*
X59921Y-58746D01*
X72078Y-55053D02*
X71921Y-55053D01*
X72078Y-55446D02*
X71921Y-55446D01*
X63771Y-50346D02*
X63928Y-50346D01*
X63771Y-49953D02*
X63928Y-49953D01*
X72928Y-52803D02*
X72771Y-52803D01*
X72928Y-53196D02*
X72771Y-53196D01*
X63928Y-50403D02*
X63771Y-50403D01*
X63928Y-50796D02*
X63771Y-50796D01*
X80900Y-43050D02*
X81100Y-43050D01*
X73950Y-54250D02*
X73950Y-54450D01*
X63771Y-46477D02*
X63771Y-47422D01*
X63928Y-46477D02*
X63928Y-47422D01*
X66028Y-46622D02*
X66028Y-45677D01*
X65871Y-46622D02*
X65871Y-45677D01*
X79500Y-59500D02*
X79500Y-58500D01*
X79500Y-58500D02*
X85500Y-58500D01*
X85500Y-58500D02*
X85500Y-59500D01*
X85500Y-59500D02*
X79500Y-59500D01*
X80500Y-59500D02*
X80500Y-58500D01*
X85500Y-40500D02*
X77500Y-40500D01*
X77500Y-40500D02*
X77500Y-39500D01*
X77500Y-39500D02*
X85500Y-39500D01*
X85500Y-39500D02*
X85500Y-40500D01*
X84500Y-39500D02*
X84500Y-40500D01*
X76900Y-39500D02*
X76900Y-40500D01*
X76900Y-40500D02*
X66900Y-40500D01*
X66900Y-40500D02*
X66900Y-39500D01*
X66900Y-39500D02*
X76900Y-39500D01*
X75900Y-39500D02*
X75900Y-40500D01*
X70500Y-58500D02*
X78500Y-58500D01*
X78500Y-58500D02*
X78500Y-59500D01*
X78500Y-59500D02*
X70500Y-59500D01*
X70500Y-59500D02*
X70500Y-58500D01*
X71500Y-59500D02*
X71500Y-58500D01*
X78196Y-56178D02*
X78196Y-56021D01*
X77803Y-56178D02*
X77803Y-56021D01*
X67912Y-43837D02*
X68148Y-43837D01*
X67912Y-43837D02*
X67912Y-43601D01*
X67912Y-42262D02*
X67912Y-42498D01*
X67912Y-42262D02*
X68148Y-42262D01*
X69487Y-42262D02*
X69251Y-42262D01*
X69487Y-42262D02*
X69487Y-42498D01*
X69487Y-43837D02*
X69251Y-43837D01*
X69487Y-43837D02*
X69487Y-43601D01*
X69408Y-42400D02*
G75*
G03X69408Y-42400I-59J0D01*
G74*
G01*
X57565Y-56570D02*
X57565Y-52829D01*
X62368Y-56570D02*
X62998Y-56570D01*
X62998Y-56570D02*
X62998Y-56018D01*
X62368Y-52829D02*
X62998Y-52829D01*
X62998Y-52829D02*
X62998Y-53381D01*
X57860Y-56983D02*
G75*
G03X57860Y-56983I-59J0D01*
G74*
G01*
X57565Y-56570D02*
X57565Y-52829D01*
X65153Y-48671D02*
X65153Y-48828D01*
X65546Y-48671D02*
X65546Y-48828D01*
X78804Y-53376D02*
G75*
G03X78804Y-53376I-59J0D01*
G74*
G01*
X60000Y-47470D02*
X57500Y-47470D01*
X60000Y-45529D02*
X57500Y-45529D01*
X57500Y-45529D02*
X57500Y-47470D01*
X60000Y-45529D02*
X60000Y-47470D01*
X57500Y-43379D02*
X60000Y-43379D01*
X57500Y-45320D02*
X60000Y-45320D01*
X60000Y-45320D02*
X60000Y-43379D01*
X57500Y-45320D02*
X57500Y-43379D01*
X79860Y-44100D02*
X80240Y-44100D01*
X74257Y-49392D02*
X74257Y-49707D01*
X72642Y-49392D02*
X72642Y-49707D01*
X73607Y-48880D02*
X73292Y-48880D01*
X73607Y-50219D02*
X73292Y-50219D01*
X74434Y-49077D02*
G75*
G03X74434Y-49077I-59J0D01*
G74*
G01*
X62378Y-43903D02*
X62221Y-43903D01*
X62378Y-44296D02*
X62221Y-44296D01*
X60539Y-44431D02*
G75*
G03X60539Y-44431I-59J0D01*
G74*
G01*
X61740Y-44057D02*
X61740Y-43742D01*
X60559Y-44057D02*
X60559Y-43742D01*
X62098Y-45507D02*
X61704Y-45507D01*
X61704Y-45507D02*
X61704Y-45704D01*
X62098Y-46492D02*
X61704Y-46492D01*
X61704Y-46492D02*
X61704Y-46295D01*
X62401Y-43642D02*
X62795Y-43642D01*
X62795Y-43642D02*
X62795Y-43445D01*
X62401Y-42657D02*
X62795Y-42657D01*
X62795Y-42657D02*
X62795Y-42854D01*
X59550Y-57150D02*
X59550Y-57350D01*
X85115Y-44662D02*
X85115Y-44412D01*
X85210Y-44412D01*
X85234Y-44424D01*
X85246Y-44436D01*
X85258Y-44459D01*
X85258Y-44495D01*
X85246Y-44519D01*
X85234Y-44531D01*
X85210Y-44543D01*
X85115Y-44543D01*
X85496Y-44662D02*
X85353Y-44662D01*
X85425Y-44662D02*
X85425Y-44412D01*
X85401Y-44447D01*
X85377Y-44471D01*
X85353Y-44483D01*
X83096Y-46101D02*
X83096Y-45851D01*
X83191Y-45851D01*
X83215Y-45863D01*
X83227Y-45875D01*
X83239Y-45898D01*
X83239Y-45934D01*
X83227Y-45958D01*
X83215Y-45970D01*
X83191Y-45982D01*
X83096Y-45982D01*
X83477Y-46101D02*
X83334Y-46101D01*
X83405Y-46101D02*
X83405Y-45851D01*
X83382Y-45886D01*
X83358Y-45910D01*
X83334Y-45922D01*
X83691Y-45934D02*
X83691Y-46101D01*
X83632Y-45839D02*
X83572Y-46017D01*
X83727Y-46017D01*
X65496Y-58301D02*
X65496Y-58051D01*
X65591Y-58051D01*
X65615Y-58063D01*
X65627Y-58075D01*
X65639Y-58098D01*
X65639Y-58134D01*
X65627Y-58158D01*
X65615Y-58170D01*
X65591Y-58182D01*
X65496Y-58182D01*
X65877Y-58301D02*
X65734Y-58301D01*
X65805Y-58301D02*
X65805Y-58051D01*
X65782Y-58086D01*
X65758Y-58110D01*
X65734Y-58122D01*
X66115Y-58301D02*
X65972Y-58301D01*
X66044Y-58301D02*
X66044Y-58051D01*
X66020Y-58086D01*
X65996Y-58110D01*
X65972Y-58122D01*
X61146Y-39683D02*
X61146Y-39433D01*
X61241Y-39433D01*
X61265Y-39445D01*
X61277Y-39457D01*
X61289Y-39481D01*
X61289Y-39517D01*
X61277Y-39541D01*
X61265Y-39552D01*
X61241Y-39564D01*
X61146Y-39564D01*
X61527Y-39683D02*
X61384Y-39683D01*
X61455Y-39683D02*
X61455Y-39433D01*
X61432Y-39469D01*
X61408Y-39493D01*
X61384Y-39505D01*
X61622Y-39457D02*
X61634Y-39445D01*
X61658Y-39433D01*
X61717Y-39433D01*
X61741Y-39445D01*
X61753Y-39457D01*
X61765Y-39481D01*
X61765Y-39505D01*
X61753Y-39541D01*
X61610Y-39683D01*
X61765Y-39683D01*
X84696Y-53683D02*
X84696Y-53433D01*
X84791Y-53433D01*
X84815Y-53445D01*
X84827Y-53457D01*
X84839Y-53481D01*
X84839Y-53517D01*
X84827Y-53541D01*
X84815Y-53552D01*
X84791Y-53564D01*
X84696Y-53564D01*
X85077Y-53683D02*
X84934Y-53683D01*
X85005Y-53683D02*
X85005Y-53433D01*
X84982Y-53469D01*
X84958Y-53493D01*
X84934Y-53505D01*
X85160Y-53433D02*
X85315Y-53433D01*
X85232Y-53529D01*
X85267Y-53529D01*
X85291Y-53541D01*
X85303Y-53552D01*
X85315Y-53576D01*
X85315Y-53636D01*
X85303Y-53660D01*
X85291Y-53671D01*
X85267Y-53683D01*
X85196Y-53683D01*
X85172Y-53671D01*
X85160Y-53660D01*
X65639Y-43801D02*
X65520Y-43801D01*
X65520Y-43551D01*
X65853Y-43801D02*
X65710Y-43801D01*
X65782Y-43801D02*
X65782Y-43551D01*
X65758Y-43586D01*
X65734Y-43610D01*
X65710Y-43622D01*
X66067Y-43551D02*
X66020Y-43551D01*
X65996Y-43563D01*
X65984Y-43575D01*
X65960Y-43610D01*
X65948Y-43658D01*
X65948Y-43753D01*
X65960Y-43777D01*
X65972Y-43789D01*
X65996Y-43801D01*
X66044Y-43801D01*
X66067Y-43789D01*
X66079Y-43777D01*
X66091Y-43753D01*
X66091Y-43694D01*
X66079Y-43670D01*
X66067Y-43658D01*
X66044Y-43646D01*
X65996Y-43646D01*
X65972Y-43658D01*
X65960Y-43670D01*
X65948Y-43694D01*
X59115Y-59651D02*
X59115Y-59401D01*
X59175Y-59401D01*
X59210Y-59413D01*
X59234Y-59436D01*
X59246Y-59460D01*
X59258Y-59508D01*
X59258Y-59544D01*
X59246Y-59591D01*
X59234Y-59615D01*
X59210Y-59639D01*
X59175Y-59651D01*
X59115Y-59651D01*
X59496Y-59651D02*
X59353Y-59651D01*
X59425Y-59651D02*
X59425Y-59401D01*
X59401Y-59436D01*
X59377Y-59460D01*
X59353Y-59472D01*
X59115Y-58251D02*
X59115Y-58001D01*
X59175Y-58001D01*
X59210Y-58013D01*
X59234Y-58036D01*
X59246Y-58060D01*
X59258Y-58108D01*
X59258Y-58144D01*
X59246Y-58191D01*
X59234Y-58215D01*
X59210Y-58239D01*
X59175Y-58251D01*
X59115Y-58251D01*
X59353Y-58025D02*
X59365Y-58013D01*
X59389Y-58001D01*
X59448Y-58001D01*
X59472Y-58013D01*
X59484Y-58025D01*
X59496Y-58048D01*
X59496Y-58072D01*
X59484Y-58108D01*
X59341Y-58251D01*
X59496Y-58251D01*
X63497Y-42351D02*
X63664Y-42351D01*
X63497Y-42601D01*
X63664Y-42601D01*
X63890Y-42601D02*
X63747Y-42601D01*
X63819Y-42601D02*
X63819Y-42351D01*
X63795Y-42386D01*
X63771Y-42410D01*
X63747Y-42422D01*
X67097Y-40751D02*
X67264Y-40751D01*
X67097Y-41001D01*
X67264Y-41001D01*
X67347Y-40775D02*
X67359Y-40763D01*
X67383Y-40751D01*
X67442Y-40751D01*
X67466Y-40763D01*
X67478Y-40775D01*
X67490Y-40798D01*
X67490Y-40822D01*
X67478Y-40858D01*
X67335Y-41001D01*
X67490Y-41001D01*
X75709Y-44401D02*
X75709Y-44603D01*
X75721Y-44627D01*
X75733Y-44639D01*
X75757Y-44651D01*
X75804Y-44651D01*
X75828Y-44639D01*
X75840Y-44627D01*
X75852Y-44603D01*
X75852Y-44401D01*
X76090Y-44401D02*
X75971Y-44401D01*
X75959Y-44520D01*
X75971Y-44508D01*
X75995Y-44496D01*
X76054Y-44496D01*
X76078Y-44508D01*
X76090Y-44520D01*
X76102Y-44544D01*
X76102Y-44603D01*
X76090Y-44627D01*
X76078Y-44639D01*
X76054Y-44651D01*
X75995Y-44651D01*
X75971Y-44639D01*
X75959Y-44627D01*
X74997Y-56251D02*
X75164Y-56501D01*
X75164Y-56251D02*
X74997Y-56501D01*
X75390Y-56501D02*
X75247Y-56501D01*
X75319Y-56501D02*
X75319Y-56251D01*
X75295Y-56286D01*
X75271Y-56310D01*
X75247Y-56322D01*
X64301Y-44259D02*
X64503Y-44259D01*
X64527Y-44247D01*
X64539Y-44235D01*
X64551Y-44211D01*
X64551Y-44164D01*
X64539Y-44140D01*
X64527Y-44128D01*
X64503Y-44116D01*
X64301Y-44116D01*
X64551Y-43866D02*
X64551Y-44009D01*
X64551Y-43938D02*
X64301Y-43938D01*
X64336Y-43961D01*
X64360Y-43985D01*
X64372Y-44009D01*
X64325Y-43771D02*
X64313Y-43759D01*
X64301Y-43735D01*
X64301Y-43676D01*
X64313Y-43652D01*
X64325Y-43640D01*
X64348Y-43628D01*
X64372Y-43628D01*
X64408Y-43640D01*
X64551Y-43783D01*
X64551Y-43628D01*
X77659Y-42151D02*
X77659Y-42353D01*
X77671Y-42377D01*
X77683Y-42389D01*
X77707Y-42401D01*
X77754Y-42401D01*
X77778Y-42389D01*
X77790Y-42377D01*
X77802Y-42353D01*
X77802Y-42151D01*
X78028Y-42234D02*
X78028Y-42401D01*
X77969Y-42139D02*
X77909Y-42317D01*
X78064Y-42317D01*
X77659Y-48301D02*
X77659Y-48503D01*
X77671Y-48527D01*
X77683Y-48539D01*
X77707Y-48551D01*
X77754Y-48551D01*
X77778Y-48539D01*
X77790Y-48527D01*
X77802Y-48503D01*
X77802Y-48301D01*
X77957Y-48408D02*
X77933Y-48396D01*
X77921Y-48384D01*
X77909Y-48360D01*
X77909Y-48348D01*
X77921Y-48325D01*
X77933Y-48313D01*
X77957Y-48301D01*
X78004Y-48301D01*
X78028Y-48313D01*
X78040Y-48325D01*
X78052Y-48348D01*
X78052Y-48360D01*
X78040Y-48384D01*
X78028Y-48396D01*
X78004Y-48408D01*
X77957Y-48408D01*
X77933Y-48420D01*
X77921Y-48432D01*
X77909Y-48455D01*
X77909Y-48503D01*
X77921Y-48527D01*
X77933Y-48539D01*
X77957Y-48551D01*
X78004Y-48551D01*
X78028Y-48539D01*
X78040Y-48527D01*
X78052Y-48503D01*
X78052Y-48455D01*
X78040Y-48432D01*
X78028Y-48420D01*
X78004Y-48408D01*
X82412Y-50020D02*
X82614Y-50020D01*
X82638Y-50008D01*
X82650Y-49996D01*
X82662Y-49973D01*
X82662Y-49925D01*
X82650Y-49901D01*
X82638Y-49889D01*
X82614Y-49877D01*
X82412Y-49877D01*
X82662Y-49746D02*
X82662Y-49699D01*
X82650Y-49675D01*
X82638Y-49663D01*
X82603Y-49639D01*
X82555Y-49627D01*
X82460Y-49627D01*
X82436Y-49639D01*
X82424Y-49651D01*
X82412Y-49675D01*
X82412Y-49723D01*
X82424Y-49746D01*
X82436Y-49758D01*
X82460Y-49770D01*
X82519Y-49770D01*
X82543Y-49758D01*
X82555Y-49746D01*
X82567Y-49723D01*
X82567Y-49675D01*
X82555Y-49651D01*
X82543Y-49639D01*
X82519Y-49627D01*
X64701Y-48390D02*
X64903Y-48390D01*
X64927Y-48378D01*
X64939Y-48366D01*
X64951Y-48342D01*
X64951Y-48295D01*
X64939Y-48271D01*
X64927Y-48259D01*
X64903Y-48247D01*
X64701Y-48247D01*
X64701Y-48152D02*
X64701Y-47997D01*
X64796Y-48080D01*
X64796Y-48045D01*
X64808Y-48021D01*
X64820Y-48009D01*
X64844Y-47997D01*
X64903Y-47997D01*
X64927Y-48009D01*
X64939Y-48021D01*
X64951Y-48045D01*
X64951Y-48116D01*
X64939Y-48140D01*
X64927Y-48152D01*
X65951Y-42459D02*
X66153Y-42459D01*
X66177Y-42447D01*
X66189Y-42435D01*
X66201Y-42411D01*
X66201Y-42364D01*
X66189Y-42340D01*
X66177Y-42328D01*
X66153Y-42316D01*
X65951Y-42316D01*
X66201Y-42066D02*
X66201Y-42209D01*
X66201Y-42138D02*
X65951Y-42138D01*
X65986Y-42161D01*
X66010Y-42185D01*
X66022Y-42209D01*
X65951Y-41911D02*
X65951Y-41888D01*
X65963Y-41864D01*
X65975Y-41852D01*
X65998Y-41840D01*
X66046Y-41828D01*
X66105Y-41828D01*
X66153Y-41840D01*
X66177Y-41852D01*
X66189Y-41864D01*
X66201Y-41888D01*
X66201Y-41911D01*
X66189Y-41935D01*
X66177Y-41947D01*
X66153Y-41959D01*
X66105Y-41971D01*
X66046Y-41971D01*
X65998Y-41959D01*
X65975Y-41947D01*
X65963Y-41935D01*
X65951Y-41911D01*
X58726Y-49275D02*
X58702Y-49263D01*
X58678Y-49239D01*
X58642Y-49203D01*
X58619Y-49191D01*
X58595Y-49191D01*
X58607Y-49251D02*
X58583Y-49239D01*
X58559Y-49215D01*
X58547Y-49167D01*
X58547Y-49084D01*
X58559Y-49036D01*
X58583Y-49013D01*
X58607Y-49001D01*
X58654Y-49001D01*
X58678Y-49013D01*
X58702Y-49036D01*
X58714Y-49084D01*
X58714Y-49167D01*
X58702Y-49215D01*
X58678Y-49239D01*
X58654Y-49251D01*
X58607Y-49251D01*
X58952Y-49251D02*
X58809Y-49251D01*
X58880Y-49251D02*
X58880Y-49001D01*
X58857Y-49036D01*
X58833Y-49060D01*
X58809Y-49072D01*
X76727Y-44910D02*
X76739Y-44922D01*
X76751Y-44958D01*
X76751Y-44982D01*
X76739Y-45017D01*
X76715Y-45041D01*
X76691Y-45053D01*
X76644Y-45065D01*
X76608Y-45065D01*
X76560Y-45053D01*
X76536Y-45041D01*
X76513Y-45017D01*
X76501Y-44982D01*
X76501Y-44958D01*
X76513Y-44922D01*
X76525Y-44910D01*
X76525Y-44815D02*
X76513Y-44803D01*
X76501Y-44779D01*
X76501Y-44720D01*
X76513Y-44696D01*
X76525Y-44684D01*
X76548Y-44672D01*
X76572Y-44672D01*
X76608Y-44684D01*
X76751Y-44827D01*
X76751Y-44672D01*
X76501Y-44446D02*
X76501Y-44565D01*
X76620Y-44577D01*
X76608Y-44565D01*
X76596Y-44541D01*
X76596Y-44482D01*
X76608Y-44458D01*
X76620Y-44446D01*
X76644Y-44434D01*
X76703Y-44434D01*
X76727Y-44446D01*
X76739Y-44458D01*
X76751Y-44482D01*
X76751Y-44541D01*
X76739Y-44565D01*
X76727Y-44577D01*
X83027Y-42810D02*
X83039Y-42822D01*
X83051Y-42858D01*
X83051Y-42882D01*
X83039Y-42917D01*
X83015Y-42941D01*
X82991Y-42953D01*
X82944Y-42965D01*
X82908Y-42965D01*
X82860Y-42953D01*
X82836Y-42941D01*
X82813Y-42917D01*
X82801Y-42882D01*
X82801Y-42858D01*
X82813Y-42822D01*
X82825Y-42810D01*
X83051Y-42572D02*
X83051Y-42715D01*
X83051Y-42644D02*
X82801Y-42644D01*
X82836Y-42667D01*
X82860Y-42691D01*
X82872Y-42715D01*
X82908Y-42429D02*
X82896Y-42453D01*
X82884Y-42465D01*
X82860Y-42477D01*
X82848Y-42477D01*
X82825Y-42465D01*
X82813Y-42453D01*
X82801Y-42429D01*
X82801Y-42382D01*
X82813Y-42358D01*
X82825Y-42346D01*
X82848Y-42334D01*
X82860Y-42334D01*
X82884Y-42346D01*
X82896Y-42358D01*
X82908Y-42382D01*
X82908Y-42429D01*
X82920Y-42453D01*
X82932Y-42465D01*
X82955Y-42477D01*
X83003Y-42477D01*
X83027Y-42465D01*
X83039Y-42453D01*
X83051Y-42429D01*
X83051Y-42382D01*
X83039Y-42358D01*
X83027Y-42346D01*
X83003Y-42334D01*
X82955Y-42334D01*
X82932Y-42346D01*
X82920Y-42358D01*
X82908Y-42382D01*
X81577Y-42760D02*
X81589Y-42772D01*
X81601Y-42808D01*
X81601Y-42832D01*
X81589Y-42867D01*
X81565Y-42891D01*
X81541Y-42903D01*
X81494Y-42915D01*
X81458Y-42915D01*
X81410Y-42903D01*
X81386Y-42891D01*
X81363Y-42867D01*
X81351Y-42832D01*
X81351Y-42808D01*
X81363Y-42772D01*
X81375Y-42760D01*
X81375Y-42665D02*
X81363Y-42653D01*
X81351Y-42629D01*
X81351Y-42570D01*
X81363Y-42546D01*
X81375Y-42534D01*
X81398Y-42522D01*
X81422Y-42522D01*
X81458Y-42534D01*
X81601Y-42677D01*
X81601Y-42522D01*
X81351Y-42367D02*
X81351Y-42344D01*
X81363Y-42320D01*
X81375Y-42308D01*
X81398Y-42296D01*
X81446Y-42284D01*
X81505Y-42284D01*
X81553Y-42296D01*
X81577Y-42308D01*
X81589Y-42320D01*
X81601Y-42344D01*
X81601Y-42367D01*
X81589Y-42391D01*
X81577Y-42403D01*
X81553Y-42415D01*
X81505Y-42427D01*
X81446Y-42427D01*
X81398Y-42415D01*
X81375Y-42403D01*
X81363Y-42391D01*
X81351Y-42367D01*
X77108Y-43301D02*
X76989Y-43301D01*
X76989Y-43051D01*
X77298Y-43134D02*
X77298Y-43301D01*
X77239Y-43039D02*
X77179Y-43217D01*
X77334Y-43217D01*
X83501Y-43791D02*
X83501Y-43910D01*
X83251Y-43910D01*
X83275Y-43720D02*
X83263Y-43708D01*
X83251Y-43684D01*
X83251Y-43625D01*
X83263Y-43601D01*
X83275Y-43589D01*
X83298Y-43577D01*
X83322Y-43577D01*
X83358Y-43589D01*
X83501Y-43732D01*
X83501Y-43577D01*
X82158Y-44351D02*
X82039Y-44351D01*
X82039Y-44101D01*
X82217Y-44101D02*
X82372Y-44101D01*
X82289Y-44196D01*
X82325Y-44196D01*
X82348Y-44208D01*
X82360Y-44220D01*
X82372Y-44244D01*
X82372Y-44303D01*
X82360Y-44327D01*
X82348Y-44339D01*
X82325Y-44351D01*
X82253Y-44351D01*
X82229Y-44339D01*
X82217Y-44327D01*
X60789Y-48801D02*
X60705Y-48682D01*
X60646Y-48801D02*
X60646Y-48551D01*
X60741Y-48551D01*
X60765Y-48563D01*
X60777Y-48575D01*
X60789Y-48598D01*
X60789Y-48634D01*
X60777Y-48658D01*
X60765Y-48670D01*
X60741Y-48682D01*
X60646Y-48682D01*
X61027Y-48801D02*
X60884Y-48801D01*
X60955Y-48801D02*
X60955Y-48551D01*
X60932Y-48586D01*
X60908Y-48610D01*
X60884Y-48622D01*
X61265Y-48801D02*
X61122Y-48801D01*
X61194Y-48801D02*
X61194Y-48551D01*
X61170Y-48586D01*
X61146Y-48610D01*
X61122Y-48622D01*
X79089Y-52477D02*
X79077Y-52489D01*
X79041Y-52501D01*
X79017Y-52501D01*
X78982Y-52489D01*
X78958Y-52465D01*
X78946Y-52441D01*
X78934Y-52394D01*
X78934Y-52358D01*
X78946Y-52310D01*
X78958Y-52286D01*
X78982Y-52263D01*
X79017Y-52251D01*
X79041Y-52251D01*
X79077Y-52263D01*
X79089Y-52275D01*
X79303Y-52334D02*
X79303Y-52501D01*
X79244Y-52239D02*
X79184Y-52417D01*
X79339Y-52417D01*
X79553Y-52251D02*
X79434Y-52251D01*
X79422Y-52370D01*
X79434Y-52358D01*
X79458Y-52346D01*
X79517Y-52346D01*
X79541Y-52358D01*
X79553Y-52370D01*
X79565Y-52394D01*
X79565Y-52453D01*
X79553Y-52477D01*
X79541Y-52489D01*
X79517Y-52501D01*
X79458Y-52501D01*
X79434Y-52489D01*
X79422Y-52477D01*
X72942Y-52209D02*
X73144Y-52209D01*
X73168Y-52197D01*
X73180Y-52185D01*
X73192Y-52161D01*
X73192Y-52114D01*
X73180Y-52090D01*
X73168Y-52078D01*
X73144Y-52066D01*
X72942Y-52066D01*
X73192Y-51816D02*
X73192Y-51959D01*
X73192Y-51888D02*
X72942Y-51888D01*
X72978Y-51911D01*
X73002Y-51935D01*
X73013Y-51959D01*
X73025Y-51602D02*
X73192Y-51602D01*
X72930Y-51661D02*
X73109Y-51721D01*
X73109Y-51566D01*
X63039Y-47827D02*
X63027Y-47839D01*
X62991Y-47851D01*
X62967Y-47851D01*
X62932Y-47839D01*
X62908Y-47815D01*
X62896Y-47791D01*
X62884Y-47744D01*
X62884Y-47708D01*
X62896Y-47660D01*
X62908Y-47636D01*
X62932Y-47613D01*
X62967Y-47601D01*
X62991Y-47601D01*
X63027Y-47613D01*
X63039Y-47625D01*
X63134Y-47625D02*
X63146Y-47613D01*
X63170Y-47601D01*
X63229Y-47601D01*
X63253Y-47613D01*
X63265Y-47625D01*
X63277Y-47648D01*
X63277Y-47672D01*
X63265Y-47708D01*
X63122Y-47851D01*
X63277Y-47851D01*
X63372Y-47625D02*
X63384Y-47613D01*
X63408Y-47601D01*
X63467Y-47601D01*
X63491Y-47613D01*
X63503Y-47625D01*
X63515Y-47648D01*
X63515Y-47672D01*
X63503Y-47708D01*
X63360Y-47851D01*
X63515Y-47851D01*
X82660Y-52010D02*
X82672Y-52022D01*
X82684Y-52058D01*
X82684Y-52082D01*
X82672Y-52117D01*
X82648Y-52141D01*
X82624Y-52153D01*
X82577Y-52165D01*
X82541Y-52165D01*
X82493Y-52153D01*
X82469Y-52141D01*
X82446Y-52117D01*
X82434Y-52082D01*
X82434Y-52058D01*
X82446Y-52022D01*
X82458Y-52010D01*
X82434Y-51784D02*
X82434Y-51903D01*
X82553Y-51915D01*
X82541Y-51903D01*
X82529Y-51879D01*
X82529Y-51820D01*
X82541Y-51796D01*
X82553Y-51784D01*
X82577Y-51772D01*
X82636Y-51772D01*
X82660Y-51784D01*
X82672Y-51796D01*
X82684Y-51820D01*
X82684Y-51879D01*
X82672Y-51903D01*
X82660Y-51915D01*
X82434Y-51689D02*
X82434Y-51522D01*
X82684Y-51629D01*
X63689Y-45077D02*
X63677Y-45089D01*
X63641Y-45101D01*
X63617Y-45101D01*
X63582Y-45089D01*
X63558Y-45065D01*
X63546Y-45041D01*
X63534Y-44994D01*
X63534Y-44958D01*
X63546Y-44910D01*
X63558Y-44886D01*
X63582Y-44863D01*
X63617Y-44851D01*
X63641Y-44851D01*
X63677Y-44863D01*
X63689Y-44875D01*
X63915Y-44851D02*
X63796Y-44851D01*
X63784Y-44970D01*
X63796Y-44958D01*
X63820Y-44946D01*
X63879Y-44946D01*
X63903Y-44958D01*
X63915Y-44970D01*
X63927Y-44994D01*
X63927Y-45053D01*
X63915Y-45077D01*
X63903Y-45089D01*
X63879Y-45101D01*
X63820Y-45101D01*
X63796Y-45089D01*
X63784Y-45077D01*
X64141Y-44934D02*
X64141Y-45101D01*
X64082Y-44839D02*
X64022Y-45017D01*
X64177Y-45017D01*
X83077Y-56210D02*
X83089Y-56222D01*
X83101Y-56258D01*
X83101Y-56282D01*
X83089Y-56317D01*
X83065Y-56341D01*
X83041Y-56353D01*
X82994Y-56365D01*
X82958Y-56365D01*
X82910Y-56353D01*
X82886Y-56341D01*
X82863Y-56317D01*
X82851Y-56282D01*
X82851Y-56258D01*
X82863Y-56222D01*
X82875Y-56210D01*
X82851Y-55984D02*
X82851Y-56103D01*
X82970Y-56115D01*
X82958Y-56103D01*
X82946Y-56079D01*
X82946Y-56020D01*
X82958Y-55996D01*
X82970Y-55984D01*
X82994Y-55972D01*
X83053Y-55972D01*
X83077Y-55984D01*
X83089Y-55996D01*
X83101Y-56020D01*
X83101Y-56079D01*
X83089Y-56103D01*
X83077Y-56115D01*
X82851Y-55817D02*
X82851Y-55794D01*
X82863Y-55770D01*
X82875Y-55758D01*
X82898Y-55746D01*
X82946Y-55734D01*
X83005Y-55734D01*
X83053Y-55746D01*
X83077Y-55758D01*
X83089Y-55770D01*
X83101Y-55794D01*
X83101Y-55817D01*
X83089Y-55841D01*
X83077Y-55853D01*
X83053Y-55865D01*
X83005Y-55877D01*
X82946Y-55877D01*
X82898Y-55865D01*
X82875Y-55853D01*
X82863Y-55841D01*
X82851Y-55817D01*
X85927Y-56710D02*
X85939Y-56722D01*
X85951Y-56758D01*
X85951Y-56782D01*
X85939Y-56817D01*
X85915Y-56841D01*
X85891Y-56853D01*
X85844Y-56865D01*
X85808Y-56865D01*
X85760Y-56853D01*
X85736Y-56841D01*
X85713Y-56817D01*
X85701Y-56782D01*
X85701Y-56758D01*
X85713Y-56722D01*
X85725Y-56710D01*
X85784Y-56496D02*
X85951Y-56496D01*
X85689Y-56555D02*
X85867Y-56615D01*
X85867Y-56460D01*
X85808Y-56329D02*
X85796Y-56353D01*
X85784Y-56365D01*
X85760Y-56377D01*
X85748Y-56377D01*
X85725Y-56365D01*
X85713Y-56353D01*
X85701Y-56329D01*
X85701Y-56282D01*
X85713Y-56258D01*
X85725Y-56246D01*
X85748Y-56234D01*
X85760Y-56234D01*
X85784Y-56246D01*
X85796Y-56258D01*
X85808Y-56282D01*
X85808Y-56329D01*
X85820Y-56353D01*
X85832Y-56365D01*
X85855Y-56377D01*
X85903Y-56377D01*
X85927Y-56365D01*
X85939Y-56353D01*
X85951Y-56329D01*
X85951Y-56282D01*
X85939Y-56258D01*
X85927Y-56246D01*
X85903Y-56234D01*
X85855Y-56234D01*
X85832Y-56246D01*
X85820Y-56258D01*
X85808Y-56282D01*
X82077Y-56210D02*
X82089Y-56222D01*
X82101Y-56258D01*
X82101Y-56282D01*
X82089Y-56317D01*
X82065Y-56341D01*
X82041Y-56353D01*
X81994Y-56365D01*
X81958Y-56365D01*
X81910Y-56353D01*
X81886Y-56341D01*
X81863Y-56317D01*
X81851Y-56282D01*
X81851Y-56258D01*
X81863Y-56222D01*
X81875Y-56210D01*
X81851Y-55984D02*
X81851Y-56103D01*
X81970Y-56115D01*
X81958Y-56103D01*
X81946Y-56079D01*
X81946Y-56020D01*
X81958Y-55996D01*
X81970Y-55984D01*
X81994Y-55972D01*
X82053Y-55972D01*
X82077Y-55984D01*
X82089Y-55996D01*
X82101Y-56020D01*
X82101Y-56079D01*
X82089Y-56103D01*
X82077Y-56115D01*
X82101Y-55734D02*
X82101Y-55877D01*
X82101Y-55805D02*
X81851Y-55805D01*
X81886Y-55829D01*
X81910Y-55853D01*
X81922Y-55877D01*
X81077Y-56210D02*
X81089Y-56222D01*
X81101Y-56258D01*
X81101Y-56282D01*
X81089Y-56317D01*
X81065Y-56341D01*
X81041Y-56353D01*
X80994Y-56365D01*
X80958Y-56365D01*
X80910Y-56353D01*
X80886Y-56341D01*
X80863Y-56317D01*
X80851Y-56282D01*
X80851Y-56258D01*
X80863Y-56222D01*
X80875Y-56210D01*
X80851Y-55984D02*
X80851Y-56103D01*
X80970Y-56115D01*
X80958Y-56103D01*
X80946Y-56079D01*
X80946Y-56020D01*
X80958Y-55996D01*
X80970Y-55984D01*
X80994Y-55972D01*
X81053Y-55972D01*
X81077Y-55984D01*
X81089Y-55996D01*
X81101Y-56020D01*
X81101Y-56079D01*
X81089Y-56103D01*
X81077Y-56115D01*
X80875Y-55877D02*
X80863Y-55865D01*
X80851Y-55841D01*
X80851Y-55782D01*
X80863Y-55758D01*
X80875Y-55746D01*
X80898Y-55734D01*
X80922Y-55734D01*
X80958Y-55746D01*
X81101Y-55889D01*
X81101Y-55734D01*
X80077Y-56210D02*
X80089Y-56222D01*
X80101Y-56258D01*
X80101Y-56282D01*
X80089Y-56317D01*
X80065Y-56341D01*
X80041Y-56353D01*
X79994Y-56365D01*
X79958Y-56365D01*
X79910Y-56353D01*
X79886Y-56341D01*
X79863Y-56317D01*
X79851Y-56282D01*
X79851Y-56258D01*
X79863Y-56222D01*
X79875Y-56210D01*
X79851Y-55984D02*
X79851Y-56103D01*
X79970Y-56115D01*
X79958Y-56103D01*
X79946Y-56079D01*
X79946Y-56020D01*
X79958Y-55996D01*
X79970Y-55984D01*
X79994Y-55972D01*
X80053Y-55972D01*
X80077Y-55984D01*
X80089Y-55996D01*
X80101Y-56020D01*
X80101Y-56079D01*
X80089Y-56103D01*
X80077Y-56115D01*
X79851Y-55889D02*
X79851Y-55734D01*
X79946Y-55817D01*
X79946Y-55782D01*
X79958Y-55758D01*
X79970Y-55746D01*
X79994Y-55734D01*
X80053Y-55734D01*
X80077Y-55746D01*
X80089Y-55758D01*
X80101Y-55782D01*
X80101Y-55853D01*
X80089Y-55877D01*
X80077Y-55889D01*
X79177Y-56110D02*
X79189Y-56122D01*
X79201Y-56158D01*
X79201Y-56182D01*
X79189Y-56217D01*
X79165Y-56241D01*
X79141Y-56253D01*
X79094Y-56265D01*
X79058Y-56265D01*
X79010Y-56253D01*
X78986Y-56241D01*
X78963Y-56217D01*
X78951Y-56182D01*
X78951Y-56158D01*
X78963Y-56122D01*
X78975Y-56110D01*
X79034Y-55896D02*
X79201Y-55896D01*
X78939Y-55955D02*
X79117Y-56015D01*
X79117Y-55860D01*
X78951Y-55789D02*
X78951Y-55622D01*
X79201Y-55729D01*
X84077Y-56210D02*
X84089Y-56222D01*
X84101Y-56258D01*
X84101Y-56282D01*
X84089Y-56317D01*
X84065Y-56341D01*
X84041Y-56353D01*
X83994Y-56365D01*
X83958Y-56365D01*
X83910Y-56353D01*
X83886Y-56341D01*
X83863Y-56317D01*
X83851Y-56282D01*
X83851Y-56258D01*
X83863Y-56222D01*
X83875Y-56210D01*
X83934Y-55996D02*
X84101Y-55996D01*
X83839Y-56055D02*
X84017Y-56115D01*
X84017Y-55960D01*
X84101Y-55853D02*
X84101Y-55805D01*
X84089Y-55782D01*
X84077Y-55770D01*
X84041Y-55746D01*
X83994Y-55734D01*
X83898Y-55734D01*
X83875Y-55746D01*
X83863Y-55758D01*
X83851Y-55782D01*
X83851Y-55829D01*
X83863Y-55853D01*
X83875Y-55865D01*
X83898Y-55877D01*
X83958Y-55877D01*
X83982Y-55865D01*
X83994Y-55853D01*
X84005Y-55829D01*
X84005Y-55782D01*
X83994Y-55758D01*
X83982Y-55746D01*
X83958Y-55734D01*
X77277Y-45560D02*
X77289Y-45572D01*
X77301Y-45608D01*
X77301Y-45632D01*
X77289Y-45667D01*
X77265Y-45691D01*
X77241Y-45703D01*
X77194Y-45715D01*
X77158Y-45715D01*
X77110Y-45703D01*
X77086Y-45691D01*
X77063Y-45667D01*
X77051Y-45632D01*
X77051Y-45608D01*
X77063Y-45572D01*
X77075Y-45560D01*
X77051Y-45477D02*
X77051Y-45322D01*
X77146Y-45405D01*
X77146Y-45370D01*
X77158Y-45346D01*
X77170Y-45334D01*
X77194Y-45322D01*
X77253Y-45322D01*
X77277Y-45334D01*
X77289Y-45346D01*
X77301Y-45370D01*
X77301Y-45441D01*
X77289Y-45465D01*
X77277Y-45477D01*
X77301Y-45084D02*
X77301Y-45227D01*
X77301Y-45155D02*
X77051Y-45155D01*
X77086Y-45179D01*
X77110Y-45203D01*
X77122Y-45227D01*
X80227Y-45710D02*
X80239Y-45722D01*
X80251Y-45758D01*
X80251Y-45782D01*
X80239Y-45817D01*
X80215Y-45841D01*
X80191Y-45853D01*
X80144Y-45865D01*
X80108Y-45865D01*
X80060Y-45853D01*
X80036Y-45841D01*
X80013Y-45817D01*
X80001Y-45782D01*
X80001Y-45758D01*
X80013Y-45722D01*
X80025Y-45710D01*
X80001Y-45627D02*
X80001Y-45472D01*
X80096Y-45555D01*
X80096Y-45520D01*
X80108Y-45496D01*
X80120Y-45484D01*
X80144Y-45472D01*
X80203Y-45472D01*
X80227Y-45484D01*
X80239Y-45496D01*
X80251Y-45520D01*
X80251Y-45591D01*
X80239Y-45615D01*
X80227Y-45627D01*
X80001Y-45246D02*
X80001Y-45365D01*
X80120Y-45377D01*
X80108Y-45365D01*
X80096Y-45341D01*
X80096Y-45282D01*
X80108Y-45258D01*
X80120Y-45246D01*
X80144Y-45234D01*
X80203Y-45234D01*
X80227Y-45246D01*
X80239Y-45258D01*
X80251Y-45282D01*
X80251Y-45341D01*
X80239Y-45365D01*
X80227Y-45377D01*
X74577Y-54891D02*
X74589Y-54903D01*
X74601Y-54939D01*
X74601Y-54963D01*
X74589Y-54998D01*
X74565Y-55022D01*
X74541Y-55034D01*
X74494Y-55046D01*
X74458Y-55046D01*
X74410Y-55034D01*
X74386Y-55022D01*
X74363Y-54998D01*
X74351Y-54963D01*
X74351Y-54939D01*
X74363Y-54903D01*
X74375Y-54891D01*
X74601Y-54653D02*
X74601Y-54796D01*
X74601Y-54725D02*
X74351Y-54725D01*
X74386Y-54748D01*
X74410Y-54772D01*
X74422Y-54796D01*
X79908Y-50427D02*
X79896Y-50439D01*
X79860Y-50451D01*
X79836Y-50451D01*
X79801Y-50439D01*
X79777Y-50415D01*
X79765Y-50391D01*
X79753Y-50344D01*
X79753Y-50308D01*
X79765Y-50260D01*
X79777Y-50236D01*
X79801Y-50213D01*
X79836Y-50201D01*
X79860Y-50201D01*
X79896Y-50213D01*
X79908Y-50225D01*
X79991Y-50201D02*
X80146Y-50201D01*
X80063Y-50296D01*
X80098Y-50296D01*
X80122Y-50308D01*
X80134Y-50320D01*
X80146Y-50344D01*
X80146Y-50403D01*
X80134Y-50427D01*
X80122Y-50439D01*
X80098Y-50451D01*
X80027Y-50451D01*
X80003Y-50439D01*
X79991Y-50427D01*
X75577Y-48791D02*
X75589Y-48803D01*
X75601Y-48839D01*
X75601Y-48863D01*
X75589Y-48898D01*
X75565Y-48922D01*
X75541Y-48934D01*
X75494Y-48946D01*
X75458Y-48946D01*
X75410Y-48934D01*
X75386Y-48922D01*
X75363Y-48898D01*
X75351Y-48863D01*
X75351Y-48839D01*
X75363Y-48803D01*
X75375Y-48791D01*
X75351Y-48565D02*
X75351Y-48684D01*
X75470Y-48696D01*
X75458Y-48684D01*
X75446Y-48660D01*
X75446Y-48601D01*
X75458Y-48577D01*
X75470Y-48565D01*
X75494Y-48553D01*
X75553Y-48553D01*
X75577Y-48565D01*
X75589Y-48577D01*
X75601Y-48601D01*
X75601Y-48660D01*
X75589Y-48684D01*
X75577Y-48696D01*
X66789Y-42677D02*
X66777Y-42689D01*
X66741Y-42701D01*
X66717Y-42701D01*
X66682Y-42689D01*
X66658Y-42665D01*
X66646Y-42641D01*
X66634Y-42594D01*
X66634Y-42558D01*
X66646Y-42510D01*
X66658Y-42486D01*
X66682Y-42463D01*
X66717Y-42451D01*
X66741Y-42451D01*
X66777Y-42463D01*
X66789Y-42475D01*
X67003Y-42534D02*
X67003Y-42701D01*
X66944Y-42439D02*
X66884Y-42617D01*
X67039Y-42617D01*
X67265Y-42701D02*
X67122Y-42701D01*
X67194Y-42701D02*
X67194Y-42451D01*
X67170Y-42486D01*
X67146Y-42510D01*
X67122Y-42522D01*
X60677Y-57710D02*
X60689Y-57722D01*
X60701Y-57758D01*
X60701Y-57782D01*
X60689Y-57817D01*
X60665Y-57841D01*
X60641Y-57853D01*
X60594Y-57865D01*
X60558Y-57865D01*
X60510Y-57853D01*
X60486Y-57841D01*
X60463Y-57817D01*
X60451Y-57782D01*
X60451Y-57758D01*
X60463Y-57722D01*
X60475Y-57710D01*
X60534Y-57496D02*
X60701Y-57496D01*
X60439Y-57555D02*
X60617Y-57615D01*
X60617Y-57460D01*
X60534Y-57258D02*
X60701Y-57258D01*
X60439Y-57317D02*
X60617Y-57377D01*
X60617Y-57222D01*
X58472Y-39320D02*
X58508Y-39332D01*
X58520Y-39344D01*
X58532Y-39367D01*
X58532Y-39403D01*
X58520Y-39427D01*
X58508Y-39439D01*
X58484Y-39451D01*
X58389Y-39451D01*
X58389Y-39201D01*
X58472Y-39201D01*
X58496Y-39213D01*
X58508Y-39225D01*
X58520Y-39248D01*
X58520Y-39272D01*
X58508Y-39296D01*
X58496Y-39308D01*
X58472Y-39320D01*
X58389Y-39320D01*
X58603Y-39201D02*
X58746Y-39201D01*
X58675Y-39451D02*
X58675Y-39201D01*
X58829Y-39451D02*
X58829Y-39201D01*
X58972Y-39451D01*
X58972Y-39201D01*
X59222Y-39451D02*
X59079Y-39451D01*
X59151Y-39451D02*
X59151Y-39201D01*
X59127Y-39236D01*
X59103Y-39260D01*
X59079Y-39272D01*
X80089Y-42427D02*
X80077Y-42439D01*
X80041Y-42451D01*
X80017Y-42451D01*
X79982Y-42439D01*
X79958Y-42415D01*
X79946Y-42391D01*
X79934Y-42344D01*
X79934Y-42308D01*
X79946Y-42260D01*
X79958Y-42236D01*
X79982Y-42213D01*
X80017Y-42201D01*
X80041Y-42201D01*
X80077Y-42213D01*
X80089Y-42225D01*
X80184Y-42225D02*
X80196Y-42213D01*
X80220Y-42201D01*
X80279Y-42201D01*
X80303Y-42213D01*
X80315Y-42225D01*
X80327Y-42248D01*
X80327Y-42272D01*
X80315Y-42308D01*
X80172Y-42451D01*
X80327Y-42451D01*
X80470Y-42308D02*
X80446Y-42296D01*
X80434Y-42284D01*
X80422Y-42260D01*
X80422Y-42248D01*
X80434Y-42225D01*
X80446Y-42213D01*
X80470Y-42201D01*
X80517Y-42201D01*
X80541Y-42213D01*
X80553Y-42225D01*
X80565Y-42248D01*
X80565Y-42260D01*
X80553Y-42284D01*
X80541Y-42296D01*
X80517Y-42308D01*
X80470Y-42308D01*
X80446Y-42320D01*
X80434Y-42332D01*
X80422Y-42355D01*
X80422Y-42403D01*
X80434Y-42427D01*
X80446Y-42439D01*
X80470Y-42451D01*
X80517Y-42451D01*
X80541Y-42439D01*
X80553Y-42427D01*
X80565Y-42403D01*
X80565Y-42355D01*
X80553Y-42332D01*
X80541Y-42320D01*
X80517Y-42308D01*
X80639Y-44327D02*
X80627Y-44339D01*
X80591Y-44351D01*
X80567Y-44351D01*
X80532Y-44339D01*
X80508Y-44315D01*
X80496Y-44291D01*
X80484Y-44244D01*
X80484Y-44208D01*
X80496Y-44160D01*
X80508Y-44136D01*
X80532Y-44113D01*
X80567Y-44101D01*
X80591Y-44101D01*
X80627Y-44113D01*
X80639Y-44125D01*
X80722Y-44101D02*
X80877Y-44101D01*
X80794Y-44196D01*
X80829Y-44196D01*
X80853Y-44208D01*
X80865Y-44220D01*
X80877Y-44244D01*
X80877Y-44303D01*
X80865Y-44327D01*
X80853Y-44339D01*
X80829Y-44351D01*
X80758Y-44351D01*
X80734Y-44339D01*
X80722Y-44327D01*
X81032Y-44101D02*
X81055Y-44101D01*
X81079Y-44113D01*
X81091Y-44125D01*
X81103Y-44148D01*
X81115Y-44196D01*
X81115Y-44255D01*
X81103Y-44303D01*
X81091Y-44327D01*
X81079Y-44339D01*
X81055Y-44351D01*
X81032Y-44351D01*
X81008Y-44339D01*
X80996Y-44327D01*
X80984Y-44303D01*
X80972Y-44255D01*
X80972Y-44196D01*
X80984Y-44148D01*
X80996Y-44125D01*
X81008Y-44113D01*
X81032Y-44101D01*
X78677Y-46710D02*
X78689Y-46722D01*
X78701Y-46758D01*
X78701Y-46782D01*
X78689Y-46817D01*
X78665Y-46841D01*
X78641Y-46853D01*
X78594Y-46865D01*
X78558Y-46865D01*
X78510Y-46853D01*
X78486Y-46841D01*
X78463Y-46817D01*
X78451Y-46782D01*
X78451Y-46758D01*
X78463Y-46722D01*
X78475Y-46710D01*
X78534Y-46496D02*
X78701Y-46496D01*
X78439Y-46555D02*
X78617Y-46615D01*
X78617Y-46460D01*
X78451Y-46258D02*
X78451Y-46305D01*
X78463Y-46329D01*
X78475Y-46341D01*
X78510Y-46365D01*
X78558Y-46377D01*
X78653Y-46377D01*
X78677Y-46365D01*
X78689Y-46353D01*
X78701Y-46329D01*
X78701Y-46282D01*
X78689Y-46258D01*
X78677Y-46246D01*
X78653Y-46234D01*
X78594Y-46234D01*
X78570Y-46246D01*
X78558Y-46258D01*
X78546Y-46282D01*
X78546Y-46329D01*
X78558Y-46353D01*
X78570Y-46365D01*
X78594Y-46377D01*
X64739Y-52877D02*
X64727Y-52889D01*
X64691Y-52901D01*
X64667Y-52901D01*
X64632Y-52889D01*
X64608Y-52865D01*
X64596Y-52841D01*
X64584Y-52794D01*
X64584Y-52758D01*
X64596Y-52710D01*
X64608Y-52686D01*
X64632Y-52663D01*
X64667Y-52651D01*
X64691Y-52651D01*
X64727Y-52663D01*
X64739Y-52675D01*
X64953Y-52651D02*
X64905Y-52651D01*
X64882Y-52663D01*
X64870Y-52675D01*
X64846Y-52710D01*
X64834Y-52758D01*
X64834Y-52853D01*
X64846Y-52877D01*
X64858Y-52889D01*
X64882Y-52901D01*
X64929Y-52901D01*
X64953Y-52889D01*
X64965Y-52877D01*
X64977Y-52853D01*
X64977Y-52794D01*
X64965Y-52770D01*
X64953Y-52758D01*
X64929Y-52746D01*
X64882Y-52746D01*
X64858Y-52758D01*
X64846Y-52770D01*
X64834Y-52794D01*
X65060Y-52651D02*
X65215Y-52651D01*
X65132Y-52746D01*
X65167Y-52746D01*
X65191Y-52758D01*
X65203Y-52770D01*
X65215Y-52794D01*
X65215Y-52853D01*
X65203Y-52877D01*
X65191Y-52889D01*
X65167Y-52901D01*
X65096Y-52901D01*
X65072Y-52889D01*
X65060Y-52877D01*
X65427Y-49710D02*
X65439Y-49722D01*
X65451Y-49758D01*
X65451Y-49782D01*
X65439Y-49817D01*
X65415Y-49841D01*
X65391Y-49853D01*
X65344Y-49865D01*
X65308Y-49865D01*
X65260Y-49853D01*
X65236Y-49841D01*
X65213Y-49817D01*
X65201Y-49782D01*
X65201Y-49758D01*
X65213Y-49722D01*
X65225Y-49710D01*
X65201Y-49484D02*
X65201Y-49603D01*
X65320Y-49615D01*
X65308Y-49603D01*
X65296Y-49579D01*
X65296Y-49520D01*
X65308Y-49496D01*
X65320Y-49484D01*
X65344Y-49472D01*
X65403Y-49472D01*
X65427Y-49484D01*
X65439Y-49496D01*
X65451Y-49520D01*
X65451Y-49579D01*
X65439Y-49603D01*
X65427Y-49615D01*
X65201Y-49258D02*
X65201Y-49305D01*
X65213Y-49329D01*
X65225Y-49341D01*
X65260Y-49365D01*
X65308Y-49377D01*
X65403Y-49377D01*
X65427Y-49365D01*
X65439Y-49353D01*
X65451Y-49329D01*
X65451Y-49282D01*
X65439Y-49258D01*
X65427Y-49246D01*
X65403Y-49234D01*
X65344Y-49234D01*
X65320Y-49246D01*
X65308Y-49258D01*
X65296Y-49282D01*
X65296Y-49329D01*
X65308Y-49353D01*
X65320Y-49365D01*
X65344Y-49377D01*
X78277Y-46160D02*
X78289Y-46172D01*
X78301Y-46208D01*
X78301Y-46232D01*
X78289Y-46267D01*
X78265Y-46291D01*
X78241Y-46303D01*
X78194Y-46315D01*
X78158Y-46315D01*
X78110Y-46303D01*
X78086Y-46291D01*
X78063Y-46267D01*
X78051Y-46232D01*
X78051Y-46208D01*
X78063Y-46172D01*
X78075Y-46160D01*
X78051Y-46077D02*
X78051Y-45922D01*
X78146Y-46005D01*
X78146Y-45970D01*
X78158Y-45946D01*
X78170Y-45934D01*
X78194Y-45922D01*
X78253Y-45922D01*
X78277Y-45934D01*
X78289Y-45946D01*
X78301Y-45970D01*
X78301Y-46041D01*
X78289Y-46065D01*
X78277Y-46077D01*
X78075Y-45827D02*
X78063Y-45815D01*
X78051Y-45791D01*
X78051Y-45732D01*
X78063Y-45708D01*
X78075Y-45696D01*
X78098Y-45684D01*
X78122Y-45684D01*
X78158Y-45696D01*
X78301Y-45839D01*
X78301Y-45684D01*
X71839Y-54444D02*
X71827Y-54456D01*
X71791Y-54468D01*
X71767Y-54468D01*
X71732Y-54456D01*
X71708Y-54432D01*
X71696Y-54408D01*
X71684Y-54360D01*
X71684Y-54325D01*
X71696Y-54277D01*
X71708Y-54253D01*
X71732Y-54230D01*
X71767Y-54218D01*
X71791Y-54218D01*
X71827Y-54230D01*
X71839Y-54241D01*
X71934Y-54241D02*
X71946Y-54230D01*
X71970Y-54218D01*
X72029Y-54218D01*
X72053Y-54230D01*
X72065Y-54241D01*
X72077Y-54265D01*
X72077Y-54289D01*
X72065Y-54325D01*
X71922Y-54468D01*
X72077Y-54468D01*
X72315Y-54468D02*
X72172Y-54468D01*
X72244Y-54468D02*
X72244Y-54218D01*
X72220Y-54253D01*
X72196Y-54277D01*
X72172Y-54289D01*
X74227Y-56441D02*
X74239Y-56453D01*
X74251Y-56489D01*
X74251Y-56513D01*
X74239Y-56548D01*
X74215Y-56572D01*
X74191Y-56584D01*
X74144Y-56596D01*
X74108Y-56596D01*
X74060Y-56584D01*
X74036Y-56572D01*
X74013Y-56548D01*
X74001Y-56513D01*
X74001Y-56489D01*
X74013Y-56453D01*
X74025Y-56441D01*
X74108Y-56298D02*
X74096Y-56322D01*
X74084Y-56334D01*
X74060Y-56346D01*
X74048Y-56346D01*
X74025Y-56334D01*
X74013Y-56322D01*
X74001Y-56298D01*
X74001Y-56251D01*
X74013Y-56227D01*
X74025Y-56215D01*
X74048Y-56203D01*
X74060Y-56203D01*
X74084Y-56215D01*
X74096Y-56227D01*
X74108Y-56251D01*
X74108Y-56298D01*
X74120Y-56322D01*
X74132Y-56334D01*
X74155Y-56346D01*
X74203Y-56346D01*
X74227Y-56334D01*
X74239Y-56322D01*
X74251Y-56298D01*
X74251Y-56251D01*
X74239Y-56227D01*
X74227Y-56215D01*
X74203Y-56203D01*
X74155Y-56203D01*
X74132Y-56215D01*
X74120Y-56227D01*
X74108Y-56251D01*
X76327Y-56441D02*
X76339Y-56453D01*
X76351Y-56489D01*
X76351Y-56513D01*
X76339Y-56548D01*
X76315Y-56572D01*
X76291Y-56584D01*
X76244Y-56596D01*
X76208Y-56596D01*
X76160Y-56584D01*
X76136Y-56572D01*
X76113Y-56548D01*
X76101Y-56513D01*
X76101Y-56489D01*
X76113Y-56453D01*
X76125Y-56441D01*
X76101Y-56358D02*
X76101Y-56191D01*
X76351Y-56298D01*
X72289Y-50527D02*
X72277Y-50539D01*
X72241Y-50551D01*
X72217Y-50551D01*
X72182Y-50539D01*
X72158Y-50515D01*
X72146Y-50491D01*
X72134Y-50444D01*
X72134Y-50408D01*
X72146Y-50360D01*
X72158Y-50336D01*
X72182Y-50313D01*
X72217Y-50301D01*
X72241Y-50301D01*
X72277Y-50313D01*
X72289Y-50325D01*
X72527Y-50551D02*
X72384Y-50551D01*
X72455Y-50551D02*
X72455Y-50301D01*
X72432Y-50336D01*
X72408Y-50360D01*
X72384Y-50372D01*
X72765Y-50551D02*
X72622Y-50551D01*
X72694Y-50551D02*
X72694Y-50301D01*
X72670Y-50336D01*
X72646Y-50360D01*
X72622Y-50372D01*
X74308Y-48727D02*
X74296Y-48739D01*
X74260Y-48751D01*
X74236Y-48751D01*
X74201Y-48739D01*
X74177Y-48715D01*
X74165Y-48691D01*
X74153Y-48644D01*
X74153Y-48608D01*
X74165Y-48560D01*
X74177Y-48536D01*
X74201Y-48513D01*
X74236Y-48501D01*
X74260Y-48501D01*
X74296Y-48513D01*
X74308Y-48525D01*
X74427Y-48751D02*
X74475Y-48751D01*
X74498Y-48739D01*
X74510Y-48727D01*
X74534Y-48691D01*
X74546Y-48644D01*
X74546Y-48548D01*
X74534Y-48525D01*
X74522Y-48513D01*
X74498Y-48501D01*
X74451Y-48501D01*
X74427Y-48513D01*
X74415Y-48525D01*
X74403Y-48548D01*
X74403Y-48608D01*
X74415Y-48632D01*
X74427Y-48644D01*
X74451Y-48655D01*
X74498Y-48655D01*
X74522Y-48644D01*
X74534Y-48632D01*
X74546Y-48608D01*
X71889Y-53527D02*
X71877Y-53539D01*
X71841Y-53551D01*
X71817Y-53551D01*
X71782Y-53539D01*
X71758Y-53515D01*
X71746Y-53491D01*
X71734Y-53444D01*
X71734Y-53408D01*
X71746Y-53360D01*
X71758Y-53336D01*
X71782Y-53313D01*
X71817Y-53301D01*
X71841Y-53301D01*
X71877Y-53313D01*
X71889Y-53325D01*
X72127Y-53551D02*
X71984Y-53551D01*
X72055Y-53551D02*
X72055Y-53301D01*
X72032Y-53336D01*
X72008Y-53360D01*
X71984Y-53372D01*
X72210Y-53301D02*
X72365Y-53301D01*
X72282Y-53396D01*
X72317Y-53396D01*
X72341Y-53408D01*
X72353Y-53420D01*
X72365Y-53444D01*
X72365Y-53503D01*
X72353Y-53527D01*
X72341Y-53539D01*
X72317Y-53551D01*
X72246Y-53551D01*
X72222Y-53539D01*
X72210Y-53527D01*
X74210Y-53760D02*
X74222Y-53772D01*
X74234Y-53808D01*
X74234Y-53832D01*
X74222Y-53867D01*
X74198Y-53891D01*
X74174Y-53903D01*
X74127Y-53915D01*
X74091Y-53915D01*
X74043Y-53903D01*
X74019Y-53891D01*
X73996Y-53867D01*
X73984Y-53832D01*
X73984Y-53808D01*
X73996Y-53772D01*
X74008Y-53760D01*
X74234Y-53522D02*
X74234Y-53665D01*
X74234Y-53594D02*
X73984Y-53594D01*
X74019Y-53617D01*
X74043Y-53641D01*
X74055Y-53665D01*
X74067Y-53308D02*
X74234Y-53308D01*
X73972Y-53367D02*
X74150Y-53427D01*
X74150Y-53272D01*
X71939Y-53977D02*
X71927Y-53989D01*
X71891Y-54001D01*
X71867Y-54001D01*
X71832Y-53989D01*
X71808Y-53965D01*
X71796Y-53941D01*
X71784Y-53894D01*
X71784Y-53858D01*
X71796Y-53810D01*
X71808Y-53786D01*
X71832Y-53763D01*
X71867Y-53751D01*
X71891Y-53751D01*
X71927Y-53763D01*
X71939Y-53775D01*
X72177Y-54001D02*
X72034Y-54001D01*
X72105Y-54001D02*
X72105Y-53751D01*
X72082Y-53786D01*
X72058Y-53810D01*
X72034Y-53822D01*
X72296Y-54001D02*
X72344Y-54001D01*
X72367Y-53989D01*
X72379Y-53977D01*
X72403Y-53941D01*
X72415Y-53894D01*
X72415Y-53798D01*
X72403Y-53775D01*
X72391Y-53763D01*
X72367Y-53751D01*
X72320Y-53751D01*
X72296Y-53763D01*
X72284Y-53775D01*
X72272Y-53798D01*
X72272Y-53858D01*
X72284Y-53882D01*
X72296Y-53894D01*
X72320Y-53905D01*
X72367Y-53905D01*
X72391Y-53894D01*
X72403Y-53882D01*
X72415Y-53858D01*
X75458Y-55227D02*
X75446Y-55239D01*
X75410Y-55251D01*
X75386Y-55251D01*
X75351Y-55239D01*
X75327Y-55215D01*
X75315Y-55191D01*
X75303Y-55144D01*
X75303Y-55108D01*
X75315Y-55060D01*
X75327Y-55036D01*
X75351Y-55013D01*
X75386Y-55001D01*
X75410Y-55001D01*
X75446Y-55013D01*
X75458Y-55025D01*
X75553Y-55025D02*
X75565Y-55013D01*
X75589Y-55001D01*
X75648Y-55001D01*
X75672Y-55013D01*
X75684Y-55025D01*
X75696Y-55048D01*
X75696Y-55072D01*
X75684Y-55108D01*
X75541Y-55251D01*
X75696Y-55251D01*
X79858Y-51477D02*
X79846Y-51489D01*
X79810Y-51501D01*
X79786Y-51501D01*
X79751Y-51489D01*
X79727Y-51465D01*
X79715Y-51441D01*
X79703Y-51394D01*
X79703Y-51358D01*
X79715Y-51310D01*
X79727Y-51286D01*
X79751Y-51263D01*
X79786Y-51251D01*
X79810Y-51251D01*
X79846Y-51263D01*
X79858Y-51275D01*
X80072Y-51334D02*
X80072Y-51501D01*
X80013Y-51239D02*
X79953Y-51417D01*
X80108Y-51417D01*
X77027Y-49641D02*
X77039Y-49653D01*
X77051Y-49689D01*
X77051Y-49713D01*
X77039Y-49748D01*
X77015Y-49772D01*
X76991Y-49784D01*
X76944Y-49796D01*
X76908Y-49796D01*
X76860Y-49784D01*
X76836Y-49772D01*
X76813Y-49748D01*
X76801Y-49713D01*
X76801Y-49689D01*
X76813Y-49653D01*
X76825Y-49641D01*
X76801Y-49427D02*
X76801Y-49475D01*
X76813Y-49498D01*
X76825Y-49510D01*
X76860Y-49534D01*
X76908Y-49546D01*
X77003Y-49546D01*
X77027Y-49534D01*
X77039Y-49522D01*
X77051Y-49498D01*
X77051Y-49451D01*
X77039Y-49427D01*
X77027Y-49415D01*
X77003Y-49403D01*
X76944Y-49403D01*
X76920Y-49415D01*
X76908Y-49427D01*
X76896Y-49451D01*
X76896Y-49498D01*
X76908Y-49522D01*
X76920Y-49534D01*
X76944Y-49546D01*
X72789Y-54860D02*
X72777Y-54872D01*
X72741Y-54884D01*
X72717Y-54884D01*
X72682Y-54872D01*
X72658Y-54848D01*
X72646Y-54824D01*
X72634Y-54777D01*
X72634Y-54741D01*
X72646Y-54693D01*
X72658Y-54669D01*
X72682Y-54646D01*
X72717Y-54634D01*
X72741Y-54634D01*
X72777Y-54646D01*
X72789Y-54658D01*
X73027Y-54884D02*
X72884Y-54884D01*
X72955Y-54884D02*
X72955Y-54634D01*
X72932Y-54669D01*
X72908Y-54693D01*
X72884Y-54705D01*
X73241Y-54634D02*
X73194Y-54634D01*
X73170Y-54646D01*
X73158Y-54658D01*
X73134Y-54693D01*
X73122Y-54741D01*
X73122Y-54836D01*
X73134Y-54860D01*
X73146Y-54872D01*
X73170Y-54884D01*
X73217Y-54884D01*
X73241Y-54872D01*
X73253Y-54860D01*
X73265Y-54836D01*
X73265Y-54777D01*
X73253Y-54753D01*
X73241Y-54741D01*
X73217Y-54729D01*
X73170Y-54729D01*
X73146Y-54741D01*
X73134Y-54753D01*
X73122Y-54777D01*
X70039Y-41977D02*
X70027Y-41989D01*
X69991Y-42001D01*
X69967Y-42001D01*
X69932Y-41989D01*
X69908Y-41965D01*
X69896Y-41941D01*
X69884Y-41894D01*
X69884Y-41858D01*
X69896Y-41810D01*
X69908Y-41786D01*
X69932Y-41763D01*
X69967Y-41751D01*
X69991Y-41751D01*
X70027Y-41763D01*
X70039Y-41775D01*
X70253Y-41834D02*
X70253Y-42001D01*
X70194Y-41739D02*
X70134Y-41917D01*
X70289Y-41917D01*
X70372Y-41775D02*
X70384Y-41763D01*
X70408Y-41751D01*
X70467Y-41751D01*
X70491Y-41763D01*
X70503Y-41775D01*
X70515Y-41798D01*
X70515Y-41822D01*
X70503Y-41858D01*
X70360Y-42001D01*
X70515Y-42001D01*
X67789Y-44727D02*
X67777Y-44739D01*
X67741Y-44751D01*
X67717Y-44751D01*
X67682Y-44739D01*
X67658Y-44715D01*
X67646Y-44691D01*
X67634Y-44644D01*
X67634Y-44608D01*
X67646Y-44560D01*
X67658Y-44536D01*
X67682Y-44513D01*
X67717Y-44501D01*
X67741Y-44501D01*
X67777Y-44513D01*
X67789Y-44525D01*
X68003Y-44584D02*
X68003Y-44751D01*
X67944Y-44489D02*
X67884Y-44667D01*
X68039Y-44667D01*
X68110Y-44501D02*
X68265Y-44501D01*
X68182Y-44596D01*
X68217Y-44596D01*
X68241Y-44608D01*
X68253Y-44620D01*
X68265Y-44644D01*
X68265Y-44703D01*
X68253Y-44727D01*
X68241Y-44739D01*
X68217Y-44751D01*
X68146Y-44751D01*
X68122Y-44739D01*
X68110Y-44727D01*
X79439Y-46177D02*
X79427Y-46189D01*
X79391Y-46201D01*
X79367Y-46201D01*
X79332Y-46189D01*
X79308Y-46165D01*
X79296Y-46141D01*
X79284Y-46094D01*
X79284Y-46058D01*
X79296Y-46010D01*
X79308Y-45986D01*
X79332Y-45963D01*
X79367Y-45951D01*
X79391Y-45951D01*
X79427Y-45963D01*
X79439Y-45975D01*
X79522Y-45951D02*
X79677Y-45951D01*
X79594Y-46046D01*
X79629Y-46046D01*
X79653Y-46058D01*
X79665Y-46070D01*
X79677Y-46094D01*
X79677Y-46153D01*
X79665Y-46177D01*
X79653Y-46189D01*
X79629Y-46201D01*
X79558Y-46201D01*
X79534Y-46189D01*
X79522Y-46177D01*
X79891Y-45951D02*
X79844Y-45951D01*
X79820Y-45963D01*
X79808Y-45975D01*
X79784Y-46010D01*
X79772Y-46058D01*
X79772Y-46153D01*
X79784Y-46177D01*
X79796Y-46189D01*
X79820Y-46201D01*
X79867Y-46201D01*
X79891Y-46189D01*
X79903Y-46177D01*
X79915Y-46153D01*
X79915Y-46094D01*
X79903Y-46070D01*
X79891Y-46058D01*
X79867Y-46046D01*
X79820Y-46046D01*
X79796Y-46058D01*
X79784Y-46070D01*
X79772Y-46094D01*
X63377Y-42360D02*
X63389Y-42372D01*
X63401Y-42408D01*
X63401Y-42432D01*
X63389Y-42467D01*
X63365Y-42491D01*
X63341Y-42503D01*
X63294Y-42515D01*
X63258Y-42515D01*
X63210Y-42503D01*
X63186Y-42491D01*
X63163Y-42467D01*
X63151Y-42432D01*
X63151Y-42408D01*
X63163Y-42372D01*
X63175Y-42360D01*
X63234Y-42146D02*
X63401Y-42146D01*
X63139Y-42205D02*
X63317Y-42265D01*
X63317Y-42110D01*
X63151Y-41967D02*
X63151Y-41944D01*
X63163Y-41920D01*
X63175Y-41908D01*
X63198Y-41896D01*
X63246Y-41884D01*
X63305Y-41884D01*
X63353Y-41896D01*
X63377Y-41908D01*
X63389Y-41920D01*
X63401Y-41944D01*
X63401Y-41967D01*
X63389Y-41991D01*
X63377Y-42003D01*
X63353Y-42015D01*
X63305Y-42027D01*
X63246Y-42027D01*
X63198Y-42015D01*
X63175Y-42003D01*
X63163Y-41991D01*
X63151Y-41967D01*
X79189Y-41927D02*
X79177Y-41939D01*
X79141Y-41951D01*
X79117Y-41951D01*
X79082Y-41939D01*
X79058Y-41915D01*
X79046Y-41891D01*
X79034Y-41844D01*
X79034Y-41808D01*
X79046Y-41760D01*
X79058Y-41736D01*
X79082Y-41713D01*
X79117Y-41701D01*
X79141Y-41701D01*
X79177Y-41713D01*
X79189Y-41725D01*
X79284Y-41725D02*
X79296Y-41713D01*
X79320Y-41701D01*
X79379Y-41701D01*
X79403Y-41713D01*
X79415Y-41725D01*
X79427Y-41748D01*
X79427Y-41772D01*
X79415Y-41808D01*
X79272Y-41951D01*
X79427Y-41951D01*
X79546Y-41951D02*
X79594Y-41951D01*
X79617Y-41939D01*
X79629Y-41927D01*
X79653Y-41891D01*
X79665Y-41844D01*
X79665Y-41748D01*
X79653Y-41725D01*
X79641Y-41713D01*
X79617Y-41701D01*
X79570Y-41701D01*
X79546Y-41713D01*
X79534Y-41725D01*
X79522Y-41748D01*
X79522Y-41808D01*
X79534Y-41832D01*
X79546Y-41844D01*
X79570Y-41855D01*
X79617Y-41855D01*
X79641Y-41844D01*
X79653Y-41832D01*
X79665Y-41808D01*
X77027Y-54660D02*
X77039Y-54672D01*
X77051Y-54708D01*
X77051Y-54732D01*
X77039Y-54767D01*
X77015Y-54791D01*
X76991Y-54803D01*
X76944Y-54815D01*
X76908Y-54815D01*
X76860Y-54803D01*
X76836Y-54791D01*
X76813Y-54767D01*
X76801Y-54732D01*
X76801Y-54708D01*
X76813Y-54672D01*
X76825Y-54660D01*
X77051Y-54422D02*
X77051Y-54565D01*
X77051Y-54494D02*
X76801Y-54494D01*
X76836Y-54517D01*
X76860Y-54541D01*
X76872Y-54565D01*
X76825Y-54327D02*
X76813Y-54315D01*
X76801Y-54291D01*
X76801Y-54232D01*
X76813Y-54208D01*
X76825Y-54196D01*
X76848Y-54184D01*
X76872Y-54184D01*
X76908Y-54196D01*
X77051Y-54339D01*
X77051Y-54184D01*
X85601Y-56710D02*
X85482Y-56794D01*
X85601Y-56853D02*
X85351Y-56853D01*
X85351Y-56758D01*
X85363Y-56734D01*
X85375Y-56722D01*
X85398Y-56710D01*
X85434Y-56710D01*
X85458Y-56722D01*
X85470Y-56734D01*
X85482Y-56758D01*
X85482Y-56853D01*
X85375Y-56615D02*
X85363Y-56603D01*
X85351Y-56579D01*
X85351Y-56520D01*
X85363Y-56496D01*
X85375Y-56484D01*
X85398Y-56472D01*
X85422Y-56472D01*
X85458Y-56484D01*
X85601Y-56627D01*
X85601Y-56472D01*
X85351Y-56246D02*
X85351Y-56365D01*
X85470Y-56377D01*
X85458Y-56365D01*
X85446Y-56341D01*
X85446Y-56282D01*
X85458Y-56258D01*
X85470Y-56246D01*
X85494Y-56234D01*
X85553Y-56234D01*
X85577Y-56246D01*
X85589Y-56258D01*
X85601Y-56282D01*
X85601Y-56341D01*
X85589Y-56365D01*
X85577Y-56377D01*
X83601Y-56210D02*
X83482Y-56294D01*
X83601Y-56353D02*
X83351Y-56353D01*
X83351Y-56258D01*
X83363Y-56234D01*
X83375Y-56222D01*
X83398Y-56210D01*
X83434Y-56210D01*
X83458Y-56222D01*
X83470Y-56234D01*
X83482Y-56258D01*
X83482Y-56353D01*
X83375Y-56115D02*
X83363Y-56103D01*
X83351Y-56079D01*
X83351Y-56020D01*
X83363Y-55996D01*
X83375Y-55984D01*
X83398Y-55972D01*
X83422Y-55972D01*
X83458Y-55984D01*
X83601Y-56127D01*
X83601Y-55972D01*
X83351Y-55758D02*
X83351Y-55805D01*
X83363Y-55829D01*
X83375Y-55841D01*
X83410Y-55865D01*
X83458Y-55877D01*
X83553Y-55877D01*
X83577Y-55865D01*
X83589Y-55853D01*
X83601Y-55829D01*
X83601Y-55782D01*
X83589Y-55758D01*
X83577Y-55746D01*
X83553Y-55734D01*
X83494Y-55734D01*
X83470Y-55746D01*
X83458Y-55758D01*
X83446Y-55782D01*
X83446Y-55829D01*
X83458Y-55853D01*
X83470Y-55865D01*
X83494Y-55877D01*
X82601Y-56210D02*
X82482Y-56294D01*
X82601Y-56353D02*
X82351Y-56353D01*
X82351Y-56258D01*
X82363Y-56234D01*
X82375Y-56222D01*
X82398Y-56210D01*
X82434Y-56210D01*
X82458Y-56222D01*
X82470Y-56234D01*
X82482Y-56258D01*
X82482Y-56353D01*
X82375Y-56115D02*
X82363Y-56103D01*
X82351Y-56079D01*
X82351Y-56020D01*
X82363Y-55996D01*
X82375Y-55984D01*
X82398Y-55972D01*
X82422Y-55972D01*
X82458Y-55984D01*
X82601Y-56127D01*
X82601Y-55972D01*
X82351Y-55889D02*
X82351Y-55722D01*
X82601Y-55829D01*
X80601Y-56210D02*
X80482Y-56294D01*
X80601Y-56353D02*
X80351Y-56353D01*
X80351Y-56258D01*
X80363Y-56234D01*
X80375Y-56222D01*
X80398Y-56210D01*
X80434Y-56210D01*
X80458Y-56222D01*
X80470Y-56234D01*
X80482Y-56258D01*
X80482Y-56353D01*
X80375Y-56115D02*
X80363Y-56103D01*
X80351Y-56079D01*
X80351Y-56020D01*
X80363Y-55996D01*
X80375Y-55984D01*
X80398Y-55972D01*
X80422Y-55972D01*
X80458Y-55984D01*
X80601Y-56127D01*
X80601Y-55972D01*
X80601Y-55853D02*
X80601Y-55805D01*
X80589Y-55782D01*
X80577Y-55770D01*
X80541Y-55746D01*
X80494Y-55734D01*
X80398Y-55734D01*
X80375Y-55746D01*
X80363Y-55758D01*
X80351Y-55782D01*
X80351Y-55829D01*
X80363Y-55853D01*
X80375Y-55865D01*
X80398Y-55877D01*
X80458Y-55877D01*
X80482Y-55865D01*
X80494Y-55853D01*
X80505Y-55829D01*
X80505Y-55782D01*
X80494Y-55758D01*
X80482Y-55746D01*
X80458Y-55734D01*
X79601Y-56210D02*
X79482Y-56294D01*
X79601Y-56353D02*
X79351Y-56353D01*
X79351Y-56258D01*
X79363Y-56234D01*
X79375Y-56222D01*
X79398Y-56210D01*
X79434Y-56210D01*
X79458Y-56222D01*
X79470Y-56234D01*
X79482Y-56258D01*
X79482Y-56353D01*
X79351Y-56127D02*
X79351Y-55972D01*
X79446Y-56055D01*
X79446Y-56020D01*
X79458Y-55996D01*
X79470Y-55984D01*
X79494Y-55972D01*
X79553Y-55972D01*
X79577Y-55984D01*
X79589Y-55996D01*
X79601Y-56020D01*
X79601Y-56091D01*
X79589Y-56115D01*
X79577Y-56127D01*
X79351Y-55817D02*
X79351Y-55794D01*
X79363Y-55770D01*
X79375Y-55758D01*
X79398Y-55746D01*
X79446Y-55734D01*
X79505Y-55734D01*
X79553Y-55746D01*
X79577Y-55758D01*
X79589Y-55770D01*
X79601Y-55794D01*
X79601Y-55817D01*
X79589Y-55841D01*
X79577Y-55853D01*
X79553Y-55865D01*
X79505Y-55877D01*
X79446Y-55877D01*
X79398Y-55865D01*
X79375Y-55853D01*
X79363Y-55841D01*
X79351Y-55817D01*
X77701Y-57160D02*
X77582Y-57244D01*
X77701Y-57303D02*
X77451Y-57303D01*
X77451Y-57208D01*
X77463Y-57184D01*
X77475Y-57172D01*
X77498Y-57160D01*
X77534Y-57160D01*
X77558Y-57172D01*
X77570Y-57184D01*
X77582Y-57208D01*
X77582Y-57303D01*
X77475Y-57065D02*
X77463Y-57053D01*
X77451Y-57029D01*
X77451Y-56970D01*
X77463Y-56946D01*
X77475Y-56934D01*
X77498Y-56922D01*
X77522Y-56922D01*
X77558Y-56934D01*
X77701Y-57077D01*
X77701Y-56922D01*
X77701Y-56684D02*
X77701Y-56827D01*
X77701Y-56755D02*
X77451Y-56755D01*
X77486Y-56779D01*
X77510Y-56803D01*
X77522Y-56827D01*
X79001Y-57160D02*
X78882Y-57244D01*
X79001Y-57303D02*
X78751Y-57303D01*
X78751Y-57208D01*
X78763Y-57184D01*
X78775Y-57172D01*
X78798Y-57160D01*
X78834Y-57160D01*
X78858Y-57172D01*
X78870Y-57184D01*
X78882Y-57208D01*
X78882Y-57303D01*
X78775Y-57065D02*
X78763Y-57053D01*
X78751Y-57029D01*
X78751Y-56970D01*
X78763Y-56946D01*
X78775Y-56934D01*
X78798Y-56922D01*
X78822Y-56922D01*
X78858Y-56934D01*
X79001Y-57077D01*
X79001Y-56922D01*
X78751Y-56767D02*
X78751Y-56744D01*
X78763Y-56720D01*
X78775Y-56708D01*
X78798Y-56696D01*
X78846Y-56684D01*
X78905Y-56684D01*
X78953Y-56696D01*
X78977Y-56708D01*
X78989Y-56720D01*
X79001Y-56744D01*
X79001Y-56767D01*
X78989Y-56791D01*
X78977Y-56803D01*
X78953Y-56815D01*
X78905Y-56827D01*
X78846Y-56827D01*
X78798Y-56815D01*
X78775Y-56803D01*
X78763Y-56791D01*
X78751Y-56767D01*
X80851Y-47810D02*
X80732Y-47894D01*
X80851Y-47953D02*
X80601Y-47953D01*
X80601Y-47858D01*
X80613Y-47834D01*
X80625Y-47822D01*
X80648Y-47810D01*
X80684Y-47810D01*
X80708Y-47822D01*
X80720Y-47834D01*
X80732Y-47858D01*
X80732Y-47953D01*
X80851Y-47572D02*
X80851Y-47715D01*
X80851Y-47644D02*
X80601Y-47644D01*
X80636Y-47667D01*
X80660Y-47691D01*
X80672Y-47715D01*
X80708Y-47429D02*
X80696Y-47453D01*
X80684Y-47465D01*
X80660Y-47477D01*
X80648Y-47477D01*
X80625Y-47465D01*
X80613Y-47453D01*
X80601Y-47429D01*
X80601Y-47382D01*
X80613Y-47358D01*
X80625Y-47346D01*
X80648Y-47334D01*
X80660Y-47334D01*
X80684Y-47346D01*
X80696Y-47358D01*
X80708Y-47382D01*
X80708Y-47429D01*
X80720Y-47453D01*
X80732Y-47465D01*
X80755Y-47477D01*
X80803Y-47477D01*
X80827Y-47465D01*
X80839Y-47453D01*
X80851Y-47429D01*
X80851Y-47382D01*
X80839Y-47358D01*
X80827Y-47346D01*
X80803Y-47334D01*
X80755Y-47334D01*
X80732Y-47346D01*
X80720Y-47358D01*
X80708Y-47382D01*
X78751Y-45741D02*
X78632Y-45825D01*
X78751Y-45884D02*
X78501Y-45884D01*
X78501Y-45789D01*
X78513Y-45765D01*
X78525Y-45753D01*
X78548Y-45741D01*
X78584Y-45741D01*
X78608Y-45753D01*
X78620Y-45765D01*
X78632Y-45789D01*
X78632Y-45884D01*
X78501Y-45515D02*
X78501Y-45634D01*
X78620Y-45646D01*
X78608Y-45634D01*
X78596Y-45610D01*
X78596Y-45551D01*
X78608Y-45527D01*
X78620Y-45515D01*
X78644Y-45503D01*
X78703Y-45503D01*
X78727Y-45515D01*
X78739Y-45527D01*
X78751Y-45551D01*
X78751Y-45610D01*
X78739Y-45634D01*
X78727Y-45646D01*
X60608Y-59201D02*
X60525Y-59082D01*
X60465Y-59201D02*
X60465Y-58951D01*
X60560Y-58951D01*
X60584Y-58963D01*
X60596Y-58975D01*
X60608Y-58998D01*
X60608Y-59034D01*
X60596Y-59058D01*
X60584Y-59070D01*
X60560Y-59082D01*
X60465Y-59082D01*
X60846Y-59201D02*
X60703Y-59201D01*
X60775Y-59201D02*
X60775Y-58951D01*
X60751Y-58986D01*
X60727Y-59010D01*
X60703Y-59022D01*
X62951Y-41791D02*
X62832Y-41875D01*
X62951Y-41934D02*
X62701Y-41934D01*
X62701Y-41839D01*
X62713Y-41815D01*
X62725Y-41803D01*
X62748Y-41791D01*
X62784Y-41791D01*
X62808Y-41803D01*
X62820Y-41815D01*
X62832Y-41839D01*
X62832Y-41934D01*
X62701Y-41577D02*
X62701Y-41625D01*
X62713Y-41648D01*
X62725Y-41660D01*
X62760Y-41684D01*
X62808Y-41696D01*
X62903Y-41696D01*
X62927Y-41684D01*
X62939Y-41672D01*
X62951Y-41648D01*
X62951Y-41601D01*
X62939Y-41577D01*
X62927Y-41565D01*
X62903Y-41553D01*
X62844Y-41553D01*
X62820Y-41565D01*
X62808Y-41577D01*
X62796Y-41601D01*
X62796Y-41648D01*
X62808Y-41672D01*
X62820Y-41684D01*
X62844Y-41696D01*
X60608Y-58651D02*
X60525Y-58532D01*
X60465Y-58651D02*
X60465Y-58401D01*
X60560Y-58401D01*
X60584Y-58413D01*
X60596Y-58425D01*
X60608Y-58448D01*
X60608Y-58484D01*
X60596Y-58508D01*
X60584Y-58520D01*
X60560Y-58532D01*
X60465Y-58532D01*
X60703Y-58425D02*
X60715Y-58413D01*
X60739Y-58401D01*
X60798Y-58401D01*
X60822Y-58413D01*
X60834Y-58425D01*
X60846Y-58448D01*
X60846Y-58472D01*
X60834Y-58508D01*
X60691Y-58651D01*
X60846Y-58651D01*
X71958Y-55801D02*
X71875Y-55682D01*
X71815Y-55801D02*
X71815Y-55551D01*
X71910Y-55551D01*
X71934Y-55563D01*
X71946Y-55575D01*
X71958Y-55598D01*
X71958Y-55634D01*
X71946Y-55658D01*
X71934Y-55670D01*
X71910Y-55682D01*
X71815Y-55682D01*
X72172Y-55634D02*
X72172Y-55801D01*
X72113Y-55539D02*
X72053Y-55717D01*
X72208Y-55717D01*
X64439Y-50251D02*
X64355Y-50132D01*
X64296Y-50251D02*
X64296Y-50001D01*
X64391Y-50001D01*
X64415Y-50013D01*
X64427Y-50025D01*
X64439Y-50048D01*
X64439Y-50084D01*
X64427Y-50108D01*
X64415Y-50120D01*
X64391Y-50132D01*
X64296Y-50132D01*
X64677Y-50251D02*
X64534Y-50251D01*
X64605Y-50251D02*
X64605Y-50001D01*
X64582Y-50036D01*
X64558Y-50060D01*
X64534Y-50072D01*
X64903Y-50001D02*
X64784Y-50001D01*
X64772Y-50120D01*
X64784Y-50108D01*
X64808Y-50096D01*
X64867Y-50096D01*
X64891Y-50108D01*
X64903Y-50120D01*
X64915Y-50144D01*
X64915Y-50203D01*
X64903Y-50227D01*
X64891Y-50239D01*
X64867Y-50251D01*
X64808Y-50251D01*
X64784Y-50239D01*
X64772Y-50227D01*
X72158Y-53101D02*
X72075Y-52982D01*
X72015Y-53101D02*
X72015Y-52851D01*
X72110Y-52851D01*
X72134Y-52863D01*
X72146Y-52875D01*
X72158Y-52898D01*
X72158Y-52934D01*
X72146Y-52958D01*
X72134Y-52970D01*
X72110Y-52982D01*
X72015Y-52982D01*
X72241Y-52851D02*
X72396Y-52851D01*
X72313Y-52946D01*
X72348Y-52946D01*
X72372Y-52958D01*
X72384Y-52970D01*
X72396Y-52994D01*
X72396Y-53053D01*
X72384Y-53077D01*
X72372Y-53089D01*
X72348Y-53101D01*
X72277Y-53101D01*
X72253Y-53089D01*
X72241Y-53077D01*
X64439Y-50701D02*
X64355Y-50582D01*
X64296Y-50701D02*
X64296Y-50451D01*
X64391Y-50451D01*
X64415Y-50463D01*
X64427Y-50475D01*
X64439Y-50498D01*
X64439Y-50534D01*
X64427Y-50558D01*
X64415Y-50570D01*
X64391Y-50582D01*
X64296Y-50582D01*
X64677Y-50701D02*
X64534Y-50701D01*
X64605Y-50701D02*
X64605Y-50451D01*
X64582Y-50486D01*
X64558Y-50510D01*
X64534Y-50522D01*
X64891Y-50534D02*
X64891Y-50701D01*
X64832Y-50439D02*
X64772Y-50617D01*
X64927Y-50617D01*
X81101Y-42341D02*
X81101Y-42460D01*
X80851Y-42460D01*
X81101Y-42246D02*
X81101Y-42198D01*
X81089Y-42175D01*
X81077Y-42163D01*
X81041Y-42139D01*
X80994Y-42127D01*
X80898Y-42127D01*
X80875Y-42139D01*
X80863Y-42151D01*
X80851Y-42175D01*
X80851Y-42222D01*
X80863Y-42246D01*
X80875Y-42258D01*
X80898Y-42270D01*
X80958Y-42270D01*
X80982Y-42258D01*
X80994Y-42246D01*
X81005Y-42222D01*
X81005Y-42175D01*
X80994Y-42151D01*
X80982Y-42139D01*
X80958Y-42127D01*
X73908Y-54901D02*
X73789Y-54901D01*
X73789Y-54651D01*
X74110Y-54651D02*
X73991Y-54651D01*
X73979Y-54770D01*
X73991Y-54758D01*
X74015Y-54746D01*
X74075Y-54746D01*
X74098Y-54758D01*
X74110Y-54770D01*
X74122Y-54794D01*
X74122Y-54853D01*
X74110Y-54877D01*
X74098Y-54889D01*
X74075Y-54901D01*
X74015Y-54901D01*
X73991Y-54889D01*
X73979Y-54877D01*
X62339Y-47527D02*
X62327Y-47539D01*
X62291Y-47551D01*
X62267Y-47551D01*
X62232Y-47539D01*
X62208Y-47515D01*
X62196Y-47491D01*
X62184Y-47444D01*
X62184Y-47408D01*
X62196Y-47360D01*
X62208Y-47336D01*
X62232Y-47313D01*
X62267Y-47301D01*
X62291Y-47301D01*
X62327Y-47313D01*
X62339Y-47325D01*
X62577Y-47551D02*
X62434Y-47551D01*
X62505Y-47551D02*
X62505Y-47301D01*
X62482Y-47336D01*
X62458Y-47360D01*
X62434Y-47372D01*
X62732Y-47301D02*
X62755Y-47301D01*
X62779Y-47313D01*
X62791Y-47325D01*
X62803Y-47348D01*
X62815Y-47396D01*
X62815Y-47455D01*
X62803Y-47503D01*
X62791Y-47527D01*
X62779Y-47539D01*
X62755Y-47551D01*
X62732Y-47551D01*
X62708Y-47539D01*
X62696Y-47527D01*
X62684Y-47503D01*
X62672Y-47455D01*
X62672Y-47396D01*
X62684Y-47348D01*
X62696Y-47325D01*
X62708Y-47313D01*
X62732Y-47301D01*
X65239Y-46977D02*
X65227Y-46989D01*
X65191Y-47001D01*
X65167Y-47001D01*
X65132Y-46989D01*
X65108Y-46965D01*
X65096Y-46941D01*
X65084Y-46894D01*
X65084Y-46858D01*
X65096Y-46810D01*
X65108Y-46786D01*
X65132Y-46763D01*
X65167Y-46751D01*
X65191Y-46751D01*
X65227Y-46763D01*
X65239Y-46775D01*
X65334Y-46775D02*
X65346Y-46763D01*
X65370Y-46751D01*
X65429Y-46751D01*
X65453Y-46763D01*
X65465Y-46775D01*
X65477Y-46798D01*
X65477Y-46822D01*
X65465Y-46858D01*
X65322Y-47001D01*
X65477Y-47001D01*
X65560Y-46751D02*
X65715Y-46751D01*
X65632Y-46846D01*
X65667Y-46846D01*
X65691Y-46858D01*
X65703Y-46870D01*
X65715Y-46894D01*
X65715Y-46953D01*
X65703Y-46977D01*
X65691Y-46989D01*
X65667Y-47001D01*
X65596Y-47001D01*
X65572Y-46989D01*
X65560Y-46977D01*
X79401Y-58834D02*
X79151Y-58834D01*
X79151Y-58739D01*
X79163Y-58715D01*
X79175Y-58703D01*
X79198Y-58691D01*
X79234Y-58691D01*
X79258Y-58703D01*
X79270Y-58715D01*
X79282Y-58739D01*
X79282Y-58834D01*
X79151Y-58608D02*
X79151Y-58441D01*
X79401Y-58548D01*
X77451Y-40484D02*
X77201Y-40484D01*
X77201Y-40389D01*
X77213Y-40365D01*
X77225Y-40353D01*
X77248Y-40341D01*
X77284Y-40341D01*
X77308Y-40353D01*
X77320Y-40365D01*
X77332Y-40389D01*
X77332Y-40484D01*
X77451Y-40222D02*
X77451Y-40175D01*
X77439Y-40151D01*
X77427Y-40139D01*
X77391Y-40115D01*
X77344Y-40103D01*
X77248Y-40103D01*
X77225Y-40115D01*
X77213Y-40127D01*
X77201Y-40151D01*
X77201Y-40198D01*
X77213Y-40222D01*
X77225Y-40234D01*
X77248Y-40246D01*
X77308Y-40246D01*
X77332Y-40234D01*
X77344Y-40222D01*
X77355Y-40198D01*
X77355Y-40151D01*
X77344Y-40127D01*
X77332Y-40115D01*
X77308Y-40103D01*
X77201Y-39884D02*
X76951Y-39884D01*
X76951Y-39789D01*
X76963Y-39765D01*
X76975Y-39753D01*
X76998Y-39741D01*
X77034Y-39741D01*
X77058Y-39753D01*
X77070Y-39765D01*
X77082Y-39789D01*
X77082Y-39884D01*
X77058Y-39598D02*
X77046Y-39622D01*
X77034Y-39634D01*
X77010Y-39646D01*
X76998Y-39646D01*
X76975Y-39634D01*
X76963Y-39622D01*
X76951Y-39598D01*
X76951Y-39551D01*
X76963Y-39527D01*
X76975Y-39515D01*
X76998Y-39503D01*
X77010Y-39503D01*
X77034Y-39515D01*
X77046Y-39527D01*
X77058Y-39551D01*
X77058Y-39598D01*
X77070Y-39622D01*
X77082Y-39634D01*
X77105Y-39646D01*
X77153Y-39646D01*
X77177Y-39634D01*
X77189Y-39622D01*
X77201Y-39598D01*
X77201Y-39551D01*
X77189Y-39527D01*
X77177Y-39515D01*
X77153Y-39503D01*
X77105Y-39503D01*
X77082Y-39515D01*
X77070Y-39527D01*
X77058Y-39551D01*
X78801Y-58834D02*
X78551Y-58834D01*
X78551Y-58739D01*
X78563Y-58715D01*
X78575Y-58703D01*
X78598Y-58691D01*
X78634Y-58691D01*
X78658Y-58703D01*
X78670Y-58715D01*
X78682Y-58739D01*
X78682Y-58834D01*
X78551Y-58477D02*
X78551Y-58525D01*
X78563Y-58548D01*
X78575Y-58560D01*
X78610Y-58584D01*
X78658Y-58596D01*
X78753Y-58596D01*
X78777Y-58584D01*
X78789Y-58572D01*
X78801Y-58548D01*
X78801Y-58501D01*
X78789Y-58477D01*
X78777Y-58465D01*
X78753Y-58453D01*
X78694Y-58453D01*
X78670Y-58465D01*
X78658Y-58477D01*
X78646Y-58501D01*
X78646Y-58548D01*
X78658Y-58572D01*
X78670Y-58584D01*
X78694Y-58596D01*
X86341Y-40020D02*
X86258Y-40020D01*
X86258Y-40151D02*
X86258Y-39901D01*
X86377Y-39901D01*
X86472Y-40151D02*
X86472Y-39901D01*
X86532Y-39901D01*
X86567Y-39913D01*
X86591Y-39936D01*
X86603Y-39960D01*
X86615Y-40008D01*
X86615Y-40044D01*
X86603Y-40091D01*
X86591Y-40115D01*
X86567Y-40139D01*
X86532Y-40151D01*
X86472Y-40151D01*
X86853Y-40151D02*
X86710Y-40151D01*
X86782Y-40151D02*
X86782Y-39901D01*
X86758Y-39936D01*
X86734Y-39960D01*
X86710Y-39972D01*
X86341Y-58969D02*
X86258Y-58969D01*
X86258Y-59100D02*
X86258Y-58850D01*
X86377Y-58850D01*
X86472Y-59100D02*
X86472Y-58850D01*
X86532Y-58850D01*
X86567Y-58861D01*
X86591Y-58885D01*
X86603Y-58909D01*
X86615Y-58957D01*
X86615Y-58992D01*
X86603Y-59040D01*
X86591Y-59064D01*
X86567Y-59088D01*
X86532Y-59100D01*
X86472Y-59100D01*
X86698Y-58850D02*
X86853Y-58850D01*
X86770Y-58945D01*
X86805Y-58945D01*
X86829Y-58957D01*
X86841Y-58969D01*
X86853Y-58992D01*
X86853Y-59052D01*
X86841Y-59076D01*
X86829Y-59088D01*
X86805Y-59100D01*
X86734Y-59100D01*
X86710Y-59088D01*
X86698Y-59076D01*
X57741Y-58969D02*
X57658Y-58969D01*
X57658Y-59100D02*
X57658Y-58850D01*
X57777Y-58850D01*
X57872Y-59100D02*
X57872Y-58850D01*
X57932Y-58850D01*
X57967Y-58861D01*
X57991Y-58885D01*
X58003Y-58909D01*
X58015Y-58957D01*
X58015Y-58992D01*
X58003Y-59040D01*
X57991Y-59064D01*
X57967Y-59088D01*
X57932Y-59100D01*
X57872Y-59100D01*
X58110Y-58873D02*
X58122Y-58861D01*
X58146Y-58850D01*
X58205Y-58850D01*
X58229Y-58861D01*
X58241Y-58873D01*
X58253Y-58897D01*
X58253Y-58921D01*
X58241Y-58957D01*
X58098Y-59100D01*
X58253Y-59100D01*
X77701Y-56260D02*
X77582Y-56344D01*
X77701Y-56403D02*
X77451Y-56403D01*
X77451Y-56308D01*
X77463Y-56284D01*
X77475Y-56272D01*
X77498Y-56260D01*
X77534Y-56260D01*
X77558Y-56272D01*
X77570Y-56284D01*
X77582Y-56308D01*
X77582Y-56403D01*
X77475Y-56165D02*
X77463Y-56153D01*
X77451Y-56129D01*
X77451Y-56070D01*
X77463Y-56046D01*
X77475Y-56034D01*
X77498Y-56022D01*
X77522Y-56022D01*
X77558Y-56034D01*
X77701Y-56177D01*
X77701Y-56022D01*
X77534Y-55808D02*
X77701Y-55808D01*
X77439Y-55867D02*
X77617Y-55927D01*
X77617Y-55772D01*
X69701Y-43240D02*
X69903Y-43240D01*
X69927Y-43228D01*
X69939Y-43216D01*
X69951Y-43192D01*
X69951Y-43145D01*
X69939Y-43121D01*
X69927Y-43109D01*
X69903Y-43097D01*
X69701Y-43097D01*
X69701Y-42871D02*
X69701Y-42919D01*
X69713Y-42942D01*
X69725Y-42954D01*
X69760Y-42978D01*
X69808Y-42990D01*
X69903Y-42990D01*
X69927Y-42978D01*
X69939Y-42966D01*
X69951Y-42942D01*
X69951Y-42895D01*
X69939Y-42871D01*
X69927Y-42859D01*
X69903Y-42847D01*
X69844Y-42847D01*
X69820Y-42859D01*
X69808Y-42871D01*
X69796Y-42895D01*
X69796Y-42942D01*
X69808Y-42966D01*
X69820Y-42978D01*
X69844Y-42990D01*
X62851Y-39803D02*
X62601Y-39803D01*
X62601Y-39708D01*
X62613Y-39684D01*
X62625Y-39672D01*
X62648Y-39660D01*
X62684Y-39660D01*
X62708Y-39672D01*
X62720Y-39684D01*
X62732Y-39708D01*
X62732Y-39803D01*
X62851Y-39422D02*
X62851Y-39565D01*
X62851Y-39494D02*
X62601Y-39494D01*
X62636Y-39517D01*
X62660Y-39541D01*
X62672Y-39565D01*
X62601Y-39208D02*
X62601Y-39255D01*
X62613Y-39279D01*
X62625Y-39291D01*
X62660Y-39315D01*
X62708Y-39327D01*
X62803Y-39327D01*
X62827Y-39315D01*
X62839Y-39303D01*
X62851Y-39279D01*
X62851Y-39232D01*
X62839Y-39208D01*
X62827Y-39196D01*
X62803Y-39184D01*
X62744Y-39184D01*
X62720Y-39196D01*
X62708Y-39208D01*
X62696Y-39232D01*
X62696Y-39279D01*
X62708Y-39303D01*
X62720Y-39315D01*
X62744Y-39327D01*
X61959Y-56951D02*
X61959Y-57153D01*
X61971Y-57177D01*
X61983Y-57189D01*
X62007Y-57201D01*
X62054Y-57201D01*
X62078Y-57189D01*
X62090Y-57177D01*
X62102Y-57153D01*
X62102Y-56951D01*
X62197Y-56951D02*
X62364Y-56951D01*
X62257Y-57201D01*
G54D13*
X58320Y-55417D02*
X58306Y-55445D01*
X58306Y-55487D01*
X58320Y-55529D01*
X58348Y-55557D01*
X58376Y-55571D01*
X58432Y-55585D01*
X58474Y-55585D01*
X58531Y-55571D01*
X58559Y-55557D01*
X58587Y-55529D01*
X58601Y-55487D01*
X58601Y-55459D01*
X58587Y-55417D01*
X58573Y-55403D01*
X58474Y-55403D01*
X58474Y-55459D01*
X58601Y-55276D02*
X58306Y-55276D01*
X58306Y-55164D01*
X58320Y-55135D01*
X58334Y-55121D01*
X58362Y-55107D01*
X58404Y-55107D01*
X58432Y-55121D01*
X58446Y-55135D01*
X58460Y-55164D01*
X58460Y-55276D01*
X58587Y-54995D02*
X58601Y-54953D01*
X58601Y-54882D01*
X58587Y-54854D01*
X58573Y-54840D01*
X58545Y-54826D01*
X58517Y-54826D01*
X58488Y-54840D01*
X58474Y-54854D01*
X58460Y-54882D01*
X58446Y-54939D01*
X58432Y-54967D01*
X58418Y-54981D01*
X58390Y-54995D01*
X58362Y-54995D01*
X58334Y-54981D01*
X58320Y-54967D01*
X58306Y-54939D01*
X58306Y-54868D01*
X58320Y-54826D01*
X58517Y-54489D02*
X58517Y-54348D01*
X58601Y-54517D02*
X58306Y-54418D01*
X58601Y-54320D01*
X58601Y-54221D02*
X58306Y-54221D01*
X58601Y-54053D01*
X58306Y-54053D01*
X58306Y-53954D02*
X58306Y-53786D01*
X58601Y-53870D02*
X58306Y-53870D01*
G54D12*
X65901Y-49035D02*
X65651Y-49035D01*
X65901Y-48892D01*
X65651Y-48892D01*
X65651Y-48809D02*
X65651Y-48666D01*
X65901Y-48738D02*
X65651Y-48738D01*
X65901Y-48452D02*
X65901Y-48595D01*
X65901Y-48523D02*
X65651Y-48523D01*
X65686Y-48547D01*
X65710Y-48571D01*
X65722Y-48595D01*
X78709Y-53651D02*
X78709Y-53853D01*
X78721Y-53877D01*
X78733Y-53889D01*
X78757Y-53901D01*
X78804Y-53901D01*
X78828Y-53889D01*
X78840Y-53877D01*
X78852Y-53853D01*
X78852Y-53651D01*
X79102Y-53901D02*
X78959Y-53901D01*
X79030Y-53901D02*
X79030Y-53651D01*
X79007Y-53686D01*
X78983Y-53710D01*
X78959Y-53722D01*
X58315Y-47801D02*
X58315Y-47551D01*
X58410Y-47551D01*
X58434Y-47563D01*
X58446Y-47575D01*
X58458Y-47598D01*
X58458Y-47634D01*
X58446Y-47658D01*
X58434Y-47670D01*
X58410Y-47682D01*
X58315Y-47682D01*
X58541Y-47551D02*
X58696Y-47551D01*
X58613Y-47646D01*
X58648Y-47646D01*
X58672Y-47658D01*
X58684Y-47670D01*
X58696Y-47694D01*
X58696Y-47753D01*
X58684Y-47777D01*
X58672Y-47789D01*
X58648Y-47801D01*
X58577Y-47801D01*
X58553Y-47789D01*
X58541Y-47777D01*
X58565Y-43301D02*
X58565Y-43051D01*
X58660Y-43051D01*
X58684Y-43063D01*
X58696Y-43075D01*
X58708Y-43098D01*
X58708Y-43134D01*
X58696Y-43158D01*
X58684Y-43170D01*
X58660Y-43182D01*
X58565Y-43182D01*
X58922Y-43134D02*
X58922Y-43301D01*
X58863Y-43039D02*
X58803Y-43217D01*
X58958Y-43217D01*
X80201Y-43460D02*
X80201Y-43579D01*
X79951Y-43579D01*
X80201Y-43246D02*
X80201Y-43389D01*
X80201Y-43317D02*
X79951Y-43317D01*
X79986Y-43341D01*
X80010Y-43365D01*
X80022Y-43389D01*
X79951Y-43091D02*
X79951Y-43067D01*
X79963Y-43044D01*
X79975Y-43032D01*
X79998Y-43020D01*
X80046Y-43008D01*
X80105Y-43008D01*
X80153Y-43020D01*
X80177Y-43032D01*
X80189Y-43044D01*
X80201Y-43067D01*
X80201Y-43091D01*
X80189Y-43115D01*
X80177Y-43127D01*
X80153Y-43139D01*
X80105Y-43151D01*
X80046Y-43151D01*
X79998Y-43139D01*
X79975Y-43127D01*
X79963Y-43115D01*
X79951Y-43091D01*
X72301Y-49752D02*
X72551Y-49585D01*
X72301Y-49585D02*
X72551Y-49752D01*
X72325Y-49502D02*
X72313Y-49490D01*
X72301Y-49466D01*
X72301Y-49407D01*
X72313Y-49383D01*
X72325Y-49371D01*
X72348Y-49359D01*
X72372Y-49359D01*
X72408Y-49371D01*
X72551Y-49514D01*
X72551Y-49359D01*
X62908Y-44201D02*
X62825Y-44082D01*
X62765Y-44201D02*
X62765Y-43951D01*
X62860Y-43951D01*
X62884Y-43963D01*
X62896Y-43975D01*
X62908Y-43998D01*
X62908Y-44034D01*
X62896Y-44058D01*
X62884Y-44070D01*
X62860Y-44082D01*
X62765Y-44082D01*
X62991Y-43951D02*
X63158Y-43951D01*
X63051Y-44201D01*
X61359Y-44801D02*
X61359Y-45003D01*
X61371Y-45027D01*
X61383Y-45039D01*
X61407Y-45051D01*
X61454Y-45051D01*
X61478Y-45039D01*
X61490Y-45027D01*
X61502Y-45003D01*
X61502Y-44801D01*
X61609Y-44825D02*
X61621Y-44813D01*
X61645Y-44801D01*
X61704Y-44801D01*
X61728Y-44813D01*
X61740Y-44825D01*
X61752Y-44848D01*
X61752Y-44872D01*
X61740Y-44908D01*
X61597Y-45051D01*
X61752Y-45051D01*
X61576Y-46975D02*
X61552Y-46963D01*
X61528Y-46939D01*
X61492Y-46903D01*
X61469Y-46891D01*
X61445Y-46891D01*
X61457Y-46951D02*
X61433Y-46939D01*
X61409Y-46915D01*
X61397Y-46867D01*
X61397Y-46784D01*
X61409Y-46736D01*
X61433Y-46713D01*
X61457Y-46701D01*
X61504Y-46701D01*
X61528Y-46713D01*
X61552Y-46736D01*
X61564Y-46784D01*
X61564Y-46867D01*
X61552Y-46915D01*
X61528Y-46939D01*
X61504Y-46951D01*
X61457Y-46951D01*
X61647Y-46701D02*
X61802Y-46701D01*
X61719Y-46796D01*
X61754Y-46796D01*
X61778Y-46808D01*
X61790Y-46820D01*
X61802Y-46844D01*
X61802Y-46903D01*
X61790Y-46927D01*
X61778Y-46939D01*
X61754Y-46951D01*
X61683Y-46951D01*
X61659Y-46939D01*
X61647Y-46927D01*
X61626Y-42875D02*
X61602Y-42863D01*
X61578Y-42839D01*
X61542Y-42803D01*
X61519Y-42791D01*
X61495Y-42791D01*
X61507Y-42851D02*
X61483Y-42839D01*
X61459Y-42815D01*
X61447Y-42767D01*
X61447Y-42684D01*
X61459Y-42636D01*
X61483Y-42613D01*
X61507Y-42601D01*
X61554Y-42601D01*
X61578Y-42613D01*
X61602Y-42636D01*
X61614Y-42684D01*
X61614Y-42767D01*
X61602Y-42815D01*
X61578Y-42839D01*
X61554Y-42851D01*
X61507Y-42851D01*
X61709Y-42625D02*
X61721Y-42613D01*
X61745Y-42601D01*
X61804Y-42601D01*
X61828Y-42613D01*
X61840Y-42625D01*
X61852Y-42648D01*
X61852Y-42672D01*
X61840Y-42708D01*
X61697Y-42851D01*
X61852Y-42851D01*
X59389Y-57777D02*
X59377Y-57789D01*
X59341Y-57801D01*
X59317Y-57801D01*
X59282Y-57789D01*
X59258Y-57765D01*
X59246Y-57741D01*
X59234Y-57694D01*
X59234Y-57658D01*
X59246Y-57610D01*
X59258Y-57586D01*
X59282Y-57563D01*
X59317Y-57551D01*
X59341Y-57551D01*
X59377Y-57563D01*
X59389Y-57575D01*
X59627Y-57801D02*
X59484Y-57801D01*
X59555Y-57801D02*
X59555Y-57551D01*
X59532Y-57586D01*
X59508Y-57610D01*
X59484Y-57622D01*
X59853Y-57551D02*
X59734Y-57551D01*
X59722Y-57670D01*
X59734Y-57658D01*
X59758Y-57646D01*
X59817Y-57646D01*
X59841Y-57658D01*
X59853Y-57670D01*
X59865Y-57694D01*
X59865Y-57753D01*
X59853Y-57777D01*
X59841Y-57789D01*
X59817Y-57801D01*
X59758Y-57801D01*
X59734Y-57789D01*
X59722Y-57777D01*
%LPC*%
G54D16*
X84252Y-41702D03*
X86347Y-41702D03*
X86347Y-43797D03*
G54D17*
X85300Y-42750D03*
G54D18*
X85300Y-43962D03*
X85300Y-41537D03*
G54D16*
X84252Y-43797D03*
G54D19*
X85000Y-46000D03*
X64200Y-58200D03*
X61450Y-41000D03*
X85000Y-55000D03*
G54D10*
G36*
X65184Y-45495D02*
X64903Y-45279D01*
X64903Y-44120D01*
X65184Y-43904D01*
X65184Y-45495D01*
X65184Y-45495D01*
G37*
G36*
X66415Y-43904D02*
X66696Y-44120D01*
X66696Y-45279D01*
X66415Y-45495D01*
X66415Y-43904D01*
X66415Y-43904D01*
G37*
G54D20*
X65329Y-44086D03*
X65329Y-45313D03*
X66270Y-45313D03*
X66270Y-44086D03*
G54D10*
G36*
X64943Y-44184D02*
X65217Y-43910D01*
X65546Y-44239D01*
X65272Y-44513D01*
X64943Y-44184D01*
X64943Y-44184D01*
G37*
G54D21*
X65105Y-44700D03*
G54D10*
G36*
X65217Y-45489D02*
X64943Y-45215D01*
X65272Y-44886D01*
X65546Y-45160D01*
X65217Y-45489D01*
X65217Y-45489D01*
G37*
G36*
X66327Y-44513D02*
X66053Y-44239D01*
X66382Y-43910D01*
X66656Y-44184D01*
X66327Y-44513D01*
X66327Y-44513D01*
G37*
G36*
X66053Y-45160D02*
X66327Y-44886D01*
X66656Y-45215D01*
X66382Y-45489D01*
X66053Y-45160D01*
X66053Y-45160D01*
G37*
G54D21*
X66494Y-44700D03*
G54D22*
X58704Y-59100D03*
X59295Y-59100D03*
X58704Y-58550D03*
X59295Y-58550D03*
G54D23*
X64250Y-41575D03*
X64250Y-42324D03*
G54D24*
X66475Y-41400D03*
X67224Y-41400D03*
G54D25*
X76195Y-44070D03*
G54D26*
X76323Y-43600D03*
X76323Y-43129D03*
X75476Y-43129D03*
X75476Y-43600D03*
X75476Y-44070D03*
G54D27*
X75711Y-55750D03*
X74688Y-55750D03*
G54D28*
X63544Y-43704D03*
X63800Y-43704D03*
X64055Y-43704D03*
X64055Y-42995D03*
X63800Y-42995D03*
X63544Y-42995D03*
G54D29*
X78316Y-44298D03*
X78572Y-44298D03*
X78827Y-44298D03*
X79083Y-44298D03*
X79083Y-42801D03*
X78827Y-42801D03*
X78572Y-42801D03*
X78316Y-42801D03*
G54D30*
X79448Y-43933D03*
X79448Y-43677D03*
X79448Y-43422D03*
X79448Y-43166D03*
X77951Y-43166D03*
X77951Y-43422D03*
X77951Y-43677D03*
X77951Y-43933D03*
G54D31*
X78700Y-43550D03*
G54D32*
X76688Y-47266D03*
X76688Y-47522D03*
X76688Y-47777D03*
X76688Y-48033D03*
X79011Y-48033D03*
X79011Y-47777D03*
X79011Y-47522D03*
X79011Y-47266D03*
G54D33*
X82150Y-48787D03*
X81650Y-48787D03*
X81150Y-48787D03*
X80650Y-48787D03*
X80650Y-50912D03*
X81150Y-50912D03*
X81650Y-50912D03*
X82150Y-50912D03*
G54D34*
X64424Y-48534D03*
X64050Y-48534D03*
X63675Y-48534D03*
X63675Y-49565D03*
X64050Y-49565D03*
X64424Y-49565D03*
X64925Y-42665D03*
X65300Y-42665D03*
X65674Y-42665D03*
X65674Y-41634D03*
X65300Y-41634D03*
X64925Y-41634D03*
G54D35*
X59543Y-48674D03*
X59543Y-47925D03*
X58756Y-48300D03*
G54D36*
X77050Y-44094D03*
X77050Y-44601D03*
X82950Y-43755D03*
X82950Y-43248D03*
X81500Y-43755D03*
X81500Y-43248D03*
G54D37*
X77405Y-43600D03*
X76898Y-43600D03*
G54D36*
X83400Y-42744D03*
X83400Y-43251D03*
G54D37*
X82455Y-43800D03*
X81948Y-43800D03*
G54D38*
X60032Y-48700D03*
X60367Y-48700D03*
G54D39*
X78935Y-51900D03*
X79564Y-51900D03*
G54D40*
X73544Y-52254D03*
X73800Y-52254D03*
X74055Y-52254D03*
X74055Y-51545D03*
X73800Y-51545D03*
X73544Y-51545D03*
G54D37*
X63794Y-47750D03*
X64301Y-47750D03*
G54D36*
X82150Y-51594D03*
X82150Y-52101D03*
G54D41*
X63298Y-45750D03*
X64401Y-45750D03*
G54D39*
X83000Y-56735D03*
X83000Y-57364D03*
X85000Y-56735D03*
X85000Y-57364D03*
X82000Y-56735D03*
X82000Y-57364D03*
X81000Y-56735D03*
X81000Y-57364D03*
X80000Y-56735D03*
X80000Y-57364D03*
X78550Y-55635D03*
X78550Y-56264D03*
X84000Y-56735D03*
X84000Y-57364D03*
X77650Y-45564D03*
X77650Y-44935D03*
X79650Y-45564D03*
X79650Y-44935D03*
X74950Y-54235D03*
X74950Y-54864D03*
X79235Y-50800D03*
X79864Y-50800D03*
X75950Y-49564D03*
X75950Y-48935D03*
X67264Y-42050D03*
X66635Y-42050D03*
X61050Y-57235D03*
X61050Y-57864D03*
G54D42*
X71856Y-59900D03*
X71462Y-59900D03*
X72250Y-59900D03*
X72643Y-59900D03*
X73037Y-59900D03*
X72643Y-39100D03*
X73037Y-39100D03*
X72250Y-39100D03*
X71856Y-39100D03*
X71462Y-39100D03*
X57600Y-49106D03*
X57600Y-48712D03*
X57600Y-49500D03*
X57600Y-49893D03*
X57600Y-50287D03*
X86900Y-49893D03*
X86900Y-50287D03*
X86900Y-49500D03*
X86900Y-49106D03*
X86900Y-48712D03*
G54D43*
X57914Y-42614D03*
X57914Y-39485D03*
X59685Y-42614D03*
X59685Y-39485D03*
G54D37*
X80505Y-42750D03*
X79998Y-42750D03*
X81055Y-43800D03*
X80548Y-43800D03*
G54D36*
X79000Y-46805D03*
X79000Y-46298D03*
G54D37*
X66005Y-52800D03*
X65498Y-52800D03*
G54D36*
X64900Y-49605D03*
X64900Y-49098D03*
X78200Y-45405D03*
X78200Y-44898D03*
G54D37*
X71744Y-54800D03*
X72251Y-54800D03*
G54D36*
X74150Y-55905D03*
X74150Y-55398D03*
X76250Y-55905D03*
X76250Y-55398D03*
G54D37*
X73044Y-50450D03*
X73551Y-50450D03*
X73855Y-48650D03*
X73348Y-48650D03*
X73205Y-53450D03*
X72698Y-53450D03*
G54D36*
X73700Y-53344D03*
X73700Y-53851D03*
G54D37*
X73205Y-53900D03*
X72698Y-53900D03*
G54D36*
X75500Y-54194D03*
X75500Y-54701D03*
G54D37*
X78894Y-51350D03*
X79401Y-51350D03*
G54D36*
X76500Y-49605D03*
X76500Y-49098D03*
G54D37*
X73205Y-54350D03*
X72698Y-54350D03*
X69944Y-42300D03*
X70451Y-42300D03*
G54D36*
X68550Y-44294D03*
X68550Y-44801D03*
X79100Y-45405D03*
X79100Y-44898D03*
X63650Y-41294D03*
X63650Y-41801D03*
G54D37*
X79605Y-42250D03*
X79098Y-42250D03*
G54D36*
X76450Y-54244D03*
X76450Y-54751D03*
G54D44*
X84500Y-57017D03*
X84500Y-56682D03*
X83500Y-57017D03*
X83500Y-56682D03*
X82500Y-57017D03*
X82500Y-56682D03*
X80500Y-57017D03*
X80500Y-56682D03*
X79500Y-57017D03*
X79500Y-56682D03*
X78000Y-57167D03*
X78000Y-56832D03*
X78450Y-56832D03*
X78450Y-57167D03*
X81150Y-48117D03*
X81150Y-47782D03*
X78650Y-44882D03*
X78650Y-45217D03*
G54D38*
X60167Y-59100D03*
X59832Y-59100D03*
G54D44*
X63200Y-41617D03*
X63200Y-41282D03*
G54D38*
X60167Y-58550D03*
X59832Y-58550D03*
X72167Y-55250D03*
X71832Y-55250D03*
X63682Y-50150D03*
X64017Y-50150D03*
X73017Y-53000D03*
X72682Y-53000D03*
X64017Y-50600D03*
X63682Y-50600D03*
G54D36*
X81000Y-43305D03*
X81000Y-42798D03*
G54D37*
X73694Y-54350D03*
X74201Y-54350D03*
G54D41*
X63298Y-46950D03*
X64401Y-46950D03*
X66501Y-46150D03*
X65398Y-46150D03*
G54D45*
X80000Y-59000D03*
G54D46*
X81000Y-59000D03*
X82000Y-59000D03*
X83000Y-59000D03*
X84000Y-59000D03*
X85000Y-59000D03*
G54D45*
X85000Y-40000D03*
G54D46*
X84000Y-40000D03*
X83000Y-40000D03*
X82000Y-40000D03*
X81000Y-40000D03*
X80000Y-40000D03*
X79000Y-40000D03*
X78000Y-40000D03*
G54D45*
X76400Y-40000D03*
G54D46*
X75400Y-40000D03*
X74400Y-40000D03*
X73400Y-40000D03*
X72400Y-40000D03*
X71400Y-40000D03*
X70400Y-40000D03*
X69400Y-40000D03*
X68400Y-40000D03*
X67400Y-40000D03*
G54D45*
X71000Y-59000D03*
G54D46*
X72000Y-59000D03*
X73000Y-59000D03*
X74000Y-59000D03*
X75000Y-59000D03*
X76000Y-59000D03*
X77000Y-59000D03*
X78000Y-59000D03*
G54D47*
X86550Y-39450D03*
X86550Y-59550D03*
X57950Y-59550D03*
G54D44*
X78000Y-56267D03*
X78000Y-55932D03*
G54D48*
X69408Y-43433D03*
X69408Y-43177D03*
X69408Y-42922D03*
X69408Y-42666D03*
G54D49*
X69083Y-42341D03*
X68827Y-42341D03*
X68572Y-42341D03*
X68316Y-42341D03*
G54D48*
X67991Y-42666D03*
X67991Y-42922D03*
X67991Y-43177D03*
X67991Y-43433D03*
G54D49*
X68316Y-43758D03*
X68572Y-43758D03*
X68827Y-43758D03*
X69083Y-43758D03*
G54D50*
X68700Y-43050D03*
G54D51*
X65361Y-40653D03*
X65105Y-40653D03*
X64850Y-40653D03*
X64594Y-40653D03*
X64338Y-40653D03*
G54D52*
X66070Y-40603D03*
G54D53*
X66346Y-39600D03*
G54D54*
X65322Y-39600D03*
X64377Y-39600D03*
G54D53*
X63353Y-39600D03*
G54D52*
X63629Y-40603D03*
G54D55*
X57801Y-56400D03*
X58234Y-56400D03*
X58667Y-56400D03*
X59100Y-56400D03*
X59533Y-56400D03*
X59966Y-56400D03*
X60400Y-56400D03*
X60833Y-56400D03*
X61266Y-56400D03*
X61699Y-56400D03*
X62132Y-56400D03*
G54D56*
X62840Y-55782D03*
X62840Y-55349D03*
X62840Y-54916D03*
X62840Y-54483D03*
X62840Y-54050D03*
X62840Y-53617D03*
G54D55*
X62132Y-52999D03*
X61699Y-52999D03*
X61266Y-52999D03*
X60833Y-52999D03*
X60400Y-52999D03*
X59966Y-52999D03*
X59533Y-52999D03*
X59100Y-52999D03*
X58667Y-52999D03*
X58234Y-52999D03*
X57801Y-52999D03*
G54D44*
X65350Y-48582D03*
X65350Y-48917D03*
G54D57*
X76501Y-53661D03*
X76304Y-53661D03*
X76107Y-53661D03*
X75911Y-53661D03*
X75714Y-53661D03*
X75517Y-53661D03*
X75320Y-53661D03*
X75123Y-53661D03*
X76698Y-53661D03*
X76895Y-53661D03*
X77092Y-53661D03*
X77288Y-53661D03*
X77485Y-53661D03*
X77682Y-53661D03*
X77879Y-53661D03*
X78076Y-53661D03*
G54D58*
X78361Y-53376D03*
X78361Y-53179D03*
X78361Y-52982D03*
X78361Y-52785D03*
X78361Y-52588D03*
X78361Y-52392D03*
X78361Y-52195D03*
X78361Y-51998D03*
X78361Y-51801D03*
X78361Y-51604D03*
X78361Y-51407D03*
X78361Y-51211D03*
X78361Y-51014D03*
X78361Y-50817D03*
X78361Y-50620D03*
X78361Y-50423D03*
X74838Y-53376D03*
X74838Y-53179D03*
X74838Y-52982D03*
X74838Y-52785D03*
X74838Y-52588D03*
X74838Y-52392D03*
X74838Y-52195D03*
X74838Y-51998D03*
X74838Y-51801D03*
X74838Y-51604D03*
X74838Y-51407D03*
X74838Y-51211D03*
X74838Y-51014D03*
X74838Y-50817D03*
X74838Y-50620D03*
X74838Y-50423D03*
G54D57*
X75123Y-50138D03*
X75320Y-50138D03*
X75517Y-50138D03*
X75714Y-50138D03*
X75911Y-50138D03*
X76107Y-50138D03*
X76304Y-50138D03*
X76501Y-50138D03*
X76698Y-50138D03*
X76895Y-50138D03*
X77092Y-50138D03*
X77288Y-50138D03*
X77485Y-50138D03*
X77682Y-50138D03*
X77879Y-50138D03*
X78076Y-50138D03*
G54D59*
X76600Y-51900D03*
G54D60*
X58750Y-46000D03*
X58750Y-47000D03*
X58750Y-44850D03*
X58750Y-43850D03*
G54D61*
X80050Y-44385D03*
X80050Y-43814D03*
G54D62*
X73016Y-49215D03*
X73016Y-49884D03*
X73883Y-49884D03*
X73883Y-49215D03*
G54D38*
X62467Y-44100D03*
X62132Y-44100D03*
G54D34*
X60775Y-44415D03*
X61150Y-44415D03*
X61524Y-44415D03*
X61524Y-43384D03*
X61150Y-43384D03*
X60775Y-43384D03*
G54D35*
X62393Y-46374D03*
X62393Y-45625D03*
X61606Y-46000D03*
X62106Y-42775D03*
X62106Y-43524D03*
X62893Y-43150D03*
G54D37*
X59294Y-57250D03*
X59801Y-57250D03*
M02*
