G04 (created by PCBNEW (2013-07-07 BZR 4022)-stable) date 10/27/2016 1:56:08 AM*
%MOIN*%
G04 Gerber Fmt 3.4, Leading zero omitted, Abs format*
%FSLAX34Y34*%
G01*
G70*
G90*
G04 APERTURE LIST*
%ADD10C,0.00590551*%
%ADD11C,0.230409*%
%ADD12C,0.048*%
%ADD13C,0.025685*%
%ADD14R,0.061X0.061*%
%ADD15C,0.061*%
%ADD16R,0.206X0.056*%
%ADD17C,0.0787402*%
%ADD18C,0.0737165*%
G04 APERTURE END LIST*
G54D10*
G54D11*
X85000Y-46000D03*
X64200Y-58200D03*
X61450Y-41000D03*
X85000Y-55000D03*
G54D12*
X81000Y-41000D03*
X83000Y-41000D03*
X84000Y-41000D03*
X68250Y-41450D03*
X85000Y-41000D03*
X85000Y-58200D03*
X84000Y-58200D03*
X83000Y-58200D03*
X82000Y-58200D03*
X81000Y-58200D03*
X80000Y-58200D03*
X66300Y-47250D03*
X59750Y-46000D03*
X80000Y-41000D03*
X82000Y-41000D03*
X79000Y-41000D03*
X63000Y-53000D03*
X62150Y-56400D03*
X76400Y-41000D03*
X78000Y-41000D03*
X59750Y-47000D03*
X58750Y-40950D03*
X59750Y-43850D03*
G54D13*
X71856Y-59900D03*
X71462Y-59900D03*
X72250Y-59900D03*
X72643Y-59900D03*
X73037Y-59900D03*
X72643Y-39100D03*
X73037Y-39100D03*
X72250Y-39100D03*
X71856Y-39100D03*
X71462Y-39100D03*
X57600Y-49106D03*
X57600Y-48712D03*
X57600Y-49500D03*
X57600Y-49893D03*
X57600Y-50287D03*
X86900Y-49893D03*
X86900Y-50287D03*
X86900Y-49500D03*
X86900Y-49106D03*
X86900Y-48712D03*
G54D14*
X80000Y-59000D03*
G54D15*
X81000Y-59000D03*
X82000Y-59000D03*
X83000Y-59000D03*
X84000Y-59000D03*
X85000Y-59000D03*
G54D14*
X85000Y-40000D03*
G54D15*
X84000Y-40000D03*
X83000Y-40000D03*
X82000Y-40000D03*
X81000Y-40000D03*
X80000Y-40000D03*
X79000Y-40000D03*
X78000Y-40000D03*
G54D14*
X76400Y-40000D03*
G54D15*
X75400Y-40000D03*
X74400Y-40000D03*
X73400Y-40000D03*
X72400Y-40000D03*
X71400Y-40000D03*
X70400Y-40000D03*
X69400Y-40000D03*
X68400Y-40000D03*
X67400Y-40000D03*
G54D14*
X71000Y-59000D03*
G54D15*
X72000Y-59000D03*
X73000Y-59000D03*
X74000Y-59000D03*
X75000Y-59000D03*
X76000Y-59000D03*
X77000Y-59000D03*
X78000Y-59000D03*
G54D16*
X70300Y-49800D03*
X70300Y-50800D03*
X70300Y-51800D03*
X70300Y-52800D03*
X70300Y-53800D03*
X70300Y-54800D03*
X70300Y-55800D03*
X67600Y-55800D03*
X67600Y-54800D03*
X67600Y-53800D03*
X67600Y-52800D03*
X67600Y-51800D03*
X67600Y-50800D03*
X67600Y-49800D03*
G54D17*
X86350Y-39450D03*
X86350Y-59550D03*
X57950Y-59550D03*
G54D18*
X58750Y-46000D03*
X58750Y-47000D03*
X58750Y-44850D03*
X58750Y-43850D03*
M02*
