G04 (created by PCBNEW (2013-07-07 BZR 4022)-stable) date 11/19/2016 2:14:59 AM*
%MOIN*%
G04 Gerber Fmt 3.4, Leading zero omitted, Abs format*
%FSLAX34Y34*%
G01*
G70*
G90*
G04 APERTURE LIST*
%ADD10C,0.00590551*%
%ADD11C,0.00787402*%
%ADD12C,0.005*%
%ADD13C,0.00875*%
%ADD14C,0.00738189*%
%ADD15C,0.011811*%
%ADD16C,0.0001*%
%ADD17R,0.104063X0.104063*%
%ADD18C,0.0887087*%
%ADD19R,0.313512X0.0709921*%
%ADD20C,0.232409*%
%ADD21R,0.0430394X0.0385118*%
%ADD22R,0.042252X0.117843*%
%ADD23R,0.0394961X0.0394961*%
%ADD24R,0.0552441X0.0434331*%
%ADD25R,0.0434331X0.0552441*%
%ADD26R,0.0749291X0.0398898*%
%ADD27R,0.0493386X0.0398898*%
%ADD28R,0.0473701X0.0690236*%
%ADD29R,0.0265039X0.0473701*%
%ADD30R,0.0650866X0.0257165*%
%ADD31R,0.031622X0.0690236*%
%ADD32R,0.0324094X0.0560315*%
%ADD33R,0.0355591X0.031622*%
%ADD34R,0.031622X0.0394961*%
%ADD35R,0.0394961X0.031622*%
%ADD36R,0.0473701X0.0473701*%
%ADD37R,0.0217795X0.0473701*%
%ADD38R,0.0670551X0.102488*%
%ADD39R,0.0591811X0.0690236*%
%ADD40R,0.063X0.063*%
%ADD41C,0.063*%
%ADD42C,0.0787402*%
%ADD43R,0.023748X0.0611496*%
%ADD44R,0.0906772X0.0709921*%
%ADD45R,0.0788661X0.0828031*%
%ADD46R,0.0828031X0.0828031*%
%ADD47R,0.0355591X0.0867402*%
%ADD48R,0.0867402X0.0355591*%
%ADD49R,0.0295276X0.0314961*%
%ADD50C,0.0757165*%
%ADD51R,0.0414646X0.0326063*%
%ADD52R,0.0631181X0.0552441*%
%ADD53R,0.0190236X0.0414646*%
%ADD54R,0.0414646X0.0190236*%
%ADD55R,0.175323X0.175323*%
%ADD56R,0.031622X0.0296535*%
%ADD57R,0.0296535X0.031622*%
%ADD58R,0.0219795X0.0475701*%
%ADD59R,0.0493701X0.0237795*%
%ADD60R,0.0473701X0.0217795*%
%ADD61R,0.0930394X0.0930394*%
%ADD62R,0.0394961X0.0190236*%
%ADD63R,0.0190236X0.0394961*%
%ADD64R,0.0906772X0.0906772*%
G04 APERTURE END LIST*
G54D10*
G54D11*
X58770Y-59500D02*
G75*
G03X58770Y-59500I-70J0D01*
G74*
G01*
X57850Y-57250D02*
G75*
G03X57850Y-57250I-50J0D01*
G74*
G01*
G54D12*
X82971Y-51535D02*
X83128Y-51535D01*
X83049Y-51811D02*
X83049Y-51535D01*
X83207Y-51732D02*
X83338Y-51732D01*
X83181Y-51811D02*
X83272Y-51535D01*
X83364Y-51811D01*
X83456Y-51811D02*
X83456Y-51535D01*
X83561Y-51535D01*
X83587Y-51549D01*
X83601Y-51562D01*
X83614Y-51588D01*
X83614Y-51627D01*
X83601Y-51654D01*
X83587Y-51667D01*
X83561Y-51680D01*
X83456Y-51680D01*
X83889Y-51811D02*
X83797Y-51680D01*
X83732Y-51811D02*
X83732Y-51535D01*
X83837Y-51535D01*
X83863Y-51549D01*
X83876Y-51562D01*
X83889Y-51588D01*
X83889Y-51627D01*
X83876Y-51654D01*
X83863Y-51667D01*
X83837Y-51680D01*
X83732Y-51680D01*
X84270Y-51535D02*
X84322Y-51535D01*
X84349Y-51549D01*
X84375Y-51575D01*
X84388Y-51627D01*
X84388Y-51719D01*
X84375Y-51772D01*
X84349Y-51798D01*
X84322Y-51811D01*
X84270Y-51811D01*
X84244Y-51798D01*
X84217Y-51772D01*
X84204Y-51719D01*
X84204Y-51627D01*
X84217Y-51575D01*
X84244Y-51549D01*
X84270Y-51535D01*
X84506Y-51811D02*
X84506Y-51535D01*
X84506Y-51667D02*
X84664Y-51667D01*
X84664Y-51811D02*
X84664Y-51535D01*
X84926Y-51811D02*
X84795Y-51811D01*
X84795Y-51535D01*
X85188Y-51535D02*
X85280Y-51811D01*
X85372Y-51535D01*
X85608Y-51811D02*
X85451Y-51811D01*
X85530Y-51811D02*
X85530Y-51535D01*
X85503Y-51575D01*
X85477Y-51601D01*
X85451Y-51614D01*
X85727Y-51785D02*
X85740Y-51798D01*
X85727Y-51811D01*
X85713Y-51798D01*
X85727Y-51785D01*
X85727Y-51811D01*
X85910Y-51535D02*
X85937Y-51535D01*
X85963Y-51549D01*
X85976Y-51562D01*
X85989Y-51588D01*
X86002Y-51640D01*
X86002Y-51706D01*
X85989Y-51759D01*
X85976Y-51785D01*
X85963Y-51798D01*
X85937Y-51811D01*
X85910Y-51811D01*
X85884Y-51798D01*
X85871Y-51785D01*
X85858Y-51759D01*
X85845Y-51706D01*
X85845Y-51640D01*
X85858Y-51588D01*
X85871Y-51562D01*
X85884Y-51549D01*
X85910Y-51535D01*
G54D13*
X66357Y-58940D02*
X66190Y-58940D01*
X66190Y-59202D02*
X66190Y-58702D01*
X66428Y-58702D01*
X66833Y-59202D02*
X66833Y-58940D01*
X66809Y-58892D01*
X66761Y-58869D01*
X66666Y-58869D01*
X66619Y-58892D01*
X66833Y-59178D02*
X66785Y-59202D01*
X66666Y-59202D01*
X66619Y-59178D01*
X66595Y-59130D01*
X66595Y-59083D01*
X66619Y-59035D01*
X66666Y-59011D01*
X66785Y-59011D01*
X66833Y-58988D01*
X67071Y-59202D02*
X67071Y-58869D01*
X67071Y-58964D02*
X67095Y-58916D01*
X67119Y-58892D01*
X67166Y-58869D01*
X67214Y-58869D01*
X67595Y-59202D02*
X67595Y-58940D01*
X67571Y-58892D01*
X67523Y-58869D01*
X67428Y-58869D01*
X67380Y-58892D01*
X67595Y-59178D02*
X67547Y-59202D01*
X67428Y-59202D01*
X67380Y-59178D01*
X67357Y-59130D01*
X67357Y-59083D01*
X67380Y-59035D01*
X67428Y-59011D01*
X67547Y-59011D01*
X67595Y-58988D01*
X68047Y-59202D02*
X68047Y-58702D01*
X68047Y-59178D02*
X68000Y-59202D01*
X67904Y-59202D01*
X67857Y-59178D01*
X67833Y-59154D01*
X67809Y-59107D01*
X67809Y-58964D01*
X67833Y-58916D01*
X67857Y-58892D01*
X67904Y-58869D01*
X68000Y-58869D01*
X68047Y-58892D01*
X68500Y-59202D02*
X68500Y-58940D01*
X68476Y-58892D01*
X68428Y-58869D01*
X68333Y-58869D01*
X68285Y-58892D01*
X68500Y-59178D02*
X68452Y-59202D01*
X68333Y-59202D01*
X68285Y-59178D01*
X68261Y-59130D01*
X68261Y-59083D01*
X68285Y-59035D01*
X68333Y-59011D01*
X68452Y-59011D01*
X68500Y-58988D01*
X68690Y-58869D02*
X68809Y-59202D01*
X68928Y-58869D02*
X68809Y-59202D01*
X68761Y-59321D01*
X68738Y-59345D01*
X68690Y-59369D01*
X69404Y-59202D02*
X69238Y-58964D01*
X69119Y-59202D02*
X69119Y-58702D01*
X69309Y-58702D01*
X69357Y-58726D01*
X69380Y-58750D01*
X69404Y-58797D01*
X69404Y-58869D01*
X69380Y-58916D01*
X69357Y-58940D01*
X69309Y-58964D01*
X69119Y-58964D01*
X69785Y-58940D02*
X69619Y-58940D01*
X69619Y-59202D02*
X69619Y-58702D01*
X69857Y-58702D01*
G54D12*
X76252Y-40830D02*
X76252Y-40630D01*
X76300Y-40630D01*
X76328Y-40640D01*
X76347Y-40659D01*
X76357Y-40678D01*
X76366Y-40716D01*
X76366Y-40745D01*
X76357Y-40783D01*
X76347Y-40802D01*
X76328Y-40821D01*
X76300Y-40830D01*
X76252Y-40830D01*
X76480Y-40716D02*
X76461Y-40707D01*
X76452Y-40697D01*
X76442Y-40678D01*
X76442Y-40669D01*
X76452Y-40650D01*
X76461Y-40640D01*
X76480Y-40630D01*
X76519Y-40630D01*
X76538Y-40640D01*
X76547Y-40650D01*
X76557Y-40669D01*
X76557Y-40678D01*
X76547Y-40697D01*
X76538Y-40707D01*
X76519Y-40716D01*
X76480Y-40716D01*
X76461Y-40726D01*
X76452Y-40735D01*
X76442Y-40754D01*
X76442Y-40792D01*
X76452Y-40811D01*
X76461Y-40821D01*
X76480Y-40830D01*
X76519Y-40830D01*
X76538Y-40821D01*
X76547Y-40811D01*
X76557Y-40792D01*
X76557Y-40754D01*
X76547Y-40735D01*
X76538Y-40726D01*
X76519Y-40716D01*
X77852Y-40830D02*
X77852Y-40630D01*
X77900Y-40630D01*
X77928Y-40640D01*
X77947Y-40659D01*
X77957Y-40678D01*
X77966Y-40716D01*
X77966Y-40745D01*
X77957Y-40783D01*
X77947Y-40802D01*
X77928Y-40821D01*
X77900Y-40830D01*
X77852Y-40830D01*
X78033Y-40630D02*
X78166Y-40630D01*
X78080Y-40830D01*
X78852Y-40830D02*
X78852Y-40630D01*
X78900Y-40630D01*
X78928Y-40640D01*
X78947Y-40659D01*
X78957Y-40678D01*
X78966Y-40716D01*
X78966Y-40745D01*
X78957Y-40783D01*
X78947Y-40802D01*
X78928Y-40821D01*
X78900Y-40830D01*
X78852Y-40830D01*
X79138Y-40630D02*
X79100Y-40630D01*
X79080Y-40640D01*
X79071Y-40650D01*
X79052Y-40678D01*
X79042Y-40716D01*
X79042Y-40792D01*
X79052Y-40811D01*
X79061Y-40821D01*
X79080Y-40830D01*
X79119Y-40830D01*
X79138Y-40821D01*
X79147Y-40811D01*
X79157Y-40792D01*
X79157Y-40745D01*
X79147Y-40726D01*
X79138Y-40716D01*
X79119Y-40707D01*
X79080Y-40707D01*
X79061Y-40716D01*
X79052Y-40726D01*
X79042Y-40745D01*
X79852Y-40830D02*
X79852Y-40630D01*
X79900Y-40630D01*
X79928Y-40640D01*
X79947Y-40659D01*
X79957Y-40678D01*
X79966Y-40716D01*
X79966Y-40745D01*
X79957Y-40783D01*
X79947Y-40802D01*
X79928Y-40821D01*
X79900Y-40830D01*
X79852Y-40830D01*
X80147Y-40630D02*
X80052Y-40630D01*
X80042Y-40726D01*
X80052Y-40716D01*
X80071Y-40707D01*
X80119Y-40707D01*
X80138Y-40716D01*
X80147Y-40726D01*
X80157Y-40745D01*
X80157Y-40792D01*
X80147Y-40811D01*
X80138Y-40821D01*
X80119Y-40830D01*
X80071Y-40830D01*
X80052Y-40821D01*
X80042Y-40811D01*
X80852Y-40830D02*
X80852Y-40630D01*
X80900Y-40630D01*
X80928Y-40640D01*
X80947Y-40659D01*
X80957Y-40678D01*
X80966Y-40716D01*
X80966Y-40745D01*
X80957Y-40783D01*
X80947Y-40802D01*
X80928Y-40821D01*
X80900Y-40830D01*
X80852Y-40830D01*
X81138Y-40697D02*
X81138Y-40830D01*
X81090Y-40621D02*
X81042Y-40764D01*
X81166Y-40764D01*
X81852Y-40830D02*
X81852Y-40630D01*
X81900Y-40630D01*
X81928Y-40640D01*
X81947Y-40659D01*
X81957Y-40678D01*
X81966Y-40716D01*
X81966Y-40745D01*
X81957Y-40783D01*
X81947Y-40802D01*
X81928Y-40821D01*
X81900Y-40830D01*
X81852Y-40830D01*
X82033Y-40630D02*
X82157Y-40630D01*
X82090Y-40707D01*
X82119Y-40707D01*
X82138Y-40716D01*
X82147Y-40726D01*
X82157Y-40745D01*
X82157Y-40792D01*
X82147Y-40811D01*
X82138Y-40821D01*
X82119Y-40830D01*
X82061Y-40830D01*
X82042Y-40821D01*
X82033Y-40811D01*
X82852Y-40830D02*
X82852Y-40630D01*
X82900Y-40630D01*
X82928Y-40640D01*
X82947Y-40659D01*
X82957Y-40678D01*
X82966Y-40716D01*
X82966Y-40745D01*
X82957Y-40783D01*
X82947Y-40802D01*
X82928Y-40821D01*
X82900Y-40830D01*
X82852Y-40830D01*
X83042Y-40650D02*
X83052Y-40640D01*
X83071Y-40630D01*
X83119Y-40630D01*
X83138Y-40640D01*
X83147Y-40650D01*
X83157Y-40669D01*
X83157Y-40688D01*
X83147Y-40716D01*
X83033Y-40830D01*
X83157Y-40830D01*
X83852Y-40830D02*
X83852Y-40630D01*
X83900Y-40630D01*
X83928Y-40640D01*
X83947Y-40659D01*
X83957Y-40678D01*
X83966Y-40716D01*
X83966Y-40745D01*
X83957Y-40783D01*
X83947Y-40802D01*
X83928Y-40821D01*
X83900Y-40830D01*
X83852Y-40830D01*
X84157Y-40830D02*
X84042Y-40830D01*
X84100Y-40830D02*
X84100Y-40630D01*
X84080Y-40659D01*
X84061Y-40678D01*
X84042Y-40688D01*
X84852Y-40830D02*
X84852Y-40630D01*
X84900Y-40630D01*
X84928Y-40640D01*
X84947Y-40659D01*
X84957Y-40678D01*
X84966Y-40716D01*
X84966Y-40745D01*
X84957Y-40783D01*
X84947Y-40802D01*
X84928Y-40821D01*
X84900Y-40830D01*
X84852Y-40830D01*
X85090Y-40630D02*
X85109Y-40630D01*
X85128Y-40640D01*
X85138Y-40650D01*
X85147Y-40669D01*
X85157Y-40707D01*
X85157Y-40754D01*
X85147Y-40792D01*
X85138Y-40811D01*
X85128Y-40821D01*
X85109Y-40830D01*
X85090Y-40830D01*
X85071Y-40821D01*
X85061Y-40811D01*
X85052Y-40792D01*
X85042Y-40754D01*
X85042Y-40707D01*
X85052Y-40669D01*
X85061Y-40650D01*
X85071Y-40640D01*
X85090Y-40630D01*
G54D14*
X60369Y-45031D02*
X60074Y-45031D01*
X60074Y-44919D01*
X60088Y-44891D01*
X60102Y-44877D01*
X60130Y-44863D01*
X60172Y-44863D01*
X60200Y-44877D01*
X60214Y-44891D01*
X60228Y-44919D01*
X60228Y-45031D01*
X60074Y-44680D02*
X60074Y-44624D01*
X60088Y-44596D01*
X60116Y-44567D01*
X60172Y-44553D01*
X60271Y-44553D01*
X60327Y-44567D01*
X60355Y-44596D01*
X60369Y-44624D01*
X60369Y-44680D01*
X60355Y-44708D01*
X60327Y-44736D01*
X60271Y-44750D01*
X60172Y-44750D01*
X60116Y-44736D01*
X60088Y-44708D01*
X60074Y-44680D01*
X60074Y-44455D02*
X60369Y-44385D01*
X60158Y-44328D01*
X60369Y-44272D01*
X60074Y-44202D01*
X60214Y-44089D02*
X60214Y-43991D01*
X60369Y-43949D02*
X60369Y-44089D01*
X60074Y-44089D01*
X60074Y-43949D01*
X60369Y-43653D02*
X60228Y-43752D01*
X60369Y-43822D02*
X60074Y-43822D01*
X60074Y-43710D01*
X60088Y-43682D01*
X60102Y-43668D01*
X60130Y-43653D01*
X60172Y-43653D01*
X60200Y-43668D01*
X60214Y-43682D01*
X60228Y-43710D01*
X60228Y-43822D01*
X60369Y-47266D02*
X60074Y-47266D01*
X60285Y-47167D01*
X60074Y-47069D01*
X60369Y-47069D01*
X60074Y-46872D02*
X60074Y-46816D01*
X60088Y-46788D01*
X60116Y-46760D01*
X60172Y-46746D01*
X60271Y-46746D01*
X60327Y-46760D01*
X60355Y-46788D01*
X60369Y-46816D01*
X60369Y-46872D01*
X60355Y-46900D01*
X60327Y-46928D01*
X60271Y-46942D01*
X60172Y-46942D01*
X60116Y-46928D01*
X60088Y-46900D01*
X60074Y-46872D01*
X60355Y-46633D02*
X60369Y-46591D01*
X60369Y-46521D01*
X60355Y-46492D01*
X60341Y-46478D01*
X60313Y-46464D01*
X60285Y-46464D01*
X60257Y-46478D01*
X60242Y-46492D01*
X60228Y-46521D01*
X60214Y-46577D01*
X60200Y-46605D01*
X60186Y-46619D01*
X60158Y-46633D01*
X60130Y-46633D01*
X60102Y-46619D01*
X60088Y-46605D01*
X60074Y-46577D01*
X60074Y-46507D01*
X60088Y-46464D01*
X60214Y-46239D02*
X60214Y-46338D01*
X60369Y-46338D02*
X60074Y-46338D01*
X60074Y-46197D01*
X60214Y-46085D02*
X60214Y-45986D01*
X60369Y-45944D02*
X60369Y-46085D01*
X60074Y-46085D01*
X60074Y-45944D01*
X60074Y-45860D02*
X60074Y-45691D01*
X60369Y-45775D02*
X60074Y-45775D01*
X59825Y-46141D02*
X59825Y-46310D01*
X59530Y-46225D02*
X59825Y-46225D01*
X59614Y-46394D02*
X59614Y-46535D01*
X59530Y-46366D02*
X59825Y-46464D01*
X59530Y-46563D01*
X59685Y-46760D02*
X59671Y-46802D01*
X59657Y-46816D01*
X59628Y-46830D01*
X59586Y-46830D01*
X59558Y-46816D01*
X59544Y-46802D01*
X59530Y-46774D01*
X59530Y-46661D01*
X59825Y-46661D01*
X59825Y-46760D01*
X59811Y-46788D01*
X59797Y-46802D01*
X59769Y-46816D01*
X59741Y-46816D01*
X59713Y-46802D01*
X59699Y-46788D01*
X59685Y-46760D01*
X59685Y-46661D01*
X57674Y-44708D02*
X57674Y-44539D01*
X57969Y-44624D02*
X57674Y-44624D01*
X57885Y-44455D02*
X57885Y-44314D01*
X57969Y-44483D02*
X57674Y-44385D01*
X57969Y-44286D01*
X57814Y-44089D02*
X57828Y-44047D01*
X57842Y-44033D01*
X57871Y-44019D01*
X57913Y-44019D01*
X57941Y-44033D01*
X57955Y-44047D01*
X57969Y-44075D01*
X57969Y-44188D01*
X57674Y-44188D01*
X57674Y-44089D01*
X57688Y-44061D01*
X57702Y-44047D01*
X57730Y-44033D01*
X57758Y-44033D01*
X57786Y-44047D01*
X57800Y-44061D01*
X57814Y-44089D01*
X57814Y-44188D01*
X80164Y-49599D02*
X80164Y-49697D01*
X80319Y-49697D02*
X80024Y-49697D01*
X80024Y-49556D01*
X80319Y-49303D02*
X80319Y-49444D01*
X80024Y-49444D01*
X80235Y-49219D02*
X80235Y-49078D01*
X80319Y-49247D02*
X80024Y-49149D01*
X80319Y-49050D01*
X80305Y-48966D02*
X80319Y-48924D01*
X80319Y-48853D01*
X80305Y-48825D01*
X80291Y-48811D01*
X80263Y-48797D01*
X80235Y-48797D01*
X80207Y-48811D01*
X80192Y-48825D01*
X80178Y-48853D01*
X80164Y-48910D01*
X80150Y-48938D01*
X80136Y-48952D01*
X80108Y-48966D01*
X80080Y-48966D01*
X80052Y-48952D01*
X80038Y-48938D01*
X80024Y-48910D01*
X80024Y-48839D01*
X80038Y-48797D01*
X80319Y-48671D02*
X80024Y-48671D01*
X80164Y-48671D02*
X80164Y-48502D01*
X80319Y-48502D02*
X80024Y-48502D01*
X76922Y-46855D02*
X76964Y-46869D01*
X77035Y-46869D01*
X77063Y-46855D01*
X77077Y-46841D01*
X77091Y-46813D01*
X77091Y-46785D01*
X77077Y-46757D01*
X77063Y-46742D01*
X77035Y-46728D01*
X76978Y-46714D01*
X76950Y-46700D01*
X76936Y-46686D01*
X76922Y-46658D01*
X76922Y-46630D01*
X76936Y-46602D01*
X76950Y-46588D01*
X76978Y-46574D01*
X77049Y-46574D01*
X77091Y-46588D01*
X77386Y-46869D02*
X77288Y-46728D01*
X77217Y-46869D02*
X77217Y-46574D01*
X77330Y-46574D01*
X77358Y-46588D01*
X77372Y-46602D01*
X77386Y-46630D01*
X77386Y-46672D01*
X77372Y-46700D01*
X77358Y-46714D01*
X77330Y-46728D01*
X77217Y-46728D01*
X77499Y-46785D02*
X77639Y-46785D01*
X77471Y-46869D02*
X77569Y-46574D01*
X77667Y-46869D01*
X77766Y-46869D02*
X77766Y-46574D01*
X77864Y-46785D01*
X77963Y-46574D01*
X77963Y-46869D01*
G54D12*
X84857Y-59773D02*
X84952Y-59773D01*
X84838Y-59830D02*
X84904Y-59630D01*
X84971Y-59830D01*
X85133Y-59630D02*
X85038Y-59630D01*
X85028Y-59726D01*
X85038Y-59716D01*
X85057Y-59707D01*
X85104Y-59707D01*
X85123Y-59716D01*
X85133Y-59726D01*
X85142Y-59745D01*
X85142Y-59792D01*
X85133Y-59811D01*
X85123Y-59821D01*
X85104Y-59830D01*
X85057Y-59830D01*
X85038Y-59821D01*
X85028Y-59811D01*
X83857Y-59773D02*
X83952Y-59773D01*
X83838Y-59830D02*
X83904Y-59630D01*
X83971Y-59830D01*
X84123Y-59697D02*
X84123Y-59830D01*
X84076Y-59621D02*
X84028Y-59764D01*
X84152Y-59764D01*
X82857Y-59773D02*
X82952Y-59773D01*
X82838Y-59830D02*
X82904Y-59630D01*
X82971Y-59830D01*
X83019Y-59630D02*
X83142Y-59630D01*
X83076Y-59707D01*
X83104Y-59707D01*
X83123Y-59716D01*
X83133Y-59726D01*
X83142Y-59745D01*
X83142Y-59792D01*
X83133Y-59811D01*
X83123Y-59821D01*
X83104Y-59830D01*
X83047Y-59830D01*
X83028Y-59821D01*
X83019Y-59811D01*
X81857Y-59773D02*
X81952Y-59773D01*
X81838Y-59830D02*
X81904Y-59630D01*
X81971Y-59830D01*
X82028Y-59650D02*
X82038Y-59640D01*
X82057Y-59630D01*
X82104Y-59630D01*
X82123Y-59640D01*
X82133Y-59650D01*
X82142Y-59669D01*
X82142Y-59688D01*
X82133Y-59716D01*
X82019Y-59830D01*
X82142Y-59830D01*
X80857Y-59773D02*
X80952Y-59773D01*
X80838Y-59830D02*
X80904Y-59630D01*
X80971Y-59830D01*
X81142Y-59830D02*
X81028Y-59830D01*
X81085Y-59830D02*
X81085Y-59630D01*
X81066Y-59659D01*
X81047Y-59678D01*
X81028Y-59688D01*
X79857Y-59773D02*
X79952Y-59773D01*
X79838Y-59830D02*
X79904Y-59630D01*
X79971Y-59830D01*
X80076Y-59630D02*
X80095Y-59630D01*
X80114Y-59640D01*
X80123Y-59650D01*
X80133Y-59669D01*
X80142Y-59707D01*
X80142Y-59754D01*
X80133Y-59792D01*
X80123Y-59811D01*
X80114Y-59821D01*
X80095Y-59830D01*
X80076Y-59830D01*
X80057Y-59821D01*
X80047Y-59811D01*
X80038Y-59792D01*
X80028Y-59754D01*
X80028Y-59707D01*
X80038Y-59669D01*
X80047Y-59650D01*
X80057Y-59640D01*
X80076Y-59630D01*
X77183Y-57880D02*
X77250Y-58080D01*
X77316Y-57880D01*
X77497Y-58061D02*
X77488Y-58071D01*
X77459Y-58080D01*
X77440Y-58080D01*
X77411Y-58071D01*
X77392Y-58052D01*
X77383Y-58033D01*
X77373Y-57995D01*
X77373Y-57966D01*
X77383Y-57928D01*
X77392Y-57909D01*
X77411Y-57890D01*
X77440Y-57880D01*
X77459Y-57880D01*
X77488Y-57890D01*
X77497Y-57900D01*
X77697Y-58061D02*
X77688Y-58071D01*
X77659Y-58080D01*
X77640Y-58080D01*
X77611Y-58071D01*
X77592Y-58052D01*
X77583Y-58033D01*
X77573Y-57995D01*
X77573Y-57966D01*
X77583Y-57928D01*
X77592Y-57909D01*
X77611Y-57890D01*
X77640Y-57880D01*
X77659Y-57880D01*
X77688Y-57890D01*
X77697Y-57900D01*
X63204Y-50869D02*
X63204Y-50716D01*
X63280Y-50792D02*
X63128Y-50792D01*
X63080Y-50640D02*
X63080Y-50516D01*
X63157Y-50583D01*
X63157Y-50554D01*
X63166Y-50535D01*
X63176Y-50526D01*
X63195Y-50516D01*
X63242Y-50516D01*
X63261Y-50526D01*
X63271Y-50535D01*
X63280Y-50554D01*
X63280Y-50611D01*
X63271Y-50630D01*
X63261Y-50640D01*
X63261Y-50430D02*
X63271Y-50421D01*
X63280Y-50430D01*
X63271Y-50440D01*
X63261Y-50430D01*
X63280Y-50430D01*
X63080Y-50354D02*
X63080Y-50230D01*
X63157Y-50297D01*
X63157Y-50269D01*
X63166Y-50250D01*
X63176Y-50240D01*
X63195Y-50230D01*
X63242Y-50230D01*
X63261Y-50240D01*
X63271Y-50250D01*
X63280Y-50269D01*
X63280Y-50326D01*
X63271Y-50345D01*
X63261Y-50354D01*
X63080Y-50173D02*
X63280Y-50107D01*
X63080Y-50040D01*
X63280Y-49707D02*
X63185Y-49773D01*
X63280Y-49821D02*
X63080Y-49821D01*
X63080Y-49745D01*
X63090Y-49726D01*
X63100Y-49716D01*
X63119Y-49707D01*
X63147Y-49707D01*
X63166Y-49716D01*
X63176Y-49726D01*
X63185Y-49745D01*
X63185Y-49821D01*
X63176Y-49621D02*
X63176Y-49554D01*
X63280Y-49526D02*
X63280Y-49621D01*
X63080Y-49621D01*
X63080Y-49526D01*
X63090Y-49335D02*
X63080Y-49354D01*
X63080Y-49383D01*
X63090Y-49411D01*
X63109Y-49430D01*
X63128Y-49440D01*
X63166Y-49449D01*
X63195Y-49449D01*
X63233Y-49440D01*
X63252Y-49430D01*
X63271Y-49411D01*
X63280Y-49383D01*
X63280Y-49364D01*
X63271Y-49335D01*
X63261Y-49326D01*
X63195Y-49326D01*
X63195Y-49364D01*
X63080Y-49240D02*
X63242Y-49240D01*
X63261Y-49230D01*
X63271Y-49221D01*
X63280Y-49202D01*
X63280Y-49164D01*
X63271Y-49145D01*
X63261Y-49135D01*
X63242Y-49126D01*
X63080Y-49126D01*
X63280Y-48935D02*
X63280Y-49030D01*
X63080Y-49030D01*
X63223Y-48878D02*
X63223Y-48783D01*
X63280Y-48897D02*
X63080Y-48830D01*
X63280Y-48764D01*
X63080Y-48726D02*
X63080Y-48611D01*
X63280Y-48669D02*
X63080Y-48669D01*
X63080Y-48507D02*
X63080Y-48469D01*
X63090Y-48449D01*
X63109Y-48430D01*
X63147Y-48421D01*
X63214Y-48421D01*
X63252Y-48430D01*
X63271Y-48449D01*
X63280Y-48469D01*
X63280Y-48507D01*
X63271Y-48526D01*
X63252Y-48545D01*
X63214Y-48554D01*
X63147Y-48554D01*
X63109Y-48545D01*
X63090Y-48526D01*
X63080Y-48507D01*
X63280Y-48221D02*
X63185Y-48288D01*
X63280Y-48335D02*
X63080Y-48335D01*
X63080Y-48259D01*
X63090Y-48240D01*
X63100Y-48230D01*
X63119Y-48221D01*
X63147Y-48221D01*
X63166Y-48230D01*
X63176Y-48240D01*
X63185Y-48259D01*
X63185Y-48335D01*
G54D14*
X77434Y-54541D02*
X77420Y-54555D01*
X77378Y-54569D01*
X77350Y-54569D01*
X77307Y-54555D01*
X77279Y-54527D01*
X77265Y-54499D01*
X77251Y-54442D01*
X77251Y-54400D01*
X77265Y-54344D01*
X77279Y-54316D01*
X77307Y-54288D01*
X77350Y-54274D01*
X77378Y-54274D01*
X77420Y-54288D01*
X77434Y-54302D01*
X77729Y-54541D02*
X77715Y-54555D01*
X77673Y-54569D01*
X77645Y-54569D01*
X77603Y-54555D01*
X77575Y-54527D01*
X77561Y-54499D01*
X77547Y-54442D01*
X77547Y-54400D01*
X77561Y-54344D01*
X77575Y-54316D01*
X77603Y-54288D01*
X77645Y-54274D01*
X77673Y-54274D01*
X77715Y-54288D01*
X77729Y-54302D01*
X77982Y-54372D02*
X77982Y-54569D01*
X77912Y-54260D02*
X77842Y-54471D01*
X78025Y-54471D01*
X78109Y-54274D02*
X78292Y-54274D01*
X78193Y-54386D01*
X78235Y-54386D01*
X78264Y-54400D01*
X78278Y-54414D01*
X78292Y-54442D01*
X78292Y-54513D01*
X78278Y-54541D01*
X78264Y-54555D01*
X78235Y-54569D01*
X78151Y-54569D01*
X78123Y-54555D01*
X78109Y-54541D01*
X78475Y-54274D02*
X78503Y-54274D01*
X78531Y-54288D01*
X78545Y-54302D01*
X78559Y-54330D01*
X78573Y-54386D01*
X78573Y-54457D01*
X78559Y-54513D01*
X78545Y-54541D01*
X78531Y-54555D01*
X78503Y-54569D01*
X78475Y-54569D01*
X78446Y-54555D01*
X78432Y-54541D01*
X78418Y-54513D01*
X78404Y-54457D01*
X78404Y-54386D01*
X78418Y-54330D01*
X78432Y-54302D01*
X78446Y-54288D01*
X78475Y-54274D01*
X78882Y-54274D02*
X79051Y-54274D01*
X78967Y-54569D02*
X78967Y-54274D01*
X79121Y-54274D02*
X79318Y-54569D01*
X79318Y-54274D02*
X79121Y-54569D01*
X79599Y-54541D02*
X79585Y-54555D01*
X79543Y-54569D01*
X79515Y-54569D01*
X79473Y-54555D01*
X79445Y-54527D01*
X79431Y-54499D01*
X79417Y-54442D01*
X79417Y-54400D01*
X79431Y-54344D01*
X79445Y-54316D01*
X79473Y-54288D01*
X79515Y-54274D01*
X79543Y-54274D01*
X79585Y-54288D01*
X79599Y-54302D01*
X79684Y-54274D02*
X79782Y-54569D01*
X79881Y-54274D01*
X80148Y-54569D02*
X80049Y-54428D01*
X79979Y-54569D02*
X79979Y-54274D01*
X80092Y-54274D01*
X80120Y-54288D01*
X80134Y-54302D01*
X80148Y-54330D01*
X80148Y-54372D01*
X80134Y-54400D01*
X80120Y-54414D01*
X80092Y-54428D01*
X79979Y-54428D01*
X67923Y-41274D02*
X67923Y-41513D01*
X67937Y-41541D01*
X67951Y-41555D01*
X67979Y-41569D01*
X68036Y-41569D01*
X68064Y-41555D01*
X68078Y-41541D01*
X68092Y-41513D01*
X68092Y-41274D01*
X68218Y-41555D02*
X68261Y-41569D01*
X68331Y-41569D01*
X68359Y-41555D01*
X68373Y-41541D01*
X68387Y-41513D01*
X68387Y-41485D01*
X68373Y-41457D01*
X68359Y-41442D01*
X68331Y-41428D01*
X68275Y-41414D01*
X68246Y-41400D01*
X68232Y-41386D01*
X68218Y-41358D01*
X68218Y-41330D01*
X68232Y-41302D01*
X68246Y-41288D01*
X68275Y-41274D01*
X68345Y-41274D01*
X68387Y-41288D01*
X68612Y-41414D02*
X68654Y-41428D01*
X68668Y-41442D01*
X68682Y-41471D01*
X68682Y-41513D01*
X68668Y-41541D01*
X68654Y-41555D01*
X68626Y-41569D01*
X68514Y-41569D01*
X68514Y-41274D01*
X68612Y-41274D01*
X68640Y-41288D01*
X68654Y-41302D01*
X68668Y-41330D01*
X68668Y-41358D01*
X68654Y-41386D01*
X68640Y-41400D01*
X68612Y-41414D01*
X68514Y-41414D01*
X69034Y-41274D02*
X69034Y-41513D01*
X69048Y-41541D01*
X69062Y-41555D01*
X69090Y-41569D01*
X69146Y-41569D01*
X69174Y-41555D01*
X69189Y-41541D01*
X69203Y-41513D01*
X69203Y-41274D01*
X69329Y-41485D02*
X69470Y-41485D01*
X69301Y-41569D02*
X69399Y-41274D01*
X69498Y-41569D01*
X69765Y-41569D02*
X69667Y-41428D01*
X69596Y-41569D02*
X69596Y-41274D01*
X69709Y-41274D01*
X69737Y-41288D01*
X69751Y-41302D01*
X69765Y-41330D01*
X69765Y-41372D01*
X69751Y-41400D01*
X69737Y-41414D01*
X69709Y-41428D01*
X69596Y-41428D01*
X69849Y-41274D02*
X70018Y-41274D01*
X69934Y-41569D02*
X69934Y-41274D01*
X81222Y-44869D02*
X81124Y-44728D01*
X81054Y-44869D02*
X81054Y-44574D01*
X81166Y-44574D01*
X81194Y-44588D01*
X81208Y-44602D01*
X81222Y-44630D01*
X81222Y-44672D01*
X81208Y-44700D01*
X81194Y-44714D01*
X81166Y-44728D01*
X81054Y-44728D01*
X81447Y-44714D02*
X81349Y-44714D01*
X81349Y-44869D02*
X81349Y-44574D01*
X81489Y-44574D01*
X81827Y-44869D02*
X81827Y-44574D01*
X81939Y-44574D01*
X81967Y-44588D01*
X81982Y-44602D01*
X81996Y-44630D01*
X81996Y-44672D01*
X81982Y-44700D01*
X81967Y-44714D01*
X81939Y-44728D01*
X81827Y-44728D01*
X82108Y-44785D02*
X82249Y-44785D01*
X82080Y-44869D02*
X82178Y-44574D01*
X82277Y-44869D01*
X82586Y-44560D02*
X82333Y-44939D01*
X82825Y-44869D02*
X82685Y-44869D01*
X82685Y-44574D01*
X82924Y-44869D02*
X82924Y-44574D01*
X83092Y-44869D01*
X83092Y-44574D01*
X83219Y-44785D02*
X83360Y-44785D01*
X83191Y-44869D02*
X83289Y-44574D01*
X83388Y-44869D01*
X63488Y-55592D02*
X63474Y-55620D01*
X63474Y-55663D01*
X63488Y-55705D01*
X63516Y-55733D01*
X63544Y-55747D01*
X63600Y-55761D01*
X63642Y-55761D01*
X63699Y-55747D01*
X63727Y-55733D01*
X63755Y-55705D01*
X63769Y-55663D01*
X63769Y-55635D01*
X63755Y-55592D01*
X63741Y-55578D01*
X63642Y-55578D01*
X63642Y-55635D01*
X63769Y-55452D02*
X63474Y-55452D01*
X63474Y-55339D01*
X63488Y-55311D01*
X63502Y-55297D01*
X63530Y-55283D01*
X63572Y-55283D01*
X63600Y-55297D01*
X63614Y-55311D01*
X63628Y-55339D01*
X63628Y-55452D01*
X63755Y-55171D02*
X63769Y-55128D01*
X63769Y-55058D01*
X63755Y-55030D01*
X63741Y-55016D01*
X63713Y-55002D01*
X63685Y-55002D01*
X63657Y-55016D01*
X63642Y-55030D01*
X63628Y-55058D01*
X63614Y-55114D01*
X63600Y-55142D01*
X63586Y-55156D01*
X63558Y-55171D01*
X63530Y-55171D01*
X63502Y-55156D01*
X63488Y-55142D01*
X63474Y-55114D01*
X63474Y-55044D01*
X63488Y-55002D01*
X63769Y-54482D02*
X63628Y-54580D01*
X63769Y-54650D02*
X63474Y-54650D01*
X63474Y-54538D01*
X63488Y-54510D01*
X63502Y-54496D01*
X63530Y-54482D01*
X63572Y-54482D01*
X63600Y-54496D01*
X63614Y-54510D01*
X63628Y-54538D01*
X63628Y-54650D01*
X63741Y-54186D02*
X63755Y-54200D01*
X63769Y-54243D01*
X63769Y-54271D01*
X63755Y-54313D01*
X63727Y-54341D01*
X63699Y-54355D01*
X63642Y-54369D01*
X63600Y-54369D01*
X63544Y-54355D01*
X63516Y-54341D01*
X63488Y-54313D01*
X63474Y-54271D01*
X63474Y-54243D01*
X63488Y-54200D01*
X63502Y-54186D01*
X63474Y-54102D02*
X63769Y-54003D01*
X63474Y-53905D01*
X63769Y-53638D02*
X63628Y-53736D01*
X63769Y-53807D02*
X63474Y-53807D01*
X63474Y-53694D01*
X63488Y-53666D01*
X63502Y-53652D01*
X63530Y-53638D01*
X63572Y-53638D01*
X63600Y-53652D01*
X63614Y-53666D01*
X63628Y-53694D01*
X63628Y-53807D01*
X79352Y-58269D02*
X79254Y-58128D01*
X79184Y-58269D02*
X79184Y-57974D01*
X79296Y-57974D01*
X79324Y-57988D01*
X79338Y-58002D01*
X79352Y-58030D01*
X79352Y-58072D01*
X79338Y-58100D01*
X79324Y-58114D01*
X79296Y-58128D01*
X79184Y-58128D01*
X79591Y-58255D02*
X79563Y-58269D01*
X79507Y-58269D01*
X79479Y-58255D01*
X79465Y-58227D01*
X79465Y-58114D01*
X79479Y-58086D01*
X79507Y-58072D01*
X79563Y-58072D01*
X79591Y-58086D01*
X79605Y-58114D01*
X79605Y-58142D01*
X79465Y-58171D01*
X79690Y-58072D02*
X79802Y-58072D01*
X79732Y-58269D02*
X79732Y-58016D01*
X79746Y-57988D01*
X79774Y-57974D01*
X79802Y-57974D01*
X79901Y-58241D02*
X79915Y-58255D01*
X79901Y-58269D01*
X79887Y-58255D01*
X79901Y-58241D01*
X79901Y-58269D01*
X80224Y-57974D02*
X80322Y-58269D01*
X80421Y-57974D01*
X80561Y-58269D02*
X80533Y-58255D01*
X80519Y-58241D01*
X80505Y-58213D01*
X80505Y-58128D01*
X80519Y-58100D01*
X80533Y-58086D01*
X80561Y-58072D01*
X80604Y-58072D01*
X80632Y-58086D01*
X80646Y-58100D01*
X80660Y-58128D01*
X80660Y-58213D01*
X80646Y-58241D01*
X80632Y-58255D01*
X80604Y-58269D01*
X80561Y-58269D01*
X80829Y-58269D02*
X80801Y-58255D01*
X80786Y-58227D01*
X80786Y-57974D01*
X80899Y-58072D02*
X81011Y-58072D01*
X80941Y-57974D02*
X80941Y-58227D01*
X80955Y-58255D01*
X80983Y-58269D01*
X81011Y-58269D01*
X81236Y-58269D02*
X81236Y-58114D01*
X81222Y-58086D01*
X81194Y-58072D01*
X81138Y-58072D01*
X81110Y-58086D01*
X81236Y-58255D02*
X81208Y-58269D01*
X81138Y-58269D01*
X81110Y-58255D01*
X81096Y-58227D01*
X81096Y-58199D01*
X81110Y-58171D01*
X81138Y-58157D01*
X81208Y-58157D01*
X81236Y-58142D01*
X81504Y-58072D02*
X81504Y-58311D01*
X81489Y-58339D01*
X81475Y-58353D01*
X81447Y-58367D01*
X81405Y-58367D01*
X81377Y-58353D01*
X81504Y-58255D02*
X81475Y-58269D01*
X81419Y-58269D01*
X81391Y-58255D01*
X81377Y-58241D01*
X81363Y-58213D01*
X81363Y-58128D01*
X81377Y-58100D01*
X81391Y-58086D01*
X81419Y-58072D01*
X81475Y-58072D01*
X81504Y-58086D01*
X81757Y-58255D02*
X81729Y-58269D01*
X81672Y-58269D01*
X81644Y-58255D01*
X81630Y-58227D01*
X81630Y-58114D01*
X81644Y-58086D01*
X81672Y-58072D01*
X81729Y-58072D01*
X81757Y-58086D01*
X81771Y-58114D01*
X81771Y-58142D01*
X81630Y-58171D01*
X82122Y-58114D02*
X82347Y-58114D01*
X82347Y-58199D02*
X82122Y-58199D01*
X82699Y-58002D02*
X82713Y-57988D01*
X82741Y-57974D01*
X82811Y-57974D01*
X82839Y-57988D01*
X82853Y-58002D01*
X82867Y-58030D01*
X82867Y-58058D01*
X82853Y-58100D01*
X82685Y-58269D01*
X82867Y-58269D01*
X82994Y-58241D02*
X83008Y-58255D01*
X82994Y-58269D01*
X82980Y-58255D01*
X82994Y-58241D01*
X82994Y-58269D01*
X83261Y-58072D02*
X83261Y-58269D01*
X83191Y-57960D02*
X83121Y-58171D01*
X83303Y-58171D01*
X83570Y-58269D02*
X83402Y-58269D01*
X83486Y-58269D02*
X83486Y-57974D01*
X83458Y-58016D01*
X83430Y-58044D01*
X83402Y-58058D01*
X83655Y-57974D02*
X83753Y-58269D01*
X83852Y-57974D01*
X84175Y-58157D02*
X84400Y-58157D01*
X84288Y-58269D02*
X84288Y-58044D01*
X84752Y-57960D02*
X84498Y-58339D01*
X84850Y-58157D02*
X85075Y-58157D01*
X85370Y-58269D02*
X85202Y-58269D01*
X85286Y-58269D02*
X85286Y-57974D01*
X85258Y-58016D01*
X85230Y-58044D01*
X85202Y-58058D01*
X85497Y-58241D02*
X85511Y-58255D01*
X85497Y-58269D01*
X85483Y-58255D01*
X85497Y-58241D01*
X85497Y-58269D01*
X85778Y-57974D02*
X85637Y-57974D01*
X85623Y-58114D01*
X85637Y-58100D01*
X85666Y-58086D01*
X85736Y-58086D01*
X85764Y-58100D01*
X85778Y-58114D01*
X85792Y-58142D01*
X85792Y-58213D01*
X85778Y-58241D01*
X85764Y-58255D01*
X85736Y-58269D01*
X85666Y-58269D01*
X85637Y-58255D01*
X85623Y-58241D01*
X85905Y-58269D02*
X86130Y-57974D01*
X85947Y-57974D02*
X85975Y-57988D01*
X85989Y-58016D01*
X85975Y-58044D01*
X85947Y-58058D01*
X85919Y-58044D01*
X85905Y-58016D01*
X85919Y-57988D01*
X85947Y-57974D01*
X86115Y-58255D02*
X86130Y-58227D01*
X86115Y-58199D01*
X86087Y-58185D01*
X86059Y-58199D01*
X86045Y-58227D01*
X86059Y-58255D01*
X86087Y-58269D01*
X86115Y-58255D01*
G54D12*
X73160Y-45919D02*
X73061Y-45778D01*
X72991Y-45919D02*
X72991Y-45624D01*
X73103Y-45624D01*
X73132Y-45638D01*
X73146Y-45652D01*
X73160Y-45680D01*
X73160Y-45722D01*
X73146Y-45750D01*
X73132Y-45764D01*
X73103Y-45778D01*
X72991Y-45778D01*
X73286Y-45764D02*
X73385Y-45764D01*
X73427Y-45919D02*
X73286Y-45919D01*
X73286Y-45624D01*
X73427Y-45624D01*
X73511Y-45624D02*
X73610Y-45919D01*
X73708Y-45624D01*
X73807Y-45891D02*
X73821Y-45905D01*
X73807Y-45919D01*
X73792Y-45905D01*
X73807Y-45891D01*
X73807Y-45919D01*
X74172Y-45919D02*
X74172Y-45624D01*
X74242Y-45624D01*
X74285Y-45638D01*
X74313Y-45666D01*
X74327Y-45694D01*
X74341Y-45750D01*
X74341Y-45792D01*
X74327Y-45849D01*
X74313Y-45877D01*
X74285Y-45905D01*
X74242Y-45919D01*
X74172Y-45919D01*
X74622Y-45919D02*
X74453Y-45919D01*
X74538Y-45919D02*
X74538Y-45624D01*
X74510Y-45666D01*
X74481Y-45694D01*
X74453Y-45708D01*
G54D15*
X71987Y-45129D02*
X71790Y-45129D01*
X71790Y-45439D02*
X71790Y-44848D01*
X72071Y-44848D01*
X72549Y-45439D02*
X72549Y-45129D01*
X72521Y-45073D01*
X72465Y-45045D01*
X72353Y-45045D01*
X72296Y-45073D01*
X72549Y-45410D02*
X72493Y-45439D01*
X72353Y-45439D01*
X72296Y-45410D01*
X72268Y-45354D01*
X72268Y-45298D01*
X72296Y-45242D01*
X72353Y-45214D01*
X72493Y-45214D01*
X72549Y-45185D01*
X72831Y-45439D02*
X72831Y-45045D01*
X72831Y-45157D02*
X72859Y-45101D01*
X72887Y-45073D01*
X72943Y-45045D01*
X72999Y-45045D01*
X73449Y-45439D02*
X73449Y-45129D01*
X73421Y-45073D01*
X73365Y-45045D01*
X73252Y-45045D01*
X73196Y-45073D01*
X73449Y-45410D02*
X73393Y-45439D01*
X73252Y-45439D01*
X73196Y-45410D01*
X73168Y-45354D01*
X73168Y-45298D01*
X73196Y-45242D01*
X73252Y-45214D01*
X73393Y-45214D01*
X73449Y-45185D01*
X73984Y-45439D02*
X73984Y-44848D01*
X73984Y-45410D02*
X73927Y-45439D01*
X73815Y-45439D01*
X73759Y-45410D01*
X73730Y-45382D01*
X73702Y-45326D01*
X73702Y-45157D01*
X73730Y-45101D01*
X73759Y-45073D01*
X73815Y-45045D01*
X73927Y-45045D01*
X73984Y-45073D01*
X74518Y-45439D02*
X74518Y-45129D01*
X74490Y-45073D01*
X74434Y-45045D01*
X74321Y-45045D01*
X74265Y-45073D01*
X74518Y-45410D02*
X74462Y-45439D01*
X74321Y-45439D01*
X74265Y-45410D01*
X74237Y-45354D01*
X74237Y-45298D01*
X74265Y-45242D01*
X74321Y-45214D01*
X74462Y-45214D01*
X74518Y-45185D01*
X74743Y-45045D02*
X74883Y-45439D01*
X75024Y-45045D02*
X74883Y-45439D01*
X74827Y-45579D01*
X74799Y-45607D01*
X74743Y-45635D01*
G54D16*
G36*
X74853Y-43591D02*
X74368Y-44066D01*
X74306Y-44126D01*
X74247Y-44184D01*
X74190Y-44240D01*
X74136Y-44292D01*
X74086Y-44341D01*
X74040Y-44386D01*
X73999Y-44426D01*
X73963Y-44461D01*
X73933Y-44490D01*
X73909Y-44513D01*
X73891Y-44530D01*
X73881Y-44540D01*
X73878Y-44542D01*
X73877Y-44537D01*
X73876Y-44522D01*
X73875Y-44497D01*
X73874Y-44463D01*
X73873Y-44421D01*
X73873Y-44371D01*
X73873Y-44352D01*
X73873Y-44161D01*
X73247Y-44161D01*
X72620Y-44161D01*
X72616Y-44103D01*
X72604Y-43992D01*
X72581Y-43886D01*
X72549Y-43785D01*
X72506Y-43689D01*
X72454Y-43598D01*
X72391Y-43512D01*
X72362Y-43477D01*
X72293Y-43406D01*
X72216Y-43342D01*
X72132Y-43285D01*
X72044Y-43236D01*
X71951Y-43196D01*
X71856Y-43166D01*
X71760Y-43146D01*
X71706Y-43139D01*
X71662Y-43135D01*
X71662Y-43083D01*
X71662Y-43030D01*
X72768Y-43030D01*
X73873Y-43030D01*
X73873Y-42840D01*
X73873Y-42795D01*
X73874Y-42753D01*
X73874Y-42716D01*
X73875Y-42685D01*
X73876Y-42662D01*
X73877Y-42647D01*
X73878Y-42643D01*
X73879Y-42643D01*
X73882Y-42645D01*
X73888Y-42649D01*
X73896Y-42655D01*
X73907Y-42665D01*
X73920Y-42678D01*
X73938Y-42694D01*
X73959Y-42714D01*
X73985Y-42739D01*
X74014Y-42767D01*
X74049Y-42801D01*
X74089Y-42840D01*
X74134Y-42884D01*
X74185Y-42934D01*
X74243Y-42990D01*
X74306Y-43053D01*
X74377Y-43122D01*
X74455Y-43199D01*
X74540Y-43283D01*
X74589Y-43331D01*
X74853Y-43591D01*
X74853Y-43591D01*
X74853Y-43591D01*
G37*
G36*
X72053Y-44156D02*
X72047Y-44157D01*
X72031Y-44158D01*
X72006Y-44159D01*
X71974Y-44160D01*
X71936Y-44160D01*
X71893Y-44160D01*
X71856Y-44161D01*
X71662Y-44161D01*
X71662Y-43941D01*
X71662Y-43721D01*
X71686Y-43734D01*
X71754Y-43773D01*
X71819Y-43822D01*
X71881Y-43879D01*
X71936Y-43941D01*
X71983Y-44006D01*
X71990Y-44018D01*
X72004Y-44042D01*
X72018Y-44068D01*
X72030Y-44095D01*
X72041Y-44118D01*
X72049Y-44138D01*
X72053Y-44151D01*
X72053Y-44156D01*
X72053Y-44156D01*
X72053Y-44156D01*
G37*
G36*
X72270Y-44147D02*
X72269Y-44153D01*
X72267Y-44157D01*
X72259Y-44160D01*
X72245Y-44160D01*
X72222Y-44161D01*
X72220Y-44161D01*
X72197Y-44160D01*
X72179Y-44159D01*
X72169Y-44157D01*
X72167Y-44156D01*
X72164Y-44149D01*
X72159Y-44134D01*
X72152Y-44115D01*
X72149Y-44107D01*
X72117Y-44028D01*
X72076Y-43951D01*
X72027Y-43878D01*
X71971Y-43811D01*
X71919Y-43760D01*
X71882Y-43730D01*
X71839Y-43700D01*
X71794Y-43671D01*
X71751Y-43646D01*
X71712Y-43628D01*
X71662Y-43607D01*
X71662Y-43549D01*
X71662Y-43491D01*
X71712Y-43509D01*
X71803Y-43547D01*
X71889Y-43594D01*
X71968Y-43651D01*
X72040Y-43716D01*
X72105Y-43789D01*
X72162Y-43870D01*
X72176Y-43893D01*
X72193Y-43924D01*
X72209Y-43959D01*
X72225Y-43997D01*
X72240Y-44036D01*
X72253Y-44072D01*
X72262Y-44105D01*
X72268Y-44132D01*
X72270Y-44147D01*
X72270Y-44147D01*
X72270Y-44147D01*
G37*
G36*
X72503Y-44158D02*
X72447Y-44159D01*
X72423Y-44160D01*
X72403Y-44159D01*
X72390Y-44158D01*
X72386Y-44157D01*
X72383Y-44149D01*
X72382Y-44138D01*
X72381Y-44127D01*
X72378Y-44107D01*
X72374Y-44083D01*
X72371Y-44072D01*
X72346Y-43977D01*
X72310Y-43886D01*
X72265Y-43800D01*
X72211Y-43720D01*
X72149Y-43647D01*
X72079Y-43580D01*
X72002Y-43520D01*
X71918Y-43469D01*
X71829Y-43427D01*
X71734Y-43393D01*
X71713Y-43388D01*
X71665Y-43375D01*
X71664Y-43315D01*
X71662Y-43255D01*
X71677Y-43255D01*
X71694Y-43257D01*
X71719Y-43261D01*
X71749Y-43268D01*
X71783Y-43276D01*
X71817Y-43286D01*
X71848Y-43295D01*
X71856Y-43298D01*
X71951Y-43337D01*
X72042Y-43385D01*
X72126Y-43442D01*
X72203Y-43508D01*
X72273Y-43581D01*
X72335Y-43661D01*
X72388Y-43748D01*
X72433Y-43840D01*
X72436Y-43848D01*
X72457Y-43908D01*
X72475Y-43973D01*
X72490Y-44038D01*
X72499Y-44101D01*
X72502Y-44132D01*
X72503Y-44158D01*
X72503Y-44158D01*
X72503Y-44158D01*
G37*
G36*
X83783Y-51250D02*
X83747Y-51250D01*
X83712Y-51250D01*
X83712Y-51103D01*
X83663Y-51103D01*
X83647Y-51103D01*
X83634Y-51104D01*
X83623Y-51104D01*
X83614Y-51104D01*
X83608Y-51105D01*
X83602Y-51106D01*
X83597Y-51107D01*
X83593Y-51109D01*
X83589Y-51111D01*
X83580Y-51117D01*
X83574Y-51125D01*
X83570Y-51134D01*
X83568Y-51145D01*
X83570Y-51155D01*
X83573Y-51162D01*
X83579Y-51170D01*
X83587Y-51177D01*
X83598Y-51182D01*
X83612Y-51186D01*
X83617Y-51186D01*
X83623Y-51187D01*
X83629Y-51188D01*
X83634Y-51188D01*
X83640Y-51188D01*
X83647Y-51187D01*
X83657Y-51187D01*
X83657Y-51187D01*
X83671Y-51185D01*
X83682Y-51182D01*
X83691Y-51179D01*
X83698Y-51174D01*
X83703Y-51167D01*
X83707Y-51159D01*
X83707Y-51158D01*
X83709Y-51153D01*
X83710Y-51145D01*
X83710Y-51136D01*
X83711Y-51127D01*
X83712Y-51103D01*
X83712Y-51250D01*
X83711Y-51250D01*
X83711Y-51235D01*
X83711Y-51220D01*
X83703Y-51229D01*
X83692Y-51239D01*
X83679Y-51246D01*
X83665Y-51251D01*
X83658Y-51252D01*
X83650Y-51253D01*
X83639Y-51254D01*
X83628Y-51254D01*
X83618Y-51254D01*
X83608Y-51254D01*
X83601Y-51253D01*
X83600Y-51253D01*
X83580Y-51249D01*
X83562Y-51242D01*
X83546Y-51233D01*
X83532Y-51222D01*
X83520Y-51209D01*
X83512Y-51194D01*
X83505Y-51178D01*
X83502Y-51160D01*
X83501Y-51147D01*
X83503Y-51129D01*
X83507Y-51112D01*
X83514Y-51096D01*
X83524Y-51082D01*
X83536Y-51070D01*
X83551Y-51059D01*
X83568Y-51051D01*
X83577Y-51048D01*
X83580Y-51048D01*
X83583Y-51047D01*
X83588Y-51047D01*
X83594Y-51046D01*
X83601Y-51046D01*
X83610Y-51046D01*
X83622Y-51045D01*
X83636Y-51045D01*
X83649Y-51045D01*
X83712Y-51044D01*
X83711Y-51020D01*
X83711Y-51010D01*
X83710Y-51003D01*
X83710Y-50997D01*
X83709Y-50993D01*
X83708Y-50990D01*
X83707Y-50988D01*
X83702Y-50981D01*
X83696Y-50975D01*
X83688Y-50971D01*
X83677Y-50968D01*
X83665Y-50966D01*
X83649Y-50965D01*
X83640Y-50965D01*
X83625Y-50965D01*
X83613Y-50967D01*
X83602Y-50969D01*
X83593Y-50973D01*
X83590Y-50975D01*
X83585Y-50979D01*
X83582Y-50981D01*
X83581Y-50982D01*
X83580Y-50984D01*
X83578Y-50987D01*
X83574Y-50991D01*
X83547Y-50970D01*
X83539Y-50964D01*
X83531Y-50958D01*
X83525Y-50954D01*
X83521Y-50950D01*
X83519Y-50948D01*
X83519Y-50948D01*
X83520Y-50946D01*
X83523Y-50943D01*
X83528Y-50938D01*
X83533Y-50933D01*
X83546Y-50921D01*
X83561Y-50912D01*
X83578Y-50905D01*
X83587Y-50903D01*
X83594Y-50901D01*
X83605Y-50900D01*
X83617Y-50899D01*
X83629Y-50898D01*
X83643Y-50898D01*
X83655Y-50898D01*
X83667Y-50899D01*
X83674Y-50900D01*
X83697Y-50904D01*
X83716Y-50910D01*
X83733Y-50918D01*
X83748Y-50928D01*
X83760Y-50940D01*
X83769Y-50954D01*
X83776Y-50970D01*
X83779Y-50980D01*
X83780Y-50983D01*
X83780Y-50986D01*
X83781Y-50989D01*
X83781Y-50994D01*
X83781Y-50999D01*
X83781Y-51007D01*
X83782Y-51015D01*
X83782Y-51026D01*
X83782Y-51038D01*
X83782Y-51053D01*
X83782Y-51070D01*
X83782Y-51091D01*
X83783Y-51114D01*
X83783Y-51121D01*
X83783Y-51250D01*
X83783Y-51250D01*
X83783Y-51250D01*
G37*
G36*
X84373Y-51250D02*
X84337Y-51250D01*
X84301Y-51250D01*
X84301Y-51237D01*
X84301Y-51084D01*
X84301Y-51068D01*
X84300Y-51054D01*
X84300Y-51042D01*
X84299Y-51033D01*
X84298Y-51025D01*
X84297Y-51019D01*
X84295Y-51013D01*
X84293Y-51007D01*
X84291Y-51001D01*
X84284Y-50990D01*
X84275Y-50981D01*
X84264Y-50974D01*
X84251Y-50970D01*
X84237Y-50969D01*
X84222Y-50970D01*
X84208Y-50973D01*
X84196Y-50978D01*
X84187Y-50985D01*
X84179Y-50995D01*
X84173Y-51007D01*
X84170Y-51018D01*
X84169Y-51024D01*
X84168Y-51032D01*
X84167Y-51043D01*
X84166Y-51055D01*
X84166Y-51068D01*
X84166Y-51081D01*
X84166Y-51094D01*
X84167Y-51105D01*
X84167Y-51116D01*
X84168Y-51124D01*
X84168Y-51125D01*
X84172Y-51140D01*
X84177Y-51153D01*
X84184Y-51163D01*
X84192Y-51171D01*
X84203Y-51177D01*
X84217Y-51182D01*
X84217Y-51182D01*
X84222Y-51183D01*
X84229Y-51183D01*
X84237Y-51182D01*
X84246Y-51182D01*
X84253Y-51181D01*
X84259Y-51180D01*
X84261Y-51179D01*
X84269Y-51175D01*
X84277Y-51169D01*
X84284Y-51161D01*
X84290Y-51152D01*
X84293Y-51147D01*
X84296Y-51139D01*
X84298Y-51130D01*
X84299Y-51121D01*
X84300Y-51110D01*
X84301Y-51098D01*
X84301Y-51084D01*
X84301Y-51237D01*
X84301Y-51234D01*
X84300Y-51218D01*
X84291Y-51226D01*
X84279Y-51234D01*
X84266Y-51242D01*
X84251Y-51248D01*
X84245Y-51250D01*
X84234Y-51252D01*
X84221Y-51254D01*
X84208Y-51254D01*
X84195Y-51253D01*
X84190Y-51253D01*
X84171Y-51247D01*
X84153Y-51239D01*
X84138Y-51228D01*
X84124Y-51215D01*
X84115Y-51203D01*
X84110Y-51196D01*
X84107Y-51189D01*
X84104Y-51182D01*
X84101Y-51174D01*
X84099Y-51165D01*
X84098Y-51154D01*
X84096Y-51142D01*
X84096Y-51127D01*
X84095Y-51110D01*
X84095Y-51090D01*
X84095Y-51090D01*
X84094Y-51066D01*
X84095Y-51046D01*
X84095Y-51028D01*
X84096Y-51012D01*
X84097Y-50999D01*
X84099Y-50987D01*
X84102Y-50976D01*
X84105Y-50967D01*
X84109Y-50959D01*
X84113Y-50951D01*
X84119Y-50943D01*
X84120Y-50942D01*
X84129Y-50931D01*
X84141Y-50921D01*
X84153Y-50913D01*
X84159Y-50910D01*
X84175Y-50903D01*
X84192Y-50899D01*
X84210Y-50898D01*
X84228Y-50899D01*
X84245Y-50902D01*
X84256Y-50906D01*
X84262Y-50909D01*
X84270Y-50913D01*
X84277Y-50918D01*
X84284Y-50923D01*
X84290Y-50928D01*
X84294Y-50931D01*
X84295Y-50931D01*
X84298Y-50934D01*
X84300Y-50935D01*
X84300Y-50936D01*
X84300Y-50934D01*
X84300Y-50929D01*
X84301Y-50922D01*
X84301Y-50913D01*
X84301Y-50901D01*
X84301Y-50888D01*
X84301Y-50873D01*
X84301Y-50857D01*
X84301Y-50848D01*
X84301Y-50761D01*
X84337Y-50761D01*
X84373Y-50761D01*
X84373Y-51006D01*
X84373Y-51250D01*
X84373Y-51250D01*
X84373Y-51250D01*
G37*
G36*
X85189Y-51250D02*
X85153Y-51250D01*
X85118Y-51250D01*
X85118Y-51103D01*
X85064Y-51104D01*
X85050Y-51104D01*
X85038Y-51104D01*
X85028Y-51104D01*
X85021Y-51104D01*
X85016Y-51105D01*
X85011Y-51105D01*
X85008Y-51106D01*
X85005Y-51107D01*
X85003Y-51107D01*
X85002Y-51108D01*
X84991Y-51113D01*
X84983Y-51120D01*
X84978Y-51128D01*
X84976Y-51137D01*
X84975Y-51144D01*
X84977Y-51155D01*
X84981Y-51165D01*
X84988Y-51173D01*
X84998Y-51179D01*
X85010Y-51184D01*
X85023Y-51186D01*
X85030Y-51187D01*
X85040Y-51187D01*
X85051Y-51187D01*
X85062Y-51187D01*
X85072Y-51186D01*
X85080Y-51185D01*
X85082Y-51185D01*
X85092Y-51182D01*
X85099Y-51178D01*
X85106Y-51173D01*
X85110Y-51166D01*
X85114Y-51157D01*
X85116Y-51146D01*
X85117Y-51132D01*
X85117Y-51127D01*
X85118Y-51103D01*
X85118Y-51250D01*
X85118Y-51250D01*
X85118Y-51235D01*
X85118Y-51220D01*
X85109Y-51229D01*
X85099Y-51239D01*
X85086Y-51246D01*
X85072Y-51251D01*
X85065Y-51252D01*
X85056Y-51253D01*
X85045Y-51254D01*
X85034Y-51254D01*
X85023Y-51254D01*
X85014Y-51254D01*
X85006Y-51253D01*
X85006Y-51253D01*
X84986Y-51249D01*
X84968Y-51242D01*
X84952Y-51233D01*
X84938Y-51222D01*
X84927Y-51209D01*
X84918Y-51195D01*
X84912Y-51179D01*
X84908Y-51162D01*
X84908Y-51143D01*
X84910Y-51125D01*
X84915Y-51108D01*
X84923Y-51092D01*
X84933Y-51079D01*
X84946Y-51067D01*
X84961Y-51057D01*
X84978Y-51050D01*
X84983Y-51049D01*
X84986Y-51048D01*
X84990Y-51047D01*
X84994Y-51047D01*
X84999Y-51046D01*
X85007Y-51046D01*
X85016Y-51046D01*
X85027Y-51045D01*
X85041Y-51045D01*
X85055Y-51045D01*
X85118Y-51044D01*
X85118Y-51024D01*
X85117Y-51012D01*
X85117Y-51002D01*
X85115Y-50995D01*
X85113Y-50989D01*
X85110Y-50984D01*
X85109Y-50982D01*
X85102Y-50976D01*
X85093Y-50971D01*
X85083Y-50968D01*
X85069Y-50966D01*
X85053Y-50965D01*
X85040Y-50965D01*
X85028Y-50966D01*
X85018Y-50967D01*
X85010Y-50969D01*
X85003Y-50971D01*
X84998Y-50975D01*
X84992Y-50979D01*
X84990Y-50981D01*
X84980Y-50991D01*
X84955Y-50972D01*
X84947Y-50966D01*
X84940Y-50960D01*
X84934Y-50956D01*
X84930Y-50952D01*
X84927Y-50951D01*
X84927Y-50951D01*
X84926Y-50949D01*
X84926Y-50947D01*
X84928Y-50945D01*
X84931Y-50941D01*
X84944Y-50928D01*
X84960Y-50917D01*
X84977Y-50908D01*
X84993Y-50903D01*
X85001Y-50901D01*
X85011Y-50900D01*
X85023Y-50899D01*
X85036Y-50898D01*
X85049Y-50898D01*
X85061Y-50898D01*
X85072Y-50899D01*
X85081Y-50900D01*
X85103Y-50904D01*
X85122Y-50909D01*
X85139Y-50917D01*
X85153Y-50927D01*
X85165Y-50939D01*
X85174Y-50952D01*
X85182Y-50968D01*
X85185Y-50977D01*
X85185Y-50980D01*
X85186Y-50982D01*
X85186Y-50985D01*
X85187Y-50988D01*
X85187Y-50991D01*
X85188Y-50996D01*
X85188Y-51001D01*
X85188Y-51008D01*
X85188Y-51017D01*
X85188Y-51027D01*
X85188Y-51040D01*
X85189Y-51055D01*
X85189Y-51072D01*
X85189Y-51092D01*
X85189Y-51115D01*
X85189Y-51120D01*
X85189Y-51250D01*
X85189Y-51250D01*
X85189Y-51250D01*
G37*
G36*
X85789Y-51103D02*
X85717Y-51103D01*
X85717Y-51045D01*
X85716Y-51035D01*
X85714Y-51024D01*
X85711Y-51012D01*
X85706Y-51001D01*
X85701Y-50993D01*
X85692Y-50982D01*
X85681Y-50974D01*
X85669Y-50969D01*
X85656Y-50966D01*
X85642Y-50965D01*
X85629Y-50966D01*
X85616Y-50970D01*
X85604Y-50977D01*
X85593Y-50985D01*
X85585Y-50996D01*
X85579Y-51008D01*
X85575Y-51020D01*
X85572Y-51033D01*
X85572Y-51038D01*
X85572Y-51045D01*
X85645Y-51045D01*
X85717Y-51045D01*
X85717Y-51103D01*
X85681Y-51103D01*
X85572Y-51103D01*
X85572Y-51111D01*
X85574Y-51124D01*
X85577Y-51138D01*
X85583Y-51151D01*
X85591Y-51162D01*
X85593Y-51163D01*
X85600Y-51170D01*
X85610Y-51177D01*
X85621Y-51182D01*
X85631Y-51185D01*
X85641Y-51186D01*
X85652Y-51187D01*
X85664Y-51186D01*
X85675Y-51185D01*
X85678Y-51184D01*
X85689Y-51180D01*
X85701Y-51175D01*
X85713Y-51168D01*
X85722Y-51161D01*
X85730Y-51154D01*
X85755Y-51175D01*
X85763Y-51182D01*
X85770Y-51188D01*
X85775Y-51192D01*
X85779Y-51196D01*
X85781Y-51198D01*
X85781Y-51198D01*
X85780Y-51200D01*
X85776Y-51203D01*
X85772Y-51207D01*
X85767Y-51212D01*
X85761Y-51217D01*
X85756Y-51222D01*
X85751Y-51226D01*
X85749Y-51227D01*
X85738Y-51234D01*
X85724Y-51240D01*
X85710Y-51246D01*
X85698Y-51249D01*
X85687Y-51252D01*
X85674Y-51253D01*
X85659Y-51254D01*
X85646Y-51254D01*
X85634Y-51254D01*
X85630Y-51253D01*
X85608Y-51249D01*
X85589Y-51243D01*
X85572Y-51235D01*
X85557Y-51224D01*
X85544Y-51213D01*
X85532Y-51197D01*
X85521Y-51179D01*
X85512Y-51159D01*
X85506Y-51136D01*
X85504Y-51128D01*
X85503Y-51118D01*
X85502Y-51105D01*
X85501Y-51091D01*
X85501Y-51077D01*
X85501Y-51062D01*
X85502Y-51048D01*
X85503Y-51036D01*
X85504Y-51026D01*
X85510Y-51002D01*
X85518Y-50981D01*
X85528Y-50962D01*
X85540Y-50945D01*
X85554Y-50930D01*
X85556Y-50928D01*
X85565Y-50921D01*
X85576Y-50915D01*
X85587Y-50909D01*
X85599Y-50904D01*
X85606Y-50902D01*
X85613Y-50901D01*
X85623Y-50899D01*
X85634Y-50899D01*
X85646Y-50898D01*
X85657Y-50898D01*
X85666Y-50899D01*
X85670Y-50900D01*
X85692Y-50905D01*
X85711Y-50913D01*
X85729Y-50924D01*
X85745Y-50937D01*
X85758Y-50952D01*
X85770Y-50970D01*
X85779Y-50990D01*
X85783Y-51005D01*
X85785Y-51010D01*
X85786Y-51015D01*
X85787Y-51020D01*
X85787Y-51026D01*
X85788Y-51033D01*
X85788Y-51042D01*
X85788Y-51053D01*
X85788Y-51062D01*
X85789Y-51103D01*
X85789Y-51103D01*
X85789Y-51103D01*
G37*
G36*
X83453Y-50527D02*
X83453Y-50548D01*
X83452Y-50567D01*
X83452Y-50582D01*
X83451Y-50596D01*
X83449Y-50608D01*
X83448Y-50618D01*
X83445Y-50627D01*
X83443Y-50635D01*
X83439Y-50642D01*
X83435Y-50649D01*
X83434Y-50652D01*
X83422Y-50668D01*
X83408Y-50681D01*
X83392Y-50691D01*
X83381Y-50696D01*
X83381Y-50522D01*
X83381Y-50509D01*
X83381Y-50496D01*
X83380Y-50485D01*
X83379Y-50477D01*
X83378Y-50474D01*
X83374Y-50459D01*
X83368Y-50446D01*
X83360Y-50436D01*
X83351Y-50428D01*
X83342Y-50424D01*
X83334Y-50421D01*
X83323Y-50420D01*
X83312Y-50420D01*
X83302Y-50420D01*
X83292Y-50422D01*
X83288Y-50423D01*
X83278Y-50428D01*
X83269Y-50434D01*
X83262Y-50442D01*
X83256Y-50453D01*
X83251Y-50466D01*
X83248Y-50481D01*
X83246Y-50499D01*
X83245Y-50520D01*
X83245Y-50527D01*
X83246Y-50549D01*
X83248Y-50568D01*
X83251Y-50584D01*
X83255Y-50598D01*
X83261Y-50609D01*
X83268Y-50618D01*
X83277Y-50625D01*
X83288Y-50630D01*
X83299Y-50633D01*
X83306Y-50634D01*
X83314Y-50634D01*
X83323Y-50633D01*
X83332Y-50632D01*
X83340Y-50630D01*
X83342Y-50629D01*
X83353Y-50623D01*
X83363Y-50615D01*
X83370Y-50604D01*
X83376Y-50590D01*
X83378Y-50580D01*
X83380Y-50572D01*
X83380Y-50562D01*
X83381Y-50549D01*
X83381Y-50536D01*
X83381Y-50522D01*
X83381Y-50696D01*
X83375Y-50698D01*
X83357Y-50703D01*
X83337Y-50705D01*
X83337Y-50705D01*
X83318Y-50704D01*
X83301Y-50700D01*
X83285Y-50693D01*
X83269Y-50684D01*
X83255Y-50673D01*
X83245Y-50665D01*
X83245Y-50800D01*
X83245Y-50936D01*
X83257Y-50926D01*
X83273Y-50914D01*
X83290Y-50906D01*
X83308Y-50901D01*
X83327Y-50898D01*
X83335Y-50898D01*
X83354Y-50899D01*
X83372Y-50903D01*
X83389Y-50910D01*
X83404Y-50920D01*
X83418Y-50932D01*
X83425Y-50939D01*
X83430Y-50945D01*
X83434Y-50951D01*
X83438Y-50957D01*
X83440Y-50962D01*
X83442Y-50966D01*
X83444Y-50970D01*
X83446Y-50974D01*
X83447Y-50978D01*
X83448Y-50983D01*
X83449Y-50987D01*
X83450Y-50993D01*
X83451Y-50999D01*
X83451Y-51007D01*
X83452Y-51016D01*
X83452Y-51027D01*
X83452Y-51040D01*
X83452Y-51055D01*
X83452Y-51073D01*
X83452Y-51093D01*
X83452Y-51116D01*
X83452Y-51125D01*
X83452Y-51250D01*
X83417Y-51250D01*
X83382Y-51250D01*
X83382Y-51138D01*
X83382Y-51115D01*
X83382Y-51096D01*
X83381Y-51079D01*
X83381Y-51065D01*
X83381Y-51053D01*
X83381Y-51043D01*
X83380Y-51035D01*
X83380Y-51028D01*
X83379Y-51022D01*
X83379Y-51018D01*
X83378Y-51014D01*
X83376Y-51011D01*
X83375Y-51008D01*
X83374Y-51005D01*
X83372Y-51002D01*
X83371Y-51001D01*
X83364Y-50990D01*
X83354Y-50981D01*
X83343Y-50975D01*
X83331Y-50971D01*
X83319Y-50969D01*
X83306Y-50969D01*
X83293Y-50972D01*
X83281Y-50977D01*
X83270Y-50984D01*
X83261Y-50993D01*
X83255Y-51002D01*
X83253Y-51005D01*
X83251Y-51008D01*
X83250Y-51012D01*
X83249Y-51015D01*
X83248Y-51019D01*
X83247Y-51024D01*
X83247Y-51030D01*
X83246Y-51038D01*
X83246Y-51047D01*
X83246Y-51058D01*
X83246Y-51071D01*
X83245Y-51086D01*
X83245Y-51104D01*
X83245Y-51125D01*
X83245Y-51140D01*
X83245Y-51250D01*
X83209Y-51250D01*
X83174Y-51250D01*
X83174Y-50801D01*
X83174Y-50352D01*
X83209Y-50352D01*
X83245Y-50352D01*
X83245Y-50369D01*
X83245Y-50387D01*
X83253Y-50380D01*
X83268Y-50368D01*
X83285Y-50359D01*
X83293Y-50356D01*
X83312Y-50351D01*
X83330Y-50348D01*
X83349Y-50349D01*
X83367Y-50352D01*
X83384Y-50358D01*
X83401Y-50367D01*
X83415Y-50379D01*
X83428Y-50393D01*
X83434Y-50401D01*
X83438Y-50408D01*
X83441Y-50415D01*
X83444Y-50423D01*
X83447Y-50431D01*
X83449Y-50441D01*
X83450Y-50452D01*
X83451Y-50465D01*
X83452Y-50480D01*
X83452Y-50497D01*
X83453Y-50517D01*
X83453Y-50527D01*
X83453Y-50527D01*
X83453Y-50527D01*
G37*
G36*
X84094Y-50925D02*
X84069Y-50955D01*
X84043Y-50986D01*
X84038Y-50983D01*
X84025Y-50975D01*
X84012Y-50970D01*
X83999Y-50969D01*
X83987Y-50969D01*
X83972Y-50973D01*
X83959Y-50979D01*
X83949Y-50988D01*
X83940Y-50999D01*
X83934Y-51012D01*
X83933Y-51016D01*
X83932Y-51018D01*
X83932Y-51020D01*
X83931Y-51023D01*
X83931Y-51026D01*
X83931Y-51030D01*
X83930Y-51036D01*
X83930Y-51043D01*
X83930Y-51051D01*
X83930Y-51062D01*
X83930Y-51075D01*
X83930Y-51090D01*
X83930Y-51107D01*
X83930Y-51128D01*
X83930Y-51138D01*
X83930Y-51250D01*
X83894Y-51250D01*
X83858Y-51250D01*
X83858Y-51076D01*
X83858Y-50901D01*
X83894Y-50901D01*
X83930Y-50901D01*
X83930Y-50919D01*
X83930Y-50938D01*
X83941Y-50927D01*
X83953Y-50917D01*
X83966Y-50909D01*
X83982Y-50903D01*
X83983Y-50903D01*
X83988Y-50901D01*
X83992Y-50900D01*
X83997Y-50899D01*
X84003Y-50899D01*
X84012Y-50899D01*
X84019Y-50899D01*
X84029Y-50899D01*
X84036Y-50899D01*
X84042Y-50900D01*
X84046Y-50900D01*
X84051Y-50901D01*
X84055Y-50903D01*
X84056Y-50904D01*
X84065Y-50907D01*
X84075Y-50912D01*
X84083Y-50917D01*
X84089Y-50921D01*
X84091Y-50922D01*
X84094Y-50925D01*
X84094Y-50925D01*
X84094Y-50925D01*
G37*
G36*
X84902Y-50903D02*
X84902Y-50905D01*
X84900Y-50910D01*
X84898Y-50917D01*
X84895Y-50927D01*
X84891Y-50939D01*
X84887Y-50954D01*
X84882Y-50970D01*
X84876Y-50988D01*
X84870Y-51007D01*
X84863Y-51028D01*
X84856Y-51050D01*
X84849Y-51072D01*
X84847Y-51077D01*
X84792Y-51249D01*
X84761Y-51250D01*
X84729Y-51250D01*
X84693Y-51129D01*
X84687Y-51110D01*
X84682Y-51092D01*
X84677Y-51075D01*
X84672Y-51060D01*
X84668Y-51046D01*
X84664Y-51034D01*
X84661Y-51024D01*
X84659Y-51016D01*
X84657Y-51011D01*
X84656Y-51009D01*
X84656Y-51009D01*
X84656Y-51010D01*
X84654Y-51015D01*
X84652Y-51022D01*
X84649Y-51031D01*
X84646Y-51043D01*
X84641Y-51057D01*
X84637Y-51072D01*
X84632Y-51088D01*
X84626Y-51106D01*
X84621Y-51125D01*
X84620Y-51129D01*
X84584Y-51249D01*
X84552Y-51250D01*
X84520Y-51250D01*
X84472Y-51097D01*
X84465Y-51075D01*
X84458Y-51054D01*
X84451Y-51033D01*
X84445Y-51013D01*
X84439Y-50995D01*
X84433Y-50978D01*
X84429Y-50962D01*
X84424Y-50949D01*
X84421Y-50938D01*
X84418Y-50930D01*
X84416Y-50924D01*
X84416Y-50923D01*
X84409Y-50901D01*
X84447Y-50901D01*
X84485Y-50901D01*
X84517Y-51020D01*
X84522Y-51039D01*
X84527Y-51057D01*
X84532Y-51074D01*
X84536Y-51090D01*
X84540Y-51104D01*
X84543Y-51116D01*
X84546Y-51126D01*
X84548Y-51134D01*
X84550Y-51139D01*
X84550Y-51142D01*
X84550Y-51142D01*
X84551Y-51143D01*
X84552Y-51141D01*
X84554Y-51137D01*
X84555Y-51134D01*
X84556Y-51131D01*
X84558Y-51124D01*
X84561Y-51116D01*
X84565Y-51105D01*
X84569Y-51092D01*
X84573Y-51078D01*
X84578Y-51063D01*
X84583Y-51047D01*
X84586Y-51037D01*
X84592Y-51020D01*
X84597Y-51003D01*
X84603Y-50987D01*
X84607Y-50972D01*
X84612Y-50958D01*
X84616Y-50946D01*
X84619Y-50936D01*
X84622Y-50928D01*
X84622Y-50926D01*
X84631Y-50901D01*
X84656Y-50901D01*
X84682Y-50901D01*
X84687Y-50915D01*
X84689Y-50922D01*
X84692Y-50932D01*
X84696Y-50943D01*
X84700Y-50957D01*
X84705Y-50971D01*
X84710Y-50986D01*
X84715Y-51002D01*
X84720Y-51019D01*
X84726Y-51035D01*
X84731Y-51052D01*
X84736Y-51068D01*
X84741Y-51083D01*
X84746Y-51097D01*
X84750Y-51110D01*
X84753Y-51121D01*
X84756Y-51130D01*
X84759Y-51136D01*
X84760Y-51141D01*
X84761Y-51142D01*
X84761Y-51141D01*
X84763Y-51137D01*
X84765Y-51130D01*
X84767Y-51121D01*
X84771Y-51109D01*
X84774Y-51096D01*
X84779Y-51081D01*
X84783Y-51064D01*
X84788Y-51046D01*
X84794Y-51027D01*
X84795Y-51023D01*
X84828Y-50901D01*
X84865Y-50901D01*
X84878Y-50901D01*
X84887Y-50901D01*
X84894Y-50902D01*
X84899Y-50902D01*
X84902Y-50903D01*
X84902Y-50903D01*
X84902Y-50903D01*
X84902Y-50903D01*
X84902Y-50903D01*
G37*
G36*
X85501Y-50924D02*
X85498Y-50928D01*
X85496Y-50930D01*
X85492Y-50935D01*
X85487Y-50941D01*
X85481Y-50948D01*
X85474Y-50956D01*
X85472Y-50959D01*
X85449Y-50986D01*
X85444Y-50983D01*
X85431Y-50975D01*
X85417Y-50970D01*
X85404Y-50969D01*
X85390Y-50970D01*
X85388Y-50970D01*
X85374Y-50975D01*
X85362Y-50982D01*
X85352Y-50991D01*
X85344Y-51002D01*
X85339Y-51016D01*
X85338Y-51018D01*
X85338Y-51020D01*
X85337Y-51023D01*
X85337Y-51027D01*
X85337Y-51033D01*
X85336Y-51039D01*
X85336Y-51048D01*
X85336Y-51058D01*
X85336Y-51070D01*
X85336Y-51085D01*
X85336Y-51103D01*
X85336Y-51123D01*
X85336Y-51139D01*
X85336Y-51250D01*
X85300Y-51250D01*
X85264Y-51250D01*
X85264Y-51076D01*
X85264Y-50901D01*
X85300Y-50901D01*
X85336Y-50901D01*
X85336Y-50919D01*
X85336Y-50937D01*
X85348Y-50927D01*
X85362Y-50915D01*
X85378Y-50907D01*
X85395Y-50901D01*
X85414Y-50898D01*
X85426Y-50898D01*
X85443Y-50899D01*
X85458Y-50902D01*
X85472Y-50907D01*
X85487Y-50915D01*
X85489Y-50917D01*
X85501Y-50924D01*
X85501Y-50924D01*
X85501Y-50924D01*
G37*
G36*
X83114Y-50527D02*
X83114Y-50544D01*
X83114Y-50559D01*
X83113Y-50571D01*
X83113Y-50582D01*
X83112Y-50591D01*
X83110Y-50598D01*
X83108Y-50606D01*
X83106Y-50613D01*
X83103Y-50620D01*
X83103Y-50621D01*
X83094Y-50639D01*
X83083Y-50655D01*
X83068Y-50670D01*
X83052Y-50682D01*
X83044Y-50687D01*
X83044Y-50524D01*
X83044Y-50511D01*
X83043Y-50500D01*
X83043Y-50489D01*
X83042Y-50481D01*
X83041Y-50477D01*
X83036Y-50461D01*
X83030Y-50448D01*
X83020Y-50437D01*
X83009Y-50429D01*
X82996Y-50423D01*
X82983Y-50420D01*
X82970Y-50419D01*
X82956Y-50421D01*
X82943Y-50425D01*
X82931Y-50431D01*
X82922Y-50438D01*
X82915Y-50447D01*
X82909Y-50457D01*
X82904Y-50469D01*
X82902Y-50476D01*
X82901Y-50483D01*
X82900Y-50493D01*
X82900Y-50504D01*
X82899Y-50516D01*
X82899Y-50529D01*
X82899Y-50542D01*
X82900Y-50554D01*
X82900Y-50565D01*
X82901Y-50573D01*
X82902Y-50577D01*
X82907Y-50592D01*
X82914Y-50605D01*
X82923Y-50616D01*
X82934Y-50624D01*
X82947Y-50630D01*
X82961Y-50633D01*
X82977Y-50633D01*
X82989Y-50632D01*
X83004Y-50627D01*
X83016Y-50620D01*
X83026Y-50610D01*
X83034Y-50598D01*
X83039Y-50583D01*
X83041Y-50576D01*
X83042Y-50570D01*
X83043Y-50561D01*
X83044Y-50550D01*
X83044Y-50537D01*
X83044Y-50524D01*
X83044Y-50687D01*
X83037Y-50691D01*
X83024Y-50696D01*
X83009Y-50701D01*
X82992Y-50703D01*
X82976Y-50705D01*
X82960Y-50705D01*
X82952Y-50704D01*
X82931Y-50700D01*
X82911Y-50693D01*
X82893Y-50683D01*
X82877Y-50671D01*
X82863Y-50657D01*
X82851Y-50641D01*
X82844Y-50630D01*
X82840Y-50620D01*
X82836Y-50609D01*
X82833Y-50598D01*
X82831Y-50586D01*
X82830Y-50572D01*
X82829Y-50555D01*
X82828Y-50537D01*
X82829Y-50515D01*
X82829Y-50514D01*
X82829Y-50500D01*
X82829Y-50488D01*
X82830Y-50479D01*
X82831Y-50471D01*
X82831Y-50465D01*
X82832Y-50459D01*
X82833Y-50457D01*
X82838Y-50439D01*
X82844Y-50423D01*
X82852Y-50409D01*
X82863Y-50395D01*
X82865Y-50393D01*
X82881Y-50378D01*
X82897Y-50367D01*
X82916Y-50358D01*
X82932Y-50353D01*
X82939Y-50351D01*
X82946Y-50350D01*
X82952Y-50349D01*
X82960Y-50349D01*
X82970Y-50349D01*
X82972Y-50349D01*
X82982Y-50349D01*
X82990Y-50349D01*
X82997Y-50350D01*
X83003Y-50351D01*
X83010Y-50352D01*
X83011Y-50353D01*
X83031Y-50360D01*
X83049Y-50369D01*
X83066Y-50381D01*
X83078Y-50393D01*
X83089Y-50406D01*
X83097Y-50419D01*
X83104Y-50434D01*
X83109Y-50451D01*
X83111Y-50458D01*
X83112Y-50463D01*
X83112Y-50467D01*
X83113Y-50472D01*
X83113Y-50477D01*
X83114Y-50484D01*
X83114Y-50492D01*
X83114Y-50502D01*
X83114Y-50515D01*
X83114Y-50527D01*
X83114Y-50527D01*
X83114Y-50527D01*
G37*
G36*
X83787Y-50553D02*
X83716Y-50554D01*
X83716Y-50494D01*
X83715Y-50485D01*
X83712Y-50471D01*
X83708Y-50458D01*
X83702Y-50446D01*
X83694Y-50436D01*
X83686Y-50429D01*
X83686Y-50428D01*
X83678Y-50424D01*
X83672Y-50420D01*
X83665Y-50418D01*
X83657Y-50417D01*
X83648Y-50417D01*
X83643Y-50417D01*
X83634Y-50417D01*
X83628Y-50417D01*
X83623Y-50417D01*
X83620Y-50418D01*
X83616Y-50420D01*
X83612Y-50422D01*
X83600Y-50430D01*
X83589Y-50440D01*
X83581Y-50452D01*
X83577Y-50460D01*
X83574Y-50471D01*
X83572Y-50481D01*
X83571Y-50488D01*
X83571Y-50494D01*
X83644Y-50494D01*
X83716Y-50494D01*
X83716Y-50554D01*
X83679Y-50554D01*
X83571Y-50554D01*
X83571Y-50562D01*
X83573Y-50575D01*
X83577Y-50589D01*
X83583Y-50602D01*
X83591Y-50613D01*
X83593Y-50616D01*
X83605Y-50625D01*
X83617Y-50632D01*
X83632Y-50636D01*
X83648Y-50637D01*
X83652Y-50637D01*
X83670Y-50636D01*
X83687Y-50631D01*
X83704Y-50624D01*
X83719Y-50613D01*
X83729Y-50605D01*
X83734Y-50608D01*
X83747Y-50619D01*
X83758Y-50629D01*
X83767Y-50636D01*
X83773Y-50642D01*
X83778Y-50646D01*
X83780Y-50648D01*
X83780Y-50649D01*
X83779Y-50651D01*
X83775Y-50654D01*
X83771Y-50658D01*
X83765Y-50664D01*
X83759Y-50669D01*
X83754Y-50673D01*
X83749Y-50677D01*
X83748Y-50678D01*
X83730Y-50688D01*
X83710Y-50696D01*
X83689Y-50702D01*
X83687Y-50702D01*
X83676Y-50704D01*
X83664Y-50705D01*
X83651Y-50705D01*
X83639Y-50705D01*
X83632Y-50704D01*
X83610Y-50700D01*
X83589Y-50694D01*
X83570Y-50685D01*
X83554Y-50673D01*
X83539Y-50659D01*
X83527Y-50643D01*
X83517Y-50624D01*
X83513Y-50614D01*
X83508Y-50600D01*
X83505Y-50588D01*
X83503Y-50574D01*
X83501Y-50559D01*
X83500Y-50542D01*
X83500Y-50538D01*
X83500Y-50510D01*
X83502Y-50484D01*
X83507Y-50461D01*
X83513Y-50440D01*
X83522Y-50421D01*
X83533Y-50403D01*
X83536Y-50399D01*
X83548Y-50385D01*
X83562Y-50373D01*
X83579Y-50363D01*
X83597Y-50355D01*
X83608Y-50352D01*
X83621Y-50349D01*
X83636Y-50348D01*
X83652Y-50349D01*
X83668Y-50350D01*
X83681Y-50353D01*
X83701Y-50360D01*
X83720Y-50369D01*
X83737Y-50382D01*
X83752Y-50396D01*
X83764Y-50413D01*
X83774Y-50431D01*
X83781Y-50452D01*
X83784Y-50463D01*
X83785Y-50468D01*
X83786Y-50475D01*
X83786Y-50483D01*
X83787Y-50494D01*
X83787Y-50506D01*
X83787Y-50514D01*
X83787Y-50553D01*
X83787Y-50553D01*
X83787Y-50553D01*
G37*
G36*
X84611Y-50596D02*
X84610Y-50610D01*
X84608Y-50623D01*
X84604Y-50635D01*
X84602Y-50640D01*
X84593Y-50654D01*
X84581Y-50667D01*
X84567Y-50678D01*
X84551Y-50688D01*
X84532Y-50695D01*
X84511Y-50701D01*
X84489Y-50704D01*
X84486Y-50704D01*
X84476Y-50705D01*
X84468Y-50705D01*
X84461Y-50705D01*
X84454Y-50705D01*
X84445Y-50704D01*
X84443Y-50704D01*
X84418Y-50700D01*
X84394Y-50692D01*
X84370Y-50683D01*
X84348Y-50670D01*
X84328Y-50656D01*
X84322Y-50650D01*
X84312Y-50642D01*
X84337Y-50618D01*
X84362Y-50594D01*
X84373Y-50603D01*
X84388Y-50615D01*
X84404Y-50623D01*
X84419Y-50630D01*
X84436Y-50634D01*
X84455Y-50636D01*
X84464Y-50637D01*
X84482Y-50637D01*
X84497Y-50635D01*
X84510Y-50632D01*
X84521Y-50627D01*
X84529Y-50620D01*
X84533Y-50615D01*
X84536Y-50611D01*
X84537Y-50608D01*
X84538Y-50604D01*
X84538Y-50598D01*
X84538Y-50594D01*
X84538Y-50585D01*
X84536Y-50579D01*
X84533Y-50574D01*
X84529Y-50570D01*
X84525Y-50568D01*
X84522Y-50566D01*
X84518Y-50565D01*
X84514Y-50563D01*
X84508Y-50562D01*
X84501Y-50561D01*
X84492Y-50560D01*
X84480Y-50559D01*
X84466Y-50558D01*
X84464Y-50557D01*
X84452Y-50556D01*
X84441Y-50555D01*
X84430Y-50554D01*
X84421Y-50553D01*
X84415Y-50551D01*
X84413Y-50551D01*
X84395Y-50545D01*
X84379Y-50537D01*
X84365Y-50526D01*
X84354Y-50514D01*
X84345Y-50500D01*
X84339Y-50484D01*
X84336Y-50467D01*
X84336Y-50449D01*
X84338Y-50433D01*
X84343Y-50416D01*
X84350Y-50401D01*
X84360Y-50387D01*
X84373Y-50375D01*
X84388Y-50366D01*
X84406Y-50358D01*
X84425Y-50352D01*
X84429Y-50351D01*
X84440Y-50350D01*
X84454Y-50349D01*
X84468Y-50348D01*
X84482Y-50349D01*
X84496Y-50350D01*
X84508Y-50351D01*
X84508Y-50351D01*
X84529Y-50356D01*
X84549Y-50363D01*
X84567Y-50371D01*
X84573Y-50375D01*
X84581Y-50379D01*
X84587Y-50384D01*
X84594Y-50388D01*
X84598Y-50392D01*
X84602Y-50395D01*
X84602Y-50396D01*
X84601Y-50398D01*
X84598Y-50402D01*
X84594Y-50407D01*
X84589Y-50413D01*
X84583Y-50420D01*
X84577Y-50426D01*
X84572Y-50433D01*
X84567Y-50439D01*
X84563Y-50443D01*
X84560Y-50446D01*
X84559Y-50447D01*
X84557Y-50446D01*
X84554Y-50444D01*
X84549Y-50441D01*
X84548Y-50440D01*
X84536Y-50433D01*
X84525Y-50428D01*
X84514Y-50423D01*
X84508Y-50421D01*
X84503Y-50420D01*
X84498Y-50418D01*
X84493Y-50418D01*
X84487Y-50417D01*
X84480Y-50417D01*
X84471Y-50417D01*
X84468Y-50417D01*
X84455Y-50417D01*
X84445Y-50417D01*
X84437Y-50419D01*
X84431Y-50421D01*
X84425Y-50423D01*
X84420Y-50427D01*
X84418Y-50429D01*
X84412Y-50437D01*
X84408Y-50445D01*
X84407Y-50455D01*
X84407Y-50456D01*
X84409Y-50465D01*
X84413Y-50473D01*
X84420Y-50479D01*
X84430Y-50484D01*
X84432Y-50485D01*
X84437Y-50486D01*
X84445Y-50487D01*
X84455Y-50488D01*
X84468Y-50489D01*
X84483Y-50491D01*
X84483Y-50491D01*
X84500Y-50492D01*
X84514Y-50493D01*
X84526Y-50495D01*
X84535Y-50496D01*
X84538Y-50497D01*
X84555Y-50503D01*
X84570Y-50511D01*
X84583Y-50522D01*
X84594Y-50535D01*
X84602Y-50549D01*
X84607Y-50566D01*
X84610Y-50584D01*
X84611Y-50596D01*
X84611Y-50596D01*
X84611Y-50596D01*
G37*
G36*
X84937Y-50527D02*
X84937Y-50549D01*
X84936Y-50569D01*
X84934Y-50586D01*
X84931Y-50601D01*
X84928Y-50615D01*
X84923Y-50627D01*
X84917Y-50638D01*
X84909Y-50649D01*
X84900Y-50659D01*
X84895Y-50664D01*
X84883Y-50676D01*
X84871Y-50685D01*
X84866Y-50687D01*
X84866Y-50528D01*
X84866Y-50515D01*
X84865Y-50503D01*
X84865Y-50492D01*
X84864Y-50482D01*
X84863Y-50475D01*
X84863Y-50474D01*
X84858Y-50459D01*
X84852Y-50447D01*
X84843Y-50438D01*
X84835Y-50431D01*
X84821Y-50424D01*
X84807Y-50420D01*
X84793Y-50419D01*
X84779Y-50421D01*
X84766Y-50425D01*
X84753Y-50431D01*
X84742Y-50440D01*
X84734Y-50452D01*
X84732Y-50453D01*
X84730Y-50458D01*
X84727Y-50464D01*
X84726Y-50469D01*
X84724Y-50475D01*
X84723Y-50483D01*
X84723Y-50492D01*
X84723Y-50503D01*
X84722Y-50517D01*
X84722Y-50527D01*
X84722Y-50540D01*
X84723Y-50552D01*
X84723Y-50560D01*
X84723Y-50567D01*
X84723Y-50572D01*
X84724Y-50577D01*
X84725Y-50581D01*
X84725Y-50582D01*
X84731Y-50596D01*
X84739Y-50609D01*
X84749Y-50619D01*
X84760Y-50626D01*
X84774Y-50631D01*
X84788Y-50634D01*
X84804Y-50633D01*
X84808Y-50632D01*
X84818Y-50630D01*
X84828Y-50625D01*
X84838Y-50620D01*
X84843Y-50616D01*
X84850Y-50608D01*
X84856Y-50598D01*
X84861Y-50586D01*
X84863Y-50579D01*
X84864Y-50573D01*
X84865Y-50564D01*
X84865Y-50553D01*
X84866Y-50541D01*
X84866Y-50528D01*
X84866Y-50687D01*
X84858Y-50692D01*
X84844Y-50697D01*
X84843Y-50697D01*
X84821Y-50703D01*
X84799Y-50705D01*
X84777Y-50704D01*
X84773Y-50704D01*
X84752Y-50700D01*
X84732Y-50693D01*
X84714Y-50683D01*
X84697Y-50670D01*
X84683Y-50655D01*
X84682Y-50654D01*
X84674Y-50642D01*
X84667Y-50630D01*
X84661Y-50617D01*
X84657Y-50602D01*
X84653Y-50585D01*
X84651Y-50567D01*
X84650Y-50546D01*
X84650Y-50527D01*
X84650Y-50503D01*
X84652Y-50483D01*
X84654Y-50464D01*
X84657Y-50448D01*
X84662Y-50434D01*
X84668Y-50421D01*
X84675Y-50409D01*
X84682Y-50399D01*
X84697Y-50384D01*
X84713Y-50371D01*
X84731Y-50361D01*
X84751Y-50354D01*
X84772Y-50349D01*
X84783Y-50348D01*
X84801Y-50348D01*
X84819Y-50350D01*
X84837Y-50354D01*
X84855Y-50360D01*
X84869Y-50367D01*
X84878Y-50373D01*
X84887Y-50381D01*
X84896Y-50390D01*
X84905Y-50400D01*
X84913Y-50409D01*
X84917Y-50415D01*
X84922Y-50425D01*
X84927Y-50436D01*
X84930Y-50447D01*
X84933Y-50460D01*
X84935Y-50474D01*
X84936Y-50490D01*
X84937Y-50508D01*
X84937Y-50527D01*
X84937Y-50527D01*
X84937Y-50527D01*
G37*
G36*
X85276Y-50701D02*
X85240Y-50701D01*
X85204Y-50701D01*
X85204Y-50683D01*
X85204Y-50665D01*
X85193Y-50675D01*
X85178Y-50687D01*
X85162Y-50695D01*
X85144Y-50701D01*
X85125Y-50704D01*
X85120Y-50705D01*
X85113Y-50705D01*
X85105Y-50705D01*
X85099Y-50704D01*
X85099Y-50704D01*
X85080Y-50700D01*
X85062Y-50693D01*
X85046Y-50683D01*
X85031Y-50670D01*
X85031Y-50670D01*
X85024Y-50663D01*
X85019Y-50657D01*
X85015Y-50651D01*
X85012Y-50645D01*
X85009Y-50640D01*
X85007Y-50636D01*
X85005Y-50632D01*
X85004Y-50628D01*
X85002Y-50624D01*
X85001Y-50620D01*
X85000Y-50615D01*
X84999Y-50609D01*
X84999Y-50603D01*
X84998Y-50595D01*
X84998Y-50586D01*
X84997Y-50575D01*
X84997Y-50562D01*
X84997Y-50547D01*
X84997Y-50529D01*
X84997Y-50509D01*
X84997Y-50486D01*
X84997Y-50477D01*
X84997Y-50352D01*
X85032Y-50352D01*
X85067Y-50352D01*
X85067Y-50464D01*
X85068Y-50487D01*
X85068Y-50506D01*
X85068Y-50523D01*
X85068Y-50537D01*
X85068Y-50549D01*
X85068Y-50559D01*
X85069Y-50568D01*
X85069Y-50574D01*
X85070Y-50580D01*
X85071Y-50584D01*
X85072Y-50588D01*
X85073Y-50591D01*
X85074Y-50594D01*
X85076Y-50597D01*
X85077Y-50601D01*
X85078Y-50601D01*
X85085Y-50612D01*
X85095Y-50621D01*
X85106Y-50627D01*
X85119Y-50631D01*
X85132Y-50633D01*
X85145Y-50633D01*
X85158Y-50631D01*
X85170Y-50625D01*
X85181Y-50618D01*
X85184Y-50615D01*
X85191Y-50606D01*
X85197Y-50595D01*
X85201Y-50583D01*
X85202Y-50579D01*
X85203Y-50575D01*
X85203Y-50569D01*
X85203Y-50559D01*
X85203Y-50547D01*
X85204Y-50532D01*
X85204Y-50515D01*
X85204Y-50495D01*
X85204Y-50474D01*
X85204Y-50461D01*
X85204Y-50352D01*
X85240Y-50352D01*
X85276Y-50352D01*
X85276Y-50527D01*
X85276Y-50701D01*
X85276Y-50701D01*
X85276Y-50701D01*
G37*
G36*
X85861Y-50644D02*
X85859Y-50647D01*
X85856Y-50650D01*
X85851Y-50655D01*
X85846Y-50661D01*
X85839Y-50666D01*
X85833Y-50671D01*
X85832Y-50672D01*
X85822Y-50679D01*
X85811Y-50685D01*
X85800Y-50691D01*
X85788Y-50696D01*
X85778Y-50699D01*
X85777Y-50700D01*
X85769Y-50702D01*
X85759Y-50703D01*
X85750Y-50704D01*
X85741Y-50705D01*
X85734Y-50706D01*
X85733Y-50706D01*
X85728Y-50705D01*
X85721Y-50705D01*
X85714Y-50704D01*
X85692Y-50700D01*
X85671Y-50693D01*
X85652Y-50683D01*
X85635Y-50671D01*
X85620Y-50657D01*
X85607Y-50640D01*
X85596Y-50621D01*
X85588Y-50599D01*
X85586Y-50594D01*
X85583Y-50582D01*
X85581Y-50571D01*
X85579Y-50561D01*
X85578Y-50549D01*
X85578Y-50536D01*
X85578Y-50526D01*
X85579Y-50502D01*
X85581Y-50481D01*
X85585Y-50462D01*
X85591Y-50444D01*
X85599Y-50427D01*
X85604Y-50417D01*
X85609Y-50409D01*
X85617Y-50401D01*
X85625Y-50392D01*
X85634Y-50383D01*
X85642Y-50376D01*
X85644Y-50375D01*
X85663Y-50364D01*
X85683Y-50356D01*
X85704Y-50351D01*
X85726Y-50348D01*
X85748Y-50349D01*
X85771Y-50352D01*
X85777Y-50353D01*
X85786Y-50356D01*
X85797Y-50361D01*
X85809Y-50367D01*
X85821Y-50373D01*
X85831Y-50380D01*
X85832Y-50381D01*
X85838Y-50386D01*
X85845Y-50392D01*
X85851Y-50397D01*
X85856Y-50402D01*
X85859Y-50406D01*
X85861Y-50409D01*
X85861Y-50409D01*
X85859Y-50410D01*
X85856Y-50413D01*
X85851Y-50418D01*
X85846Y-50423D01*
X85839Y-50429D01*
X85832Y-50435D01*
X85825Y-50441D01*
X85819Y-50447D01*
X85814Y-50451D01*
X85811Y-50454D01*
X85809Y-50455D01*
X85809Y-50455D01*
X85808Y-50454D01*
X85805Y-50451D01*
X85803Y-50449D01*
X85796Y-50443D01*
X85788Y-50436D01*
X85778Y-50430D01*
X85769Y-50425D01*
X85765Y-50424D01*
X85759Y-50422D01*
X85753Y-50421D01*
X85746Y-50420D01*
X85737Y-50420D01*
X85736Y-50420D01*
X85720Y-50421D01*
X85705Y-50424D01*
X85693Y-50429D01*
X85682Y-50436D01*
X85674Y-50444D01*
X85667Y-50453D01*
X85661Y-50463D01*
X85656Y-50474D01*
X85653Y-50483D01*
X85652Y-50489D01*
X85651Y-50494D01*
X85650Y-50499D01*
X85650Y-50506D01*
X85650Y-50515D01*
X85650Y-50526D01*
X85650Y-50527D01*
X85650Y-50541D01*
X85651Y-50554D01*
X85652Y-50564D01*
X85654Y-50574D01*
X85657Y-50582D01*
X85661Y-50591D01*
X85662Y-50593D01*
X85668Y-50602D01*
X85676Y-50611D01*
X85685Y-50619D01*
X85694Y-50625D01*
X85695Y-50625D01*
X85709Y-50630D01*
X85725Y-50633D01*
X85740Y-50633D01*
X85755Y-50632D01*
X85766Y-50629D01*
X85776Y-50625D01*
X85785Y-50619D01*
X85794Y-50612D01*
X85802Y-50605D01*
X85803Y-50604D01*
X85806Y-50601D01*
X85809Y-50599D01*
X85809Y-50598D01*
X85811Y-50599D01*
X85814Y-50602D01*
X85819Y-50606D01*
X85825Y-50612D01*
X85832Y-50618D01*
X85839Y-50624D01*
X85845Y-50630D01*
X85851Y-50635D01*
X85856Y-50640D01*
X85859Y-50643D01*
X85861Y-50644D01*
X85861Y-50644D01*
X85861Y-50644D01*
G37*
G36*
X86166Y-50554D02*
X86095Y-50554D01*
X86095Y-50494D01*
X86093Y-50485D01*
X86090Y-50468D01*
X86084Y-50453D01*
X86076Y-50440D01*
X86066Y-50430D01*
X86053Y-50422D01*
X86053Y-50422D01*
X86048Y-50420D01*
X86044Y-50418D01*
X86041Y-50417D01*
X86036Y-50417D01*
X86029Y-50417D01*
X86022Y-50417D01*
X86011Y-50417D01*
X86003Y-50418D01*
X85996Y-50419D01*
X85989Y-50422D01*
X85982Y-50426D01*
X85979Y-50428D01*
X85971Y-50436D01*
X85964Y-50445D01*
X85958Y-50457D01*
X85953Y-50469D01*
X85950Y-50483D01*
X85950Y-50486D01*
X85949Y-50494D01*
X86022Y-50494D01*
X86095Y-50494D01*
X86095Y-50554D01*
X86057Y-50554D01*
X85949Y-50554D01*
X85950Y-50563D01*
X85953Y-50580D01*
X85958Y-50596D01*
X85966Y-50609D01*
X85976Y-50619D01*
X85988Y-50628D01*
X86002Y-50633D01*
X86018Y-50637D01*
X86031Y-50637D01*
X86049Y-50636D01*
X86066Y-50631D01*
X86083Y-50623D01*
X86098Y-50613D01*
X86108Y-50605D01*
X86134Y-50626D01*
X86141Y-50633D01*
X86148Y-50639D01*
X86153Y-50643D01*
X86157Y-50647D01*
X86159Y-50649D01*
X86159Y-50649D01*
X86158Y-50651D01*
X86154Y-50654D01*
X86150Y-50659D01*
X86144Y-50664D01*
X86138Y-50669D01*
X86132Y-50674D01*
X86126Y-50678D01*
X86125Y-50679D01*
X86106Y-50689D01*
X86085Y-50697D01*
X86062Y-50703D01*
X86052Y-50704D01*
X86044Y-50705D01*
X86037Y-50705D01*
X86031Y-50705D01*
X86024Y-50705D01*
X86015Y-50704D01*
X86010Y-50704D01*
X85992Y-50701D01*
X85974Y-50696D01*
X85957Y-50689D01*
X85942Y-50680D01*
X85929Y-50670D01*
X85928Y-50670D01*
X85915Y-50655D01*
X85903Y-50639D01*
X85894Y-50621D01*
X85887Y-50601D01*
X85882Y-50579D01*
X85879Y-50554D01*
X85878Y-50527D01*
X85879Y-50505D01*
X85881Y-50486D01*
X85884Y-50468D01*
X85888Y-50452D01*
X85894Y-50436D01*
X85898Y-50426D01*
X85909Y-50407D01*
X85921Y-50391D01*
X85935Y-50377D01*
X85952Y-50366D01*
X85970Y-50357D01*
X85990Y-50351D01*
X85990Y-50351D01*
X86004Y-50349D01*
X86018Y-50348D01*
X86034Y-50349D01*
X86049Y-50350D01*
X86057Y-50352D01*
X86077Y-50358D01*
X86095Y-50367D01*
X86112Y-50379D01*
X86127Y-50393D01*
X86140Y-50408D01*
X86150Y-50425D01*
X86154Y-50433D01*
X86156Y-50440D01*
X86159Y-50447D01*
X86161Y-50453D01*
X86162Y-50460D01*
X86163Y-50467D01*
X86164Y-50475D01*
X86164Y-50485D01*
X86165Y-50498D01*
X86165Y-50510D01*
X86166Y-50554D01*
X86166Y-50554D01*
X86166Y-50554D01*
G37*
G36*
X84125Y-50701D02*
X84089Y-50701D01*
X84054Y-50701D01*
X84054Y-50592D01*
X84053Y-50569D01*
X84053Y-50549D01*
X84053Y-50532D01*
X84053Y-50517D01*
X84053Y-50505D01*
X84053Y-50495D01*
X84052Y-50486D01*
X84052Y-50479D01*
X84051Y-50473D01*
X84050Y-50469D01*
X84049Y-50465D01*
X84048Y-50461D01*
X84047Y-50458D01*
X84045Y-50455D01*
X84044Y-50453D01*
X84036Y-50441D01*
X84026Y-50432D01*
X84014Y-50425D01*
X84001Y-50421D01*
X83986Y-50419D01*
X83973Y-50420D01*
X83959Y-50424D01*
X83947Y-50431D01*
X83936Y-50440D01*
X83928Y-50451D01*
X83922Y-50465D01*
X83918Y-50478D01*
X83918Y-50482D01*
X83918Y-50489D01*
X83917Y-50498D01*
X83917Y-50511D01*
X83917Y-50526D01*
X83917Y-50544D01*
X83917Y-50563D01*
X83917Y-50585D01*
X83917Y-50595D01*
X83917Y-50701D01*
X83881Y-50701D01*
X83845Y-50701D01*
X83845Y-50527D01*
X83845Y-50352D01*
X83881Y-50352D01*
X83917Y-50352D01*
X83917Y-50371D01*
X83917Y-50389D01*
X83928Y-50378D01*
X83942Y-50367D01*
X83958Y-50358D01*
X83976Y-50352D01*
X83995Y-50349D01*
X84007Y-50348D01*
X84027Y-50350D01*
X84045Y-50354D01*
X84063Y-50362D01*
X84078Y-50372D01*
X84092Y-50384D01*
X84104Y-50399D01*
X84113Y-50415D01*
X84120Y-50434D01*
X84121Y-50435D01*
X84121Y-50437D01*
X84122Y-50440D01*
X84122Y-50442D01*
X84123Y-50445D01*
X84123Y-50449D01*
X84124Y-50453D01*
X84124Y-50459D01*
X84124Y-50466D01*
X84124Y-50475D01*
X84124Y-50485D01*
X84124Y-50498D01*
X84125Y-50513D01*
X84125Y-50530D01*
X84125Y-50550D01*
X84125Y-50574D01*
X84125Y-50574D01*
X84125Y-50701D01*
X84125Y-50701D01*
X84125Y-50701D01*
G37*
G36*
X85587Y-50375D02*
X85586Y-50376D01*
X85583Y-50380D01*
X85579Y-50385D01*
X85574Y-50392D01*
X85568Y-50399D01*
X85561Y-50406D01*
X85555Y-50414D01*
X85549Y-50421D01*
X85544Y-50427D01*
X85540Y-50431D01*
X85537Y-50434D01*
X85536Y-50435D01*
X85534Y-50434D01*
X85530Y-50433D01*
X85525Y-50430D01*
X85524Y-50429D01*
X85517Y-50425D01*
X85510Y-50422D01*
X85504Y-50421D01*
X85496Y-50420D01*
X85487Y-50420D01*
X85472Y-50421D01*
X85459Y-50426D01*
X85448Y-50433D01*
X85438Y-50443D01*
X85435Y-50447D01*
X85433Y-50450D01*
X85431Y-50453D01*
X85429Y-50455D01*
X85428Y-50458D01*
X85427Y-50461D01*
X85426Y-50465D01*
X85425Y-50470D01*
X85424Y-50476D01*
X85424Y-50484D01*
X85423Y-50493D01*
X85423Y-50504D01*
X85423Y-50517D01*
X85423Y-50532D01*
X85423Y-50550D01*
X85423Y-50571D01*
X85423Y-50586D01*
X85422Y-50701D01*
X85386Y-50701D01*
X85351Y-50701D01*
X85351Y-50527D01*
X85351Y-50352D01*
X85386Y-50352D01*
X85422Y-50352D01*
X85422Y-50370D01*
X85422Y-50388D01*
X85433Y-50378D01*
X85447Y-50367D01*
X85463Y-50358D01*
X85479Y-50352D01*
X85497Y-50349D01*
X85513Y-50349D01*
X85527Y-50349D01*
X85539Y-50351D01*
X85551Y-50355D01*
X85563Y-50360D01*
X85576Y-50367D01*
X85577Y-50368D01*
X85582Y-50371D01*
X85585Y-50374D01*
X85587Y-50375D01*
X85587Y-50375D01*
X85587Y-50375D01*
G37*
G36*
X85794Y-49215D02*
X85789Y-49220D01*
X85784Y-49225D01*
X85724Y-49236D01*
X85724Y-49101D01*
X85723Y-49085D01*
X85720Y-49072D01*
X85714Y-49060D01*
X85705Y-49051D01*
X85694Y-49043D01*
X85692Y-49042D01*
X85686Y-49038D01*
X85682Y-49036D01*
X85681Y-49034D01*
X85683Y-49034D01*
X85685Y-49033D01*
X85688Y-49030D01*
X85692Y-49027D01*
X85693Y-49026D01*
X85702Y-49016D01*
X85708Y-49005D01*
X85711Y-48992D01*
X85711Y-48978D01*
X85711Y-48974D01*
X85708Y-48962D01*
X85704Y-48951D01*
X85697Y-48942D01*
X85693Y-48938D01*
X85682Y-48929D01*
X85670Y-48922D01*
X85655Y-48917D01*
X85638Y-48913D01*
X85618Y-48911D01*
X85595Y-48910D01*
X85570Y-48911D01*
X85568Y-48911D01*
X85557Y-48912D01*
X85547Y-48913D01*
X85537Y-48914D01*
X85530Y-48915D01*
X85525Y-48915D01*
X85513Y-48917D01*
X85514Y-49047D01*
X85514Y-49177D01*
X85526Y-49179D01*
X85538Y-49180D01*
X85552Y-49182D01*
X85568Y-49183D01*
X85585Y-49184D01*
X85601Y-49184D01*
X85616Y-49183D01*
X85629Y-49183D01*
X85634Y-49182D01*
X85655Y-49179D01*
X85673Y-49173D01*
X85688Y-49166D01*
X85701Y-49157D01*
X85711Y-49147D01*
X85718Y-49134D01*
X85722Y-49120D01*
X85724Y-49104D01*
X85724Y-49101D01*
X85724Y-49236D01*
X85624Y-49255D01*
X85598Y-49260D01*
X85574Y-49264D01*
X85553Y-49268D01*
X85535Y-49272D01*
X85519Y-49275D01*
X85506Y-49277D01*
X85494Y-49280D01*
X85485Y-49282D01*
X85477Y-49283D01*
X85471Y-49285D01*
X85466Y-49287D01*
X85462Y-49288D01*
X85459Y-49289D01*
X85457Y-49290D01*
X85456Y-49292D01*
X85454Y-49293D01*
X85454Y-49295D01*
X85453Y-49296D01*
X85453Y-49297D01*
X85451Y-49301D01*
X85448Y-49307D01*
X85445Y-49316D01*
X85440Y-49327D01*
X85435Y-49340D01*
X85429Y-49354D01*
X85423Y-49369D01*
X85417Y-49385D01*
X85410Y-49402D01*
X85403Y-49419D01*
X85397Y-49436D01*
X85390Y-49453D01*
X85384Y-49469D01*
X85377Y-49485D01*
X85372Y-49500D01*
X85367Y-49513D01*
X85362Y-49525D01*
X85358Y-49535D01*
X85355Y-49543D01*
X85353Y-49549D01*
X85352Y-49551D01*
X85352Y-49552D01*
X85353Y-49557D01*
X85353Y-49560D01*
X85354Y-49562D01*
X85357Y-49566D01*
X85361Y-49573D01*
X85367Y-49582D01*
X85374Y-49592D01*
X85383Y-49605D01*
X85392Y-49619D01*
X85403Y-49634D01*
X85414Y-49651D01*
X85426Y-49668D01*
X85438Y-49686D01*
X85444Y-49695D01*
X85459Y-49717D01*
X85473Y-49736D01*
X85484Y-49753D01*
X85494Y-49768D01*
X85503Y-49780D01*
X85510Y-49791D01*
X85516Y-49800D01*
X85521Y-49808D01*
X85525Y-49814D01*
X85528Y-49819D01*
X85531Y-49823D01*
X85532Y-49826D01*
X85533Y-49829D01*
X85534Y-49831D01*
X85535Y-49832D01*
X85535Y-49833D01*
X85535Y-49834D01*
X85535Y-49841D01*
X85415Y-49961D01*
X85399Y-49977D01*
X85383Y-49993D01*
X85368Y-50008D01*
X85366Y-50009D01*
X85366Y-49941D01*
X85359Y-49918D01*
X85355Y-49908D01*
X85352Y-49901D01*
X85350Y-49897D01*
X85349Y-49896D01*
X85349Y-49896D01*
X85346Y-49896D01*
X85342Y-49898D01*
X85335Y-49900D01*
X85333Y-49901D01*
X85324Y-49903D01*
X85315Y-49905D01*
X85305Y-49907D01*
X85302Y-49908D01*
X85283Y-49909D01*
X85266Y-49907D01*
X85251Y-49903D01*
X85238Y-49897D01*
X85228Y-49888D01*
X85219Y-49876D01*
X85212Y-49862D01*
X85209Y-49854D01*
X85208Y-49846D01*
X85207Y-49836D01*
X85206Y-49825D01*
X85206Y-49814D01*
X85207Y-49804D01*
X85208Y-49795D01*
X85209Y-49792D01*
X85214Y-49776D01*
X85221Y-49763D01*
X85231Y-49752D01*
X85242Y-49744D01*
X85256Y-49738D01*
X85261Y-49736D01*
X85273Y-49735D01*
X85287Y-49735D01*
X85301Y-49736D01*
X85316Y-49739D01*
X85329Y-49743D01*
X85333Y-49745D01*
X85339Y-49747D01*
X85343Y-49748D01*
X85346Y-49748D01*
X85346Y-49748D01*
X85347Y-49746D01*
X85349Y-49742D01*
X85351Y-49735D01*
X85354Y-49728D01*
X85355Y-49725D01*
X85362Y-49703D01*
X85358Y-49700D01*
X85354Y-49697D01*
X85346Y-49694D01*
X85337Y-49691D01*
X85327Y-49688D01*
X85320Y-49686D01*
X85311Y-49685D01*
X85300Y-49684D01*
X85288Y-49683D01*
X85275Y-49683D01*
X85263Y-49684D01*
X85252Y-49685D01*
X85243Y-49686D01*
X85242Y-49686D01*
X85230Y-49690D01*
X85218Y-49695D01*
X85206Y-49702D01*
X85195Y-49708D01*
X85188Y-49714D01*
X85174Y-49729D01*
X85163Y-49746D01*
X85154Y-49764D01*
X85148Y-49784D01*
X85145Y-49806D01*
X85144Y-49828D01*
X85145Y-49840D01*
X85147Y-49856D01*
X85150Y-49870D01*
X85154Y-49883D01*
X85159Y-49896D01*
X85161Y-49898D01*
X85170Y-49914D01*
X85182Y-49928D01*
X85196Y-49939D01*
X85211Y-49948D01*
X85224Y-49953D01*
X85233Y-49955D01*
X85241Y-49957D01*
X85249Y-49959D01*
X85252Y-49959D01*
X85261Y-49960D01*
X85272Y-49960D01*
X85285Y-49960D01*
X85297Y-49960D01*
X85309Y-49959D01*
X85318Y-49957D01*
X85320Y-49957D01*
X85337Y-49953D01*
X85352Y-49948D01*
X85360Y-49945D01*
X85366Y-49941D01*
X85366Y-50009D01*
X85354Y-50022D01*
X85340Y-50035D01*
X85329Y-50047D01*
X85318Y-50057D01*
X85309Y-50066D01*
X85302Y-50073D01*
X85296Y-50078D01*
X85293Y-50081D01*
X85291Y-50082D01*
X85285Y-50083D01*
X85282Y-50082D01*
X85280Y-50081D01*
X85275Y-50078D01*
X85268Y-50074D01*
X85259Y-50068D01*
X85248Y-50061D01*
X85236Y-50052D01*
X85222Y-50043D01*
X85206Y-50032D01*
X85190Y-50021D01*
X85172Y-50009D01*
X85154Y-49997D01*
X85149Y-49993D01*
X85128Y-49979D01*
X85108Y-49965D01*
X85090Y-49953D01*
X85073Y-49942D01*
X85059Y-49932D01*
X85046Y-49923D01*
X85035Y-49916D01*
X85027Y-49911D01*
X85020Y-49907D01*
X85016Y-49905D01*
X85015Y-49904D01*
X85010Y-49904D01*
X85005Y-49904D01*
X85003Y-49905D01*
X84998Y-49908D01*
X84990Y-49911D01*
X84981Y-49916D01*
X84971Y-49921D01*
X84959Y-49927D01*
X84947Y-49934D01*
X84943Y-49936D01*
X84927Y-49945D01*
X84913Y-49952D01*
X84901Y-49958D01*
X84892Y-49962D01*
X84886Y-49965D01*
X84882Y-49966D01*
X84881Y-49967D01*
X84876Y-49965D01*
X84872Y-49963D01*
X84871Y-49961D01*
X84869Y-49956D01*
X84866Y-49948D01*
X84862Y-49939D01*
X84856Y-49926D01*
X84850Y-49912D01*
X84843Y-49896D01*
X84836Y-49878D01*
X84828Y-49859D01*
X84819Y-49838D01*
X84810Y-49816D01*
X84800Y-49793D01*
X84790Y-49769D01*
X84780Y-49744D01*
X84770Y-49719D01*
X84759Y-49694D01*
X84749Y-49669D01*
X84738Y-49643D01*
X84728Y-49618D01*
X84718Y-49594D01*
X84708Y-49570D01*
X84698Y-49547D01*
X84689Y-49524D01*
X84681Y-49504D01*
X84673Y-49484D01*
X84665Y-49466D01*
X84659Y-49450D01*
X84653Y-49435D01*
X84648Y-49423D01*
X84644Y-49413D01*
X84641Y-49405D01*
X84639Y-49400D01*
X84639Y-49398D01*
X84639Y-49393D01*
X84640Y-49389D01*
X84640Y-49388D01*
X84642Y-49386D01*
X84647Y-49382D01*
X84653Y-49378D01*
X84660Y-49373D01*
X84660Y-49373D01*
X84668Y-49368D01*
X84676Y-49363D01*
X84684Y-49358D01*
X84688Y-49354D01*
X84694Y-49350D01*
X84702Y-49344D01*
X84710Y-49338D01*
X84716Y-49334D01*
X84726Y-49325D01*
X84738Y-49315D01*
X84750Y-49304D01*
X84762Y-49292D01*
X84773Y-49280D01*
X84782Y-49269D01*
X84785Y-49265D01*
X84804Y-49236D01*
X84821Y-49206D01*
X84835Y-49175D01*
X84840Y-49161D01*
X84849Y-49128D01*
X84855Y-49095D01*
X84858Y-49063D01*
X84858Y-49030D01*
X84855Y-48999D01*
X84850Y-48967D01*
X84841Y-48937D01*
X84830Y-48907D01*
X84817Y-48879D01*
X84801Y-48851D01*
X84783Y-48825D01*
X84762Y-48801D01*
X84740Y-48779D01*
X84715Y-48758D01*
X84689Y-48740D01*
X84660Y-48724D01*
X84644Y-48716D01*
X84644Y-48095D01*
X84643Y-48076D01*
X84641Y-48047D01*
X84639Y-48019D01*
X84638Y-47992D01*
X84636Y-47967D01*
X84634Y-47943D01*
X84632Y-47920D01*
X84631Y-47900D01*
X84629Y-47881D01*
X84627Y-47865D01*
X84626Y-47852D01*
X84624Y-47841D01*
X84623Y-47833D01*
X84623Y-47833D01*
X84622Y-47828D01*
X84595Y-47828D01*
X84568Y-47828D01*
X84557Y-47851D01*
X84552Y-47861D01*
X84546Y-47874D01*
X84540Y-47888D01*
X84533Y-47903D01*
X84526Y-47919D01*
X84519Y-47934D01*
X84512Y-47950D01*
X84506Y-47963D01*
X84504Y-47969D01*
X84501Y-47976D01*
X84498Y-47982D01*
X84496Y-47986D01*
X84495Y-47988D01*
X84495Y-47988D01*
X84494Y-47986D01*
X84492Y-47983D01*
X84490Y-47977D01*
X84487Y-47970D01*
X84481Y-47957D01*
X84475Y-47942D01*
X84468Y-47926D01*
X84461Y-47910D01*
X84454Y-47895D01*
X84447Y-47880D01*
X84441Y-47867D01*
X84435Y-47856D01*
X84434Y-47853D01*
X84422Y-47828D01*
X84393Y-47828D01*
X84383Y-47828D01*
X84375Y-47828D01*
X84369Y-47829D01*
X84366Y-47829D01*
X84365Y-47830D01*
X84365Y-47830D01*
X84365Y-47833D01*
X84364Y-47838D01*
X84363Y-47844D01*
X84362Y-47851D01*
X84361Y-47863D01*
X84359Y-47878D01*
X84358Y-47896D01*
X84356Y-47915D01*
X84354Y-47936D01*
X84352Y-47958D01*
X84351Y-47980D01*
X84349Y-48003D01*
X84348Y-48024D01*
X84347Y-48045D01*
X84346Y-48061D01*
X84346Y-48070D01*
X84345Y-48078D01*
X84345Y-48084D01*
X84344Y-48089D01*
X84343Y-48095D01*
X84372Y-48095D01*
X84402Y-48095D01*
X84404Y-48041D01*
X84404Y-48027D01*
X84405Y-48012D01*
X84405Y-47997D01*
X84406Y-47983D01*
X84407Y-47969D01*
X84408Y-47956D01*
X84409Y-47944D01*
X84409Y-47934D01*
X84410Y-47926D01*
X84410Y-47921D01*
X84411Y-47918D01*
X84411Y-47918D01*
X84411Y-47919D01*
X84412Y-47920D01*
X84413Y-47922D01*
X84415Y-47926D01*
X84417Y-47931D01*
X84420Y-47938D01*
X84424Y-47947D01*
X84429Y-47958D01*
X84435Y-47971D01*
X84442Y-47988D01*
X84450Y-48006D01*
X84473Y-48061D01*
X84494Y-48061D01*
X84515Y-48060D01*
X84546Y-47989D01*
X84552Y-47974D01*
X84558Y-47961D01*
X84563Y-47949D01*
X84567Y-47939D01*
X84571Y-47931D01*
X84574Y-47924D01*
X84576Y-47921D01*
X84577Y-47919D01*
X84577Y-47919D01*
X84578Y-47922D01*
X84578Y-47928D01*
X84579Y-47936D01*
X84579Y-47946D01*
X84580Y-47958D01*
X84581Y-47972D01*
X84582Y-47986D01*
X84582Y-48002D01*
X84583Y-48017D01*
X84583Y-48018D01*
X84584Y-48031D01*
X84584Y-48043D01*
X84585Y-48055D01*
X84585Y-48065D01*
X84586Y-48074D01*
X84586Y-48077D01*
X84587Y-48095D01*
X84615Y-48095D01*
X84644Y-48095D01*
X84644Y-48716D01*
X84630Y-48710D01*
X84599Y-48699D01*
X84586Y-48696D01*
X84561Y-48691D01*
X84537Y-48687D01*
X84511Y-48686D01*
X84497Y-48685D01*
X84470Y-48686D01*
X84445Y-48689D01*
X84420Y-48693D01*
X84408Y-48696D01*
X84375Y-48706D01*
X84344Y-48719D01*
X84314Y-48734D01*
X84286Y-48752D01*
X84261Y-48772D01*
X84237Y-48795D01*
X84215Y-48819D01*
X84196Y-48846D01*
X84179Y-48874D01*
X84164Y-48904D01*
X84153Y-48935D01*
X84144Y-48968D01*
X84138Y-49001D01*
X84137Y-49006D01*
X84135Y-49040D01*
X84136Y-49073D01*
X84140Y-49106D01*
X84147Y-49139D01*
X84157Y-49171D01*
X84171Y-49202D01*
X84187Y-49233D01*
X84206Y-49262D01*
X84209Y-49265D01*
X84217Y-49276D01*
X84227Y-49287D01*
X84239Y-49299D01*
X84251Y-49310D01*
X84262Y-49321D01*
X84274Y-49331D01*
X84280Y-49335D01*
X84287Y-49341D01*
X84294Y-49346D01*
X84300Y-49350D01*
X84303Y-49353D01*
X84307Y-49356D01*
X84313Y-49360D01*
X84320Y-49364D01*
X84328Y-49370D01*
X84330Y-49371D01*
X84338Y-49375D01*
X84344Y-49380D01*
X84349Y-49384D01*
X84352Y-49387D01*
X84353Y-49387D01*
X84355Y-49393D01*
X84355Y-49398D01*
X84354Y-49400D01*
X84352Y-49405D01*
X84349Y-49413D01*
X84345Y-49423D01*
X84340Y-49436D01*
X84334Y-49450D01*
X84328Y-49466D01*
X84320Y-49485D01*
X84312Y-49504D01*
X84304Y-49525D01*
X84295Y-49547D01*
X84285Y-49571D01*
X84275Y-49595D01*
X84265Y-49619D01*
X84255Y-49644D01*
X84244Y-49670D01*
X84234Y-49695D01*
X84223Y-49720D01*
X84213Y-49745D01*
X84203Y-49770D01*
X84193Y-49794D01*
X84183Y-49817D01*
X84174Y-49839D01*
X84165Y-49859D01*
X84157Y-49879D01*
X84150Y-49897D01*
X84143Y-49913D01*
X84137Y-49927D01*
X84132Y-49939D01*
X84127Y-49949D01*
X84124Y-49956D01*
X84122Y-49961D01*
X84121Y-49962D01*
X84119Y-49964D01*
X84117Y-49965D01*
X84115Y-49966D01*
X84112Y-49966D01*
X84108Y-49965D01*
X84103Y-49963D01*
X84097Y-49960D01*
X84088Y-49956D01*
X84078Y-49951D01*
X84065Y-49944D01*
X84051Y-49936D01*
X84038Y-49929D01*
X84026Y-49923D01*
X84015Y-49917D01*
X84006Y-49912D01*
X83998Y-49909D01*
X83992Y-49906D01*
X83989Y-49904D01*
X83989Y-49904D01*
X83983Y-49904D01*
X83978Y-49904D01*
X83976Y-49905D01*
X83971Y-49908D01*
X83964Y-49913D01*
X83955Y-49919D01*
X83943Y-49926D01*
X83930Y-49935D01*
X83914Y-49946D01*
X83897Y-49957D01*
X83879Y-49970D01*
X83859Y-49983D01*
X83845Y-49993D01*
X83827Y-50005D01*
X83814Y-50014D01*
X83814Y-48208D01*
X83814Y-48183D01*
X83814Y-48157D01*
X83724Y-48157D01*
X83635Y-48157D01*
X83635Y-48291D01*
X83635Y-48425D01*
X83664Y-48425D01*
X83693Y-48425D01*
X83693Y-48369D01*
X83693Y-48314D01*
X83746Y-48314D01*
X83799Y-48314D01*
X83799Y-48289D01*
X83799Y-48265D01*
X83746Y-48265D01*
X83693Y-48265D01*
X83693Y-48236D01*
X83693Y-48208D01*
X83754Y-48208D01*
X83814Y-48208D01*
X83814Y-50014D01*
X83812Y-50015D01*
X83812Y-49875D01*
X83810Y-49861D01*
X83806Y-49848D01*
X83801Y-49838D01*
X83796Y-49830D01*
X83790Y-49824D01*
X83782Y-49818D01*
X83773Y-49812D01*
X83761Y-49806D01*
X83747Y-49800D01*
X83730Y-49794D01*
X83730Y-49794D01*
X83719Y-49789D01*
X83710Y-49786D01*
X83703Y-49782D01*
X83698Y-49780D01*
X83694Y-49777D01*
X83691Y-49774D01*
X83690Y-49774D01*
X83686Y-49767D01*
X83684Y-49760D01*
X83684Y-49752D01*
X83687Y-49745D01*
X83690Y-49741D01*
X83695Y-49737D01*
X83702Y-49735D01*
X83711Y-49734D01*
X83722Y-49733D01*
X83732Y-49733D01*
X83741Y-49734D01*
X83748Y-49734D01*
X83754Y-49736D01*
X83759Y-49737D01*
X83767Y-49740D01*
X83773Y-49742D01*
X83778Y-49744D01*
X83782Y-49745D01*
X83783Y-49745D01*
X83783Y-49744D01*
X83785Y-49740D01*
X83787Y-49734D01*
X83790Y-49727D01*
X83792Y-49720D01*
X83795Y-49713D01*
X83797Y-49707D01*
X83799Y-49703D01*
X83799Y-49701D01*
X83799Y-49701D01*
X83798Y-49700D01*
X83794Y-49698D01*
X83788Y-49695D01*
X83782Y-49693D01*
X83775Y-49690D01*
X83768Y-49688D01*
X83768Y-49688D01*
X83756Y-49685D01*
X83742Y-49684D01*
X83727Y-49683D01*
X83713Y-49683D01*
X83700Y-49684D01*
X83697Y-49684D01*
X83680Y-49688D01*
X83665Y-49694D01*
X83651Y-49703D01*
X83640Y-49713D01*
X83632Y-49725D01*
X83628Y-49733D01*
X83625Y-49742D01*
X83624Y-49753D01*
X83624Y-49765D01*
X83624Y-49776D01*
X83626Y-49783D01*
X83631Y-49796D01*
X83640Y-49808D01*
X83651Y-49819D01*
X83662Y-49826D01*
X83666Y-49828D01*
X83673Y-49831D01*
X83681Y-49835D01*
X83691Y-49839D01*
X83696Y-49841D01*
X83710Y-49846D01*
X83722Y-49851D01*
X83731Y-49856D01*
X83738Y-49860D01*
X83743Y-49864D01*
X83747Y-49868D01*
X83749Y-49872D01*
X83751Y-49876D01*
X83751Y-49884D01*
X83750Y-49892D01*
X83746Y-49899D01*
X83744Y-49901D01*
X83739Y-49904D01*
X83732Y-49907D01*
X83728Y-49908D01*
X83718Y-49910D01*
X83705Y-49911D01*
X83691Y-49910D01*
X83676Y-49908D01*
X83662Y-49905D01*
X83650Y-49901D01*
X83643Y-49897D01*
X83639Y-49896D01*
X83636Y-49895D01*
X83635Y-49895D01*
X83634Y-49897D01*
X83633Y-49901D01*
X83631Y-49907D01*
X83628Y-49913D01*
X83625Y-49921D01*
X83623Y-49927D01*
X83621Y-49933D01*
X83619Y-49938D01*
X83619Y-49938D01*
X83619Y-49940D01*
X83620Y-49941D01*
X83623Y-49943D01*
X83629Y-49946D01*
X83629Y-49946D01*
X83647Y-49952D01*
X83667Y-49957D01*
X83688Y-49960D01*
X83709Y-49961D01*
X83730Y-49960D01*
X83731Y-49959D01*
X83750Y-49956D01*
X83767Y-49951D01*
X83781Y-49944D01*
X83792Y-49935D01*
X83801Y-49924D01*
X83807Y-49911D01*
X83810Y-49903D01*
X83812Y-49890D01*
X83812Y-49875D01*
X83812Y-50015D01*
X83809Y-50017D01*
X83792Y-50029D01*
X83777Y-50040D01*
X83762Y-50049D01*
X83749Y-50058D01*
X83738Y-50066D01*
X83729Y-50072D01*
X83722Y-50077D01*
X83717Y-50080D01*
X83714Y-50082D01*
X83714Y-50082D01*
X83709Y-50083D01*
X83706Y-50083D01*
X83701Y-50081D01*
X83701Y-50081D01*
X83699Y-50080D01*
X83695Y-50076D01*
X83689Y-50070D01*
X83681Y-50063D01*
X83672Y-50054D01*
X83661Y-50043D01*
X83649Y-50031D01*
X83635Y-50018D01*
X83621Y-50004D01*
X83606Y-49988D01*
X83590Y-49972D01*
X83577Y-49960D01*
X83459Y-49841D01*
X83459Y-49834D01*
X83459Y-49833D01*
X83459Y-49831D01*
X83460Y-49829D01*
X83461Y-49827D01*
X83462Y-49824D01*
X83464Y-49821D01*
X83467Y-49816D01*
X83471Y-49810D01*
X83475Y-49803D01*
X83481Y-49795D01*
X83488Y-49785D01*
X83496Y-49773D01*
X83505Y-49759D01*
X83516Y-49743D01*
X83529Y-49725D01*
X83543Y-49704D01*
X83549Y-49695D01*
X83562Y-49677D01*
X83574Y-49659D01*
X83586Y-49642D01*
X83596Y-49626D01*
X83606Y-49611D01*
X83615Y-49598D01*
X83623Y-49586D01*
X83629Y-49577D01*
X83635Y-49569D01*
X83638Y-49563D01*
X83640Y-49560D01*
X83640Y-49560D01*
X83641Y-49555D01*
X83641Y-49552D01*
X83641Y-49550D01*
X83639Y-49545D01*
X83636Y-49538D01*
X83633Y-49528D01*
X83628Y-49517D01*
X83623Y-49504D01*
X83618Y-49490D01*
X83612Y-49474D01*
X83605Y-49458D01*
X83599Y-49441D01*
X83592Y-49424D01*
X83585Y-49407D01*
X83579Y-49390D01*
X83572Y-49374D01*
X83566Y-49358D01*
X83560Y-49344D01*
X83555Y-49331D01*
X83550Y-49319D01*
X83546Y-49310D01*
X83543Y-49302D01*
X83541Y-49298D01*
X83541Y-49297D01*
X83540Y-49295D01*
X83539Y-49293D01*
X83538Y-49292D01*
X83537Y-49291D01*
X83535Y-49289D01*
X83532Y-49288D01*
X83529Y-49287D01*
X83524Y-49285D01*
X83518Y-49284D01*
X83510Y-49282D01*
X83501Y-49280D01*
X83490Y-49278D01*
X83477Y-49275D01*
X83470Y-49274D01*
X83470Y-49006D01*
X83470Y-48991D01*
X83468Y-48976D01*
X83464Y-48963D01*
X83462Y-48958D01*
X83454Y-48946D01*
X83444Y-48936D01*
X83432Y-48928D01*
X83416Y-48921D01*
X83398Y-48916D01*
X83378Y-48912D01*
X83354Y-48911D01*
X83329Y-48911D01*
X83318Y-48911D01*
X83308Y-48912D01*
X83298Y-48913D01*
X83289Y-48914D01*
X83281Y-48915D01*
X83277Y-48915D01*
X83266Y-48917D01*
X83266Y-49049D01*
X83266Y-49181D01*
X83296Y-49181D01*
X83325Y-49181D01*
X83325Y-49136D01*
X83325Y-49092D01*
X83350Y-49091D01*
X83373Y-49089D01*
X83394Y-49086D01*
X83412Y-49081D01*
X83427Y-49075D01*
X83440Y-49068D01*
X83451Y-49059D01*
X83459Y-49048D01*
X83459Y-49047D01*
X83465Y-49035D01*
X83468Y-49021D01*
X83470Y-49006D01*
X83470Y-49274D01*
X83462Y-49272D01*
X83444Y-49269D01*
X83424Y-49265D01*
X83401Y-49261D01*
X83374Y-49256D01*
X83369Y-49255D01*
X83209Y-49225D01*
X83204Y-49220D01*
X83200Y-49215D01*
X83200Y-49045D01*
X83200Y-49018D01*
X83200Y-48993D01*
X83200Y-48972D01*
X83200Y-48953D01*
X83200Y-48937D01*
X83200Y-48924D01*
X83200Y-48912D01*
X83200Y-48902D01*
X83200Y-48894D01*
X83200Y-48888D01*
X83201Y-48883D01*
X83201Y-48879D01*
X83201Y-48876D01*
X83201Y-48874D01*
X83202Y-48873D01*
X83202Y-48872D01*
X83203Y-48871D01*
X83203Y-48870D01*
X83206Y-48867D01*
X83209Y-48865D01*
X83209Y-48865D01*
X83211Y-48864D01*
X83216Y-48863D01*
X83224Y-48861D01*
X83233Y-48859D01*
X83245Y-48857D01*
X83258Y-48855D01*
X83272Y-48852D01*
X83279Y-48851D01*
X83312Y-48845D01*
X83343Y-48839D01*
X83370Y-48834D01*
X83395Y-48829D01*
X83417Y-48825D01*
X83437Y-48821D01*
X83454Y-48818D01*
X83470Y-48815D01*
X83483Y-48813D01*
X83494Y-48811D01*
X83504Y-48809D01*
X83512Y-48807D01*
X83519Y-48806D01*
X83524Y-48805D01*
X83529Y-48804D01*
X83532Y-48803D01*
X83535Y-48802D01*
X83537Y-48802D01*
X83538Y-48801D01*
X83539Y-48801D01*
X83540Y-48800D01*
X83540Y-48800D01*
X83541Y-48799D01*
X83546Y-48795D01*
X83549Y-48790D01*
X83550Y-48789D01*
X83552Y-48785D01*
X83554Y-48779D01*
X83558Y-48771D01*
X83563Y-48760D01*
X83568Y-48748D01*
X83574Y-48735D01*
X83580Y-48720D01*
X83587Y-48704D01*
X83593Y-48688D01*
X83600Y-48672D01*
X83607Y-48655D01*
X83614Y-48639D01*
X83621Y-48624D01*
X83627Y-48609D01*
X83633Y-48596D01*
X83638Y-48584D01*
X83642Y-48573D01*
X83646Y-48565D01*
X83648Y-48559D01*
X83649Y-48555D01*
X83650Y-48555D01*
X83650Y-48548D01*
X83649Y-48543D01*
X83648Y-48540D01*
X83645Y-48536D01*
X83640Y-48529D01*
X83634Y-48520D01*
X83627Y-48509D01*
X83618Y-48496D01*
X83609Y-48481D01*
X83598Y-48466D01*
X83587Y-48449D01*
X83574Y-48431D01*
X83562Y-48412D01*
X83553Y-48400D01*
X83538Y-48378D01*
X83524Y-48358D01*
X83513Y-48341D01*
X83502Y-48326D01*
X83493Y-48313D01*
X83486Y-48302D01*
X83479Y-48292D01*
X83474Y-48284D01*
X83470Y-48278D01*
X83467Y-48272D01*
X83464Y-48268D01*
X83462Y-48265D01*
X83461Y-48262D01*
X83460Y-48260D01*
X83459Y-48258D01*
X83459Y-48257D01*
X83459Y-48256D01*
X83458Y-48248D01*
X83579Y-48128D01*
X83598Y-48108D01*
X83616Y-48091D01*
X83631Y-48075D01*
X83645Y-48062D01*
X83657Y-48050D01*
X83667Y-48040D01*
X83676Y-48032D01*
X83683Y-48025D01*
X83689Y-48019D01*
X83694Y-48014D01*
X83699Y-48011D01*
X83702Y-48009D01*
X83705Y-48007D01*
X83707Y-48006D01*
X83709Y-48006D01*
X83710Y-48006D01*
X83712Y-48006D01*
X83713Y-48007D01*
X83714Y-48007D01*
X83716Y-48008D01*
X83720Y-48011D01*
X83727Y-48016D01*
X83736Y-48022D01*
X83747Y-48029D01*
X83759Y-48038D01*
X83774Y-48047D01*
X83789Y-48058D01*
X83806Y-48069D01*
X83823Y-48081D01*
X83842Y-48094D01*
X83855Y-48103D01*
X83874Y-48116D01*
X83893Y-48129D01*
X83910Y-48141D01*
X83926Y-48152D01*
X83941Y-48162D01*
X83955Y-48172D01*
X83967Y-48180D01*
X83977Y-48187D01*
X83986Y-48192D01*
X83992Y-48196D01*
X83995Y-48199D01*
X83996Y-48199D01*
X83998Y-48200D01*
X84000Y-48201D01*
X84002Y-48201D01*
X84005Y-48201D01*
X84008Y-48200D01*
X84013Y-48199D01*
X84018Y-48198D01*
X84025Y-48196D01*
X84033Y-48193D01*
X84043Y-48189D01*
X84054Y-48184D01*
X84068Y-48179D01*
X84085Y-48172D01*
X84104Y-48164D01*
X84125Y-48155D01*
X84128Y-48154D01*
X84146Y-48147D01*
X84164Y-48139D01*
X84181Y-48132D01*
X84196Y-48126D01*
X84209Y-48120D01*
X84221Y-48115D01*
X84231Y-48111D01*
X84239Y-48107D01*
X84244Y-48105D01*
X84247Y-48104D01*
X84247Y-48104D01*
X84250Y-48100D01*
X84252Y-48096D01*
X84253Y-48093D01*
X84254Y-48088D01*
X84255Y-48080D01*
X84257Y-48070D01*
X84260Y-48057D01*
X84263Y-48042D01*
X84266Y-48025D01*
X84269Y-48007D01*
X84273Y-47987D01*
X84277Y-47966D01*
X84281Y-47944D01*
X84285Y-47925D01*
X84290Y-47898D01*
X84294Y-47874D01*
X84298Y-47853D01*
X84302Y-47834D01*
X84305Y-47818D01*
X84308Y-47804D01*
X84310Y-47792D01*
X84312Y-47782D01*
X84314Y-47774D01*
X84315Y-47768D01*
X84317Y-47762D01*
X84318Y-47758D01*
X84319Y-47755D01*
X84321Y-47753D01*
X84322Y-47752D01*
X84323Y-47750D01*
X84324Y-47750D01*
X84326Y-47749D01*
X84326Y-47749D01*
X84327Y-47748D01*
X84330Y-47748D01*
X84334Y-47748D01*
X84340Y-47748D01*
X84347Y-47748D01*
X84357Y-47747D01*
X84369Y-47747D01*
X84383Y-47747D01*
X84400Y-47747D01*
X84419Y-47747D01*
X84441Y-47747D01*
X84465Y-47747D01*
X84493Y-47747D01*
X84499Y-47747D01*
X84668Y-47748D01*
X84673Y-47752D01*
X84673Y-47753D01*
X84674Y-47754D01*
X84675Y-47755D01*
X84676Y-47757D01*
X84676Y-47760D01*
X84677Y-47763D01*
X84678Y-47767D01*
X84680Y-47773D01*
X84681Y-47780D01*
X84683Y-47788D01*
X84685Y-47798D01*
X84687Y-47811D01*
X84690Y-47825D01*
X84693Y-47842D01*
X84697Y-47861D01*
X84701Y-47883D01*
X84706Y-47908D01*
X84709Y-47924D01*
X84713Y-47947D01*
X84717Y-47969D01*
X84721Y-47990D01*
X84725Y-48010D01*
X84728Y-48028D01*
X84731Y-48045D01*
X84734Y-48060D01*
X84736Y-48072D01*
X84738Y-48082D01*
X84740Y-48089D01*
X84741Y-48094D01*
X84741Y-48096D01*
X84744Y-48100D01*
X84747Y-48104D01*
X84749Y-48105D01*
X84754Y-48107D01*
X84761Y-48111D01*
X84771Y-48115D01*
X84782Y-48120D01*
X84795Y-48125D01*
X84810Y-48131D01*
X84825Y-48138D01*
X84841Y-48144D01*
X84858Y-48151D01*
X84874Y-48158D01*
X84891Y-48164D01*
X84907Y-48171D01*
X84922Y-48177D01*
X84937Y-48183D01*
X84950Y-48188D01*
X84962Y-48193D01*
X84971Y-48196D01*
X84979Y-48199D01*
X84984Y-48201D01*
X84986Y-48201D01*
X84991Y-48201D01*
X84996Y-48200D01*
X84997Y-48199D01*
X85002Y-48196D01*
X85008Y-48192D01*
X85017Y-48186D01*
X85028Y-48178D01*
X85040Y-48170D01*
X85055Y-48160D01*
X85070Y-48150D01*
X85087Y-48138D01*
X85105Y-48126D01*
X85123Y-48114D01*
X85137Y-48104D01*
X85156Y-48091D01*
X85175Y-48078D01*
X85192Y-48066D01*
X85209Y-48055D01*
X85224Y-48045D01*
X85238Y-48035D01*
X85250Y-48027D01*
X85260Y-48020D01*
X85268Y-48015D01*
X85274Y-48010D01*
X85278Y-48008D01*
X85279Y-48007D01*
X85281Y-48007D01*
X85283Y-48006D01*
X85284Y-48006D01*
X85286Y-48006D01*
X85288Y-48006D01*
X85290Y-48008D01*
X85293Y-48010D01*
X85297Y-48013D01*
X85302Y-48017D01*
X85308Y-48022D01*
X85314Y-48028D01*
X85322Y-48036D01*
X85332Y-48045D01*
X85343Y-48056D01*
X85356Y-48069D01*
X85371Y-48084D01*
X85387Y-48100D01*
X85406Y-48119D01*
X85415Y-48128D01*
X85535Y-48248D01*
X85534Y-48256D01*
X85534Y-48258D01*
X85534Y-48259D01*
X85533Y-48261D01*
X85532Y-48264D01*
X85530Y-48267D01*
X85528Y-48271D01*
X85525Y-48276D01*
X85521Y-48282D01*
X85516Y-48289D01*
X85510Y-48298D01*
X85503Y-48309D01*
X85494Y-48321D01*
X85484Y-48336D01*
X85473Y-48352D01*
X85460Y-48371D01*
X85446Y-48392D01*
X85440Y-48400D01*
X85427Y-48419D01*
X85415Y-48437D01*
X85403Y-48455D01*
X85392Y-48471D01*
X85389Y-48475D01*
X85389Y-48301D01*
X85389Y-48278D01*
X85387Y-48257D01*
X85381Y-48237D01*
X85374Y-48219D01*
X85363Y-48203D01*
X85358Y-48197D01*
X85345Y-48185D01*
X85331Y-48175D01*
X85314Y-48167D01*
X85296Y-48162D01*
X85275Y-48158D01*
X85252Y-48155D01*
X85227Y-48155D01*
X85210Y-48156D01*
X85200Y-48156D01*
X85189Y-48157D01*
X85180Y-48158D01*
X85172Y-48159D01*
X85169Y-48159D01*
X85155Y-48161D01*
X85155Y-48291D01*
X85155Y-48315D01*
X85155Y-48335D01*
X85155Y-48353D01*
X85155Y-48368D01*
X85155Y-48381D01*
X85155Y-48392D01*
X85155Y-48400D01*
X85156Y-48407D01*
X85156Y-48412D01*
X85156Y-48416D01*
X85156Y-48419D01*
X85157Y-48420D01*
X85157Y-48421D01*
X85158Y-48422D01*
X85158Y-48422D01*
X85161Y-48423D01*
X85166Y-48423D01*
X85173Y-48424D01*
X85180Y-48425D01*
X85187Y-48426D01*
X85192Y-48427D01*
X85200Y-48427D01*
X85210Y-48428D01*
X85221Y-48428D01*
X85233Y-48428D01*
X85245Y-48427D01*
X85256Y-48427D01*
X85265Y-48426D01*
X85273Y-48426D01*
X85275Y-48425D01*
X85297Y-48420D01*
X85317Y-48413D01*
X85335Y-48404D01*
X85350Y-48392D01*
X85363Y-48379D01*
X85373Y-48363D01*
X85381Y-48345D01*
X85386Y-48325D01*
X85389Y-48303D01*
X85389Y-48301D01*
X85389Y-48475D01*
X85381Y-48487D01*
X85372Y-48500D01*
X85364Y-48513D01*
X85357Y-48523D01*
X85351Y-48531D01*
X85347Y-48538D01*
X85345Y-48542D01*
X85344Y-48543D01*
X85343Y-48548D01*
X85343Y-48552D01*
X85343Y-48553D01*
X85344Y-48556D01*
X85346Y-48562D01*
X85350Y-48570D01*
X85354Y-48580D01*
X85359Y-48591D01*
X85364Y-48605D01*
X85371Y-48619D01*
X85377Y-48635D01*
X85384Y-48651D01*
X85391Y-48667D01*
X85399Y-48684D01*
X85406Y-48701D01*
X85413Y-48717D01*
X85419Y-48732D01*
X85426Y-48746D01*
X85431Y-48759D01*
X85437Y-48771D01*
X85441Y-48780D01*
X85444Y-48788D01*
X85447Y-48793D01*
X85448Y-48795D01*
X85448Y-48795D01*
X85455Y-48801D01*
X85464Y-48804D01*
X85466Y-48805D01*
X85472Y-48806D01*
X85481Y-48807D01*
X85492Y-48809D01*
X85505Y-48812D01*
X85520Y-48815D01*
X85536Y-48818D01*
X85554Y-48821D01*
X85572Y-48824D01*
X85591Y-48828D01*
X85611Y-48831D01*
X85631Y-48835D01*
X85650Y-48839D01*
X85669Y-48843D01*
X85688Y-48846D01*
X85706Y-48849D01*
X85722Y-48853D01*
X85738Y-48855D01*
X85751Y-48858D01*
X85763Y-48860D01*
X85772Y-48862D01*
X85779Y-48863D01*
X85783Y-48864D01*
X85784Y-48865D01*
X85787Y-48867D01*
X85790Y-48870D01*
X85791Y-48871D01*
X85791Y-48872D01*
X85792Y-48873D01*
X85792Y-48875D01*
X85793Y-48877D01*
X85793Y-48880D01*
X85793Y-48885D01*
X85793Y-48890D01*
X85793Y-48897D01*
X85793Y-48905D01*
X85794Y-48916D01*
X85794Y-48928D01*
X85794Y-48943D01*
X85794Y-48960D01*
X85794Y-48979D01*
X85794Y-49001D01*
X85794Y-49027D01*
X85794Y-49045D01*
X85794Y-49215D01*
X85794Y-49215D01*
X85794Y-49215D01*
G37*
G36*
X85665Y-49101D02*
X85663Y-49110D01*
X85659Y-49118D01*
X85654Y-49124D01*
X85649Y-49127D01*
X85644Y-49130D01*
X85638Y-49132D01*
X85631Y-49133D01*
X85621Y-49134D01*
X85609Y-49134D01*
X85602Y-49135D01*
X85572Y-49135D01*
X85572Y-49099D01*
X85572Y-49063D01*
X85602Y-49064D01*
X85615Y-49064D01*
X85626Y-49065D01*
X85635Y-49066D01*
X85642Y-49068D01*
X85647Y-49070D01*
X85652Y-49073D01*
X85655Y-49076D01*
X85661Y-49083D01*
X85664Y-49092D01*
X85665Y-49101D01*
X85665Y-49101D01*
X85665Y-49101D01*
G37*
G36*
X85654Y-48984D02*
X85654Y-48992D01*
X85652Y-49000D01*
X85647Y-49007D01*
X85646Y-49007D01*
X85642Y-49011D01*
X85636Y-49014D01*
X85629Y-49016D01*
X85621Y-49017D01*
X85609Y-49018D01*
X85598Y-49019D01*
X85572Y-49020D01*
X85572Y-48990D01*
X85572Y-48960D01*
X85580Y-48958D01*
X85591Y-48957D01*
X85603Y-48957D01*
X85615Y-48958D01*
X85626Y-48960D01*
X85636Y-48962D01*
X85642Y-48965D01*
X85648Y-48969D01*
X85652Y-48976D01*
X85654Y-48984D01*
X85654Y-48984D01*
X85654Y-48984D01*
G37*
G36*
X83409Y-49002D02*
X83408Y-49009D01*
X83406Y-49017D01*
X83402Y-49024D01*
X83397Y-49029D01*
X83389Y-49034D01*
X83380Y-49037D01*
X83368Y-49039D01*
X83353Y-49040D01*
X83348Y-49040D01*
X83325Y-49041D01*
X83325Y-49002D01*
X83325Y-48989D01*
X83325Y-48980D01*
X83325Y-48973D01*
X83326Y-48968D01*
X83326Y-48965D01*
X83327Y-48963D01*
X83327Y-48962D01*
X83328Y-48962D01*
X83331Y-48961D01*
X83337Y-48961D01*
X83344Y-48961D01*
X83352Y-48961D01*
X83361Y-48961D01*
X83368Y-48962D01*
X83374Y-48962D01*
X83375Y-48962D01*
X83381Y-48964D01*
X83388Y-48966D01*
X83390Y-48967D01*
X83399Y-48973D01*
X83405Y-48981D01*
X83408Y-48991D01*
X83409Y-49002D01*
X83409Y-49002D01*
X83409Y-49002D01*
G37*
G36*
X85328Y-48292D02*
X85327Y-48310D01*
X85323Y-48326D01*
X85317Y-48340D01*
X85309Y-48352D01*
X85298Y-48362D01*
X85285Y-48370D01*
X85274Y-48374D01*
X85269Y-48375D01*
X85260Y-48376D01*
X85249Y-48377D01*
X85241Y-48377D01*
X85215Y-48378D01*
X85215Y-48292D01*
X85215Y-48207D01*
X85220Y-48206D01*
X85227Y-48205D01*
X85237Y-48205D01*
X85247Y-48205D01*
X85258Y-48206D01*
X85265Y-48207D01*
X85281Y-48211D01*
X85295Y-48217D01*
X85306Y-48226D01*
X85315Y-48236D01*
X85321Y-48249D01*
X85326Y-48264D01*
X85328Y-48282D01*
X85328Y-48292D01*
X85328Y-48292D01*
X85328Y-48292D01*
G37*
G54D12*
X65386Y-43735D02*
G75*
G03X65386Y-43735I-59J0D01*
G74*
G01*
X65603Y-43932D02*
X65996Y-43932D01*
X65603Y-45467D02*
X65996Y-45467D01*
X58744Y-58745D02*
G75*
G03X58744Y-58745I-59J0D01*
G74*
G01*
X59000Y-58910D02*
X59000Y-59290D01*
X58744Y-58195D02*
G75*
G03X58744Y-58195I-59J0D01*
G74*
G01*
X59000Y-58360D02*
X59000Y-58740D01*
X64530Y-41950D02*
X63970Y-41950D01*
X66850Y-41120D02*
X66850Y-41680D01*
X76789Y-44072D02*
G75*
G03X76789Y-44072I-62J0D01*
G74*
G01*
X75396Y-55356D02*
X75003Y-55356D01*
X75396Y-56143D02*
X75003Y-56143D01*
X64272Y-43507D02*
X64272Y-43192D01*
X63327Y-43527D02*
X63327Y-43192D01*
X63307Y-43704D02*
G75*
G03X63307Y-43704I-78J0D01*
G74*
G01*
X76731Y-46980D02*
G75*
G03X76731Y-46980I-62J0D01*
G74*
G01*
X78716Y-48240D02*
X76983Y-48240D01*
X76983Y-47059D02*
X78716Y-47059D01*
X80455Y-49220D02*
X80455Y-50479D01*
X82344Y-49220D02*
X82344Y-50479D01*
X82522Y-48787D02*
G75*
G03X82522Y-48787I-59J0D01*
G74*
G01*
X64778Y-48518D02*
G75*
G03X64778Y-48518I-59J0D01*
G74*
G01*
X63459Y-48892D02*
X63459Y-49207D01*
X64640Y-48892D02*
X64640Y-49207D01*
X64689Y-42681D02*
G75*
G03X64689Y-42681I-59J0D01*
G74*
G01*
X65890Y-42307D02*
X65890Y-41992D01*
X64709Y-42307D02*
X64709Y-41992D01*
X59248Y-47807D02*
X58854Y-47807D01*
X58854Y-47807D02*
X58854Y-48004D01*
X59248Y-48792D02*
X58854Y-48792D01*
X58854Y-48792D02*
X58854Y-48595D01*
X77150Y-44350D02*
X76950Y-44350D01*
X82850Y-43500D02*
X83050Y-43500D01*
X81400Y-43500D02*
X81600Y-43500D01*
X77150Y-43700D02*
X77150Y-43500D01*
X83500Y-43000D02*
X83300Y-43000D01*
X82200Y-43900D02*
X82200Y-43700D01*
X79250Y-51740D02*
X79250Y-52060D01*
X73343Y-52254D02*
G75*
G03X73343Y-52254I-55J0D01*
G74*
G01*
X64050Y-47650D02*
X64050Y-47850D01*
X82250Y-51850D02*
X82050Y-51850D01*
X63771Y-45277D02*
X63771Y-46222D01*
X63928Y-45277D02*
X63928Y-46222D01*
X83160Y-57050D02*
X82840Y-57050D01*
X85160Y-57050D02*
X84840Y-57050D01*
X82160Y-57050D02*
X81840Y-57050D01*
X81160Y-57050D02*
X80840Y-57050D01*
X80160Y-57050D02*
X79840Y-57050D01*
X78710Y-55950D02*
X78390Y-55950D01*
X84160Y-57050D02*
X83840Y-57050D01*
X77490Y-45250D02*
X77810Y-45250D01*
X79490Y-45250D02*
X79810Y-45250D01*
X75110Y-54550D02*
X74790Y-54550D01*
X79550Y-50640D02*
X79550Y-50960D01*
X75790Y-49250D02*
X76110Y-49250D01*
X66950Y-42210D02*
X66950Y-41890D01*
X61210Y-57550D02*
X60890Y-57550D01*
X57960Y-42074D02*
G75*
G03X57960Y-42074I-88J0D01*
G74*
G01*
X57618Y-42231D02*
X57618Y-39868D01*
X57618Y-39868D02*
X59981Y-39868D01*
X59981Y-39868D02*
X59981Y-42231D01*
X59981Y-42231D02*
X57618Y-42231D01*
X80250Y-42850D02*
X80250Y-42650D01*
X80800Y-43900D02*
X80800Y-43700D01*
X78900Y-46550D02*
X79100Y-46550D01*
X65750Y-52900D02*
X65750Y-52700D01*
X64800Y-49350D02*
X65000Y-49350D01*
X78100Y-45150D02*
X78300Y-45150D01*
X72000Y-54700D02*
X72000Y-54900D01*
X74050Y-55650D02*
X74250Y-55650D01*
X76150Y-55650D02*
X76350Y-55650D01*
X73300Y-50350D02*
X73300Y-50550D01*
X73600Y-48750D02*
X73600Y-48550D01*
X72950Y-53550D02*
X72950Y-53350D01*
X73800Y-53600D02*
X73600Y-53600D01*
X72950Y-54000D02*
X72950Y-53800D01*
X75600Y-54450D02*
X75400Y-54450D01*
X79150Y-51250D02*
X79150Y-51450D01*
X76400Y-49350D02*
X76600Y-49350D01*
X72950Y-54450D02*
X72950Y-54250D01*
X70200Y-42200D02*
X70200Y-42400D01*
X68650Y-44550D02*
X68450Y-44550D01*
X79000Y-45150D02*
X79200Y-45150D01*
X63750Y-41550D02*
X63550Y-41550D01*
X79350Y-42350D02*
X79350Y-42150D01*
X76550Y-54500D02*
X76350Y-54500D01*
X80900Y-43050D02*
X81100Y-43050D01*
X73950Y-54250D02*
X73950Y-54450D01*
X63771Y-46477D02*
X63771Y-47422D01*
X63928Y-46477D02*
X63928Y-47422D01*
X66028Y-46622D02*
X66028Y-45677D01*
X65871Y-46622D02*
X65871Y-45677D01*
X79500Y-59500D02*
X79500Y-58500D01*
X79500Y-58500D02*
X85500Y-58500D01*
X85500Y-58500D02*
X85500Y-59500D01*
X85500Y-59500D02*
X79500Y-59500D01*
X80500Y-59500D02*
X80500Y-58500D01*
X85500Y-40500D02*
X77500Y-40500D01*
X77500Y-40500D02*
X77500Y-39500D01*
X77500Y-39500D02*
X85500Y-39500D01*
X85500Y-39500D02*
X85500Y-40500D01*
X84500Y-39500D02*
X84500Y-40500D01*
X76900Y-39500D02*
X76900Y-40500D01*
X76900Y-40500D02*
X66900Y-40500D01*
X66900Y-40500D02*
X66900Y-39500D01*
X66900Y-39500D02*
X76900Y-39500D01*
X75900Y-39500D02*
X75900Y-40500D01*
X70500Y-58500D02*
X78500Y-58500D01*
X78500Y-58500D02*
X78500Y-59500D01*
X78500Y-59500D02*
X70500Y-59500D01*
X70500Y-59500D02*
X70500Y-58500D01*
X71500Y-59500D02*
X71500Y-58500D01*
X57565Y-56570D02*
X57565Y-52829D01*
X62368Y-56570D02*
X62998Y-56570D01*
X62998Y-56570D02*
X62998Y-56018D01*
X62368Y-52829D02*
X62998Y-52829D01*
X62998Y-52829D02*
X62998Y-53381D01*
X57860Y-56983D02*
G75*
G03X57860Y-56983I-59J0D01*
G74*
G01*
X57565Y-56570D02*
X57565Y-52829D01*
X65153Y-48671D02*
X65153Y-48828D01*
X65546Y-48671D02*
X65546Y-48828D01*
X60000Y-47470D02*
X57500Y-47470D01*
X60000Y-45529D02*
X57500Y-45529D01*
X57500Y-45529D02*
X57500Y-47470D01*
X60000Y-45529D02*
X60000Y-47470D01*
X57500Y-43379D02*
X60000Y-43379D01*
X57500Y-45320D02*
X60000Y-45320D01*
X60000Y-45320D02*
X60000Y-43379D01*
X57500Y-45320D02*
X57500Y-43379D01*
X79860Y-44100D02*
X80240Y-44100D01*
X74257Y-49392D02*
X74257Y-49707D01*
X72642Y-49392D02*
X72642Y-49707D01*
X73607Y-48880D02*
X73292Y-48880D01*
X73607Y-50219D02*
X73292Y-50219D01*
X74434Y-49077D02*
G75*
G03X74434Y-49077I-59J0D01*
G74*
G01*
X60539Y-44431D02*
G75*
G03X60539Y-44431I-59J0D01*
G74*
G01*
X61740Y-44057D02*
X61740Y-43742D01*
X60559Y-44057D02*
X60559Y-43742D01*
X62098Y-45507D02*
X61704Y-45507D01*
X61704Y-45507D02*
X61704Y-45704D01*
X62098Y-46492D02*
X61704Y-46492D01*
X61704Y-46492D02*
X61704Y-46295D01*
X62401Y-43642D02*
X62795Y-43642D01*
X62795Y-43642D02*
X62795Y-43445D01*
X62401Y-42657D02*
X62795Y-42657D01*
X62795Y-42657D02*
X62795Y-42854D01*
X59550Y-57150D02*
X59550Y-57350D01*
X78804Y-53376D02*
G75*
G03X78804Y-53376I-59J0D01*
G74*
G01*
X62378Y-43903D02*
X62221Y-43903D01*
X62378Y-44296D02*
X62221Y-44296D01*
X78196Y-56178D02*
X78196Y-56021D01*
X77803Y-56178D02*
X77803Y-56021D01*
X63928Y-50403D02*
X63771Y-50403D01*
X63928Y-50796D02*
X63771Y-50796D01*
X72928Y-52803D02*
X72771Y-52803D01*
X72928Y-53196D02*
X72771Y-53196D01*
X63771Y-50346D02*
X63928Y-50346D01*
X63771Y-49953D02*
X63928Y-49953D01*
X72078Y-55053D02*
X71921Y-55053D01*
X72078Y-55446D02*
X71921Y-55446D01*
X60078Y-58353D02*
X59921Y-58353D01*
X60078Y-58746D02*
X59921Y-58746D01*
X63396Y-41528D02*
X63396Y-41371D01*
X63003Y-41528D02*
X63003Y-41371D01*
X60078Y-58903D02*
X59921Y-58903D01*
X60078Y-59296D02*
X59921Y-59296D01*
X78453Y-44971D02*
X78453Y-45128D01*
X78846Y-44971D02*
X78846Y-45128D01*
X81346Y-48028D02*
X81346Y-47871D01*
X80953Y-48028D02*
X80953Y-47871D01*
X78253Y-56921D02*
X78253Y-57078D01*
X78646Y-56921D02*
X78646Y-57078D01*
X78196Y-57078D02*
X78196Y-56921D01*
X77803Y-57078D02*
X77803Y-56921D01*
X79696Y-56928D02*
X79696Y-56771D01*
X79303Y-56928D02*
X79303Y-56771D01*
X80696Y-56928D02*
X80696Y-56771D01*
X80303Y-56928D02*
X80303Y-56771D01*
X82696Y-56928D02*
X82696Y-56771D01*
X82303Y-56928D02*
X82303Y-56771D01*
X83696Y-56928D02*
X83696Y-56771D01*
X83303Y-56928D02*
X83303Y-56771D01*
X84696Y-56928D02*
X84696Y-56771D01*
X84303Y-56928D02*
X84303Y-56771D01*
X60121Y-48896D02*
X60278Y-48896D01*
X60121Y-48503D02*
X60278Y-48503D01*
X79329Y-42683D02*
X79566Y-42683D01*
X79566Y-42683D02*
X79566Y-42920D01*
X77833Y-42920D02*
X77833Y-42683D01*
X77833Y-42683D02*
X78070Y-42683D01*
X78070Y-44416D02*
X77833Y-44416D01*
X77833Y-44416D02*
X77833Y-44179D01*
X79585Y-44364D02*
G75*
G03X79585Y-44364I-70J0D01*
G74*
G01*
G54D10*
X79703Y-44553D02*
X79310Y-44553D01*
X79310Y-44553D02*
X79310Y-44160D01*
X79310Y-44160D02*
X79703Y-44160D01*
X79703Y-44160D02*
X79703Y-44553D01*
G54D12*
X67912Y-43837D02*
X68148Y-43837D01*
X67912Y-43837D02*
X67912Y-43601D01*
X67912Y-42262D02*
X67912Y-42498D01*
X67912Y-42262D02*
X68148Y-42262D01*
X69487Y-42262D02*
X69251Y-42262D01*
X69487Y-42262D02*
X69487Y-42498D01*
X69487Y-43837D02*
X69251Y-43837D01*
X69487Y-43837D02*
X69487Y-43601D01*
X69408Y-42400D02*
G75*
G03X69408Y-42400I-59J0D01*
G74*
G01*
X85115Y-44662D02*
X85115Y-44412D01*
X85210Y-44412D01*
X85234Y-44424D01*
X85246Y-44436D01*
X85258Y-44459D01*
X85258Y-44495D01*
X85246Y-44519D01*
X85234Y-44531D01*
X85210Y-44543D01*
X85115Y-44543D01*
X85496Y-44662D02*
X85353Y-44662D01*
X85425Y-44662D02*
X85425Y-44412D01*
X85401Y-44447D01*
X85377Y-44471D01*
X85353Y-44483D01*
X83096Y-46101D02*
X83096Y-45851D01*
X83191Y-45851D01*
X83215Y-45863D01*
X83227Y-45875D01*
X83239Y-45898D01*
X83239Y-45934D01*
X83227Y-45958D01*
X83215Y-45970D01*
X83191Y-45982D01*
X83096Y-45982D01*
X83477Y-46101D02*
X83334Y-46101D01*
X83405Y-46101D02*
X83405Y-45851D01*
X83382Y-45886D01*
X83358Y-45910D01*
X83334Y-45922D01*
X83691Y-45934D02*
X83691Y-46101D01*
X83632Y-45839D02*
X83572Y-46017D01*
X83727Y-46017D01*
X65646Y-58301D02*
X65646Y-58051D01*
X65741Y-58051D01*
X65765Y-58063D01*
X65777Y-58075D01*
X65789Y-58098D01*
X65789Y-58134D01*
X65777Y-58158D01*
X65765Y-58170D01*
X65741Y-58182D01*
X65646Y-58182D01*
X66027Y-58301D02*
X65884Y-58301D01*
X65955Y-58301D02*
X65955Y-58051D01*
X65932Y-58086D01*
X65908Y-58110D01*
X65884Y-58122D01*
X66265Y-58301D02*
X66122Y-58301D01*
X66194Y-58301D02*
X66194Y-58051D01*
X66170Y-58086D01*
X66146Y-58110D01*
X66122Y-58122D01*
X61146Y-39683D02*
X61146Y-39433D01*
X61241Y-39433D01*
X61265Y-39445D01*
X61277Y-39457D01*
X61289Y-39481D01*
X61289Y-39517D01*
X61277Y-39541D01*
X61265Y-39552D01*
X61241Y-39564D01*
X61146Y-39564D01*
X61527Y-39683D02*
X61384Y-39683D01*
X61455Y-39683D02*
X61455Y-39433D01*
X61432Y-39469D01*
X61408Y-39493D01*
X61384Y-39505D01*
X61622Y-39457D02*
X61634Y-39445D01*
X61658Y-39433D01*
X61717Y-39433D01*
X61741Y-39445D01*
X61753Y-39457D01*
X61765Y-39481D01*
X61765Y-39505D01*
X61753Y-39541D01*
X61610Y-39683D01*
X61765Y-39683D01*
X84696Y-53683D02*
X84696Y-53433D01*
X84791Y-53433D01*
X84815Y-53445D01*
X84827Y-53457D01*
X84839Y-53481D01*
X84839Y-53517D01*
X84827Y-53541D01*
X84815Y-53552D01*
X84791Y-53564D01*
X84696Y-53564D01*
X85077Y-53683D02*
X84934Y-53683D01*
X85005Y-53683D02*
X85005Y-53433D01*
X84982Y-53469D01*
X84958Y-53493D01*
X84934Y-53505D01*
X85160Y-53433D02*
X85315Y-53433D01*
X85232Y-53529D01*
X85267Y-53529D01*
X85291Y-53541D01*
X85303Y-53552D01*
X85315Y-53576D01*
X85315Y-53636D01*
X85303Y-53660D01*
X85291Y-53671D01*
X85267Y-53683D01*
X85196Y-53683D01*
X85172Y-53671D01*
X85160Y-53660D01*
X65639Y-43801D02*
X65520Y-43801D01*
X65520Y-43551D01*
X65853Y-43801D02*
X65710Y-43801D01*
X65782Y-43801D02*
X65782Y-43551D01*
X65758Y-43586D01*
X65734Y-43610D01*
X65710Y-43622D01*
X66067Y-43551D02*
X66020Y-43551D01*
X65996Y-43563D01*
X65984Y-43575D01*
X65960Y-43610D01*
X65948Y-43658D01*
X65948Y-43753D01*
X65960Y-43777D01*
X65972Y-43789D01*
X65996Y-43801D01*
X66044Y-43801D01*
X66067Y-43789D01*
X66079Y-43777D01*
X66091Y-43753D01*
X66091Y-43694D01*
X66079Y-43670D01*
X66067Y-43658D01*
X66044Y-43646D01*
X65996Y-43646D01*
X65972Y-43658D01*
X65960Y-43670D01*
X65948Y-43694D01*
X59115Y-59651D02*
X59115Y-59401D01*
X59175Y-59401D01*
X59210Y-59413D01*
X59234Y-59436D01*
X59246Y-59460D01*
X59258Y-59508D01*
X59258Y-59544D01*
X59246Y-59591D01*
X59234Y-59615D01*
X59210Y-59639D01*
X59175Y-59651D01*
X59115Y-59651D01*
X59496Y-59651D02*
X59353Y-59651D01*
X59425Y-59651D02*
X59425Y-59401D01*
X59401Y-59436D01*
X59377Y-59460D01*
X59353Y-59472D01*
X59115Y-58251D02*
X59115Y-58001D01*
X59175Y-58001D01*
X59210Y-58013D01*
X59234Y-58036D01*
X59246Y-58060D01*
X59258Y-58108D01*
X59258Y-58144D01*
X59246Y-58191D01*
X59234Y-58215D01*
X59210Y-58239D01*
X59175Y-58251D01*
X59115Y-58251D01*
X59353Y-58025D02*
X59365Y-58013D01*
X59389Y-58001D01*
X59448Y-58001D01*
X59472Y-58013D01*
X59484Y-58025D01*
X59496Y-58048D01*
X59496Y-58072D01*
X59484Y-58108D01*
X59341Y-58251D01*
X59496Y-58251D01*
X63497Y-42351D02*
X63664Y-42351D01*
X63497Y-42601D01*
X63664Y-42601D01*
X63890Y-42601D02*
X63747Y-42601D01*
X63819Y-42601D02*
X63819Y-42351D01*
X63795Y-42386D01*
X63771Y-42410D01*
X63747Y-42422D01*
X67097Y-40751D02*
X67264Y-40751D01*
X67097Y-41001D01*
X67264Y-41001D01*
X67347Y-40775D02*
X67359Y-40763D01*
X67383Y-40751D01*
X67442Y-40751D01*
X67466Y-40763D01*
X67478Y-40775D01*
X67490Y-40798D01*
X67490Y-40822D01*
X67478Y-40858D01*
X67335Y-41001D01*
X67490Y-41001D01*
X75709Y-44401D02*
X75709Y-44603D01*
X75721Y-44627D01*
X75733Y-44639D01*
X75757Y-44651D01*
X75804Y-44651D01*
X75828Y-44639D01*
X75840Y-44627D01*
X75852Y-44603D01*
X75852Y-44401D01*
X76090Y-44401D02*
X75971Y-44401D01*
X75959Y-44520D01*
X75971Y-44508D01*
X75995Y-44496D01*
X76054Y-44496D01*
X76078Y-44508D01*
X76090Y-44520D01*
X76102Y-44544D01*
X76102Y-44603D01*
X76090Y-44627D01*
X76078Y-44639D01*
X76054Y-44651D01*
X75995Y-44651D01*
X75971Y-44639D01*
X75959Y-44627D01*
X74997Y-56251D02*
X75164Y-56501D01*
X75164Y-56251D02*
X74997Y-56501D01*
X75390Y-56501D02*
X75247Y-56501D01*
X75319Y-56501D02*
X75319Y-56251D01*
X75295Y-56286D01*
X75271Y-56310D01*
X75247Y-56322D01*
X64301Y-44259D02*
X64503Y-44259D01*
X64527Y-44247D01*
X64539Y-44235D01*
X64551Y-44211D01*
X64551Y-44164D01*
X64539Y-44140D01*
X64527Y-44128D01*
X64503Y-44116D01*
X64301Y-44116D01*
X64551Y-43866D02*
X64551Y-44009D01*
X64551Y-43938D02*
X64301Y-43938D01*
X64336Y-43961D01*
X64360Y-43985D01*
X64372Y-44009D01*
X64325Y-43771D02*
X64313Y-43759D01*
X64301Y-43735D01*
X64301Y-43676D01*
X64313Y-43652D01*
X64325Y-43640D01*
X64348Y-43628D01*
X64372Y-43628D01*
X64408Y-43640D01*
X64551Y-43783D01*
X64551Y-43628D01*
X77659Y-48301D02*
X77659Y-48503D01*
X77671Y-48527D01*
X77683Y-48539D01*
X77707Y-48551D01*
X77754Y-48551D01*
X77778Y-48539D01*
X77790Y-48527D01*
X77802Y-48503D01*
X77802Y-48301D01*
X77957Y-48408D02*
X77933Y-48396D01*
X77921Y-48384D01*
X77909Y-48360D01*
X77909Y-48348D01*
X77921Y-48325D01*
X77933Y-48313D01*
X77957Y-48301D01*
X78004Y-48301D01*
X78028Y-48313D01*
X78040Y-48325D01*
X78052Y-48348D01*
X78052Y-48360D01*
X78040Y-48384D01*
X78028Y-48396D01*
X78004Y-48408D01*
X77957Y-48408D01*
X77933Y-48420D01*
X77921Y-48432D01*
X77909Y-48455D01*
X77909Y-48503D01*
X77921Y-48527D01*
X77933Y-48539D01*
X77957Y-48551D01*
X78004Y-48551D01*
X78028Y-48539D01*
X78040Y-48527D01*
X78052Y-48503D01*
X78052Y-48455D01*
X78040Y-48432D01*
X78028Y-48420D01*
X78004Y-48408D01*
X82412Y-50020D02*
X82614Y-50020D01*
X82638Y-50008D01*
X82650Y-49996D01*
X82662Y-49973D01*
X82662Y-49925D01*
X82650Y-49901D01*
X82638Y-49889D01*
X82614Y-49877D01*
X82412Y-49877D01*
X82662Y-49746D02*
X82662Y-49699D01*
X82650Y-49675D01*
X82638Y-49663D01*
X82603Y-49639D01*
X82555Y-49627D01*
X82460Y-49627D01*
X82436Y-49639D01*
X82424Y-49651D01*
X82412Y-49675D01*
X82412Y-49723D01*
X82424Y-49746D01*
X82436Y-49758D01*
X82460Y-49770D01*
X82519Y-49770D01*
X82543Y-49758D01*
X82555Y-49746D01*
X82567Y-49723D01*
X82567Y-49675D01*
X82555Y-49651D01*
X82543Y-49639D01*
X82519Y-49627D01*
X64701Y-48390D02*
X64903Y-48390D01*
X64927Y-48378D01*
X64939Y-48366D01*
X64951Y-48342D01*
X64951Y-48295D01*
X64939Y-48271D01*
X64927Y-48259D01*
X64903Y-48247D01*
X64701Y-48247D01*
X64701Y-48152D02*
X64701Y-47997D01*
X64796Y-48080D01*
X64796Y-48045D01*
X64808Y-48021D01*
X64820Y-48009D01*
X64844Y-47997D01*
X64903Y-47997D01*
X64927Y-48009D01*
X64939Y-48021D01*
X64951Y-48045D01*
X64951Y-48116D01*
X64939Y-48140D01*
X64927Y-48152D01*
X65951Y-42459D02*
X66153Y-42459D01*
X66177Y-42447D01*
X66189Y-42435D01*
X66201Y-42411D01*
X66201Y-42364D01*
X66189Y-42340D01*
X66177Y-42328D01*
X66153Y-42316D01*
X65951Y-42316D01*
X66201Y-42066D02*
X66201Y-42209D01*
X66201Y-42138D02*
X65951Y-42138D01*
X65986Y-42161D01*
X66010Y-42185D01*
X66022Y-42209D01*
X65951Y-41911D02*
X65951Y-41888D01*
X65963Y-41864D01*
X65975Y-41852D01*
X65998Y-41840D01*
X66046Y-41828D01*
X66105Y-41828D01*
X66153Y-41840D01*
X66177Y-41852D01*
X66189Y-41864D01*
X66201Y-41888D01*
X66201Y-41911D01*
X66189Y-41935D01*
X66177Y-41947D01*
X66153Y-41959D01*
X66105Y-41971D01*
X66046Y-41971D01*
X65998Y-41959D01*
X65975Y-41947D01*
X65963Y-41935D01*
X65951Y-41911D01*
X58726Y-49275D02*
X58702Y-49263D01*
X58678Y-49239D01*
X58642Y-49203D01*
X58619Y-49191D01*
X58595Y-49191D01*
X58607Y-49251D02*
X58583Y-49239D01*
X58559Y-49215D01*
X58547Y-49167D01*
X58547Y-49084D01*
X58559Y-49036D01*
X58583Y-49013D01*
X58607Y-49001D01*
X58654Y-49001D01*
X58678Y-49013D01*
X58702Y-49036D01*
X58714Y-49084D01*
X58714Y-49167D01*
X58702Y-49215D01*
X58678Y-49239D01*
X58654Y-49251D01*
X58607Y-49251D01*
X58952Y-49251D02*
X58809Y-49251D01*
X58880Y-49251D02*
X58880Y-49001D01*
X58857Y-49036D01*
X58833Y-49060D01*
X58809Y-49072D01*
X76727Y-44910D02*
X76739Y-44922D01*
X76751Y-44958D01*
X76751Y-44982D01*
X76739Y-45017D01*
X76715Y-45041D01*
X76691Y-45053D01*
X76644Y-45065D01*
X76608Y-45065D01*
X76560Y-45053D01*
X76536Y-45041D01*
X76513Y-45017D01*
X76501Y-44982D01*
X76501Y-44958D01*
X76513Y-44922D01*
X76525Y-44910D01*
X76525Y-44815D02*
X76513Y-44803D01*
X76501Y-44779D01*
X76501Y-44720D01*
X76513Y-44696D01*
X76525Y-44684D01*
X76548Y-44672D01*
X76572Y-44672D01*
X76608Y-44684D01*
X76751Y-44827D01*
X76751Y-44672D01*
X76501Y-44446D02*
X76501Y-44565D01*
X76620Y-44577D01*
X76608Y-44565D01*
X76596Y-44541D01*
X76596Y-44482D01*
X76608Y-44458D01*
X76620Y-44446D01*
X76644Y-44434D01*
X76703Y-44434D01*
X76727Y-44446D01*
X76739Y-44458D01*
X76751Y-44482D01*
X76751Y-44541D01*
X76739Y-44565D01*
X76727Y-44577D01*
X83027Y-42810D02*
X83039Y-42822D01*
X83051Y-42858D01*
X83051Y-42882D01*
X83039Y-42917D01*
X83015Y-42941D01*
X82991Y-42953D01*
X82944Y-42965D01*
X82908Y-42965D01*
X82860Y-42953D01*
X82836Y-42941D01*
X82813Y-42917D01*
X82801Y-42882D01*
X82801Y-42858D01*
X82813Y-42822D01*
X82825Y-42810D01*
X83051Y-42572D02*
X83051Y-42715D01*
X83051Y-42644D02*
X82801Y-42644D01*
X82836Y-42667D01*
X82860Y-42691D01*
X82872Y-42715D01*
X82908Y-42429D02*
X82896Y-42453D01*
X82884Y-42465D01*
X82860Y-42477D01*
X82848Y-42477D01*
X82825Y-42465D01*
X82813Y-42453D01*
X82801Y-42429D01*
X82801Y-42382D01*
X82813Y-42358D01*
X82825Y-42346D01*
X82848Y-42334D01*
X82860Y-42334D01*
X82884Y-42346D01*
X82896Y-42358D01*
X82908Y-42382D01*
X82908Y-42429D01*
X82920Y-42453D01*
X82932Y-42465D01*
X82955Y-42477D01*
X83003Y-42477D01*
X83027Y-42465D01*
X83039Y-42453D01*
X83051Y-42429D01*
X83051Y-42382D01*
X83039Y-42358D01*
X83027Y-42346D01*
X83003Y-42334D01*
X82955Y-42334D01*
X82932Y-42346D01*
X82920Y-42358D01*
X82908Y-42382D01*
X81577Y-42760D02*
X81589Y-42772D01*
X81601Y-42808D01*
X81601Y-42832D01*
X81589Y-42867D01*
X81565Y-42891D01*
X81541Y-42903D01*
X81494Y-42915D01*
X81458Y-42915D01*
X81410Y-42903D01*
X81386Y-42891D01*
X81363Y-42867D01*
X81351Y-42832D01*
X81351Y-42808D01*
X81363Y-42772D01*
X81375Y-42760D01*
X81375Y-42665D02*
X81363Y-42653D01*
X81351Y-42629D01*
X81351Y-42570D01*
X81363Y-42546D01*
X81375Y-42534D01*
X81398Y-42522D01*
X81422Y-42522D01*
X81458Y-42534D01*
X81601Y-42677D01*
X81601Y-42522D01*
X81351Y-42367D02*
X81351Y-42344D01*
X81363Y-42320D01*
X81375Y-42308D01*
X81398Y-42296D01*
X81446Y-42284D01*
X81505Y-42284D01*
X81553Y-42296D01*
X81577Y-42308D01*
X81589Y-42320D01*
X81601Y-42344D01*
X81601Y-42367D01*
X81589Y-42391D01*
X81577Y-42403D01*
X81553Y-42415D01*
X81505Y-42427D01*
X81446Y-42427D01*
X81398Y-42415D01*
X81375Y-42403D01*
X81363Y-42391D01*
X81351Y-42367D01*
X77108Y-43301D02*
X76989Y-43301D01*
X76989Y-43051D01*
X77298Y-43134D02*
X77298Y-43301D01*
X77239Y-43039D02*
X77179Y-43217D01*
X77334Y-43217D01*
X83501Y-43791D02*
X83501Y-43910D01*
X83251Y-43910D01*
X83275Y-43720D02*
X83263Y-43708D01*
X83251Y-43684D01*
X83251Y-43625D01*
X83263Y-43601D01*
X83275Y-43589D01*
X83298Y-43577D01*
X83322Y-43577D01*
X83358Y-43589D01*
X83501Y-43732D01*
X83501Y-43577D01*
X82158Y-44351D02*
X82039Y-44351D01*
X82039Y-44101D01*
X82217Y-44101D02*
X82372Y-44101D01*
X82289Y-44196D01*
X82325Y-44196D01*
X82348Y-44208D01*
X82360Y-44220D01*
X82372Y-44244D01*
X82372Y-44303D01*
X82360Y-44327D01*
X82348Y-44339D01*
X82325Y-44351D01*
X82253Y-44351D01*
X82229Y-44339D01*
X82217Y-44327D01*
X79089Y-52477D02*
X79077Y-52489D01*
X79041Y-52501D01*
X79017Y-52501D01*
X78982Y-52489D01*
X78958Y-52465D01*
X78946Y-52441D01*
X78934Y-52394D01*
X78934Y-52358D01*
X78946Y-52310D01*
X78958Y-52286D01*
X78982Y-52263D01*
X79017Y-52251D01*
X79041Y-52251D01*
X79077Y-52263D01*
X79089Y-52275D01*
X79303Y-52334D02*
X79303Y-52501D01*
X79244Y-52239D02*
X79184Y-52417D01*
X79339Y-52417D01*
X79553Y-52251D02*
X79434Y-52251D01*
X79422Y-52370D01*
X79434Y-52358D01*
X79458Y-52346D01*
X79517Y-52346D01*
X79541Y-52358D01*
X79553Y-52370D01*
X79565Y-52394D01*
X79565Y-52453D01*
X79553Y-52477D01*
X79541Y-52489D01*
X79517Y-52501D01*
X79458Y-52501D01*
X79434Y-52489D01*
X79422Y-52477D01*
X72942Y-52209D02*
X73144Y-52209D01*
X73168Y-52197D01*
X73180Y-52185D01*
X73192Y-52161D01*
X73192Y-52114D01*
X73180Y-52090D01*
X73168Y-52078D01*
X73144Y-52066D01*
X72942Y-52066D01*
X73192Y-51816D02*
X73192Y-51959D01*
X73192Y-51888D02*
X72942Y-51888D01*
X72978Y-51911D01*
X73002Y-51935D01*
X73013Y-51959D01*
X73025Y-51602D02*
X73192Y-51602D01*
X72930Y-51661D02*
X73109Y-51721D01*
X73109Y-51566D01*
X63039Y-47827D02*
X63027Y-47839D01*
X62991Y-47851D01*
X62967Y-47851D01*
X62932Y-47839D01*
X62908Y-47815D01*
X62896Y-47791D01*
X62884Y-47744D01*
X62884Y-47708D01*
X62896Y-47660D01*
X62908Y-47636D01*
X62932Y-47613D01*
X62967Y-47601D01*
X62991Y-47601D01*
X63027Y-47613D01*
X63039Y-47625D01*
X63134Y-47625D02*
X63146Y-47613D01*
X63170Y-47601D01*
X63229Y-47601D01*
X63253Y-47613D01*
X63265Y-47625D01*
X63277Y-47648D01*
X63277Y-47672D01*
X63265Y-47708D01*
X63122Y-47851D01*
X63277Y-47851D01*
X63372Y-47625D02*
X63384Y-47613D01*
X63408Y-47601D01*
X63467Y-47601D01*
X63491Y-47613D01*
X63503Y-47625D01*
X63515Y-47648D01*
X63515Y-47672D01*
X63503Y-47708D01*
X63360Y-47851D01*
X63515Y-47851D01*
X82677Y-52010D02*
X82689Y-52022D01*
X82701Y-52058D01*
X82701Y-52082D01*
X82689Y-52117D01*
X82665Y-52141D01*
X82641Y-52153D01*
X82594Y-52165D01*
X82558Y-52165D01*
X82510Y-52153D01*
X82486Y-52141D01*
X82463Y-52117D01*
X82451Y-52082D01*
X82451Y-52058D01*
X82463Y-52022D01*
X82475Y-52010D01*
X82451Y-51784D02*
X82451Y-51903D01*
X82570Y-51915D01*
X82558Y-51903D01*
X82546Y-51879D01*
X82546Y-51820D01*
X82558Y-51796D01*
X82570Y-51784D01*
X82594Y-51772D01*
X82653Y-51772D01*
X82677Y-51784D01*
X82689Y-51796D01*
X82701Y-51820D01*
X82701Y-51879D01*
X82689Y-51903D01*
X82677Y-51915D01*
X82451Y-51689D02*
X82451Y-51522D01*
X82701Y-51629D01*
X63689Y-45077D02*
X63677Y-45089D01*
X63641Y-45101D01*
X63617Y-45101D01*
X63582Y-45089D01*
X63558Y-45065D01*
X63546Y-45041D01*
X63534Y-44994D01*
X63534Y-44958D01*
X63546Y-44910D01*
X63558Y-44886D01*
X63582Y-44863D01*
X63617Y-44851D01*
X63641Y-44851D01*
X63677Y-44863D01*
X63689Y-44875D01*
X63915Y-44851D02*
X63796Y-44851D01*
X63784Y-44970D01*
X63796Y-44958D01*
X63820Y-44946D01*
X63879Y-44946D01*
X63903Y-44958D01*
X63915Y-44970D01*
X63927Y-44994D01*
X63927Y-45053D01*
X63915Y-45077D01*
X63903Y-45089D01*
X63879Y-45101D01*
X63820Y-45101D01*
X63796Y-45089D01*
X63784Y-45077D01*
X64141Y-44934D02*
X64141Y-45101D01*
X64082Y-44839D02*
X64022Y-45017D01*
X64177Y-45017D01*
X83077Y-56210D02*
X83089Y-56222D01*
X83101Y-56258D01*
X83101Y-56282D01*
X83089Y-56317D01*
X83065Y-56341D01*
X83041Y-56353D01*
X82994Y-56365D01*
X82958Y-56365D01*
X82910Y-56353D01*
X82886Y-56341D01*
X82863Y-56317D01*
X82851Y-56282D01*
X82851Y-56258D01*
X82863Y-56222D01*
X82875Y-56210D01*
X82851Y-55984D02*
X82851Y-56103D01*
X82970Y-56115D01*
X82958Y-56103D01*
X82946Y-56079D01*
X82946Y-56020D01*
X82958Y-55996D01*
X82970Y-55984D01*
X82994Y-55972D01*
X83053Y-55972D01*
X83077Y-55984D01*
X83089Y-55996D01*
X83101Y-56020D01*
X83101Y-56079D01*
X83089Y-56103D01*
X83077Y-56115D01*
X82851Y-55817D02*
X82851Y-55794D01*
X82863Y-55770D01*
X82875Y-55758D01*
X82898Y-55746D01*
X82946Y-55734D01*
X83005Y-55734D01*
X83053Y-55746D01*
X83077Y-55758D01*
X83089Y-55770D01*
X83101Y-55794D01*
X83101Y-55817D01*
X83089Y-55841D01*
X83077Y-55853D01*
X83053Y-55865D01*
X83005Y-55877D01*
X82946Y-55877D01*
X82898Y-55865D01*
X82875Y-55853D01*
X82863Y-55841D01*
X82851Y-55817D01*
X85927Y-56910D02*
X85939Y-56922D01*
X85951Y-56958D01*
X85951Y-56982D01*
X85939Y-57017D01*
X85915Y-57041D01*
X85891Y-57053D01*
X85844Y-57065D01*
X85808Y-57065D01*
X85760Y-57053D01*
X85736Y-57041D01*
X85713Y-57017D01*
X85701Y-56982D01*
X85701Y-56958D01*
X85713Y-56922D01*
X85725Y-56910D01*
X85784Y-56696D02*
X85951Y-56696D01*
X85689Y-56755D02*
X85867Y-56815D01*
X85867Y-56660D01*
X85808Y-56529D02*
X85796Y-56553D01*
X85784Y-56565D01*
X85760Y-56577D01*
X85748Y-56577D01*
X85725Y-56565D01*
X85713Y-56553D01*
X85701Y-56529D01*
X85701Y-56482D01*
X85713Y-56458D01*
X85725Y-56446D01*
X85748Y-56434D01*
X85760Y-56434D01*
X85784Y-56446D01*
X85796Y-56458D01*
X85808Y-56482D01*
X85808Y-56529D01*
X85820Y-56553D01*
X85832Y-56565D01*
X85855Y-56577D01*
X85903Y-56577D01*
X85927Y-56565D01*
X85939Y-56553D01*
X85951Y-56529D01*
X85951Y-56482D01*
X85939Y-56458D01*
X85927Y-56446D01*
X85903Y-56434D01*
X85855Y-56434D01*
X85832Y-56446D01*
X85820Y-56458D01*
X85808Y-56482D01*
X82077Y-56210D02*
X82089Y-56222D01*
X82101Y-56258D01*
X82101Y-56282D01*
X82089Y-56317D01*
X82065Y-56341D01*
X82041Y-56353D01*
X81994Y-56365D01*
X81958Y-56365D01*
X81910Y-56353D01*
X81886Y-56341D01*
X81863Y-56317D01*
X81851Y-56282D01*
X81851Y-56258D01*
X81863Y-56222D01*
X81875Y-56210D01*
X81851Y-55984D02*
X81851Y-56103D01*
X81970Y-56115D01*
X81958Y-56103D01*
X81946Y-56079D01*
X81946Y-56020D01*
X81958Y-55996D01*
X81970Y-55984D01*
X81994Y-55972D01*
X82053Y-55972D01*
X82077Y-55984D01*
X82089Y-55996D01*
X82101Y-56020D01*
X82101Y-56079D01*
X82089Y-56103D01*
X82077Y-56115D01*
X82101Y-55734D02*
X82101Y-55877D01*
X82101Y-55805D02*
X81851Y-55805D01*
X81886Y-55829D01*
X81910Y-55853D01*
X81922Y-55877D01*
X81077Y-56210D02*
X81089Y-56222D01*
X81101Y-56258D01*
X81101Y-56282D01*
X81089Y-56317D01*
X81065Y-56341D01*
X81041Y-56353D01*
X80994Y-56365D01*
X80958Y-56365D01*
X80910Y-56353D01*
X80886Y-56341D01*
X80863Y-56317D01*
X80851Y-56282D01*
X80851Y-56258D01*
X80863Y-56222D01*
X80875Y-56210D01*
X80851Y-55984D02*
X80851Y-56103D01*
X80970Y-56115D01*
X80958Y-56103D01*
X80946Y-56079D01*
X80946Y-56020D01*
X80958Y-55996D01*
X80970Y-55984D01*
X80994Y-55972D01*
X81053Y-55972D01*
X81077Y-55984D01*
X81089Y-55996D01*
X81101Y-56020D01*
X81101Y-56079D01*
X81089Y-56103D01*
X81077Y-56115D01*
X80875Y-55877D02*
X80863Y-55865D01*
X80851Y-55841D01*
X80851Y-55782D01*
X80863Y-55758D01*
X80875Y-55746D01*
X80898Y-55734D01*
X80922Y-55734D01*
X80958Y-55746D01*
X81101Y-55889D01*
X81101Y-55734D01*
X80127Y-56210D02*
X80139Y-56222D01*
X80151Y-56258D01*
X80151Y-56282D01*
X80139Y-56317D01*
X80115Y-56341D01*
X80091Y-56353D01*
X80044Y-56365D01*
X80008Y-56365D01*
X79960Y-56353D01*
X79936Y-56341D01*
X79913Y-56317D01*
X79901Y-56282D01*
X79901Y-56258D01*
X79913Y-56222D01*
X79925Y-56210D01*
X79901Y-55984D02*
X79901Y-56103D01*
X80020Y-56115D01*
X80008Y-56103D01*
X79996Y-56079D01*
X79996Y-56020D01*
X80008Y-55996D01*
X80020Y-55984D01*
X80044Y-55972D01*
X80103Y-55972D01*
X80127Y-55984D01*
X80139Y-55996D01*
X80151Y-56020D01*
X80151Y-56079D01*
X80139Y-56103D01*
X80127Y-56115D01*
X79901Y-55889D02*
X79901Y-55734D01*
X79996Y-55817D01*
X79996Y-55782D01*
X80008Y-55758D01*
X80020Y-55746D01*
X80044Y-55734D01*
X80103Y-55734D01*
X80127Y-55746D01*
X80139Y-55758D01*
X80151Y-55782D01*
X80151Y-55853D01*
X80139Y-55877D01*
X80127Y-55889D01*
X79127Y-56260D02*
X79139Y-56272D01*
X79151Y-56308D01*
X79151Y-56332D01*
X79139Y-56367D01*
X79115Y-56391D01*
X79091Y-56403D01*
X79044Y-56415D01*
X79008Y-56415D01*
X78960Y-56403D01*
X78936Y-56391D01*
X78913Y-56367D01*
X78901Y-56332D01*
X78901Y-56308D01*
X78913Y-56272D01*
X78925Y-56260D01*
X78984Y-56046D02*
X79151Y-56046D01*
X78889Y-56105D02*
X79067Y-56165D01*
X79067Y-56010D01*
X78901Y-55939D02*
X78901Y-55772D01*
X79151Y-55879D01*
X83839Y-56377D02*
X83827Y-56389D01*
X83791Y-56401D01*
X83767Y-56401D01*
X83732Y-56389D01*
X83708Y-56365D01*
X83696Y-56341D01*
X83684Y-56294D01*
X83684Y-56258D01*
X83696Y-56210D01*
X83708Y-56186D01*
X83732Y-56163D01*
X83767Y-56151D01*
X83791Y-56151D01*
X83827Y-56163D01*
X83839Y-56175D01*
X84053Y-56234D02*
X84053Y-56401D01*
X83994Y-56139D02*
X83934Y-56317D01*
X84089Y-56317D01*
X84196Y-56401D02*
X84244Y-56401D01*
X84267Y-56389D01*
X84279Y-56377D01*
X84303Y-56341D01*
X84315Y-56294D01*
X84315Y-56198D01*
X84303Y-56175D01*
X84291Y-56163D01*
X84267Y-56151D01*
X84220Y-56151D01*
X84196Y-56163D01*
X84184Y-56175D01*
X84172Y-56198D01*
X84172Y-56258D01*
X84184Y-56282D01*
X84196Y-56294D01*
X84220Y-56305D01*
X84267Y-56305D01*
X84291Y-56294D01*
X84303Y-56282D01*
X84315Y-56258D01*
X77277Y-45560D02*
X77289Y-45572D01*
X77301Y-45608D01*
X77301Y-45632D01*
X77289Y-45667D01*
X77265Y-45691D01*
X77241Y-45703D01*
X77194Y-45715D01*
X77158Y-45715D01*
X77110Y-45703D01*
X77086Y-45691D01*
X77063Y-45667D01*
X77051Y-45632D01*
X77051Y-45608D01*
X77063Y-45572D01*
X77075Y-45560D01*
X77051Y-45477D02*
X77051Y-45322D01*
X77146Y-45405D01*
X77146Y-45370D01*
X77158Y-45346D01*
X77170Y-45334D01*
X77194Y-45322D01*
X77253Y-45322D01*
X77277Y-45334D01*
X77289Y-45346D01*
X77301Y-45370D01*
X77301Y-45441D01*
X77289Y-45465D01*
X77277Y-45477D01*
X77301Y-45084D02*
X77301Y-45227D01*
X77301Y-45155D02*
X77051Y-45155D01*
X77086Y-45179D01*
X77110Y-45203D01*
X77122Y-45227D01*
X80227Y-45710D02*
X80239Y-45722D01*
X80251Y-45758D01*
X80251Y-45782D01*
X80239Y-45817D01*
X80215Y-45841D01*
X80191Y-45853D01*
X80144Y-45865D01*
X80108Y-45865D01*
X80060Y-45853D01*
X80036Y-45841D01*
X80013Y-45817D01*
X80001Y-45782D01*
X80001Y-45758D01*
X80013Y-45722D01*
X80025Y-45710D01*
X80001Y-45627D02*
X80001Y-45472D01*
X80096Y-45555D01*
X80096Y-45520D01*
X80108Y-45496D01*
X80120Y-45484D01*
X80144Y-45472D01*
X80203Y-45472D01*
X80227Y-45484D01*
X80239Y-45496D01*
X80251Y-45520D01*
X80251Y-45591D01*
X80239Y-45615D01*
X80227Y-45627D01*
X80001Y-45246D02*
X80001Y-45365D01*
X80120Y-45377D01*
X80108Y-45365D01*
X80096Y-45341D01*
X80096Y-45282D01*
X80108Y-45258D01*
X80120Y-45246D01*
X80144Y-45234D01*
X80203Y-45234D01*
X80227Y-45246D01*
X80239Y-45258D01*
X80251Y-45282D01*
X80251Y-45341D01*
X80239Y-45365D01*
X80227Y-45377D01*
X74577Y-54891D02*
X74589Y-54903D01*
X74601Y-54939D01*
X74601Y-54963D01*
X74589Y-54998D01*
X74565Y-55022D01*
X74541Y-55034D01*
X74494Y-55046D01*
X74458Y-55046D01*
X74410Y-55034D01*
X74386Y-55022D01*
X74363Y-54998D01*
X74351Y-54963D01*
X74351Y-54939D01*
X74363Y-54903D01*
X74375Y-54891D01*
X74601Y-54653D02*
X74601Y-54796D01*
X74601Y-54725D02*
X74351Y-54725D01*
X74386Y-54748D01*
X74410Y-54772D01*
X74422Y-54796D01*
X79908Y-50427D02*
X79896Y-50439D01*
X79860Y-50451D01*
X79836Y-50451D01*
X79801Y-50439D01*
X79777Y-50415D01*
X79765Y-50391D01*
X79753Y-50344D01*
X79753Y-50308D01*
X79765Y-50260D01*
X79777Y-50236D01*
X79801Y-50213D01*
X79836Y-50201D01*
X79860Y-50201D01*
X79896Y-50213D01*
X79908Y-50225D01*
X79991Y-50201D02*
X80146Y-50201D01*
X80063Y-50296D01*
X80098Y-50296D01*
X80122Y-50308D01*
X80134Y-50320D01*
X80146Y-50344D01*
X80146Y-50403D01*
X80134Y-50427D01*
X80122Y-50439D01*
X80098Y-50451D01*
X80027Y-50451D01*
X80003Y-50439D01*
X79991Y-50427D01*
X75577Y-49291D02*
X75589Y-49303D01*
X75601Y-49339D01*
X75601Y-49363D01*
X75589Y-49398D01*
X75565Y-49422D01*
X75541Y-49434D01*
X75494Y-49446D01*
X75458Y-49446D01*
X75410Y-49434D01*
X75386Y-49422D01*
X75363Y-49398D01*
X75351Y-49363D01*
X75351Y-49339D01*
X75363Y-49303D01*
X75375Y-49291D01*
X75351Y-49065D02*
X75351Y-49184D01*
X75470Y-49196D01*
X75458Y-49184D01*
X75446Y-49160D01*
X75446Y-49101D01*
X75458Y-49077D01*
X75470Y-49065D01*
X75494Y-49053D01*
X75553Y-49053D01*
X75577Y-49065D01*
X75589Y-49077D01*
X75601Y-49101D01*
X75601Y-49160D01*
X75589Y-49184D01*
X75577Y-49196D01*
X66789Y-42677D02*
X66777Y-42689D01*
X66741Y-42701D01*
X66717Y-42701D01*
X66682Y-42689D01*
X66658Y-42665D01*
X66646Y-42641D01*
X66634Y-42594D01*
X66634Y-42558D01*
X66646Y-42510D01*
X66658Y-42486D01*
X66682Y-42463D01*
X66717Y-42451D01*
X66741Y-42451D01*
X66777Y-42463D01*
X66789Y-42475D01*
X67003Y-42534D02*
X67003Y-42701D01*
X66944Y-42439D02*
X66884Y-42617D01*
X67039Y-42617D01*
X67265Y-42701D02*
X67122Y-42701D01*
X67194Y-42701D02*
X67194Y-42451D01*
X67170Y-42486D01*
X67146Y-42510D01*
X67122Y-42522D01*
X60677Y-57710D02*
X60689Y-57722D01*
X60701Y-57758D01*
X60701Y-57782D01*
X60689Y-57817D01*
X60665Y-57841D01*
X60641Y-57853D01*
X60594Y-57865D01*
X60558Y-57865D01*
X60510Y-57853D01*
X60486Y-57841D01*
X60463Y-57817D01*
X60451Y-57782D01*
X60451Y-57758D01*
X60463Y-57722D01*
X60475Y-57710D01*
X60534Y-57496D02*
X60701Y-57496D01*
X60439Y-57555D02*
X60617Y-57615D01*
X60617Y-57460D01*
X60534Y-57258D02*
X60701Y-57258D01*
X60439Y-57317D02*
X60617Y-57377D01*
X60617Y-57222D01*
X58472Y-39320D02*
X58508Y-39332D01*
X58520Y-39344D01*
X58532Y-39367D01*
X58532Y-39403D01*
X58520Y-39427D01*
X58508Y-39439D01*
X58484Y-39451D01*
X58389Y-39451D01*
X58389Y-39201D01*
X58472Y-39201D01*
X58496Y-39213D01*
X58508Y-39225D01*
X58520Y-39248D01*
X58520Y-39272D01*
X58508Y-39296D01*
X58496Y-39308D01*
X58472Y-39320D01*
X58389Y-39320D01*
X58603Y-39201D02*
X58746Y-39201D01*
X58675Y-39451D02*
X58675Y-39201D01*
X58829Y-39451D02*
X58829Y-39201D01*
X58972Y-39451D01*
X58972Y-39201D01*
X59222Y-39451D02*
X59079Y-39451D01*
X59151Y-39451D02*
X59151Y-39201D01*
X59127Y-39236D01*
X59103Y-39260D01*
X59079Y-39272D01*
X80089Y-42427D02*
X80077Y-42439D01*
X80041Y-42451D01*
X80017Y-42451D01*
X79982Y-42439D01*
X79958Y-42415D01*
X79946Y-42391D01*
X79934Y-42344D01*
X79934Y-42308D01*
X79946Y-42260D01*
X79958Y-42236D01*
X79982Y-42213D01*
X80017Y-42201D01*
X80041Y-42201D01*
X80077Y-42213D01*
X80089Y-42225D01*
X80184Y-42225D02*
X80196Y-42213D01*
X80220Y-42201D01*
X80279Y-42201D01*
X80303Y-42213D01*
X80315Y-42225D01*
X80327Y-42248D01*
X80327Y-42272D01*
X80315Y-42308D01*
X80172Y-42451D01*
X80327Y-42451D01*
X80470Y-42308D02*
X80446Y-42296D01*
X80434Y-42284D01*
X80422Y-42260D01*
X80422Y-42248D01*
X80434Y-42225D01*
X80446Y-42213D01*
X80470Y-42201D01*
X80517Y-42201D01*
X80541Y-42213D01*
X80553Y-42225D01*
X80565Y-42248D01*
X80565Y-42260D01*
X80553Y-42284D01*
X80541Y-42296D01*
X80517Y-42308D01*
X80470Y-42308D01*
X80446Y-42320D01*
X80434Y-42332D01*
X80422Y-42355D01*
X80422Y-42403D01*
X80434Y-42427D01*
X80446Y-42439D01*
X80470Y-42451D01*
X80517Y-42451D01*
X80541Y-42439D01*
X80553Y-42427D01*
X80565Y-42403D01*
X80565Y-42355D01*
X80553Y-42332D01*
X80541Y-42320D01*
X80517Y-42308D01*
X80639Y-44327D02*
X80627Y-44339D01*
X80591Y-44351D01*
X80567Y-44351D01*
X80532Y-44339D01*
X80508Y-44315D01*
X80496Y-44291D01*
X80484Y-44244D01*
X80484Y-44208D01*
X80496Y-44160D01*
X80508Y-44136D01*
X80532Y-44113D01*
X80567Y-44101D01*
X80591Y-44101D01*
X80627Y-44113D01*
X80639Y-44125D01*
X80722Y-44101D02*
X80877Y-44101D01*
X80794Y-44196D01*
X80829Y-44196D01*
X80853Y-44208D01*
X80865Y-44220D01*
X80877Y-44244D01*
X80877Y-44303D01*
X80865Y-44327D01*
X80853Y-44339D01*
X80829Y-44351D01*
X80758Y-44351D01*
X80734Y-44339D01*
X80722Y-44327D01*
X81032Y-44101D02*
X81055Y-44101D01*
X81079Y-44113D01*
X81091Y-44125D01*
X81103Y-44148D01*
X81115Y-44196D01*
X81115Y-44255D01*
X81103Y-44303D01*
X81091Y-44327D01*
X81079Y-44339D01*
X81055Y-44351D01*
X81032Y-44351D01*
X81008Y-44339D01*
X80996Y-44327D01*
X80984Y-44303D01*
X80972Y-44255D01*
X80972Y-44196D01*
X80984Y-44148D01*
X80996Y-44125D01*
X81008Y-44113D01*
X81032Y-44101D01*
X78677Y-46710D02*
X78689Y-46722D01*
X78701Y-46758D01*
X78701Y-46782D01*
X78689Y-46817D01*
X78665Y-46841D01*
X78641Y-46853D01*
X78594Y-46865D01*
X78558Y-46865D01*
X78510Y-46853D01*
X78486Y-46841D01*
X78463Y-46817D01*
X78451Y-46782D01*
X78451Y-46758D01*
X78463Y-46722D01*
X78475Y-46710D01*
X78534Y-46496D02*
X78701Y-46496D01*
X78439Y-46555D02*
X78617Y-46615D01*
X78617Y-46460D01*
X78451Y-46258D02*
X78451Y-46305D01*
X78463Y-46329D01*
X78475Y-46341D01*
X78510Y-46365D01*
X78558Y-46377D01*
X78653Y-46377D01*
X78677Y-46365D01*
X78689Y-46353D01*
X78701Y-46329D01*
X78701Y-46282D01*
X78689Y-46258D01*
X78677Y-46246D01*
X78653Y-46234D01*
X78594Y-46234D01*
X78570Y-46246D01*
X78558Y-46258D01*
X78546Y-46282D01*
X78546Y-46329D01*
X78558Y-46353D01*
X78570Y-46365D01*
X78594Y-46377D01*
X64739Y-52877D02*
X64727Y-52889D01*
X64691Y-52901D01*
X64667Y-52901D01*
X64632Y-52889D01*
X64608Y-52865D01*
X64596Y-52841D01*
X64584Y-52794D01*
X64584Y-52758D01*
X64596Y-52710D01*
X64608Y-52686D01*
X64632Y-52663D01*
X64667Y-52651D01*
X64691Y-52651D01*
X64727Y-52663D01*
X64739Y-52675D01*
X64953Y-52651D02*
X64905Y-52651D01*
X64882Y-52663D01*
X64870Y-52675D01*
X64846Y-52710D01*
X64834Y-52758D01*
X64834Y-52853D01*
X64846Y-52877D01*
X64858Y-52889D01*
X64882Y-52901D01*
X64929Y-52901D01*
X64953Y-52889D01*
X64965Y-52877D01*
X64977Y-52853D01*
X64977Y-52794D01*
X64965Y-52770D01*
X64953Y-52758D01*
X64929Y-52746D01*
X64882Y-52746D01*
X64858Y-52758D01*
X64846Y-52770D01*
X64834Y-52794D01*
X65060Y-52651D02*
X65215Y-52651D01*
X65132Y-52746D01*
X65167Y-52746D01*
X65191Y-52758D01*
X65203Y-52770D01*
X65215Y-52794D01*
X65215Y-52853D01*
X65203Y-52877D01*
X65191Y-52889D01*
X65167Y-52901D01*
X65096Y-52901D01*
X65072Y-52889D01*
X65060Y-52877D01*
X65427Y-49710D02*
X65439Y-49722D01*
X65451Y-49758D01*
X65451Y-49782D01*
X65439Y-49817D01*
X65415Y-49841D01*
X65391Y-49853D01*
X65344Y-49865D01*
X65308Y-49865D01*
X65260Y-49853D01*
X65236Y-49841D01*
X65213Y-49817D01*
X65201Y-49782D01*
X65201Y-49758D01*
X65213Y-49722D01*
X65225Y-49710D01*
X65201Y-49484D02*
X65201Y-49603D01*
X65320Y-49615D01*
X65308Y-49603D01*
X65296Y-49579D01*
X65296Y-49520D01*
X65308Y-49496D01*
X65320Y-49484D01*
X65344Y-49472D01*
X65403Y-49472D01*
X65427Y-49484D01*
X65439Y-49496D01*
X65451Y-49520D01*
X65451Y-49579D01*
X65439Y-49603D01*
X65427Y-49615D01*
X65201Y-49258D02*
X65201Y-49305D01*
X65213Y-49329D01*
X65225Y-49341D01*
X65260Y-49365D01*
X65308Y-49377D01*
X65403Y-49377D01*
X65427Y-49365D01*
X65439Y-49353D01*
X65451Y-49329D01*
X65451Y-49282D01*
X65439Y-49258D01*
X65427Y-49246D01*
X65403Y-49234D01*
X65344Y-49234D01*
X65320Y-49246D01*
X65308Y-49258D01*
X65296Y-49282D01*
X65296Y-49329D01*
X65308Y-49353D01*
X65320Y-49365D01*
X65344Y-49377D01*
X78277Y-46160D02*
X78289Y-46172D01*
X78301Y-46208D01*
X78301Y-46232D01*
X78289Y-46267D01*
X78265Y-46291D01*
X78241Y-46303D01*
X78194Y-46315D01*
X78158Y-46315D01*
X78110Y-46303D01*
X78086Y-46291D01*
X78063Y-46267D01*
X78051Y-46232D01*
X78051Y-46208D01*
X78063Y-46172D01*
X78075Y-46160D01*
X78051Y-46077D02*
X78051Y-45922D01*
X78146Y-46005D01*
X78146Y-45970D01*
X78158Y-45946D01*
X78170Y-45934D01*
X78194Y-45922D01*
X78253Y-45922D01*
X78277Y-45934D01*
X78289Y-45946D01*
X78301Y-45970D01*
X78301Y-46041D01*
X78289Y-46065D01*
X78277Y-46077D01*
X78075Y-45827D02*
X78063Y-45815D01*
X78051Y-45791D01*
X78051Y-45732D01*
X78063Y-45708D01*
X78075Y-45696D01*
X78098Y-45684D01*
X78122Y-45684D01*
X78158Y-45696D01*
X78301Y-45839D01*
X78301Y-45684D01*
X72739Y-54877D02*
X72727Y-54889D01*
X72691Y-54901D01*
X72667Y-54901D01*
X72632Y-54889D01*
X72608Y-54865D01*
X72596Y-54841D01*
X72584Y-54794D01*
X72584Y-54758D01*
X72596Y-54710D01*
X72608Y-54686D01*
X72632Y-54663D01*
X72667Y-54651D01*
X72691Y-54651D01*
X72727Y-54663D01*
X72739Y-54675D01*
X72834Y-54675D02*
X72846Y-54663D01*
X72870Y-54651D01*
X72929Y-54651D01*
X72953Y-54663D01*
X72965Y-54675D01*
X72977Y-54698D01*
X72977Y-54722D01*
X72965Y-54758D01*
X72822Y-54901D01*
X72977Y-54901D01*
X73215Y-54901D02*
X73072Y-54901D01*
X73144Y-54901D02*
X73144Y-54651D01*
X73120Y-54686D01*
X73096Y-54710D01*
X73072Y-54722D01*
X74227Y-56441D02*
X74239Y-56453D01*
X74251Y-56489D01*
X74251Y-56513D01*
X74239Y-56548D01*
X74215Y-56572D01*
X74191Y-56584D01*
X74144Y-56596D01*
X74108Y-56596D01*
X74060Y-56584D01*
X74036Y-56572D01*
X74013Y-56548D01*
X74001Y-56513D01*
X74001Y-56489D01*
X74013Y-56453D01*
X74025Y-56441D01*
X74108Y-56298D02*
X74096Y-56322D01*
X74084Y-56334D01*
X74060Y-56346D01*
X74048Y-56346D01*
X74025Y-56334D01*
X74013Y-56322D01*
X74001Y-56298D01*
X74001Y-56251D01*
X74013Y-56227D01*
X74025Y-56215D01*
X74048Y-56203D01*
X74060Y-56203D01*
X74084Y-56215D01*
X74096Y-56227D01*
X74108Y-56251D01*
X74108Y-56298D01*
X74120Y-56322D01*
X74132Y-56334D01*
X74155Y-56346D01*
X74203Y-56346D01*
X74227Y-56334D01*
X74239Y-56322D01*
X74251Y-56298D01*
X74251Y-56251D01*
X74239Y-56227D01*
X74227Y-56215D01*
X74203Y-56203D01*
X74155Y-56203D01*
X74132Y-56215D01*
X74120Y-56227D01*
X74108Y-56251D01*
X76327Y-56441D02*
X76339Y-56453D01*
X76351Y-56489D01*
X76351Y-56513D01*
X76339Y-56548D01*
X76315Y-56572D01*
X76291Y-56584D01*
X76244Y-56596D01*
X76208Y-56596D01*
X76160Y-56584D01*
X76136Y-56572D01*
X76113Y-56548D01*
X76101Y-56513D01*
X76101Y-56489D01*
X76113Y-56453D01*
X76125Y-56441D01*
X76101Y-56358D02*
X76101Y-56191D01*
X76351Y-56298D01*
X73139Y-50977D02*
X73127Y-50989D01*
X73091Y-51001D01*
X73067Y-51001D01*
X73032Y-50989D01*
X73008Y-50965D01*
X72996Y-50941D01*
X72984Y-50894D01*
X72984Y-50858D01*
X72996Y-50810D01*
X73008Y-50786D01*
X73032Y-50763D01*
X73067Y-50751D01*
X73091Y-50751D01*
X73127Y-50763D01*
X73139Y-50775D01*
X73377Y-51001D02*
X73234Y-51001D01*
X73305Y-51001D02*
X73305Y-50751D01*
X73282Y-50786D01*
X73258Y-50810D01*
X73234Y-50822D01*
X73615Y-51001D02*
X73472Y-51001D01*
X73544Y-51001D02*
X73544Y-50751D01*
X73520Y-50786D01*
X73496Y-50810D01*
X73472Y-50822D01*
X73558Y-48327D02*
X73546Y-48339D01*
X73510Y-48351D01*
X73486Y-48351D01*
X73451Y-48339D01*
X73427Y-48315D01*
X73415Y-48291D01*
X73403Y-48244D01*
X73403Y-48208D01*
X73415Y-48160D01*
X73427Y-48136D01*
X73451Y-48113D01*
X73486Y-48101D01*
X73510Y-48101D01*
X73546Y-48113D01*
X73558Y-48125D01*
X73677Y-48351D02*
X73725Y-48351D01*
X73748Y-48339D01*
X73760Y-48327D01*
X73784Y-48291D01*
X73796Y-48244D01*
X73796Y-48148D01*
X73784Y-48125D01*
X73772Y-48113D01*
X73748Y-48101D01*
X73701Y-48101D01*
X73677Y-48113D01*
X73665Y-48125D01*
X73653Y-48148D01*
X73653Y-48208D01*
X73665Y-48232D01*
X73677Y-48244D01*
X73701Y-48255D01*
X73748Y-48255D01*
X73772Y-48244D01*
X73784Y-48232D01*
X73796Y-48208D01*
X71889Y-53527D02*
X71877Y-53539D01*
X71841Y-53551D01*
X71817Y-53551D01*
X71782Y-53539D01*
X71758Y-53515D01*
X71746Y-53491D01*
X71734Y-53444D01*
X71734Y-53408D01*
X71746Y-53360D01*
X71758Y-53336D01*
X71782Y-53313D01*
X71817Y-53301D01*
X71841Y-53301D01*
X71877Y-53313D01*
X71889Y-53325D01*
X72127Y-53551D02*
X71984Y-53551D01*
X72055Y-53551D02*
X72055Y-53301D01*
X72032Y-53336D01*
X72008Y-53360D01*
X71984Y-53372D01*
X72210Y-53301D02*
X72365Y-53301D01*
X72282Y-53396D01*
X72317Y-53396D01*
X72341Y-53408D01*
X72353Y-53420D01*
X72365Y-53444D01*
X72365Y-53503D01*
X72353Y-53527D01*
X72341Y-53539D01*
X72317Y-53551D01*
X72246Y-53551D01*
X72222Y-53539D01*
X72210Y-53527D01*
X74210Y-53760D02*
X74222Y-53772D01*
X74234Y-53808D01*
X74234Y-53832D01*
X74222Y-53867D01*
X74198Y-53891D01*
X74174Y-53903D01*
X74127Y-53915D01*
X74091Y-53915D01*
X74043Y-53903D01*
X74019Y-53891D01*
X73996Y-53867D01*
X73984Y-53832D01*
X73984Y-53808D01*
X73996Y-53772D01*
X74008Y-53760D01*
X74234Y-53522D02*
X74234Y-53665D01*
X74234Y-53594D02*
X73984Y-53594D01*
X74019Y-53617D01*
X74043Y-53641D01*
X74055Y-53665D01*
X74067Y-53308D02*
X74234Y-53308D01*
X73972Y-53367D02*
X74150Y-53427D01*
X74150Y-53272D01*
X71889Y-53977D02*
X71877Y-53989D01*
X71841Y-54001D01*
X71817Y-54001D01*
X71782Y-53989D01*
X71758Y-53965D01*
X71746Y-53941D01*
X71734Y-53894D01*
X71734Y-53858D01*
X71746Y-53810D01*
X71758Y-53786D01*
X71782Y-53763D01*
X71817Y-53751D01*
X71841Y-53751D01*
X71877Y-53763D01*
X71889Y-53775D01*
X72127Y-54001D02*
X71984Y-54001D01*
X72055Y-54001D02*
X72055Y-53751D01*
X72032Y-53786D01*
X72008Y-53810D01*
X71984Y-53822D01*
X72246Y-54001D02*
X72294Y-54001D01*
X72317Y-53989D01*
X72329Y-53977D01*
X72353Y-53941D01*
X72365Y-53894D01*
X72365Y-53798D01*
X72353Y-53775D01*
X72341Y-53763D01*
X72317Y-53751D01*
X72270Y-53751D01*
X72246Y-53763D01*
X72234Y-53775D01*
X72222Y-53798D01*
X72222Y-53858D01*
X72234Y-53882D01*
X72246Y-53894D01*
X72270Y-53905D01*
X72317Y-53905D01*
X72341Y-53894D01*
X72353Y-53882D01*
X72365Y-53858D01*
X75977Y-54491D02*
X75989Y-54503D01*
X76001Y-54539D01*
X76001Y-54563D01*
X75989Y-54598D01*
X75965Y-54622D01*
X75941Y-54634D01*
X75894Y-54646D01*
X75858Y-54646D01*
X75810Y-54634D01*
X75786Y-54622D01*
X75763Y-54598D01*
X75751Y-54563D01*
X75751Y-54539D01*
X75763Y-54503D01*
X75775Y-54491D01*
X75775Y-54396D02*
X75763Y-54384D01*
X75751Y-54360D01*
X75751Y-54301D01*
X75763Y-54277D01*
X75775Y-54265D01*
X75798Y-54253D01*
X75822Y-54253D01*
X75858Y-54265D01*
X76001Y-54408D01*
X76001Y-54253D01*
X79858Y-51477D02*
X79846Y-51489D01*
X79810Y-51501D01*
X79786Y-51501D01*
X79751Y-51489D01*
X79727Y-51465D01*
X79715Y-51441D01*
X79703Y-51394D01*
X79703Y-51358D01*
X79715Y-51310D01*
X79727Y-51286D01*
X79751Y-51263D01*
X79786Y-51251D01*
X79810Y-51251D01*
X79846Y-51263D01*
X79858Y-51275D01*
X80072Y-51334D02*
X80072Y-51501D01*
X80013Y-51239D02*
X79953Y-51417D01*
X80108Y-51417D01*
X77027Y-49391D02*
X77039Y-49403D01*
X77051Y-49439D01*
X77051Y-49463D01*
X77039Y-49498D01*
X77015Y-49522D01*
X76991Y-49534D01*
X76944Y-49546D01*
X76908Y-49546D01*
X76860Y-49534D01*
X76836Y-49522D01*
X76813Y-49498D01*
X76801Y-49463D01*
X76801Y-49439D01*
X76813Y-49403D01*
X76825Y-49391D01*
X76801Y-49177D02*
X76801Y-49225D01*
X76813Y-49248D01*
X76825Y-49260D01*
X76860Y-49284D01*
X76908Y-49296D01*
X77003Y-49296D01*
X77027Y-49284D01*
X77039Y-49272D01*
X77051Y-49248D01*
X77051Y-49201D01*
X77039Y-49177D01*
X77027Y-49165D01*
X77003Y-49153D01*
X76944Y-49153D01*
X76920Y-49165D01*
X76908Y-49177D01*
X76896Y-49201D01*
X76896Y-49248D01*
X76908Y-49272D01*
X76920Y-49284D01*
X76944Y-49296D01*
X71889Y-54427D02*
X71877Y-54439D01*
X71841Y-54451D01*
X71817Y-54451D01*
X71782Y-54439D01*
X71758Y-54415D01*
X71746Y-54391D01*
X71734Y-54344D01*
X71734Y-54308D01*
X71746Y-54260D01*
X71758Y-54236D01*
X71782Y-54213D01*
X71817Y-54201D01*
X71841Y-54201D01*
X71877Y-54213D01*
X71889Y-54225D01*
X72127Y-54451D02*
X71984Y-54451D01*
X72055Y-54451D02*
X72055Y-54201D01*
X72032Y-54236D01*
X72008Y-54260D01*
X71984Y-54272D01*
X72341Y-54201D02*
X72294Y-54201D01*
X72270Y-54213D01*
X72258Y-54225D01*
X72234Y-54260D01*
X72222Y-54308D01*
X72222Y-54403D01*
X72234Y-54427D01*
X72246Y-54439D01*
X72270Y-54451D01*
X72317Y-54451D01*
X72341Y-54439D01*
X72353Y-54427D01*
X72365Y-54403D01*
X72365Y-54344D01*
X72353Y-54320D01*
X72341Y-54308D01*
X72317Y-54296D01*
X72270Y-54296D01*
X72246Y-54308D01*
X72234Y-54320D01*
X72222Y-54344D01*
X70039Y-41977D02*
X70027Y-41989D01*
X69991Y-42001D01*
X69967Y-42001D01*
X69932Y-41989D01*
X69908Y-41965D01*
X69896Y-41941D01*
X69884Y-41894D01*
X69884Y-41858D01*
X69896Y-41810D01*
X69908Y-41786D01*
X69932Y-41763D01*
X69967Y-41751D01*
X69991Y-41751D01*
X70027Y-41763D01*
X70039Y-41775D01*
X70253Y-41834D02*
X70253Y-42001D01*
X70194Y-41739D02*
X70134Y-41917D01*
X70289Y-41917D01*
X70372Y-41775D02*
X70384Y-41763D01*
X70408Y-41751D01*
X70467Y-41751D01*
X70491Y-41763D01*
X70503Y-41775D01*
X70515Y-41798D01*
X70515Y-41822D01*
X70503Y-41858D01*
X70360Y-42001D01*
X70515Y-42001D01*
X67789Y-44727D02*
X67777Y-44739D01*
X67741Y-44751D01*
X67717Y-44751D01*
X67682Y-44739D01*
X67658Y-44715D01*
X67646Y-44691D01*
X67634Y-44644D01*
X67634Y-44608D01*
X67646Y-44560D01*
X67658Y-44536D01*
X67682Y-44513D01*
X67717Y-44501D01*
X67741Y-44501D01*
X67777Y-44513D01*
X67789Y-44525D01*
X68003Y-44584D02*
X68003Y-44751D01*
X67944Y-44489D02*
X67884Y-44667D01*
X68039Y-44667D01*
X68110Y-44501D02*
X68265Y-44501D01*
X68182Y-44596D01*
X68217Y-44596D01*
X68241Y-44608D01*
X68253Y-44620D01*
X68265Y-44644D01*
X68265Y-44703D01*
X68253Y-44727D01*
X68241Y-44739D01*
X68217Y-44751D01*
X68146Y-44751D01*
X68122Y-44739D01*
X68110Y-44727D01*
X79439Y-46177D02*
X79427Y-46189D01*
X79391Y-46201D01*
X79367Y-46201D01*
X79332Y-46189D01*
X79308Y-46165D01*
X79296Y-46141D01*
X79284Y-46094D01*
X79284Y-46058D01*
X79296Y-46010D01*
X79308Y-45986D01*
X79332Y-45963D01*
X79367Y-45951D01*
X79391Y-45951D01*
X79427Y-45963D01*
X79439Y-45975D01*
X79522Y-45951D02*
X79677Y-45951D01*
X79594Y-46046D01*
X79629Y-46046D01*
X79653Y-46058D01*
X79665Y-46070D01*
X79677Y-46094D01*
X79677Y-46153D01*
X79665Y-46177D01*
X79653Y-46189D01*
X79629Y-46201D01*
X79558Y-46201D01*
X79534Y-46189D01*
X79522Y-46177D01*
X79891Y-45951D02*
X79844Y-45951D01*
X79820Y-45963D01*
X79808Y-45975D01*
X79784Y-46010D01*
X79772Y-46058D01*
X79772Y-46153D01*
X79784Y-46177D01*
X79796Y-46189D01*
X79820Y-46201D01*
X79867Y-46201D01*
X79891Y-46189D01*
X79903Y-46177D01*
X79915Y-46153D01*
X79915Y-46094D01*
X79903Y-46070D01*
X79891Y-46058D01*
X79867Y-46046D01*
X79820Y-46046D01*
X79796Y-46058D01*
X79784Y-46070D01*
X79772Y-46094D01*
X63377Y-42360D02*
X63389Y-42372D01*
X63401Y-42408D01*
X63401Y-42432D01*
X63389Y-42467D01*
X63365Y-42491D01*
X63341Y-42503D01*
X63294Y-42515D01*
X63258Y-42515D01*
X63210Y-42503D01*
X63186Y-42491D01*
X63163Y-42467D01*
X63151Y-42432D01*
X63151Y-42408D01*
X63163Y-42372D01*
X63175Y-42360D01*
X63234Y-42146D02*
X63401Y-42146D01*
X63139Y-42205D02*
X63317Y-42265D01*
X63317Y-42110D01*
X63151Y-41967D02*
X63151Y-41944D01*
X63163Y-41920D01*
X63175Y-41908D01*
X63198Y-41896D01*
X63246Y-41884D01*
X63305Y-41884D01*
X63353Y-41896D01*
X63377Y-41908D01*
X63389Y-41920D01*
X63401Y-41944D01*
X63401Y-41967D01*
X63389Y-41991D01*
X63377Y-42003D01*
X63353Y-42015D01*
X63305Y-42027D01*
X63246Y-42027D01*
X63198Y-42015D01*
X63175Y-42003D01*
X63163Y-41991D01*
X63151Y-41967D01*
X79189Y-41927D02*
X79177Y-41939D01*
X79141Y-41951D01*
X79117Y-41951D01*
X79082Y-41939D01*
X79058Y-41915D01*
X79046Y-41891D01*
X79034Y-41844D01*
X79034Y-41808D01*
X79046Y-41760D01*
X79058Y-41736D01*
X79082Y-41713D01*
X79117Y-41701D01*
X79141Y-41701D01*
X79177Y-41713D01*
X79189Y-41725D01*
X79284Y-41725D02*
X79296Y-41713D01*
X79320Y-41701D01*
X79379Y-41701D01*
X79403Y-41713D01*
X79415Y-41725D01*
X79427Y-41748D01*
X79427Y-41772D01*
X79415Y-41808D01*
X79272Y-41951D01*
X79427Y-41951D01*
X79546Y-41951D02*
X79594Y-41951D01*
X79617Y-41939D01*
X79629Y-41927D01*
X79653Y-41891D01*
X79665Y-41844D01*
X79665Y-41748D01*
X79653Y-41725D01*
X79641Y-41713D01*
X79617Y-41701D01*
X79570Y-41701D01*
X79546Y-41713D01*
X79534Y-41725D01*
X79522Y-41748D01*
X79522Y-41808D01*
X79534Y-41832D01*
X79546Y-41844D01*
X79570Y-41855D01*
X79617Y-41855D01*
X79641Y-41844D01*
X79653Y-41832D01*
X79665Y-41808D01*
X76977Y-54660D02*
X76989Y-54672D01*
X77001Y-54708D01*
X77001Y-54732D01*
X76989Y-54767D01*
X76965Y-54791D01*
X76941Y-54803D01*
X76894Y-54815D01*
X76858Y-54815D01*
X76810Y-54803D01*
X76786Y-54791D01*
X76763Y-54767D01*
X76751Y-54732D01*
X76751Y-54708D01*
X76763Y-54672D01*
X76775Y-54660D01*
X77001Y-54422D02*
X77001Y-54565D01*
X77001Y-54494D02*
X76751Y-54494D01*
X76786Y-54517D01*
X76810Y-54541D01*
X76822Y-54565D01*
X76775Y-54327D02*
X76763Y-54315D01*
X76751Y-54291D01*
X76751Y-54232D01*
X76763Y-54208D01*
X76775Y-54196D01*
X76798Y-54184D01*
X76822Y-54184D01*
X76858Y-54196D01*
X77001Y-54339D01*
X77001Y-54184D01*
X81101Y-42341D02*
X81101Y-42460D01*
X80851Y-42460D01*
X81101Y-42246D02*
X81101Y-42198D01*
X81089Y-42175D01*
X81077Y-42163D01*
X81041Y-42139D01*
X80994Y-42127D01*
X80898Y-42127D01*
X80875Y-42139D01*
X80863Y-42151D01*
X80851Y-42175D01*
X80851Y-42222D01*
X80863Y-42246D01*
X80875Y-42258D01*
X80898Y-42270D01*
X80958Y-42270D01*
X80982Y-42258D01*
X80994Y-42246D01*
X81005Y-42222D01*
X81005Y-42175D01*
X80994Y-42151D01*
X80982Y-42139D01*
X80958Y-42127D01*
X73908Y-54901D02*
X73789Y-54901D01*
X73789Y-54651D01*
X74110Y-54651D02*
X73991Y-54651D01*
X73979Y-54770D01*
X73991Y-54758D01*
X74015Y-54746D01*
X74075Y-54746D01*
X74098Y-54758D01*
X74110Y-54770D01*
X74122Y-54794D01*
X74122Y-54853D01*
X74110Y-54877D01*
X74098Y-54889D01*
X74075Y-54901D01*
X74015Y-54901D01*
X73991Y-54889D01*
X73979Y-54877D01*
X62827Y-47110D02*
X62839Y-47122D01*
X62851Y-47158D01*
X62851Y-47182D01*
X62839Y-47217D01*
X62815Y-47241D01*
X62791Y-47253D01*
X62744Y-47265D01*
X62708Y-47265D01*
X62660Y-47253D01*
X62636Y-47241D01*
X62613Y-47217D01*
X62601Y-47182D01*
X62601Y-47158D01*
X62613Y-47122D01*
X62625Y-47110D01*
X62851Y-46872D02*
X62851Y-47015D01*
X62851Y-46944D02*
X62601Y-46944D01*
X62636Y-46967D01*
X62660Y-46991D01*
X62672Y-47015D01*
X62601Y-46717D02*
X62601Y-46694D01*
X62613Y-46670D01*
X62625Y-46658D01*
X62648Y-46646D01*
X62696Y-46634D01*
X62755Y-46634D01*
X62803Y-46646D01*
X62827Y-46658D01*
X62839Y-46670D01*
X62851Y-46694D01*
X62851Y-46717D01*
X62839Y-46741D01*
X62827Y-46753D01*
X62803Y-46765D01*
X62755Y-46777D01*
X62696Y-46777D01*
X62648Y-46765D01*
X62625Y-46753D01*
X62613Y-46741D01*
X62601Y-46717D01*
X65789Y-47027D02*
X65777Y-47039D01*
X65741Y-47051D01*
X65717Y-47051D01*
X65682Y-47039D01*
X65658Y-47015D01*
X65646Y-46991D01*
X65634Y-46944D01*
X65634Y-46908D01*
X65646Y-46860D01*
X65658Y-46836D01*
X65682Y-46813D01*
X65717Y-46801D01*
X65741Y-46801D01*
X65777Y-46813D01*
X65789Y-46825D01*
X65884Y-46825D02*
X65896Y-46813D01*
X65920Y-46801D01*
X65979Y-46801D01*
X66003Y-46813D01*
X66015Y-46825D01*
X66027Y-46848D01*
X66027Y-46872D01*
X66015Y-46908D01*
X65872Y-47051D01*
X66027Y-47051D01*
X66110Y-46801D02*
X66265Y-46801D01*
X66182Y-46896D01*
X66217Y-46896D01*
X66241Y-46908D01*
X66253Y-46920D01*
X66265Y-46944D01*
X66265Y-47003D01*
X66253Y-47027D01*
X66241Y-47039D01*
X66217Y-47051D01*
X66146Y-47051D01*
X66122Y-47039D01*
X66110Y-47027D01*
X79401Y-58834D02*
X79151Y-58834D01*
X79151Y-58739D01*
X79163Y-58715D01*
X79175Y-58703D01*
X79198Y-58691D01*
X79234Y-58691D01*
X79258Y-58703D01*
X79270Y-58715D01*
X79282Y-58739D01*
X79282Y-58834D01*
X79151Y-58608D02*
X79151Y-58441D01*
X79401Y-58548D01*
X77451Y-40484D02*
X77201Y-40484D01*
X77201Y-40389D01*
X77213Y-40365D01*
X77225Y-40353D01*
X77248Y-40341D01*
X77284Y-40341D01*
X77308Y-40353D01*
X77320Y-40365D01*
X77332Y-40389D01*
X77332Y-40484D01*
X77451Y-40222D02*
X77451Y-40175D01*
X77439Y-40151D01*
X77427Y-40139D01*
X77391Y-40115D01*
X77344Y-40103D01*
X77248Y-40103D01*
X77225Y-40115D01*
X77213Y-40127D01*
X77201Y-40151D01*
X77201Y-40198D01*
X77213Y-40222D01*
X77225Y-40234D01*
X77248Y-40246D01*
X77308Y-40246D01*
X77332Y-40234D01*
X77344Y-40222D01*
X77355Y-40198D01*
X77355Y-40151D01*
X77344Y-40127D01*
X77332Y-40115D01*
X77308Y-40103D01*
X77201Y-39884D02*
X76951Y-39884D01*
X76951Y-39789D01*
X76963Y-39765D01*
X76975Y-39753D01*
X76998Y-39741D01*
X77034Y-39741D01*
X77058Y-39753D01*
X77070Y-39765D01*
X77082Y-39789D01*
X77082Y-39884D01*
X77058Y-39598D02*
X77046Y-39622D01*
X77034Y-39634D01*
X77010Y-39646D01*
X76998Y-39646D01*
X76975Y-39634D01*
X76963Y-39622D01*
X76951Y-39598D01*
X76951Y-39551D01*
X76963Y-39527D01*
X76975Y-39515D01*
X76998Y-39503D01*
X77010Y-39503D01*
X77034Y-39515D01*
X77046Y-39527D01*
X77058Y-39551D01*
X77058Y-39598D01*
X77070Y-39622D01*
X77082Y-39634D01*
X77105Y-39646D01*
X77153Y-39646D01*
X77177Y-39634D01*
X77189Y-39622D01*
X77201Y-39598D01*
X77201Y-39551D01*
X77189Y-39527D01*
X77177Y-39515D01*
X77153Y-39503D01*
X77105Y-39503D01*
X77082Y-39515D01*
X77070Y-39527D01*
X77058Y-39551D01*
X78801Y-58834D02*
X78551Y-58834D01*
X78551Y-58739D01*
X78563Y-58715D01*
X78575Y-58703D01*
X78598Y-58691D01*
X78634Y-58691D01*
X78658Y-58703D01*
X78670Y-58715D01*
X78682Y-58739D01*
X78682Y-58834D01*
X78551Y-58477D02*
X78551Y-58525D01*
X78563Y-58548D01*
X78575Y-58560D01*
X78610Y-58584D01*
X78658Y-58596D01*
X78753Y-58596D01*
X78777Y-58584D01*
X78789Y-58572D01*
X78801Y-58548D01*
X78801Y-58501D01*
X78789Y-58477D01*
X78777Y-58465D01*
X78753Y-58453D01*
X78694Y-58453D01*
X78670Y-58465D01*
X78658Y-58477D01*
X78646Y-58501D01*
X78646Y-58548D01*
X78658Y-58572D01*
X78670Y-58584D01*
X78694Y-58596D01*
X86341Y-40020D02*
X86258Y-40020D01*
X86258Y-40151D02*
X86258Y-39901D01*
X86377Y-39901D01*
X86472Y-40151D02*
X86472Y-39901D01*
X86532Y-39901D01*
X86567Y-39913D01*
X86591Y-39936D01*
X86603Y-39960D01*
X86615Y-40008D01*
X86615Y-40044D01*
X86603Y-40091D01*
X86591Y-40115D01*
X86567Y-40139D01*
X86532Y-40151D01*
X86472Y-40151D01*
X86853Y-40151D02*
X86710Y-40151D01*
X86782Y-40151D02*
X86782Y-39901D01*
X86758Y-39936D01*
X86734Y-39960D01*
X86710Y-39972D01*
X86341Y-58969D02*
X86258Y-58969D01*
X86258Y-59100D02*
X86258Y-58850D01*
X86377Y-58850D01*
X86472Y-59100D02*
X86472Y-58850D01*
X86532Y-58850D01*
X86567Y-58861D01*
X86591Y-58885D01*
X86603Y-58909D01*
X86615Y-58957D01*
X86615Y-58992D01*
X86603Y-59040D01*
X86591Y-59064D01*
X86567Y-59088D01*
X86532Y-59100D01*
X86472Y-59100D01*
X86698Y-58850D02*
X86853Y-58850D01*
X86770Y-58945D01*
X86805Y-58945D01*
X86829Y-58957D01*
X86841Y-58969D01*
X86853Y-58992D01*
X86853Y-59052D01*
X86841Y-59076D01*
X86829Y-59088D01*
X86805Y-59100D01*
X86734Y-59100D01*
X86710Y-59088D01*
X86698Y-59076D01*
X57741Y-58969D02*
X57658Y-58969D01*
X57658Y-59100D02*
X57658Y-58850D01*
X57777Y-58850D01*
X57872Y-59100D02*
X57872Y-58850D01*
X57932Y-58850D01*
X57967Y-58861D01*
X57991Y-58885D01*
X58003Y-58909D01*
X58015Y-58957D01*
X58015Y-58992D01*
X58003Y-59040D01*
X57991Y-59064D01*
X57967Y-59088D01*
X57932Y-59100D01*
X57872Y-59100D01*
X58110Y-58873D02*
X58122Y-58861D01*
X58146Y-58850D01*
X58205Y-58850D01*
X58229Y-58861D01*
X58241Y-58873D01*
X58253Y-58897D01*
X58253Y-58921D01*
X58241Y-58957D01*
X58098Y-59100D01*
X58253Y-59100D01*
X62851Y-39803D02*
X62601Y-39803D01*
X62601Y-39708D01*
X62613Y-39684D01*
X62625Y-39672D01*
X62648Y-39660D01*
X62684Y-39660D01*
X62708Y-39672D01*
X62720Y-39684D01*
X62732Y-39708D01*
X62732Y-39803D01*
X62851Y-39422D02*
X62851Y-39565D01*
X62851Y-39494D02*
X62601Y-39494D01*
X62636Y-39517D01*
X62660Y-39541D01*
X62672Y-39565D01*
X62601Y-39208D02*
X62601Y-39255D01*
X62613Y-39279D01*
X62625Y-39291D01*
X62660Y-39315D01*
X62708Y-39327D01*
X62803Y-39327D01*
X62827Y-39315D01*
X62839Y-39303D01*
X62851Y-39279D01*
X62851Y-39232D01*
X62839Y-39208D01*
X62827Y-39196D01*
X62803Y-39184D01*
X62744Y-39184D01*
X62720Y-39196D01*
X62708Y-39208D01*
X62696Y-39232D01*
X62696Y-39279D01*
X62708Y-39303D01*
X62720Y-39315D01*
X62744Y-39327D01*
X61959Y-56951D02*
X61959Y-57153D01*
X61971Y-57177D01*
X61983Y-57189D01*
X62007Y-57201D01*
X62054Y-57201D01*
X62078Y-57189D01*
X62090Y-57177D01*
X62102Y-57153D01*
X62102Y-56951D01*
X62197Y-56951D02*
X62364Y-56951D01*
X62257Y-57201D01*
G54D14*
X58320Y-55417D02*
X58306Y-55445D01*
X58306Y-55487D01*
X58320Y-55529D01*
X58348Y-55557D01*
X58376Y-55571D01*
X58432Y-55585D01*
X58474Y-55585D01*
X58531Y-55571D01*
X58559Y-55557D01*
X58587Y-55529D01*
X58601Y-55487D01*
X58601Y-55459D01*
X58587Y-55417D01*
X58573Y-55403D01*
X58474Y-55403D01*
X58474Y-55459D01*
X58601Y-55276D02*
X58306Y-55276D01*
X58306Y-55164D01*
X58320Y-55135D01*
X58334Y-55121D01*
X58362Y-55107D01*
X58404Y-55107D01*
X58432Y-55121D01*
X58446Y-55135D01*
X58460Y-55164D01*
X58460Y-55276D01*
X58587Y-54995D02*
X58601Y-54953D01*
X58601Y-54882D01*
X58587Y-54854D01*
X58573Y-54840D01*
X58545Y-54826D01*
X58517Y-54826D01*
X58488Y-54840D01*
X58474Y-54854D01*
X58460Y-54882D01*
X58446Y-54939D01*
X58432Y-54967D01*
X58418Y-54981D01*
X58390Y-54995D01*
X58362Y-54995D01*
X58334Y-54981D01*
X58320Y-54967D01*
X58306Y-54939D01*
X58306Y-54868D01*
X58320Y-54826D01*
X58517Y-54489D02*
X58517Y-54348D01*
X58601Y-54517D02*
X58306Y-54418D01*
X58601Y-54320D01*
X58601Y-54221D02*
X58306Y-54221D01*
X58601Y-54053D01*
X58306Y-54053D01*
X58306Y-53954D02*
X58306Y-53786D01*
X58601Y-53870D02*
X58306Y-53870D01*
G54D12*
X65901Y-49035D02*
X65651Y-49035D01*
X65901Y-48892D01*
X65651Y-48892D01*
X65651Y-48809D02*
X65651Y-48666D01*
X65901Y-48738D02*
X65651Y-48738D01*
X65901Y-48452D02*
X65901Y-48595D01*
X65901Y-48523D02*
X65651Y-48523D01*
X65686Y-48547D01*
X65710Y-48571D01*
X65722Y-48595D01*
X57965Y-47851D02*
X57965Y-47601D01*
X58060Y-47601D01*
X58084Y-47613D01*
X58096Y-47625D01*
X58108Y-47648D01*
X58108Y-47684D01*
X58096Y-47708D01*
X58084Y-47720D01*
X58060Y-47732D01*
X57965Y-47732D01*
X58191Y-47601D02*
X58346Y-47601D01*
X58263Y-47696D01*
X58298Y-47696D01*
X58322Y-47708D01*
X58334Y-47720D01*
X58346Y-47744D01*
X58346Y-47803D01*
X58334Y-47827D01*
X58322Y-47839D01*
X58298Y-47851D01*
X58227Y-47851D01*
X58203Y-47839D01*
X58191Y-47827D01*
X58565Y-43301D02*
X58565Y-43051D01*
X58660Y-43051D01*
X58684Y-43063D01*
X58696Y-43075D01*
X58708Y-43098D01*
X58708Y-43134D01*
X58696Y-43158D01*
X58684Y-43170D01*
X58660Y-43182D01*
X58565Y-43182D01*
X58922Y-43134D02*
X58922Y-43301D01*
X58863Y-43039D02*
X58803Y-43217D01*
X58958Y-43217D01*
X79939Y-43501D02*
X79820Y-43501D01*
X79820Y-43251D01*
X80153Y-43501D02*
X80010Y-43501D01*
X80082Y-43501D02*
X80082Y-43251D01*
X80058Y-43286D01*
X80034Y-43310D01*
X80010Y-43322D01*
X80308Y-43251D02*
X80332Y-43251D01*
X80355Y-43263D01*
X80367Y-43275D01*
X80379Y-43298D01*
X80391Y-43346D01*
X80391Y-43405D01*
X80379Y-43453D01*
X80367Y-43477D01*
X80355Y-43489D01*
X80332Y-43501D01*
X80308Y-43501D01*
X80284Y-43489D01*
X80272Y-43477D01*
X80260Y-43453D01*
X80248Y-43405D01*
X80248Y-43346D01*
X80260Y-43298D01*
X80272Y-43275D01*
X80284Y-43263D01*
X80308Y-43251D01*
X72301Y-49752D02*
X72551Y-49585D01*
X72301Y-49585D02*
X72551Y-49752D01*
X72325Y-49502D02*
X72313Y-49490D01*
X72301Y-49466D01*
X72301Y-49407D01*
X72313Y-49383D01*
X72325Y-49371D01*
X72348Y-49359D01*
X72372Y-49359D01*
X72408Y-49371D01*
X72551Y-49514D01*
X72551Y-49359D01*
X61359Y-44801D02*
X61359Y-45003D01*
X61371Y-45027D01*
X61383Y-45039D01*
X61407Y-45051D01*
X61454Y-45051D01*
X61478Y-45039D01*
X61490Y-45027D01*
X61502Y-45003D01*
X61502Y-44801D01*
X61609Y-44825D02*
X61621Y-44813D01*
X61645Y-44801D01*
X61704Y-44801D01*
X61728Y-44813D01*
X61740Y-44825D01*
X61752Y-44848D01*
X61752Y-44872D01*
X61740Y-44908D01*
X61597Y-45051D01*
X61752Y-45051D01*
X61576Y-46975D02*
X61552Y-46963D01*
X61528Y-46939D01*
X61492Y-46903D01*
X61469Y-46891D01*
X61445Y-46891D01*
X61457Y-46951D02*
X61433Y-46939D01*
X61409Y-46915D01*
X61397Y-46867D01*
X61397Y-46784D01*
X61409Y-46736D01*
X61433Y-46713D01*
X61457Y-46701D01*
X61504Y-46701D01*
X61528Y-46713D01*
X61552Y-46736D01*
X61564Y-46784D01*
X61564Y-46867D01*
X61552Y-46915D01*
X61528Y-46939D01*
X61504Y-46951D01*
X61457Y-46951D01*
X61647Y-46701D02*
X61802Y-46701D01*
X61719Y-46796D01*
X61754Y-46796D01*
X61778Y-46808D01*
X61790Y-46820D01*
X61802Y-46844D01*
X61802Y-46903D01*
X61790Y-46927D01*
X61778Y-46939D01*
X61754Y-46951D01*
X61683Y-46951D01*
X61659Y-46939D01*
X61647Y-46927D01*
X61626Y-42875D02*
X61602Y-42863D01*
X61578Y-42839D01*
X61542Y-42803D01*
X61519Y-42791D01*
X61495Y-42791D01*
X61507Y-42851D02*
X61483Y-42839D01*
X61459Y-42815D01*
X61447Y-42767D01*
X61447Y-42684D01*
X61459Y-42636D01*
X61483Y-42613D01*
X61507Y-42601D01*
X61554Y-42601D01*
X61578Y-42613D01*
X61602Y-42636D01*
X61614Y-42684D01*
X61614Y-42767D01*
X61602Y-42815D01*
X61578Y-42839D01*
X61554Y-42851D01*
X61507Y-42851D01*
X61709Y-42625D02*
X61721Y-42613D01*
X61745Y-42601D01*
X61804Y-42601D01*
X61828Y-42613D01*
X61840Y-42625D01*
X61852Y-42648D01*
X61852Y-42672D01*
X61840Y-42708D01*
X61697Y-42851D01*
X61852Y-42851D01*
X59389Y-57777D02*
X59377Y-57789D01*
X59341Y-57801D01*
X59317Y-57801D01*
X59282Y-57789D01*
X59258Y-57765D01*
X59246Y-57741D01*
X59234Y-57694D01*
X59234Y-57658D01*
X59246Y-57610D01*
X59258Y-57586D01*
X59282Y-57563D01*
X59317Y-57551D01*
X59341Y-57551D01*
X59377Y-57563D01*
X59389Y-57575D01*
X59627Y-57801D02*
X59484Y-57801D01*
X59555Y-57801D02*
X59555Y-57551D01*
X59532Y-57586D01*
X59508Y-57610D01*
X59484Y-57622D01*
X59853Y-57551D02*
X59734Y-57551D01*
X59722Y-57670D01*
X59734Y-57658D01*
X59758Y-57646D01*
X59817Y-57646D01*
X59841Y-57658D01*
X59853Y-57670D01*
X59865Y-57694D01*
X59865Y-57753D01*
X59853Y-57777D01*
X59841Y-57789D01*
X59817Y-57801D01*
X59758Y-57801D01*
X59734Y-57789D01*
X59722Y-57777D01*
X78709Y-53651D02*
X78709Y-53853D01*
X78721Y-53877D01*
X78733Y-53889D01*
X78757Y-53901D01*
X78804Y-53901D01*
X78828Y-53889D01*
X78840Y-53877D01*
X78852Y-53853D01*
X78852Y-53651D01*
X79102Y-53901D02*
X78959Y-53901D01*
X79030Y-53901D02*
X79030Y-53651D01*
X79007Y-53686D01*
X78983Y-53710D01*
X78959Y-53722D01*
X62258Y-44651D02*
X62175Y-44532D01*
X62115Y-44651D02*
X62115Y-44401D01*
X62210Y-44401D01*
X62234Y-44413D01*
X62246Y-44425D01*
X62258Y-44448D01*
X62258Y-44484D01*
X62246Y-44508D01*
X62234Y-44520D01*
X62210Y-44532D01*
X62115Y-44532D01*
X62341Y-44401D02*
X62508Y-44401D01*
X62401Y-44651D01*
X77701Y-56260D02*
X77582Y-56344D01*
X77701Y-56403D02*
X77451Y-56403D01*
X77451Y-56308D01*
X77463Y-56284D01*
X77475Y-56272D01*
X77498Y-56260D01*
X77534Y-56260D01*
X77558Y-56272D01*
X77570Y-56284D01*
X77582Y-56308D01*
X77582Y-56403D01*
X77475Y-56165D02*
X77463Y-56153D01*
X77451Y-56129D01*
X77451Y-56070D01*
X77463Y-56046D01*
X77475Y-56034D01*
X77498Y-56022D01*
X77522Y-56022D01*
X77558Y-56034D01*
X77701Y-56177D01*
X77701Y-56022D01*
X77534Y-55808D02*
X77701Y-55808D01*
X77439Y-55867D02*
X77617Y-55927D01*
X77617Y-55772D01*
X64439Y-50701D02*
X64355Y-50582D01*
X64296Y-50701D02*
X64296Y-50451D01*
X64391Y-50451D01*
X64415Y-50463D01*
X64427Y-50475D01*
X64439Y-50498D01*
X64439Y-50534D01*
X64427Y-50558D01*
X64415Y-50570D01*
X64391Y-50582D01*
X64296Y-50582D01*
X64677Y-50701D02*
X64534Y-50701D01*
X64605Y-50701D02*
X64605Y-50451D01*
X64582Y-50486D01*
X64558Y-50510D01*
X64534Y-50522D01*
X64891Y-50534D02*
X64891Y-50701D01*
X64832Y-50439D02*
X64772Y-50617D01*
X64927Y-50617D01*
X72158Y-53101D02*
X72075Y-52982D01*
X72015Y-53101D02*
X72015Y-52851D01*
X72110Y-52851D01*
X72134Y-52863D01*
X72146Y-52875D01*
X72158Y-52898D01*
X72158Y-52934D01*
X72146Y-52958D01*
X72134Y-52970D01*
X72110Y-52982D01*
X72015Y-52982D01*
X72241Y-52851D02*
X72396Y-52851D01*
X72313Y-52946D01*
X72348Y-52946D01*
X72372Y-52958D01*
X72384Y-52970D01*
X72396Y-52994D01*
X72396Y-53053D01*
X72384Y-53077D01*
X72372Y-53089D01*
X72348Y-53101D01*
X72277Y-53101D01*
X72253Y-53089D01*
X72241Y-53077D01*
X64439Y-50251D02*
X64355Y-50132D01*
X64296Y-50251D02*
X64296Y-50001D01*
X64391Y-50001D01*
X64415Y-50013D01*
X64427Y-50025D01*
X64439Y-50048D01*
X64439Y-50084D01*
X64427Y-50108D01*
X64415Y-50120D01*
X64391Y-50132D01*
X64296Y-50132D01*
X64677Y-50251D02*
X64534Y-50251D01*
X64605Y-50251D02*
X64605Y-50001D01*
X64582Y-50036D01*
X64558Y-50060D01*
X64534Y-50072D01*
X64903Y-50001D02*
X64784Y-50001D01*
X64772Y-50120D01*
X64784Y-50108D01*
X64808Y-50096D01*
X64867Y-50096D01*
X64891Y-50108D01*
X64903Y-50120D01*
X64915Y-50144D01*
X64915Y-50203D01*
X64903Y-50227D01*
X64891Y-50239D01*
X64867Y-50251D01*
X64808Y-50251D01*
X64784Y-50239D01*
X64772Y-50227D01*
X72608Y-55351D02*
X72525Y-55232D01*
X72465Y-55351D02*
X72465Y-55101D01*
X72560Y-55101D01*
X72584Y-55113D01*
X72596Y-55125D01*
X72608Y-55148D01*
X72608Y-55184D01*
X72596Y-55208D01*
X72584Y-55220D01*
X72560Y-55232D01*
X72465Y-55232D01*
X72822Y-55184D02*
X72822Y-55351D01*
X72763Y-55089D02*
X72703Y-55267D01*
X72858Y-55267D01*
X59958Y-58251D02*
X59875Y-58132D01*
X59815Y-58251D02*
X59815Y-58001D01*
X59910Y-58001D01*
X59934Y-58013D01*
X59946Y-58025D01*
X59958Y-58048D01*
X59958Y-58084D01*
X59946Y-58108D01*
X59934Y-58120D01*
X59910Y-58132D01*
X59815Y-58132D01*
X60053Y-58025D02*
X60065Y-58013D01*
X60089Y-58001D01*
X60148Y-58001D01*
X60172Y-58013D01*
X60184Y-58025D01*
X60196Y-58048D01*
X60196Y-58072D01*
X60184Y-58108D01*
X60041Y-58251D01*
X60196Y-58251D01*
X62901Y-41491D02*
X62782Y-41575D01*
X62901Y-41634D02*
X62651Y-41634D01*
X62651Y-41539D01*
X62663Y-41515D01*
X62675Y-41503D01*
X62698Y-41491D01*
X62734Y-41491D01*
X62758Y-41503D01*
X62770Y-41515D01*
X62782Y-41539D01*
X62782Y-41634D01*
X62651Y-41277D02*
X62651Y-41325D01*
X62663Y-41348D01*
X62675Y-41360D01*
X62710Y-41384D01*
X62758Y-41396D01*
X62853Y-41396D01*
X62877Y-41384D01*
X62889Y-41372D01*
X62901Y-41348D01*
X62901Y-41301D01*
X62889Y-41277D01*
X62877Y-41265D01*
X62853Y-41253D01*
X62794Y-41253D01*
X62770Y-41265D01*
X62758Y-41277D01*
X62746Y-41301D01*
X62746Y-41348D01*
X62758Y-41372D01*
X62770Y-41384D01*
X62794Y-41396D01*
X59958Y-59651D02*
X59875Y-59532D01*
X59815Y-59651D02*
X59815Y-59401D01*
X59910Y-59401D01*
X59934Y-59413D01*
X59946Y-59425D01*
X59958Y-59448D01*
X59958Y-59484D01*
X59946Y-59508D01*
X59934Y-59520D01*
X59910Y-59532D01*
X59815Y-59532D01*
X60196Y-59651D02*
X60053Y-59651D01*
X60125Y-59651D02*
X60125Y-59401D01*
X60101Y-59436D01*
X60077Y-59460D01*
X60053Y-59472D01*
X78751Y-45741D02*
X78632Y-45825D01*
X78751Y-45884D02*
X78501Y-45884D01*
X78501Y-45789D01*
X78513Y-45765D01*
X78525Y-45753D01*
X78548Y-45741D01*
X78584Y-45741D01*
X78608Y-45753D01*
X78620Y-45765D01*
X78632Y-45789D01*
X78632Y-45884D01*
X78501Y-45515D02*
X78501Y-45634D01*
X78620Y-45646D01*
X78608Y-45634D01*
X78596Y-45610D01*
X78596Y-45551D01*
X78608Y-45527D01*
X78620Y-45515D01*
X78644Y-45503D01*
X78703Y-45503D01*
X78727Y-45515D01*
X78739Y-45527D01*
X78751Y-45551D01*
X78751Y-45610D01*
X78739Y-45634D01*
X78727Y-45646D01*
X81251Y-47360D02*
X81132Y-47444D01*
X81251Y-47503D02*
X81001Y-47503D01*
X81001Y-47408D01*
X81013Y-47384D01*
X81025Y-47372D01*
X81048Y-47360D01*
X81084Y-47360D01*
X81108Y-47372D01*
X81120Y-47384D01*
X81132Y-47408D01*
X81132Y-47503D01*
X81251Y-47122D02*
X81251Y-47265D01*
X81251Y-47194D02*
X81001Y-47194D01*
X81036Y-47217D01*
X81060Y-47241D01*
X81072Y-47265D01*
X81108Y-46979D02*
X81096Y-47003D01*
X81084Y-47015D01*
X81060Y-47027D01*
X81048Y-47027D01*
X81025Y-47015D01*
X81013Y-47003D01*
X81001Y-46979D01*
X81001Y-46932D01*
X81013Y-46908D01*
X81025Y-46896D01*
X81048Y-46884D01*
X81060Y-46884D01*
X81084Y-46896D01*
X81096Y-46908D01*
X81108Y-46932D01*
X81108Y-46979D01*
X81120Y-47003D01*
X81132Y-47015D01*
X81155Y-47027D01*
X81203Y-47027D01*
X81227Y-47015D01*
X81239Y-47003D01*
X81251Y-46979D01*
X81251Y-46932D01*
X81239Y-46908D01*
X81227Y-46896D01*
X81203Y-46884D01*
X81155Y-46884D01*
X81132Y-46896D01*
X81120Y-46908D01*
X81108Y-46932D01*
X79001Y-57160D02*
X78882Y-57244D01*
X79001Y-57303D02*
X78751Y-57303D01*
X78751Y-57208D01*
X78763Y-57184D01*
X78775Y-57172D01*
X78798Y-57160D01*
X78834Y-57160D01*
X78858Y-57172D01*
X78870Y-57184D01*
X78882Y-57208D01*
X78882Y-57303D01*
X78775Y-57065D02*
X78763Y-57053D01*
X78751Y-57029D01*
X78751Y-56970D01*
X78763Y-56946D01*
X78775Y-56934D01*
X78798Y-56922D01*
X78822Y-56922D01*
X78858Y-56934D01*
X79001Y-57077D01*
X79001Y-56922D01*
X78751Y-56767D02*
X78751Y-56744D01*
X78763Y-56720D01*
X78775Y-56708D01*
X78798Y-56696D01*
X78846Y-56684D01*
X78905Y-56684D01*
X78953Y-56696D01*
X78977Y-56708D01*
X78989Y-56720D01*
X79001Y-56744D01*
X79001Y-56767D01*
X78989Y-56791D01*
X78977Y-56803D01*
X78953Y-56815D01*
X78905Y-56827D01*
X78846Y-56827D01*
X78798Y-56815D01*
X78775Y-56803D01*
X78763Y-56791D01*
X78751Y-56767D01*
X77701Y-57160D02*
X77582Y-57244D01*
X77701Y-57303D02*
X77451Y-57303D01*
X77451Y-57208D01*
X77463Y-57184D01*
X77475Y-57172D01*
X77498Y-57160D01*
X77534Y-57160D01*
X77558Y-57172D01*
X77570Y-57184D01*
X77582Y-57208D01*
X77582Y-57303D01*
X77475Y-57065D02*
X77463Y-57053D01*
X77451Y-57029D01*
X77451Y-56970D01*
X77463Y-56946D01*
X77475Y-56934D01*
X77498Y-56922D01*
X77522Y-56922D01*
X77558Y-56934D01*
X77701Y-57077D01*
X77701Y-56922D01*
X77701Y-56684D02*
X77701Y-56827D01*
X77701Y-56755D02*
X77451Y-56755D01*
X77486Y-56779D01*
X77510Y-56803D01*
X77522Y-56827D01*
X79601Y-56210D02*
X79482Y-56294D01*
X79601Y-56353D02*
X79351Y-56353D01*
X79351Y-56258D01*
X79363Y-56234D01*
X79375Y-56222D01*
X79398Y-56210D01*
X79434Y-56210D01*
X79458Y-56222D01*
X79470Y-56234D01*
X79482Y-56258D01*
X79482Y-56353D01*
X79351Y-56127D02*
X79351Y-55972D01*
X79446Y-56055D01*
X79446Y-56020D01*
X79458Y-55996D01*
X79470Y-55984D01*
X79494Y-55972D01*
X79553Y-55972D01*
X79577Y-55984D01*
X79589Y-55996D01*
X79601Y-56020D01*
X79601Y-56091D01*
X79589Y-56115D01*
X79577Y-56127D01*
X79351Y-55817D02*
X79351Y-55794D01*
X79363Y-55770D01*
X79375Y-55758D01*
X79398Y-55746D01*
X79446Y-55734D01*
X79505Y-55734D01*
X79553Y-55746D01*
X79577Y-55758D01*
X79589Y-55770D01*
X79601Y-55794D01*
X79601Y-55817D01*
X79589Y-55841D01*
X79577Y-55853D01*
X79553Y-55865D01*
X79505Y-55877D01*
X79446Y-55877D01*
X79398Y-55865D01*
X79375Y-55853D01*
X79363Y-55841D01*
X79351Y-55817D01*
X80651Y-56210D02*
X80532Y-56294D01*
X80651Y-56353D02*
X80401Y-56353D01*
X80401Y-56258D01*
X80413Y-56234D01*
X80425Y-56222D01*
X80448Y-56210D01*
X80484Y-56210D01*
X80508Y-56222D01*
X80520Y-56234D01*
X80532Y-56258D01*
X80532Y-56353D01*
X80425Y-56115D02*
X80413Y-56103D01*
X80401Y-56079D01*
X80401Y-56020D01*
X80413Y-55996D01*
X80425Y-55984D01*
X80448Y-55972D01*
X80472Y-55972D01*
X80508Y-55984D01*
X80651Y-56127D01*
X80651Y-55972D01*
X80651Y-55853D02*
X80651Y-55805D01*
X80639Y-55782D01*
X80627Y-55770D01*
X80591Y-55746D01*
X80544Y-55734D01*
X80448Y-55734D01*
X80425Y-55746D01*
X80413Y-55758D01*
X80401Y-55782D01*
X80401Y-55829D01*
X80413Y-55853D01*
X80425Y-55865D01*
X80448Y-55877D01*
X80508Y-55877D01*
X80532Y-55865D01*
X80544Y-55853D01*
X80555Y-55829D01*
X80555Y-55782D01*
X80544Y-55758D01*
X80532Y-55746D01*
X80508Y-55734D01*
X82601Y-56210D02*
X82482Y-56294D01*
X82601Y-56353D02*
X82351Y-56353D01*
X82351Y-56258D01*
X82363Y-56234D01*
X82375Y-56222D01*
X82398Y-56210D01*
X82434Y-56210D01*
X82458Y-56222D01*
X82470Y-56234D01*
X82482Y-56258D01*
X82482Y-56353D01*
X82375Y-56115D02*
X82363Y-56103D01*
X82351Y-56079D01*
X82351Y-56020D01*
X82363Y-55996D01*
X82375Y-55984D01*
X82398Y-55972D01*
X82422Y-55972D01*
X82458Y-55984D01*
X82601Y-56127D01*
X82601Y-55972D01*
X82351Y-55889D02*
X82351Y-55722D01*
X82601Y-55829D01*
X83601Y-56210D02*
X83482Y-56294D01*
X83601Y-56353D02*
X83351Y-56353D01*
X83351Y-56258D01*
X83363Y-56234D01*
X83375Y-56222D01*
X83398Y-56210D01*
X83434Y-56210D01*
X83458Y-56222D01*
X83470Y-56234D01*
X83482Y-56258D01*
X83482Y-56353D01*
X83375Y-56115D02*
X83363Y-56103D01*
X83351Y-56079D01*
X83351Y-56020D01*
X83363Y-55996D01*
X83375Y-55984D01*
X83398Y-55972D01*
X83422Y-55972D01*
X83458Y-55984D01*
X83601Y-56127D01*
X83601Y-55972D01*
X83351Y-55758D02*
X83351Y-55805D01*
X83363Y-55829D01*
X83375Y-55841D01*
X83410Y-55865D01*
X83458Y-55877D01*
X83553Y-55877D01*
X83577Y-55865D01*
X83589Y-55853D01*
X83601Y-55829D01*
X83601Y-55782D01*
X83589Y-55758D01*
X83577Y-55746D01*
X83553Y-55734D01*
X83494Y-55734D01*
X83470Y-55746D01*
X83458Y-55758D01*
X83446Y-55782D01*
X83446Y-55829D01*
X83458Y-55853D01*
X83470Y-55865D01*
X83494Y-55877D01*
X85601Y-56910D02*
X85482Y-56994D01*
X85601Y-57053D02*
X85351Y-57053D01*
X85351Y-56958D01*
X85363Y-56934D01*
X85375Y-56922D01*
X85398Y-56910D01*
X85434Y-56910D01*
X85458Y-56922D01*
X85470Y-56934D01*
X85482Y-56958D01*
X85482Y-57053D01*
X85375Y-56815D02*
X85363Y-56803D01*
X85351Y-56779D01*
X85351Y-56720D01*
X85363Y-56696D01*
X85375Y-56684D01*
X85398Y-56672D01*
X85422Y-56672D01*
X85458Y-56684D01*
X85601Y-56827D01*
X85601Y-56672D01*
X85351Y-56446D02*
X85351Y-56565D01*
X85470Y-56577D01*
X85458Y-56565D01*
X85446Y-56541D01*
X85446Y-56482D01*
X85458Y-56458D01*
X85470Y-56446D01*
X85494Y-56434D01*
X85553Y-56434D01*
X85577Y-56446D01*
X85589Y-56458D01*
X85601Y-56482D01*
X85601Y-56541D01*
X85589Y-56565D01*
X85577Y-56577D01*
X60039Y-48401D02*
X59955Y-48282D01*
X59896Y-48401D02*
X59896Y-48151D01*
X59991Y-48151D01*
X60015Y-48163D01*
X60027Y-48175D01*
X60039Y-48198D01*
X60039Y-48234D01*
X60027Y-48258D01*
X60015Y-48270D01*
X59991Y-48282D01*
X59896Y-48282D01*
X60277Y-48401D02*
X60134Y-48401D01*
X60205Y-48401D02*
X60205Y-48151D01*
X60182Y-48186D01*
X60158Y-48210D01*
X60134Y-48222D01*
X60515Y-48401D02*
X60372Y-48401D01*
X60444Y-48401D02*
X60444Y-48151D01*
X60420Y-48186D01*
X60396Y-48210D01*
X60372Y-48222D01*
X77409Y-42201D02*
X77409Y-42403D01*
X77421Y-42427D01*
X77433Y-42439D01*
X77457Y-42451D01*
X77504Y-42451D01*
X77528Y-42439D01*
X77540Y-42427D01*
X77552Y-42403D01*
X77552Y-42201D01*
X77778Y-42284D02*
X77778Y-42451D01*
X77719Y-42189D02*
X77659Y-42367D01*
X77814Y-42367D01*
X69259Y-44051D02*
X69259Y-44253D01*
X69271Y-44277D01*
X69283Y-44289D01*
X69307Y-44301D01*
X69354Y-44301D01*
X69378Y-44289D01*
X69390Y-44277D01*
X69402Y-44253D01*
X69402Y-44051D01*
X69628Y-44051D02*
X69580Y-44051D01*
X69557Y-44063D01*
X69545Y-44075D01*
X69521Y-44110D01*
X69509Y-44158D01*
X69509Y-44253D01*
X69521Y-44277D01*
X69533Y-44289D01*
X69557Y-44301D01*
X69604Y-44301D01*
X69628Y-44289D01*
X69640Y-44277D01*
X69652Y-44253D01*
X69652Y-44194D01*
X69640Y-44170D01*
X69628Y-44158D01*
X69604Y-44146D01*
X69557Y-44146D01*
X69533Y-44158D01*
X69521Y-44170D01*
X69509Y-44194D01*
%LPC*%
G54D17*
X84252Y-41702D03*
X86347Y-41702D03*
X86347Y-43797D03*
G54D18*
X85300Y-42750D03*
G54D19*
X85300Y-43962D03*
X85300Y-41537D03*
G54D17*
X84252Y-43797D03*
G54D20*
X85000Y-46000D03*
X64200Y-58200D03*
X61450Y-41000D03*
X85000Y-55000D03*
G54D10*
G36*
X65194Y-45505D02*
X64893Y-45289D01*
X64893Y-44110D01*
X65194Y-43894D01*
X65194Y-45505D01*
X65194Y-45505D01*
G37*
G36*
X66405Y-43894D02*
X66706Y-44110D01*
X66706Y-45289D01*
X66405Y-45505D01*
X66405Y-43894D01*
X66405Y-43894D01*
G37*
G54D21*
X65329Y-44086D03*
X65329Y-45313D03*
X66270Y-45313D03*
X66270Y-44086D03*
G54D10*
G36*
X64929Y-44184D02*
X65217Y-43896D01*
X65560Y-44239D01*
X65272Y-44527D01*
X64929Y-44184D01*
X64929Y-44184D01*
G37*
G54D22*
X65105Y-44700D03*
G54D10*
G36*
X65217Y-45503D02*
X64929Y-45215D01*
X65272Y-44872D01*
X65560Y-45160D01*
X65217Y-45503D01*
X65217Y-45503D01*
G37*
G36*
X66327Y-44527D02*
X66039Y-44239D01*
X66382Y-43896D01*
X66670Y-44184D01*
X66327Y-44527D01*
X66327Y-44527D01*
G37*
G36*
X66039Y-45160D02*
X66327Y-44872D01*
X66670Y-45215D01*
X66382Y-45503D01*
X66039Y-45160D01*
X66039Y-45160D01*
G37*
G54D22*
X66494Y-44700D03*
G54D23*
X58704Y-59100D03*
X59295Y-59100D03*
X58704Y-58550D03*
X59295Y-58550D03*
G54D24*
X64250Y-41575D03*
X64250Y-42324D03*
G54D25*
X66475Y-41400D03*
X67224Y-41400D03*
G54D26*
X76195Y-44070D03*
G54D27*
X76323Y-43600D03*
X76323Y-43129D03*
X75476Y-43129D03*
X75476Y-43600D03*
X75476Y-44070D03*
G54D28*
X75711Y-55750D03*
X74688Y-55750D03*
G54D29*
X63544Y-43704D03*
X63800Y-43704D03*
X64055Y-43704D03*
X64055Y-42995D03*
X63800Y-42995D03*
X63544Y-42995D03*
G54D30*
X76688Y-47266D03*
X76688Y-47522D03*
X76688Y-47777D03*
X76688Y-48033D03*
X79011Y-48033D03*
X79011Y-47777D03*
X79011Y-47522D03*
X79011Y-47266D03*
G54D31*
X82150Y-48787D03*
X81650Y-48787D03*
X81150Y-48787D03*
X80650Y-48787D03*
X80650Y-50912D03*
X81150Y-50912D03*
X81650Y-50912D03*
X82150Y-50912D03*
G54D32*
X64424Y-48534D03*
X64050Y-48534D03*
X63675Y-48534D03*
X63675Y-49565D03*
X64050Y-49565D03*
X64424Y-49565D03*
X64925Y-42665D03*
X65300Y-42665D03*
X65674Y-42665D03*
X65674Y-41634D03*
X65300Y-41634D03*
X64925Y-41634D03*
G54D33*
X59543Y-48674D03*
X59543Y-47925D03*
X58756Y-48300D03*
G54D34*
X77050Y-44094D03*
X77050Y-44601D03*
X82950Y-43755D03*
X82950Y-43248D03*
X81500Y-43755D03*
X81500Y-43248D03*
G54D35*
X77405Y-43600D03*
X76898Y-43600D03*
G54D34*
X83400Y-42744D03*
X83400Y-43251D03*
G54D35*
X82455Y-43800D03*
X81948Y-43800D03*
G54D36*
X78935Y-51900D03*
X79564Y-51900D03*
G54D37*
X73544Y-52254D03*
X73800Y-52254D03*
X74055Y-52254D03*
X74055Y-51545D03*
X73800Y-51545D03*
X73544Y-51545D03*
G54D35*
X63794Y-47750D03*
X64301Y-47750D03*
G54D34*
X82150Y-51594D03*
X82150Y-52101D03*
G54D38*
X63298Y-45750D03*
X64401Y-45750D03*
G54D36*
X83000Y-56735D03*
X83000Y-57364D03*
X85000Y-56735D03*
X85000Y-57364D03*
X82000Y-56735D03*
X82000Y-57364D03*
X81000Y-56735D03*
X81000Y-57364D03*
X80000Y-56735D03*
X80000Y-57364D03*
X78550Y-55635D03*
X78550Y-56264D03*
X84000Y-56735D03*
X84000Y-57364D03*
X77650Y-45564D03*
X77650Y-44935D03*
X79650Y-45564D03*
X79650Y-44935D03*
X74950Y-54235D03*
X74950Y-54864D03*
X79235Y-50800D03*
X79864Y-50800D03*
X75950Y-49564D03*
X75950Y-48935D03*
X67264Y-42050D03*
X66635Y-42050D03*
X61050Y-57235D03*
X61050Y-57864D03*
G54D39*
X57914Y-42614D03*
X57914Y-39485D03*
X59685Y-42614D03*
X59685Y-39485D03*
G54D35*
X80505Y-42750D03*
X79998Y-42750D03*
X81055Y-43800D03*
X80548Y-43800D03*
G54D34*
X79000Y-46805D03*
X79000Y-46298D03*
G54D35*
X66005Y-52800D03*
X65498Y-52800D03*
G54D34*
X64900Y-49605D03*
X64900Y-49098D03*
X78200Y-45405D03*
X78200Y-44898D03*
G54D35*
X71744Y-54800D03*
X72251Y-54800D03*
G54D34*
X74150Y-55905D03*
X74150Y-55398D03*
X76250Y-55905D03*
X76250Y-55398D03*
G54D35*
X73044Y-50450D03*
X73551Y-50450D03*
X73855Y-48650D03*
X73348Y-48650D03*
X73205Y-53450D03*
X72698Y-53450D03*
G54D34*
X73700Y-53344D03*
X73700Y-53851D03*
G54D35*
X73205Y-53900D03*
X72698Y-53900D03*
G54D34*
X75500Y-54194D03*
X75500Y-54701D03*
G54D35*
X78894Y-51350D03*
X79401Y-51350D03*
G54D34*
X76500Y-49605D03*
X76500Y-49098D03*
G54D35*
X73205Y-54350D03*
X72698Y-54350D03*
X69944Y-42300D03*
X70451Y-42300D03*
G54D34*
X68550Y-44294D03*
X68550Y-44801D03*
X79100Y-45405D03*
X79100Y-44898D03*
X63650Y-41294D03*
X63650Y-41801D03*
G54D35*
X79605Y-42250D03*
X79098Y-42250D03*
G54D34*
X76450Y-54244D03*
X76450Y-54751D03*
X81000Y-43305D03*
X81000Y-42798D03*
G54D35*
X73694Y-54350D03*
X74201Y-54350D03*
G54D38*
X63298Y-46950D03*
X64401Y-46950D03*
X66501Y-46150D03*
X65398Y-46150D03*
G54D40*
X80000Y-59000D03*
G54D41*
X81000Y-59000D03*
X82000Y-59000D03*
X83000Y-59000D03*
X84000Y-59000D03*
X85000Y-59000D03*
G54D40*
X85000Y-40000D03*
G54D41*
X84000Y-40000D03*
X83000Y-40000D03*
X82000Y-40000D03*
X81000Y-40000D03*
X80000Y-40000D03*
X79000Y-40000D03*
X78000Y-40000D03*
G54D40*
X76400Y-40000D03*
G54D41*
X75400Y-40000D03*
X74400Y-40000D03*
X73400Y-40000D03*
X72400Y-40000D03*
X71400Y-40000D03*
X70400Y-40000D03*
X69400Y-40000D03*
X68400Y-40000D03*
X67400Y-40000D03*
G54D40*
X71000Y-59000D03*
G54D41*
X72000Y-59000D03*
X73000Y-59000D03*
X74000Y-59000D03*
X75000Y-59000D03*
X76000Y-59000D03*
X77000Y-59000D03*
X78000Y-59000D03*
G54D42*
X86550Y-39450D03*
X86550Y-59550D03*
X57950Y-59550D03*
G54D43*
X65361Y-40653D03*
X65105Y-40653D03*
X64850Y-40653D03*
X64594Y-40653D03*
X64338Y-40653D03*
G54D44*
X66070Y-40603D03*
G54D45*
X66346Y-39600D03*
G54D46*
X65322Y-39600D03*
X64377Y-39600D03*
G54D45*
X63353Y-39600D03*
G54D44*
X63629Y-40603D03*
G54D47*
X57801Y-56400D03*
X58234Y-56400D03*
X58667Y-56400D03*
X59100Y-56400D03*
X59533Y-56400D03*
X59966Y-56400D03*
X60400Y-56400D03*
X60833Y-56400D03*
X61266Y-56400D03*
X61699Y-56400D03*
X62132Y-56400D03*
G54D48*
X62840Y-55782D03*
X62840Y-55349D03*
X62840Y-54916D03*
X62840Y-54483D03*
X62840Y-54050D03*
X62840Y-53617D03*
G54D47*
X62132Y-52999D03*
X61699Y-52999D03*
X61266Y-52999D03*
X60833Y-52999D03*
X60400Y-52999D03*
X59966Y-52999D03*
X59533Y-52999D03*
X59100Y-52999D03*
X58667Y-52999D03*
X58234Y-52999D03*
X57801Y-52999D03*
G54D49*
X65350Y-48582D03*
X65350Y-48917D03*
G54D50*
X58750Y-46000D03*
X58750Y-47000D03*
X58750Y-44850D03*
X58750Y-43850D03*
G54D51*
X80050Y-44385D03*
X80050Y-43814D03*
G54D52*
X73016Y-49215D03*
X73016Y-49884D03*
X73883Y-49884D03*
X73883Y-49215D03*
G54D32*
X60775Y-44415D03*
X61150Y-44415D03*
X61524Y-44415D03*
X61524Y-43384D03*
X61150Y-43384D03*
X60775Y-43384D03*
G54D33*
X62393Y-46374D03*
X62393Y-45625D03*
X61606Y-46000D03*
X62106Y-42775D03*
X62106Y-43524D03*
X62893Y-43150D03*
G54D35*
X59294Y-57250D03*
X59801Y-57250D03*
G54D53*
X76501Y-53661D03*
X76304Y-53661D03*
X76107Y-53661D03*
X75911Y-53661D03*
X75714Y-53661D03*
X75517Y-53661D03*
X75320Y-53661D03*
X75123Y-53661D03*
X76698Y-53661D03*
X76895Y-53661D03*
X77092Y-53661D03*
X77288Y-53661D03*
X77485Y-53661D03*
X77682Y-53661D03*
X77879Y-53661D03*
X78076Y-53661D03*
G54D54*
X78361Y-53376D03*
X78361Y-53179D03*
X78361Y-52982D03*
X78361Y-52785D03*
X78361Y-52588D03*
X78361Y-52392D03*
X78361Y-52195D03*
X78361Y-51998D03*
X78361Y-51801D03*
X78361Y-51604D03*
X78361Y-51407D03*
X78361Y-51211D03*
X78361Y-51014D03*
X78361Y-50817D03*
X78361Y-50620D03*
X78361Y-50423D03*
X74838Y-53376D03*
X74838Y-53179D03*
X74838Y-52982D03*
X74838Y-52785D03*
X74838Y-52588D03*
X74838Y-52392D03*
X74838Y-52195D03*
X74838Y-51998D03*
X74838Y-51801D03*
X74838Y-51604D03*
X74838Y-51407D03*
X74838Y-51211D03*
X74838Y-51014D03*
X74838Y-50817D03*
X74838Y-50620D03*
X74838Y-50423D03*
G54D53*
X75123Y-50138D03*
X75320Y-50138D03*
X75517Y-50138D03*
X75714Y-50138D03*
X75911Y-50138D03*
X76107Y-50138D03*
X76304Y-50138D03*
X76501Y-50138D03*
X76698Y-50138D03*
X76895Y-50138D03*
X77092Y-50138D03*
X77288Y-50138D03*
X77485Y-50138D03*
X77682Y-50138D03*
X77879Y-50138D03*
X78076Y-50138D03*
G54D55*
X76600Y-51900D03*
G54D56*
X62467Y-44100D03*
X62132Y-44100D03*
G54D57*
X78000Y-56267D03*
X78000Y-55932D03*
G54D56*
X64017Y-50600D03*
X63682Y-50600D03*
X73017Y-53000D03*
X72682Y-53000D03*
X63682Y-50150D03*
X64017Y-50150D03*
X72167Y-55250D03*
X71832Y-55250D03*
X60167Y-58550D03*
X59832Y-58550D03*
G54D57*
X63200Y-41617D03*
X63200Y-41282D03*
G54D56*
X60167Y-59100D03*
X59832Y-59100D03*
G54D57*
X78650Y-44882D03*
X78650Y-45217D03*
X81150Y-48117D03*
X81150Y-47782D03*
X78450Y-56832D03*
X78450Y-57167D03*
X78000Y-57167D03*
X78000Y-56832D03*
X79500Y-57017D03*
X79500Y-56682D03*
X80500Y-57017D03*
X80500Y-56682D03*
X82500Y-57017D03*
X82500Y-56682D03*
X83500Y-57017D03*
X83500Y-56682D03*
X84500Y-57017D03*
X84500Y-56682D03*
G54D56*
X60032Y-48700D03*
X60367Y-48700D03*
G54D10*
G36*
X78178Y-43943D02*
X78306Y-44071D01*
X78221Y-44156D01*
X78093Y-44028D01*
X78178Y-43943D01*
X78178Y-43943D01*
G37*
G36*
X79178Y-42943D02*
X79306Y-43071D01*
X79221Y-43156D01*
X79093Y-43028D01*
X79178Y-42943D01*
X79178Y-42943D01*
G37*
G36*
X79306Y-44028D02*
X79178Y-44156D01*
X79093Y-44071D01*
X79221Y-43943D01*
X79306Y-44028D01*
X79306Y-44028D01*
G37*
G54D37*
X78316Y-44298D03*
X78572Y-44298D03*
X78827Y-44298D03*
G54D58*
X79083Y-44298D03*
G54D37*
X79083Y-42801D03*
X78827Y-42801D03*
X78572Y-42801D03*
X78316Y-42801D03*
G54D59*
X79448Y-43933D03*
G54D60*
X79448Y-43677D03*
X79448Y-43422D03*
X79448Y-43166D03*
X77951Y-43166D03*
X77951Y-43422D03*
X77951Y-43677D03*
X77951Y-43933D03*
G54D61*
X78700Y-43550D03*
G54D10*
G36*
X78306Y-43028D02*
X78178Y-43156D01*
X78093Y-43071D01*
X78221Y-42943D01*
X78306Y-43028D01*
X78306Y-43028D01*
G37*
G54D62*
X69408Y-43433D03*
X69408Y-43177D03*
X69408Y-42922D03*
X69408Y-42666D03*
G54D63*
X69083Y-42341D03*
X68827Y-42341D03*
X68572Y-42341D03*
X68316Y-42341D03*
G54D62*
X67991Y-42666D03*
X67991Y-42922D03*
X67991Y-43177D03*
X67991Y-43433D03*
G54D63*
X68316Y-43758D03*
X68572Y-43758D03*
X68827Y-43758D03*
X69083Y-43758D03*
G54D64*
X68700Y-43050D03*
M02*
