G04 (created by PCBNEW (2013-07-07 BZR 4022)-stable) date 11/13/2016 4:47:58 PM*
%MOIN*%
G04 Gerber Fmt 3.4, Leading zero omitted, Abs format*
%FSLAX34Y34*%
G01*
G70*
G90*
G04 APERTURE LIST*
%ADD10C,0.00590551*%
%ADD11C,0.005*%
%ADD12C,0.00738189*%
%ADD13C,0.00787402*%
%ADD14C,0.011811*%
%ADD15C,0.007*%
%ADD16C,0.230409*%
%ADD17C,0.048*%
%ADD18C,0.025685*%
%ADD19R,0.061X0.061*%
%ADD20C,0.061*%
%ADD21R,0.206X0.056*%
%ADD22C,0.0787402*%
%ADD23C,0.0737165*%
G04 APERTURE END LIST*
G54D10*
G54D11*
X58030Y-45930D02*
X57830Y-45930D01*
X57973Y-45997D01*
X57830Y-46064D01*
X58030Y-46064D01*
X57830Y-46197D02*
X57830Y-46235D01*
X57840Y-46254D01*
X57859Y-46273D01*
X57897Y-46283D01*
X57964Y-46283D01*
X58002Y-46273D01*
X58021Y-46254D01*
X58030Y-46235D01*
X58030Y-46197D01*
X58021Y-46178D01*
X58002Y-46159D01*
X57964Y-46150D01*
X57897Y-46150D01*
X57859Y-46159D01*
X57840Y-46178D01*
X57830Y-46197D01*
X58021Y-46359D02*
X58030Y-46388D01*
X58030Y-46435D01*
X58021Y-46454D01*
X58011Y-46464D01*
X57992Y-46473D01*
X57973Y-46473D01*
X57954Y-46464D01*
X57945Y-46454D01*
X57935Y-46435D01*
X57926Y-46397D01*
X57916Y-46378D01*
X57907Y-46369D01*
X57888Y-46359D01*
X57869Y-46359D01*
X57850Y-46369D01*
X57840Y-46378D01*
X57830Y-46397D01*
X57830Y-46445D01*
X57840Y-46473D01*
X57926Y-46626D02*
X57926Y-46559D01*
X58030Y-46559D02*
X57830Y-46559D01*
X57830Y-46654D01*
X57926Y-46730D02*
X57926Y-46797D01*
X58030Y-46826D02*
X58030Y-46730D01*
X57830Y-46730D01*
X57830Y-46826D01*
X57830Y-46883D02*
X57830Y-46997D01*
X58030Y-46940D02*
X57830Y-46940D01*
G54D12*
X83122Y-54303D02*
X83122Y-54514D01*
X82996Y-54388D02*
X83375Y-54303D01*
X83249Y-54486D02*
X83249Y-54275D01*
X83375Y-54402D02*
X82996Y-54486D01*
X83122Y-54739D02*
X83319Y-54739D01*
X83010Y-54669D02*
X83221Y-54599D01*
X83221Y-54782D01*
X83207Y-54894D02*
X83207Y-55119D01*
X83122Y-55386D02*
X83319Y-55386D01*
X83010Y-55316D02*
X83221Y-55246D01*
X83221Y-55428D01*
X83024Y-55597D02*
X83024Y-55625D01*
X83038Y-55653D01*
X83052Y-55667D01*
X83080Y-55681D01*
X83136Y-55696D01*
X83207Y-55696D01*
X83263Y-55681D01*
X83291Y-55667D01*
X83305Y-55653D01*
X83319Y-55625D01*
X83319Y-55597D01*
X83305Y-55569D01*
X83291Y-55555D01*
X83263Y-55541D01*
X83207Y-55527D01*
X83136Y-55527D01*
X83080Y-55541D01*
X83052Y-55555D01*
X83038Y-55569D01*
X83024Y-55597D01*
X83122Y-45253D02*
X83122Y-45464D01*
X82996Y-45338D02*
X83375Y-45253D01*
X83249Y-45436D02*
X83249Y-45225D01*
X83375Y-45352D02*
X82996Y-45436D01*
X83122Y-45689D02*
X83319Y-45689D01*
X83010Y-45619D02*
X83221Y-45549D01*
X83221Y-45732D01*
X83207Y-45844D02*
X83207Y-46069D01*
X83122Y-46336D02*
X83319Y-46336D01*
X83010Y-46266D02*
X83221Y-46196D01*
X83221Y-46378D01*
X83024Y-46547D02*
X83024Y-46575D01*
X83038Y-46603D01*
X83052Y-46617D01*
X83080Y-46631D01*
X83136Y-46646D01*
X83207Y-46646D01*
X83263Y-46631D01*
X83291Y-46617D01*
X83305Y-46603D01*
X83319Y-46575D01*
X83319Y-46547D01*
X83305Y-46519D01*
X83291Y-46505D01*
X83263Y-46491D01*
X83207Y-46477D01*
X83136Y-46477D01*
X83080Y-46491D01*
X83052Y-46505D01*
X83038Y-46519D01*
X83024Y-46547D01*
X63272Y-40303D02*
X63272Y-40514D01*
X63146Y-40388D02*
X63525Y-40303D01*
X63399Y-40486D02*
X63399Y-40275D01*
X63525Y-40402D02*
X63146Y-40486D01*
X63272Y-40739D02*
X63469Y-40739D01*
X63160Y-40669D02*
X63371Y-40599D01*
X63371Y-40782D01*
X63357Y-40894D02*
X63357Y-41119D01*
X63272Y-41386D02*
X63469Y-41386D01*
X63160Y-41316D02*
X63371Y-41246D01*
X63371Y-41428D01*
X63174Y-41597D02*
X63174Y-41625D01*
X63188Y-41653D01*
X63202Y-41667D01*
X63230Y-41681D01*
X63286Y-41696D01*
X63357Y-41696D01*
X63413Y-41681D01*
X63441Y-41667D01*
X63455Y-41653D01*
X63469Y-41625D01*
X63469Y-41597D01*
X63455Y-41569D01*
X63441Y-41555D01*
X63413Y-41541D01*
X63357Y-41527D01*
X63286Y-41527D01*
X63230Y-41541D01*
X63202Y-41555D01*
X63188Y-41569D01*
X63174Y-41597D01*
X66022Y-57503D02*
X66022Y-57714D01*
X65896Y-57588D02*
X66275Y-57503D01*
X66149Y-57686D02*
X66149Y-57475D01*
X66275Y-57602D02*
X65896Y-57686D01*
X66022Y-57939D02*
X66219Y-57939D01*
X65910Y-57869D02*
X66121Y-57799D01*
X66121Y-57982D01*
X66107Y-58094D02*
X66107Y-58319D01*
X66022Y-58586D02*
X66219Y-58586D01*
X65910Y-58516D02*
X66121Y-58446D01*
X66121Y-58628D01*
X65924Y-58797D02*
X65924Y-58825D01*
X65938Y-58853D01*
X65952Y-58867D01*
X65980Y-58881D01*
X66036Y-58896D01*
X66107Y-58896D01*
X66163Y-58881D01*
X66191Y-58867D01*
X66205Y-58853D01*
X66219Y-58825D01*
X66219Y-58797D01*
X66205Y-58769D01*
X66191Y-58755D01*
X66163Y-58741D01*
X66107Y-58727D01*
X66036Y-58727D01*
X65980Y-58741D01*
X65952Y-58755D01*
X65938Y-58769D01*
X65924Y-58797D01*
X70838Y-57725D02*
X70824Y-57696D01*
X70824Y-57654D01*
X70838Y-57612D01*
X70866Y-57584D01*
X70894Y-57570D01*
X70950Y-57556D01*
X70992Y-57556D01*
X71049Y-57570D01*
X71077Y-57584D01*
X71105Y-57612D01*
X71119Y-57654D01*
X71119Y-57682D01*
X71105Y-57725D01*
X71091Y-57739D01*
X70992Y-57739D01*
X70992Y-57682D01*
X71119Y-57865D02*
X70824Y-57865D01*
X71119Y-58034D01*
X70824Y-58034D01*
X71119Y-58174D02*
X70824Y-58174D01*
X70824Y-58245D01*
X70838Y-58287D01*
X70866Y-58315D01*
X70894Y-58329D01*
X70950Y-58343D01*
X70992Y-58343D01*
X71049Y-58329D01*
X71077Y-58315D01*
X71105Y-58287D01*
X71119Y-58245D01*
X71119Y-58174D01*
X71838Y-57725D02*
X71824Y-57696D01*
X71824Y-57654D01*
X71838Y-57612D01*
X71866Y-57584D01*
X71894Y-57570D01*
X71950Y-57556D01*
X71992Y-57556D01*
X72049Y-57570D01*
X72077Y-57584D01*
X72105Y-57612D01*
X72119Y-57654D01*
X72119Y-57682D01*
X72105Y-57725D01*
X72091Y-57739D01*
X71992Y-57739D01*
X71992Y-57682D01*
X72119Y-57865D02*
X71824Y-57865D01*
X72119Y-58034D01*
X71824Y-58034D01*
X72119Y-58174D02*
X71824Y-58174D01*
X71824Y-58245D01*
X71838Y-58287D01*
X71866Y-58315D01*
X71894Y-58329D01*
X71950Y-58343D01*
X71992Y-58343D01*
X72049Y-58329D01*
X72077Y-58315D01*
X72105Y-58287D01*
X72119Y-58245D01*
X72119Y-58174D01*
X72838Y-57725D02*
X72824Y-57696D01*
X72824Y-57654D01*
X72838Y-57612D01*
X72866Y-57584D01*
X72894Y-57570D01*
X72950Y-57556D01*
X72992Y-57556D01*
X73049Y-57570D01*
X73077Y-57584D01*
X73105Y-57612D01*
X73119Y-57654D01*
X73119Y-57682D01*
X73105Y-57725D01*
X73091Y-57739D01*
X72992Y-57739D01*
X72992Y-57682D01*
X73119Y-57865D02*
X72824Y-57865D01*
X73119Y-58034D01*
X72824Y-58034D01*
X73119Y-58174D02*
X72824Y-58174D01*
X72824Y-58245D01*
X72838Y-58287D01*
X72866Y-58315D01*
X72894Y-58329D01*
X72950Y-58343D01*
X72992Y-58343D01*
X73049Y-58329D01*
X73077Y-58315D01*
X73105Y-58287D01*
X73119Y-58245D01*
X73119Y-58174D01*
X74838Y-57725D02*
X74824Y-57696D01*
X74824Y-57654D01*
X74838Y-57612D01*
X74866Y-57584D01*
X74894Y-57570D01*
X74950Y-57556D01*
X74992Y-57556D01*
X75049Y-57570D01*
X75077Y-57584D01*
X75105Y-57612D01*
X75119Y-57654D01*
X75119Y-57682D01*
X75105Y-57725D01*
X75091Y-57739D01*
X74992Y-57739D01*
X74992Y-57682D01*
X75119Y-57865D02*
X74824Y-57865D01*
X75119Y-58034D01*
X74824Y-58034D01*
X75119Y-58174D02*
X74824Y-58174D01*
X74824Y-58245D01*
X74838Y-58287D01*
X74866Y-58315D01*
X74894Y-58329D01*
X74950Y-58343D01*
X74992Y-58343D01*
X75049Y-58329D01*
X75077Y-58315D01*
X75105Y-58287D01*
X75119Y-58245D01*
X75119Y-58174D01*
X75238Y-40825D02*
X75224Y-40796D01*
X75224Y-40754D01*
X75238Y-40712D01*
X75266Y-40684D01*
X75294Y-40670D01*
X75350Y-40656D01*
X75392Y-40656D01*
X75449Y-40670D01*
X75477Y-40684D01*
X75505Y-40712D01*
X75519Y-40754D01*
X75519Y-40782D01*
X75505Y-40825D01*
X75491Y-40839D01*
X75392Y-40839D01*
X75392Y-40782D01*
X75519Y-40965D02*
X75224Y-40965D01*
X75519Y-41134D01*
X75224Y-41134D01*
X75519Y-41274D02*
X75224Y-41274D01*
X75224Y-41345D01*
X75238Y-41387D01*
X75266Y-41415D01*
X75294Y-41429D01*
X75350Y-41443D01*
X75392Y-41443D01*
X75449Y-41429D01*
X75477Y-41415D01*
X75505Y-41387D01*
X75519Y-41345D01*
X75519Y-41274D01*
G54D13*
X68400Y-40600D02*
X68400Y-40950D01*
X69400Y-40600D02*
X69400Y-40950D01*
X70050Y-40950D02*
X69900Y-41100D01*
X69900Y-40800D02*
X70050Y-40950D01*
X70050Y-40950D02*
X69900Y-40800D01*
X67400Y-40950D02*
X70050Y-40950D01*
X67400Y-40600D02*
X67400Y-40950D01*
G54D11*
X72059Y-54880D02*
X72126Y-54785D01*
X72173Y-54880D02*
X72173Y-54680D01*
X72097Y-54680D01*
X72078Y-54690D01*
X72069Y-54700D01*
X72059Y-54719D01*
X72059Y-54747D01*
X72069Y-54766D01*
X72078Y-54776D01*
X72097Y-54785D01*
X72173Y-54785D01*
X71983Y-54871D02*
X71954Y-54880D01*
X71907Y-54880D01*
X71888Y-54871D01*
X71878Y-54861D01*
X71869Y-54842D01*
X71869Y-54823D01*
X71878Y-54804D01*
X71888Y-54795D01*
X71907Y-54785D01*
X71945Y-54776D01*
X71964Y-54766D01*
X71973Y-54757D01*
X71983Y-54738D01*
X71983Y-54719D01*
X71973Y-54700D01*
X71964Y-54690D01*
X71945Y-54680D01*
X71897Y-54680D01*
X71869Y-54690D01*
X71811Y-54680D02*
X71697Y-54680D01*
X71754Y-54880D02*
X71754Y-54680D01*
X72221Y-54605D02*
X71678Y-54605D01*
X72102Y-53690D02*
X72121Y-53680D01*
X72150Y-53680D01*
X72178Y-53690D01*
X72197Y-53709D01*
X72207Y-53728D01*
X72216Y-53766D01*
X72216Y-53795D01*
X72207Y-53833D01*
X72197Y-53852D01*
X72178Y-53871D01*
X72150Y-53880D01*
X72130Y-53880D01*
X72102Y-53871D01*
X72092Y-53861D01*
X72092Y-53795D01*
X72130Y-53795D01*
X72007Y-53880D02*
X72007Y-53680D01*
X71892Y-53880D01*
X71892Y-53680D01*
X71797Y-53880D02*
X71797Y-53680D01*
X71750Y-53680D01*
X71721Y-53690D01*
X71702Y-53709D01*
X71692Y-53728D01*
X71683Y-53766D01*
X71683Y-53795D01*
X71692Y-53833D01*
X71702Y-53852D01*
X71721Y-53871D01*
X71750Y-53880D01*
X71797Y-53880D01*
X72007Y-52680D02*
X71892Y-52680D01*
X71950Y-52880D02*
X71950Y-52680D01*
X71711Y-52861D02*
X71721Y-52871D01*
X71750Y-52880D01*
X71769Y-52880D01*
X71797Y-52871D01*
X71816Y-52852D01*
X71826Y-52833D01*
X71835Y-52795D01*
X71835Y-52766D01*
X71826Y-52728D01*
X71816Y-52709D01*
X71797Y-52690D01*
X71769Y-52680D01*
X71750Y-52680D01*
X71721Y-52690D01*
X71711Y-52700D01*
X71626Y-52880D02*
X71626Y-52680D01*
X71511Y-52880D02*
X71597Y-52766D01*
X71511Y-52680D02*
X71626Y-52795D01*
X72016Y-51680D02*
X71902Y-51680D01*
X71959Y-51880D02*
X71959Y-51680D01*
X71835Y-51880D02*
X71835Y-51680D01*
X71769Y-51823D01*
X71702Y-51680D01*
X71702Y-51880D01*
X71616Y-51871D02*
X71588Y-51880D01*
X71540Y-51880D01*
X71521Y-51871D01*
X71511Y-51861D01*
X71502Y-51842D01*
X71502Y-51823D01*
X71511Y-51804D01*
X71521Y-51795D01*
X71540Y-51785D01*
X71578Y-51776D01*
X71597Y-51766D01*
X71607Y-51757D01*
X71616Y-51738D01*
X71616Y-51719D01*
X71607Y-51700D01*
X71597Y-51690D01*
X71578Y-51680D01*
X71530Y-51680D01*
X71502Y-51690D01*
X71954Y-50680D02*
X71840Y-50680D01*
X71897Y-50880D02*
X71897Y-50680D01*
X71773Y-50880D02*
X71773Y-50680D01*
X71726Y-50680D01*
X71697Y-50690D01*
X71678Y-50709D01*
X71669Y-50728D01*
X71659Y-50766D01*
X71659Y-50795D01*
X71669Y-50833D01*
X71678Y-50852D01*
X71697Y-50871D01*
X71726Y-50880D01*
X71773Y-50880D01*
X71573Y-50880D02*
X71573Y-50680D01*
X72011Y-49680D02*
X71897Y-49680D01*
X71954Y-49880D02*
X71954Y-49680D01*
X71830Y-49880D02*
X71830Y-49680D01*
X71783Y-49680D01*
X71754Y-49690D01*
X71735Y-49709D01*
X71726Y-49728D01*
X71716Y-49766D01*
X71716Y-49795D01*
X71726Y-49833D01*
X71735Y-49852D01*
X71754Y-49871D01*
X71783Y-49880D01*
X71830Y-49880D01*
X71592Y-49680D02*
X71554Y-49680D01*
X71535Y-49690D01*
X71516Y-49709D01*
X71507Y-49747D01*
X71507Y-49814D01*
X71516Y-49852D01*
X71535Y-49871D01*
X71554Y-49880D01*
X71592Y-49880D01*
X71611Y-49871D01*
X71630Y-49852D01*
X71640Y-49814D01*
X71640Y-49747D01*
X71630Y-49709D01*
X71611Y-49690D01*
X71592Y-49680D01*
X66219Y-52680D02*
X66104Y-52680D01*
X66161Y-52880D02*
X66161Y-52680D01*
X66038Y-52776D02*
X65971Y-52776D01*
X65942Y-52880D02*
X66038Y-52880D01*
X66038Y-52680D01*
X65942Y-52680D01*
X65866Y-52871D02*
X65838Y-52880D01*
X65790Y-52880D01*
X65771Y-52871D01*
X65761Y-52861D01*
X65752Y-52842D01*
X65752Y-52823D01*
X65761Y-52804D01*
X65771Y-52795D01*
X65790Y-52785D01*
X65828Y-52776D01*
X65847Y-52766D01*
X65857Y-52757D01*
X65866Y-52738D01*
X65866Y-52719D01*
X65857Y-52700D01*
X65847Y-52690D01*
X65828Y-52680D01*
X65780Y-52680D01*
X65752Y-52690D01*
X65695Y-52680D02*
X65580Y-52680D01*
X65638Y-52880D02*
X65638Y-52680D01*
X66050Y-50804D02*
X65897Y-50804D01*
X65973Y-50880D02*
X65973Y-50728D01*
X65821Y-50680D02*
X65697Y-50680D01*
X65764Y-50757D01*
X65735Y-50757D01*
X65716Y-50766D01*
X65707Y-50776D01*
X65697Y-50795D01*
X65697Y-50842D01*
X65707Y-50861D01*
X65716Y-50871D01*
X65735Y-50880D01*
X65792Y-50880D01*
X65811Y-50871D01*
X65821Y-50861D01*
X65611Y-50861D02*
X65602Y-50871D01*
X65611Y-50880D01*
X65621Y-50871D01*
X65611Y-50861D01*
X65611Y-50880D01*
X65535Y-50680D02*
X65411Y-50680D01*
X65478Y-50757D01*
X65450Y-50757D01*
X65430Y-50766D01*
X65421Y-50776D01*
X65411Y-50795D01*
X65411Y-50842D01*
X65421Y-50861D01*
X65430Y-50871D01*
X65450Y-50880D01*
X65507Y-50880D01*
X65526Y-50871D01*
X65535Y-50861D01*
X65354Y-50680D02*
X65288Y-50880D01*
X65221Y-50680D01*
G54D12*
X66890Y-46607D02*
X66665Y-46607D01*
X66778Y-46719D02*
X66778Y-46494D01*
X66553Y-46424D02*
X66370Y-46424D01*
X66468Y-46536D01*
X66426Y-46536D01*
X66398Y-46550D01*
X66384Y-46564D01*
X66370Y-46592D01*
X66370Y-46663D01*
X66384Y-46691D01*
X66398Y-46705D01*
X66426Y-46719D01*
X66510Y-46719D01*
X66539Y-46705D01*
X66553Y-46691D01*
X66243Y-46691D02*
X66229Y-46705D01*
X66243Y-46719D01*
X66257Y-46705D01*
X66243Y-46691D01*
X66243Y-46719D01*
X66131Y-46424D02*
X65948Y-46424D01*
X66046Y-46536D01*
X66004Y-46536D01*
X65976Y-46550D01*
X65962Y-46564D01*
X65948Y-46592D01*
X65948Y-46663D01*
X65962Y-46691D01*
X65976Y-46705D01*
X66004Y-46719D01*
X66089Y-46719D01*
X66117Y-46705D01*
X66131Y-46691D01*
X65864Y-46424D02*
X65765Y-46719D01*
X65667Y-46424D01*
X69185Y-42157D02*
X68960Y-42157D01*
X69072Y-42269D02*
X69072Y-42044D01*
X68678Y-41974D02*
X68819Y-41974D01*
X68833Y-42114D01*
X68819Y-42100D01*
X68791Y-42086D01*
X68721Y-42086D01*
X68692Y-42100D01*
X68678Y-42114D01*
X68664Y-42142D01*
X68664Y-42213D01*
X68678Y-42241D01*
X68692Y-42255D01*
X68721Y-42269D01*
X68791Y-42269D01*
X68819Y-42255D01*
X68833Y-42241D01*
X68580Y-41974D02*
X68482Y-42269D01*
X68383Y-41974D01*
X68060Y-41974D02*
X68060Y-42213D01*
X68046Y-42241D01*
X68032Y-42255D01*
X68003Y-42269D01*
X67947Y-42269D01*
X67919Y-42255D01*
X67905Y-42241D01*
X67891Y-42213D01*
X67891Y-41974D01*
X67764Y-42255D02*
X67722Y-42269D01*
X67652Y-42269D01*
X67624Y-42255D01*
X67610Y-42241D01*
X67596Y-42213D01*
X67596Y-42185D01*
X67610Y-42157D01*
X67624Y-42142D01*
X67652Y-42128D01*
X67708Y-42114D01*
X67736Y-42100D01*
X67750Y-42086D01*
X67764Y-42058D01*
X67764Y-42030D01*
X67750Y-42002D01*
X67736Y-41988D01*
X67708Y-41974D01*
X67638Y-41974D01*
X67596Y-41988D01*
X67371Y-42114D02*
X67329Y-42128D01*
X67314Y-42142D01*
X67300Y-42171D01*
X67300Y-42213D01*
X67314Y-42241D01*
X67329Y-42255D01*
X67357Y-42269D01*
X67469Y-42269D01*
X67469Y-41974D01*
X67371Y-41974D01*
X67343Y-41988D01*
X67329Y-42002D01*
X67314Y-42030D01*
X67314Y-42058D01*
X67329Y-42086D01*
X67343Y-42100D01*
X67371Y-42114D01*
X67469Y-42114D01*
X61615Y-56519D02*
X61615Y-56224D01*
X61503Y-56224D01*
X61474Y-56238D01*
X61460Y-56252D01*
X61446Y-56280D01*
X61446Y-56322D01*
X61460Y-56350D01*
X61474Y-56364D01*
X61503Y-56378D01*
X61615Y-56378D01*
X61320Y-56519D02*
X61320Y-56224D01*
X61207Y-56224D01*
X61179Y-56238D01*
X61165Y-56252D01*
X61151Y-56280D01*
X61151Y-56322D01*
X61165Y-56350D01*
X61179Y-56364D01*
X61207Y-56378D01*
X61320Y-56378D01*
X61039Y-56505D02*
X60996Y-56519D01*
X60926Y-56519D01*
X60898Y-56505D01*
X60884Y-56491D01*
X60870Y-56463D01*
X60870Y-56435D01*
X60884Y-56407D01*
X60898Y-56392D01*
X60926Y-56378D01*
X60982Y-56364D01*
X61010Y-56350D01*
X61025Y-56336D01*
X61039Y-56308D01*
X61039Y-56280D01*
X61025Y-56252D01*
X61010Y-56238D01*
X60982Y-56224D01*
X60912Y-56224D01*
X60870Y-56238D01*
X63660Y-52188D02*
X63688Y-52174D01*
X63731Y-52174D01*
X63773Y-52188D01*
X63801Y-52216D01*
X63815Y-52244D01*
X63829Y-52300D01*
X63829Y-52342D01*
X63815Y-52399D01*
X63801Y-52427D01*
X63773Y-52455D01*
X63731Y-52469D01*
X63703Y-52469D01*
X63660Y-52455D01*
X63646Y-52441D01*
X63646Y-52342D01*
X63703Y-52342D01*
X63520Y-52469D02*
X63520Y-52174D01*
X63407Y-52174D01*
X63379Y-52188D01*
X63365Y-52202D01*
X63351Y-52230D01*
X63351Y-52272D01*
X63365Y-52300D01*
X63379Y-52314D01*
X63407Y-52328D01*
X63520Y-52328D01*
X63239Y-52455D02*
X63196Y-52469D01*
X63126Y-52469D01*
X63098Y-52455D01*
X63084Y-52441D01*
X63070Y-52413D01*
X63070Y-52385D01*
X63084Y-52357D01*
X63098Y-52342D01*
X63126Y-52328D01*
X63182Y-52314D01*
X63210Y-52300D01*
X63224Y-52286D01*
X63239Y-52258D01*
X63239Y-52230D01*
X63224Y-52202D01*
X63210Y-52188D01*
X63182Y-52174D01*
X63112Y-52174D01*
X63070Y-52188D01*
X62620Y-52314D02*
X62718Y-52314D01*
X62718Y-52469D02*
X62718Y-52174D01*
X62578Y-52174D01*
X62465Y-52469D02*
X62465Y-52174D01*
X62353Y-52174D02*
X62156Y-52469D01*
X62156Y-52174D02*
X62353Y-52469D01*
X61093Y-45824D02*
X60995Y-46119D01*
X60896Y-45824D01*
X60629Y-46091D02*
X60643Y-46105D01*
X60685Y-46119D01*
X60714Y-46119D01*
X60756Y-46105D01*
X60784Y-46077D01*
X60798Y-46049D01*
X60812Y-45992D01*
X60812Y-45950D01*
X60798Y-45894D01*
X60784Y-45866D01*
X60756Y-45838D01*
X60714Y-45824D01*
X60685Y-45824D01*
X60643Y-45838D01*
X60629Y-45852D01*
X60334Y-46091D02*
X60348Y-46105D01*
X60390Y-46119D01*
X60418Y-46119D01*
X60460Y-46105D01*
X60489Y-46077D01*
X60503Y-46049D01*
X60517Y-45992D01*
X60517Y-45950D01*
X60503Y-45894D01*
X60489Y-45866D01*
X60460Y-45838D01*
X60418Y-45824D01*
X60390Y-45824D01*
X60348Y-45838D01*
X60334Y-45852D01*
X60924Y-43688D02*
X60953Y-43674D01*
X60995Y-43674D01*
X61037Y-43688D01*
X61065Y-43716D01*
X61079Y-43744D01*
X61093Y-43800D01*
X61093Y-43842D01*
X61079Y-43899D01*
X61065Y-43927D01*
X61037Y-43955D01*
X60995Y-43969D01*
X60967Y-43969D01*
X60924Y-43955D01*
X60910Y-43941D01*
X60910Y-43842D01*
X60967Y-43842D01*
X60784Y-43969D02*
X60784Y-43674D01*
X60615Y-43969D01*
X60615Y-43674D01*
X60475Y-43969D02*
X60475Y-43674D01*
X60404Y-43674D01*
X60362Y-43688D01*
X60334Y-43716D01*
X60320Y-43744D01*
X60306Y-43800D01*
X60306Y-43842D01*
X60320Y-43899D01*
X60334Y-43927D01*
X60362Y-43955D01*
X60404Y-43969D01*
X60475Y-43969D01*
X60854Y-47119D02*
X60854Y-46824D01*
X60714Y-47119D02*
X60714Y-46824D01*
X60545Y-47119D01*
X60545Y-46824D01*
G54D14*
X85168Y-51760D02*
X85084Y-51789D01*
X84943Y-51789D01*
X84887Y-51760D01*
X84859Y-51732D01*
X84831Y-51676D01*
X84831Y-51620D01*
X84859Y-51564D01*
X84887Y-51535D01*
X84943Y-51507D01*
X85056Y-51479D01*
X85112Y-51451D01*
X85140Y-51423D01*
X85168Y-51367D01*
X85168Y-51310D01*
X85140Y-51254D01*
X85112Y-51226D01*
X85056Y-51198D01*
X84915Y-51198D01*
X84831Y-51226D01*
X84578Y-51789D02*
X84578Y-51198D01*
X84240Y-51789D01*
X84240Y-51198D01*
X83959Y-51732D02*
X83931Y-51760D01*
X83959Y-51789D01*
X83987Y-51760D01*
X83959Y-51732D01*
X83959Y-51789D01*
X83959Y-51423D02*
X83931Y-51451D01*
X83959Y-51479D01*
X83987Y-51451D01*
X83959Y-51423D01*
X83959Y-51479D01*
G54D12*
X69344Y-58024D02*
X69344Y-58235D01*
X69358Y-58277D01*
X69386Y-58305D01*
X69428Y-58319D01*
X69456Y-58319D01*
X69246Y-58024D02*
X69077Y-58024D01*
X69161Y-58319D02*
X69161Y-58024D01*
X68992Y-58235D02*
X68852Y-58235D01*
X69021Y-58319D02*
X68922Y-58024D01*
X68824Y-58319D01*
X68571Y-58038D02*
X68599Y-58024D01*
X68641Y-58024D01*
X68683Y-58038D01*
X68711Y-58066D01*
X68725Y-58094D01*
X68739Y-58150D01*
X68739Y-58192D01*
X68725Y-58249D01*
X68711Y-58277D01*
X68683Y-58305D01*
X68641Y-58319D01*
X68613Y-58319D01*
X68571Y-58305D01*
X68557Y-58291D01*
X68557Y-58192D01*
X68613Y-58192D01*
X71505Y-40670D02*
X71519Y-40712D01*
X71519Y-40782D01*
X71505Y-40810D01*
X71491Y-40825D01*
X71463Y-40839D01*
X71435Y-40839D01*
X71407Y-40825D01*
X71392Y-40810D01*
X71378Y-40782D01*
X71364Y-40726D01*
X71350Y-40698D01*
X71336Y-40684D01*
X71308Y-40670D01*
X71280Y-40670D01*
X71252Y-40684D01*
X71238Y-40698D01*
X71224Y-40726D01*
X71224Y-40796D01*
X71238Y-40839D01*
X71491Y-41134D02*
X71505Y-41120D01*
X71519Y-41078D01*
X71519Y-41050D01*
X71505Y-41007D01*
X71477Y-40979D01*
X71449Y-40965D01*
X71392Y-40951D01*
X71350Y-40951D01*
X71294Y-40965D01*
X71266Y-40979D01*
X71238Y-41007D01*
X71224Y-41050D01*
X71224Y-41078D01*
X71238Y-41120D01*
X71252Y-41134D01*
X71519Y-41260D02*
X71224Y-41260D01*
X71519Y-41429D02*
X71350Y-41303D01*
X71224Y-41429D02*
X71392Y-41260D01*
X72519Y-40635D02*
X72224Y-40635D01*
X72435Y-40734D01*
X72224Y-40832D01*
X72519Y-40832D01*
X72519Y-40973D02*
X72224Y-40973D01*
X72505Y-41100D02*
X72519Y-41142D01*
X72519Y-41212D01*
X72505Y-41240D01*
X72491Y-41254D01*
X72463Y-41268D01*
X72435Y-41268D01*
X72407Y-41254D01*
X72392Y-41240D01*
X72378Y-41212D01*
X72364Y-41156D01*
X72350Y-41128D01*
X72336Y-41114D01*
X72308Y-41100D01*
X72280Y-41100D01*
X72252Y-41114D01*
X72238Y-41128D01*
X72224Y-41156D01*
X72224Y-41226D01*
X72238Y-41268D01*
X72224Y-41451D02*
X72224Y-41507D01*
X72238Y-41535D01*
X72266Y-41564D01*
X72322Y-41578D01*
X72421Y-41578D01*
X72477Y-41564D01*
X72505Y-41535D01*
X72519Y-41507D01*
X72519Y-41451D01*
X72505Y-41423D01*
X72477Y-41395D01*
X72421Y-41381D01*
X72322Y-41381D01*
X72266Y-41395D01*
X72238Y-41423D01*
X72224Y-41451D01*
X73519Y-40635D02*
X73224Y-40635D01*
X73435Y-40734D01*
X73224Y-40832D01*
X73519Y-40832D01*
X73224Y-41029D02*
X73224Y-41085D01*
X73238Y-41114D01*
X73266Y-41142D01*
X73322Y-41156D01*
X73421Y-41156D01*
X73477Y-41142D01*
X73505Y-41114D01*
X73519Y-41085D01*
X73519Y-41029D01*
X73505Y-41001D01*
X73477Y-40973D01*
X73421Y-40959D01*
X73322Y-40959D01*
X73266Y-40973D01*
X73238Y-41001D01*
X73224Y-41029D01*
X73505Y-41268D02*
X73519Y-41310D01*
X73519Y-41381D01*
X73505Y-41409D01*
X73491Y-41423D01*
X73463Y-41437D01*
X73435Y-41437D01*
X73407Y-41423D01*
X73392Y-41409D01*
X73378Y-41381D01*
X73364Y-41324D01*
X73350Y-41296D01*
X73336Y-41282D01*
X73308Y-41268D01*
X73280Y-41268D01*
X73252Y-41282D01*
X73238Y-41296D01*
X73224Y-41324D01*
X73224Y-41395D01*
X73238Y-41437D01*
X73519Y-41564D02*
X73224Y-41564D01*
X74491Y-40850D02*
X74505Y-40836D01*
X74519Y-40794D01*
X74519Y-40766D01*
X74505Y-40724D01*
X74477Y-40696D01*
X74449Y-40682D01*
X74392Y-40667D01*
X74350Y-40667D01*
X74294Y-40682D01*
X74266Y-40696D01*
X74238Y-40724D01*
X74224Y-40766D01*
X74224Y-40794D01*
X74238Y-40836D01*
X74252Y-40850D01*
X74505Y-40963D02*
X74519Y-41005D01*
X74519Y-41075D01*
X74505Y-41103D01*
X74491Y-41117D01*
X74463Y-41132D01*
X74435Y-41132D01*
X74407Y-41117D01*
X74392Y-41103D01*
X74378Y-41075D01*
X74364Y-41019D01*
X74350Y-40991D01*
X74336Y-40977D01*
X74308Y-40963D01*
X74280Y-40963D01*
X74252Y-40977D01*
X74238Y-40991D01*
X74224Y-41019D01*
X74224Y-41089D01*
X74238Y-41132D01*
X76519Y-41532D02*
X76224Y-41532D01*
X76224Y-41602D01*
X76238Y-41644D01*
X76266Y-41672D01*
X76294Y-41686D01*
X76350Y-41700D01*
X76392Y-41700D01*
X76449Y-41686D01*
X76477Y-41672D01*
X76505Y-41644D01*
X76519Y-41602D01*
X76519Y-41532D01*
X76350Y-41869D02*
X76336Y-41841D01*
X76322Y-41827D01*
X76294Y-41813D01*
X76280Y-41813D01*
X76252Y-41827D01*
X76238Y-41841D01*
X76224Y-41869D01*
X76224Y-41925D01*
X76238Y-41953D01*
X76252Y-41967D01*
X76280Y-41982D01*
X76294Y-41982D01*
X76322Y-41967D01*
X76336Y-41953D01*
X76350Y-41925D01*
X76350Y-41869D01*
X76364Y-41841D01*
X76378Y-41827D01*
X76407Y-41813D01*
X76463Y-41813D01*
X76491Y-41827D01*
X76505Y-41841D01*
X76519Y-41869D01*
X76519Y-41925D01*
X76505Y-41953D01*
X76491Y-41967D01*
X76463Y-41982D01*
X76407Y-41982D01*
X76378Y-41967D01*
X76364Y-41953D01*
X76350Y-41925D01*
X85169Y-41532D02*
X84874Y-41532D01*
X84874Y-41602D01*
X84888Y-41644D01*
X84916Y-41672D01*
X84944Y-41686D01*
X85000Y-41700D01*
X85042Y-41700D01*
X85099Y-41686D01*
X85127Y-41672D01*
X85155Y-41644D01*
X85169Y-41602D01*
X85169Y-41532D01*
X84874Y-41883D02*
X84874Y-41911D01*
X84888Y-41939D01*
X84902Y-41953D01*
X84930Y-41967D01*
X84986Y-41982D01*
X85057Y-41982D01*
X85113Y-41967D01*
X85141Y-41953D01*
X85155Y-41939D01*
X85169Y-41911D01*
X85169Y-41883D01*
X85155Y-41855D01*
X85141Y-41841D01*
X85113Y-41827D01*
X85057Y-41813D01*
X84986Y-41813D01*
X84930Y-41827D01*
X84902Y-41841D01*
X84888Y-41855D01*
X84874Y-41883D01*
X84119Y-41532D02*
X83824Y-41532D01*
X83824Y-41602D01*
X83838Y-41644D01*
X83866Y-41672D01*
X83894Y-41686D01*
X83950Y-41700D01*
X83992Y-41700D01*
X84049Y-41686D01*
X84077Y-41672D01*
X84105Y-41644D01*
X84119Y-41602D01*
X84119Y-41532D01*
X84119Y-41982D02*
X84119Y-41813D01*
X84119Y-41897D02*
X83824Y-41897D01*
X83866Y-41869D01*
X83894Y-41841D01*
X83908Y-41813D01*
X83119Y-41532D02*
X82824Y-41532D01*
X82824Y-41602D01*
X82838Y-41644D01*
X82866Y-41672D01*
X82894Y-41686D01*
X82950Y-41700D01*
X82992Y-41700D01*
X83049Y-41686D01*
X83077Y-41672D01*
X83105Y-41644D01*
X83119Y-41602D01*
X83119Y-41532D01*
X82852Y-41813D02*
X82838Y-41827D01*
X82824Y-41855D01*
X82824Y-41925D01*
X82838Y-41953D01*
X82852Y-41967D01*
X82880Y-41982D01*
X82908Y-41982D01*
X82950Y-41967D01*
X83119Y-41799D01*
X83119Y-41982D01*
X82119Y-41532D02*
X81824Y-41532D01*
X81824Y-41602D01*
X81838Y-41644D01*
X81866Y-41672D01*
X81894Y-41686D01*
X81950Y-41700D01*
X81992Y-41700D01*
X82049Y-41686D01*
X82077Y-41672D01*
X82105Y-41644D01*
X82119Y-41602D01*
X82119Y-41532D01*
X81824Y-41799D02*
X81824Y-41982D01*
X81936Y-41883D01*
X81936Y-41925D01*
X81950Y-41953D01*
X81964Y-41967D01*
X81992Y-41982D01*
X82063Y-41982D01*
X82091Y-41967D01*
X82105Y-41953D01*
X82119Y-41925D01*
X82119Y-41841D01*
X82105Y-41813D01*
X82091Y-41799D01*
X81119Y-41532D02*
X80824Y-41532D01*
X80824Y-41602D01*
X80838Y-41644D01*
X80866Y-41672D01*
X80894Y-41686D01*
X80950Y-41700D01*
X80992Y-41700D01*
X81049Y-41686D01*
X81077Y-41672D01*
X81105Y-41644D01*
X81119Y-41602D01*
X81119Y-41532D01*
X80922Y-41953D02*
X81119Y-41953D01*
X80810Y-41883D02*
X81021Y-41813D01*
X81021Y-41996D01*
X80119Y-41532D02*
X79824Y-41532D01*
X79824Y-41602D01*
X79838Y-41644D01*
X79866Y-41672D01*
X79894Y-41686D01*
X79950Y-41700D01*
X79992Y-41700D01*
X80049Y-41686D01*
X80077Y-41672D01*
X80105Y-41644D01*
X80119Y-41602D01*
X80119Y-41532D01*
X79824Y-41967D02*
X79824Y-41827D01*
X79964Y-41813D01*
X79950Y-41827D01*
X79936Y-41855D01*
X79936Y-41925D01*
X79950Y-41953D01*
X79964Y-41967D01*
X79992Y-41982D01*
X80063Y-41982D01*
X80091Y-41967D01*
X80105Y-41953D01*
X80119Y-41925D01*
X80119Y-41855D01*
X80105Y-41827D01*
X80091Y-41813D01*
X79119Y-41532D02*
X78824Y-41532D01*
X78824Y-41602D01*
X78838Y-41644D01*
X78866Y-41672D01*
X78894Y-41686D01*
X78950Y-41700D01*
X78992Y-41700D01*
X79049Y-41686D01*
X79077Y-41672D01*
X79105Y-41644D01*
X79119Y-41602D01*
X79119Y-41532D01*
X78824Y-41953D02*
X78824Y-41897D01*
X78838Y-41869D01*
X78852Y-41855D01*
X78894Y-41827D01*
X78950Y-41813D01*
X79063Y-41813D01*
X79091Y-41827D01*
X79105Y-41841D01*
X79119Y-41869D01*
X79119Y-41925D01*
X79105Y-41953D01*
X79091Y-41967D01*
X79063Y-41982D01*
X78992Y-41982D01*
X78964Y-41967D01*
X78950Y-41953D01*
X78936Y-41925D01*
X78936Y-41869D01*
X78950Y-41841D01*
X78964Y-41827D01*
X78992Y-41813D01*
X78119Y-41532D02*
X77824Y-41532D01*
X77824Y-41602D01*
X77838Y-41644D01*
X77866Y-41672D01*
X77894Y-41686D01*
X77950Y-41700D01*
X77992Y-41700D01*
X78049Y-41686D01*
X78077Y-41672D01*
X78105Y-41644D01*
X78119Y-41602D01*
X78119Y-41532D01*
X77824Y-41799D02*
X77824Y-41996D01*
X78119Y-41869D01*
X70238Y-40825D02*
X70224Y-40796D01*
X70224Y-40754D01*
X70238Y-40712D01*
X70266Y-40684D01*
X70294Y-40670D01*
X70350Y-40656D01*
X70392Y-40656D01*
X70449Y-40670D01*
X70477Y-40684D01*
X70505Y-40712D01*
X70519Y-40754D01*
X70519Y-40782D01*
X70505Y-40825D01*
X70491Y-40839D01*
X70392Y-40839D01*
X70392Y-40782D01*
X70519Y-40965D02*
X70224Y-40965D01*
X70519Y-41134D01*
X70224Y-41134D01*
X70519Y-41274D02*
X70224Y-41274D01*
X70224Y-41345D01*
X70238Y-41387D01*
X70266Y-41415D01*
X70294Y-41429D01*
X70350Y-41443D01*
X70392Y-41443D01*
X70449Y-41429D01*
X70477Y-41415D01*
X70505Y-41387D01*
X70519Y-41345D01*
X70519Y-41274D01*
X85035Y-57189D02*
X85035Y-57329D01*
X85119Y-57160D02*
X84824Y-57259D01*
X85119Y-57357D01*
X84824Y-57596D02*
X84824Y-57456D01*
X84964Y-57442D01*
X84950Y-57456D01*
X84936Y-57484D01*
X84936Y-57554D01*
X84950Y-57582D01*
X84964Y-57596D01*
X84992Y-57610D01*
X85063Y-57610D01*
X85091Y-57596D01*
X85105Y-57582D01*
X85119Y-57554D01*
X85119Y-57484D01*
X85105Y-57456D01*
X85091Y-57442D01*
X84035Y-57189D02*
X84035Y-57329D01*
X84119Y-57160D02*
X83824Y-57259D01*
X84119Y-57357D01*
X83922Y-57582D02*
X84119Y-57582D01*
X83810Y-57512D02*
X84021Y-57442D01*
X84021Y-57624D01*
X83035Y-57189D02*
X83035Y-57329D01*
X83119Y-57160D02*
X82824Y-57259D01*
X83119Y-57357D01*
X82824Y-57428D02*
X82824Y-57610D01*
X82936Y-57512D01*
X82936Y-57554D01*
X82950Y-57582D01*
X82964Y-57596D01*
X82992Y-57610D01*
X83063Y-57610D01*
X83091Y-57596D01*
X83105Y-57582D01*
X83119Y-57554D01*
X83119Y-57470D01*
X83105Y-57442D01*
X83091Y-57428D01*
X82035Y-57239D02*
X82035Y-57379D01*
X82119Y-57210D02*
X81824Y-57309D01*
X82119Y-57407D01*
X81852Y-57492D02*
X81838Y-57506D01*
X81824Y-57534D01*
X81824Y-57604D01*
X81838Y-57632D01*
X81852Y-57646D01*
X81880Y-57660D01*
X81908Y-57660D01*
X81950Y-57646D01*
X82119Y-57478D01*
X82119Y-57660D01*
X81035Y-57239D02*
X81035Y-57379D01*
X81119Y-57210D02*
X80824Y-57309D01*
X81119Y-57407D01*
X81119Y-57660D02*
X81119Y-57492D01*
X81119Y-57576D02*
X80824Y-57576D01*
X80866Y-57548D01*
X80894Y-57520D01*
X80908Y-57492D01*
X80035Y-57239D02*
X80035Y-57379D01*
X80119Y-57210D02*
X79824Y-57309D01*
X80119Y-57407D01*
X79824Y-57562D02*
X79824Y-57590D01*
X79838Y-57618D01*
X79852Y-57632D01*
X79880Y-57646D01*
X79936Y-57660D01*
X80007Y-57660D01*
X80063Y-57646D01*
X80091Y-57632D01*
X80105Y-57618D01*
X80119Y-57590D01*
X80119Y-57562D01*
X80105Y-57534D01*
X80091Y-57520D01*
X80063Y-57506D01*
X80007Y-57492D01*
X79936Y-57492D01*
X79880Y-57506D01*
X79852Y-57520D01*
X79838Y-57534D01*
X79824Y-57562D01*
X73824Y-57514D02*
X73824Y-57696D01*
X73936Y-57598D01*
X73936Y-57640D01*
X73950Y-57668D01*
X73964Y-57682D01*
X73992Y-57696D01*
X74063Y-57696D01*
X74091Y-57682D01*
X74105Y-57668D01*
X74119Y-57640D01*
X74119Y-57556D01*
X74105Y-57528D01*
X74091Y-57514D01*
X74091Y-57823D02*
X74105Y-57837D01*
X74119Y-57823D01*
X74105Y-57809D01*
X74091Y-57823D01*
X74119Y-57823D01*
X73824Y-57935D02*
X73824Y-58118D01*
X73936Y-58020D01*
X73936Y-58062D01*
X73950Y-58090D01*
X73964Y-58104D01*
X73992Y-58118D01*
X74063Y-58118D01*
X74091Y-58104D01*
X74105Y-58090D01*
X74119Y-58062D01*
X74119Y-57978D01*
X74105Y-57950D01*
X74091Y-57935D01*
X73824Y-58203D02*
X74119Y-58301D01*
X73824Y-58399D01*
X76838Y-57725D02*
X76824Y-57696D01*
X76824Y-57654D01*
X76838Y-57612D01*
X76866Y-57584D01*
X76894Y-57570D01*
X76950Y-57556D01*
X76992Y-57556D01*
X77049Y-57570D01*
X77077Y-57584D01*
X77105Y-57612D01*
X77119Y-57654D01*
X77119Y-57682D01*
X77105Y-57725D01*
X77091Y-57739D01*
X76992Y-57739D01*
X76992Y-57682D01*
X77119Y-57865D02*
X76824Y-57865D01*
X77119Y-58034D01*
X76824Y-58034D01*
X77119Y-58174D02*
X76824Y-58174D01*
X76824Y-58245D01*
X76838Y-58287D01*
X76866Y-58315D01*
X76894Y-58329D01*
X76950Y-58343D01*
X76992Y-58343D01*
X77049Y-58329D01*
X77077Y-58315D01*
X77105Y-58287D01*
X77119Y-58245D01*
X77119Y-58174D01*
G54D11*
X57926Y-43673D02*
X57926Y-43740D01*
X58030Y-43769D02*
X58030Y-43673D01*
X57830Y-43673D01*
X57830Y-43769D01*
X57830Y-43835D02*
X58030Y-43969D01*
X57830Y-43969D02*
X58030Y-43835D01*
X57830Y-44016D02*
X57830Y-44130D01*
X58030Y-44073D02*
X57830Y-44073D01*
X58011Y-44197D02*
X58021Y-44207D01*
X58030Y-44197D01*
X58021Y-44188D01*
X58011Y-44197D01*
X58030Y-44197D01*
X58030Y-44292D02*
X57830Y-44292D01*
X57830Y-44369D01*
X57840Y-44388D01*
X57850Y-44397D01*
X57869Y-44407D01*
X57897Y-44407D01*
X57916Y-44397D01*
X57926Y-44388D01*
X57935Y-44369D01*
X57935Y-44292D01*
X57830Y-44473D02*
X58030Y-44521D01*
X57888Y-44559D01*
X58030Y-44597D01*
X57830Y-44645D01*
X58030Y-44835D02*
X57935Y-44769D01*
X58030Y-44721D02*
X57830Y-44721D01*
X57830Y-44797D01*
X57840Y-44816D01*
X57850Y-44826D01*
X57869Y-44835D01*
X57897Y-44835D01*
X57916Y-44826D01*
X57926Y-44816D01*
X57935Y-44797D01*
X57935Y-44721D01*
G54D12*
X77874Y-57556D02*
X78169Y-57654D01*
X77874Y-57753D01*
X78141Y-58020D02*
X78155Y-58006D01*
X78169Y-57964D01*
X78169Y-57935D01*
X78155Y-57893D01*
X78127Y-57865D01*
X78099Y-57851D01*
X78042Y-57837D01*
X78000Y-57837D01*
X77944Y-57851D01*
X77916Y-57865D01*
X77888Y-57893D01*
X77874Y-57935D01*
X77874Y-57964D01*
X77888Y-58006D01*
X77902Y-58020D01*
X78141Y-58315D02*
X78155Y-58301D01*
X78169Y-58259D01*
X78169Y-58231D01*
X78155Y-58189D01*
X78127Y-58160D01*
X78099Y-58146D01*
X78042Y-58132D01*
X78000Y-58132D01*
X77944Y-58146D01*
X77916Y-58160D01*
X77888Y-58189D01*
X77874Y-58231D01*
X77874Y-58259D01*
X77888Y-58301D01*
X77902Y-58315D01*
X75838Y-57725D02*
X75824Y-57696D01*
X75824Y-57654D01*
X75838Y-57612D01*
X75866Y-57584D01*
X75894Y-57570D01*
X75950Y-57556D01*
X75992Y-57556D01*
X76049Y-57570D01*
X76077Y-57584D01*
X76105Y-57612D01*
X76119Y-57654D01*
X76119Y-57682D01*
X76105Y-57725D01*
X76091Y-57739D01*
X75992Y-57739D01*
X75992Y-57682D01*
X76119Y-57865D02*
X75824Y-57865D01*
X76119Y-58034D01*
X75824Y-58034D01*
X76119Y-58174D02*
X75824Y-58174D01*
X75824Y-58245D01*
X75838Y-58287D01*
X75866Y-58315D01*
X75894Y-58329D01*
X75950Y-58343D01*
X75992Y-58343D01*
X76049Y-58329D01*
X76077Y-58315D01*
X76105Y-58287D01*
X76119Y-58245D01*
X76119Y-58174D01*
G54D11*
X71191Y-49250D02*
G75*
G03X71191Y-49250I-141J0D01*
G74*
G01*
X67178Y-56296D02*
X67178Y-57871D01*
X67178Y-57871D02*
X70722Y-57871D01*
X70722Y-57871D02*
X70722Y-56296D01*
X70722Y-47831D02*
X70722Y-49209D01*
X67178Y-47831D02*
X67178Y-49209D01*
X67178Y-47831D02*
X70722Y-47831D01*
X81434Y-42151D02*
X81291Y-42151D01*
X81363Y-42401D02*
X81363Y-42151D01*
X81208Y-42401D02*
X81208Y-42151D01*
X81113Y-42151D01*
X81089Y-42163D01*
X81077Y-42175D01*
X81065Y-42198D01*
X81065Y-42234D01*
X81077Y-42258D01*
X81089Y-42270D01*
X81113Y-42282D01*
X81208Y-42282D01*
X80827Y-42401D02*
X80970Y-42401D01*
X80898Y-42401D02*
X80898Y-42151D01*
X80922Y-42186D01*
X80946Y-42210D01*
X80970Y-42222D01*
X80601Y-42151D02*
X80720Y-42151D01*
X80732Y-42270D01*
X80720Y-42258D01*
X80696Y-42246D01*
X80636Y-42246D01*
X80613Y-42258D01*
X80601Y-42270D01*
X80589Y-42294D01*
X80589Y-42353D01*
X80601Y-42377D01*
X80613Y-42389D01*
X80636Y-42401D01*
X80696Y-42401D01*
X80720Y-42389D01*
X80732Y-42377D01*
X83434Y-42151D02*
X83291Y-42151D01*
X83363Y-42401D02*
X83363Y-42151D01*
X83208Y-42401D02*
X83208Y-42151D01*
X83113Y-42151D01*
X83089Y-42163D01*
X83077Y-42175D01*
X83065Y-42198D01*
X83065Y-42234D01*
X83077Y-42258D01*
X83089Y-42270D01*
X83113Y-42282D01*
X83208Y-42282D01*
X82827Y-42401D02*
X82970Y-42401D01*
X82898Y-42401D02*
X82898Y-42151D01*
X82922Y-42186D01*
X82946Y-42210D01*
X82970Y-42222D01*
X82744Y-42151D02*
X82589Y-42151D01*
X82672Y-42246D01*
X82636Y-42246D01*
X82613Y-42258D01*
X82601Y-42270D01*
X82589Y-42294D01*
X82589Y-42353D01*
X82601Y-42377D01*
X82613Y-42389D01*
X82636Y-42401D01*
X82708Y-42401D01*
X82732Y-42389D01*
X82744Y-42377D01*
X84434Y-42151D02*
X84291Y-42151D01*
X84363Y-42401D02*
X84363Y-42151D01*
X84208Y-42401D02*
X84208Y-42151D01*
X84113Y-42151D01*
X84089Y-42163D01*
X84077Y-42175D01*
X84065Y-42198D01*
X84065Y-42234D01*
X84077Y-42258D01*
X84089Y-42270D01*
X84113Y-42282D01*
X84208Y-42282D01*
X83827Y-42401D02*
X83970Y-42401D01*
X83898Y-42401D02*
X83898Y-42151D01*
X83922Y-42186D01*
X83946Y-42210D01*
X83970Y-42222D01*
X83732Y-42175D02*
X83720Y-42163D01*
X83696Y-42151D01*
X83636Y-42151D01*
X83613Y-42163D01*
X83601Y-42175D01*
X83589Y-42198D01*
X83589Y-42222D01*
X83601Y-42258D01*
X83744Y-42401D01*
X83589Y-42401D01*
X67715Y-41301D02*
X67572Y-41301D01*
X67644Y-41551D02*
X67644Y-41301D01*
X67489Y-41551D02*
X67489Y-41301D01*
X67394Y-41301D01*
X67370Y-41313D01*
X67358Y-41325D01*
X67346Y-41348D01*
X67346Y-41384D01*
X67358Y-41408D01*
X67370Y-41420D01*
X67394Y-41432D01*
X67489Y-41432D01*
X67251Y-41325D02*
X67239Y-41313D01*
X67215Y-41301D01*
X67155Y-41301D01*
X67132Y-41313D01*
X67120Y-41325D01*
X67108Y-41348D01*
X67108Y-41372D01*
X67120Y-41408D01*
X67263Y-41551D01*
X67108Y-41551D01*
X85434Y-42151D02*
X85291Y-42151D01*
X85363Y-42401D02*
X85363Y-42151D01*
X85208Y-42401D02*
X85208Y-42151D01*
X85113Y-42151D01*
X85089Y-42163D01*
X85077Y-42175D01*
X85065Y-42198D01*
X85065Y-42234D01*
X85077Y-42258D01*
X85089Y-42270D01*
X85113Y-42282D01*
X85208Y-42282D01*
X84827Y-42401D02*
X84970Y-42401D01*
X84898Y-42401D02*
X84898Y-42151D01*
X84922Y-42186D01*
X84946Y-42210D01*
X84970Y-42222D01*
X84589Y-42401D02*
X84732Y-42401D01*
X84660Y-42401D02*
X84660Y-42151D01*
X84684Y-42186D01*
X84708Y-42210D01*
X84732Y-42222D01*
X85434Y-56751D02*
X85291Y-56751D01*
X85363Y-57001D02*
X85363Y-56751D01*
X85208Y-57001D02*
X85208Y-56751D01*
X85113Y-56751D01*
X85089Y-56763D01*
X85077Y-56775D01*
X85065Y-56798D01*
X85065Y-56834D01*
X85077Y-56858D01*
X85089Y-56870D01*
X85113Y-56882D01*
X85208Y-56882D01*
X84827Y-57001D02*
X84970Y-57001D01*
X84898Y-57001D02*
X84898Y-56751D01*
X84922Y-56786D01*
X84946Y-56810D01*
X84970Y-56822D01*
X84672Y-56751D02*
X84648Y-56751D01*
X84625Y-56763D01*
X84613Y-56775D01*
X84601Y-56798D01*
X84589Y-56846D01*
X84589Y-56905D01*
X84601Y-56953D01*
X84613Y-56977D01*
X84625Y-56989D01*
X84648Y-57001D01*
X84672Y-57001D01*
X84696Y-56989D01*
X84708Y-56977D01*
X84720Y-56953D01*
X84732Y-56905D01*
X84732Y-56846D01*
X84720Y-56798D01*
X84708Y-56775D01*
X84696Y-56763D01*
X84672Y-56751D01*
X84315Y-56751D02*
X84172Y-56751D01*
X84244Y-57001D02*
X84244Y-56751D01*
X84089Y-57001D02*
X84089Y-56751D01*
X83994Y-56751D01*
X83970Y-56763D01*
X83958Y-56775D01*
X83946Y-56798D01*
X83946Y-56834D01*
X83958Y-56858D01*
X83970Y-56870D01*
X83994Y-56882D01*
X84089Y-56882D01*
X83827Y-57001D02*
X83779Y-57001D01*
X83755Y-56989D01*
X83744Y-56977D01*
X83720Y-56941D01*
X83708Y-56894D01*
X83708Y-56798D01*
X83720Y-56775D01*
X83732Y-56763D01*
X83755Y-56751D01*
X83803Y-56751D01*
X83827Y-56763D01*
X83839Y-56775D01*
X83851Y-56798D01*
X83851Y-56858D01*
X83839Y-56882D01*
X83827Y-56894D01*
X83803Y-56905D01*
X83755Y-56905D01*
X83732Y-56894D01*
X83720Y-56882D01*
X83708Y-56858D01*
X83315Y-56751D02*
X83172Y-56751D01*
X83244Y-57001D02*
X83244Y-56751D01*
X83089Y-57001D02*
X83089Y-56751D01*
X82994Y-56751D01*
X82970Y-56763D01*
X82958Y-56775D01*
X82946Y-56798D01*
X82946Y-56834D01*
X82958Y-56858D01*
X82970Y-56870D01*
X82994Y-56882D01*
X83089Y-56882D01*
X82803Y-56858D02*
X82827Y-56846D01*
X82839Y-56834D01*
X82851Y-56810D01*
X82851Y-56798D01*
X82839Y-56775D01*
X82827Y-56763D01*
X82803Y-56751D01*
X82755Y-56751D01*
X82732Y-56763D01*
X82720Y-56775D01*
X82708Y-56798D01*
X82708Y-56810D01*
X82720Y-56834D01*
X82732Y-56846D01*
X82755Y-56858D01*
X82803Y-56858D01*
X82827Y-56870D01*
X82839Y-56882D01*
X82851Y-56905D01*
X82851Y-56953D01*
X82839Y-56977D01*
X82827Y-56989D01*
X82803Y-57001D01*
X82755Y-57001D01*
X82732Y-56989D01*
X82720Y-56977D01*
X82708Y-56953D01*
X82708Y-56905D01*
X82720Y-56882D01*
X82732Y-56870D01*
X82755Y-56858D01*
X82315Y-56751D02*
X82172Y-56751D01*
X82244Y-57001D02*
X82244Y-56751D01*
X82089Y-57001D02*
X82089Y-56751D01*
X81994Y-56751D01*
X81970Y-56763D01*
X81958Y-56775D01*
X81946Y-56798D01*
X81946Y-56834D01*
X81958Y-56858D01*
X81970Y-56870D01*
X81994Y-56882D01*
X82089Y-56882D01*
X81863Y-56751D02*
X81696Y-56751D01*
X81803Y-57001D01*
X81315Y-56751D02*
X81172Y-56751D01*
X81244Y-57001D02*
X81244Y-56751D01*
X81089Y-57001D02*
X81089Y-56751D01*
X80994Y-56751D01*
X80970Y-56763D01*
X80958Y-56775D01*
X80946Y-56798D01*
X80946Y-56834D01*
X80958Y-56858D01*
X80970Y-56870D01*
X80994Y-56882D01*
X81089Y-56882D01*
X80732Y-56751D02*
X80779Y-56751D01*
X80803Y-56763D01*
X80815Y-56775D01*
X80839Y-56810D01*
X80851Y-56858D01*
X80851Y-56953D01*
X80839Y-56977D01*
X80827Y-56989D01*
X80803Y-57001D01*
X80755Y-57001D01*
X80732Y-56989D01*
X80720Y-56977D01*
X80708Y-56953D01*
X80708Y-56894D01*
X80720Y-56870D01*
X80732Y-56858D01*
X80755Y-56846D01*
X80803Y-56846D01*
X80827Y-56858D01*
X80839Y-56870D01*
X80851Y-56894D01*
X80315Y-56751D02*
X80172Y-56751D01*
X80244Y-57001D02*
X80244Y-56751D01*
X80089Y-57001D02*
X80089Y-56751D01*
X79994Y-56751D01*
X79970Y-56763D01*
X79958Y-56775D01*
X79946Y-56798D01*
X79946Y-56834D01*
X79958Y-56858D01*
X79970Y-56870D01*
X79994Y-56882D01*
X80089Y-56882D01*
X79720Y-56751D02*
X79839Y-56751D01*
X79851Y-56870D01*
X79839Y-56858D01*
X79815Y-56846D01*
X79755Y-56846D01*
X79732Y-56858D01*
X79720Y-56870D01*
X79708Y-56894D01*
X79708Y-56953D01*
X79720Y-56977D01*
X79732Y-56989D01*
X79755Y-57001D01*
X79815Y-57001D01*
X79839Y-56989D01*
X79851Y-56977D01*
X66565Y-48651D02*
X66422Y-48651D01*
X66494Y-48901D02*
X66494Y-48651D01*
X66339Y-48901D02*
X66339Y-48651D01*
X66244Y-48651D01*
X66220Y-48663D01*
X66208Y-48675D01*
X66196Y-48698D01*
X66196Y-48734D01*
X66208Y-48758D01*
X66220Y-48770D01*
X66244Y-48782D01*
X66339Y-48782D01*
X65958Y-48901D02*
X66101Y-48901D01*
X66029Y-48901D02*
X66029Y-48651D01*
X66053Y-48686D01*
X66077Y-48710D01*
X66101Y-48722D01*
X60065Y-45201D02*
X59922Y-45201D01*
X59994Y-45451D02*
X59994Y-45201D01*
X59839Y-45451D02*
X59839Y-45201D01*
X59744Y-45201D01*
X59720Y-45213D01*
X59708Y-45225D01*
X59696Y-45248D01*
X59696Y-45284D01*
X59708Y-45308D01*
X59720Y-45320D01*
X59744Y-45332D01*
X59839Y-45332D01*
X59482Y-45284D02*
X59482Y-45451D01*
X59541Y-45189D02*
X59601Y-45367D01*
X59446Y-45367D01*
X80434Y-42151D02*
X80291Y-42151D01*
X80363Y-42401D02*
X80363Y-42151D01*
X80208Y-42401D02*
X80208Y-42151D01*
X80113Y-42151D01*
X80089Y-42163D01*
X80077Y-42175D01*
X80065Y-42198D01*
X80065Y-42234D01*
X80077Y-42258D01*
X80089Y-42270D01*
X80113Y-42282D01*
X80208Y-42282D01*
X79827Y-42401D02*
X79970Y-42401D01*
X79898Y-42401D02*
X79898Y-42151D01*
X79922Y-42186D01*
X79946Y-42210D01*
X79970Y-42222D01*
X79613Y-42151D02*
X79660Y-42151D01*
X79684Y-42163D01*
X79696Y-42175D01*
X79720Y-42210D01*
X79732Y-42258D01*
X79732Y-42353D01*
X79720Y-42377D01*
X79708Y-42389D01*
X79684Y-42401D01*
X79636Y-42401D01*
X79613Y-42389D01*
X79601Y-42377D01*
X79589Y-42353D01*
X79589Y-42294D01*
X79601Y-42270D01*
X79613Y-42258D01*
X79636Y-42246D01*
X79684Y-42246D01*
X79708Y-42258D01*
X79720Y-42270D01*
X79732Y-42294D01*
X82434Y-42151D02*
X82291Y-42151D01*
X82363Y-42401D02*
X82363Y-42151D01*
X82208Y-42401D02*
X82208Y-42151D01*
X82113Y-42151D01*
X82089Y-42163D01*
X82077Y-42175D01*
X82065Y-42198D01*
X82065Y-42234D01*
X82077Y-42258D01*
X82089Y-42270D01*
X82113Y-42282D01*
X82208Y-42282D01*
X81827Y-42401D02*
X81970Y-42401D01*
X81898Y-42401D02*
X81898Y-42151D01*
X81922Y-42186D01*
X81946Y-42210D01*
X81970Y-42222D01*
X81613Y-42234D02*
X81613Y-42401D01*
X81672Y-42139D02*
X81732Y-42317D01*
X81577Y-42317D01*
X79434Y-42151D02*
X79291Y-42151D01*
X79363Y-42401D02*
X79363Y-42151D01*
X79208Y-42401D02*
X79208Y-42151D01*
X79113Y-42151D01*
X79089Y-42163D01*
X79077Y-42175D01*
X79065Y-42198D01*
X79065Y-42234D01*
X79077Y-42258D01*
X79089Y-42270D01*
X79113Y-42282D01*
X79208Y-42282D01*
X78827Y-42401D02*
X78970Y-42401D01*
X78898Y-42401D02*
X78898Y-42151D01*
X78922Y-42186D01*
X78946Y-42210D01*
X78970Y-42222D01*
X78744Y-42151D02*
X78577Y-42151D01*
X78684Y-42401D01*
X63434Y-53551D02*
X63291Y-53551D01*
X63363Y-53801D02*
X63363Y-53551D01*
X63208Y-53801D02*
X63208Y-53551D01*
X63113Y-53551D01*
X63089Y-53563D01*
X63077Y-53575D01*
X63065Y-53598D01*
X63065Y-53634D01*
X63077Y-53658D01*
X63089Y-53670D01*
X63113Y-53682D01*
X63208Y-53682D01*
X62970Y-53575D02*
X62958Y-53563D01*
X62934Y-53551D01*
X62875Y-53551D01*
X62851Y-53563D01*
X62839Y-53575D01*
X62827Y-53598D01*
X62827Y-53622D01*
X62839Y-53658D01*
X62982Y-53801D01*
X62827Y-53801D01*
X62589Y-53801D02*
X62732Y-53801D01*
X62660Y-53801D02*
X62660Y-53551D01*
X62684Y-53586D01*
X62708Y-53610D01*
X62732Y-53622D01*
X62584Y-56951D02*
X62441Y-56951D01*
X62513Y-57201D02*
X62513Y-56951D01*
X62358Y-57201D02*
X62358Y-56951D01*
X62263Y-56951D01*
X62239Y-56963D01*
X62227Y-56975D01*
X62215Y-56998D01*
X62215Y-57034D01*
X62227Y-57058D01*
X62239Y-57070D01*
X62263Y-57082D01*
X62358Y-57082D01*
X62120Y-56975D02*
X62108Y-56963D01*
X62084Y-56951D01*
X62025Y-56951D01*
X62001Y-56963D01*
X61989Y-56975D01*
X61977Y-56998D01*
X61977Y-57022D01*
X61989Y-57058D01*
X62132Y-57201D01*
X61977Y-57201D01*
X61822Y-56951D02*
X61798Y-56951D01*
X61775Y-56963D01*
X61763Y-56975D01*
X61751Y-56998D01*
X61739Y-57046D01*
X61739Y-57105D01*
X61751Y-57153D01*
X61763Y-57177D01*
X61775Y-57189D01*
X61798Y-57201D01*
X61822Y-57201D01*
X61846Y-57189D01*
X61858Y-57177D01*
X61870Y-57153D01*
X61882Y-57105D01*
X61882Y-57046D01*
X61870Y-56998D01*
X61858Y-56975D01*
X61846Y-56963D01*
X61822Y-56951D01*
X76834Y-42151D02*
X76691Y-42151D01*
X76763Y-42401D02*
X76763Y-42151D01*
X76608Y-42401D02*
X76608Y-42151D01*
X76513Y-42151D01*
X76489Y-42163D01*
X76477Y-42175D01*
X76465Y-42198D01*
X76465Y-42234D01*
X76477Y-42258D01*
X76489Y-42270D01*
X76513Y-42282D01*
X76608Y-42282D01*
X76227Y-42401D02*
X76370Y-42401D01*
X76298Y-42401D02*
X76298Y-42151D01*
X76322Y-42186D01*
X76346Y-42210D01*
X76370Y-42222D01*
X76108Y-42401D02*
X76060Y-42401D01*
X76036Y-42389D01*
X76025Y-42377D01*
X76001Y-42341D01*
X75989Y-42294D01*
X75989Y-42198D01*
X76001Y-42175D01*
X76013Y-42163D01*
X76036Y-42151D01*
X76084Y-42151D01*
X76108Y-42163D01*
X76120Y-42175D01*
X76132Y-42198D01*
X76132Y-42258D01*
X76120Y-42282D01*
X76108Y-42294D01*
X76084Y-42305D01*
X76036Y-42305D01*
X76013Y-42294D01*
X76001Y-42282D01*
X75989Y-42258D01*
X78434Y-42151D02*
X78291Y-42151D01*
X78363Y-42401D02*
X78363Y-42151D01*
X78208Y-42401D02*
X78208Y-42151D01*
X78113Y-42151D01*
X78089Y-42163D01*
X78077Y-42175D01*
X78065Y-42198D01*
X78065Y-42234D01*
X78077Y-42258D01*
X78089Y-42270D01*
X78113Y-42282D01*
X78208Y-42282D01*
X77827Y-42401D02*
X77970Y-42401D01*
X77898Y-42401D02*
X77898Y-42151D01*
X77922Y-42186D01*
X77946Y-42210D01*
X77970Y-42222D01*
X77684Y-42258D02*
X77708Y-42246D01*
X77720Y-42234D01*
X77732Y-42210D01*
X77732Y-42198D01*
X77720Y-42175D01*
X77708Y-42163D01*
X77684Y-42151D01*
X77636Y-42151D01*
X77613Y-42163D01*
X77601Y-42175D01*
X77589Y-42198D01*
X77589Y-42210D01*
X77601Y-42234D01*
X77613Y-42246D01*
X77636Y-42258D01*
X77684Y-42258D01*
X77708Y-42270D01*
X77720Y-42282D01*
X77732Y-42305D01*
X77732Y-42353D01*
X77720Y-42377D01*
X77708Y-42389D01*
X77684Y-42401D01*
X77636Y-42401D01*
X77613Y-42389D01*
X77601Y-42377D01*
X77589Y-42353D01*
X77589Y-42305D01*
X77601Y-42282D01*
X77613Y-42270D01*
X77636Y-42258D01*
X60184Y-47551D02*
X60041Y-47551D01*
X60113Y-47801D02*
X60113Y-47551D01*
X59958Y-47801D02*
X59958Y-47551D01*
X59863Y-47551D01*
X59839Y-47563D01*
X59827Y-47575D01*
X59815Y-47598D01*
X59815Y-47634D01*
X59827Y-47658D01*
X59839Y-47670D01*
X59863Y-47682D01*
X59958Y-47682D01*
X59720Y-47575D02*
X59708Y-47563D01*
X59684Y-47551D01*
X59625Y-47551D01*
X59601Y-47563D01*
X59589Y-47575D01*
X59577Y-47598D01*
X59577Y-47622D01*
X59589Y-47658D01*
X59732Y-47801D01*
X59577Y-47801D01*
X59482Y-47575D02*
X59470Y-47563D01*
X59446Y-47551D01*
X59386Y-47551D01*
X59363Y-47563D01*
X59351Y-47575D01*
X59339Y-47598D01*
X59339Y-47622D01*
X59351Y-47658D01*
X59494Y-47801D01*
X59339Y-47801D01*
X59184Y-41551D02*
X59041Y-41551D01*
X59113Y-41801D02*
X59113Y-41551D01*
X58958Y-41801D02*
X58958Y-41551D01*
X58863Y-41551D01*
X58839Y-41563D01*
X58827Y-41575D01*
X58815Y-41598D01*
X58815Y-41634D01*
X58827Y-41658D01*
X58839Y-41670D01*
X58863Y-41682D01*
X58958Y-41682D01*
X58720Y-41575D02*
X58708Y-41563D01*
X58684Y-41551D01*
X58625Y-41551D01*
X58601Y-41563D01*
X58589Y-41575D01*
X58577Y-41598D01*
X58577Y-41622D01*
X58589Y-41658D01*
X58732Y-41801D01*
X58577Y-41801D01*
X58494Y-41551D02*
X58339Y-41551D01*
X58422Y-41646D01*
X58386Y-41646D01*
X58363Y-41658D01*
X58351Y-41670D01*
X58339Y-41694D01*
X58339Y-41753D01*
X58351Y-41777D01*
X58363Y-41789D01*
X58386Y-41801D01*
X58458Y-41801D01*
X58482Y-41789D01*
X58494Y-41777D01*
X60065Y-44401D02*
X59922Y-44401D01*
X59994Y-44651D02*
X59994Y-44401D01*
X59839Y-44651D02*
X59839Y-44401D01*
X59744Y-44401D01*
X59720Y-44413D01*
X59708Y-44425D01*
X59696Y-44448D01*
X59696Y-44484D01*
X59708Y-44508D01*
X59720Y-44520D01*
X59744Y-44532D01*
X59839Y-44532D01*
X59613Y-44401D02*
X59458Y-44401D01*
X59541Y-44496D01*
X59505Y-44496D01*
X59482Y-44508D01*
X59470Y-44520D01*
X59458Y-44544D01*
X59458Y-44603D01*
X59470Y-44627D01*
X59482Y-44639D01*
X59505Y-44651D01*
X59577Y-44651D01*
X59601Y-44639D01*
X59613Y-44627D01*
X70684Y-47701D02*
X70684Y-47451D01*
X70589Y-47451D01*
X70565Y-47463D01*
X70553Y-47475D01*
X70541Y-47498D01*
X70541Y-47534D01*
X70553Y-47558D01*
X70565Y-47570D01*
X70589Y-47582D01*
X70684Y-47582D01*
X70446Y-47475D02*
X70434Y-47463D01*
X70410Y-47451D01*
X70351Y-47451D01*
X70327Y-47463D01*
X70315Y-47475D01*
X70303Y-47498D01*
X70303Y-47522D01*
X70315Y-47558D01*
X70458Y-47701D01*
X70303Y-47701D01*
X86558Y-40020D02*
X86641Y-40020D01*
X86641Y-40151D02*
X86641Y-39901D01*
X86522Y-39901D01*
X86427Y-40151D02*
X86427Y-39901D01*
X86367Y-39901D01*
X86332Y-39913D01*
X86308Y-39936D01*
X86296Y-39960D01*
X86284Y-40008D01*
X86284Y-40044D01*
X86296Y-40091D01*
X86308Y-40115D01*
X86332Y-40139D01*
X86367Y-40151D01*
X86427Y-40151D01*
X86070Y-39901D02*
X86117Y-39901D01*
X86141Y-39913D01*
X86153Y-39925D01*
X86177Y-39960D01*
X86189Y-40008D01*
X86189Y-40103D01*
X86177Y-40127D01*
X86165Y-40139D01*
X86141Y-40151D01*
X86094Y-40151D01*
X86070Y-40139D01*
X86058Y-40127D01*
X86046Y-40103D01*
X86046Y-40044D01*
X86058Y-40020D01*
X86070Y-40008D01*
X86094Y-39996D01*
X86141Y-39996D01*
X86165Y-40008D01*
X86177Y-40020D01*
X86189Y-40044D01*
X86558Y-58970D02*
X86641Y-58970D01*
X86641Y-59101D02*
X86641Y-58851D01*
X86522Y-58851D01*
X86427Y-59101D02*
X86427Y-58851D01*
X86367Y-58851D01*
X86332Y-58863D01*
X86308Y-58886D01*
X86296Y-58910D01*
X86284Y-58958D01*
X86284Y-58994D01*
X86296Y-59041D01*
X86308Y-59065D01*
X86332Y-59089D01*
X86367Y-59101D01*
X86427Y-59101D01*
X86058Y-58851D02*
X86177Y-58851D01*
X86189Y-58970D01*
X86177Y-58958D01*
X86153Y-58946D01*
X86094Y-58946D01*
X86070Y-58958D01*
X86058Y-58970D01*
X86046Y-58994D01*
X86046Y-59053D01*
X86058Y-59077D01*
X86070Y-59089D01*
X86094Y-59101D01*
X86153Y-59101D01*
X86177Y-59089D01*
X86189Y-59077D01*
X58158Y-58970D02*
X58241Y-58970D01*
X58241Y-59101D02*
X58241Y-58851D01*
X58122Y-58851D01*
X58027Y-59101D02*
X58027Y-58851D01*
X57967Y-58851D01*
X57932Y-58863D01*
X57908Y-58886D01*
X57896Y-58910D01*
X57884Y-58958D01*
X57884Y-58994D01*
X57896Y-59041D01*
X57908Y-59065D01*
X57932Y-59089D01*
X57967Y-59101D01*
X58027Y-59101D01*
X57670Y-58934D02*
X57670Y-59101D01*
X57729Y-58839D02*
X57789Y-59017D01*
X57634Y-59017D01*
G54D10*
G36*
X83647Y-51813D02*
X81383Y-51813D01*
X81383Y-50309D01*
X83647Y-50309D01*
X83647Y-51813D01*
X83647Y-51813D01*
G37*
G54D15*
X83647Y-51813D02*
X81383Y-51813D01*
X81383Y-50309D01*
X83647Y-50309D01*
X83647Y-51813D01*
%LPC*%
G54D16*
X85000Y-46000D03*
X64200Y-58200D03*
X61450Y-41000D03*
X85000Y-55000D03*
G54D17*
X81000Y-41000D03*
X83000Y-41000D03*
X84000Y-41000D03*
X68250Y-41450D03*
X85000Y-41000D03*
X85000Y-58200D03*
X84000Y-58200D03*
X83000Y-58200D03*
X82000Y-58200D03*
X81000Y-58200D03*
X80000Y-58200D03*
X66250Y-48100D03*
X59750Y-46000D03*
X80000Y-41000D03*
X82000Y-41000D03*
X79000Y-41000D03*
X63000Y-53000D03*
X62150Y-56400D03*
X76400Y-41000D03*
X78000Y-41000D03*
X59750Y-47000D03*
X58750Y-40950D03*
X59750Y-43850D03*
G54D18*
X71856Y-59900D03*
X71462Y-59900D03*
X72250Y-59900D03*
X72643Y-59900D03*
X73037Y-59900D03*
X72643Y-39100D03*
X73037Y-39100D03*
X72250Y-39100D03*
X71856Y-39100D03*
X71462Y-39100D03*
X57600Y-49106D03*
X57600Y-48712D03*
X57600Y-49500D03*
X57600Y-49893D03*
X57600Y-50287D03*
X86900Y-49893D03*
X86900Y-50287D03*
X86900Y-49500D03*
X86900Y-49106D03*
X86900Y-48712D03*
G54D19*
X80000Y-59000D03*
G54D20*
X81000Y-59000D03*
X82000Y-59000D03*
X83000Y-59000D03*
X84000Y-59000D03*
X85000Y-59000D03*
G54D19*
X85000Y-40000D03*
G54D20*
X84000Y-40000D03*
X83000Y-40000D03*
X82000Y-40000D03*
X81000Y-40000D03*
X80000Y-40000D03*
X79000Y-40000D03*
X78000Y-40000D03*
G54D19*
X76400Y-40000D03*
G54D20*
X75400Y-40000D03*
X74400Y-40000D03*
X73400Y-40000D03*
X72400Y-40000D03*
X71400Y-40000D03*
X70400Y-40000D03*
X69400Y-40000D03*
X68400Y-40000D03*
X67400Y-40000D03*
G54D19*
X71000Y-59000D03*
G54D20*
X72000Y-59000D03*
X73000Y-59000D03*
X74000Y-59000D03*
X75000Y-59000D03*
X76000Y-59000D03*
X77000Y-59000D03*
X78000Y-59000D03*
G54D21*
X70300Y-49800D03*
X70300Y-50800D03*
X70300Y-51800D03*
X70300Y-52800D03*
X70300Y-53800D03*
X70300Y-54800D03*
X70300Y-55800D03*
X67600Y-55800D03*
X67600Y-54800D03*
X67600Y-53800D03*
X67600Y-52800D03*
X67600Y-51800D03*
X67600Y-50800D03*
X67600Y-49800D03*
G54D22*
X86350Y-39450D03*
X86350Y-59550D03*
X57950Y-59550D03*
G54D23*
X58750Y-46000D03*
X58750Y-47000D03*
X58750Y-44850D03*
X58750Y-43850D03*
M02*
