G04 (created by PCBNEW (2013-07-07 BZR 4022)-stable) date 10/26/2016 2:07:04 AM*
%MOIN*%
G04 Gerber Fmt 3.4, Leading zero omitted, Abs format*
%FSLAX34Y34*%
G01*
G70*
G90*
G04 APERTURE LIST*
%ADD10C,0.005*%
%ADD11C,0.00393701*%
%ADD12C,0.00787402*%
%ADD13C,0.011811*%
G04 APERTURE END LIST*
G54D10*
G54D11*
X57500Y-39000D02*
X57500Y-60000D01*
X87000Y-39000D02*
X57500Y-39000D01*
X87000Y-60000D02*
X87000Y-39000D01*
X57500Y-60000D02*
X87000Y-60000D01*
G54D12*
X57735Y-52285D02*
X57865Y-52415D01*
X57865Y-52285D02*
X57735Y-52415D01*
X57735Y-56935D02*
X57865Y-57065D01*
X57865Y-56935D02*
X57735Y-57065D01*
X58135Y-52285D02*
X58265Y-52415D01*
X58265Y-52285D02*
X58135Y-52415D01*
X58185Y-56935D02*
X58315Y-57065D01*
X58315Y-56935D02*
X58185Y-57065D01*
X58235Y-58485D02*
X58365Y-58615D01*
X58365Y-58485D02*
X58235Y-58615D01*
X58335Y-42585D02*
X58465Y-42715D01*
X58465Y-42585D02*
X58335Y-42715D01*
X58535Y-56935D02*
X58665Y-57065D01*
X58665Y-56935D02*
X58535Y-57065D01*
X59035Y-51285D02*
X59165Y-51415D01*
X59165Y-51285D02*
X59035Y-51415D01*
X59085Y-47835D02*
X59215Y-47965D01*
X59215Y-47835D02*
X59085Y-47965D01*
X59085Y-57885D02*
X59215Y-58015D01*
X59215Y-57885D02*
X59085Y-58015D01*
X59485Y-48935D02*
X59615Y-49065D01*
X59615Y-48935D02*
X59485Y-49065D01*
X59585Y-39935D02*
X59715Y-40065D01*
X59715Y-39935D02*
X59585Y-40065D01*
X59635Y-42035D02*
X59765Y-42165D01*
X59765Y-42035D02*
X59635Y-42165D01*
X59935Y-57835D02*
X60065Y-57965D01*
X60065Y-57835D02*
X59935Y-57965D01*
X60285Y-48935D02*
X60415Y-49065D01*
X60415Y-48935D02*
X60285Y-49065D01*
X60285Y-51285D02*
X60415Y-51415D01*
X60415Y-51285D02*
X60285Y-51415D01*
X60335Y-53535D02*
X60465Y-53665D01*
X60465Y-53535D02*
X60335Y-53665D01*
X60335Y-55735D02*
X60465Y-55865D01*
X60465Y-55735D02*
X60335Y-55865D01*
X60535Y-58485D02*
X60665Y-58615D01*
X60665Y-58485D02*
X60535Y-58615D01*
X60535Y-59035D02*
X60665Y-59165D01*
X60665Y-59035D02*
X60535Y-59165D01*
X60685Y-42635D02*
X60815Y-42765D01*
X60815Y-42635D02*
X60685Y-42765D01*
X60685Y-43135D02*
X60815Y-43265D01*
X60815Y-43135D02*
X60685Y-43265D01*
X60685Y-43585D02*
X60815Y-43715D01*
X60815Y-43585D02*
X60685Y-43715D01*
X60685Y-44085D02*
X60815Y-44215D01*
X60815Y-44085D02*
X60685Y-44215D01*
X60685Y-44585D02*
X60815Y-44715D01*
X60815Y-44585D02*
X60685Y-44715D01*
X60685Y-45085D02*
X60815Y-45215D01*
X60815Y-45085D02*
X60685Y-45215D01*
X60685Y-45585D02*
X60815Y-45715D01*
X60815Y-45585D02*
X60685Y-45715D01*
X60685Y-46885D02*
X60815Y-47015D01*
X60815Y-46885D02*
X60685Y-47015D01*
X60685Y-47385D02*
X60815Y-47515D01*
X60815Y-47385D02*
X60685Y-47515D01*
X61035Y-46335D02*
X61165Y-46465D01*
X61165Y-46335D02*
X61035Y-46465D01*
X61185Y-42635D02*
X61315Y-42765D01*
X61315Y-42635D02*
X61185Y-42765D01*
X61185Y-51285D02*
X61315Y-51415D01*
X61315Y-51285D02*
X61185Y-51415D01*
X61235Y-55735D02*
X61365Y-55865D01*
X61365Y-55735D02*
X61235Y-55865D01*
X61385Y-47385D02*
X61515Y-47515D01*
X61515Y-47385D02*
X61385Y-47515D01*
X61385Y-57785D02*
X61515Y-57915D01*
X61515Y-57785D02*
X61385Y-57915D01*
X61435Y-43335D02*
X61565Y-43465D01*
X61565Y-43335D02*
X61435Y-43465D01*
X61485Y-57185D02*
X61615Y-57315D01*
X61615Y-57185D02*
X61485Y-57315D01*
X61635Y-53535D02*
X61765Y-53665D01*
X61765Y-53535D02*
X61635Y-53665D01*
X61635Y-55735D02*
X61765Y-55865D01*
X61765Y-55735D02*
X61635Y-55865D01*
X61685Y-42635D02*
X61815Y-42765D01*
X61815Y-42635D02*
X61685Y-42765D01*
X61835Y-43785D02*
X61965Y-43915D01*
X61965Y-43785D02*
X61835Y-43915D01*
X61885Y-47385D02*
X62015Y-47515D01*
X62015Y-47385D02*
X61885Y-47515D01*
X61985Y-50585D02*
X62115Y-50715D01*
X62115Y-50585D02*
X61985Y-50715D01*
X62035Y-42785D02*
X62165Y-42915D01*
X62165Y-42785D02*
X62035Y-42915D01*
X62085Y-42385D02*
X62215Y-42515D01*
X62215Y-42385D02*
X62085Y-42515D01*
X62135Y-53585D02*
X62265Y-53715D01*
X62265Y-53585D02*
X62135Y-53715D01*
X62135Y-53985D02*
X62265Y-54115D01*
X62265Y-53985D02*
X62135Y-54115D01*
X62135Y-54385D02*
X62265Y-54515D01*
X62265Y-54385D02*
X62135Y-54515D01*
X62385Y-47385D02*
X62515Y-47515D01*
X62515Y-47385D02*
X62385Y-47515D01*
X62385Y-47885D02*
X62515Y-48015D01*
X62515Y-47885D02*
X62385Y-48015D01*
X62435Y-52935D02*
X62565Y-53065D01*
X62565Y-52935D02*
X62435Y-53065D01*
X62485Y-43135D02*
X62615Y-43265D01*
X62615Y-43135D02*
X62485Y-43265D01*
X62485Y-51835D02*
X62615Y-51965D01*
X62615Y-51835D02*
X62485Y-51965D01*
X62535Y-41935D02*
X62665Y-42065D01*
X62665Y-41935D02*
X62535Y-42065D01*
X62535Y-56335D02*
X62665Y-56465D01*
X62665Y-56335D02*
X62535Y-56465D01*
X62685Y-39335D02*
X62815Y-39465D01*
X62815Y-39335D02*
X62685Y-39465D01*
X62685Y-39885D02*
X62815Y-40015D01*
X62815Y-39885D02*
X62685Y-40015D01*
X62785Y-42335D02*
X62915Y-42465D01*
X62915Y-42335D02*
X62785Y-42465D01*
X62835Y-41535D02*
X62965Y-41665D01*
X62965Y-41535D02*
X62835Y-41665D01*
X62835Y-41935D02*
X62965Y-42065D01*
X62965Y-41935D02*
X62835Y-42065D01*
X62885Y-47885D02*
X63015Y-48015D01*
X63015Y-47885D02*
X62885Y-48015D01*
X62885Y-48385D02*
X63015Y-48515D01*
X63015Y-48385D02*
X62885Y-48515D01*
X62885Y-48885D02*
X63015Y-49015D01*
X63015Y-48885D02*
X62885Y-49015D01*
X62885Y-49385D02*
X63015Y-49515D01*
X63015Y-49385D02*
X62885Y-49515D01*
X62885Y-50185D02*
X63015Y-50315D01*
X63015Y-50185D02*
X62885Y-50315D01*
X62885Y-50935D02*
X63015Y-51065D01*
X63015Y-50935D02*
X62885Y-51065D01*
X62935Y-40385D02*
X63065Y-40515D01*
X63065Y-40385D02*
X62935Y-40515D01*
X62935Y-40885D02*
X63065Y-41015D01*
X63065Y-40885D02*
X62935Y-41015D01*
X62985Y-44035D02*
X63115Y-44165D01*
X63115Y-44035D02*
X62985Y-44165D01*
X62985Y-44635D02*
X63115Y-44765D01*
X63115Y-44635D02*
X62985Y-44765D01*
X63335Y-43635D02*
X63465Y-43765D01*
X63465Y-43635D02*
X63335Y-43765D01*
X63385Y-50935D02*
X63515Y-51065D01*
X63515Y-50935D02*
X63385Y-51065D01*
X63435Y-55735D02*
X63565Y-55865D01*
X63565Y-55735D02*
X63435Y-55865D01*
X63485Y-44635D02*
X63615Y-44765D01*
X63615Y-44635D02*
X63485Y-44765D01*
X63485Y-53985D02*
X63615Y-54115D01*
X63615Y-53985D02*
X63485Y-54115D01*
X63585Y-42085D02*
X63715Y-42215D01*
X63715Y-42085D02*
X63585Y-42215D01*
X63885Y-43285D02*
X64015Y-43415D01*
X64015Y-43285D02*
X63885Y-43415D01*
X63885Y-50935D02*
X64015Y-51065D01*
X64015Y-50935D02*
X63885Y-51065D01*
X63935Y-52535D02*
X64065Y-52665D01*
X64065Y-52535D02*
X63935Y-52665D01*
X63985Y-48035D02*
X64115Y-48165D01*
X64115Y-48035D02*
X63985Y-48165D01*
X64035Y-53085D02*
X64165Y-53215D01*
X64165Y-53085D02*
X64035Y-53215D01*
X64185Y-41885D02*
X64315Y-42015D01*
X64315Y-41885D02*
X64185Y-42015D01*
X64185Y-55935D02*
X64315Y-56065D01*
X64315Y-55935D02*
X64185Y-56065D01*
X64385Y-50935D02*
X64515Y-51065D01*
X64515Y-50935D02*
X64385Y-51065D01*
X64435Y-42935D02*
X64565Y-43065D01*
X64565Y-42935D02*
X64435Y-43065D01*
X64485Y-52535D02*
X64615Y-52665D01*
X64615Y-52535D02*
X64485Y-52665D01*
X64485Y-53885D02*
X64615Y-54015D01*
X64615Y-53885D02*
X64485Y-54015D01*
X64635Y-44635D02*
X64765Y-44765D01*
X64765Y-44635D02*
X64635Y-44765D01*
X64635Y-47685D02*
X64765Y-47815D01*
X64765Y-47685D02*
X64635Y-47815D01*
X64685Y-40135D02*
X64815Y-40265D01*
X64815Y-40135D02*
X64685Y-40265D01*
X64685Y-54385D02*
X64815Y-54515D01*
X64815Y-54385D02*
X64685Y-54515D01*
X64685Y-55185D02*
X64815Y-55315D01*
X64815Y-55185D02*
X64685Y-55315D01*
X64685Y-55535D02*
X64815Y-55665D01*
X64815Y-55535D02*
X64685Y-55665D01*
X64835Y-41135D02*
X64965Y-41265D01*
X64965Y-41135D02*
X64835Y-41265D01*
X64835Y-45685D02*
X64965Y-45815D01*
X64965Y-45685D02*
X64835Y-45815D01*
X64835Y-46085D02*
X64965Y-46215D01*
X64965Y-46085D02*
X64835Y-46215D01*
X64835Y-46885D02*
X64965Y-47015D01*
X64965Y-46885D02*
X64835Y-47015D01*
X64835Y-48685D02*
X64965Y-48815D01*
X64965Y-48685D02*
X64835Y-48815D01*
X64985Y-54735D02*
X65115Y-54865D01*
X65115Y-54735D02*
X64985Y-54865D01*
X65035Y-54385D02*
X65165Y-54515D01*
X65165Y-54385D02*
X65035Y-54515D01*
X65085Y-43285D02*
X65215Y-43415D01*
X65215Y-43285D02*
X65085Y-43415D01*
X65085Y-50935D02*
X65215Y-51065D01*
X65215Y-50935D02*
X65085Y-51065D01*
X65135Y-40135D02*
X65265Y-40265D01*
X65265Y-40135D02*
X65135Y-40265D01*
X65235Y-47235D02*
X65365Y-47365D01*
X65365Y-47235D02*
X65235Y-47365D01*
X65385Y-53185D02*
X65515Y-53315D01*
X65515Y-53185D02*
X65385Y-53315D01*
X65435Y-52385D02*
X65565Y-52515D01*
X65565Y-52385D02*
X65435Y-52515D01*
X65585Y-49435D02*
X65715Y-49565D01*
X65715Y-49435D02*
X65585Y-49565D01*
X65585Y-49935D02*
X65715Y-50065D01*
X65715Y-49935D02*
X65585Y-50065D01*
X65585Y-50285D02*
X65715Y-50415D01*
X65715Y-50285D02*
X65585Y-50415D01*
X65585Y-50935D02*
X65715Y-51065D01*
X65715Y-50935D02*
X65585Y-51065D01*
X65635Y-41135D02*
X65765Y-41265D01*
X65765Y-41135D02*
X65635Y-41265D01*
X65635Y-48435D02*
X65765Y-48565D01*
X65765Y-48435D02*
X65635Y-48565D01*
X65635Y-48935D02*
X65765Y-49065D01*
X65765Y-48935D02*
X65635Y-49065D01*
X65885Y-47985D02*
X66015Y-48115D01*
X66015Y-47985D02*
X65885Y-48115D01*
X65885Y-53185D02*
X66015Y-53315D01*
X66015Y-53185D02*
X65885Y-53315D01*
X65935Y-42585D02*
X66065Y-42715D01*
X66065Y-42585D02*
X65935Y-42715D01*
X66035Y-56285D02*
X66165Y-56415D01*
X66165Y-56285D02*
X66035Y-56415D01*
X66185Y-43135D02*
X66315Y-43265D01*
X66315Y-43135D02*
X66185Y-43265D01*
X66185Y-50735D02*
X66315Y-50865D01*
X66315Y-50735D02*
X66185Y-50865D01*
X66335Y-52735D02*
X66465Y-52865D01*
X66465Y-52735D02*
X66335Y-52865D01*
X66585Y-42385D02*
X66715Y-42515D01*
X66715Y-42385D02*
X66585Y-42515D01*
X66685Y-43135D02*
X66815Y-43265D01*
X66815Y-43135D02*
X66685Y-43265D01*
X66835Y-39335D02*
X66965Y-39465D01*
X66965Y-39335D02*
X66835Y-39465D01*
X66985Y-56985D02*
X67115Y-57115D01*
X67115Y-56985D02*
X66985Y-57115D01*
X67035Y-46235D02*
X67165Y-46365D01*
X67165Y-46235D02*
X67035Y-46365D01*
X67035Y-46635D02*
X67165Y-46765D01*
X67165Y-46635D02*
X67035Y-46765D01*
X67035Y-47135D02*
X67165Y-47265D01*
X67165Y-47135D02*
X67035Y-47265D01*
X67035Y-47635D02*
X67165Y-47765D01*
X67165Y-47635D02*
X67035Y-47765D01*
X67035Y-48135D02*
X67165Y-48265D01*
X67165Y-48135D02*
X67035Y-48265D01*
X67185Y-42385D02*
X67315Y-42515D01*
X67315Y-42385D02*
X67185Y-42515D01*
X67185Y-43135D02*
X67315Y-43265D01*
X67315Y-43135D02*
X67185Y-43265D01*
X67335Y-57235D02*
X67465Y-57365D01*
X67465Y-57235D02*
X67335Y-57365D01*
X67535Y-41335D02*
X67665Y-41465D01*
X67665Y-41335D02*
X67535Y-41465D01*
X67535Y-43485D02*
X67665Y-43615D01*
X67665Y-43485D02*
X67535Y-43615D01*
X67535Y-43985D02*
X67665Y-44115D01*
X67665Y-43985D02*
X67535Y-44115D01*
X67535Y-44485D02*
X67665Y-44615D01*
X67665Y-44485D02*
X67535Y-44615D01*
X67535Y-44985D02*
X67665Y-45115D01*
X67665Y-44985D02*
X67535Y-45115D01*
X67585Y-43135D02*
X67715Y-43265D01*
X67715Y-43135D02*
X67585Y-43265D01*
X67785Y-47385D02*
X67915Y-47515D01*
X67915Y-47385D02*
X67785Y-47515D01*
X67935Y-43685D02*
X68065Y-43815D01*
X68065Y-43685D02*
X67935Y-43815D01*
X67935Y-44985D02*
X68065Y-45115D01*
X68065Y-44985D02*
X67935Y-45115D01*
X67935Y-46035D02*
X68065Y-46165D01*
X68065Y-46035D02*
X67935Y-46165D01*
X68135Y-44185D02*
X68265Y-44315D01*
X68265Y-44185D02*
X68135Y-44315D01*
X68135Y-47385D02*
X68265Y-47515D01*
X68265Y-47385D02*
X68135Y-47515D01*
X68485Y-41885D02*
X68615Y-42015D01*
X68615Y-41885D02*
X68485Y-42015D01*
X68635Y-45385D02*
X68765Y-45515D01*
X68765Y-45385D02*
X68635Y-45515D01*
X68735Y-45735D02*
X68865Y-45865D01*
X68865Y-45735D02*
X68735Y-45865D01*
X68735Y-46285D02*
X68865Y-46415D01*
X68865Y-46285D02*
X68735Y-46415D01*
X68885Y-44235D02*
X69015Y-44365D01*
X69015Y-44235D02*
X68885Y-44365D01*
X68935Y-52935D02*
X69065Y-53065D01*
X69065Y-52935D02*
X68935Y-53065D01*
X68935Y-53585D02*
X69065Y-53715D01*
X69065Y-53585D02*
X68935Y-53715D01*
X69285Y-43685D02*
X69415Y-43815D01*
X69415Y-43685D02*
X69285Y-43815D01*
X69335Y-42285D02*
X69465Y-42415D01*
X69465Y-42285D02*
X69335Y-42415D01*
X69435Y-46535D02*
X69565Y-46665D01*
X69565Y-46535D02*
X69435Y-46665D01*
X69485Y-48985D02*
X69615Y-49115D01*
X69615Y-48985D02*
X69485Y-49115D01*
X69685Y-43385D02*
X69815Y-43515D01*
X69815Y-43385D02*
X69685Y-43515D01*
X69835Y-47235D02*
X69965Y-47365D01*
X69965Y-47235D02*
X69835Y-47365D01*
X70735Y-42235D02*
X70865Y-42365D01*
X70865Y-42235D02*
X70735Y-42365D01*
X71035Y-51235D02*
X71165Y-51365D01*
X71165Y-51235D02*
X71035Y-51365D01*
X71035Y-52235D02*
X71165Y-52365D01*
X71165Y-52235D02*
X71035Y-52365D01*
X71035Y-54235D02*
X71165Y-54365D01*
X71165Y-54235D02*
X71035Y-54365D01*
X71035Y-55235D02*
X71165Y-55365D01*
X71165Y-55235D02*
X71035Y-55365D01*
X71085Y-40885D02*
X71215Y-41015D01*
X71215Y-40885D02*
X71085Y-41015D01*
X71085Y-41285D02*
X71215Y-41415D01*
X71215Y-41285D02*
X71085Y-41415D01*
X71085Y-41685D02*
X71215Y-41815D01*
X71215Y-41685D02*
X71085Y-41815D01*
X71085Y-42185D02*
X71215Y-42315D01*
X71215Y-42185D02*
X71085Y-42315D01*
X71085Y-42535D02*
X71215Y-42665D01*
X71215Y-42535D02*
X71085Y-42665D01*
X71085Y-42935D02*
X71215Y-43065D01*
X71215Y-42935D02*
X71085Y-43065D01*
X71085Y-43335D02*
X71215Y-43465D01*
X71215Y-43335D02*
X71085Y-43465D01*
X71085Y-43735D02*
X71215Y-43865D01*
X71215Y-43735D02*
X71085Y-43865D01*
X71085Y-44135D02*
X71215Y-44265D01*
X71215Y-44135D02*
X71085Y-44265D01*
X71085Y-44535D02*
X71215Y-44665D01*
X71215Y-44535D02*
X71085Y-44665D01*
X71085Y-44935D02*
X71215Y-45065D01*
X71215Y-44935D02*
X71085Y-45065D01*
X71085Y-45335D02*
X71215Y-45465D01*
X71215Y-45335D02*
X71085Y-45465D01*
X71085Y-45735D02*
X71215Y-45865D01*
X71215Y-45735D02*
X71085Y-45865D01*
X71085Y-46135D02*
X71215Y-46265D01*
X71215Y-46135D02*
X71085Y-46265D01*
X71085Y-46535D02*
X71215Y-46665D01*
X71215Y-46535D02*
X71085Y-46665D01*
X71085Y-46935D02*
X71215Y-47065D01*
X71215Y-46935D02*
X71085Y-47065D01*
X71085Y-47335D02*
X71215Y-47465D01*
X71215Y-47335D02*
X71085Y-47465D01*
X71085Y-47735D02*
X71215Y-47865D01*
X71215Y-47735D02*
X71085Y-47865D01*
X71085Y-48135D02*
X71215Y-48265D01*
X71215Y-48135D02*
X71085Y-48265D01*
X71085Y-48535D02*
X71215Y-48665D01*
X71215Y-48535D02*
X71085Y-48665D01*
X71435Y-53735D02*
X71565Y-53865D01*
X71565Y-53735D02*
X71435Y-53865D01*
X71435Y-54735D02*
X71565Y-54865D01*
X71565Y-54735D02*
X71435Y-54865D01*
X71485Y-52685D02*
X71615Y-52815D01*
X71615Y-52685D02*
X71485Y-52815D01*
X71635Y-49085D02*
X71765Y-49215D01*
X71765Y-49085D02*
X71635Y-49215D01*
X71835Y-39935D02*
X71965Y-40065D01*
X71965Y-39935D02*
X71835Y-40065D01*
X72135Y-55535D02*
X72265Y-55665D01*
X72265Y-55535D02*
X72135Y-55665D01*
X72185Y-54285D02*
X72315Y-54415D01*
X72315Y-54285D02*
X72185Y-54415D01*
X72235Y-53385D02*
X72365Y-53515D01*
X72365Y-53385D02*
X72235Y-53515D01*
X72285Y-40885D02*
X72415Y-41015D01*
X72415Y-40885D02*
X72285Y-41015D01*
X72435Y-46685D02*
X72565Y-46815D01*
X72565Y-46685D02*
X72435Y-46815D01*
X72435Y-47085D02*
X72565Y-47215D01*
X72565Y-47085D02*
X72435Y-47215D01*
X72435Y-47485D02*
X72565Y-47615D01*
X72565Y-47485D02*
X72435Y-47615D01*
X72435Y-47885D02*
X72565Y-48015D01*
X72565Y-47885D02*
X72435Y-48015D01*
X72435Y-48335D02*
X72565Y-48465D01*
X72565Y-48335D02*
X72435Y-48465D01*
X72435Y-48735D02*
X72565Y-48865D01*
X72565Y-48735D02*
X72435Y-48865D01*
X72435Y-49135D02*
X72565Y-49265D01*
X72565Y-49135D02*
X72435Y-49265D01*
X72435Y-49535D02*
X72565Y-49665D01*
X72565Y-49535D02*
X72435Y-49665D01*
X72435Y-49935D02*
X72565Y-50065D01*
X72565Y-49935D02*
X72435Y-50065D01*
X72435Y-50335D02*
X72565Y-50465D01*
X72565Y-50335D02*
X72435Y-50465D01*
X72435Y-50735D02*
X72565Y-50865D01*
X72565Y-50735D02*
X72435Y-50865D01*
X72435Y-51135D02*
X72565Y-51265D01*
X72565Y-51135D02*
X72435Y-51265D01*
X72435Y-54735D02*
X72565Y-54865D01*
X72565Y-54735D02*
X72435Y-54865D01*
X72635Y-52535D02*
X72765Y-52665D01*
X72765Y-52535D02*
X72635Y-52665D01*
X72785Y-51485D02*
X72915Y-51615D01*
X72915Y-51485D02*
X72785Y-51615D01*
X72785Y-55785D02*
X72915Y-55915D01*
X72915Y-55785D02*
X72785Y-55915D01*
X72835Y-39935D02*
X72965Y-40065D01*
X72965Y-39935D02*
X72835Y-40065D01*
X72835Y-47485D02*
X72965Y-47615D01*
X72965Y-47485D02*
X72835Y-47615D01*
X73035Y-52535D02*
X73165Y-52665D01*
X73165Y-52535D02*
X73035Y-52665D01*
X73135Y-51885D02*
X73265Y-52015D01*
X73265Y-51885D02*
X73135Y-52015D01*
X73185Y-51485D02*
X73315Y-51615D01*
X73315Y-51485D02*
X73185Y-51615D01*
X73235Y-47485D02*
X73365Y-47615D01*
X73365Y-47485D02*
X73235Y-47615D01*
X73635Y-47485D02*
X73765Y-47615D01*
X73765Y-47485D02*
X73635Y-47615D01*
X73735Y-51085D02*
X73865Y-51215D01*
X73865Y-51085D02*
X73735Y-51215D01*
X73735Y-55835D02*
X73865Y-55965D01*
X73865Y-55835D02*
X73735Y-55965D01*
X73835Y-50285D02*
X73965Y-50415D01*
X73965Y-50285D02*
X73835Y-50415D01*
X73985Y-53685D02*
X74115Y-53815D01*
X74115Y-53685D02*
X73985Y-53815D01*
X74035Y-47485D02*
X74165Y-47615D01*
X74165Y-47485D02*
X74035Y-47615D01*
X74085Y-54985D02*
X74215Y-55115D01*
X74215Y-54985D02*
X74085Y-55115D01*
X74335Y-53135D02*
X74465Y-53265D01*
X74465Y-53135D02*
X74335Y-53265D01*
X74435Y-47485D02*
X74565Y-47615D01*
X74565Y-47485D02*
X74435Y-47615D01*
X74435Y-53935D02*
X74565Y-54065D01*
X74565Y-53935D02*
X74435Y-54065D01*
X74485Y-54285D02*
X74615Y-54415D01*
X74615Y-54285D02*
X74485Y-54415D01*
X74485Y-54985D02*
X74615Y-55115D01*
X74615Y-54985D02*
X74485Y-55115D01*
X74585Y-53585D02*
X74715Y-53715D01*
X74715Y-53585D02*
X74585Y-53715D01*
X74785Y-46435D02*
X74915Y-46565D01*
X74915Y-46435D02*
X74785Y-46565D01*
X74785Y-46785D02*
X74915Y-46915D01*
X74915Y-46785D02*
X74785Y-46915D01*
X74785Y-47135D02*
X74915Y-47265D01*
X74915Y-47135D02*
X74785Y-47265D01*
X74785Y-47485D02*
X74915Y-47615D01*
X74915Y-47485D02*
X74785Y-47615D01*
X74985Y-43085D02*
X75115Y-43215D01*
X75115Y-43085D02*
X74985Y-43215D01*
X74985Y-43535D02*
X75115Y-43665D01*
X75115Y-43535D02*
X74985Y-43665D01*
X74985Y-44035D02*
X75115Y-44165D01*
X75115Y-44035D02*
X74985Y-44165D01*
X75185Y-50535D02*
X75315Y-50665D01*
X75315Y-50535D02*
X75185Y-50665D01*
X75185Y-53235D02*
X75315Y-53365D01*
X75315Y-53235D02*
X75185Y-53365D01*
X75235Y-55785D02*
X75365Y-55915D01*
X75365Y-55785D02*
X75235Y-55915D01*
X75435Y-42685D02*
X75565Y-42815D01*
X75565Y-42685D02*
X75435Y-42815D01*
X75435Y-55035D02*
X75565Y-55165D01*
X75565Y-55035D02*
X75435Y-55165D01*
X75485Y-49085D02*
X75615Y-49215D01*
X75615Y-49085D02*
X75485Y-49215D01*
X75485Y-49635D02*
X75615Y-49765D01*
X75615Y-49635D02*
X75485Y-49765D01*
X75485Y-51485D02*
X75615Y-51615D01*
X75615Y-51485D02*
X75485Y-51615D01*
X75485Y-51835D02*
X75615Y-51965D01*
X75615Y-51835D02*
X75485Y-51965D01*
X75485Y-52185D02*
X75615Y-52315D01*
X75615Y-52185D02*
X75485Y-52315D01*
X75485Y-52835D02*
X75615Y-52965D01*
X75615Y-52835D02*
X75485Y-52965D01*
X75535Y-50735D02*
X75665Y-50865D01*
X75665Y-50735D02*
X75535Y-50865D01*
X75535Y-53185D02*
X75665Y-53315D01*
X75665Y-53185D02*
X75535Y-53315D01*
X75735Y-48485D02*
X75865Y-48615D01*
X75865Y-48485D02*
X75735Y-48615D01*
X75735Y-50435D02*
X75865Y-50565D01*
X75865Y-50435D02*
X75735Y-50565D01*
X75785Y-55035D02*
X75915Y-55165D01*
X75915Y-55035D02*
X75785Y-55165D01*
X75835Y-42685D02*
X75965Y-42815D01*
X75965Y-42685D02*
X75835Y-42815D01*
X75835Y-43535D02*
X75965Y-43665D01*
X75965Y-43535D02*
X75835Y-43665D01*
X75885Y-53185D02*
X76015Y-53315D01*
X76015Y-53185D02*
X75885Y-53315D01*
X75985Y-50685D02*
X76115Y-50815D01*
X76115Y-50685D02*
X75985Y-50815D01*
X76035Y-52885D02*
X76165Y-53015D01*
X76165Y-52885D02*
X76035Y-53015D01*
X76035Y-54035D02*
X76165Y-54165D01*
X76165Y-54035D02*
X76035Y-54165D01*
X76135Y-44385D02*
X76265Y-44515D01*
X76265Y-44385D02*
X76135Y-44515D01*
X76185Y-48435D02*
X76315Y-48565D01*
X76315Y-48435D02*
X76185Y-48565D01*
X76235Y-42685D02*
X76365Y-42815D01*
X76365Y-42685D02*
X76235Y-42815D01*
X76235Y-50435D02*
X76365Y-50565D01*
X76365Y-50435D02*
X76235Y-50565D01*
X76285Y-46135D02*
X76415Y-46265D01*
X76415Y-46135D02*
X76285Y-46265D01*
X76285Y-46885D02*
X76415Y-47015D01*
X76415Y-46885D02*
X76285Y-47015D01*
X76335Y-53185D02*
X76465Y-53315D01*
X76465Y-53185D02*
X76335Y-53315D01*
X76385Y-50785D02*
X76515Y-50915D01*
X76515Y-50785D02*
X76385Y-50915D01*
X76485Y-48635D02*
X76615Y-48765D01*
X76615Y-48635D02*
X76485Y-48765D01*
X76485Y-55085D02*
X76615Y-55215D01*
X76615Y-55085D02*
X76485Y-55215D01*
X76535Y-44735D02*
X76665Y-44865D01*
X76665Y-44735D02*
X76535Y-44865D01*
X76635Y-42685D02*
X76765Y-42815D01*
X76765Y-42685D02*
X76635Y-42815D01*
X76685Y-43085D02*
X76815Y-43215D01*
X76815Y-43085D02*
X76685Y-43215D01*
X76735Y-50585D02*
X76865Y-50715D01*
X76865Y-50585D02*
X76735Y-50715D01*
X76985Y-44885D02*
X77115Y-45015D01*
X77115Y-44885D02*
X76985Y-45015D01*
X77035Y-42685D02*
X77165Y-42815D01*
X77165Y-42685D02*
X77035Y-42815D01*
X77085Y-47085D02*
X77215Y-47215D01*
X77215Y-47085D02*
X77085Y-47215D01*
X77085Y-47435D02*
X77215Y-47565D01*
X77215Y-47435D02*
X77085Y-47565D01*
X77085Y-47935D02*
X77215Y-48065D01*
X77215Y-47935D02*
X77085Y-48065D01*
X77085Y-50685D02*
X77215Y-50815D01*
X77215Y-50685D02*
X77085Y-50815D01*
X77135Y-45335D02*
X77265Y-45465D01*
X77265Y-45335D02*
X77135Y-45465D01*
X77435Y-41885D02*
X77565Y-42015D01*
X77565Y-41885D02*
X77435Y-42015D01*
X77435Y-42285D02*
X77565Y-42415D01*
X77565Y-42285D02*
X77435Y-42415D01*
X77435Y-42685D02*
X77565Y-42815D01*
X77565Y-42685D02*
X77435Y-42815D01*
X77485Y-43085D02*
X77615Y-43215D01*
X77615Y-43085D02*
X77485Y-43215D01*
X77535Y-44435D02*
X77665Y-44565D01*
X77665Y-44435D02*
X77535Y-44565D01*
X77635Y-45885D02*
X77765Y-46015D01*
X77765Y-45885D02*
X77635Y-46015D01*
X77635Y-50485D02*
X77765Y-50615D01*
X77765Y-50485D02*
X77635Y-50615D01*
X77835Y-41885D02*
X77965Y-42015D01*
X77965Y-41885D02*
X77835Y-42015D01*
X77835Y-52435D02*
X77965Y-52565D01*
X77965Y-52435D02*
X77835Y-52565D01*
X77885Y-42835D02*
X78015Y-42965D01*
X78015Y-42835D02*
X77885Y-42965D01*
X77885Y-44135D02*
X78015Y-44265D01*
X78015Y-44135D02*
X77885Y-44265D01*
X77885Y-50935D02*
X78015Y-51065D01*
X78015Y-50935D02*
X77885Y-51065D01*
X77885Y-51285D02*
X78015Y-51415D01*
X78015Y-51285D02*
X77885Y-51415D01*
X77885Y-51635D02*
X78015Y-51765D01*
X78015Y-51635D02*
X77885Y-51765D01*
X77885Y-52035D02*
X78015Y-52165D01*
X78015Y-52035D02*
X77885Y-52165D01*
X77935Y-42235D02*
X78065Y-42365D01*
X78065Y-42235D02*
X77935Y-42365D01*
X77935Y-52835D02*
X78065Y-52965D01*
X78065Y-52835D02*
X77935Y-52965D01*
X77935Y-53185D02*
X78065Y-53315D01*
X78065Y-53185D02*
X77935Y-53315D01*
X77935Y-53985D02*
X78065Y-54115D01*
X78065Y-53985D02*
X77935Y-54115D01*
X77935Y-55435D02*
X78065Y-55565D01*
X78065Y-55435D02*
X77935Y-55565D01*
X78035Y-46735D02*
X78165Y-46865D01*
X78165Y-46735D02*
X78035Y-46865D01*
X78035Y-48785D02*
X78165Y-48915D01*
X78165Y-48785D02*
X78035Y-48915D01*
X78035Y-49135D02*
X78165Y-49265D01*
X78165Y-49135D02*
X78035Y-49265D01*
X78035Y-49685D02*
X78165Y-49815D01*
X78165Y-49685D02*
X78035Y-49815D01*
X78135Y-45735D02*
X78265Y-45865D01*
X78265Y-45735D02*
X78135Y-45865D01*
X78235Y-41885D02*
X78365Y-42015D01*
X78365Y-41885D02*
X78235Y-42015D01*
X78285Y-42235D02*
X78415Y-42365D01*
X78415Y-42235D02*
X78285Y-42365D01*
X78285Y-46485D02*
X78415Y-46615D01*
X78415Y-46485D02*
X78285Y-46615D01*
X78285Y-53635D02*
X78415Y-53765D01*
X78415Y-53635D02*
X78285Y-53765D01*
X78310Y-50085D02*
X78440Y-50215D01*
X78440Y-50085D02*
X78310Y-50215D01*
X78385Y-49135D02*
X78515Y-49265D01*
X78515Y-49135D02*
X78385Y-49265D01*
X78385Y-57435D02*
X78515Y-57565D01*
X78515Y-57435D02*
X78385Y-57565D01*
X78535Y-46735D02*
X78665Y-46865D01*
X78665Y-46735D02*
X78535Y-46865D01*
X78585Y-45485D02*
X78715Y-45615D01*
X78715Y-45485D02*
X78585Y-45615D01*
X78635Y-41885D02*
X78765Y-42015D01*
X78765Y-41885D02*
X78635Y-42015D01*
X78635Y-42235D02*
X78765Y-42365D01*
X78765Y-42235D02*
X78635Y-42365D01*
X78685Y-50085D02*
X78815Y-50215D01*
X78815Y-50085D02*
X78685Y-50215D01*
X78685Y-50785D02*
X78815Y-50915D01*
X78815Y-50785D02*
X78685Y-50915D01*
X78685Y-52685D02*
X78815Y-52815D01*
X78815Y-52685D02*
X78685Y-52815D01*
X78685Y-53335D02*
X78815Y-53465D01*
X78815Y-53335D02*
X78685Y-53465D01*
X78885Y-55685D02*
X79015Y-55815D01*
X79015Y-55685D02*
X78885Y-55815D01*
X78885Y-56185D02*
X79015Y-56315D01*
X79015Y-56185D02*
X78885Y-56315D01*
X78885Y-56685D02*
X79015Y-56815D01*
X79015Y-56685D02*
X78885Y-56815D01*
X78885Y-57185D02*
X79015Y-57315D01*
X79015Y-57185D02*
X78885Y-57315D01*
X78885Y-57685D02*
X79015Y-57815D01*
X79015Y-57685D02*
X78885Y-57815D01*
X78885Y-58185D02*
X79015Y-58315D01*
X79015Y-58185D02*
X78885Y-58315D01*
X78885Y-58685D02*
X79015Y-58815D01*
X79015Y-58685D02*
X78885Y-58815D01*
X78885Y-59185D02*
X79015Y-59315D01*
X79015Y-59185D02*
X78885Y-59315D01*
X78935Y-49435D02*
X79065Y-49565D01*
X79065Y-49435D02*
X78935Y-49565D01*
X78985Y-48285D02*
X79115Y-48415D01*
X79115Y-48285D02*
X78985Y-48415D01*
X79035Y-41835D02*
X79165Y-41965D01*
X79165Y-41835D02*
X79035Y-41965D01*
X79035Y-45735D02*
X79165Y-45865D01*
X79165Y-45735D02*
X79035Y-45865D01*
X79135Y-54135D02*
X79265Y-54265D01*
X79265Y-54135D02*
X79135Y-54265D01*
X79185Y-50285D02*
X79315Y-50415D01*
X79315Y-50285D02*
X79185Y-50415D01*
X79285Y-46735D02*
X79415Y-46865D01*
X79415Y-46735D02*
X79285Y-46865D01*
X79435Y-41835D02*
X79565Y-41965D01*
X79565Y-41835D02*
X79435Y-41965D01*
X79435Y-47735D02*
X79565Y-47865D01*
X79565Y-47735D02*
X79435Y-47865D01*
X79585Y-45885D02*
X79715Y-46015D01*
X79715Y-45885D02*
X79585Y-46015D01*
X79635Y-54135D02*
X79765Y-54265D01*
X79765Y-54135D02*
X79635Y-54265D01*
X79735Y-51285D02*
X79865Y-51415D01*
X79865Y-51285D02*
X79735Y-51415D01*
X79785Y-43335D02*
X79915Y-43465D01*
X79915Y-43335D02*
X79785Y-43465D01*
X79835Y-41835D02*
X79965Y-41965D01*
X79965Y-41835D02*
X79835Y-41965D01*
X79885Y-51835D02*
X80015Y-51965D01*
X80015Y-51835D02*
X79885Y-51965D01*
X79935Y-56185D02*
X80065Y-56315D01*
X80065Y-56185D02*
X79935Y-56315D01*
X79935Y-57685D02*
X80065Y-57815D01*
X80065Y-57685D02*
X79935Y-57815D01*
X79985Y-45885D02*
X80115Y-46015D01*
X80115Y-45885D02*
X79985Y-46015D01*
X79985Y-47235D02*
X80115Y-47365D01*
X80115Y-47235D02*
X79985Y-47365D01*
X80035Y-44885D02*
X80165Y-45015D01*
X80165Y-44885D02*
X80035Y-45015D01*
X80135Y-54135D02*
X80265Y-54265D01*
X80265Y-54135D02*
X80135Y-54265D01*
X80185Y-50835D02*
X80315Y-50965D01*
X80315Y-50835D02*
X80185Y-50965D01*
X80235Y-41835D02*
X80365Y-41965D01*
X80365Y-41835D02*
X80235Y-41965D01*
X80385Y-44285D02*
X80515Y-44415D01*
X80515Y-44285D02*
X80385Y-44415D01*
X80385Y-44685D02*
X80515Y-44815D01*
X80515Y-44685D02*
X80385Y-44815D01*
X80385Y-45085D02*
X80515Y-45215D01*
X80515Y-45085D02*
X80385Y-45215D01*
X80385Y-45485D02*
X80515Y-45615D01*
X80515Y-45485D02*
X80385Y-45615D01*
X80385Y-45885D02*
X80515Y-46015D01*
X80515Y-45885D02*
X80385Y-46015D01*
X80585Y-48185D02*
X80715Y-48315D01*
X80715Y-48185D02*
X80585Y-48315D01*
X80585Y-51435D02*
X80715Y-51565D01*
X80715Y-51435D02*
X80585Y-51565D01*
X80635Y-41835D02*
X80765Y-41965D01*
X80765Y-41835D02*
X80635Y-41965D01*
X80635Y-54135D02*
X80765Y-54265D01*
X80765Y-54135D02*
X80635Y-54265D01*
X80785Y-44285D02*
X80915Y-44415D01*
X80915Y-44285D02*
X80785Y-44415D01*
X80935Y-51435D02*
X81065Y-51565D01*
X81065Y-51435D02*
X80935Y-51565D01*
X80935Y-56185D02*
X81065Y-56315D01*
X81065Y-56185D02*
X80935Y-56315D01*
X80935Y-57685D02*
X81065Y-57815D01*
X81065Y-57685D02*
X80935Y-57815D01*
X81035Y-41835D02*
X81165Y-41965D01*
X81165Y-41835D02*
X81035Y-41965D01*
X81085Y-47335D02*
X81215Y-47465D01*
X81215Y-47335D02*
X81085Y-47465D01*
X81135Y-54135D02*
X81265Y-54265D01*
X81265Y-54135D02*
X81135Y-54265D01*
X81185Y-44285D02*
X81315Y-44415D01*
X81315Y-44285D02*
X81185Y-44415D01*
X81435Y-41835D02*
X81565Y-41965D01*
X81565Y-41835D02*
X81435Y-41965D01*
X81435Y-42835D02*
X81565Y-42965D01*
X81565Y-42835D02*
X81435Y-42965D01*
X81575Y-48035D02*
X81705Y-48165D01*
X81705Y-48035D02*
X81575Y-48165D01*
X81585Y-44285D02*
X81715Y-44415D01*
X81715Y-44285D02*
X81585Y-44415D01*
X81585Y-49585D02*
X81715Y-49715D01*
X81715Y-49585D02*
X81585Y-49715D01*
X81635Y-54135D02*
X81765Y-54265D01*
X81765Y-54135D02*
X81635Y-54265D01*
X81835Y-41835D02*
X81965Y-41965D01*
X81965Y-41835D02*
X81835Y-41965D01*
X81935Y-56185D02*
X82065Y-56315D01*
X82065Y-56185D02*
X81935Y-56315D01*
X81935Y-57685D02*
X82065Y-57815D01*
X82065Y-57685D02*
X81935Y-57815D01*
X81985Y-44285D02*
X82115Y-44415D01*
X82115Y-44285D02*
X81985Y-44415D01*
X82085Y-52385D02*
X82215Y-52515D01*
X82215Y-52385D02*
X82085Y-52515D01*
X82135Y-54135D02*
X82265Y-54265D01*
X82265Y-54135D02*
X82135Y-54265D01*
X82235Y-41835D02*
X82365Y-41965D01*
X82365Y-41835D02*
X82235Y-41965D01*
X82385Y-44285D02*
X82515Y-44415D01*
X82515Y-44285D02*
X82385Y-44415D01*
X82385Y-51535D02*
X82515Y-51665D01*
X82515Y-51535D02*
X82385Y-51665D01*
X82435Y-48735D02*
X82565Y-48865D01*
X82565Y-48735D02*
X82435Y-48865D01*
X82635Y-41835D02*
X82765Y-41965D01*
X82765Y-41835D02*
X82635Y-41965D01*
X82635Y-54135D02*
X82765Y-54265D01*
X82765Y-54135D02*
X82635Y-54265D01*
X82785Y-44285D02*
X82915Y-44415D01*
X82915Y-44285D02*
X82785Y-44415D01*
X82885Y-42785D02*
X83015Y-42915D01*
X83015Y-42785D02*
X82885Y-42915D01*
X82935Y-56185D02*
X83065Y-56315D01*
X83065Y-56185D02*
X82935Y-56315D01*
X82935Y-57685D02*
X83065Y-57815D01*
X83065Y-57685D02*
X82935Y-57815D01*
X83035Y-41835D02*
X83165Y-41965D01*
X83165Y-41835D02*
X83035Y-41965D01*
X83035Y-42235D02*
X83165Y-42365D01*
X83165Y-42235D02*
X83035Y-42365D01*
X83135Y-54135D02*
X83265Y-54265D01*
X83265Y-54135D02*
X83135Y-54265D01*
X83185Y-44285D02*
X83315Y-44415D01*
X83315Y-44285D02*
X83185Y-44415D01*
X83435Y-42235D02*
X83565Y-42365D01*
X83565Y-42235D02*
X83435Y-42365D01*
X83485Y-41635D02*
X83615Y-41765D01*
X83615Y-41635D02*
X83485Y-41765D01*
X83535Y-43935D02*
X83665Y-44065D01*
X83665Y-43935D02*
X83535Y-44065D01*
X83535Y-44285D02*
X83665Y-44415D01*
X83665Y-44285D02*
X83535Y-44415D01*
X83635Y-53135D02*
X83765Y-53265D01*
X83765Y-53135D02*
X83635Y-53265D01*
X83635Y-53635D02*
X83765Y-53765D01*
X83765Y-53635D02*
X83635Y-53765D01*
X83635Y-54135D02*
X83765Y-54265D01*
X83765Y-54135D02*
X83635Y-54265D01*
X83735Y-56185D02*
X83865Y-56315D01*
X83865Y-56185D02*
X83735Y-56315D01*
X83935Y-57685D02*
X84065Y-57815D01*
X84065Y-57685D02*
X83935Y-57815D01*
X84135Y-44385D02*
X84265Y-44515D01*
X84265Y-44385D02*
X84135Y-44515D01*
X84135Y-53135D02*
X84265Y-53265D01*
X84265Y-53135D02*
X84135Y-53265D01*
X84185Y-42285D02*
X84315Y-42415D01*
X84315Y-42285D02*
X84185Y-42415D01*
X84185Y-43035D02*
X84315Y-43165D01*
X84315Y-43035D02*
X84185Y-43165D01*
X84585Y-53135D02*
X84715Y-53265D01*
X84715Y-53135D02*
X84585Y-53265D01*
X84935Y-57685D02*
X85065Y-57815D01*
X85065Y-57685D02*
X84935Y-57815D01*
X85235Y-41985D02*
X85365Y-42115D01*
X85365Y-41985D02*
X85235Y-42115D01*
X85235Y-43385D02*
X85365Y-43515D01*
X85365Y-43385D02*
X85235Y-43515D01*
X85285Y-53135D02*
X85415Y-53265D01*
X85415Y-53135D02*
X85285Y-53265D01*
X85335Y-47885D02*
X85465Y-48015D01*
X85465Y-47885D02*
X85335Y-48015D01*
X85335Y-52385D02*
X85465Y-52515D01*
X85465Y-52385D02*
X85335Y-52515D01*
X85635Y-50085D02*
X85765Y-50215D01*
X85765Y-50085D02*
X85635Y-50215D01*
X85735Y-40935D02*
X85865Y-41065D01*
X85865Y-40935D02*
X85735Y-41065D01*
X85785Y-53135D02*
X85915Y-53265D01*
X85915Y-53135D02*
X85785Y-53265D01*
X86135Y-40935D02*
X86265Y-41065D01*
X86265Y-40935D02*
X86135Y-41065D01*
X86135Y-42335D02*
X86265Y-42465D01*
X86265Y-42335D02*
X86135Y-42465D01*
X86135Y-43035D02*
X86265Y-43165D01*
X86265Y-43035D02*
X86135Y-43165D01*
X86185Y-44385D02*
X86315Y-44515D01*
X86315Y-44385D02*
X86185Y-44515D01*
X86285Y-53135D02*
X86415Y-53265D01*
X86415Y-53135D02*
X86285Y-53265D01*
X86435Y-53935D02*
X86565Y-54065D01*
X86565Y-53935D02*
X86435Y-54065D01*
X86435Y-55835D02*
X86565Y-55965D01*
X86565Y-55835D02*
X86435Y-55965D01*
X86485Y-57585D02*
X86615Y-57715D01*
X86615Y-57585D02*
X86485Y-57715D01*
X86585Y-53135D02*
X86715Y-53265D01*
X86715Y-53135D02*
X86585Y-53265D01*
X67560Y-40000D02*
G75*
G03X67560Y-40000I-160J0D01*
G74*
G01*
X68560Y-40000D02*
G75*
G03X68560Y-40000I-160J0D01*
G74*
G01*
X69560Y-40000D02*
G75*
G03X69560Y-40000I-160J0D01*
G74*
G01*
X70560Y-40000D02*
G75*
G03X70560Y-40000I-160J0D01*
G74*
G01*
X71160Y-59000D02*
G75*
G03X71160Y-59000I-160J0D01*
G74*
G01*
X71560Y-40000D02*
G75*
G03X71560Y-40000I-160J0D01*
G74*
G01*
X72160Y-59000D02*
G75*
G03X72160Y-59000I-160J0D01*
G74*
G01*
X72560Y-40000D02*
G75*
G03X72560Y-40000I-160J0D01*
G74*
G01*
X73160Y-59000D02*
G75*
G03X73160Y-59000I-160J0D01*
G74*
G01*
X73560Y-40000D02*
G75*
G03X73560Y-40000I-160J0D01*
G74*
G01*
X74160Y-59000D02*
G75*
G03X74160Y-59000I-160J0D01*
G74*
G01*
X74560Y-40000D02*
G75*
G03X74560Y-40000I-160J0D01*
G74*
G01*
X75160Y-59000D02*
G75*
G03X75160Y-59000I-160J0D01*
G74*
G01*
X75560Y-40000D02*
G75*
G03X75560Y-40000I-160J0D01*
G74*
G01*
X76160Y-59000D02*
G75*
G03X76160Y-59000I-160J0D01*
G74*
G01*
X76560Y-40000D02*
G75*
G03X76560Y-40000I-160J0D01*
G74*
G01*
X77160Y-59000D02*
G75*
G03X77160Y-59000I-160J0D01*
G74*
G01*
X78160Y-40000D02*
G75*
G03X78160Y-40000I-160J0D01*
G74*
G01*
X78160Y-59000D02*
G75*
G03X78160Y-59000I-160J0D01*
G74*
G01*
X79160Y-40000D02*
G75*
G03X79160Y-40000I-160J0D01*
G74*
G01*
X80160Y-40000D02*
G75*
G03X80160Y-40000I-160J0D01*
G74*
G01*
X80160Y-59000D02*
G75*
G03X80160Y-59000I-160J0D01*
G74*
G01*
X81160Y-40000D02*
G75*
G03X81160Y-40000I-160J0D01*
G74*
G01*
X81160Y-59000D02*
G75*
G03X81160Y-59000I-160J0D01*
G74*
G01*
X82160Y-40000D02*
G75*
G03X82160Y-40000I-160J0D01*
G74*
G01*
X82160Y-59000D02*
G75*
G03X82160Y-59000I-160J0D01*
G74*
G01*
X83160Y-40000D02*
G75*
G03X83160Y-40000I-160J0D01*
G74*
G01*
X83160Y-59000D02*
G75*
G03X83160Y-59000I-160J0D01*
G74*
G01*
X84160Y-40000D02*
G75*
G03X84160Y-40000I-160J0D01*
G74*
G01*
X84160Y-59000D02*
G75*
G03X84160Y-59000I-160J0D01*
G74*
G01*
X85160Y-40000D02*
G75*
G03X85160Y-40000I-160J0D01*
G74*
G01*
X85160Y-59000D02*
G75*
G03X85160Y-59000I-160J0D01*
G74*
G01*
X58750Y-43649D02*
X58750Y-44050D01*
X58549Y-43850D02*
X58950Y-43850D01*
X58750Y-44649D02*
X58750Y-45050D01*
X58549Y-44850D02*
X58950Y-44850D01*
X58750Y-45799D02*
X58750Y-46200D01*
X58549Y-46000D02*
X58950Y-46000D01*
X58750Y-46799D02*
X58750Y-47200D01*
X58549Y-47000D02*
X58950Y-47000D01*
X61909Y-41459D02*
X61909Y-40540D01*
X60990Y-40540D01*
X60990Y-41459D01*
X61909Y-41459D01*
X64659Y-58659D02*
X64659Y-57740D01*
X63740Y-57740D01*
X63740Y-58659D01*
X64659Y-58659D01*
X85459Y-46459D02*
X85459Y-45540D01*
X84540Y-45540D01*
X84540Y-46459D01*
X85459Y-46459D01*
X85459Y-55459D02*
X85459Y-54540D01*
X84540Y-54540D01*
X84540Y-55459D01*
X85459Y-55459D01*
G54D13*
X58548Y-61796D02*
X58548Y-60615D01*
X58830Y-60615D01*
X58998Y-60672D01*
X59111Y-60784D01*
X59167Y-60897D01*
X59223Y-61122D01*
X59223Y-61290D01*
X59167Y-61515D01*
X59111Y-61628D01*
X58998Y-61740D01*
X58830Y-61796D01*
X58548Y-61796D01*
X59730Y-61796D02*
X59730Y-61009D01*
X59730Y-61234D02*
X59786Y-61122D01*
X59842Y-61065D01*
X59955Y-61009D01*
X60067Y-61009D01*
X60461Y-61796D02*
X60461Y-61009D01*
X60461Y-60615D02*
X60404Y-60672D01*
X60461Y-60728D01*
X60517Y-60672D01*
X60461Y-60615D01*
X60461Y-60728D01*
X61192Y-61796D02*
X61079Y-61740D01*
X61023Y-61628D01*
X61023Y-60615D01*
X61811Y-61796D02*
X61698Y-61740D01*
X61642Y-61628D01*
X61642Y-60615D01*
X63160Y-61796D02*
X63160Y-60615D01*
X63554Y-61459D01*
X63948Y-60615D01*
X63948Y-61796D01*
X65016Y-61796D02*
X65016Y-61178D01*
X64960Y-61065D01*
X64848Y-61009D01*
X64623Y-61009D01*
X64510Y-61065D01*
X65016Y-61740D02*
X64904Y-61796D01*
X64623Y-61796D01*
X64510Y-61740D01*
X64454Y-61628D01*
X64454Y-61515D01*
X64510Y-61403D01*
X64623Y-61347D01*
X64904Y-61347D01*
X65016Y-61290D01*
X65579Y-61009D02*
X65579Y-62190D01*
X65579Y-61065D02*
X65691Y-61009D01*
X65916Y-61009D01*
X66029Y-61065D01*
X66085Y-61122D01*
X66141Y-61234D01*
X66141Y-61571D01*
X66085Y-61684D01*
X66029Y-61740D01*
X65916Y-61796D01*
X65691Y-61796D01*
X65579Y-61740D01*
X66647Y-61684D02*
X66704Y-61740D01*
X66647Y-61796D01*
X66591Y-61740D01*
X66647Y-61684D01*
X66647Y-61796D01*
X66647Y-61065D02*
X66704Y-61122D01*
X66647Y-61178D01*
X66591Y-61122D01*
X66647Y-61065D01*
X66647Y-61178D01*
X57350Y-63734D02*
X57480Y-63864D01*
X57480Y-63734D02*
X57350Y-63864D01*
X58773Y-63096D02*
X58886Y-63096D01*
X58998Y-63152D01*
X59055Y-63208D01*
X59111Y-63321D01*
X59167Y-63546D01*
X59167Y-63827D01*
X59111Y-64052D01*
X59055Y-64164D01*
X58998Y-64221D01*
X58886Y-64277D01*
X58773Y-64277D01*
X58661Y-64221D01*
X58605Y-64164D01*
X58548Y-64052D01*
X58492Y-63827D01*
X58492Y-63546D01*
X58548Y-63321D01*
X58605Y-63208D01*
X58661Y-63152D01*
X58773Y-63096D01*
X59673Y-64164D02*
X59730Y-64221D01*
X59673Y-64277D01*
X59617Y-64221D01*
X59673Y-64164D01*
X59673Y-64277D01*
X60123Y-63096D02*
X60854Y-63096D01*
X60461Y-63546D01*
X60629Y-63546D01*
X60742Y-63602D01*
X60798Y-63658D01*
X60854Y-63771D01*
X60854Y-64052D01*
X60798Y-64164D01*
X60742Y-64221D01*
X60629Y-64277D01*
X60292Y-64277D01*
X60179Y-64221D01*
X60123Y-64164D01*
X61248Y-63096D02*
X61979Y-63096D01*
X61586Y-63546D01*
X61754Y-63546D01*
X61867Y-63602D01*
X61923Y-63658D01*
X61979Y-63771D01*
X61979Y-64052D01*
X61923Y-64164D01*
X61867Y-64221D01*
X61754Y-64277D01*
X61417Y-64277D01*
X61304Y-64221D01*
X61248Y-64164D01*
X62485Y-64277D02*
X62485Y-63489D01*
X62485Y-63602D02*
X62542Y-63546D01*
X62654Y-63489D01*
X62823Y-63489D01*
X62935Y-63546D01*
X62992Y-63658D01*
X62992Y-64277D01*
X62992Y-63658D02*
X63048Y-63546D01*
X63160Y-63489D01*
X63329Y-63489D01*
X63442Y-63546D01*
X63498Y-63658D01*
X63498Y-64277D01*
X64060Y-64277D02*
X64060Y-63489D01*
X64060Y-63602D02*
X64116Y-63546D01*
X64229Y-63489D01*
X64398Y-63489D01*
X64510Y-63546D01*
X64566Y-63658D01*
X64566Y-64277D01*
X64566Y-63658D02*
X64623Y-63546D01*
X64735Y-63489D01*
X64904Y-63489D01*
X65016Y-63546D01*
X65073Y-63658D01*
X65073Y-64277D01*
X67379Y-63039D02*
X66366Y-64558D01*
X68897Y-63096D02*
X69010Y-63096D01*
X69122Y-63152D01*
X69178Y-63208D01*
X69235Y-63321D01*
X69291Y-63546D01*
X69291Y-63827D01*
X69235Y-64052D01*
X69178Y-64164D01*
X69122Y-64221D01*
X69010Y-64277D01*
X68897Y-64277D01*
X68785Y-64221D01*
X68728Y-64164D01*
X68672Y-64052D01*
X68616Y-63827D01*
X68616Y-63546D01*
X68672Y-63321D01*
X68728Y-63208D01*
X68785Y-63152D01*
X68897Y-63096D01*
X69797Y-64164D02*
X69853Y-64221D01*
X69797Y-64277D01*
X69741Y-64221D01*
X69797Y-64164D01*
X69797Y-64277D01*
X70584Y-63096D02*
X70697Y-63096D01*
X70809Y-63152D01*
X70866Y-63208D01*
X70922Y-63321D01*
X70978Y-63546D01*
X70978Y-63827D01*
X70922Y-64052D01*
X70866Y-64164D01*
X70809Y-64221D01*
X70697Y-64277D01*
X70584Y-64277D01*
X70472Y-64221D01*
X70416Y-64164D01*
X70359Y-64052D01*
X70303Y-63827D01*
X70303Y-63546D01*
X70359Y-63321D01*
X70416Y-63208D01*
X70472Y-63152D01*
X70584Y-63096D01*
X72103Y-64277D02*
X71428Y-64277D01*
X71766Y-64277D02*
X71766Y-63096D01*
X71653Y-63264D01*
X71541Y-63377D01*
X71428Y-63433D01*
X72497Y-63096D02*
X73228Y-63096D01*
X72834Y-63546D01*
X73003Y-63546D01*
X73115Y-63602D01*
X73172Y-63658D01*
X73228Y-63771D01*
X73228Y-64052D01*
X73172Y-64164D01*
X73115Y-64221D01*
X73003Y-64277D01*
X72665Y-64277D01*
X72553Y-64221D01*
X72497Y-64164D01*
X73678Y-63096D02*
X73678Y-63321D01*
X74128Y-63096D02*
X74128Y-63321D01*
X75871Y-64727D02*
X75815Y-64670D01*
X75703Y-64502D01*
X75646Y-64389D01*
X75590Y-64221D01*
X75534Y-63939D01*
X75534Y-63714D01*
X75590Y-63433D01*
X75646Y-63264D01*
X75703Y-63152D01*
X75815Y-62983D01*
X75871Y-62927D01*
X76827Y-63489D02*
X76827Y-64277D01*
X76546Y-63039D02*
X76265Y-63883D01*
X76996Y-63883D01*
X77390Y-63208D02*
X77446Y-63152D01*
X77559Y-63096D01*
X77840Y-63096D01*
X77952Y-63152D01*
X78008Y-63208D01*
X78065Y-63321D01*
X78065Y-63433D01*
X78008Y-63602D01*
X77334Y-64277D01*
X78065Y-64277D01*
X78515Y-63208D02*
X78571Y-63152D01*
X78683Y-63096D01*
X78965Y-63096D01*
X79077Y-63152D01*
X79133Y-63208D01*
X79190Y-63321D01*
X79190Y-63433D01*
X79133Y-63602D01*
X78458Y-64277D01*
X79190Y-64277D01*
X80596Y-64277D02*
X80596Y-63096D01*
X81102Y-64277D02*
X81102Y-63658D01*
X81046Y-63546D01*
X80933Y-63489D01*
X80764Y-63489D01*
X80652Y-63546D01*
X80596Y-63602D01*
X81833Y-64277D02*
X81721Y-64221D01*
X81664Y-64164D01*
X81608Y-64052D01*
X81608Y-63714D01*
X81664Y-63602D01*
X81721Y-63546D01*
X81833Y-63489D01*
X82002Y-63489D01*
X82114Y-63546D01*
X82170Y-63602D01*
X82227Y-63714D01*
X82227Y-64052D01*
X82170Y-64164D01*
X82114Y-64221D01*
X82002Y-64277D01*
X81833Y-64277D01*
X82902Y-64277D02*
X82789Y-64221D01*
X82733Y-64108D01*
X82733Y-63096D01*
X83802Y-64221D02*
X83689Y-64277D01*
X83464Y-64277D01*
X83352Y-64221D01*
X83295Y-64108D01*
X83295Y-63658D01*
X83352Y-63546D01*
X83464Y-63489D01*
X83689Y-63489D01*
X83802Y-63546D01*
X83858Y-63658D01*
X83858Y-63771D01*
X83295Y-63883D01*
X84308Y-64221D02*
X84420Y-64277D01*
X84645Y-64277D01*
X84758Y-64221D01*
X84814Y-64108D01*
X84814Y-64052D01*
X84758Y-63939D01*
X84645Y-63883D01*
X84476Y-63883D01*
X84364Y-63827D01*
X84308Y-63714D01*
X84308Y-63658D01*
X84364Y-63546D01*
X84476Y-63489D01*
X84645Y-63489D01*
X84758Y-63546D01*
X85208Y-64727D02*
X85264Y-64670D01*
X85376Y-64502D01*
X85433Y-64389D01*
X85489Y-64221D01*
X85545Y-63939D01*
X85545Y-63714D01*
X85489Y-63433D01*
X85433Y-63264D01*
X85376Y-63152D01*
X85264Y-62983D01*
X85208Y-62927D01*
G54D12*
X57480Y-65358D02*
G75*
G03X57480Y-65358I-160J0D01*
G74*
G01*
G54D13*
X58773Y-64655D02*
X58886Y-64655D01*
X58998Y-64711D01*
X59055Y-64767D01*
X59111Y-64880D01*
X59167Y-65105D01*
X59167Y-65386D01*
X59111Y-65611D01*
X59055Y-65723D01*
X58998Y-65780D01*
X58886Y-65836D01*
X58773Y-65836D01*
X58661Y-65780D01*
X58605Y-65723D01*
X58548Y-65611D01*
X58492Y-65386D01*
X58492Y-65105D01*
X58548Y-64880D01*
X58605Y-64767D01*
X58661Y-64711D01*
X58773Y-64655D01*
X59673Y-65723D02*
X59730Y-65780D01*
X59673Y-65836D01*
X59617Y-65780D01*
X59673Y-65723D01*
X59673Y-65836D01*
X60404Y-65161D02*
X60292Y-65105D01*
X60236Y-65048D01*
X60179Y-64936D01*
X60179Y-64880D01*
X60236Y-64767D01*
X60292Y-64711D01*
X60404Y-64655D01*
X60629Y-64655D01*
X60742Y-64711D01*
X60798Y-64767D01*
X60854Y-64880D01*
X60854Y-64936D01*
X60798Y-65048D01*
X60742Y-65105D01*
X60629Y-65161D01*
X60404Y-65161D01*
X60292Y-65217D01*
X60236Y-65273D01*
X60179Y-65386D01*
X60179Y-65611D01*
X60236Y-65723D01*
X60292Y-65780D01*
X60404Y-65836D01*
X60629Y-65836D01*
X60742Y-65780D01*
X60798Y-65723D01*
X60854Y-65611D01*
X60854Y-65386D01*
X60798Y-65273D01*
X60742Y-65217D01*
X60629Y-65161D01*
X61979Y-65836D02*
X61304Y-65836D01*
X61642Y-65836D02*
X61642Y-64655D01*
X61529Y-64823D01*
X61417Y-64936D01*
X61304Y-64992D01*
X62485Y-65836D02*
X62485Y-65048D01*
X62485Y-65161D02*
X62542Y-65105D01*
X62654Y-65048D01*
X62823Y-65048D01*
X62935Y-65105D01*
X62992Y-65217D01*
X62992Y-65836D01*
X62992Y-65217D02*
X63048Y-65105D01*
X63160Y-65048D01*
X63329Y-65048D01*
X63442Y-65105D01*
X63498Y-65217D01*
X63498Y-65836D01*
X64060Y-65836D02*
X64060Y-65048D01*
X64060Y-65161D02*
X64116Y-65105D01*
X64229Y-65048D01*
X64398Y-65048D01*
X64510Y-65105D01*
X64566Y-65217D01*
X64566Y-65836D01*
X64566Y-65217D02*
X64623Y-65105D01*
X64735Y-65048D01*
X64904Y-65048D01*
X65016Y-65105D01*
X65073Y-65217D01*
X65073Y-65836D01*
X67379Y-64598D02*
X66366Y-66117D01*
X68897Y-64655D02*
X69010Y-64655D01*
X69122Y-64711D01*
X69178Y-64767D01*
X69235Y-64880D01*
X69291Y-65105D01*
X69291Y-65386D01*
X69235Y-65611D01*
X69178Y-65723D01*
X69122Y-65780D01*
X69010Y-65836D01*
X68897Y-65836D01*
X68785Y-65780D01*
X68728Y-65723D01*
X68672Y-65611D01*
X68616Y-65386D01*
X68616Y-65105D01*
X68672Y-64880D01*
X68728Y-64767D01*
X68785Y-64711D01*
X68897Y-64655D01*
X69797Y-65723D02*
X69853Y-65780D01*
X69797Y-65836D01*
X69741Y-65780D01*
X69797Y-65723D01*
X69797Y-65836D01*
X70584Y-64655D02*
X70697Y-64655D01*
X70809Y-64711D01*
X70866Y-64767D01*
X70922Y-64880D01*
X70978Y-65105D01*
X70978Y-65386D01*
X70922Y-65611D01*
X70866Y-65723D01*
X70809Y-65780D01*
X70697Y-65836D01*
X70584Y-65836D01*
X70472Y-65780D01*
X70416Y-65723D01*
X70359Y-65611D01*
X70303Y-65386D01*
X70303Y-65105D01*
X70359Y-64880D01*
X70416Y-64767D01*
X70472Y-64711D01*
X70584Y-64655D01*
X71372Y-64655D02*
X72103Y-64655D01*
X71709Y-65105D01*
X71878Y-65105D01*
X71991Y-65161D01*
X72047Y-65217D01*
X72103Y-65330D01*
X72103Y-65611D01*
X72047Y-65723D01*
X71991Y-65780D01*
X71878Y-65836D01*
X71541Y-65836D01*
X71428Y-65780D01*
X71372Y-65723D01*
X72553Y-64767D02*
X72609Y-64711D01*
X72722Y-64655D01*
X73003Y-64655D01*
X73115Y-64711D01*
X73172Y-64767D01*
X73228Y-64880D01*
X73228Y-64992D01*
X73172Y-65161D01*
X72497Y-65836D01*
X73228Y-65836D01*
X73678Y-64655D02*
X73678Y-64880D01*
X74128Y-64655D02*
X74128Y-64880D01*
X75871Y-66286D02*
X75815Y-66230D01*
X75703Y-66061D01*
X75646Y-65948D01*
X75590Y-65780D01*
X75534Y-65498D01*
X75534Y-65273D01*
X75590Y-64992D01*
X75646Y-64823D01*
X75703Y-64711D01*
X75815Y-64542D01*
X75871Y-64486D01*
X76209Y-64655D02*
X76940Y-64655D01*
X76546Y-65105D01*
X76715Y-65105D01*
X76827Y-65161D01*
X76884Y-65217D01*
X76940Y-65330D01*
X76940Y-65611D01*
X76884Y-65723D01*
X76827Y-65780D01*
X76715Y-65836D01*
X76377Y-65836D01*
X76265Y-65780D01*
X76209Y-65723D01*
X77390Y-64767D02*
X77446Y-64711D01*
X77559Y-64655D01*
X77840Y-64655D01*
X77952Y-64711D01*
X78008Y-64767D01*
X78065Y-64880D01*
X78065Y-64992D01*
X78008Y-65161D01*
X77334Y-65836D01*
X78065Y-65836D01*
X79471Y-65836D02*
X79471Y-64655D01*
X79977Y-65836D02*
X79977Y-65217D01*
X79921Y-65105D01*
X79808Y-65048D01*
X79640Y-65048D01*
X79527Y-65105D01*
X79471Y-65161D01*
X80708Y-65836D02*
X80596Y-65780D01*
X80539Y-65723D01*
X80483Y-65611D01*
X80483Y-65273D01*
X80539Y-65161D01*
X80596Y-65105D01*
X80708Y-65048D01*
X80877Y-65048D01*
X80989Y-65105D01*
X81046Y-65161D01*
X81102Y-65273D01*
X81102Y-65611D01*
X81046Y-65723D01*
X80989Y-65780D01*
X80877Y-65836D01*
X80708Y-65836D01*
X81777Y-65836D02*
X81664Y-65780D01*
X81608Y-65667D01*
X81608Y-64655D01*
X82677Y-65780D02*
X82564Y-65836D01*
X82339Y-65836D01*
X82227Y-65780D01*
X82170Y-65667D01*
X82170Y-65217D01*
X82227Y-65105D01*
X82339Y-65048D01*
X82564Y-65048D01*
X82677Y-65105D01*
X82733Y-65217D01*
X82733Y-65330D01*
X82170Y-65442D01*
X83183Y-65780D02*
X83295Y-65836D01*
X83520Y-65836D01*
X83633Y-65780D01*
X83689Y-65667D01*
X83689Y-65611D01*
X83633Y-65498D01*
X83520Y-65442D01*
X83352Y-65442D01*
X83239Y-65386D01*
X83183Y-65273D01*
X83183Y-65217D01*
X83239Y-65105D01*
X83352Y-65048D01*
X83520Y-65048D01*
X83633Y-65105D01*
X84083Y-66286D02*
X84139Y-66230D01*
X84251Y-66061D01*
X84308Y-65948D01*
X84364Y-65780D01*
X84420Y-65498D01*
X84420Y-65273D01*
X84364Y-64992D01*
X84308Y-64823D01*
X84251Y-64711D01*
X84139Y-64542D01*
X84083Y-64486D01*
X57279Y-66716D02*
X57279Y-67118D01*
X57078Y-66917D02*
X57480Y-66917D01*
X59167Y-67395D02*
X58492Y-67395D01*
X58830Y-67395D02*
X58830Y-66214D01*
X58717Y-66383D01*
X58605Y-66495D01*
X58492Y-66551D01*
X59673Y-67282D02*
X59730Y-67339D01*
X59673Y-67395D01*
X59617Y-67339D01*
X59673Y-67282D01*
X59673Y-67395D01*
X60461Y-66214D02*
X60573Y-66214D01*
X60686Y-66270D01*
X60742Y-66326D01*
X60798Y-66439D01*
X60854Y-66664D01*
X60854Y-66945D01*
X60798Y-67170D01*
X60742Y-67282D01*
X60686Y-67339D01*
X60573Y-67395D01*
X60461Y-67395D01*
X60348Y-67339D01*
X60292Y-67282D01*
X60236Y-67170D01*
X60179Y-66945D01*
X60179Y-66664D01*
X60236Y-66439D01*
X60292Y-66326D01*
X60348Y-66270D01*
X60461Y-66214D01*
X61304Y-66326D02*
X61361Y-66270D01*
X61473Y-66214D01*
X61754Y-66214D01*
X61867Y-66270D01*
X61923Y-66326D01*
X61979Y-66439D01*
X61979Y-66551D01*
X61923Y-66720D01*
X61248Y-67395D01*
X61979Y-67395D01*
X62485Y-67395D02*
X62485Y-66607D01*
X62485Y-66720D02*
X62542Y-66664D01*
X62654Y-66607D01*
X62823Y-66607D01*
X62935Y-66664D01*
X62992Y-66776D01*
X62992Y-67395D01*
X62992Y-66776D02*
X63048Y-66664D01*
X63160Y-66607D01*
X63329Y-66607D01*
X63442Y-66664D01*
X63498Y-66776D01*
X63498Y-67395D01*
X64060Y-67395D02*
X64060Y-66607D01*
X64060Y-66720D02*
X64116Y-66664D01*
X64229Y-66607D01*
X64398Y-66607D01*
X64510Y-66664D01*
X64566Y-66776D01*
X64566Y-67395D01*
X64566Y-66776D02*
X64623Y-66664D01*
X64735Y-66607D01*
X64904Y-66607D01*
X65016Y-66664D01*
X65073Y-66776D01*
X65073Y-67395D01*
X67379Y-66158D02*
X66366Y-67676D01*
X68897Y-66214D02*
X69010Y-66214D01*
X69122Y-66270D01*
X69178Y-66326D01*
X69235Y-66439D01*
X69291Y-66664D01*
X69291Y-66945D01*
X69235Y-67170D01*
X69178Y-67282D01*
X69122Y-67339D01*
X69010Y-67395D01*
X68897Y-67395D01*
X68785Y-67339D01*
X68728Y-67282D01*
X68672Y-67170D01*
X68616Y-66945D01*
X68616Y-66664D01*
X68672Y-66439D01*
X68728Y-66326D01*
X68785Y-66270D01*
X68897Y-66214D01*
X69797Y-67282D02*
X69853Y-67339D01*
X69797Y-67395D01*
X69741Y-67339D01*
X69797Y-67282D01*
X69797Y-67395D01*
X70584Y-66214D02*
X70697Y-66214D01*
X70809Y-66270D01*
X70866Y-66326D01*
X70922Y-66439D01*
X70978Y-66664D01*
X70978Y-66945D01*
X70922Y-67170D01*
X70866Y-67282D01*
X70809Y-67339D01*
X70697Y-67395D01*
X70584Y-67395D01*
X70472Y-67339D01*
X70416Y-67282D01*
X70359Y-67170D01*
X70303Y-66945D01*
X70303Y-66664D01*
X70359Y-66439D01*
X70416Y-66326D01*
X70472Y-66270D01*
X70584Y-66214D01*
X71991Y-66607D02*
X71991Y-67395D01*
X71709Y-66158D02*
X71428Y-67001D01*
X72159Y-67001D01*
X72834Y-66214D02*
X72947Y-66214D01*
X73059Y-66270D01*
X73115Y-66326D01*
X73172Y-66439D01*
X73228Y-66664D01*
X73228Y-66945D01*
X73172Y-67170D01*
X73115Y-67282D01*
X73059Y-67339D01*
X72947Y-67395D01*
X72834Y-67395D01*
X72722Y-67339D01*
X72665Y-67282D01*
X72609Y-67170D01*
X72553Y-66945D01*
X72553Y-66664D01*
X72609Y-66439D01*
X72665Y-66326D01*
X72722Y-66270D01*
X72834Y-66214D01*
X73678Y-66214D02*
X73678Y-66439D01*
X74128Y-66214D02*
X74128Y-66439D01*
X75871Y-67845D02*
X75815Y-67789D01*
X75703Y-67620D01*
X75646Y-67507D01*
X75590Y-67339D01*
X75534Y-67057D01*
X75534Y-66832D01*
X75590Y-66551D01*
X75646Y-66383D01*
X75703Y-66270D01*
X75815Y-66101D01*
X75871Y-66045D01*
X76827Y-66607D02*
X76827Y-67395D01*
X76546Y-66158D02*
X76265Y-67001D01*
X76996Y-67001D01*
X78346Y-67395D02*
X78346Y-66214D01*
X78852Y-67395D02*
X78852Y-66776D01*
X78796Y-66664D01*
X78683Y-66607D01*
X78515Y-66607D01*
X78402Y-66664D01*
X78346Y-66720D01*
X79583Y-67395D02*
X79471Y-67339D01*
X79415Y-67282D01*
X79358Y-67170D01*
X79358Y-66832D01*
X79415Y-66720D01*
X79471Y-66664D01*
X79583Y-66607D01*
X79752Y-66607D01*
X79865Y-66664D01*
X79921Y-66720D01*
X79977Y-66832D01*
X79977Y-67170D01*
X79921Y-67282D01*
X79865Y-67339D01*
X79752Y-67395D01*
X79583Y-67395D01*
X80652Y-67395D02*
X80539Y-67339D01*
X80483Y-67226D01*
X80483Y-66214D01*
X81552Y-67339D02*
X81439Y-67395D01*
X81214Y-67395D01*
X81102Y-67339D01*
X81046Y-67226D01*
X81046Y-66776D01*
X81102Y-66664D01*
X81214Y-66607D01*
X81439Y-66607D01*
X81552Y-66664D01*
X81608Y-66776D01*
X81608Y-66889D01*
X81046Y-67001D01*
X82058Y-67339D02*
X82170Y-67395D01*
X82395Y-67395D01*
X82508Y-67339D01*
X82564Y-67226D01*
X82564Y-67170D01*
X82508Y-67057D01*
X82395Y-67001D01*
X82227Y-67001D01*
X82114Y-66945D01*
X82058Y-66832D01*
X82058Y-66776D01*
X82114Y-66664D01*
X82227Y-66607D01*
X82395Y-66607D01*
X82508Y-66664D01*
X82958Y-67845D02*
X83014Y-67789D01*
X83127Y-67620D01*
X83183Y-67507D01*
X83239Y-67339D01*
X83295Y-67057D01*
X83295Y-66832D01*
X83239Y-66551D01*
X83183Y-66383D01*
X83127Y-66270D01*
X83014Y-66101D01*
X82958Y-66045D01*
G54D12*
X57290Y-68935D02*
X57290Y-68017D01*
X56371Y-68017D01*
X56371Y-68935D01*
X57290Y-68935D01*
G54D13*
X58436Y-67773D02*
X59167Y-67773D01*
X58773Y-68223D01*
X58942Y-68223D01*
X59055Y-68279D01*
X59111Y-68335D01*
X59167Y-68448D01*
X59167Y-68729D01*
X59111Y-68841D01*
X59055Y-68898D01*
X58942Y-68954D01*
X58605Y-68954D01*
X58492Y-68898D01*
X58436Y-68841D01*
X59673Y-68841D02*
X59730Y-68898D01*
X59673Y-68954D01*
X59617Y-68898D01*
X59673Y-68841D01*
X59673Y-68954D01*
X60123Y-67773D02*
X60854Y-67773D01*
X60461Y-68223D01*
X60629Y-68223D01*
X60742Y-68279D01*
X60798Y-68335D01*
X60854Y-68448D01*
X60854Y-68729D01*
X60798Y-68841D01*
X60742Y-68898D01*
X60629Y-68954D01*
X60292Y-68954D01*
X60179Y-68898D01*
X60123Y-68841D01*
X61586Y-67773D02*
X61698Y-67773D01*
X61811Y-67829D01*
X61867Y-67885D01*
X61923Y-67998D01*
X61979Y-68223D01*
X61979Y-68504D01*
X61923Y-68729D01*
X61867Y-68841D01*
X61811Y-68898D01*
X61698Y-68954D01*
X61586Y-68954D01*
X61473Y-68898D01*
X61417Y-68841D01*
X61361Y-68729D01*
X61304Y-68504D01*
X61304Y-68223D01*
X61361Y-67998D01*
X61417Y-67885D01*
X61473Y-67829D01*
X61586Y-67773D01*
X62485Y-68954D02*
X62485Y-68167D01*
X62485Y-68279D02*
X62542Y-68223D01*
X62654Y-68167D01*
X62823Y-68167D01*
X62935Y-68223D01*
X62992Y-68335D01*
X62992Y-68954D01*
X62992Y-68335D02*
X63048Y-68223D01*
X63160Y-68167D01*
X63329Y-68167D01*
X63442Y-68223D01*
X63498Y-68335D01*
X63498Y-68954D01*
X64060Y-68954D02*
X64060Y-68167D01*
X64060Y-68279D02*
X64116Y-68223D01*
X64229Y-68167D01*
X64398Y-68167D01*
X64510Y-68223D01*
X64566Y-68335D01*
X64566Y-68954D01*
X64566Y-68335D02*
X64623Y-68223D01*
X64735Y-68167D01*
X64904Y-68167D01*
X65016Y-68223D01*
X65073Y-68335D01*
X65073Y-68954D01*
X67379Y-67717D02*
X66366Y-69235D01*
X68897Y-67773D02*
X69010Y-67773D01*
X69122Y-67829D01*
X69178Y-67885D01*
X69235Y-67998D01*
X69291Y-68223D01*
X69291Y-68504D01*
X69235Y-68729D01*
X69178Y-68841D01*
X69122Y-68898D01*
X69010Y-68954D01*
X68897Y-68954D01*
X68785Y-68898D01*
X68728Y-68841D01*
X68672Y-68729D01*
X68616Y-68504D01*
X68616Y-68223D01*
X68672Y-67998D01*
X68728Y-67885D01*
X68785Y-67829D01*
X68897Y-67773D01*
X69797Y-68841D02*
X69853Y-68898D01*
X69797Y-68954D01*
X69741Y-68898D01*
X69797Y-68841D01*
X69797Y-68954D01*
X70978Y-68954D02*
X70303Y-68954D01*
X70641Y-68954D02*
X70641Y-67773D01*
X70528Y-67942D01*
X70416Y-68054D01*
X70303Y-68110D01*
X71372Y-67773D02*
X72103Y-67773D01*
X71709Y-68223D01*
X71878Y-68223D01*
X71991Y-68279D01*
X72047Y-68335D01*
X72103Y-68448D01*
X72103Y-68729D01*
X72047Y-68841D01*
X71991Y-68898D01*
X71878Y-68954D01*
X71541Y-68954D01*
X71428Y-68898D01*
X71372Y-68841D01*
X72834Y-67773D02*
X72947Y-67773D01*
X73059Y-67829D01*
X73115Y-67885D01*
X73172Y-67998D01*
X73228Y-68223D01*
X73228Y-68504D01*
X73172Y-68729D01*
X73115Y-68841D01*
X73059Y-68898D01*
X72947Y-68954D01*
X72834Y-68954D01*
X72722Y-68898D01*
X72665Y-68841D01*
X72609Y-68729D01*
X72553Y-68504D01*
X72553Y-68223D01*
X72609Y-67998D01*
X72665Y-67885D01*
X72722Y-67829D01*
X72834Y-67773D01*
X73678Y-67773D02*
X73678Y-67998D01*
X74128Y-67773D02*
X74128Y-67998D01*
X75871Y-69404D02*
X75815Y-69348D01*
X75703Y-69179D01*
X75646Y-69066D01*
X75590Y-68898D01*
X75534Y-68616D01*
X75534Y-68392D01*
X75590Y-68110D01*
X75646Y-67942D01*
X75703Y-67829D01*
X75815Y-67660D01*
X75871Y-67604D01*
X76827Y-68167D02*
X76827Y-68954D01*
X76546Y-67717D02*
X76265Y-68560D01*
X76996Y-68560D01*
X78346Y-68954D02*
X78346Y-67773D01*
X78852Y-68954D02*
X78852Y-68335D01*
X78796Y-68223D01*
X78683Y-68167D01*
X78515Y-68167D01*
X78402Y-68223D01*
X78346Y-68279D01*
X79583Y-68954D02*
X79471Y-68898D01*
X79415Y-68841D01*
X79358Y-68729D01*
X79358Y-68392D01*
X79415Y-68279D01*
X79471Y-68223D01*
X79583Y-68167D01*
X79752Y-68167D01*
X79865Y-68223D01*
X79921Y-68279D01*
X79977Y-68392D01*
X79977Y-68729D01*
X79921Y-68841D01*
X79865Y-68898D01*
X79752Y-68954D01*
X79583Y-68954D01*
X80652Y-68954D02*
X80539Y-68898D01*
X80483Y-68785D01*
X80483Y-67773D01*
X81552Y-68898D02*
X81439Y-68954D01*
X81214Y-68954D01*
X81102Y-68898D01*
X81046Y-68785D01*
X81046Y-68335D01*
X81102Y-68223D01*
X81214Y-68167D01*
X81439Y-68167D01*
X81552Y-68223D01*
X81608Y-68335D01*
X81608Y-68448D01*
X81046Y-68560D01*
X82058Y-68898D02*
X82170Y-68954D01*
X82395Y-68954D01*
X82508Y-68898D01*
X82564Y-68785D01*
X82564Y-68729D01*
X82508Y-68616D01*
X82395Y-68560D01*
X82227Y-68560D01*
X82114Y-68504D01*
X82058Y-68392D01*
X82058Y-68335D01*
X82114Y-68223D01*
X82227Y-68167D01*
X82395Y-68167D01*
X82508Y-68223D01*
X82958Y-69404D02*
X83014Y-69348D01*
X83127Y-69179D01*
X83183Y-69066D01*
X83239Y-68898D01*
X83295Y-68616D01*
X83295Y-68392D01*
X83239Y-68110D01*
X83183Y-67942D01*
X83127Y-67829D01*
X83014Y-67660D01*
X82958Y-67604D01*
M02*
