G04 (created by PCBNEW (2013-07-07 BZR 4022)-stable) date 11/20/2016 10:50:40 PM*
%MOIN*%
G04 Gerber Fmt 3.4, Leading zero omitted, Abs format*
%FSLAX34Y34*%
G01*
G70*
G90*
G04 APERTURE LIST*
%ADD10C,0.00590551*%
G04 APERTURE END LIST*
G54D10*
G36*
X394Y37D02*
X392Y-48D01*
X375Y-126D01*
X344Y-194D01*
X298Y-259D01*
X244Y-310D01*
X177Y-353D01*
X107Y-380D01*
X28Y-394D01*
X-45Y-393D01*
X-123Y-375D01*
X-191Y-346D01*
X-257Y-300D01*
X-309Y-247D01*
X-352Y-179D01*
X-379Y-110D01*
X-394Y-31D01*
X-393Y42D01*
X-376Y121D01*
X-347Y189D01*
X-302Y255D01*
X-249Y307D01*
X-181Y351D01*
X-113Y379D01*
X-34Y394D01*
X39Y393D01*
X118Y377D01*
X186Y349D01*
X253Y303D01*
X305Y251D01*
X350Y184D01*
X378Y116D01*
X394Y37D01*
X394Y37D01*
G37*
G36*
X1050Y18623D02*
X1049Y18569D01*
X1038Y18519D01*
X1019Y18477D01*
X989Y18434D01*
X955Y18402D01*
X911Y18374D01*
X869Y18358D01*
X817Y18349D01*
X771Y18350D01*
X720Y18361D01*
X678Y18379D01*
X635Y18409D01*
X604Y18442D01*
X575Y18486D01*
X558Y18529D01*
X549Y18580D01*
X550Y18626D01*
X560Y18677D01*
X578Y18719D01*
X608Y18762D01*
X641Y18794D01*
X685Y18823D01*
X727Y18840D01*
X779Y18850D01*
X824Y18850D01*
X876Y18839D01*
X917Y18822D01*
X961Y18792D01*
X993Y18760D01*
X1022Y18716D01*
X1040Y18674D01*
X1050Y18623D01*
X1050Y18623D01*
G37*
G36*
X1178Y15735D02*
X1177Y15653D01*
X1160Y15578D01*
X1131Y15513D01*
X1087Y15450D01*
X1035Y15401D01*
X970Y15359D01*
X903Y15333D01*
X827Y15320D01*
X756Y15321D01*
X680Y15338D01*
X615Y15367D01*
X552Y15411D01*
X502Y15462D01*
X460Y15527D01*
X434Y15593D01*
X420Y15669D01*
X421Y15740D01*
X437Y15816D01*
X465Y15881D01*
X509Y15945D01*
X560Y15995D01*
X625Y16038D01*
X690Y16064D01*
X767Y16079D01*
X837Y16078D01*
X914Y16063D01*
X979Y16035D01*
X1044Y15992D01*
X1093Y15942D01*
X1136Y15876D01*
X1163Y15811D01*
X1178Y15735D01*
X1178Y15735D01*
G37*
G36*
X1178Y14735D02*
X1177Y14653D01*
X1160Y14578D01*
X1131Y14513D01*
X1087Y14450D01*
X1035Y14401D01*
X970Y14359D01*
X903Y14333D01*
X827Y14320D01*
X756Y14321D01*
X680Y14338D01*
X615Y14367D01*
X552Y14411D01*
X502Y14462D01*
X460Y14527D01*
X434Y14593D01*
X420Y14669D01*
X421Y14740D01*
X437Y14816D01*
X465Y14881D01*
X509Y14945D01*
X560Y14995D01*
X625Y15038D01*
X690Y15064D01*
X767Y15079D01*
X837Y15078D01*
X914Y15063D01*
X979Y15035D01*
X1044Y14992D01*
X1093Y14942D01*
X1136Y14876D01*
X1163Y14811D01*
X1178Y14735D01*
X1178Y14735D01*
G37*
G36*
X1178Y13585D02*
X1177Y13503D01*
X1160Y13428D01*
X1131Y13363D01*
X1087Y13300D01*
X1035Y13251D01*
X970Y13209D01*
X903Y13183D01*
X827Y13170D01*
X756Y13171D01*
X680Y13188D01*
X615Y13217D01*
X552Y13261D01*
X502Y13312D01*
X460Y13377D01*
X434Y13443D01*
X420Y13519D01*
X421Y13590D01*
X437Y13666D01*
X465Y13731D01*
X509Y13795D01*
X560Y13845D01*
X625Y13888D01*
X690Y13914D01*
X767Y13929D01*
X837Y13928D01*
X914Y13913D01*
X979Y13885D01*
X1044Y13842D01*
X1093Y13792D01*
X1136Y13726D01*
X1163Y13661D01*
X1178Y13585D01*
X1178Y13585D01*
G37*
G36*
X1178Y12585D02*
X1177Y12503D01*
X1160Y12428D01*
X1131Y12363D01*
X1087Y12300D01*
X1035Y12251D01*
X970Y12209D01*
X903Y12183D01*
X827Y12170D01*
X756Y12171D01*
X680Y12188D01*
X615Y12217D01*
X552Y12261D01*
X502Y12312D01*
X460Y12377D01*
X434Y12443D01*
X420Y12519D01*
X421Y12590D01*
X437Y12666D01*
X465Y12731D01*
X509Y12795D01*
X560Y12845D01*
X625Y12888D01*
X690Y12914D01*
X767Y12929D01*
X837Y12928D01*
X914Y12913D01*
X979Y12885D01*
X1044Y12842D01*
X1093Y12792D01*
X1136Y12726D01*
X1163Y12661D01*
X1178Y12585D01*
X1178Y12585D01*
G37*
G36*
X2050Y15723D02*
X2049Y15669D01*
X2038Y15619D01*
X2019Y15577D01*
X1989Y15534D01*
X1955Y15502D01*
X1911Y15474D01*
X1869Y15458D01*
X1817Y15449D01*
X1771Y15450D01*
X1720Y15461D01*
X1678Y15479D01*
X1635Y15509D01*
X1604Y15542D01*
X1575Y15586D01*
X1558Y15629D01*
X1549Y15680D01*
X1550Y15726D01*
X1560Y15777D01*
X1578Y15819D01*
X1608Y15862D01*
X1641Y15894D01*
X1685Y15923D01*
X1727Y15940D01*
X1779Y15950D01*
X1824Y15950D01*
X1876Y15939D01*
X1917Y15922D01*
X1961Y15892D01*
X1993Y15860D01*
X2022Y15816D01*
X2040Y15774D01*
X2050Y15723D01*
X2050Y15723D01*
G37*
G36*
X2050Y13573D02*
X2049Y13519D01*
X2038Y13469D01*
X2019Y13427D01*
X1989Y13384D01*
X1955Y13352D01*
X1911Y13324D01*
X1869Y13308D01*
X1817Y13299D01*
X1771Y13300D01*
X1720Y13311D01*
X1678Y13329D01*
X1635Y13359D01*
X1604Y13392D01*
X1575Y13436D01*
X1558Y13479D01*
X1549Y13530D01*
X1550Y13576D01*
X1560Y13627D01*
X1578Y13669D01*
X1608Y13712D01*
X1641Y13744D01*
X1685Y13773D01*
X1727Y13790D01*
X1779Y13800D01*
X1824Y13800D01*
X1876Y13789D01*
X1917Y13772D01*
X1961Y13742D01*
X1993Y13710D01*
X2022Y13666D01*
X2040Y13624D01*
X2050Y13573D01*
X2050Y13573D01*
G37*
G36*
X2050Y12573D02*
X2049Y12519D01*
X2038Y12469D01*
X2019Y12427D01*
X1989Y12384D01*
X1955Y12352D01*
X1911Y12324D01*
X1869Y12308D01*
X1817Y12299D01*
X1771Y12300D01*
X1720Y12311D01*
X1678Y12329D01*
X1635Y12359D01*
X1604Y12392D01*
X1575Y12436D01*
X1558Y12479D01*
X1549Y12530D01*
X1550Y12576D01*
X1560Y12627D01*
X1578Y12669D01*
X1608Y12712D01*
X1641Y12744D01*
X1685Y12773D01*
X1727Y12790D01*
X1779Y12800D01*
X1824Y12800D01*
X1876Y12789D01*
X1917Y12772D01*
X1961Y12742D01*
X1993Y12710D01*
X2022Y12666D01*
X2040Y12624D01*
X2050Y12573D01*
X2050Y12573D01*
G37*
G36*
X4450Y3173D02*
X4449Y3119D01*
X4438Y3069D01*
X4419Y3027D01*
X4389Y2984D01*
X4355Y2952D01*
X4311Y2924D01*
X4269Y2908D01*
X4217Y2899D01*
X4171Y2900D01*
X4120Y2911D01*
X4078Y2929D01*
X4035Y2959D01*
X4004Y2992D01*
X3975Y3036D01*
X3958Y3079D01*
X3949Y3130D01*
X3950Y3176D01*
X3960Y3227D01*
X3978Y3269D01*
X4008Y3312D01*
X4041Y3344D01*
X4085Y3373D01*
X4127Y3390D01*
X4179Y3400D01*
X4224Y3400D01*
X4276Y3389D01*
X4317Y3372D01*
X4361Y3342D01*
X4393Y3310D01*
X4422Y3266D01*
X4440Y3224D01*
X4450Y3173D01*
X4450Y3173D01*
G37*
G36*
X4662Y18662D02*
X4658Y18405D01*
X4607Y18180D01*
X4516Y17974D01*
X4383Y17785D01*
X4220Y17630D01*
X4025Y17506D01*
X3815Y17425D01*
X3588Y17385D01*
X3363Y17390D01*
X3137Y17439D01*
X2931Y17529D01*
X2741Y17661D01*
X2585Y17823D01*
X2460Y18017D01*
X2377Y18226D01*
X2336Y18453D01*
X2339Y18678D01*
X2387Y18904D01*
X2475Y19111D01*
X2606Y19302D01*
X2766Y19459D01*
X2960Y19585D01*
X3168Y19669D01*
X3395Y19713D01*
X3620Y19711D01*
X3847Y19665D01*
X4053Y19578D01*
X4245Y19448D01*
X4403Y19289D01*
X4532Y19096D01*
X4617Y18889D01*
X4662Y18662D01*
X4662Y18662D01*
G37*
G36*
X5300Y6573D02*
X5299Y6519D01*
X5288Y6469D01*
X5269Y6427D01*
X5239Y6384D01*
X5205Y6352D01*
X5161Y6324D01*
X5119Y6308D01*
X5067Y6299D01*
X5021Y6300D01*
X4970Y6311D01*
X4928Y6329D01*
X4885Y6359D01*
X4854Y6392D01*
X4825Y6436D01*
X4808Y6479D01*
X4799Y6530D01*
X4800Y6576D01*
X4810Y6627D01*
X4828Y6669D01*
X4858Y6712D01*
X4891Y6744D01*
X4935Y6773D01*
X4977Y6790D01*
X5029Y6800D01*
X5074Y6800D01*
X5126Y6789D01*
X5167Y6772D01*
X5211Y6742D01*
X5243Y6710D01*
X5272Y6666D01*
X5290Y6624D01*
X5300Y6573D01*
X5300Y6573D01*
G37*
G36*
X7412Y1462D02*
X7408Y1205D01*
X7357Y980D01*
X7266Y774D01*
X7133Y585D01*
X6970Y430D01*
X6775Y306D01*
X6565Y225D01*
X6338Y185D01*
X6113Y190D01*
X5887Y239D01*
X5681Y329D01*
X5491Y461D01*
X5335Y623D01*
X5210Y817D01*
X5127Y1026D01*
X5086Y1253D01*
X5089Y1478D01*
X5137Y1704D01*
X5225Y1911D01*
X5356Y2102D01*
X5516Y2259D01*
X5710Y2385D01*
X5918Y2469D01*
X6145Y2513D01*
X6370Y2511D01*
X6597Y2465D01*
X6803Y2378D01*
X6995Y2248D01*
X7153Y2089D01*
X7282Y1896D01*
X7367Y1689D01*
X7412Y1462D01*
X7412Y1462D01*
G37*
G36*
X8550Y11473D02*
X8549Y11419D01*
X8538Y11369D01*
X8519Y11327D01*
X8489Y11284D01*
X8455Y11252D01*
X8411Y11224D01*
X8369Y11208D01*
X8317Y11199D01*
X8271Y11200D01*
X8220Y11211D01*
X8178Y11229D01*
X8135Y11259D01*
X8104Y11292D01*
X8075Y11336D01*
X8058Y11379D01*
X8049Y11430D01*
X8050Y11476D01*
X8060Y11527D01*
X8078Y11569D01*
X8108Y11612D01*
X8141Y11644D01*
X8185Y11673D01*
X8227Y11690D01*
X8279Y11700D01*
X8324Y11700D01*
X8376Y11689D01*
X8417Y11672D01*
X8461Y11642D01*
X8493Y11610D01*
X8522Y11566D01*
X8540Y11524D01*
X8550Y11473D01*
X8550Y11473D01*
G37*
G36*
X9765Y19579D02*
X9764Y19511D01*
X9750Y19448D01*
X9726Y19394D01*
X9688Y19341D01*
X9646Y19301D01*
X9591Y19266D01*
X9536Y19245D01*
X9472Y19234D01*
X9414Y19235D01*
X9350Y19249D01*
X9296Y19272D01*
X9243Y19309D01*
X9202Y19352D01*
X9167Y19406D01*
X9146Y19461D01*
X9134Y19525D01*
X9135Y19583D01*
X9148Y19647D01*
X9171Y19701D01*
X9208Y19754D01*
X9250Y19795D01*
X9304Y19831D01*
X9358Y19853D01*
X9423Y19865D01*
X9481Y19865D01*
X9545Y19851D01*
X9598Y19829D01*
X9653Y19792D01*
X9694Y19751D01*
X9730Y19696D01*
X9752Y19643D01*
X9765Y19579D01*
X9765Y19579D01*
G37*
G36*
X10550Y18123D02*
X10549Y18069D01*
X10538Y18019D01*
X10519Y17977D01*
X10489Y17934D01*
X10455Y17902D01*
X10411Y17874D01*
X10369Y17858D01*
X10317Y17849D01*
X10271Y17850D01*
X10220Y17861D01*
X10178Y17879D01*
X10135Y17909D01*
X10104Y17942D01*
X10075Y17986D01*
X10058Y18029D01*
X10049Y18080D01*
X10050Y18126D01*
X10060Y18177D01*
X10078Y18219D01*
X10108Y18262D01*
X10141Y18294D01*
X10185Y18323D01*
X10227Y18340D01*
X10279Y18350D01*
X10324Y18350D01*
X10376Y18339D01*
X10417Y18322D01*
X10461Y18292D01*
X10493Y18260D01*
X10522Y18216D01*
X10540Y18174D01*
X10550Y18123D01*
X10550Y18123D01*
G37*
G36*
X10690Y9459D02*
X8609Y9459D01*
X8609Y10040D01*
X10690Y10040D01*
X10690Y9459D01*
X10690Y9459D01*
G37*
G36*
X10690Y8459D02*
X8609Y8459D01*
X8609Y9040D01*
X10690Y9040D01*
X10690Y8459D01*
X10690Y8459D01*
G37*
G36*
X10690Y7459D02*
X8609Y7459D01*
X8609Y8040D01*
X10690Y8040D01*
X10690Y7459D01*
X10690Y7459D01*
G37*
G36*
X10690Y6459D02*
X8609Y6459D01*
X8609Y7040D01*
X10690Y7040D01*
X10690Y6459D01*
X10690Y6459D01*
G37*
G36*
X10690Y5459D02*
X8609Y5459D01*
X8609Y6040D01*
X10690Y6040D01*
X10690Y5459D01*
X10690Y5459D01*
G37*
G36*
X10690Y4459D02*
X8609Y4459D01*
X8609Y5040D01*
X10690Y5040D01*
X10690Y4459D01*
X10690Y4459D01*
G37*
G36*
X10690Y3459D02*
X8609Y3459D01*
X8609Y4040D01*
X10690Y4040D01*
X10690Y3459D01*
X10690Y3459D01*
G37*
G36*
X10765Y19579D02*
X10764Y19511D01*
X10750Y19448D01*
X10726Y19394D01*
X10688Y19341D01*
X10646Y19301D01*
X10591Y19266D01*
X10536Y19245D01*
X10472Y19234D01*
X10414Y19235D01*
X10350Y19249D01*
X10296Y19272D01*
X10243Y19309D01*
X10202Y19352D01*
X10167Y19406D01*
X10146Y19461D01*
X10134Y19525D01*
X10135Y19583D01*
X10148Y19647D01*
X10171Y19701D01*
X10208Y19754D01*
X10250Y19795D01*
X10304Y19831D01*
X10358Y19853D01*
X10423Y19865D01*
X10481Y19865D01*
X10545Y19851D01*
X10598Y19829D01*
X10653Y19792D01*
X10694Y19751D01*
X10730Y19696D01*
X10752Y19643D01*
X10765Y19579D01*
X10765Y19579D01*
G37*
G36*
X11765Y19579D02*
X11764Y19511D01*
X11750Y19448D01*
X11726Y19394D01*
X11688Y19341D01*
X11646Y19301D01*
X11591Y19266D01*
X11536Y19245D01*
X11472Y19234D01*
X11414Y19235D01*
X11350Y19249D01*
X11296Y19272D01*
X11243Y19309D01*
X11202Y19352D01*
X11167Y19406D01*
X11146Y19461D01*
X11134Y19525D01*
X11135Y19583D01*
X11148Y19647D01*
X11171Y19701D01*
X11208Y19754D01*
X11250Y19795D01*
X11304Y19831D01*
X11358Y19853D01*
X11423Y19865D01*
X11481Y19865D01*
X11545Y19851D01*
X11598Y19829D01*
X11653Y19792D01*
X11694Y19751D01*
X11730Y19696D01*
X11752Y19643D01*
X11765Y19579D01*
X11765Y19579D01*
G37*
G36*
X12765Y19579D02*
X12764Y19511D01*
X12750Y19448D01*
X12726Y19394D01*
X12688Y19341D01*
X12646Y19301D01*
X12591Y19266D01*
X12536Y19245D01*
X12472Y19234D01*
X12414Y19235D01*
X12350Y19249D01*
X12296Y19272D01*
X12243Y19309D01*
X12202Y19352D01*
X12167Y19406D01*
X12146Y19461D01*
X12134Y19525D01*
X12135Y19583D01*
X12148Y19647D01*
X12171Y19701D01*
X12208Y19754D01*
X12250Y19795D01*
X12304Y19831D01*
X12358Y19853D01*
X12423Y19865D01*
X12481Y19865D01*
X12545Y19851D01*
X12598Y19829D01*
X12653Y19792D01*
X12694Y19751D01*
X12730Y19696D01*
X12752Y19643D01*
X12765Y19579D01*
X12765Y19579D01*
G37*
G36*
X13365Y234D02*
X12734Y234D01*
X12734Y865D01*
X13365Y865D01*
X13365Y234D01*
X13365Y234D01*
G37*
G36*
X13390Y9459D02*
X11309Y9459D01*
X11309Y10040D01*
X13390Y10040D01*
X13390Y9459D01*
X13390Y9459D01*
G37*
G36*
X13390Y8459D02*
X11309Y8459D01*
X11309Y9040D01*
X13390Y9040D01*
X13390Y8459D01*
X13390Y8459D01*
G37*
G36*
X13390Y7459D02*
X11309Y7459D01*
X11309Y8040D01*
X13390Y8040D01*
X13390Y7459D01*
X13390Y7459D01*
G37*
G36*
X13390Y6459D02*
X11309Y6459D01*
X11309Y7040D01*
X13390Y7040D01*
X13390Y6459D01*
X13390Y6459D01*
G37*
G36*
X13390Y5459D02*
X11309Y5459D01*
X11309Y6040D01*
X13390Y6040D01*
X13390Y5459D01*
X13390Y5459D01*
G37*
G36*
X13390Y4459D02*
X11309Y4459D01*
X11309Y5040D01*
X13390Y5040D01*
X13390Y4459D01*
X13390Y4459D01*
G37*
G36*
X13390Y3459D02*
X11309Y3459D01*
X11309Y4040D01*
X13390Y4040D01*
X13390Y3459D01*
X13390Y3459D01*
G37*
G36*
X13765Y19579D02*
X13764Y19511D01*
X13750Y19448D01*
X13726Y19394D01*
X13688Y19341D01*
X13646Y19301D01*
X13591Y19266D01*
X13536Y19245D01*
X13472Y19234D01*
X13414Y19235D01*
X13350Y19249D01*
X13296Y19272D01*
X13243Y19309D01*
X13202Y19352D01*
X13167Y19406D01*
X13146Y19461D01*
X13134Y19525D01*
X13135Y19583D01*
X13148Y19647D01*
X13171Y19701D01*
X13208Y19754D01*
X13250Y19795D01*
X13304Y19831D01*
X13358Y19853D01*
X13423Y19865D01*
X13481Y19865D01*
X13545Y19851D01*
X13598Y19829D01*
X13653Y19792D01*
X13694Y19751D01*
X13730Y19696D01*
X13752Y19643D01*
X13765Y19579D01*
X13765Y19579D01*
G37*
G36*
X14365Y579D02*
X14364Y511D01*
X14350Y448D01*
X14326Y394D01*
X14288Y341D01*
X14246Y301D01*
X14191Y266D01*
X14136Y245D01*
X14072Y234D01*
X14014Y235D01*
X13950Y249D01*
X13896Y272D01*
X13843Y309D01*
X13802Y352D01*
X13767Y406D01*
X13746Y461D01*
X13734Y525D01*
X13735Y583D01*
X13748Y647D01*
X13771Y701D01*
X13808Y754D01*
X13850Y795D01*
X13904Y831D01*
X13958Y853D01*
X14023Y865D01*
X14081Y865D01*
X14145Y851D01*
X14198Y829D01*
X14253Y792D01*
X14294Y751D01*
X14330Y696D01*
X14352Y643D01*
X14365Y579D01*
X14365Y579D01*
G37*
G36*
X14765Y19579D02*
X14764Y19511D01*
X14750Y19448D01*
X14726Y19394D01*
X14688Y19341D01*
X14646Y19301D01*
X14591Y19266D01*
X14536Y19245D01*
X14472Y19234D01*
X14414Y19235D01*
X14350Y19249D01*
X14296Y19272D01*
X14243Y19309D01*
X14202Y19352D01*
X14167Y19406D01*
X14146Y19461D01*
X14134Y19525D01*
X14135Y19583D01*
X14148Y19647D01*
X14171Y19701D01*
X14208Y19754D01*
X14250Y19795D01*
X14304Y19831D01*
X14358Y19853D01*
X14423Y19865D01*
X14481Y19865D01*
X14545Y19851D01*
X14598Y19829D01*
X14653Y19792D01*
X14694Y19751D01*
X14730Y19696D01*
X14752Y19643D01*
X14765Y19579D01*
X14765Y19579D01*
G37*
G36*
X15365Y579D02*
X15364Y511D01*
X15350Y448D01*
X15326Y394D01*
X15288Y341D01*
X15246Y301D01*
X15191Y266D01*
X15136Y245D01*
X15072Y234D01*
X15014Y235D01*
X14950Y249D01*
X14896Y272D01*
X14843Y309D01*
X14802Y352D01*
X14767Y406D01*
X14746Y461D01*
X14734Y525D01*
X14735Y583D01*
X14748Y647D01*
X14771Y701D01*
X14808Y754D01*
X14850Y795D01*
X14904Y831D01*
X14958Y853D01*
X15023Y865D01*
X15081Y865D01*
X15145Y851D01*
X15198Y829D01*
X15253Y792D01*
X15294Y751D01*
X15330Y696D01*
X15352Y643D01*
X15365Y579D01*
X15365Y579D01*
G37*
G36*
X15765Y19579D02*
X15764Y19511D01*
X15750Y19448D01*
X15726Y19394D01*
X15688Y19341D01*
X15646Y19301D01*
X15591Y19266D01*
X15536Y19245D01*
X15472Y19234D01*
X15414Y19235D01*
X15350Y19249D01*
X15296Y19272D01*
X15243Y19309D01*
X15202Y19352D01*
X15167Y19406D01*
X15146Y19461D01*
X15134Y19525D01*
X15135Y19583D01*
X15148Y19647D01*
X15171Y19701D01*
X15208Y19754D01*
X15250Y19795D01*
X15304Y19831D01*
X15358Y19853D01*
X15423Y19865D01*
X15481Y19865D01*
X15545Y19851D01*
X15598Y19829D01*
X15653Y19792D01*
X15694Y19751D01*
X15730Y19696D01*
X15752Y19643D01*
X15765Y19579D01*
X15765Y19579D01*
G37*
G36*
X16365Y579D02*
X16364Y511D01*
X16350Y448D01*
X16326Y394D01*
X16288Y341D01*
X16246Y301D01*
X16191Y266D01*
X16136Y245D01*
X16072Y234D01*
X16014Y235D01*
X15950Y249D01*
X15896Y272D01*
X15843Y309D01*
X15802Y352D01*
X15767Y406D01*
X15746Y461D01*
X15734Y525D01*
X15735Y583D01*
X15748Y647D01*
X15771Y701D01*
X15808Y754D01*
X15850Y795D01*
X15904Y831D01*
X15958Y853D01*
X16023Y865D01*
X16081Y865D01*
X16145Y851D01*
X16198Y829D01*
X16253Y792D01*
X16294Y751D01*
X16330Y696D01*
X16352Y643D01*
X16365Y579D01*
X16365Y579D01*
G37*
G36*
X16765Y19579D02*
X16764Y19511D01*
X16750Y19448D01*
X16726Y19394D01*
X16688Y19341D01*
X16646Y19301D01*
X16591Y19266D01*
X16536Y19245D01*
X16472Y19234D01*
X16414Y19235D01*
X16350Y19249D01*
X16296Y19272D01*
X16243Y19309D01*
X16202Y19352D01*
X16167Y19406D01*
X16146Y19461D01*
X16134Y19525D01*
X16135Y19583D01*
X16148Y19647D01*
X16171Y19701D01*
X16208Y19754D01*
X16250Y19795D01*
X16304Y19831D01*
X16358Y19853D01*
X16423Y19865D01*
X16481Y19865D01*
X16545Y19851D01*
X16598Y19829D01*
X16653Y19792D01*
X16694Y19751D01*
X16730Y19696D01*
X16752Y19643D01*
X16765Y19579D01*
X16765Y19579D01*
G37*
G36*
X17365Y579D02*
X17364Y511D01*
X17350Y448D01*
X17326Y394D01*
X17288Y341D01*
X17246Y301D01*
X17191Y266D01*
X17136Y245D01*
X17072Y234D01*
X17014Y235D01*
X16950Y249D01*
X16896Y272D01*
X16843Y309D01*
X16802Y352D01*
X16767Y406D01*
X16746Y461D01*
X16734Y525D01*
X16735Y583D01*
X16748Y647D01*
X16771Y701D01*
X16808Y754D01*
X16850Y795D01*
X16904Y831D01*
X16958Y853D01*
X17023Y865D01*
X17081Y865D01*
X17145Y851D01*
X17198Y829D01*
X17253Y792D01*
X17294Y751D01*
X17330Y696D01*
X17352Y643D01*
X17365Y579D01*
X17365Y579D01*
G37*
G36*
X17765Y19579D02*
X17764Y19511D01*
X17750Y19448D01*
X17726Y19394D01*
X17688Y19341D01*
X17646Y19301D01*
X17591Y19266D01*
X17536Y19245D01*
X17472Y19234D01*
X17414Y19235D01*
X17350Y19249D01*
X17296Y19272D01*
X17243Y19309D01*
X17202Y19352D01*
X17167Y19406D01*
X17146Y19461D01*
X17134Y19525D01*
X17135Y19583D01*
X17148Y19647D01*
X17171Y19701D01*
X17208Y19754D01*
X17250Y19795D01*
X17304Y19831D01*
X17358Y19853D01*
X17423Y19865D01*
X17481Y19865D01*
X17545Y19851D01*
X17598Y19829D01*
X17653Y19792D01*
X17694Y19751D01*
X17730Y19696D01*
X17752Y19643D01*
X17765Y19579D01*
X17765Y19579D01*
G37*
G36*
X18365Y579D02*
X18364Y511D01*
X18350Y448D01*
X18326Y394D01*
X18288Y341D01*
X18246Y301D01*
X18191Y266D01*
X18136Y245D01*
X18072Y234D01*
X18014Y235D01*
X17950Y249D01*
X17896Y272D01*
X17843Y309D01*
X17802Y352D01*
X17767Y406D01*
X17746Y461D01*
X17734Y525D01*
X17735Y583D01*
X17748Y647D01*
X17771Y701D01*
X17808Y754D01*
X17850Y795D01*
X17904Y831D01*
X17958Y853D01*
X18023Y865D01*
X18081Y865D01*
X18145Y851D01*
X18198Y829D01*
X18253Y792D01*
X18294Y751D01*
X18330Y696D01*
X18352Y643D01*
X18365Y579D01*
X18365Y579D01*
G37*
G36*
X18700Y18573D02*
X18699Y18519D01*
X18688Y18469D01*
X18669Y18427D01*
X18639Y18384D01*
X18605Y18352D01*
X18561Y18324D01*
X18519Y18308D01*
X18467Y18299D01*
X18421Y18300D01*
X18370Y18311D01*
X18328Y18329D01*
X18285Y18359D01*
X18254Y18392D01*
X18225Y18436D01*
X18208Y18479D01*
X18199Y18530D01*
X18200Y18576D01*
X18210Y18627D01*
X18228Y18669D01*
X18258Y18712D01*
X18291Y18744D01*
X18335Y18773D01*
X18377Y18790D01*
X18429Y18800D01*
X18474Y18800D01*
X18526Y18789D01*
X18567Y18772D01*
X18611Y18742D01*
X18643Y18710D01*
X18672Y18666D01*
X18690Y18624D01*
X18700Y18573D01*
X18700Y18573D01*
G37*
G36*
X18765Y19234D02*
X18134Y19234D01*
X18134Y19865D01*
X18765Y19865D01*
X18765Y19234D01*
X18765Y19234D01*
G37*
G36*
X19365Y579D02*
X19364Y511D01*
X19350Y448D01*
X19326Y394D01*
X19288Y341D01*
X19246Y301D01*
X19191Y266D01*
X19136Y245D01*
X19072Y234D01*
X19014Y235D01*
X18950Y249D01*
X18896Y272D01*
X18843Y309D01*
X18802Y352D01*
X18767Y406D01*
X18746Y461D01*
X18734Y525D01*
X18735Y583D01*
X18748Y647D01*
X18771Y701D01*
X18808Y754D01*
X18850Y795D01*
X18904Y831D01*
X18958Y853D01*
X19023Y865D01*
X19081Y865D01*
X19145Y851D01*
X19198Y829D01*
X19253Y792D01*
X19294Y751D01*
X19330Y696D01*
X19352Y643D01*
X19365Y579D01*
X19365Y579D01*
G37*
G36*
X20300Y18573D02*
X20299Y18519D01*
X20288Y18469D01*
X20269Y18427D01*
X20239Y18384D01*
X20205Y18352D01*
X20161Y18324D01*
X20119Y18308D01*
X20067Y18299D01*
X20021Y18300D01*
X19970Y18311D01*
X19928Y18329D01*
X19885Y18359D01*
X19854Y18392D01*
X19825Y18436D01*
X19808Y18479D01*
X19799Y18530D01*
X19800Y18576D01*
X19810Y18627D01*
X19828Y18669D01*
X19858Y18712D01*
X19891Y18744D01*
X19935Y18773D01*
X19977Y18790D01*
X20029Y18800D01*
X20074Y18800D01*
X20126Y18789D01*
X20167Y18772D01*
X20211Y18742D01*
X20243Y18710D01*
X20272Y18666D01*
X20290Y18624D01*
X20300Y18573D01*
X20300Y18573D01*
G37*
G36*
X20365Y19579D02*
X20364Y19511D01*
X20350Y19448D01*
X20326Y19394D01*
X20288Y19341D01*
X20246Y19301D01*
X20191Y19266D01*
X20136Y19245D01*
X20072Y19234D01*
X20014Y19235D01*
X19950Y19249D01*
X19896Y19272D01*
X19843Y19309D01*
X19802Y19352D01*
X19767Y19406D01*
X19746Y19461D01*
X19734Y19525D01*
X19735Y19583D01*
X19748Y19647D01*
X19771Y19701D01*
X19808Y19754D01*
X19850Y19795D01*
X19904Y19831D01*
X19958Y19853D01*
X20023Y19865D01*
X20081Y19865D01*
X20145Y19851D01*
X20198Y19829D01*
X20253Y19792D01*
X20294Y19751D01*
X20330Y19696D01*
X20352Y19643D01*
X20365Y19579D01*
X20365Y19579D01*
G37*
G36*
X20365Y579D02*
X20364Y511D01*
X20350Y448D01*
X20326Y394D01*
X20288Y341D01*
X20246Y301D01*
X20191Y266D01*
X20136Y245D01*
X20072Y234D01*
X20014Y235D01*
X19950Y249D01*
X19896Y272D01*
X19843Y309D01*
X19802Y352D01*
X19767Y406D01*
X19746Y461D01*
X19734Y525D01*
X19735Y583D01*
X19748Y647D01*
X19771Y701D01*
X19808Y754D01*
X19850Y795D01*
X19904Y831D01*
X19958Y853D01*
X20023Y865D01*
X20081Y865D01*
X20145Y851D01*
X20198Y829D01*
X20253Y792D01*
X20294Y751D01*
X20330Y696D01*
X20352Y643D01*
X20365Y579D01*
X20365Y579D01*
G37*
G36*
X21300Y18573D02*
X21299Y18519D01*
X21288Y18469D01*
X21269Y18427D01*
X21239Y18384D01*
X21205Y18352D01*
X21161Y18324D01*
X21119Y18308D01*
X21067Y18299D01*
X21021Y18300D01*
X20970Y18311D01*
X20928Y18329D01*
X20885Y18359D01*
X20854Y18392D01*
X20825Y18436D01*
X20808Y18479D01*
X20799Y18530D01*
X20800Y18576D01*
X20810Y18627D01*
X20828Y18669D01*
X20858Y18712D01*
X20891Y18744D01*
X20935Y18773D01*
X20977Y18790D01*
X21029Y18800D01*
X21074Y18800D01*
X21126Y18789D01*
X21167Y18772D01*
X21211Y18742D01*
X21243Y18710D01*
X21272Y18666D01*
X21290Y18624D01*
X21300Y18573D01*
X21300Y18573D01*
G37*
G36*
X21365Y19579D02*
X21364Y19511D01*
X21350Y19448D01*
X21326Y19394D01*
X21288Y19341D01*
X21246Y19301D01*
X21191Y19266D01*
X21136Y19245D01*
X21072Y19234D01*
X21014Y19235D01*
X20950Y19249D01*
X20896Y19272D01*
X20843Y19309D01*
X20802Y19352D01*
X20767Y19406D01*
X20746Y19461D01*
X20734Y19525D01*
X20735Y19583D01*
X20748Y19647D01*
X20771Y19701D01*
X20808Y19754D01*
X20850Y19795D01*
X20904Y19831D01*
X20958Y19853D01*
X21023Y19865D01*
X21081Y19865D01*
X21145Y19851D01*
X21198Y19829D01*
X21253Y19792D01*
X21294Y19751D01*
X21330Y19696D01*
X21352Y19643D01*
X21365Y19579D01*
X21365Y19579D01*
G37*
G36*
X22300Y18573D02*
X22299Y18519D01*
X22288Y18469D01*
X22269Y18427D01*
X22239Y18384D01*
X22205Y18352D01*
X22161Y18324D01*
X22119Y18308D01*
X22067Y18299D01*
X22021Y18300D01*
X21970Y18311D01*
X21928Y18329D01*
X21885Y18359D01*
X21854Y18392D01*
X21825Y18436D01*
X21808Y18479D01*
X21799Y18530D01*
X21800Y18576D01*
X21810Y18627D01*
X21828Y18669D01*
X21858Y18712D01*
X21891Y18744D01*
X21935Y18773D01*
X21977Y18790D01*
X22029Y18800D01*
X22074Y18800D01*
X22126Y18789D01*
X22167Y18772D01*
X22211Y18742D01*
X22243Y18710D01*
X22272Y18666D01*
X22290Y18624D01*
X22300Y18573D01*
X22300Y18573D01*
G37*
G36*
X22300Y1373D02*
X22299Y1319D01*
X22288Y1269D01*
X22269Y1227D01*
X22239Y1184D01*
X22205Y1152D01*
X22161Y1124D01*
X22119Y1108D01*
X22067Y1099D01*
X22021Y1100D01*
X21970Y1111D01*
X21928Y1129D01*
X21885Y1159D01*
X21854Y1192D01*
X21825Y1236D01*
X21808Y1279D01*
X21799Y1330D01*
X21800Y1376D01*
X21810Y1427D01*
X21828Y1469D01*
X21858Y1512D01*
X21891Y1544D01*
X21935Y1573D01*
X21977Y1590D01*
X22029Y1600D01*
X22074Y1600D01*
X22126Y1589D01*
X22167Y1572D01*
X22211Y1542D01*
X22243Y1510D01*
X22272Y1466D01*
X22290Y1424D01*
X22300Y1373D01*
X22300Y1373D01*
G37*
G36*
X22365Y19579D02*
X22364Y19511D01*
X22350Y19448D01*
X22326Y19394D01*
X22288Y19341D01*
X22246Y19301D01*
X22191Y19266D01*
X22136Y19245D01*
X22072Y19234D01*
X22014Y19235D01*
X21950Y19249D01*
X21896Y19272D01*
X21843Y19309D01*
X21802Y19352D01*
X21767Y19406D01*
X21746Y19461D01*
X21734Y19525D01*
X21735Y19583D01*
X21748Y19647D01*
X21771Y19701D01*
X21808Y19754D01*
X21850Y19795D01*
X21904Y19831D01*
X21958Y19853D01*
X22023Y19865D01*
X22081Y19865D01*
X22145Y19851D01*
X22198Y19829D01*
X22253Y19792D01*
X22294Y19751D01*
X22330Y19696D01*
X22352Y19643D01*
X22365Y19579D01*
X22365Y19579D01*
G37*
G36*
X22365Y234D02*
X21734Y234D01*
X21734Y865D01*
X22365Y865D01*
X22365Y234D01*
X22365Y234D01*
G37*
G36*
X23300Y18573D02*
X23299Y18519D01*
X23288Y18469D01*
X23269Y18427D01*
X23239Y18384D01*
X23205Y18352D01*
X23161Y18324D01*
X23119Y18308D01*
X23067Y18299D01*
X23021Y18300D01*
X22970Y18311D01*
X22928Y18329D01*
X22885Y18359D01*
X22854Y18392D01*
X22825Y18436D01*
X22808Y18479D01*
X22799Y18530D01*
X22800Y18576D01*
X22810Y18627D01*
X22828Y18669D01*
X22858Y18712D01*
X22891Y18744D01*
X22935Y18773D01*
X22977Y18790D01*
X23029Y18800D01*
X23074Y18800D01*
X23126Y18789D01*
X23167Y18772D01*
X23211Y18742D01*
X23243Y18710D01*
X23272Y18666D01*
X23290Y18624D01*
X23300Y18573D01*
X23300Y18573D01*
G37*
G36*
X23300Y1373D02*
X23299Y1319D01*
X23288Y1269D01*
X23269Y1227D01*
X23239Y1184D01*
X23205Y1152D01*
X23161Y1124D01*
X23119Y1108D01*
X23067Y1099D01*
X23021Y1100D01*
X22970Y1111D01*
X22928Y1129D01*
X22885Y1159D01*
X22854Y1192D01*
X22825Y1236D01*
X22808Y1279D01*
X22799Y1330D01*
X22800Y1376D01*
X22810Y1427D01*
X22828Y1469D01*
X22858Y1512D01*
X22891Y1544D01*
X22935Y1573D01*
X22977Y1590D01*
X23029Y1600D01*
X23074Y1600D01*
X23126Y1589D01*
X23167Y1572D01*
X23211Y1542D01*
X23243Y1510D01*
X23272Y1466D01*
X23290Y1424D01*
X23300Y1373D01*
X23300Y1373D01*
G37*
G36*
X23365Y19579D02*
X23364Y19511D01*
X23350Y19448D01*
X23326Y19394D01*
X23288Y19341D01*
X23246Y19301D01*
X23191Y19266D01*
X23136Y19245D01*
X23072Y19234D01*
X23014Y19235D01*
X22950Y19249D01*
X22896Y19272D01*
X22843Y19309D01*
X22802Y19352D01*
X22767Y19406D01*
X22746Y19461D01*
X22734Y19525D01*
X22735Y19583D01*
X22748Y19647D01*
X22771Y19701D01*
X22808Y19754D01*
X22850Y19795D01*
X22904Y19831D01*
X22958Y19853D01*
X23023Y19865D01*
X23081Y19865D01*
X23145Y19851D01*
X23198Y19829D01*
X23253Y19792D01*
X23294Y19751D01*
X23330Y19696D01*
X23352Y19643D01*
X23365Y19579D01*
X23365Y19579D01*
G37*
G36*
X23365Y579D02*
X23364Y511D01*
X23350Y448D01*
X23326Y394D01*
X23288Y341D01*
X23246Y301D01*
X23191Y266D01*
X23136Y245D01*
X23072Y234D01*
X23014Y235D01*
X22950Y249D01*
X22896Y272D01*
X22843Y309D01*
X22802Y352D01*
X22767Y406D01*
X22746Y461D01*
X22734Y525D01*
X22735Y583D01*
X22748Y647D01*
X22771Y701D01*
X22808Y754D01*
X22850Y795D01*
X22904Y831D01*
X22958Y853D01*
X23023Y865D01*
X23081Y865D01*
X23145Y851D01*
X23198Y829D01*
X23253Y792D01*
X23294Y751D01*
X23330Y696D01*
X23352Y643D01*
X23365Y579D01*
X23365Y579D01*
G37*
G36*
X24300Y18573D02*
X24299Y18519D01*
X24288Y18469D01*
X24269Y18427D01*
X24239Y18384D01*
X24205Y18352D01*
X24161Y18324D01*
X24119Y18308D01*
X24067Y18299D01*
X24021Y18300D01*
X23970Y18311D01*
X23928Y18329D01*
X23885Y18359D01*
X23854Y18392D01*
X23825Y18436D01*
X23808Y18479D01*
X23799Y18530D01*
X23800Y18576D01*
X23810Y18627D01*
X23828Y18669D01*
X23858Y18712D01*
X23891Y18744D01*
X23935Y18773D01*
X23977Y18790D01*
X24029Y18800D01*
X24074Y18800D01*
X24126Y18789D01*
X24167Y18772D01*
X24211Y18742D01*
X24243Y18710D01*
X24272Y18666D01*
X24290Y18624D01*
X24300Y18573D01*
X24300Y18573D01*
G37*
G36*
X24300Y1373D02*
X24299Y1319D01*
X24288Y1269D01*
X24269Y1227D01*
X24239Y1184D01*
X24205Y1152D01*
X24161Y1124D01*
X24119Y1108D01*
X24067Y1099D01*
X24021Y1100D01*
X23970Y1111D01*
X23928Y1129D01*
X23885Y1159D01*
X23854Y1192D01*
X23825Y1236D01*
X23808Y1279D01*
X23799Y1330D01*
X23800Y1376D01*
X23810Y1427D01*
X23828Y1469D01*
X23858Y1512D01*
X23891Y1544D01*
X23935Y1573D01*
X23977Y1590D01*
X24029Y1600D01*
X24074Y1600D01*
X24126Y1589D01*
X24167Y1572D01*
X24211Y1542D01*
X24243Y1510D01*
X24272Y1466D01*
X24290Y1424D01*
X24300Y1373D01*
X24300Y1373D01*
G37*
G36*
X24365Y19579D02*
X24364Y19511D01*
X24350Y19448D01*
X24326Y19394D01*
X24288Y19341D01*
X24246Y19301D01*
X24191Y19266D01*
X24136Y19245D01*
X24072Y19234D01*
X24014Y19235D01*
X23950Y19249D01*
X23896Y19272D01*
X23843Y19309D01*
X23802Y19352D01*
X23767Y19406D01*
X23746Y19461D01*
X23734Y19525D01*
X23735Y19583D01*
X23748Y19647D01*
X23771Y19701D01*
X23808Y19754D01*
X23850Y19795D01*
X23904Y19831D01*
X23958Y19853D01*
X24023Y19865D01*
X24081Y19865D01*
X24145Y19851D01*
X24198Y19829D01*
X24253Y19792D01*
X24294Y19751D01*
X24330Y19696D01*
X24352Y19643D01*
X24365Y19579D01*
X24365Y19579D01*
G37*
G36*
X24365Y579D02*
X24364Y511D01*
X24350Y448D01*
X24326Y394D01*
X24288Y341D01*
X24246Y301D01*
X24191Y266D01*
X24136Y245D01*
X24072Y234D01*
X24014Y235D01*
X23950Y249D01*
X23896Y272D01*
X23843Y309D01*
X23802Y352D01*
X23767Y406D01*
X23746Y461D01*
X23734Y525D01*
X23735Y583D01*
X23748Y647D01*
X23771Y701D01*
X23808Y754D01*
X23850Y795D01*
X23904Y831D01*
X23958Y853D01*
X24023Y865D01*
X24081Y865D01*
X24145Y851D01*
X24198Y829D01*
X24253Y792D01*
X24294Y751D01*
X24330Y696D01*
X24352Y643D01*
X24365Y579D01*
X24365Y579D01*
G37*
G36*
X25300Y18573D02*
X25299Y18519D01*
X25288Y18469D01*
X25269Y18427D01*
X25239Y18384D01*
X25205Y18352D01*
X25161Y18324D01*
X25119Y18308D01*
X25067Y18299D01*
X25021Y18300D01*
X24970Y18311D01*
X24928Y18329D01*
X24885Y18359D01*
X24854Y18392D01*
X24825Y18436D01*
X24808Y18479D01*
X24799Y18530D01*
X24800Y18576D01*
X24810Y18627D01*
X24828Y18669D01*
X24858Y18712D01*
X24891Y18744D01*
X24935Y18773D01*
X24977Y18790D01*
X25029Y18800D01*
X25074Y18800D01*
X25126Y18789D01*
X25167Y18772D01*
X25211Y18742D01*
X25243Y18710D01*
X25272Y18666D01*
X25290Y18624D01*
X25300Y18573D01*
X25300Y18573D01*
G37*
G36*
X25300Y1373D02*
X25299Y1319D01*
X25288Y1269D01*
X25269Y1227D01*
X25239Y1184D01*
X25205Y1152D01*
X25161Y1124D01*
X25119Y1108D01*
X25067Y1099D01*
X25021Y1100D01*
X24970Y1111D01*
X24928Y1129D01*
X24885Y1159D01*
X24854Y1192D01*
X24825Y1236D01*
X24808Y1279D01*
X24799Y1330D01*
X24800Y1376D01*
X24810Y1427D01*
X24828Y1469D01*
X24858Y1512D01*
X24891Y1544D01*
X24935Y1573D01*
X24977Y1590D01*
X25029Y1600D01*
X25074Y1600D01*
X25126Y1589D01*
X25167Y1572D01*
X25211Y1542D01*
X25243Y1510D01*
X25272Y1466D01*
X25290Y1424D01*
X25300Y1373D01*
X25300Y1373D01*
G37*
G36*
X25365Y19579D02*
X25364Y19511D01*
X25350Y19448D01*
X25326Y19394D01*
X25288Y19341D01*
X25246Y19301D01*
X25191Y19266D01*
X25136Y19245D01*
X25072Y19234D01*
X25014Y19235D01*
X24950Y19249D01*
X24896Y19272D01*
X24843Y19309D01*
X24802Y19352D01*
X24767Y19406D01*
X24746Y19461D01*
X24734Y19525D01*
X24735Y19583D01*
X24748Y19647D01*
X24771Y19701D01*
X24808Y19754D01*
X24850Y19795D01*
X24904Y19831D01*
X24958Y19853D01*
X25023Y19865D01*
X25081Y19865D01*
X25145Y19851D01*
X25198Y19829D01*
X25253Y19792D01*
X25294Y19751D01*
X25330Y19696D01*
X25352Y19643D01*
X25365Y19579D01*
X25365Y19579D01*
G37*
G36*
X25365Y579D02*
X25364Y511D01*
X25350Y448D01*
X25326Y394D01*
X25288Y341D01*
X25246Y301D01*
X25191Y266D01*
X25136Y245D01*
X25072Y234D01*
X25014Y235D01*
X24950Y249D01*
X24896Y272D01*
X24843Y309D01*
X24802Y352D01*
X24767Y406D01*
X24746Y461D01*
X24734Y525D01*
X24735Y583D01*
X24748Y647D01*
X24771Y701D01*
X24808Y754D01*
X24850Y795D01*
X24904Y831D01*
X24958Y853D01*
X25023Y865D01*
X25081Y865D01*
X25145Y851D01*
X25198Y829D01*
X25253Y792D01*
X25294Y751D01*
X25330Y696D01*
X25352Y643D01*
X25365Y579D01*
X25365Y579D01*
G37*
G36*
X26300Y18573D02*
X26299Y18519D01*
X26288Y18469D01*
X26269Y18427D01*
X26239Y18384D01*
X26205Y18352D01*
X26161Y18324D01*
X26119Y18308D01*
X26067Y18299D01*
X26021Y18300D01*
X25970Y18311D01*
X25928Y18329D01*
X25885Y18359D01*
X25854Y18392D01*
X25825Y18436D01*
X25808Y18479D01*
X25799Y18530D01*
X25800Y18576D01*
X25810Y18627D01*
X25828Y18669D01*
X25858Y18712D01*
X25891Y18744D01*
X25935Y18773D01*
X25977Y18790D01*
X26029Y18800D01*
X26074Y18800D01*
X26126Y18789D01*
X26167Y18772D01*
X26211Y18742D01*
X26243Y18710D01*
X26272Y18666D01*
X26290Y18624D01*
X26300Y18573D01*
X26300Y18573D01*
G37*
G36*
X26300Y1373D02*
X26299Y1319D01*
X26288Y1269D01*
X26269Y1227D01*
X26239Y1184D01*
X26205Y1152D01*
X26161Y1124D01*
X26119Y1108D01*
X26067Y1099D01*
X26021Y1100D01*
X25970Y1111D01*
X25928Y1129D01*
X25885Y1159D01*
X25854Y1192D01*
X25825Y1236D01*
X25808Y1279D01*
X25799Y1330D01*
X25800Y1376D01*
X25810Y1427D01*
X25828Y1469D01*
X25858Y1512D01*
X25891Y1544D01*
X25935Y1573D01*
X25977Y1590D01*
X26029Y1600D01*
X26074Y1600D01*
X26126Y1589D01*
X26167Y1572D01*
X26211Y1542D01*
X26243Y1510D01*
X26272Y1466D01*
X26290Y1424D01*
X26300Y1373D01*
X26300Y1373D01*
G37*
G36*
X26365Y19579D02*
X26364Y19511D01*
X26350Y19448D01*
X26326Y19394D01*
X26288Y19341D01*
X26246Y19301D01*
X26191Y19266D01*
X26136Y19245D01*
X26072Y19234D01*
X26014Y19235D01*
X25950Y19249D01*
X25896Y19272D01*
X25843Y19309D01*
X25802Y19352D01*
X25767Y19406D01*
X25746Y19461D01*
X25734Y19525D01*
X25735Y19583D01*
X25748Y19647D01*
X25771Y19701D01*
X25808Y19754D01*
X25850Y19795D01*
X25904Y19831D01*
X25958Y19853D01*
X26023Y19865D01*
X26081Y19865D01*
X26145Y19851D01*
X26198Y19829D01*
X26253Y19792D01*
X26294Y19751D01*
X26330Y19696D01*
X26352Y19643D01*
X26365Y19579D01*
X26365Y19579D01*
G37*
G36*
X26365Y579D02*
X26364Y511D01*
X26350Y448D01*
X26326Y394D01*
X26288Y341D01*
X26246Y301D01*
X26191Y266D01*
X26136Y245D01*
X26072Y234D01*
X26014Y235D01*
X25950Y249D01*
X25896Y272D01*
X25843Y309D01*
X25802Y352D01*
X25767Y406D01*
X25746Y461D01*
X25734Y525D01*
X25735Y583D01*
X25748Y647D01*
X25771Y701D01*
X25808Y754D01*
X25850Y795D01*
X25904Y831D01*
X25958Y853D01*
X26023Y865D01*
X26081Y865D01*
X26145Y851D01*
X26198Y829D01*
X26253Y792D01*
X26294Y751D01*
X26330Y696D01*
X26352Y643D01*
X26365Y579D01*
X26365Y579D01*
G37*
G36*
X27300Y18573D02*
X27299Y18519D01*
X27288Y18469D01*
X27269Y18427D01*
X27239Y18384D01*
X27205Y18352D01*
X27161Y18324D01*
X27119Y18308D01*
X27067Y18299D01*
X27021Y18300D01*
X26970Y18311D01*
X26928Y18329D01*
X26885Y18359D01*
X26854Y18392D01*
X26825Y18436D01*
X26808Y18479D01*
X26799Y18530D01*
X26800Y18576D01*
X26810Y18627D01*
X26828Y18669D01*
X26858Y18712D01*
X26891Y18744D01*
X26935Y18773D01*
X26977Y18790D01*
X27029Y18800D01*
X27074Y18800D01*
X27126Y18789D01*
X27167Y18772D01*
X27211Y18742D01*
X27243Y18710D01*
X27272Y18666D01*
X27290Y18624D01*
X27300Y18573D01*
X27300Y18573D01*
G37*
G36*
X27300Y1373D02*
X27299Y1319D01*
X27288Y1269D01*
X27269Y1227D01*
X27239Y1184D01*
X27205Y1152D01*
X27161Y1124D01*
X27119Y1108D01*
X27067Y1099D01*
X27021Y1100D01*
X26970Y1111D01*
X26928Y1129D01*
X26885Y1159D01*
X26854Y1192D01*
X26825Y1236D01*
X26808Y1279D01*
X26799Y1330D01*
X26800Y1376D01*
X26810Y1427D01*
X26828Y1469D01*
X26858Y1512D01*
X26891Y1544D01*
X26935Y1573D01*
X26977Y1590D01*
X27029Y1600D01*
X27074Y1600D01*
X27126Y1589D01*
X27167Y1572D01*
X27211Y1542D01*
X27243Y1510D01*
X27272Y1466D01*
X27290Y1424D01*
X27300Y1373D01*
X27300Y1373D01*
G37*
G36*
X27365Y579D02*
X27364Y511D01*
X27350Y448D01*
X27326Y394D01*
X27288Y341D01*
X27246Y301D01*
X27191Y266D01*
X27136Y245D01*
X27072Y234D01*
X27014Y235D01*
X26950Y249D01*
X26896Y272D01*
X26843Y309D01*
X26802Y352D01*
X26767Y406D01*
X26746Y461D01*
X26734Y525D01*
X26735Y583D01*
X26748Y647D01*
X26771Y701D01*
X26808Y754D01*
X26850Y795D01*
X26904Y831D01*
X26958Y853D01*
X27023Y865D01*
X27081Y865D01*
X27145Y851D01*
X27198Y829D01*
X27253Y792D01*
X27294Y751D01*
X27330Y696D01*
X27352Y643D01*
X27365Y579D01*
X27365Y579D01*
G37*
G36*
X27365Y19234D02*
X26734Y19234D01*
X26734Y19865D01*
X27365Y19865D01*
X27365Y19234D01*
X27365Y19234D01*
G37*
G36*
X28212Y13662D02*
X28208Y13405D01*
X28157Y13180D01*
X28066Y12974D01*
X27933Y12785D01*
X27770Y12630D01*
X27575Y12506D01*
X27365Y12425D01*
X27138Y12385D01*
X26913Y12390D01*
X26687Y12439D01*
X26481Y12529D01*
X26291Y12661D01*
X26135Y12823D01*
X26010Y13017D01*
X25927Y13226D01*
X25886Y13453D01*
X25889Y13678D01*
X25937Y13904D01*
X26025Y14111D01*
X26156Y14302D01*
X26316Y14459D01*
X26510Y14585D01*
X26718Y14669D01*
X26945Y14713D01*
X27170Y14711D01*
X27397Y14665D01*
X27603Y14578D01*
X27795Y14448D01*
X27953Y14289D01*
X28082Y14096D01*
X28167Y13889D01*
X28212Y13662D01*
X28212Y13662D01*
G37*
G36*
X28212Y4662D02*
X28208Y4405D01*
X28157Y4180D01*
X28066Y3974D01*
X27933Y3785D01*
X27770Y3630D01*
X27575Y3506D01*
X27365Y3425D01*
X27138Y3385D01*
X26913Y3390D01*
X26687Y3439D01*
X26481Y3529D01*
X26291Y3661D01*
X26135Y3823D01*
X26010Y4017D01*
X25927Y4226D01*
X25886Y4453D01*
X25889Y4678D01*
X25937Y4904D01*
X26025Y5111D01*
X26156Y5302D01*
X26316Y5459D01*
X26510Y5585D01*
X26718Y5669D01*
X26945Y5713D01*
X27170Y5711D01*
X27397Y5665D01*
X27603Y5578D01*
X27795Y5448D01*
X27953Y5289D01*
X28082Y5096D01*
X28167Y4889D01*
X28212Y4662D01*
X28212Y4662D01*
G37*
G36*
X28794Y20137D02*
X28792Y20051D01*
X28775Y19973D01*
X28744Y19905D01*
X28698Y19840D01*
X28644Y19789D01*
X28577Y19746D01*
X28507Y19719D01*
X28428Y19705D01*
X28354Y19706D01*
X28276Y19724D01*
X28208Y19753D01*
X28142Y19799D01*
X28090Y19852D01*
X28047Y19920D01*
X28020Y19989D01*
X28005Y20068D01*
X28006Y20142D01*
X28023Y20221D01*
X28052Y20289D01*
X28097Y20355D01*
X28150Y20407D01*
X28218Y20451D01*
X28286Y20479D01*
X28365Y20494D01*
X28439Y20493D01*
X28518Y20477D01*
X28586Y20449D01*
X28653Y20403D01*
X28705Y20351D01*
X28750Y20284D01*
X28778Y20216D01*
X28794Y20137D01*
X28794Y20137D01*
G37*
G36*
X28794Y37D02*
X28792Y-48D01*
X28775Y-126D01*
X28744Y-194D01*
X28698Y-259D01*
X28644Y-310D01*
X28577Y-353D01*
X28507Y-380D01*
X28428Y-394D01*
X28354Y-393D01*
X28276Y-375D01*
X28208Y-346D01*
X28142Y-300D01*
X28090Y-247D01*
X28047Y-179D01*
X28020Y-110D01*
X28005Y-31D01*
X28006Y42D01*
X28023Y121D01*
X28052Y189D01*
X28097Y255D01*
X28150Y307D01*
X28218Y351D01*
X28286Y379D01*
X28365Y394D01*
X28439Y393D01*
X28518Y377D01*
X28586Y349D01*
X28653Y303D01*
X28705Y251D01*
X28750Y184D01*
X28778Y116D01*
X28794Y37D01*
X28794Y37D01*
G37*
M02*
