G04 (created by PCBNEW (2013-07-07 BZR 4022)-stable) date 10/26/2016 12:18:13 AM*
%MOIN*%
G04 Gerber Fmt 3.4, Leading zero omitted, Abs format*
%FSLAX34Y34*%
G01*
G70*
G90*
G04 APERTURE LIST*
%ADD10C,0.00590551*%
%ADD11C,0.011811*%
%ADD12C,0.00787402*%
%ADD13C,0.00738189*%
%ADD14C,0.005*%
%ADD15C,0.0025*%
G04 APERTURE END LIST*
G54D10*
G54D11*
X60680Y-38739D02*
X60483Y-38457D01*
X60342Y-38739D02*
X60342Y-38148D01*
X60567Y-38148D01*
X60623Y-38176D01*
X60651Y-38204D01*
X60680Y-38260D01*
X60680Y-38345D01*
X60651Y-38401D01*
X60623Y-38429D01*
X60567Y-38457D01*
X60342Y-38457D01*
X61045Y-38148D02*
X61158Y-38148D01*
X61214Y-38176D01*
X61270Y-38232D01*
X61298Y-38345D01*
X61298Y-38542D01*
X61270Y-38654D01*
X61214Y-38710D01*
X61158Y-38739D01*
X61045Y-38739D01*
X60989Y-38710D01*
X60933Y-38654D01*
X60905Y-38542D01*
X60905Y-38345D01*
X60933Y-38232D01*
X60989Y-38176D01*
X61045Y-38148D01*
X61551Y-38148D02*
X61551Y-38626D01*
X61579Y-38682D01*
X61608Y-38710D01*
X61664Y-38739D01*
X61776Y-38739D01*
X61833Y-38710D01*
X61861Y-38682D01*
X61889Y-38626D01*
X61889Y-38148D01*
X62086Y-38148D02*
X62423Y-38148D01*
X62254Y-38739D02*
X62254Y-38148D01*
X62620Y-38739D02*
X62620Y-38148D01*
X62901Y-38739D02*
X62901Y-38148D01*
X63239Y-38739D01*
X63239Y-38148D01*
X63829Y-38176D02*
X63773Y-38148D01*
X63689Y-38148D01*
X63604Y-38176D01*
X63548Y-38232D01*
X63520Y-38289D01*
X63492Y-38401D01*
X63492Y-38485D01*
X63520Y-38598D01*
X63548Y-38654D01*
X63604Y-38710D01*
X63689Y-38739D01*
X63745Y-38739D01*
X63829Y-38710D01*
X63857Y-38682D01*
X63857Y-38485D01*
X63745Y-38485D01*
X64560Y-38739D02*
X64560Y-38148D01*
X64560Y-38429D02*
X64898Y-38429D01*
X64898Y-38739D02*
X64898Y-38148D01*
X65179Y-38429D02*
X65376Y-38429D01*
X65460Y-38739D02*
X65179Y-38739D01*
X65179Y-38148D01*
X65460Y-38148D01*
X66051Y-38739D02*
X65854Y-38457D01*
X65713Y-38739D02*
X65713Y-38148D01*
X65938Y-38148D01*
X65994Y-38176D01*
X66023Y-38204D01*
X66051Y-38260D01*
X66051Y-38345D01*
X66023Y-38401D01*
X65994Y-38429D01*
X65938Y-38457D01*
X65713Y-38457D01*
X66304Y-38429D02*
X66501Y-38429D01*
X66585Y-38739D02*
X66304Y-38739D01*
X66304Y-38148D01*
X66585Y-38148D01*
X77680Y-38739D02*
X77483Y-38457D01*
X77342Y-38739D02*
X77342Y-38148D01*
X77567Y-38148D01*
X77623Y-38176D01*
X77651Y-38204D01*
X77680Y-38260D01*
X77680Y-38345D01*
X77651Y-38401D01*
X77623Y-38429D01*
X77567Y-38457D01*
X77342Y-38457D01*
X78045Y-38148D02*
X78158Y-38148D01*
X78214Y-38176D01*
X78270Y-38232D01*
X78298Y-38345D01*
X78298Y-38542D01*
X78270Y-38654D01*
X78214Y-38710D01*
X78158Y-38739D01*
X78045Y-38739D01*
X77989Y-38710D01*
X77933Y-38654D01*
X77905Y-38542D01*
X77905Y-38345D01*
X77933Y-38232D01*
X77989Y-38176D01*
X78045Y-38148D01*
X78551Y-38148D02*
X78551Y-38626D01*
X78579Y-38682D01*
X78608Y-38710D01*
X78664Y-38739D01*
X78776Y-38739D01*
X78833Y-38710D01*
X78861Y-38682D01*
X78889Y-38626D01*
X78889Y-38148D01*
X79086Y-38148D02*
X79423Y-38148D01*
X79254Y-38739D02*
X79254Y-38148D01*
X79620Y-38739D02*
X79620Y-38148D01*
X79901Y-38739D02*
X79901Y-38148D01*
X80239Y-38739D01*
X80239Y-38148D01*
X80829Y-38176D02*
X80773Y-38148D01*
X80689Y-38148D01*
X80604Y-38176D01*
X80548Y-38232D01*
X80520Y-38289D01*
X80492Y-38401D01*
X80492Y-38485D01*
X80520Y-38598D01*
X80548Y-38654D01*
X80604Y-38710D01*
X80689Y-38739D01*
X80745Y-38739D01*
X80829Y-38710D01*
X80857Y-38682D01*
X80857Y-38485D01*
X80745Y-38485D01*
X81560Y-38739D02*
X81560Y-38148D01*
X81560Y-38429D02*
X81898Y-38429D01*
X81898Y-38739D02*
X81898Y-38148D01*
X82179Y-38429D02*
X82376Y-38429D01*
X82460Y-38739D02*
X82179Y-38739D01*
X82179Y-38148D01*
X82460Y-38148D01*
X83051Y-38739D02*
X82854Y-38457D01*
X82713Y-38739D02*
X82713Y-38148D01*
X82938Y-38148D01*
X82994Y-38176D01*
X83023Y-38204D01*
X83051Y-38260D01*
X83051Y-38345D01*
X83023Y-38401D01*
X82994Y-38429D01*
X82938Y-38457D01*
X82713Y-38457D01*
X83304Y-38429D02*
X83501Y-38429D01*
X83585Y-38739D02*
X83304Y-38739D01*
X83304Y-38148D01*
X83585Y-38148D01*
X87739Y-46269D02*
X87457Y-46466D01*
X87739Y-46607D02*
X87148Y-46607D01*
X87148Y-46382D01*
X87176Y-46326D01*
X87204Y-46298D01*
X87260Y-46269D01*
X87345Y-46269D01*
X87401Y-46298D01*
X87429Y-46326D01*
X87457Y-46382D01*
X87457Y-46607D01*
X87148Y-45904D02*
X87148Y-45791D01*
X87176Y-45735D01*
X87232Y-45679D01*
X87345Y-45651D01*
X87542Y-45651D01*
X87654Y-45679D01*
X87710Y-45735D01*
X87739Y-45791D01*
X87739Y-45904D01*
X87710Y-45960D01*
X87654Y-46016D01*
X87542Y-46044D01*
X87345Y-46044D01*
X87232Y-46016D01*
X87176Y-45960D01*
X87148Y-45904D01*
X87148Y-45398D02*
X87626Y-45398D01*
X87682Y-45370D01*
X87710Y-45341D01*
X87739Y-45285D01*
X87739Y-45173D01*
X87710Y-45116D01*
X87682Y-45088D01*
X87626Y-45060D01*
X87148Y-45060D01*
X87148Y-44863D02*
X87148Y-44526D01*
X87739Y-44695D02*
X87148Y-44695D01*
X87739Y-44329D02*
X87148Y-44329D01*
X87739Y-44048D02*
X87148Y-44048D01*
X87739Y-43710D01*
X87148Y-43710D01*
X87176Y-43120D02*
X87148Y-43176D01*
X87148Y-43260D01*
X87176Y-43345D01*
X87232Y-43401D01*
X87289Y-43429D01*
X87401Y-43457D01*
X87485Y-43457D01*
X87598Y-43429D01*
X87654Y-43401D01*
X87710Y-43345D01*
X87739Y-43260D01*
X87739Y-43204D01*
X87710Y-43120D01*
X87682Y-43092D01*
X87485Y-43092D01*
X87485Y-43204D01*
X87739Y-42389D02*
X87148Y-42389D01*
X87429Y-42389D02*
X87429Y-42051D01*
X87739Y-42051D02*
X87148Y-42051D01*
X87429Y-41770D02*
X87429Y-41573D01*
X87739Y-41489D02*
X87739Y-41770D01*
X87148Y-41770D01*
X87148Y-41489D01*
X87739Y-40898D02*
X87457Y-41095D01*
X87739Y-41236D02*
X87148Y-41236D01*
X87148Y-41011D01*
X87176Y-40955D01*
X87204Y-40926D01*
X87260Y-40898D01*
X87345Y-40898D01*
X87401Y-40926D01*
X87429Y-40955D01*
X87457Y-41011D01*
X87457Y-41236D01*
X87429Y-40645D02*
X87429Y-40448D01*
X87739Y-40364D02*
X87739Y-40645D01*
X87148Y-40645D01*
X87148Y-40364D01*
X87739Y-58219D02*
X87457Y-58416D01*
X87739Y-58557D02*
X87148Y-58557D01*
X87148Y-58332D01*
X87176Y-58276D01*
X87204Y-58248D01*
X87260Y-58219D01*
X87345Y-58219D01*
X87401Y-58248D01*
X87429Y-58276D01*
X87457Y-58332D01*
X87457Y-58557D01*
X87148Y-57854D02*
X87148Y-57741D01*
X87176Y-57685D01*
X87232Y-57629D01*
X87345Y-57601D01*
X87542Y-57601D01*
X87654Y-57629D01*
X87710Y-57685D01*
X87739Y-57741D01*
X87739Y-57854D01*
X87710Y-57910D01*
X87654Y-57966D01*
X87542Y-57994D01*
X87345Y-57994D01*
X87232Y-57966D01*
X87176Y-57910D01*
X87148Y-57854D01*
X87148Y-57348D02*
X87626Y-57348D01*
X87682Y-57320D01*
X87710Y-57291D01*
X87739Y-57235D01*
X87739Y-57123D01*
X87710Y-57066D01*
X87682Y-57038D01*
X87626Y-57010D01*
X87148Y-57010D01*
X87148Y-56813D02*
X87148Y-56476D01*
X87739Y-56645D02*
X87148Y-56645D01*
X87739Y-56279D02*
X87148Y-56279D01*
X87739Y-55998D02*
X87148Y-55998D01*
X87739Y-55660D01*
X87148Y-55660D01*
X87176Y-55070D02*
X87148Y-55126D01*
X87148Y-55210D01*
X87176Y-55295D01*
X87232Y-55351D01*
X87289Y-55379D01*
X87401Y-55407D01*
X87485Y-55407D01*
X87598Y-55379D01*
X87654Y-55351D01*
X87710Y-55295D01*
X87739Y-55210D01*
X87739Y-55154D01*
X87710Y-55070D01*
X87682Y-55042D01*
X87485Y-55042D01*
X87485Y-55154D01*
X87739Y-54339D02*
X87148Y-54339D01*
X87429Y-54339D02*
X87429Y-54001D01*
X87739Y-54001D02*
X87148Y-54001D01*
X87429Y-53720D02*
X87429Y-53523D01*
X87739Y-53439D02*
X87739Y-53720D01*
X87148Y-53720D01*
X87148Y-53439D01*
X87739Y-52848D02*
X87457Y-53045D01*
X87739Y-53186D02*
X87148Y-53186D01*
X87148Y-52961D01*
X87176Y-52905D01*
X87204Y-52876D01*
X87260Y-52848D01*
X87345Y-52848D01*
X87401Y-52876D01*
X87429Y-52905D01*
X87457Y-52961D01*
X87457Y-53186D01*
X87429Y-52595D02*
X87429Y-52398D01*
X87739Y-52314D02*
X87739Y-52595D01*
X87148Y-52595D01*
X87148Y-52314D01*
X76330Y-60739D02*
X76133Y-60457D01*
X75992Y-60739D02*
X75992Y-60148D01*
X76217Y-60148D01*
X76273Y-60176D01*
X76301Y-60204D01*
X76330Y-60260D01*
X76330Y-60345D01*
X76301Y-60401D01*
X76273Y-60429D01*
X76217Y-60457D01*
X75992Y-60457D01*
X76695Y-60148D02*
X76808Y-60148D01*
X76864Y-60176D01*
X76920Y-60232D01*
X76948Y-60345D01*
X76948Y-60542D01*
X76920Y-60654D01*
X76864Y-60710D01*
X76808Y-60739D01*
X76695Y-60739D01*
X76639Y-60710D01*
X76583Y-60654D01*
X76555Y-60542D01*
X76555Y-60345D01*
X76583Y-60232D01*
X76639Y-60176D01*
X76695Y-60148D01*
X77201Y-60148D02*
X77201Y-60626D01*
X77229Y-60682D01*
X77258Y-60710D01*
X77314Y-60739D01*
X77426Y-60739D01*
X77483Y-60710D01*
X77511Y-60682D01*
X77539Y-60626D01*
X77539Y-60148D01*
X77736Y-60148D02*
X78073Y-60148D01*
X77904Y-60739D02*
X77904Y-60148D01*
X78270Y-60739D02*
X78270Y-60148D01*
X78551Y-60739D02*
X78551Y-60148D01*
X78889Y-60739D01*
X78889Y-60148D01*
X79479Y-60176D02*
X79423Y-60148D01*
X79339Y-60148D01*
X79254Y-60176D01*
X79198Y-60232D01*
X79170Y-60289D01*
X79142Y-60401D01*
X79142Y-60485D01*
X79170Y-60598D01*
X79198Y-60654D01*
X79254Y-60710D01*
X79339Y-60739D01*
X79395Y-60739D01*
X79479Y-60710D01*
X79507Y-60682D01*
X79507Y-60485D01*
X79395Y-60485D01*
X80210Y-60739D02*
X80210Y-60148D01*
X80210Y-60429D02*
X80548Y-60429D01*
X80548Y-60739D02*
X80548Y-60148D01*
X80829Y-60429D02*
X81026Y-60429D01*
X81110Y-60739D02*
X80829Y-60739D01*
X80829Y-60148D01*
X81110Y-60148D01*
X81701Y-60739D02*
X81504Y-60457D01*
X81363Y-60739D02*
X81363Y-60148D01*
X81588Y-60148D01*
X81644Y-60176D01*
X81673Y-60204D01*
X81701Y-60260D01*
X81701Y-60345D01*
X81673Y-60401D01*
X81644Y-60429D01*
X81588Y-60457D01*
X81363Y-60457D01*
X81954Y-60429D02*
X82151Y-60429D01*
X82235Y-60739D02*
X81954Y-60739D01*
X81954Y-60148D01*
X82235Y-60148D01*
X62030Y-60739D02*
X61833Y-60457D01*
X61692Y-60739D02*
X61692Y-60148D01*
X61917Y-60148D01*
X61973Y-60176D01*
X62001Y-60204D01*
X62030Y-60260D01*
X62030Y-60345D01*
X62001Y-60401D01*
X61973Y-60429D01*
X61917Y-60457D01*
X61692Y-60457D01*
X62395Y-60148D02*
X62508Y-60148D01*
X62564Y-60176D01*
X62620Y-60232D01*
X62648Y-60345D01*
X62648Y-60542D01*
X62620Y-60654D01*
X62564Y-60710D01*
X62508Y-60739D01*
X62395Y-60739D01*
X62339Y-60710D01*
X62283Y-60654D01*
X62255Y-60542D01*
X62255Y-60345D01*
X62283Y-60232D01*
X62339Y-60176D01*
X62395Y-60148D01*
X62901Y-60148D02*
X62901Y-60626D01*
X62929Y-60682D01*
X62958Y-60710D01*
X63014Y-60739D01*
X63126Y-60739D01*
X63183Y-60710D01*
X63211Y-60682D01*
X63239Y-60626D01*
X63239Y-60148D01*
X63436Y-60148D02*
X63773Y-60148D01*
X63604Y-60739D02*
X63604Y-60148D01*
X63970Y-60739D02*
X63970Y-60148D01*
X64251Y-60739D02*
X64251Y-60148D01*
X64589Y-60739D01*
X64589Y-60148D01*
X65179Y-60176D02*
X65123Y-60148D01*
X65039Y-60148D01*
X64954Y-60176D01*
X64898Y-60232D01*
X64870Y-60289D01*
X64842Y-60401D01*
X64842Y-60485D01*
X64870Y-60598D01*
X64898Y-60654D01*
X64954Y-60710D01*
X65039Y-60739D01*
X65095Y-60739D01*
X65179Y-60710D01*
X65207Y-60682D01*
X65207Y-60485D01*
X65095Y-60485D01*
X65910Y-60739D02*
X65910Y-60148D01*
X65910Y-60429D02*
X66248Y-60429D01*
X66248Y-60739D02*
X66248Y-60148D01*
X66529Y-60429D02*
X66726Y-60429D01*
X66810Y-60739D02*
X66529Y-60739D01*
X66529Y-60148D01*
X66810Y-60148D01*
X67401Y-60739D02*
X67204Y-60457D01*
X67063Y-60739D02*
X67063Y-60148D01*
X67288Y-60148D01*
X67344Y-60176D01*
X67373Y-60204D01*
X67401Y-60260D01*
X67401Y-60345D01*
X67373Y-60401D01*
X67344Y-60429D01*
X67288Y-60457D01*
X67063Y-60457D01*
X67654Y-60429D02*
X67851Y-60429D01*
X67935Y-60739D02*
X67654Y-60739D01*
X67654Y-60148D01*
X67935Y-60148D01*
X57289Y-58669D02*
X57007Y-58866D01*
X57289Y-59007D02*
X56698Y-59007D01*
X56698Y-58782D01*
X56726Y-58726D01*
X56754Y-58698D01*
X56810Y-58669D01*
X56895Y-58669D01*
X56951Y-58698D01*
X56979Y-58726D01*
X57007Y-58782D01*
X57007Y-59007D01*
X56698Y-58304D02*
X56698Y-58191D01*
X56726Y-58135D01*
X56782Y-58079D01*
X56895Y-58051D01*
X57092Y-58051D01*
X57204Y-58079D01*
X57260Y-58135D01*
X57289Y-58191D01*
X57289Y-58304D01*
X57260Y-58360D01*
X57204Y-58416D01*
X57092Y-58444D01*
X56895Y-58444D01*
X56782Y-58416D01*
X56726Y-58360D01*
X56698Y-58304D01*
X56698Y-57798D02*
X57176Y-57798D01*
X57232Y-57770D01*
X57260Y-57741D01*
X57289Y-57685D01*
X57289Y-57573D01*
X57260Y-57516D01*
X57232Y-57488D01*
X57176Y-57460D01*
X56698Y-57460D01*
X56698Y-57263D02*
X56698Y-56926D01*
X57289Y-57095D02*
X56698Y-57095D01*
X57289Y-56729D02*
X56698Y-56729D01*
X57289Y-56448D02*
X56698Y-56448D01*
X57289Y-56110D01*
X56698Y-56110D01*
X56726Y-55520D02*
X56698Y-55576D01*
X56698Y-55660D01*
X56726Y-55745D01*
X56782Y-55801D01*
X56839Y-55829D01*
X56951Y-55857D01*
X57035Y-55857D01*
X57148Y-55829D01*
X57204Y-55801D01*
X57260Y-55745D01*
X57289Y-55660D01*
X57289Y-55604D01*
X57260Y-55520D01*
X57232Y-55492D01*
X57035Y-55492D01*
X57035Y-55604D01*
X57289Y-54789D02*
X56698Y-54789D01*
X56979Y-54789D02*
X56979Y-54451D01*
X57289Y-54451D02*
X56698Y-54451D01*
X56979Y-54170D02*
X56979Y-53973D01*
X57289Y-53889D02*
X57289Y-54170D01*
X56698Y-54170D01*
X56698Y-53889D01*
X57289Y-53298D02*
X57007Y-53495D01*
X57289Y-53636D02*
X56698Y-53636D01*
X56698Y-53411D01*
X56726Y-53355D01*
X56754Y-53326D01*
X56810Y-53298D01*
X56895Y-53298D01*
X56951Y-53326D01*
X56979Y-53355D01*
X57007Y-53411D01*
X57007Y-53636D01*
X56979Y-53045D02*
X56979Y-52848D01*
X57289Y-52764D02*
X57289Y-53045D01*
X56698Y-53045D01*
X56698Y-52764D01*
X57239Y-46319D02*
X56957Y-46516D01*
X57239Y-46657D02*
X56648Y-46657D01*
X56648Y-46432D01*
X56676Y-46376D01*
X56704Y-46348D01*
X56760Y-46319D01*
X56845Y-46319D01*
X56901Y-46348D01*
X56929Y-46376D01*
X56957Y-46432D01*
X56957Y-46657D01*
X56648Y-45954D02*
X56648Y-45841D01*
X56676Y-45785D01*
X56732Y-45729D01*
X56845Y-45701D01*
X57042Y-45701D01*
X57154Y-45729D01*
X57210Y-45785D01*
X57239Y-45841D01*
X57239Y-45954D01*
X57210Y-46010D01*
X57154Y-46066D01*
X57042Y-46094D01*
X56845Y-46094D01*
X56732Y-46066D01*
X56676Y-46010D01*
X56648Y-45954D01*
X56648Y-45448D02*
X57126Y-45448D01*
X57182Y-45420D01*
X57210Y-45391D01*
X57239Y-45335D01*
X57239Y-45223D01*
X57210Y-45166D01*
X57182Y-45138D01*
X57126Y-45110D01*
X56648Y-45110D01*
X56648Y-44913D02*
X56648Y-44576D01*
X57239Y-44745D02*
X56648Y-44745D01*
X57239Y-44379D02*
X56648Y-44379D01*
X57239Y-44098D02*
X56648Y-44098D01*
X57239Y-43760D01*
X56648Y-43760D01*
X56676Y-43170D02*
X56648Y-43226D01*
X56648Y-43310D01*
X56676Y-43395D01*
X56732Y-43451D01*
X56789Y-43479D01*
X56901Y-43507D01*
X56985Y-43507D01*
X57098Y-43479D01*
X57154Y-43451D01*
X57210Y-43395D01*
X57239Y-43310D01*
X57239Y-43254D01*
X57210Y-43170D01*
X57182Y-43142D01*
X56985Y-43142D01*
X56985Y-43254D01*
X57239Y-42439D02*
X56648Y-42439D01*
X56929Y-42439D02*
X56929Y-42101D01*
X57239Y-42101D02*
X56648Y-42101D01*
X56929Y-41820D02*
X56929Y-41623D01*
X57239Y-41539D02*
X57239Y-41820D01*
X56648Y-41820D01*
X56648Y-41539D01*
X57239Y-40948D02*
X56957Y-41145D01*
X57239Y-41286D02*
X56648Y-41286D01*
X56648Y-41061D01*
X56676Y-41005D01*
X56704Y-40976D01*
X56760Y-40948D01*
X56845Y-40948D01*
X56901Y-40976D01*
X56929Y-41005D01*
X56957Y-41061D01*
X56957Y-41286D01*
X56929Y-40695D02*
X56929Y-40498D01*
X57239Y-40414D02*
X57239Y-40695D01*
X56648Y-40695D01*
X56648Y-40414D01*
X91818Y-55339D02*
X91818Y-54748D01*
X92043Y-54748D01*
X92099Y-54776D01*
X92128Y-54804D01*
X92156Y-54860D01*
X92156Y-54945D01*
X92128Y-55001D01*
X92099Y-55029D01*
X92043Y-55057D01*
X91818Y-55057D01*
X92409Y-54748D02*
X92409Y-55226D01*
X92437Y-55282D01*
X92465Y-55310D01*
X92521Y-55339D01*
X92634Y-55339D01*
X92690Y-55310D01*
X92718Y-55282D01*
X92746Y-55226D01*
X92746Y-54748D01*
X92943Y-54748D02*
X93280Y-54748D01*
X93112Y-55339D02*
X93112Y-54748D01*
X93927Y-55339D02*
X93927Y-54748D01*
X94068Y-54748D01*
X94152Y-54776D01*
X94208Y-54832D01*
X94237Y-54889D01*
X94265Y-55001D01*
X94265Y-55085D01*
X94237Y-55198D01*
X94208Y-55254D01*
X94152Y-55310D01*
X94068Y-55339D01*
X93927Y-55339D01*
X94855Y-55339D02*
X94658Y-55057D01*
X94518Y-55339D02*
X94518Y-54748D01*
X94743Y-54748D01*
X94799Y-54776D01*
X94827Y-54804D01*
X94855Y-54860D01*
X94855Y-54945D01*
X94827Y-55001D01*
X94799Y-55029D01*
X94743Y-55057D01*
X94518Y-55057D01*
X95108Y-55339D02*
X95108Y-54748D01*
X95671Y-55339D02*
X95390Y-55339D01*
X95390Y-54748D01*
X96149Y-55339D02*
X95868Y-55339D01*
X95868Y-54748D01*
X96796Y-55339D02*
X96796Y-54748D01*
X96796Y-55029D02*
X97133Y-55029D01*
X97133Y-55339D02*
X97133Y-54748D01*
X97527Y-54748D02*
X97639Y-54748D01*
X97696Y-54776D01*
X97752Y-54832D01*
X97780Y-54945D01*
X97780Y-55142D01*
X97752Y-55254D01*
X97696Y-55310D01*
X97639Y-55339D01*
X97527Y-55339D01*
X97471Y-55310D01*
X97414Y-55254D01*
X97386Y-55142D01*
X97386Y-54945D01*
X97414Y-54832D01*
X97471Y-54776D01*
X97527Y-54748D01*
X98314Y-55339D02*
X98033Y-55339D01*
X98033Y-54748D01*
X98511Y-55029D02*
X98708Y-55029D01*
X98792Y-55339D02*
X98511Y-55339D01*
X98511Y-54748D01*
X98792Y-54748D01*
X99017Y-55310D02*
X99102Y-55339D01*
X99242Y-55339D01*
X99298Y-55310D01*
X99327Y-55282D01*
X99355Y-55226D01*
X99355Y-55170D01*
X99327Y-55114D01*
X99298Y-55085D01*
X99242Y-55057D01*
X99130Y-55029D01*
X99074Y-55001D01*
X99045Y-54973D01*
X99017Y-54917D01*
X99017Y-54860D01*
X99045Y-54804D01*
X99074Y-54776D01*
X99130Y-54748D01*
X99270Y-54748D01*
X99355Y-54776D01*
X100170Y-54748D02*
X100283Y-54748D01*
X100339Y-54776D01*
X100395Y-54832D01*
X100423Y-54945D01*
X100423Y-55142D01*
X100395Y-55254D01*
X100339Y-55310D01*
X100283Y-55339D01*
X100170Y-55339D01*
X100114Y-55310D01*
X100058Y-55254D01*
X100030Y-55142D01*
X100030Y-54945D01*
X100058Y-54832D01*
X100114Y-54776D01*
X100170Y-54748D01*
X100676Y-55339D02*
X100676Y-54748D01*
X101014Y-55339D01*
X101014Y-54748D01*
X101745Y-55339D02*
X101745Y-54748D01*
X102083Y-55339D01*
X102083Y-54748D01*
X102701Y-55282D02*
X102673Y-55310D01*
X102589Y-55339D01*
X102532Y-55339D01*
X102448Y-55310D01*
X102392Y-55254D01*
X102364Y-55198D01*
X102336Y-55085D01*
X102336Y-55001D01*
X102364Y-54889D01*
X102392Y-54832D01*
X102448Y-54776D01*
X102532Y-54748D01*
X102589Y-54748D01*
X102673Y-54776D01*
X102701Y-54804D01*
X103404Y-55339D02*
X103404Y-54748D01*
X103545Y-54748D01*
X103629Y-54776D01*
X103685Y-54832D01*
X103714Y-54889D01*
X103742Y-55001D01*
X103742Y-55085D01*
X103714Y-55198D01*
X103685Y-55254D01*
X103629Y-55310D01*
X103545Y-55339D01*
X103404Y-55339D01*
X104332Y-55339D02*
X104135Y-55057D01*
X103995Y-55339D02*
X103995Y-54748D01*
X104220Y-54748D01*
X104276Y-54776D01*
X104304Y-54804D01*
X104332Y-54860D01*
X104332Y-54945D01*
X104304Y-55001D01*
X104276Y-55029D01*
X104220Y-55057D01*
X103995Y-55057D01*
X104585Y-55339D02*
X104585Y-54748D01*
X105148Y-55339D02*
X104867Y-55339D01*
X104867Y-54748D01*
X105626Y-55339D02*
X105345Y-55339D01*
X105345Y-54748D01*
X106554Y-55339D02*
X106273Y-55339D01*
X106273Y-54748D01*
X106723Y-55170D02*
X107004Y-55170D01*
X106666Y-55339D02*
X106863Y-54748D01*
X107060Y-55339D01*
X107369Y-55057D02*
X107369Y-55339D01*
X107173Y-54748D02*
X107369Y-55057D01*
X107566Y-54748D01*
X107763Y-55029D02*
X107960Y-55029D01*
X108044Y-55339D02*
X107763Y-55339D01*
X107763Y-54748D01*
X108044Y-54748D01*
X108635Y-55339D02*
X108438Y-55057D01*
X108297Y-55339D02*
X108297Y-54748D01*
X108522Y-54748D01*
X108579Y-54776D01*
X108607Y-54804D01*
X108635Y-54860D01*
X108635Y-54945D01*
X108607Y-55001D01*
X108579Y-55029D01*
X108522Y-55057D01*
X108297Y-55057D01*
X109535Y-55029D02*
X109338Y-55029D01*
X109338Y-55339D02*
X109338Y-54748D01*
X109619Y-54748D01*
X109957Y-54748D02*
X110069Y-54748D01*
X110125Y-54776D01*
X110182Y-54832D01*
X110210Y-54945D01*
X110210Y-55142D01*
X110182Y-55254D01*
X110125Y-55310D01*
X110069Y-55339D01*
X109957Y-55339D01*
X109900Y-55310D01*
X109844Y-55254D01*
X109816Y-55142D01*
X109816Y-54945D01*
X109844Y-54832D01*
X109900Y-54776D01*
X109957Y-54748D01*
X110800Y-55339D02*
X110603Y-55057D01*
X110463Y-55339D02*
X110463Y-54748D01*
X110688Y-54748D01*
X110744Y-54776D01*
X110772Y-54804D01*
X110800Y-54860D01*
X110800Y-54945D01*
X110772Y-55001D01*
X110744Y-55029D01*
X110688Y-55057D01*
X110463Y-55057D01*
X111616Y-54748D02*
X111728Y-54748D01*
X111784Y-54776D01*
X111841Y-54832D01*
X111869Y-54945D01*
X111869Y-55142D01*
X111841Y-55254D01*
X111784Y-55310D01*
X111728Y-55339D01*
X111616Y-55339D01*
X111559Y-55310D01*
X111503Y-55254D01*
X111475Y-55142D01*
X111475Y-54945D01*
X111503Y-54832D01*
X111559Y-54776D01*
X111616Y-54748D01*
X112094Y-55310D02*
X112178Y-55339D01*
X112319Y-55339D01*
X112375Y-55310D01*
X112403Y-55282D01*
X112431Y-55226D01*
X112431Y-55170D01*
X112403Y-55114D01*
X112375Y-55085D01*
X112319Y-55057D01*
X112206Y-55029D01*
X112150Y-55001D01*
X112122Y-54973D01*
X112094Y-54917D01*
X112094Y-54860D01*
X112122Y-54804D01*
X112150Y-54776D01*
X112206Y-54748D01*
X112347Y-54748D01*
X112431Y-54776D01*
X112684Y-55339D02*
X112684Y-54748D01*
X112684Y-55029D02*
X113022Y-55029D01*
X113022Y-55339D02*
X113022Y-54748D01*
X113303Y-55339D02*
X113303Y-54748D01*
X113528Y-54748D01*
X113584Y-54776D01*
X113612Y-54804D01*
X113640Y-54860D01*
X113640Y-54945D01*
X113612Y-55001D01*
X113584Y-55029D01*
X113528Y-55057D01*
X113303Y-55057D01*
X113865Y-55170D02*
X114147Y-55170D01*
X113809Y-55339D02*
X114006Y-54748D01*
X114203Y-55339D01*
X114737Y-55339D02*
X114540Y-55057D01*
X114400Y-55339D02*
X114400Y-54748D01*
X114625Y-54748D01*
X114681Y-54776D01*
X114709Y-54804D01*
X114737Y-54860D01*
X114737Y-54945D01*
X114709Y-55001D01*
X114681Y-55029D01*
X114625Y-55057D01*
X114400Y-55057D01*
X114990Y-55339D02*
X114990Y-54748D01*
X115328Y-55339D02*
X115075Y-55001D01*
X115328Y-54748D02*
X114990Y-55085D01*
X115581Y-55282D02*
X115609Y-55310D01*
X115581Y-55339D01*
X115553Y-55310D01*
X115581Y-55282D01*
X115581Y-55339D01*
X115581Y-55114D02*
X115553Y-54776D01*
X115581Y-54748D01*
X115609Y-54776D01*
X115581Y-55114D01*
X115581Y-54748D01*
G54D12*
X60000Y-60000D02*
X60000Y-39000D01*
G54D11*
X112542Y-50042D02*
X112598Y-50042D01*
X112654Y-50070D01*
X112682Y-50098D01*
X112710Y-50154D01*
X112739Y-50267D01*
X112739Y-50407D01*
X112710Y-50520D01*
X112682Y-50576D01*
X112654Y-50604D01*
X112598Y-50632D01*
X112542Y-50632D01*
X112485Y-50604D01*
X112457Y-50576D01*
X112429Y-50520D01*
X112401Y-50407D01*
X112401Y-50267D01*
X112429Y-50154D01*
X112457Y-50098D01*
X112485Y-50070D01*
X112542Y-50042D01*
X112992Y-50576D02*
X113020Y-50604D01*
X112992Y-50632D01*
X112964Y-50604D01*
X112992Y-50576D01*
X112992Y-50632D01*
X113385Y-50042D02*
X113442Y-50042D01*
X113498Y-50070D01*
X113526Y-50098D01*
X113554Y-50154D01*
X113582Y-50267D01*
X113582Y-50407D01*
X113554Y-50520D01*
X113526Y-50576D01*
X113498Y-50604D01*
X113442Y-50632D01*
X113385Y-50632D01*
X113329Y-50604D01*
X113301Y-50576D01*
X113273Y-50520D01*
X113245Y-50407D01*
X113245Y-50267D01*
X113273Y-50154D01*
X113301Y-50098D01*
X113329Y-50070D01*
X113385Y-50042D01*
X114088Y-50042D02*
X113976Y-50042D01*
X113920Y-50070D01*
X113892Y-50098D01*
X113835Y-50182D01*
X113807Y-50295D01*
X113807Y-50520D01*
X113835Y-50576D01*
X113863Y-50604D01*
X113920Y-50632D01*
X114032Y-50632D01*
X114088Y-50604D01*
X114116Y-50576D01*
X114145Y-50520D01*
X114145Y-50379D01*
X114116Y-50323D01*
X114088Y-50295D01*
X114032Y-50267D01*
X113920Y-50267D01*
X113863Y-50295D01*
X113835Y-50323D01*
X113807Y-50379D01*
X114341Y-50042D02*
X114707Y-50042D01*
X114510Y-50267D01*
X114595Y-50267D01*
X114651Y-50295D01*
X114679Y-50323D01*
X114707Y-50379D01*
X114707Y-50520D01*
X114679Y-50576D01*
X114651Y-50604D01*
X114595Y-50632D01*
X114426Y-50632D01*
X114370Y-50604D01*
X114341Y-50576D01*
X114932Y-50042D02*
X114932Y-50154D01*
X115157Y-50042D02*
X115157Y-50154D01*
G54D12*
X111023Y-53149D02*
X112598Y-53149D01*
X111023Y-47244D02*
X112598Y-47244D01*
X111811Y-47244D02*
X111811Y-53149D01*
G54D13*
X100442Y-50316D02*
X100442Y-50513D01*
X100372Y-50203D02*
X100302Y-50414D01*
X100485Y-50414D01*
X100569Y-50217D02*
X100766Y-50217D01*
X100639Y-50513D01*
X101103Y-50513D02*
X101103Y-50316D01*
X101103Y-50344D02*
X101117Y-50330D01*
X101145Y-50316D01*
X101188Y-50316D01*
X101216Y-50330D01*
X101230Y-50358D01*
X101230Y-50513D01*
X101230Y-50358D02*
X101244Y-50330D01*
X101272Y-50316D01*
X101314Y-50316D01*
X101342Y-50330D01*
X101356Y-50358D01*
X101356Y-50513D01*
X101497Y-50513D02*
X101497Y-50316D01*
X101497Y-50217D02*
X101483Y-50232D01*
X101497Y-50246D01*
X101511Y-50232D01*
X101497Y-50217D01*
X101497Y-50246D01*
X101680Y-50513D02*
X101652Y-50499D01*
X101638Y-50471D01*
X101638Y-50217D01*
X102144Y-50499D02*
X102116Y-50513D01*
X102059Y-50513D01*
X102031Y-50499D01*
X102017Y-50485D01*
X102003Y-50456D01*
X102003Y-50372D01*
X102017Y-50344D01*
X102031Y-50330D01*
X102059Y-50316D01*
X102116Y-50316D01*
X102144Y-50330D01*
X102312Y-50513D02*
X102284Y-50499D01*
X102270Y-50485D01*
X102256Y-50456D01*
X102256Y-50372D01*
X102270Y-50344D01*
X102284Y-50330D01*
X102312Y-50316D01*
X102355Y-50316D01*
X102383Y-50330D01*
X102397Y-50344D01*
X102411Y-50372D01*
X102411Y-50456D01*
X102397Y-50485D01*
X102383Y-50499D01*
X102355Y-50513D01*
X102312Y-50513D01*
X102537Y-50513D02*
X102537Y-50316D01*
X102537Y-50372D02*
X102552Y-50344D01*
X102566Y-50330D01*
X102594Y-50316D01*
X102622Y-50316D01*
X102833Y-50499D02*
X102805Y-50513D01*
X102748Y-50513D01*
X102720Y-50499D01*
X102706Y-50471D01*
X102706Y-50358D01*
X102720Y-50330D01*
X102748Y-50316D01*
X102805Y-50316D01*
X102833Y-50330D01*
X102847Y-50358D01*
X102847Y-50386D01*
X102706Y-50414D01*
X100407Y-52186D02*
X100351Y-52186D01*
X100323Y-52200D01*
X100309Y-52214D01*
X100281Y-52256D01*
X100267Y-52312D01*
X100267Y-52425D01*
X100281Y-52453D01*
X100295Y-52467D01*
X100323Y-52481D01*
X100379Y-52481D01*
X100407Y-52467D01*
X100421Y-52453D01*
X100435Y-52425D01*
X100435Y-52355D01*
X100421Y-52327D01*
X100407Y-52312D01*
X100379Y-52298D01*
X100323Y-52298D01*
X100295Y-52312D01*
X100281Y-52327D01*
X100267Y-52355D01*
X100562Y-52453D02*
X100576Y-52467D01*
X100562Y-52481D01*
X100548Y-52467D01*
X100562Y-52453D01*
X100562Y-52481D01*
X100674Y-52186D02*
X100871Y-52186D01*
X100745Y-52481D01*
X101209Y-52481D02*
X101209Y-52284D01*
X101209Y-52312D02*
X101223Y-52298D01*
X101251Y-52284D01*
X101293Y-52284D01*
X101321Y-52298D01*
X101335Y-52327D01*
X101335Y-52481D01*
X101335Y-52327D02*
X101349Y-52298D01*
X101377Y-52284D01*
X101420Y-52284D01*
X101448Y-52298D01*
X101462Y-52327D01*
X101462Y-52481D01*
X101602Y-52481D02*
X101602Y-52284D01*
X101602Y-52186D02*
X101588Y-52200D01*
X101602Y-52214D01*
X101616Y-52200D01*
X101602Y-52186D01*
X101602Y-52214D01*
X101785Y-52481D02*
X101757Y-52467D01*
X101743Y-52439D01*
X101743Y-52186D01*
X102123Y-52284D02*
X102123Y-52580D01*
X102123Y-52298D02*
X102151Y-52284D01*
X102207Y-52284D01*
X102235Y-52298D01*
X102249Y-52312D01*
X102263Y-52341D01*
X102263Y-52425D01*
X102249Y-52453D01*
X102235Y-52467D01*
X102207Y-52481D01*
X102151Y-52481D01*
X102123Y-52467D01*
X102390Y-52481D02*
X102390Y-52284D01*
X102390Y-52341D02*
X102404Y-52312D01*
X102418Y-52298D01*
X102446Y-52284D01*
X102474Y-52284D01*
X102685Y-52467D02*
X102657Y-52481D01*
X102601Y-52481D01*
X102573Y-52467D01*
X102559Y-52439D01*
X102559Y-52327D01*
X102573Y-52298D01*
X102601Y-52284D01*
X102657Y-52284D01*
X102685Y-52298D01*
X102699Y-52327D01*
X102699Y-52355D01*
X102559Y-52383D01*
X102826Y-52284D02*
X102826Y-52580D01*
X102826Y-52298D02*
X102854Y-52284D01*
X102910Y-52284D01*
X102938Y-52298D01*
X102952Y-52312D01*
X102966Y-52341D01*
X102966Y-52425D01*
X102952Y-52453D01*
X102938Y-52467D01*
X102910Y-52481D01*
X102854Y-52481D01*
X102826Y-52467D01*
X103093Y-52481D02*
X103093Y-52284D01*
X103093Y-52341D02*
X103107Y-52312D01*
X103121Y-52298D01*
X103149Y-52284D01*
X103177Y-52284D01*
X103388Y-52467D02*
X103360Y-52481D01*
X103304Y-52481D01*
X103276Y-52467D01*
X103262Y-52439D01*
X103262Y-52327D01*
X103276Y-52298D01*
X103304Y-52284D01*
X103360Y-52284D01*
X103388Y-52298D01*
X103402Y-52327D01*
X103402Y-52355D01*
X103262Y-52383D01*
X103655Y-52284D02*
X103655Y-52523D01*
X103641Y-52552D01*
X103627Y-52566D01*
X103599Y-52580D01*
X103557Y-52580D01*
X103529Y-52566D01*
X103655Y-52467D02*
X103627Y-52481D01*
X103571Y-52481D01*
X103543Y-52467D01*
X103529Y-52453D01*
X103515Y-52425D01*
X103515Y-52341D01*
X103529Y-52312D01*
X103543Y-52298D01*
X103571Y-52284D01*
X103627Y-52284D01*
X103655Y-52298D01*
X100407Y-48249D02*
X100351Y-48249D01*
X100323Y-48263D01*
X100309Y-48277D01*
X100281Y-48319D01*
X100267Y-48375D01*
X100267Y-48488D01*
X100281Y-48516D01*
X100295Y-48530D01*
X100323Y-48544D01*
X100379Y-48544D01*
X100407Y-48530D01*
X100421Y-48516D01*
X100435Y-48488D01*
X100435Y-48418D01*
X100421Y-48390D01*
X100407Y-48375D01*
X100379Y-48361D01*
X100323Y-48361D01*
X100295Y-48375D01*
X100281Y-48390D01*
X100267Y-48418D01*
X100562Y-48516D02*
X100576Y-48530D01*
X100562Y-48544D01*
X100548Y-48530D01*
X100562Y-48516D01*
X100562Y-48544D01*
X100674Y-48249D02*
X100871Y-48249D01*
X100745Y-48544D01*
X101209Y-48544D02*
X101209Y-48347D01*
X101209Y-48375D02*
X101223Y-48361D01*
X101251Y-48347D01*
X101293Y-48347D01*
X101321Y-48361D01*
X101335Y-48390D01*
X101335Y-48544D01*
X101335Y-48390D02*
X101349Y-48361D01*
X101377Y-48347D01*
X101420Y-48347D01*
X101448Y-48361D01*
X101462Y-48390D01*
X101462Y-48544D01*
X101602Y-48544D02*
X101602Y-48347D01*
X101602Y-48249D02*
X101588Y-48263D01*
X101602Y-48277D01*
X101616Y-48263D01*
X101602Y-48249D01*
X101602Y-48277D01*
X101785Y-48544D02*
X101757Y-48530D01*
X101743Y-48502D01*
X101743Y-48249D01*
X102123Y-48347D02*
X102123Y-48643D01*
X102123Y-48361D02*
X102151Y-48347D01*
X102207Y-48347D01*
X102235Y-48361D01*
X102249Y-48375D01*
X102263Y-48404D01*
X102263Y-48488D01*
X102249Y-48516D01*
X102235Y-48530D01*
X102207Y-48544D01*
X102151Y-48544D01*
X102123Y-48530D01*
X102390Y-48544D02*
X102390Y-48347D01*
X102390Y-48404D02*
X102404Y-48375D01*
X102418Y-48361D01*
X102446Y-48347D01*
X102474Y-48347D01*
X102685Y-48530D02*
X102657Y-48544D01*
X102601Y-48544D01*
X102573Y-48530D01*
X102559Y-48502D01*
X102559Y-48390D01*
X102573Y-48361D01*
X102601Y-48347D01*
X102657Y-48347D01*
X102685Y-48361D01*
X102699Y-48390D01*
X102699Y-48418D01*
X102559Y-48446D01*
X102826Y-48347D02*
X102826Y-48643D01*
X102826Y-48361D02*
X102854Y-48347D01*
X102910Y-48347D01*
X102938Y-48361D01*
X102952Y-48375D01*
X102966Y-48404D01*
X102966Y-48488D01*
X102952Y-48516D01*
X102938Y-48530D01*
X102910Y-48544D01*
X102854Y-48544D01*
X102826Y-48530D01*
X103093Y-48544D02*
X103093Y-48347D01*
X103093Y-48404D02*
X103107Y-48375D01*
X103121Y-48361D01*
X103149Y-48347D01*
X103177Y-48347D01*
X103388Y-48530D02*
X103360Y-48544D01*
X103304Y-48544D01*
X103276Y-48530D01*
X103262Y-48502D01*
X103262Y-48390D01*
X103276Y-48361D01*
X103304Y-48347D01*
X103360Y-48347D01*
X103388Y-48361D01*
X103402Y-48390D01*
X103402Y-48418D01*
X103262Y-48446D01*
X103655Y-48347D02*
X103655Y-48586D01*
X103641Y-48615D01*
X103627Y-48629D01*
X103599Y-48643D01*
X103557Y-48643D01*
X103529Y-48629D01*
X103655Y-48530D02*
X103627Y-48544D01*
X103571Y-48544D01*
X103543Y-48530D01*
X103529Y-48516D01*
X103515Y-48488D01*
X103515Y-48404D01*
X103529Y-48375D01*
X103543Y-48361D01*
X103571Y-48347D01*
X103627Y-48347D01*
X103655Y-48361D01*
G54D11*
X107311Y-50435D02*
X107367Y-50435D01*
X107424Y-50464D01*
X107452Y-50492D01*
X107480Y-50548D01*
X107508Y-50660D01*
X107508Y-50801D01*
X107480Y-50913D01*
X107452Y-50970D01*
X107424Y-50998D01*
X107367Y-51026D01*
X107311Y-51026D01*
X107255Y-50998D01*
X107227Y-50970D01*
X107199Y-50913D01*
X107170Y-50801D01*
X107170Y-50660D01*
X107199Y-50548D01*
X107227Y-50492D01*
X107255Y-50464D01*
X107311Y-50435D01*
X107761Y-50970D02*
X107789Y-50998D01*
X107761Y-51026D01*
X107733Y-50998D01*
X107761Y-50970D01*
X107761Y-51026D01*
X108323Y-50435D02*
X108042Y-50435D01*
X108014Y-50717D01*
X108042Y-50688D01*
X108098Y-50660D01*
X108239Y-50660D01*
X108295Y-50688D01*
X108323Y-50717D01*
X108352Y-50773D01*
X108352Y-50913D01*
X108323Y-50970D01*
X108295Y-50998D01*
X108239Y-51026D01*
X108098Y-51026D01*
X108042Y-50998D01*
X108014Y-50970D01*
X108689Y-51026D02*
X108633Y-50998D01*
X108605Y-50970D01*
X108577Y-50913D01*
X108577Y-50745D01*
X108605Y-50688D01*
X108633Y-50660D01*
X108689Y-50632D01*
X108773Y-50632D01*
X108830Y-50660D01*
X108858Y-50688D01*
X108886Y-50745D01*
X108886Y-50913D01*
X108858Y-50970D01*
X108830Y-50998D01*
X108773Y-51026D01*
X108689Y-51026D01*
X109083Y-50632D02*
X109392Y-50632D01*
X109083Y-51026D01*
X109392Y-51026D01*
X107311Y-48861D02*
X107367Y-48861D01*
X107424Y-48889D01*
X107452Y-48917D01*
X107480Y-48973D01*
X107508Y-49086D01*
X107508Y-49226D01*
X107480Y-49339D01*
X107452Y-49395D01*
X107424Y-49423D01*
X107367Y-49451D01*
X107311Y-49451D01*
X107255Y-49423D01*
X107227Y-49395D01*
X107199Y-49339D01*
X107170Y-49226D01*
X107170Y-49086D01*
X107199Y-48973D01*
X107227Y-48917D01*
X107255Y-48889D01*
X107311Y-48861D01*
X107761Y-49395D02*
X107789Y-49423D01*
X107761Y-49451D01*
X107733Y-49423D01*
X107761Y-49395D01*
X107761Y-49451D01*
X108323Y-48861D02*
X108042Y-48861D01*
X108014Y-49142D01*
X108042Y-49114D01*
X108098Y-49086D01*
X108239Y-49086D01*
X108295Y-49114D01*
X108323Y-49142D01*
X108352Y-49198D01*
X108352Y-49339D01*
X108323Y-49395D01*
X108295Y-49423D01*
X108239Y-49451D01*
X108098Y-49451D01*
X108042Y-49423D01*
X108014Y-49395D01*
X108689Y-49451D02*
X108633Y-49423D01*
X108605Y-49395D01*
X108577Y-49339D01*
X108577Y-49170D01*
X108605Y-49114D01*
X108633Y-49086D01*
X108689Y-49057D01*
X108773Y-49057D01*
X108830Y-49086D01*
X108858Y-49114D01*
X108886Y-49170D01*
X108886Y-49339D01*
X108858Y-49395D01*
X108830Y-49423D01*
X108773Y-49451D01*
X108689Y-49451D01*
X109083Y-49057D02*
X109392Y-49057D01*
X109083Y-49451D01*
X109392Y-49451D01*
X107536Y-52994D02*
X107199Y-52994D01*
X107367Y-52994D02*
X107367Y-52404D01*
X107311Y-52488D01*
X107255Y-52544D01*
X107199Y-52573D01*
X107874Y-52994D02*
X107817Y-52966D01*
X107789Y-52938D01*
X107761Y-52882D01*
X107761Y-52713D01*
X107789Y-52657D01*
X107817Y-52629D01*
X107874Y-52601D01*
X107958Y-52601D01*
X108014Y-52629D01*
X108042Y-52657D01*
X108070Y-52713D01*
X108070Y-52882D01*
X108042Y-52938D01*
X108014Y-52966D01*
X107958Y-52994D01*
X107874Y-52994D01*
X108267Y-52601D02*
X108577Y-52601D01*
X108267Y-52994D01*
X108577Y-52994D01*
X107536Y-47483D02*
X107199Y-47483D01*
X107367Y-47483D02*
X107367Y-46892D01*
X107311Y-46976D01*
X107255Y-47033D01*
X107199Y-47061D01*
X107874Y-47483D02*
X107817Y-47455D01*
X107789Y-47426D01*
X107761Y-47370D01*
X107761Y-47201D01*
X107789Y-47145D01*
X107817Y-47117D01*
X107874Y-47089D01*
X107958Y-47089D01*
X108014Y-47117D01*
X108042Y-47145D01*
X108070Y-47201D01*
X108070Y-47370D01*
X108042Y-47426D01*
X108014Y-47455D01*
X107958Y-47483D01*
X107874Y-47483D01*
X108267Y-47089D02*
X108577Y-47089D01*
X108267Y-47483D01*
X108577Y-47483D01*
X93584Y-52917D02*
X93669Y-52945D01*
X93697Y-52973D01*
X93725Y-53029D01*
X93725Y-53113D01*
X93697Y-53170D01*
X93669Y-53198D01*
X93612Y-53226D01*
X93387Y-53226D01*
X93387Y-52635D01*
X93584Y-52635D01*
X93640Y-52664D01*
X93669Y-52692D01*
X93697Y-52748D01*
X93697Y-52804D01*
X93669Y-52860D01*
X93640Y-52888D01*
X93584Y-52917D01*
X93387Y-52917D01*
X94062Y-53226D02*
X94006Y-53198D01*
X93978Y-53170D01*
X93950Y-53113D01*
X93950Y-52945D01*
X93978Y-52888D01*
X94006Y-52860D01*
X94062Y-52832D01*
X94147Y-52832D01*
X94203Y-52860D01*
X94231Y-52888D01*
X94259Y-52945D01*
X94259Y-53113D01*
X94231Y-53170D01*
X94203Y-53198D01*
X94147Y-53226D01*
X94062Y-53226D01*
X94428Y-52832D02*
X94653Y-52832D01*
X94512Y-52635D02*
X94512Y-53142D01*
X94540Y-53198D01*
X94597Y-53226D01*
X94653Y-53226D01*
X94765Y-52832D02*
X94990Y-52832D01*
X94850Y-52635D02*
X94850Y-53142D01*
X94878Y-53198D01*
X94934Y-53226D01*
X94990Y-53226D01*
X95271Y-53226D02*
X95215Y-53198D01*
X95187Y-53170D01*
X95159Y-53113D01*
X95159Y-52945D01*
X95187Y-52888D01*
X95215Y-52860D01*
X95271Y-52832D01*
X95356Y-52832D01*
X95412Y-52860D01*
X95440Y-52888D01*
X95468Y-52945D01*
X95468Y-53113D01*
X95440Y-53170D01*
X95412Y-53198D01*
X95356Y-53226D01*
X95271Y-53226D01*
X95721Y-53226D02*
X95721Y-52832D01*
X95721Y-52888D02*
X95750Y-52860D01*
X95806Y-52832D01*
X95890Y-52832D01*
X95946Y-52860D01*
X95975Y-52917D01*
X95975Y-53226D01*
X95975Y-52917D02*
X96003Y-52860D01*
X96059Y-52832D01*
X96143Y-52832D01*
X96200Y-52860D01*
X96228Y-52917D01*
X96228Y-53226D01*
X97240Y-53226D02*
X96959Y-53226D01*
X96959Y-52635D01*
X97690Y-53226D02*
X97690Y-52917D01*
X97662Y-52860D01*
X97606Y-52832D01*
X97493Y-52832D01*
X97437Y-52860D01*
X97690Y-53198D02*
X97634Y-53226D01*
X97493Y-53226D01*
X97437Y-53198D01*
X97409Y-53142D01*
X97409Y-53085D01*
X97437Y-53029D01*
X97493Y-53001D01*
X97634Y-53001D01*
X97690Y-52973D01*
X97915Y-52832D02*
X98056Y-53226D01*
X98196Y-52832D02*
X98056Y-53226D01*
X97999Y-53367D01*
X97971Y-53395D01*
X97915Y-53423D01*
X98646Y-53198D02*
X98590Y-53226D01*
X98477Y-53226D01*
X98421Y-53198D01*
X98393Y-53142D01*
X98393Y-52917D01*
X98421Y-52860D01*
X98477Y-52832D01*
X98590Y-52832D01*
X98646Y-52860D01*
X98674Y-52917D01*
X98674Y-52973D01*
X98393Y-53029D01*
X98927Y-53226D02*
X98927Y-52832D01*
X98927Y-52945D02*
X98955Y-52888D01*
X98984Y-52860D01*
X99040Y-52832D01*
X99096Y-52832D01*
X96109Y-51432D02*
X96109Y-50842D01*
X96390Y-51039D02*
X96390Y-51432D01*
X96390Y-51095D02*
X96418Y-51067D01*
X96475Y-51039D01*
X96559Y-51039D01*
X96615Y-51067D01*
X96643Y-51123D01*
X96643Y-51432D01*
X96925Y-51039D02*
X96925Y-51432D01*
X96925Y-51095D02*
X96953Y-51067D01*
X97009Y-51039D01*
X97093Y-51039D01*
X97150Y-51067D01*
X97178Y-51123D01*
X97178Y-51432D01*
X97684Y-51404D02*
X97628Y-51432D01*
X97515Y-51432D01*
X97459Y-51404D01*
X97431Y-51348D01*
X97431Y-51123D01*
X97459Y-51067D01*
X97515Y-51039D01*
X97628Y-51039D01*
X97684Y-51067D01*
X97712Y-51123D01*
X97712Y-51179D01*
X97431Y-51235D01*
X97965Y-51432D02*
X97965Y-51039D01*
X97965Y-51151D02*
X97993Y-51095D01*
X98021Y-51067D01*
X98078Y-51039D01*
X98134Y-51039D01*
X98977Y-51123D02*
X99062Y-51151D01*
X99090Y-51179D01*
X99118Y-51235D01*
X99118Y-51320D01*
X99090Y-51376D01*
X99062Y-51404D01*
X99006Y-51432D01*
X98781Y-51432D01*
X98781Y-50842D01*
X98977Y-50842D01*
X99034Y-50870D01*
X99062Y-50898D01*
X99090Y-50954D01*
X99090Y-51010D01*
X99062Y-51067D01*
X99034Y-51095D01*
X98977Y-51123D01*
X98781Y-51123D01*
X96151Y-49539D02*
X96151Y-48948D01*
X96432Y-49145D02*
X96432Y-49539D01*
X96432Y-49201D02*
X96461Y-49173D01*
X96517Y-49145D01*
X96601Y-49145D01*
X96657Y-49173D01*
X96686Y-49229D01*
X96686Y-49539D01*
X96967Y-49145D02*
X96967Y-49539D01*
X96967Y-49201D02*
X96995Y-49173D01*
X97051Y-49145D01*
X97135Y-49145D01*
X97192Y-49173D01*
X97220Y-49229D01*
X97220Y-49539D01*
X97726Y-49510D02*
X97670Y-49539D01*
X97557Y-49539D01*
X97501Y-49510D01*
X97473Y-49454D01*
X97473Y-49229D01*
X97501Y-49173D01*
X97557Y-49145D01*
X97670Y-49145D01*
X97726Y-49173D01*
X97754Y-49229D01*
X97754Y-49285D01*
X97473Y-49342D01*
X98007Y-49539D02*
X98007Y-49145D01*
X98007Y-49257D02*
X98035Y-49201D01*
X98064Y-49173D01*
X98120Y-49145D01*
X98176Y-49145D01*
X98795Y-49370D02*
X99076Y-49370D01*
X98738Y-49539D02*
X98935Y-48948D01*
X99132Y-49539D01*
X94904Y-46954D02*
X95242Y-46954D01*
X95073Y-47545D02*
X95073Y-46954D01*
X95523Y-47545D02*
X95467Y-47517D01*
X95439Y-47489D01*
X95411Y-47432D01*
X95411Y-47264D01*
X95439Y-47207D01*
X95467Y-47179D01*
X95523Y-47151D01*
X95607Y-47151D01*
X95664Y-47179D01*
X95692Y-47207D01*
X95720Y-47264D01*
X95720Y-47432D01*
X95692Y-47489D01*
X95664Y-47517D01*
X95607Y-47545D01*
X95523Y-47545D01*
X95973Y-47151D02*
X95973Y-47742D01*
X95973Y-47179D02*
X96029Y-47151D01*
X96142Y-47151D01*
X96198Y-47179D01*
X96226Y-47207D01*
X96254Y-47264D01*
X96254Y-47432D01*
X96226Y-47489D01*
X96198Y-47517D01*
X96142Y-47545D01*
X96029Y-47545D01*
X95973Y-47517D01*
X97239Y-47545D02*
X96957Y-47545D01*
X96957Y-46954D01*
X97688Y-47545D02*
X97688Y-47235D01*
X97660Y-47179D01*
X97604Y-47151D01*
X97492Y-47151D01*
X97435Y-47179D01*
X97688Y-47517D02*
X97632Y-47545D01*
X97492Y-47545D01*
X97435Y-47517D01*
X97407Y-47460D01*
X97407Y-47404D01*
X97435Y-47348D01*
X97492Y-47320D01*
X97632Y-47320D01*
X97688Y-47292D01*
X97913Y-47151D02*
X98054Y-47545D01*
X98195Y-47151D02*
X98054Y-47545D01*
X97998Y-47685D01*
X97970Y-47714D01*
X97913Y-47742D01*
X98645Y-47517D02*
X98588Y-47545D01*
X98476Y-47545D01*
X98420Y-47517D01*
X98392Y-47460D01*
X98392Y-47235D01*
X98420Y-47179D01*
X98476Y-47151D01*
X98588Y-47151D01*
X98645Y-47179D01*
X98673Y-47235D01*
X98673Y-47292D01*
X98392Y-47348D01*
X98926Y-47545D02*
X98926Y-47151D01*
X98926Y-47264D02*
X98954Y-47207D01*
X98982Y-47179D01*
X99038Y-47151D01*
X99095Y-47151D01*
G54D12*
X99300Y-51193D02*
X104400Y-51193D01*
G54D11*
X104796Y-51176D02*
X104825Y-51204D01*
X104796Y-51232D01*
X104768Y-51204D01*
X104796Y-51176D01*
X104796Y-51232D01*
X105331Y-50839D02*
X105331Y-51317D01*
X105303Y-51373D01*
X105275Y-51401D01*
X105218Y-51429D01*
X105134Y-51429D01*
X105078Y-51401D01*
X105331Y-51204D02*
X105275Y-51232D01*
X105162Y-51232D01*
X105106Y-51204D01*
X105078Y-51176D01*
X105050Y-51120D01*
X105050Y-50951D01*
X105078Y-50895D01*
X105106Y-50867D01*
X105162Y-50839D01*
X105275Y-50839D01*
X105331Y-50867D01*
X105556Y-50642D02*
X105921Y-50642D01*
X105724Y-50867D01*
X105809Y-50867D01*
X105865Y-50895D01*
X105893Y-50923D01*
X105921Y-50979D01*
X105921Y-51120D01*
X105893Y-51176D01*
X105865Y-51204D01*
X105809Y-51232D01*
X105640Y-51232D01*
X105584Y-51204D01*
X105556Y-51176D01*
X106259Y-51232D02*
X106203Y-51204D01*
X106174Y-51148D01*
X106174Y-50642D01*
X104911Y-53070D02*
X104939Y-53098D01*
X104911Y-53126D01*
X104882Y-53098D01*
X104911Y-53070D01*
X104911Y-53126D01*
X105445Y-52732D02*
X105445Y-53210D01*
X105417Y-53267D01*
X105389Y-53295D01*
X105332Y-53323D01*
X105248Y-53323D01*
X105192Y-53295D01*
X105445Y-53098D02*
X105389Y-53126D01*
X105276Y-53126D01*
X105220Y-53098D01*
X105192Y-53070D01*
X105164Y-53013D01*
X105164Y-52845D01*
X105192Y-52788D01*
X105220Y-52760D01*
X105276Y-52732D01*
X105389Y-52732D01*
X105445Y-52760D01*
X105726Y-53126D02*
X105726Y-52535D01*
X105726Y-52760D02*
X105782Y-52732D01*
X105895Y-52732D01*
X105951Y-52760D01*
X105979Y-52788D01*
X106007Y-52845D01*
X106007Y-53013D01*
X105979Y-53070D01*
X105951Y-53098D01*
X105895Y-53126D01*
X105782Y-53126D01*
X105726Y-53098D01*
X106345Y-53126D02*
X106288Y-53098D01*
X106260Y-53042D01*
X106260Y-52535D01*
G54D12*
X99300Y-53087D02*
X104400Y-53087D01*
X99300Y-49300D02*
X104400Y-49300D01*
G54D11*
X104896Y-49282D02*
X104925Y-49310D01*
X104896Y-49339D01*
X104868Y-49310D01*
X104896Y-49282D01*
X104896Y-49339D01*
X105431Y-48945D02*
X105431Y-49423D01*
X105403Y-49479D01*
X105375Y-49507D01*
X105318Y-49535D01*
X105234Y-49535D01*
X105178Y-49507D01*
X105431Y-49310D02*
X105375Y-49339D01*
X105262Y-49339D01*
X105206Y-49310D01*
X105178Y-49282D01*
X105150Y-49226D01*
X105150Y-49057D01*
X105178Y-49001D01*
X105206Y-48973D01*
X105262Y-48945D01*
X105375Y-48945D01*
X105431Y-48973D01*
X105684Y-48804D02*
X105712Y-48776D01*
X105768Y-48748D01*
X105909Y-48748D01*
X105965Y-48776D01*
X105993Y-48804D01*
X106021Y-48860D01*
X106021Y-48917D01*
X105993Y-49001D01*
X105656Y-49339D01*
X106021Y-49339D01*
X106359Y-49339D02*
X106303Y-49310D01*
X106274Y-49254D01*
X106274Y-48748D01*
X104909Y-47489D02*
X104937Y-47517D01*
X104909Y-47545D01*
X104881Y-47517D01*
X104909Y-47489D01*
X104909Y-47545D01*
X105443Y-47151D02*
X105443Y-47629D01*
X105415Y-47685D01*
X105387Y-47714D01*
X105331Y-47742D01*
X105246Y-47742D01*
X105190Y-47714D01*
X105443Y-47517D02*
X105387Y-47545D01*
X105275Y-47545D01*
X105218Y-47517D01*
X105190Y-47489D01*
X105162Y-47432D01*
X105162Y-47264D01*
X105190Y-47207D01*
X105218Y-47179D01*
X105275Y-47151D01*
X105387Y-47151D01*
X105443Y-47179D01*
X105640Y-47151D02*
X105865Y-47151D01*
X105724Y-46954D02*
X105724Y-47460D01*
X105753Y-47517D01*
X105809Y-47545D01*
X105865Y-47545D01*
X106146Y-47545D02*
X106090Y-47517D01*
X106062Y-47460D01*
X106062Y-46954D01*
G54D12*
X99300Y-47406D02*
X104400Y-47406D01*
G54D14*
X84000Y-44049D02*
X86599Y-44049D01*
X84000Y-41450D02*
X86599Y-41450D01*
X86599Y-44049D02*
X86599Y-41450D01*
X84000Y-44049D02*
X84000Y-41450D01*
G54D15*
X71068Y-59506D02*
X73431Y-59506D01*
X73824Y-59506D02*
X73824Y-59112D01*
X73824Y-59112D02*
X70675Y-59112D01*
X70675Y-59506D02*
X70675Y-59112D01*
X73431Y-59900D02*
X73431Y-59506D01*
X71068Y-59900D02*
X71068Y-59506D01*
G54D14*
X73400Y-60000D02*
G75*
G03X73400Y-61000I500J-500D01*
G74*
G01*
X71100Y-61000D02*
G75*
G03X71100Y-60000I-500J500D01*
G74*
G01*
X71068Y-59998D02*
X68312Y-59998D01*
X73431Y-59998D02*
X76187Y-59998D01*
X73400Y-61000D02*
X76187Y-61000D01*
X71100Y-61000D02*
X68312Y-61000D01*
G54D15*
X73431Y-39493D02*
X71068Y-39493D01*
X70675Y-39493D02*
X70675Y-39887D01*
X70675Y-39887D02*
X73824Y-39887D01*
X73824Y-39493D02*
X73824Y-39887D01*
X71068Y-39100D02*
X71068Y-39493D01*
X73431Y-39100D02*
X73431Y-39493D01*
G54D14*
X71100Y-39000D02*
G75*
G03X71100Y-38000I-500J500D01*
G74*
G01*
X73400Y-38000D02*
G75*
G03X73400Y-39000I500J-500D01*
G74*
G01*
X73431Y-39001D02*
X76187Y-39001D01*
X71068Y-39001D02*
X68312Y-39001D01*
X71100Y-38000D02*
X68312Y-38000D01*
X73400Y-38000D02*
X76187Y-38000D01*
G54D15*
X57993Y-48318D02*
X57993Y-50681D01*
X57993Y-51074D02*
X58387Y-51074D01*
X58387Y-51074D02*
X58387Y-47925D01*
X57993Y-47925D02*
X58387Y-47925D01*
X57600Y-50681D02*
X57993Y-50681D01*
X57600Y-48318D02*
X57993Y-48318D01*
G54D14*
X57500Y-50650D02*
G75*
G03X56500Y-50650I-500J-500D01*
G74*
G01*
X56500Y-48350D02*
G75*
G03X57500Y-48350I500J500D01*
G74*
G01*
X57501Y-48318D02*
X57501Y-45562D01*
X57501Y-50681D02*
X57501Y-53437D01*
X56500Y-50650D02*
X56500Y-53437D01*
X56500Y-48350D02*
X56500Y-45562D01*
G54D15*
X86506Y-50681D02*
X86506Y-48318D01*
X86506Y-47925D02*
X86112Y-47925D01*
X86112Y-47925D02*
X86112Y-51074D01*
X86506Y-51074D02*
X86112Y-51074D01*
X86900Y-48318D02*
X86506Y-48318D01*
X86900Y-50681D02*
X86506Y-50681D01*
G54D14*
X87000Y-48350D02*
G75*
G03X88000Y-48350I500J500D01*
G74*
G01*
X88000Y-50650D02*
G75*
G03X87000Y-50650I-500J-500D01*
G74*
G01*
X86998Y-50681D02*
X86998Y-53437D01*
X86998Y-48318D02*
X86998Y-45562D01*
X88000Y-48350D02*
X88000Y-45562D01*
X88000Y-50650D02*
X88000Y-53437D01*
X63393Y-40741D02*
X63393Y-38733D01*
X66346Y-40741D02*
X66346Y-38733D01*
X66346Y-40741D02*
X63393Y-40741D01*
X66346Y-38733D02*
X63393Y-38733D01*
X66700Y-39029D02*
X62999Y-39029D01*
X57565Y-55881D02*
X59482Y-55881D01*
X57565Y-53518D02*
X59482Y-53518D01*
X59482Y-55881D02*
X59482Y-53518D01*
X57565Y-55881D02*
X57565Y-53518D01*
X59537Y-45535D02*
X59537Y-47464D01*
X57962Y-45314D02*
X57962Y-43385D01*
M02*
